<?xml version="1.0" standalone="no"?>
<!DOCTYPE svg PUBLIC "-//W3C//DTD SVG 20010904//EN"
 "http://www.w3.org/TR/2001/REC-SVG-20010904/DTD/svg10.dtd">
<svg version="1.0" xmlns="http://www.w3.org/2000/svg"
 width="160.000000pt" height="160.000000pt" viewBox="0 0 160.000000 160.000000"
 preserveAspectRatio="xMidYMid meet">
<metadata>
Created by potrace 1.14, written by Peter Selinger 2001-2017
</metadata>
<g transform="translate(0.000000,160.000000) scale(0.100000,-0.100000)"
fill="#000000" stroke="none">
<path d="M565 1324 c-33 -8 -76 -15 -96 -17 -98 -12 -165 -51 -269 -157 -41
-43 -91 -88 -110 -101 -19 -13 -47 -37 -62 -54 l-28 -30 1 -482 0 -482 799 -1
799 0 0 320 c0 176 -4 320 -8 320 -4 0 -16 -10 -27 -21 -25 -28 -116 -90 -179
-122 -186 -94 -396 -94 -543 0 -84 53 -140 124 -173 221 -38 110 -32 181 21
242 l30 35 -6 -29 c-6 -25 -4 -28 10 -23 9 4 23 10 31 13 11 5 13 2 9 -10 -3
-9 -10 -16 -16 -16 -5 0 -6 -4 -3 -10 10 -16 23 -12 49 17 21 22 28 25 38 15
10 -10 10 -17 0 -32 -12 -20 -3 -34 14 -22 5 4 19 22 31 41 l21 34 32 -31 c36
-36 49 -24 31 30 -15 42 -1 57 33 34 25 -16 26 -15 26 2 0 34 -23 51 -80 57
-105 11 -155 38 -125 68 12 12 13 22 5 42 -13 34 -13 35 4 35 8 0 16 -7 20
-15 9 -25 26 -17 26 14 0 21 -10 38 -35 60 -20 17 -42 31 -50 31 -8 0 -18 1
-22 2 -5 1 -24 5 -43 9 -19 4 -48 11 -65 16 -20 6 -50 5 -90 -3z"/>
</g>
</svg>
