<?xml version="1.0" encoding="UTF-8"?>
<svg xmlns="http://www.w3.org/2000/svg" xmlns:xlink="http://www.w3.org/1999/xlink" width="161.394pt" height="161.575pt" viewBox="0 0 161.394 161.575">
<defs>
<g>
<g id="glyph-0-0">
<path d="M 6.640625 -6.75 L 0.546875 -6.75 L 0.359375 -4.5 L 0.609375 -4.5 C 0.75 -6.109375 0.890625 -6.4375 2.40625 -6.4375 C 2.578125 -6.4375 2.84375 -6.4375 2.9375 -6.421875 C 3.15625 -6.375 3.15625 -6.265625 3.15625 -6.046875 L 3.15625 -0.78125 C 3.15625 -0.453125 3.15625 -0.3125 2.109375 -0.3125 L 1.703125 -0.3125 L 1.703125 0 C 2.109375 -0.03125 3.125 -0.03125 3.59375 -0.03125 C 4.046875 -0.03125 5.078125 -0.03125 5.484375 0 L 5.484375 -0.3125 L 5.078125 -0.3125 C 4.03125 -0.3125 4.03125 -0.453125 4.03125 -0.78125 L 4.03125 -6.046875 C 4.03125 -6.234375 4.03125 -6.375 4.21875 -6.421875 C 4.328125 -6.4375 4.59375 -6.4375 4.78125 -6.4375 C 6.296875 -6.4375 6.4375 -6.109375 6.578125 -4.5 L 6.828125 -4.5 Z M 6.640625 -6.75 "/>
</g>
<g id="glyph-0-1">
<path d="M 3.3125 -0.75 C 3.359375 -0.359375 3.625 0.0625 4.09375 0.0625 C 4.3125 0.0625 4.921875 -0.078125 4.921875 -0.890625 L 4.921875 -1.453125 L 4.671875 -1.453125 L 4.671875 -0.890625 C 4.671875 -0.3125 4.421875 -0.25 4.3125 -0.25 C 3.984375 -0.25 3.9375 -0.703125 3.9375 -0.75 L 3.9375 -2.734375 C 3.9375 -3.15625 3.9375 -3.546875 3.578125 -3.921875 C 3.1875 -4.3125 2.6875 -4.46875 2.21875 -4.46875 C 1.390625 -4.46875 0.703125 -4 0.703125 -3.34375 C 0.703125 -3.046875 0.90625 -2.875 1.171875 -2.875 C 1.453125 -2.875 1.625 -3.078125 1.625 -3.328125 C 1.625 -3.453125 1.578125 -3.78125 1.109375 -3.78125 C 1.390625 -4.140625 1.875 -4.25 2.1875 -4.25 C 2.6875 -4.25 3.25 -3.859375 3.25 -2.96875 L 3.25 -2.609375 C 2.734375 -2.578125 2.046875 -2.546875 1.421875 -2.25 C 0.671875 -1.90625 0.421875 -1.390625 0.421875 -0.953125 C 0.421875 -0.140625 1.390625 0.109375 2.015625 0.109375 C 2.671875 0.109375 3.125 -0.296875 3.3125 -0.75 Z M 3.25 -2.390625 L 3.25 -1.390625 C 3.25 -0.453125 2.53125 -0.109375 2.078125 -0.109375 C 1.59375 -0.109375 1.1875 -0.453125 1.1875 -0.953125 C 1.1875 -1.5 1.609375 -2.328125 3.25 -2.390625 Z M 3.25 -2.390625 "/>
</g>
<g id="glyph-0-2">
<path d="M 1.71875 -3.765625 L 1.71875 -6.921875 L 0.28125 -6.8125 L 0.28125 -6.5 C 0.984375 -6.5 1.0625 -6.4375 1.0625 -5.9375 L 1.0625 0 L 1.3125 0 C 1.3125 -0.015625 1.390625 -0.15625 1.671875 -0.625 C 1.8125 -0.390625 2.234375 0.109375 2.96875 0.109375 C 4.15625 0.109375 5.1875 -0.875 5.1875 -2.15625 C 5.1875 -3.421875 4.21875 -4.40625 3.078125 -4.40625 C 2.296875 -4.40625 1.875 -3.9375 1.71875 -3.765625 Z M 1.75 -1.140625 L 1.75 -3.1875 C 1.75 -3.375 1.75 -3.390625 1.859375 -3.546875 C 2.25 -4.109375 2.796875 -4.1875 3.03125 -4.1875 C 3.484375 -4.1875 3.84375 -3.921875 4.078125 -3.546875 C 4.34375 -3.140625 4.359375 -2.578125 4.359375 -2.15625 C 4.359375 -1.796875 4.34375 -1.203125 4.0625 -0.75 C 3.84375 -0.4375 3.46875 -0.109375 2.9375 -0.109375 C 2.484375 -0.109375 2.125 -0.34375 1.890625 -0.71875 C 1.75 -0.921875 1.75 -0.953125 1.75 -1.140625 Z M 1.75 -1.140625 "/>
</g>
<g id="glyph-0-3">
<path d="M 1.765625 -6.921875 L 0.328125 -6.8125 L 0.328125 -6.5 C 1.03125 -6.5 1.109375 -6.4375 1.109375 -5.9375 L 1.109375 -0.75 C 1.109375 -0.3125 1 -0.3125 0.328125 -0.3125 L 0.328125 0 C 0.65625 -0.015625 1.1875 -0.03125 1.4375 -0.03125 C 1.6875 -0.03125 2.171875 -0.015625 2.546875 0 L 2.546875 -0.3125 C 1.875 -0.3125 1.765625 -0.3125 1.765625 -0.75 Z M 1.765625 -6.921875 "/>
</g>
<g id="glyph-0-4">
<path d="M 1.109375 -2.515625 C 1.171875 -4 2.015625 -4.25 2.359375 -4.25 C 3.375 -4.25 3.484375 -2.90625 3.484375 -2.515625 Z M 1.109375 -2.296875 L 3.890625 -2.296875 C 4.109375 -2.296875 4.140625 -2.296875 4.140625 -2.515625 C 4.140625 -3.5 3.59375 -4.46875 2.359375 -4.46875 C 1.203125 -4.46875 0.28125 -3.4375 0.28125 -2.1875 C 0.28125 -0.859375 1.328125 0.109375 2.46875 0.109375 C 3.6875 0.109375 4.140625 -1 4.140625 -1.1875 C 4.140625 -1.28125 4.0625 -1.3125 4 -1.3125 C 3.921875 -1.3125 3.890625 -1.25 3.875 -1.171875 C 3.53125 -0.140625 2.625 -0.140625 2.53125 -0.140625 C 2.03125 -0.140625 1.640625 -0.4375 1.40625 -0.8125 C 1.109375 -1.28125 1.109375 -1.9375 1.109375 -2.296875 Z M 1.109375 -2.296875 "/>
</g>
<g id="glyph-0-5">
<path d="M 3.96875 -6.9375 C 3.921875 -7.0625 3.890625 -7.140625 3.734375 -7.140625 C 3.578125 -7.140625 3.546875 -7.078125 3.5 -6.9375 L 1.4375 -0.984375 C 1.25 -0.46875 0.859375 -0.3125 0.3125 -0.3125 L 0.3125 0 C 0.546875 -0.015625 0.984375 -0.03125 1.328125 -0.03125 C 1.640625 -0.03125 2.15625 -0.015625 2.484375 0 L 2.484375 -0.3125 C 1.984375 -0.3125 1.734375 -0.5625 1.734375 -0.8125 C 1.734375 -0.84375 1.75 -0.953125 1.75 -0.96875 L 2.21875 -2.265625 L 4.671875 -2.265625 L 5.203125 -0.75 C 5.21875 -0.703125 5.234375 -0.640625 5.234375 -0.609375 C 5.234375 -0.3125 4.671875 -0.3125 4.40625 -0.3125 L 4.40625 0 C 4.765625 -0.03125 5.46875 -0.03125 5.84375 -0.03125 C 6.265625 -0.03125 6.734375 -0.015625 7.140625 0 L 7.140625 -0.3125 L 6.96875 -0.3125 C 6.375 -0.3125 6.234375 -0.375 6.125 -0.703125 Z M 3.4375 -5.828125 L 4.5625 -2.578125 L 2.328125 -2.578125 Z M 3.4375 -5.828125 "/>
</g>
<g id="glyph-0-6">
<path d="M 2.21875 -3.65625 L 2.21875 -6.09375 C 2.21875 -6.4375 2.234375 -6.5 2.703125 -6.5 L 3.9375 -6.5 C 4.90625 -6.5 5.25 -5.65625 5.25 -5.125 C 5.25 -4.484375 4.765625 -3.65625 3.65625 -3.65625 Z M 4.5625 -3.5625 C 5.53125 -3.75 6.21875 -4.390625 6.21875 -5.125 C 6.21875 -5.984375 5.296875 -6.8125 4 -6.8125 L 0.359375 -6.8125 L 0.359375 -6.5 L 0.59375 -6.5 C 1.359375 -6.5 1.390625 -6.390625 1.390625 -6.03125 L 1.390625 -0.78125 C 1.390625 -0.421875 1.359375 -0.3125 0.59375 -0.3125 L 0.359375 -0.3125 L 0.359375 0 L 4.265625 0 C 5.59375 0 6.484375 -0.890625 6.484375 -1.828125 C 6.484375 -2.6875 5.671875 -3.4375 4.5625 -3.5625 Z M 3.953125 -0.3125 L 2.703125 -0.3125 C 2.234375 -0.3125 2.21875 -0.375 2.21875 -0.703125 L 2.21875 -3.421875 L 4.09375 -3.421875 C 5.078125 -3.421875 5.5 -2.5 5.5 -1.828125 C 5.5 -1.125 4.96875 -0.3125 3.953125 -0.3125 Z M 3.953125 -0.3125 "/>
</g>
<g id="glyph-0-7">
<path d="M 0.5625 -3.40625 C 0.5625 -1.34375 2.171875 0.21875 4.03125 0.21875 C 5.65625 0.21875 6.625 -1.171875 6.625 -2.328125 C 6.625 -2.421875 6.625 -2.5 6.5 -2.5 C 6.390625 -2.5 6.390625 -2.4375 6.375 -2.328125 C 6.296875 -0.90625 5.234375 -0.09375 4.140625 -0.09375 C 3.53125 -0.09375 1.578125 -0.421875 1.578125 -3.40625 C 1.578125 -6.375 3.53125 -6.71875 4.140625 -6.71875 C 5.21875 -6.71875 6.109375 -5.8125 6.3125 -4.359375 C 6.328125 -4.21875 6.328125 -4.1875 6.46875 -4.1875 C 6.625 -4.1875 6.625 -4.21875 6.625 -4.421875 L 6.625 -6.78125 C 6.625 -6.953125 6.625 -7.03125 6.515625 -7.03125 C 6.484375 -7.03125 6.4375 -7.03125 6.359375 -6.90625 L 5.859375 -6.171875 C 5.5 -6.53125 4.984375 -7.03125 4.03125 -7.03125 C 2.15625 -7.03125 0.5625 -5.4375 0.5625 -3.40625 Z M 0.5625 -3.40625 "/>
</g>
<g id="glyph-0-8">
<path d="M 0.34375 -6.8125 L 0.34375 -6.5 L 0.59375 -6.5 C 1.359375 -6.5 1.375 -6.390625 1.375 -6.03125 L 1.375 -0.78125 C 1.375 -0.421875 1.359375 -0.3125 0.59375 -0.3125 L 0.34375 -0.3125 L 0.34375 0 L 4 0 C 5.671875 0 7.046875 -1.46875 7.046875 -3.34375 C 7.046875 -5.25 5.703125 -6.8125 4 -6.8125 Z M 2.71875 -0.3125 C 2.25 -0.3125 2.234375 -0.375 2.234375 -0.703125 L 2.234375 -6.09375 C 2.234375 -6.4375 2.25 -6.5 2.71875 -6.5 L 3.71875 -6.5 C 4.34375 -6.5 5.03125 -6.28125 5.53125 -5.578125 C 5.96875 -4.984375 6.046875 -4.125 6.046875 -3.34375 C 6.046875 -2.25 5.859375 -1.640625 5.5 -1.15625 C 5.296875 -0.890625 4.734375 -0.3125 3.734375 -0.3125 Z M 2.71875 -0.3125 "/>
</g>
<g id="glyph-0-9">
<path d="M 1.359375 -0.78125 C 1.359375 -0.421875 1.328125 -0.3125 0.5625 -0.3125 L 0.328125 -0.3125 L 0.328125 0 L 6.078125 0 L 6.5 -2.578125 L 6.25 -2.578125 C 6 -1.03125 5.765625 -0.3125 4.0625 -0.3125 L 2.734375 -0.3125 C 2.265625 -0.3125 2.25 -0.375 2.25 -0.703125 L 2.25 -3.375 L 3.140625 -3.375 C 4.109375 -3.375 4.21875 -3.046875 4.21875 -2.203125 L 4.46875 -2.203125 L 4.46875 -4.84375 L 4.21875 -4.84375 C 4.21875 -3.984375 4.109375 -3.671875 3.140625 -3.671875 L 2.25 -3.671875 L 2.25 -6.078125 C 2.25 -6.40625 2.265625 -6.46875 2.734375 -6.46875 L 4.015625 -6.46875 C 5.546875 -6.46875 5.8125 -5.921875 5.96875 -4.53125 L 6.21875 -4.53125 L 5.9375 -6.78125 L 0.328125 -6.78125 L 0.328125 -6.46875 L 0.5625 -6.46875 C 1.328125 -6.46875 1.359375 -6.359375 1.359375 -6 Z M 1.359375 -0.78125 "/>
</g>
<g id="glyph-0-10">
<path d="M 5.796875 -6.78125 L 0.328125 -6.78125 L 0.328125 -6.46875 L 0.5625 -6.46875 C 1.328125 -6.46875 1.359375 -6.359375 1.359375 -6 L 1.359375 -0.78125 C 1.359375 -0.421875 1.328125 -0.3125 0.5625 -0.3125 L 0.328125 -0.3125 L 0.328125 0 C 0.671875 -0.03125 1.453125 -0.03125 1.84375 -0.03125 C 2.25 -0.03125 3.15625 -0.03125 3.515625 0 L 3.515625 -0.3125 L 3.1875 -0.3125 C 2.25 -0.3125 2.25 -0.4375 2.25 -0.78125 L 2.25 -3.234375 L 3.09375 -3.234375 C 4.0625 -3.234375 4.15625 -2.921875 4.15625 -2.078125 L 4.40625 -2.078125 L 4.40625 -4.71875 L 4.15625 -4.71875 C 4.15625 -3.875 4.0625 -3.546875 3.09375 -3.546875 L 2.25 -3.546875 L 2.25 -6.078125 C 2.25 -6.40625 2.265625 -6.46875 2.734375 -6.46875 L 3.921875 -6.46875 C 5.421875 -6.46875 5.671875 -5.90625 5.828125 -4.53125 L 6.078125 -4.53125 Z M 5.796875 -6.78125 "/>
</g>
<g id="glyph-0-11">
<path d="M 5.90625 -0.625 C 6.046875 -0.40625 6.4375 -0.015625 6.546875 -0.015625 C 6.640625 -0.015625 6.640625 -0.09375 6.640625 -0.234375 L 6.640625 -1.96875 C 6.640625 -2.359375 6.671875 -2.40625 7.328125 -2.40625 L 7.328125 -2.71875 C 6.953125 -2.71875 6.40625 -2.6875 6.109375 -2.6875 C 5.71875 -2.6875 4.859375 -2.6875 4.5 -2.71875 L 4.5 -2.40625 L 4.828125 -2.40625 C 5.71875 -2.40625 5.75 -2.296875 5.75 -1.9375 L 5.75 -1.296875 C 5.75 -0.171875 4.484375 -0.09375 4.203125 -0.09375 C 3.5625 -0.09375 1.578125 -0.4375 1.578125 -3.40625 C 1.578125 -6.390625 3.546875 -6.71875 4.140625 -6.71875 C 5.21875 -6.71875 6.125 -5.828125 6.3125 -4.359375 C 6.34375 -4.21875 6.34375 -4.1875 6.484375 -4.1875 C 6.640625 -4.1875 6.640625 -4.21875 6.640625 -4.421875 L 6.640625 -6.78125 C 6.640625 -6.953125 6.640625 -7.03125 6.53125 -7.03125 C 6.484375 -7.03125 6.453125 -7.03125 6.375 -6.90625 L 5.875 -6.171875 C 5.546875 -6.484375 5.015625 -7.03125 4.03125 -7.03125 C 2.171875 -7.03125 0.5625 -5.453125 0.5625 -3.40625 C 0.5625 -1.359375 2.15625 0.21875 4.046875 0.21875 C 4.78125 0.21875 5.578125 -0.046875 5.90625 -0.625 Z M 5.90625 -0.625 "/>
</g>
<g id="glyph-0-12">
<path d="M 6.109375 -6.03125 C 6.109375 -6.390625 6.125 -6.5 6.890625 -6.5 L 7.140625 -6.5 L 7.140625 -6.8125 C 6.78125 -6.78125 6.046875 -6.78125 5.671875 -6.78125 C 5.296875 -6.78125 4.546875 -6.78125 4.203125 -6.8125 L 4.203125 -6.5 L 4.4375 -6.5 C 5.203125 -6.5 5.21875 -6.390625 5.21875 -6.03125 L 5.21875 -3.703125 L 2.25 -3.703125 L 2.25 -6.03125 C 2.25 -6.390625 2.265625 -6.5 3.03125 -6.5 L 3.265625 -6.5 L 3.265625 -6.8125 C 2.921875 -6.78125 2.1875 -6.78125 1.796875 -6.78125 C 1.421875 -6.78125 0.671875 -6.78125 0.328125 -6.8125 L 0.328125 -6.5 L 0.5625 -6.5 C 1.328125 -6.5 1.359375 -6.390625 1.359375 -6.03125 L 1.359375 -0.78125 C 1.359375 -0.421875 1.328125 -0.3125 0.5625 -0.3125 L 0.328125 -0.3125 L 0.328125 0 C 0.671875 -0.03125 1.421875 -0.03125 1.796875 -0.03125 C 2.171875 -0.03125 2.921875 -0.03125 3.265625 0 L 3.265625 -0.3125 L 3.03125 -0.3125 C 2.265625 -0.3125 2.25 -0.421875 2.25 -0.78125 L 2.25 -3.390625 L 5.21875 -3.390625 L 5.21875 -0.78125 C 5.21875 -0.421875 5.203125 -0.3125 4.4375 -0.3125 L 4.203125 -0.3125 L 4.203125 0 C 4.546875 -0.03125 5.28125 -0.03125 5.65625 -0.03125 C 6.046875 -0.03125 6.78125 -0.03125 7.140625 0 L 7.140625 -0.3125 L 6.890625 -0.3125 C 6.125 -0.3125 6.109375 -0.421875 6.109375 -0.78125 Z M 6.109375 -6.03125 "/>
</g>
</g>
<clipPath id="clip-0">
<path clip-rule="nonzero" d="M 0 110 L 52 110 L 52 161.574219 L 0 161.574219 Z M 0 110 "/>
</clipPath>
<clipPath id="clip-1">
<path clip-rule="nonzero" d="M 53 110 L 108 110 L 108 161.574219 L 53 161.574219 Z M 53 110 "/>
</clipPath>
<clipPath id="clip-2">
<path clip-rule="nonzero" d="M 53 110 L 108 110 L 108 161.574219 L 53 161.574219 Z M 53 110 "/>
</clipPath>
<clipPath id="clip-3">
<path clip-rule="nonzero" d="M 109 110 L 161.394531 110 L 161.394531 161.574219 L 109 161.574219 Z M 109 110 "/>
</clipPath>
<clipPath id="clip-4">
<path clip-rule="nonzero" d="M 110 53 L 161.394531 53 L 161.394531 108 L 110 108 Z M 110 53 "/>
</clipPath>
<clipPath id="clip-5">
<path clip-rule="nonzero" d="M 109 0 L 161.394531 0 L 161.394531 52 L 109 52 Z M 109 0 "/>
</clipPath>
</defs>
<g clip-path="url(#clip-0)">
<path fill="none" stroke-width="0.3985" stroke-linecap="butt" stroke-linejoin="miter" stroke="rgb(0%, 0%, 0%)" stroke-opacity="1" stroke-miterlimit="10" d="M 21.774188 -0.00015625 C 21.774188 12.027187 12.028094 21.777187 0.00075 21.777187 C -12.026594 21.777187 -21.776594 12.027187 -21.776594 -0.00015625 C -21.776594 -12.0275 -12.026594 -21.7775 0.00075 -21.7775 C 12.028094 -21.7775 21.774188 -12.0275 21.774188 -0.00015625 Z M 21.774188 -0.00015625 " transform="matrix(1, 0, 0, -1, 23.968, 137.535)"/>
</g>
<g fill="rgb(0%, 0%, 0%)" fill-opacity="1">
<use xlink:href="#glyph-0-0" x="6.533" y="140.994"/>
</g>
<g fill="rgb(0%, 0%, 0%)" fill-opacity="1">
<use xlink:href="#glyph-0-1" x="12.901094" y="140.994"/>
<use xlink:href="#glyph-0-2" x="17.882394" y="140.994"/>
<use xlink:href="#glyph-0-3" x="23.417614" y="140.994"/>
<use xlink:href="#glyph-0-4" x="26.185225" y="140.994"/>
</g>
<g fill="rgb(0%, 0%, 0%)" fill-opacity="1">
<use xlink:href="#glyph-0-5" x="33.93015" y="140.994"/>
</g>
<g clip-path="url(#clip-1)">
<path fill="none" stroke-width="0.3985" stroke-linecap="butt" stroke-linejoin="miter" stroke="rgb(0%, 0%, 0%)" stroke-opacity="1" stroke-miterlimit="10" d="M 78.25075 -0.00015625 C 78.25075 11.906094 68.598406 21.558437 56.692156 21.558437 C 44.785906 21.558437 35.133563 11.906094 35.133563 -0.00015625 C 35.133563 -11.906406 44.785906 -21.55875 56.692156 -21.55875 C 68.598406 -21.55875 78.25075 -11.906406 78.25075 -0.00015625 Z M 78.25075 -0.00015625 " transform="matrix(1, 0, 0, -1, 23.968, 137.535)"/>
</g>
<g fill="rgb(0%, 0%, 0%)" fill-opacity="1">
<use xlink:href="#glyph-0-0" x="63.433" y="140.994"/>
</g>
<g fill="rgb(0%, 0%, 0%)" fill-opacity="1">
<use xlink:href="#glyph-0-1" x="69.801094" y="140.994"/>
<use xlink:href="#glyph-0-2" x="74.782394" y="140.994"/>
<use xlink:href="#glyph-0-3" x="80.317614" y="140.994"/>
<use xlink:href="#glyph-0-4" x="83.085225" y="140.994"/>
</g>
<g fill="rgb(0%, 0%, 0%)" fill-opacity="1">
<use xlink:href="#glyph-0-6" x="90.83015" y="140.994"/>
</g>
<g clip-path="url(#clip-2)">
<path fill="none" stroke-width="0.3985" stroke-linecap="butt" stroke-linejoin="miter" stroke="rgb(0%, 0%, 0%)" stroke-opacity="1" stroke-miterlimit="10" d="M 78.324969 -0.00015625 C 78.324969 11.945156 68.641375 21.632656 56.692156 21.632656 C 44.746844 21.632656 35.06325 11.945156 35.06325 -0.00015625 C 35.06325 -11.945469 44.746844 -21.629063 56.692156 -21.629063 C 68.641375 -21.629063 78.324969 -11.945469 78.324969 -0.00015625 Z M 78.324969 -0.00015625 " transform="matrix(1, 0, 0, -1, 23.968, 137.535)"/>
</g>
<g fill="rgb(0%, 0%, 0%)" fill-opacity="1">
<use xlink:href="#glyph-0-0" x="63.364" y="140.994"/>
</g>
<g fill="rgb(0%, 0%, 0%)" fill-opacity="1">
<use xlink:href="#glyph-0-1" x="69.732094" y="140.994"/>
<use xlink:href="#glyph-0-2" x="74.713394" y="140.994"/>
<use xlink:href="#glyph-0-3" x="80.248614" y="140.994"/>
<use xlink:href="#glyph-0-4" x="83.016225" y="140.994"/>
</g>
<g fill="rgb(0%, 0%, 0%)" fill-opacity="1">
<use xlink:href="#glyph-0-7" x="90.76115" y="140.994"/>
</g>
<g clip-path="url(#clip-3)">
<path fill="none" stroke-width="0.3985" stroke-linecap="butt" stroke-linejoin="miter" stroke="rgb(0%, 0%, 0%)" stroke-opacity="1" stroke-miterlimit="10" d="M 135.235125 -0.00015625 C 135.235125 12.06625 125.453875 21.8475 113.387469 21.8475 C 101.321063 21.8475 91.539813 12.06625 91.539813 -0.00015625 C 91.539813 -12.066563 101.321063 -21.847813 113.387469 -21.847813 C 125.453875 -21.847813 135.235125 -12.066563 135.235125 -0.00015625 Z M 135.235125 -0.00015625 " transform="matrix(1, 0, 0, -1, 23.968, 137.535)"/>
</g>
<g fill="rgb(0%, 0%, 0%)" fill-opacity="1">
<use xlink:href="#glyph-0-0" x="119.849" y="140.994"/>
</g>
<g fill="rgb(0%, 0%, 0%)" fill-opacity="1">
<use xlink:href="#glyph-0-1" x="126.217094" y="140.994"/>
<use xlink:href="#glyph-0-2" x="131.198394" y="140.994"/>
<use xlink:href="#glyph-0-3" x="136.733614" y="140.994"/>
<use xlink:href="#glyph-0-4" x="139.501225" y="140.994"/>
</g>
<g fill="rgb(0%, 0%, 0%)" fill-opacity="1">
<use xlink:href="#glyph-0-8" x="147.24615" y="140.994"/>
</g>
<g clip-path="url(#clip-4)">
<path fill="none" stroke-width="0.3985" stroke-linecap="butt" stroke-linejoin="miter" stroke="rgb(0%, 0%, 0%)" stroke-opacity="1" stroke-miterlimit="10" d="M 134.887469 56.695156 C 134.887469 68.570156 125.262469 78.195156 113.387469 78.195156 C 101.512469 78.195156 91.887469 68.570156 91.887469 56.695156 C 91.887469 44.820156 101.512469 35.19125 113.387469 35.19125 C 125.262469 35.19125 134.887469 44.820156 134.887469 56.695156 Z M 134.887469 56.695156 " transform="matrix(1, 0, 0, -1, 23.968, 137.535)"/>
</g>
<g fill="rgb(0%, 0%, 0%)" fill-opacity="1">
<use xlink:href="#glyph-0-0" x="120.265" y="84.301"/>
</g>
<g fill="rgb(0%, 0%, 0%)" fill-opacity="1">
<use xlink:href="#glyph-0-1" x="126.633094" y="84.301"/>
<use xlink:href="#glyph-0-2" x="131.614394" y="84.301"/>
<use xlink:href="#glyph-0-3" x="137.149614" y="84.301"/>
<use xlink:href="#glyph-0-4" x="139.917225" y="84.301"/>
</g>
<g fill="rgb(0%, 0%, 0%)" fill-opacity="1">
<use xlink:href="#glyph-0-9" x="147.66215" y="84.301"/>
</g>
<path fill="none" stroke-width="0.3985" stroke-linecap="butt" stroke-linejoin="miter" stroke="rgb(0%, 0%, 0%)" stroke-opacity="1" stroke-miterlimit="10" d="M 21.356219 113.386562 C 21.356219 125.183437 11.793719 134.742031 0.00075 134.742031 C -11.796125 134.742031 -21.354719 125.183437 -21.354719 113.386562 C -21.354719 101.593594 -11.796125 92.031094 0.00075 92.031094 C 11.793719 92.031094 21.356219 101.593594 21.356219 113.386562 Z M 21.356219 113.386562 " transform="matrix(1, 0, 0, -1, 23.968, 137.535)"/>
<g fill="rgb(0%, 0%, 0%)" fill-opacity="1">
<use xlink:href="#glyph-0-0" x="7.017" y="27.608"/>
</g>
<g fill="rgb(0%, 0%, 0%)" fill-opacity="1">
<use xlink:href="#glyph-0-1" x="13.385094" y="27.608"/>
<use xlink:href="#glyph-0-2" x="18.366394" y="27.608"/>
<use xlink:href="#glyph-0-3" x="23.901614" y="27.608"/>
<use xlink:href="#glyph-0-4" x="26.669225" y="27.608"/>
</g>
<g fill="rgb(0%, 0%, 0%)" fill-opacity="1">
<use xlink:href="#glyph-0-10" x="34.41415" y="27.608"/>
</g>
<path fill="none" stroke-width="0.3985" stroke-linecap="butt" stroke-linejoin="miter" stroke="rgb(0%, 0%, 0%)" stroke-opacity="1" stroke-miterlimit="10" d="M 78.649188 113.386562 C 78.649188 125.515469 68.821063 135.343594 56.692156 135.343594 C 44.567156 135.343594 34.735125 125.515469 34.735125 113.386562 C 34.735125 101.261562 44.567156 91.429531 56.692156 91.429531 C 68.821063 91.429531 78.649188 101.261562 78.649188 113.386562 Z M 78.649188 113.386562 " transform="matrix(1, 0, 0, -1, 23.968, 137.535)"/>
<g fill="rgb(0%, 0%, 0%)" fill-opacity="1">
<use xlink:href="#glyph-0-0" x="63.053" y="27.608"/>
</g>
<g fill="rgb(0%, 0%, 0%)" fill-opacity="1">
<use xlink:href="#glyph-0-1" x="69.421094" y="27.608"/>
<use xlink:href="#glyph-0-2" x="74.402394" y="27.608"/>
<use xlink:href="#glyph-0-3" x="79.937614" y="27.608"/>
<use xlink:href="#glyph-0-4" x="82.705225" y="27.608"/>
</g>
<g fill="rgb(0%, 0%, 0%)" fill-opacity="1">
<use xlink:href="#glyph-0-11" x="90.45015" y="27.608"/>
</g>
<g clip-path="url(#clip-5)">
<path fill="none" stroke-width="0.3985" stroke-linecap="butt" stroke-linejoin="miter" stroke="rgb(0%, 0%, 0%)" stroke-opacity="1" stroke-miterlimit="10" d="M 135.164813 113.386562 C 135.164813 125.413906 125.414813 135.163906 113.387469 135.163906 C 101.360125 135.163906 91.610125 125.413906 91.610125 113.386562 C 91.610125 101.359219 101.360125 91.613125 113.387469 91.613125 C 125.414813 91.613125 135.164813 101.359219 135.164813 113.386562 Z M 135.164813 113.386562 " transform="matrix(1, 0, 0, -1, 23.968, 137.535)"/>
</g>
<g fill="rgb(0%, 0%, 0%)" fill-opacity="1">
<use xlink:href="#glyph-0-0" x="119.919" y="27.608"/>
</g>
<g fill="rgb(0%, 0%, 0%)" fill-opacity="1">
<use xlink:href="#glyph-0-1" x="126.287094" y="27.608"/>
<use xlink:href="#glyph-0-2" x="131.268394" y="27.608"/>
<use xlink:href="#glyph-0-3" x="136.803614" y="27.608"/>
<use xlink:href="#glyph-0-4" x="139.571225" y="27.608"/>
</g>
<g fill="rgb(0%, 0%, 0%)" fill-opacity="1">
<use xlink:href="#glyph-0-12" x="147.31615" y="27.608"/>
</g>
<path fill="none" stroke-width="0.3985" stroke-linecap="butt" stroke-linejoin="miter" stroke="rgb(0%, 0%, 0%)" stroke-opacity="1" stroke-miterlimit="10" d="M 21.973406 -0.00015625 L 34.934344 -0.00015625 " transform="matrix(1, 0, 0, -1, 23.968, 137.535)"/>
<path fill="none" stroke-width="0.3985" stroke-linecap="butt" stroke-linejoin="miter" stroke="rgb(0%, 0%, 0%)" stroke-opacity="1" stroke-miterlimit="10" d="M 21.973406 -0.00015625 L 34.864031 -0.00015625 " transform="matrix(1, 0, 0, -1, 23.968, 137.535)"/>
<path fill="none" stroke-width="0.3985" stroke-linecap="butt" stroke-linejoin="miter" stroke="rgb(0%, 0%, 0%)" stroke-opacity="1" stroke-miterlimit="10" d="M 56.692156 -0.00015625 L 56.692156 -0.00015625 " transform="matrix(1, 0, 0, -1, 23.968, 137.535)"/>
<path fill="none" stroke-width="0.3985" stroke-linecap="butt" stroke-linejoin="miter" stroke="rgb(0%, 0%, 0%)" stroke-opacity="1" stroke-miterlimit="10" d="M 72.078875 15.386562 L 98.043719 41.3475 " transform="matrix(1, 0, 0, -1, 23.968, 137.535)"/>
<path fill="none" stroke-width="0.3985" stroke-linecap="butt" stroke-linejoin="miter" stroke="rgb(0%, 0%, 0%)" stroke-opacity="1" stroke-miterlimit="10" d="M 56.692156 21.757656 L 56.692156 91.230312 " transform="matrix(1, 0, 0, -1, 23.968, 137.535)"/>
<path fill="none" stroke-width="0.3985" stroke-linecap="butt" stroke-linejoin="miter" stroke="rgb(0%, 0%, 0%)" stroke-opacity="1" stroke-miterlimit="10" d="M 46.965594 19.460781 L 9.637469 94.109219 " transform="matrix(1, 0, 0, -1, 23.968, 137.535)"/>
<path fill="none" stroke-width="0.3985" stroke-linecap="butt" stroke-linejoin="miter" stroke="rgb(0%, 0%, 0%)" stroke-opacity="1" stroke-miterlimit="10" d="M 78.524188 -0.00015625 L 91.340594 -0.00015625 " transform="matrix(1, 0, 0, -1, 23.968, 137.535)"/>
<path fill="none" stroke-width="0.3985" stroke-linecap="butt" stroke-linejoin="miter" stroke="rgb(0%, 0%, 0%)" stroke-opacity="1" stroke-miterlimit="10" d="M 72.129656 15.437344 L 98.043719 41.3475 " transform="matrix(1, 0, 0, -1, 23.968, 137.535)"/>
<path fill="none" stroke-width="0.3985" stroke-linecap="butt" stroke-linejoin="miter" stroke="rgb(0%, 0%, 0%)" stroke-opacity="1" stroke-miterlimit="10" d="M 113.387469 22.046719 L 113.387469 34.992031 " transform="matrix(1, 0, 0, -1, 23.968, 137.535)"/>
<path fill="none" stroke-width="0.3985" stroke-linecap="butt" stroke-linejoin="miter" stroke="rgb(0%, 0%, 0%)" stroke-opacity="1" stroke-miterlimit="10" d="M 98.043719 72.038906 L 72.360125 97.718594 " transform="matrix(1, 0, 0, -1, 23.968, 137.535)"/>
<path fill="none" stroke-width="0.3985" stroke-linecap="butt" stroke-linejoin="miter" stroke="rgb(0%, 0%, 0%)" stroke-opacity="1" stroke-miterlimit="10" d="M 113.387469 78.394375 L 113.387469 91.41 " transform="matrix(1, 0, 0, -1, 23.968, 137.535)"/>
<path fill="none" stroke-width="0.3985" stroke-linecap="butt" stroke-linejoin="miter" stroke="rgb(0%, 0%, 0%)" stroke-opacity="1" stroke-miterlimit="10" d="M 21.555438 113.386562 L 34.535906 113.386562 " transform="matrix(1, 0, 0, -1, 23.968, 137.535)"/>
<path fill="none" stroke-width="0.3985" stroke-linecap="butt" stroke-linejoin="miter" stroke="rgb(0%, 0%, 0%)" stroke-opacity="1" stroke-miterlimit="10" d="M 78.852313 113.386562 L 91.410906 113.386562 " transform="matrix(1, 0, 0, -1, 23.968, 137.535)"/>
</svg>
