<?xml version="1.0" encoding="UTF-8"?>
<svg xmlns="http://www.w3.org/2000/svg" xmlns:xlink="http://www.w3.org/1999/xlink" width="161.575pt" height="161.394pt" viewBox="0 0 161.575 161.394">
<defs>
<g>
<g id="glyph-0-0">
<path d="M 6.640625 -6.75 L 0.546875 -6.75 L 0.359375 -4.5 L 0.609375 -4.5 C 0.75 -6.109375 0.890625 -6.4375 2.40625 -6.4375 C 2.578125 -6.4375 2.84375 -6.4375 2.9375 -6.421875 C 3.15625 -6.375 3.15625 -6.265625 3.15625 -6.046875 L 3.15625 -0.78125 C 3.15625 -0.453125 3.15625 -0.3125 2.109375 -0.3125 L 1.703125 -0.3125 L 1.703125 0 C 2.109375 -0.03125 3.125 -0.03125 3.59375 -0.03125 C 4.046875 -0.03125 5.078125 -0.03125 5.484375 0 L 5.484375 -0.3125 L 5.078125 -0.3125 C 4.03125 -0.3125 4.03125 -0.453125 4.03125 -0.78125 L 4.03125 -6.046875 C 4.03125 -6.234375 4.03125 -6.375 4.21875 -6.421875 C 4.328125 -6.4375 4.59375 -6.4375 4.78125 -6.4375 C 6.296875 -6.4375 6.4375 -6.109375 6.578125 -4.5 L 6.828125 -4.5 Z M 6.640625 -6.75 "/>
</g>
<g id="glyph-0-1">
<path d="M 3.3125 -0.75 C 3.359375 -0.359375 3.625 0.0625 4.09375 0.0625 C 4.3125 0.0625 4.921875 -0.078125 4.921875 -0.890625 L 4.921875 -1.453125 L 4.671875 -1.453125 L 4.671875 -0.890625 C 4.671875 -0.3125 4.421875 -0.25 4.3125 -0.25 C 3.984375 -0.25 3.9375 -0.703125 3.9375 -0.75 L 3.9375 -2.734375 C 3.9375 -3.15625 3.9375 -3.546875 3.578125 -3.921875 C 3.1875 -4.3125 2.6875 -4.46875 2.21875 -4.46875 C 1.390625 -4.46875 0.703125 -4 0.703125 -3.34375 C 0.703125 -3.046875 0.90625 -2.875 1.171875 -2.875 C 1.453125 -2.875 1.625 -3.078125 1.625 -3.328125 C 1.625 -3.453125 1.578125 -3.78125 1.109375 -3.78125 C 1.390625 -4.140625 1.875 -4.25 2.1875 -4.25 C 2.6875 -4.25 3.25 -3.859375 3.25 -2.96875 L 3.25 -2.609375 C 2.734375 -2.578125 2.046875 -2.546875 1.421875 -2.25 C 0.671875 -1.90625 0.421875 -1.390625 0.421875 -0.953125 C 0.421875 -0.140625 1.390625 0.109375 2.015625 0.109375 C 2.671875 0.109375 3.125 -0.296875 3.3125 -0.75 Z M 3.25 -2.390625 L 3.25 -1.390625 C 3.25 -0.453125 2.53125 -0.109375 2.078125 -0.109375 C 1.59375 -0.109375 1.1875 -0.453125 1.1875 -0.953125 C 1.1875 -1.5 1.609375 -2.328125 3.25 -2.390625 Z M 3.25 -2.390625 "/>
</g>
<g id="glyph-0-2">
<path d="M 1.71875 -3.765625 L 1.71875 -6.921875 L 0.28125 -6.8125 L 0.28125 -6.5 C 0.984375 -6.5 1.0625 -6.4375 1.0625 -5.9375 L 1.0625 0 L 1.3125 0 C 1.3125 -0.015625 1.390625 -0.15625 1.671875 -0.625 C 1.8125 -0.390625 2.234375 0.109375 2.96875 0.109375 C 4.15625 0.109375 5.1875 -0.875 5.1875 -2.15625 C 5.1875 -3.421875 4.21875 -4.40625 3.078125 -4.40625 C 2.296875 -4.40625 1.875 -3.9375 1.71875 -3.765625 Z M 1.75 -1.140625 L 1.75 -3.1875 C 1.75 -3.375 1.75 -3.390625 1.859375 -3.546875 C 2.25 -4.109375 2.796875 -4.1875 3.03125 -4.1875 C 3.484375 -4.1875 3.84375 -3.921875 4.078125 -3.546875 C 4.34375 -3.140625 4.359375 -2.578125 4.359375 -2.15625 C 4.359375 -1.796875 4.34375 -1.203125 4.0625 -0.75 C 3.84375 -0.4375 3.46875 -0.109375 2.9375 -0.109375 C 2.484375 -0.109375 2.125 -0.34375 1.890625 -0.71875 C 1.75 -0.921875 1.75 -0.953125 1.75 -1.140625 Z M 1.75 -1.140625 "/>
</g>
<g id="glyph-0-3">
<path d="M 1.765625 -6.921875 L 0.328125 -6.8125 L 0.328125 -6.5 C 1.03125 -6.5 1.109375 -6.4375 1.109375 -5.9375 L 1.109375 -0.75 C 1.109375 -0.3125 1 -0.3125 0.328125 -0.3125 L 0.328125 0 C 0.65625 -0.015625 1.1875 -0.03125 1.4375 -0.03125 C 1.6875 -0.03125 2.171875 -0.015625 2.546875 0 L 2.546875 -0.3125 C 1.875 -0.3125 1.765625 -0.3125 1.765625 -0.75 Z M 1.765625 -6.921875 "/>
</g>
<g id="glyph-0-4">
<path d="M 1.109375 -2.515625 C 1.171875 -4 2.015625 -4.25 2.359375 -4.25 C 3.375 -4.25 3.484375 -2.90625 3.484375 -2.515625 Z M 1.109375 -2.296875 L 3.890625 -2.296875 C 4.109375 -2.296875 4.140625 -2.296875 4.140625 -2.515625 C 4.140625 -3.5 3.59375 -4.46875 2.359375 -4.46875 C 1.203125 -4.46875 0.28125 -3.4375 0.28125 -2.1875 C 0.28125 -0.859375 1.328125 0.109375 2.46875 0.109375 C 3.6875 0.109375 4.140625 -1 4.140625 -1.1875 C 4.140625 -1.28125 4.0625 -1.3125 4 -1.3125 C 3.921875 -1.3125 3.890625 -1.25 3.875 -1.171875 C 3.53125 -0.140625 2.625 -0.140625 2.53125 -0.140625 C 2.03125 -0.140625 1.640625 -0.4375 1.40625 -0.8125 C 1.109375 -1.28125 1.109375 -1.9375 1.109375 -2.296875 Z M 1.109375 -2.296875 "/>
</g>
<g id="glyph-0-5">
<path d="M 3.96875 -6.9375 C 3.921875 -7.0625 3.890625 -7.140625 3.734375 -7.140625 C 3.578125 -7.140625 3.546875 -7.078125 3.5 -6.9375 L 1.4375 -0.984375 C 1.25 -0.46875 0.859375 -0.3125 0.3125 -0.3125 L 0.3125 0 C 0.546875 -0.015625 0.984375 -0.03125 1.328125 -0.03125 C 1.640625 -0.03125 2.15625 -0.015625 2.484375 0 L 2.484375 -0.3125 C 1.984375 -0.3125 1.734375 -0.5625 1.734375 -0.8125 C 1.734375 -0.84375 1.75 -0.953125 1.75 -0.96875 L 2.21875 -2.265625 L 4.671875 -2.265625 L 5.203125 -0.75 C 5.21875 -0.703125 5.234375 -0.640625 5.234375 -0.609375 C 5.234375 -0.3125 4.671875 -0.3125 4.40625 -0.3125 L 4.40625 0 C 4.765625 -0.03125 5.46875 -0.03125 5.84375 -0.03125 C 6.265625 -0.03125 6.734375 -0.015625 7.140625 0 L 7.140625 -0.3125 L 6.96875 -0.3125 C 6.375 -0.3125 6.234375 -0.375 6.125 -0.703125 Z M 3.4375 -5.828125 L 4.5625 -2.578125 L 2.328125 -2.578125 Z M 3.4375 -5.828125 "/>
</g>
<g id="glyph-0-6">
<path d="M 2.21875 -3.65625 L 2.21875 -6.09375 C 2.21875 -6.4375 2.234375 -6.5 2.703125 -6.5 L 3.9375 -6.5 C 4.90625 -6.5 5.25 -5.65625 5.25 -5.125 C 5.25 -4.484375 4.765625 -3.65625 3.65625 -3.65625 Z M 4.5625 -3.5625 C 5.53125 -3.75 6.21875 -4.390625 6.21875 -5.125 C 6.21875 -5.984375 5.296875 -6.8125 4 -6.8125 L 0.359375 -6.8125 L 0.359375 -6.5 L 0.59375 -6.5 C 1.359375 -6.5 1.390625 -6.390625 1.390625 -6.03125 L 1.390625 -0.78125 C 1.390625 -0.421875 1.359375 -0.3125 0.59375 -0.3125 L 0.359375 -0.3125 L 0.359375 0 L 4.265625 0 C 5.59375 0 6.484375 -0.890625 6.484375 -1.828125 C 6.484375 -2.6875 5.671875 -3.4375 4.5625 -3.5625 Z M 3.953125 -0.3125 L 2.703125 -0.3125 C 2.234375 -0.3125 2.21875 -0.375 2.21875 -0.703125 L 2.21875 -3.421875 L 4.09375 -3.421875 C 5.078125 -3.421875 5.5 -2.5 5.5 -1.828125 C 5.5 -1.125 4.96875 -0.3125 3.953125 -0.3125 Z M 3.953125 -0.3125 "/>
</g>
<g id="glyph-0-7">
<path d="M 0.5625 -3.40625 C 0.5625 -1.34375 2.171875 0.21875 4.03125 0.21875 C 5.65625 0.21875 6.625 -1.171875 6.625 -2.328125 C 6.625 -2.421875 6.625 -2.5 6.5 -2.5 C 6.390625 -2.5 6.390625 -2.4375 6.375 -2.328125 C 6.296875 -0.90625 5.234375 -0.09375 4.140625 -0.09375 C 3.53125 -0.09375 1.578125 -0.421875 1.578125 -3.40625 C 1.578125 -6.375 3.53125 -6.71875 4.140625 -6.71875 C 5.21875 -6.71875 6.109375 -5.8125 6.3125 -4.359375 C 6.328125 -4.21875 6.328125 -4.1875 6.46875 -4.1875 C 6.625 -4.1875 6.625 -4.21875 6.625 -4.421875 L 6.625 -6.78125 C 6.625 -6.953125 6.625 -7.03125 6.515625 -7.03125 C 6.484375 -7.03125 6.4375 -7.03125 6.359375 -6.90625 L 5.859375 -6.171875 C 5.5 -6.53125 4.984375 -7.03125 4.03125 -7.03125 C 2.15625 -7.03125 0.5625 -5.4375 0.5625 -3.40625 Z M 0.5625 -3.40625 "/>
</g>
<g id="glyph-0-8">
<path d="M 0.34375 -6.8125 L 0.34375 -6.5 L 0.59375 -6.5 C 1.359375 -6.5 1.375 -6.390625 1.375 -6.03125 L 1.375 -0.78125 C 1.375 -0.421875 1.359375 -0.3125 0.59375 -0.3125 L 0.34375 -0.3125 L 0.34375 0 L 4 0 C 5.671875 0 7.046875 -1.46875 7.046875 -3.34375 C 7.046875 -5.25 5.703125 -6.8125 4 -6.8125 Z M 2.71875 -0.3125 C 2.25 -0.3125 2.234375 -0.375 2.234375 -0.703125 L 2.234375 -6.09375 C 2.234375 -6.4375 2.25 -6.5 2.71875 -6.5 L 3.71875 -6.5 C 4.34375 -6.5 5.03125 -6.28125 5.53125 -5.578125 C 5.96875 -4.984375 6.046875 -4.125 6.046875 -3.34375 C 6.046875 -2.25 5.859375 -1.640625 5.5 -1.15625 C 5.296875 -0.890625 4.734375 -0.3125 3.734375 -0.3125 Z M 2.71875 -0.3125 "/>
</g>
<g id="glyph-0-9">
<path d="M 1.359375 -0.78125 C 1.359375 -0.421875 1.328125 -0.3125 0.5625 -0.3125 L 0.328125 -0.3125 L 0.328125 0 L 6.078125 0 L 6.5 -2.578125 L 6.25 -2.578125 C 6 -1.03125 5.765625 -0.3125 4.0625 -0.3125 L 2.734375 -0.3125 C 2.265625 -0.3125 2.25 -0.375 2.25 -0.703125 L 2.25 -3.375 L 3.140625 -3.375 C 4.109375 -3.375 4.21875 -3.046875 4.21875 -2.203125 L 4.46875 -2.203125 L 4.46875 -4.84375 L 4.21875 -4.84375 C 4.21875 -3.984375 4.109375 -3.671875 3.140625 -3.671875 L 2.25 -3.671875 L 2.25 -6.078125 C 2.25 -6.40625 2.265625 -6.46875 2.734375 -6.46875 L 4.015625 -6.46875 C 5.546875 -6.46875 5.8125 -5.921875 5.96875 -4.53125 L 6.21875 -4.53125 L 5.9375 -6.78125 L 0.328125 -6.78125 L 0.328125 -6.46875 L 0.5625 -6.46875 C 1.328125 -6.46875 1.359375 -6.359375 1.359375 -6 Z M 1.359375 -0.78125 "/>
</g>
<g id="glyph-0-10">
<path d="M 5.796875 -6.78125 L 0.328125 -6.78125 L 0.328125 -6.46875 L 0.5625 -6.46875 C 1.328125 -6.46875 1.359375 -6.359375 1.359375 -6 L 1.359375 -0.78125 C 1.359375 -0.421875 1.328125 -0.3125 0.5625 -0.3125 L 0.328125 -0.3125 L 0.328125 0 C 0.671875 -0.03125 1.453125 -0.03125 1.84375 -0.03125 C 2.25 -0.03125 3.15625 -0.03125 3.515625 0 L 3.515625 -0.3125 L 3.1875 -0.3125 C 2.25 -0.3125 2.25 -0.4375 2.25 -0.78125 L 2.25 -3.234375 L 3.09375 -3.234375 C 4.0625 -3.234375 4.15625 -2.921875 4.15625 -2.078125 L 4.40625 -2.078125 L 4.40625 -4.71875 L 4.15625 -4.71875 C 4.15625 -3.875 4.0625 -3.546875 3.09375 -3.546875 L 2.25 -3.546875 L 2.25 -6.078125 C 2.25 -6.40625 2.265625 -6.46875 2.734375 -6.46875 L 3.921875 -6.46875 C 5.421875 -6.46875 5.671875 -5.90625 5.828125 -4.53125 L 6.078125 -4.53125 Z M 5.796875 -6.78125 "/>
</g>
<g id="glyph-0-11">
<path d="M 5.90625 -0.625 C 6.046875 -0.40625 6.4375 -0.015625 6.546875 -0.015625 C 6.640625 -0.015625 6.640625 -0.09375 6.640625 -0.234375 L 6.640625 -1.96875 C 6.640625 -2.359375 6.671875 -2.40625 7.328125 -2.40625 L 7.328125 -2.71875 C 6.953125 -2.71875 6.40625 -2.6875 6.109375 -2.6875 C 5.71875 -2.6875 4.859375 -2.6875 4.5 -2.71875 L 4.5 -2.40625 L 4.828125 -2.40625 C 5.71875 -2.40625 5.75 -2.296875 5.75 -1.9375 L 5.75 -1.296875 C 5.75 -0.171875 4.484375 -0.09375 4.203125 -0.09375 C 3.5625 -0.09375 1.578125 -0.4375 1.578125 -3.40625 C 1.578125 -6.390625 3.546875 -6.71875 4.140625 -6.71875 C 5.21875 -6.71875 6.125 -5.828125 6.3125 -4.359375 C 6.34375 -4.21875 6.34375 -4.1875 6.484375 -4.1875 C 6.640625 -4.1875 6.640625 -4.21875 6.640625 -4.421875 L 6.640625 -6.78125 C 6.640625 -6.953125 6.640625 -7.03125 6.53125 -7.03125 C 6.484375 -7.03125 6.453125 -7.03125 6.375 -6.90625 L 5.875 -6.171875 C 5.546875 -6.484375 5.015625 -7.03125 4.03125 -7.03125 C 2.171875 -7.03125 0.5625 -5.453125 0.5625 -3.40625 C 0.5625 -1.359375 2.15625 0.21875 4.046875 0.21875 C 4.78125 0.21875 5.578125 -0.046875 5.90625 -0.625 Z M 5.90625 -0.625 "/>
</g>
<g id="glyph-0-12">
<path d="M 6.109375 -6.03125 C 6.109375 -6.390625 6.125 -6.5 6.890625 -6.5 L 7.140625 -6.5 L 7.140625 -6.8125 C 6.78125 -6.78125 6.046875 -6.78125 5.671875 -6.78125 C 5.296875 -6.78125 4.546875 -6.78125 4.203125 -6.8125 L 4.203125 -6.5 L 4.4375 -6.5 C 5.203125 -6.5 5.21875 -6.390625 5.21875 -6.03125 L 5.21875 -3.703125 L 2.25 -3.703125 L 2.25 -6.03125 C 2.25 -6.390625 2.265625 -6.5 3.03125 -6.5 L 3.265625 -6.5 L 3.265625 -6.8125 C 2.921875 -6.78125 2.1875 -6.78125 1.796875 -6.78125 C 1.421875 -6.78125 0.671875 -6.78125 0.328125 -6.8125 L 0.328125 -6.5 L 0.5625 -6.5 C 1.328125 -6.5 1.359375 -6.390625 1.359375 -6.03125 L 1.359375 -0.78125 C 1.359375 -0.421875 1.328125 -0.3125 0.5625 -0.3125 L 0.328125 -0.3125 L 0.328125 0 C 0.671875 -0.03125 1.421875 -0.03125 1.796875 -0.03125 C 2.171875 -0.03125 2.921875 -0.03125 3.265625 0 L 3.265625 -0.3125 L 3.03125 -0.3125 C 2.265625 -0.3125 2.25 -0.421875 2.25 -0.78125 L 2.25 -3.390625 L 5.21875 -3.390625 L 5.21875 -0.78125 C 5.21875 -0.421875 5.203125 -0.3125 4.4375 -0.3125 L 4.203125 -0.3125 L 4.203125 0 C 4.546875 -0.03125 5.28125 -0.03125 5.65625 -0.03125 C 6.046875 -0.03125 6.78125 -0.03125 7.140625 0 L 7.140625 -0.3125 L 6.890625 -0.3125 C 6.125 -0.3125 6.109375 -0.421875 6.109375 -0.78125 Z M 6.109375 -6.03125 "/>
</g>
</g>
<clipPath id="clip-0">
<path clip-rule="nonzero" d="M 0 110 L 52 110 L 52 161.394531 L 0 161.394531 Z M 0 110 "/>
</clipPath>
<clipPath id="clip-1">
<path clip-rule="nonzero" d="M 53 110 L 108 110 L 108 161.394531 L 53 161.394531 Z M 53 110 "/>
</clipPath>
<clipPath id="clip-2">
<path clip-rule="nonzero" d="M 110 110 L 161.574219 110 L 161.574219 161.394531 L 110 161.394531 Z M 110 110 "/>
</clipPath>
<clipPath id="clip-3">
<path clip-rule="nonzero" d="M 109 53 L 161.574219 53 L 161.574219 109 L 109 109 Z M 109 53 "/>
</clipPath>
<clipPath id="clip-4">
<path clip-rule="nonzero" d="M 110 0 L 161.574219 0 L 161.574219 52 L 110 52 Z M 110 0 "/>
</clipPath>
</defs>
<g clip-path="url(#clip-0)">
<path fill="none" stroke-width="0.3985" stroke-linecap="butt" stroke-linejoin="miter" stroke="rgb(0%, 0%, 0%)" stroke-opacity="1" stroke-miterlimit="10" d="M 21.776406 0.00021875 C 21.776406 12.027563 12.026406 21.777563 -0.0009375 21.777563 C -12.028281 21.777563 -21.774375 12.027563 -21.774375 0.00021875 C -21.774375 -12.027125 -12.028281 -21.777125 -0.0009375 -21.777125 C 12.026406 -21.777125 21.776406 -12.027125 21.776406 0.00021875 Z M 21.776406 0.00021875 " transform="matrix(1, 0, 0, -1, 24.04, 137.426)"/>
</g>
<g fill="rgb(0%, 0%, 0%)" fill-opacity="1">
<use xlink:href="#glyph-0-0" x="6.606" y="140.886"/>
</g>
<g fill="rgb(0%, 0%, 0%)" fill-opacity="1">
<use xlink:href="#glyph-0-1" x="12.974094" y="140.886"/>
<use xlink:href="#glyph-0-2" x="17.955394" y="140.886"/>
<use xlink:href="#glyph-0-3" x="23.490614" y="140.886"/>
<use xlink:href="#glyph-0-4" x="26.258225" y="140.886"/>
</g>
<g fill="rgb(0%, 0%, 0%)" fill-opacity="1">
<use xlink:href="#glyph-0-5" x="34.00315" y="140.886"/>
</g>
<g clip-path="url(#clip-1)">
<path fill="none" stroke-width="0.3985" stroke-linecap="butt" stroke-linejoin="miter" stroke="rgb(0%, 0%, 0%)" stroke-opacity="1" stroke-miterlimit="10" d="M 78.252969 0.00021875 C 78.252969 11.906469 68.600625 21.558813 56.694375 21.558813 C 44.788125 21.558813 35.135781 11.906469 35.135781 0.00021875 C 35.135781 -11.906031 44.788125 -21.558375 56.694375 -21.558375 C 68.600625 -21.558375 78.252969 -11.906031 78.252969 0.00021875 Z M 78.252969 0.00021875 " transform="matrix(1, 0, 0, -1, 24.04, 137.426)"/>
</g>
<g fill="rgb(0%, 0%, 0%)" fill-opacity="1">
<use xlink:href="#glyph-0-0" x="63.506" y="140.886"/>
</g>
<g fill="rgb(0%, 0%, 0%)" fill-opacity="1">
<use xlink:href="#glyph-0-1" x="69.874094" y="140.886"/>
<use xlink:href="#glyph-0-2" x="74.855394" y="140.886"/>
<use xlink:href="#glyph-0-3" x="80.390614" y="140.886"/>
<use xlink:href="#glyph-0-4" x="83.158225" y="140.886"/>
</g>
<g fill="rgb(0%, 0%, 0%)" fill-opacity="1">
<use xlink:href="#glyph-0-6" x="90.90315" y="140.886"/>
</g>
<path fill="none" stroke-width="0.3985" stroke-linecap="butt" stroke-linejoin="miter" stroke="rgb(0%, 0%, 0%)" stroke-opacity="1" stroke-miterlimit="10" d="M 21.631875 56.695531 C 21.631875 68.640844 11.948281 78.324438 -0.0009375 78.324438 C -11.94625 78.324438 -21.629844 68.640844 -21.629844 56.695531 C -21.629844 44.746313 -11.94625 35.062719 -0.0009375 35.062719 C 11.948281 35.062719 21.631875 44.746313 21.631875 56.695531 Z M 21.631875 56.695531 " transform="matrix(1, 0, 0, -1, 24.04, 137.426)"/>
<g fill="rgb(0%, 0%, 0%)" fill-opacity="1">
<use xlink:href="#glyph-0-0" x="6.744" y="84.193"/>
</g>
<g fill="rgb(0%, 0%, 0%)" fill-opacity="1">
<use xlink:href="#glyph-0-1" x="13.112094" y="84.193"/>
<use xlink:href="#glyph-0-2" x="18.093394" y="84.193"/>
<use xlink:href="#glyph-0-3" x="23.628614" y="84.193"/>
<use xlink:href="#glyph-0-4" x="26.396225" y="84.193"/>
</g>
<g fill="rgb(0%, 0%, 0%)" fill-opacity="1">
<use xlink:href="#glyph-0-7" x="34.14115" y="84.193"/>
</g>
<path fill="none" stroke-width="0.3985" stroke-linecap="butt" stroke-linejoin="miter" stroke="rgb(0%, 0%, 0%)" stroke-opacity="1" stroke-miterlimit="10" d="M 21.850625 113.386938 C 21.850625 125.453344 12.065469 135.234594 -0.0009375 135.234594 C -12.067344 135.234594 -21.848594 125.453344 -21.848594 113.386938 C -21.848594 101.320531 -12.067344 91.539281 -0.0009375 91.539281 C 12.065469 91.539281 21.850625 101.320531 21.850625 113.386938 Z M 21.850625 113.386938 " transform="matrix(1, 0, 0, -1, 24.04, 137.426)"/>
<g fill="rgb(0%, 0%, 0%)" fill-opacity="1">
<use xlink:href="#glyph-0-0" x="6.536" y="27.5"/>
</g>
<g fill="rgb(0%, 0%, 0%)" fill-opacity="1">
<use xlink:href="#glyph-0-1" x="12.904094" y="27.5"/>
<use xlink:href="#glyph-0-2" x="17.885394" y="27.5"/>
<use xlink:href="#glyph-0-3" x="23.420614" y="27.5"/>
<use xlink:href="#glyph-0-4" x="26.188225" y="27.5"/>
</g>
<g fill="rgb(0%, 0%, 0%)" fill-opacity="1">
<use xlink:href="#glyph-0-8" x="33.93315" y="27.5"/>
</g>
<path fill="none" stroke-width="0.3985" stroke-linecap="butt" stroke-linejoin="miter" stroke="rgb(0%, 0%, 0%)" stroke-opacity="1" stroke-miterlimit="10" d="M 78.194375 113.386938 C 78.194375 125.261938 68.569375 134.886938 56.694375 134.886938 C 44.819375 134.886938 35.190469 125.261938 35.190469 113.386938 C 35.190469 101.511938 44.819375 91.886938 56.694375 91.886938 C 68.569375 91.886938 78.194375 101.511938 78.194375 113.386938 Z M 78.194375 113.386938 " transform="matrix(1, 0, 0, -1, 24.04, 137.426)"/>
<g fill="rgb(0%, 0%, 0%)" fill-opacity="1">
<use xlink:href="#glyph-0-0" x="63.644" y="27.5"/>
</g>
<g fill="rgb(0%, 0%, 0%)" fill-opacity="1">
<use xlink:href="#glyph-0-1" x="70.012094" y="27.5"/>
<use xlink:href="#glyph-0-2" x="74.993394" y="27.5"/>
<use xlink:href="#glyph-0-3" x="80.528614" y="27.5"/>
<use xlink:href="#glyph-0-4" x="83.296225" y="27.5"/>
</g>
<g fill="rgb(0%, 0%, 0%)" fill-opacity="1">
<use xlink:href="#glyph-0-9" x="91.04115" y="27.5"/>
</g>
<g clip-path="url(#clip-2)">
<path fill="none" stroke-width="0.3985" stroke-linecap="butt" stroke-linejoin="miter" stroke="rgb(0%, 0%, 0%)" stroke-opacity="1" stroke-miterlimit="10" d="M 134.74125 0.00021875 C 134.74125 11.793188 125.182656 21.355688 113.385781 21.355688 C 101.592813 21.355688 92.030313 11.793188 92.030313 0.00021875 C 92.030313 -11.79275 101.592813 -21.35525 113.385781 -21.35525 C 125.182656 -21.35525 134.74125 -11.79275 134.74125 0.00021875 Z M 134.74125 0.00021875 " transform="matrix(1, 0, 0, -1, 24.04, 137.426)"/>
</g>
<g fill="rgb(0%, 0%, 0%)" fill-opacity="1">
<use xlink:href="#glyph-0-0" x="120.476" y="140.886"/>
</g>
<g fill="rgb(0%, 0%, 0%)" fill-opacity="1">
<use xlink:href="#glyph-0-1" x="126.844094" y="140.886"/>
<use xlink:href="#glyph-0-2" x="131.825394" y="140.886"/>
<use xlink:href="#glyph-0-3" x="137.360614" y="140.886"/>
<use xlink:href="#glyph-0-4" x="140.128225" y="140.886"/>
</g>
<g fill="rgb(0%, 0%, 0%)" fill-opacity="1">
<use xlink:href="#glyph-0-10" x="147.87315" y="140.886"/>
</g>
<g clip-path="url(#clip-3)">
<path fill="none" stroke-width="0.3985" stroke-linecap="butt" stroke-linejoin="miter" stroke="rgb(0%, 0%, 0%)" stroke-opacity="1" stroke-miterlimit="10" d="M 135.342813 56.695531 C 135.342813 68.820531 125.514688 78.652563 113.385781 78.652563 C 101.260781 78.652563 91.42875 68.820531 91.42875 56.695531 C 91.42875 44.566625 101.260781 34.734594 113.385781 34.734594 C 125.514688 34.734594 135.342813 44.566625 135.342813 56.695531 Z M 135.342813 56.695531 " transform="matrix(1, 0, 0, -1, 24.04, 137.426)"/>
</g>
<g fill="rgb(0%, 0%, 0%)" fill-opacity="1">
<use xlink:href="#glyph-0-0" x="119.818" y="84.193"/>
</g>
<g fill="rgb(0%, 0%, 0%)" fill-opacity="1">
<use xlink:href="#glyph-0-1" x="126.186094" y="84.193"/>
<use xlink:href="#glyph-0-2" x="131.167394" y="84.193"/>
<use xlink:href="#glyph-0-3" x="136.702614" y="84.193"/>
<use xlink:href="#glyph-0-4" x="139.470225" y="84.193"/>
</g>
<g fill="rgb(0%, 0%, 0%)" fill-opacity="1">
<use xlink:href="#glyph-0-11" x="147.21515" y="84.193"/>
</g>
<g clip-path="url(#clip-4)">
<path fill="none" stroke-width="0.3985" stroke-linecap="butt" stroke-linejoin="miter" stroke="rgb(0%, 0%, 0%)" stroke-opacity="1" stroke-miterlimit="10" d="M 135.163125 113.386938 C 135.163125 125.414281 125.413125 135.164281 113.385781 135.164281 C 101.362344 135.164281 91.612344 125.414281 91.612344 113.386938 C 91.612344 101.359594 101.362344 91.609594 113.385781 91.609594 C 125.413125 91.609594 135.163125 101.359594 135.163125 113.386938 Z M 135.163125 113.386938 " transform="matrix(1, 0, 0, -1, 24.04, 137.426)"/>
</g>
<g fill="rgb(0%, 0%, 0%)" fill-opacity="1">
<use xlink:href="#glyph-0-0" x="119.991" y="27.5"/>
</g>
<g fill="rgb(0%, 0%, 0%)" fill-opacity="1">
<use xlink:href="#glyph-0-1" x="126.359094" y="27.5"/>
<use xlink:href="#glyph-0-2" x="131.340394" y="27.5"/>
<use xlink:href="#glyph-0-3" x="136.875614" y="27.5"/>
<use xlink:href="#glyph-0-4" x="139.643225" y="27.5"/>
</g>
<g fill="rgb(0%, 0%, 0%)" fill-opacity="1">
<use xlink:href="#glyph-0-12" x="147.38815" y="27.5"/>
</g>
<path fill="none" stroke-width="0.3985" stroke-linecap="butt" stroke-linejoin="miter" stroke="rgb(0%, 0%, 0%)" stroke-opacity="1" stroke-miterlimit="10" d="M 21.975625 0.00021875 L 34.936563 0.00021875 " transform="matrix(1, 0, 0, -1, 24.04, 137.426)"/>
<path fill="none" stroke-width="0.3985" stroke-linecap="butt" stroke-linejoin="miter" stroke="rgb(0%, 0%, 0%)" stroke-opacity="1" stroke-miterlimit="10" d="M -0.0009375 21.976781 L -0.0009375 34.8635 " transform="matrix(1, 0, 0, -1, 24.04, 137.426)"/>
<path fill="none" stroke-width="0.3985" stroke-linecap="butt" stroke-linejoin="miter" stroke="rgb(0%, 0%, 0%)" stroke-opacity="1" stroke-miterlimit="10" d="M 41.307656 15.383031 L 15.436563 41.258031 " transform="matrix(1, 0, 0, -1, 24.04, 137.426)"/>
<path fill="none" stroke-width="0.3985" stroke-linecap="butt" stroke-linejoin="miter" stroke="rgb(0%, 0%, 0%)" stroke-opacity="1" stroke-miterlimit="10" d="M 56.694375 21.758031 L 56.694375 91.687719 " transform="matrix(1, 0, 0, -1, 24.04, 137.426)"/>
<path fill="none" stroke-width="0.3985" stroke-linecap="butt" stroke-linejoin="miter" stroke="rgb(0%, 0%, 0%)" stroke-opacity="1" stroke-miterlimit="10" d="M 72.077188 15.383031 L 97.721719 41.027563 " transform="matrix(1, 0, 0, -1, 24.04, 137.426)"/>
<path fill="none" stroke-width="0.3985" stroke-linecap="butt" stroke-linejoin="miter" stroke="rgb(0%, 0%, 0%)" stroke-opacity="1" stroke-miterlimit="10" d="M 78.452188 0.00021875 L 91.831094 0.00021875 " transform="matrix(1, 0, 0, -1, 24.04, 137.426)"/>
<path fill="none" stroke-width="0.3985" stroke-linecap="butt" stroke-linejoin="miter" stroke="rgb(0%, 0%, 0%)" stroke-opacity="1" stroke-miterlimit="10" d="M -0.0009375 78.523656 L -0.0009375 91.340063 " transform="matrix(1, 0, 0, -1, 24.04, 137.426)"/>
<path fill="none" stroke-width="0.3985" stroke-linecap="butt" stroke-linejoin="miter" stroke="rgb(0%, 0%, 0%)" stroke-opacity="1" stroke-miterlimit="10" d="M 15.436563 72.129125 L 41.350625 98.043188 " transform="matrix(1, 0, 0, -1, 24.04, 137.426)"/>
<path fill="none" stroke-width="0.3985" stroke-linecap="butt" stroke-linejoin="miter" stroke="rgb(0%, 0%, 0%)" stroke-opacity="1" stroke-miterlimit="10" d="M 22.049844 113.386938 L 34.99125 113.386938 " transform="matrix(1, 0, 0, -1, 24.04, 137.426)"/>
<path fill="none" stroke-width="0.3985" stroke-linecap="butt" stroke-linejoin="miter" stroke="rgb(0%, 0%, 0%)" stroke-opacity="1" stroke-miterlimit="10" d="M 72.038125 98.043188 L 97.721719 72.359594 " transform="matrix(1, 0, 0, -1, 24.04, 137.426)"/>
<path fill="none" stroke-width="0.3985" stroke-linecap="butt" stroke-linejoin="miter" stroke="rgb(0%, 0%, 0%)" stroke-opacity="1" stroke-miterlimit="10" d="M 78.393594 113.386938 L 91.413125 113.386938 " transform="matrix(1, 0, 0, -1, 24.04, 137.426)"/>
<path fill="none" stroke-width="0.3985" stroke-linecap="butt" stroke-linejoin="miter" stroke="rgb(0%, 0%, 0%)" stroke-opacity="1" stroke-miterlimit="10" d="M 113.385781 21.554906 L 113.385781 34.535375 " transform="matrix(1, 0, 0, -1, 24.04, 137.426)"/>
<path fill="none" stroke-width="0.3985" stroke-linecap="butt" stroke-linejoin="miter" stroke="rgb(0%, 0%, 0%)" stroke-opacity="1" stroke-miterlimit="10" d="M 113.385781 78.851781 L 113.385781 91.410375 " transform="matrix(1, 0, 0, -1, 24.04, 137.426)"/>
</svg>
