<?xml version="1.0" encoding="UTF-8"?>
<svg xmlns="http://www.w3.org/2000/svg" xmlns:xlink="http://www.w3.org/1999/xlink" width="337.939pt" height="301.669pt" viewBox="0 0 337.939 301.669">
<defs>
<g>
<g id="glyph-0-0">
<path d="M 4.578125 -3.1875 C 4.578125 -3.984375 4.53125 -4.78125 4.1875 -5.515625 C 3.734375 -6.484375 2.90625 -6.640625 2.5 -6.640625 C 1.890625 -6.640625 1.171875 -6.375 0.75 -5.453125 C 0.4375 -4.765625 0.390625 -3.984375 0.390625 -3.1875 C 0.390625 -2.4375 0.421875 -1.546875 0.84375 -0.78125 C 1.265625 0.015625 2 0.21875 2.484375 0.21875 C 3.015625 0.21875 3.78125 0.015625 4.21875 -0.9375 C 4.53125 -1.625 4.578125 -2.40625 4.578125 -3.1875 Z M 2.484375 0 C 2.09375 0 1.5 -0.25 1.328125 -1.203125 C 1.21875 -1.796875 1.21875 -2.71875 1.21875 -3.3125 C 1.21875 -3.953125 1.21875 -4.609375 1.296875 -5.140625 C 1.484375 -6.328125 2.234375 -6.421875 2.484375 -6.421875 C 2.8125 -6.421875 3.46875 -6.234375 3.65625 -5.25 C 3.765625 -4.6875 3.765625 -3.9375 3.765625 -3.3125 C 3.765625 -2.5625 3.765625 -1.890625 3.65625 -1.25 C 3.5 -0.296875 2.9375 0 2.484375 0 Z M 2.484375 0 "/>
</g>
<g id="glyph-0-1">
<path d="M 4.46875 -2 C 4.46875 -3.1875 3.65625 -4.1875 2.578125 -4.1875 C 2.109375 -4.1875 1.671875 -4.03125 1.3125 -3.671875 L 1.3125 -5.625 C 1.515625 -5.5625 1.84375 -5.5 2.15625 -5.5 C 3.390625 -5.5 4.09375 -6.40625 4.09375 -6.53125 C 4.09375 -6.59375 4.0625 -6.640625 3.984375 -6.640625 C 3.984375 -6.640625 3.953125 -6.640625 3.90625 -6.609375 C 3.703125 -6.515625 3.21875 -6.3125 2.546875 -6.3125 C 2.15625 -6.3125 1.6875 -6.390625 1.21875 -6.59375 C 1.140625 -6.625 1.125 -6.625 1.109375 -6.625 C 1 -6.625 1 -6.546875 1 -6.390625 L 1 -3.4375 C 1 -3.265625 1 -3.1875 1.140625 -3.1875 C 1.21875 -3.1875 1.234375 -3.203125 1.28125 -3.265625 C 1.390625 -3.421875 1.75 -3.96875 2.5625 -3.96875 C 3.078125 -3.96875 3.328125 -3.515625 3.40625 -3.328125 C 3.5625 -2.953125 3.59375 -2.578125 3.59375 -2.078125 C 3.59375 -1.71875 3.59375 -1.125 3.34375 -0.703125 C 3.109375 -0.3125 2.734375 -0.0625 2.28125 -0.0625 C 1.5625 -0.0625 0.984375 -0.59375 0.8125 -1.171875 C 0.84375 -1.171875 0.875 -1.15625 0.984375 -1.15625 C 1.3125 -1.15625 1.484375 -1.40625 1.484375 -1.640625 C 1.484375 -1.890625 1.3125 -2.140625 0.984375 -2.140625 C 0.84375 -2.140625 0.5 -2.0625 0.5 -1.609375 C 0.5 -0.75 1.1875 0.21875 2.296875 0.21875 C 3.453125 0.21875 4.46875 -0.734375 4.46875 -2 Z M 4.46875 -2 "/>
</g>
<g id="glyph-0-2">
<path d="M 2.9375 -6.375 C 2.9375 -6.625 2.9375 -6.640625 2.703125 -6.640625 C 2.078125 -6 1.203125 -6 0.890625 -6 L 0.890625 -5.6875 C 1.09375 -5.6875 1.671875 -5.6875 2.1875 -5.953125 L 2.1875 -0.78125 C 2.1875 -0.421875 2.15625 -0.3125 1.265625 -0.3125 L 0.953125 -0.3125 L 0.953125 0 C 1.296875 -0.03125 2.15625 -0.03125 2.5625 -0.03125 C 2.953125 -0.03125 3.828125 -0.03125 4.171875 0 L 4.171875 -0.3125 L 3.859375 -0.3125 C 2.953125 -0.3125 2.9375 -0.421875 2.9375 -0.78125 Z M 2.9375 -6.375 "/>
</g>
<g id="glyph-0-3">
<path d="M 1.265625 -0.765625 L 2.328125 -1.796875 C 3.875 -3.171875 4.46875 -3.703125 4.46875 -4.703125 C 4.46875 -5.84375 3.578125 -6.640625 2.359375 -6.640625 C 1.234375 -6.640625 0.5 -5.71875 0.5 -4.828125 C 0.5 -4.28125 1 -4.28125 1.03125 -4.28125 C 1.203125 -4.28125 1.546875 -4.390625 1.546875 -4.8125 C 1.546875 -5.0625 1.359375 -5.328125 1.015625 -5.328125 C 0.9375 -5.328125 0.921875 -5.328125 0.890625 -5.3125 C 1.109375 -5.96875 1.65625 -6.328125 2.234375 -6.328125 C 3.140625 -6.328125 3.5625 -5.515625 3.5625 -4.703125 C 3.5625 -3.90625 3.078125 -3.125 2.515625 -2.5 L 0.609375 -0.375 C 0.5 -0.265625 0.5 -0.234375 0.5 0 L 4.203125 0 L 4.46875 -1.734375 L 4.234375 -1.734375 C 4.171875 -1.4375 4.109375 -1 4 -0.84375 C 3.9375 -0.765625 3.28125 -0.765625 3.0625 -0.765625 Z M 1.265625 -0.765625 "/>
</g>
<g id="glyph-0-4">
<path d="M 2.890625 -3.515625 C 3.703125 -3.78125 4.28125 -4.46875 4.28125 -5.265625 C 4.28125 -6.078125 3.40625 -6.640625 2.453125 -6.640625 C 1.453125 -6.640625 0.6875 -6.046875 0.6875 -5.28125 C 0.6875 -4.953125 0.90625 -4.765625 1.203125 -4.765625 C 1.5 -4.765625 1.703125 -4.984375 1.703125 -5.28125 C 1.703125 -5.765625 1.234375 -5.765625 1.09375 -5.765625 C 1.390625 -6.265625 2.046875 -6.390625 2.40625 -6.390625 C 2.828125 -6.390625 3.375 -6.171875 3.375 -5.28125 C 3.375 -5.15625 3.34375 -4.578125 3.09375 -4.140625 C 2.796875 -3.65625 2.453125 -3.625 2.203125 -3.625 C 2.125 -3.609375 1.890625 -3.59375 1.8125 -3.59375 C 1.734375 -3.578125 1.671875 -3.5625 1.671875 -3.46875 C 1.671875 -3.359375 1.734375 -3.359375 1.90625 -3.359375 L 2.34375 -3.359375 C 3.15625 -3.359375 3.53125 -2.6875 3.53125 -1.703125 C 3.53125 -0.34375 2.84375 -0.0625 2.40625 -0.0625 C 1.96875 -0.0625 1.21875 -0.234375 0.875 -0.8125 C 1.21875 -0.765625 1.53125 -0.984375 1.53125 -1.359375 C 1.53125 -1.71875 1.265625 -1.921875 0.984375 -1.921875 C 0.734375 -1.921875 0.421875 -1.78125 0.421875 -1.34375 C 0.421875 -0.4375 1.34375 0.21875 2.4375 0.21875 C 3.65625 0.21875 4.5625 -0.6875 4.5625 -1.703125 C 4.5625 -2.515625 3.921875 -3.296875 2.890625 -3.515625 Z M 2.890625 -3.515625 "/>
</g>
<g id="glyph-0-5">
<path d="M 2.9375 -1.640625 L 2.9375 -0.78125 C 2.9375 -0.421875 2.90625 -0.3125 2.171875 -0.3125 L 1.96875 -0.3125 L 1.96875 0 C 2.375 -0.03125 2.890625 -0.03125 3.3125 -0.03125 C 3.734375 -0.03125 4.25 -0.03125 4.671875 0 L 4.671875 -0.3125 L 4.453125 -0.3125 C 3.71875 -0.3125 3.703125 -0.421875 3.703125 -0.78125 L 3.703125 -1.640625 L 4.6875 -1.640625 L 4.6875 -1.953125 L 3.703125 -1.953125 L 3.703125 -6.484375 C 3.703125 -6.6875 3.703125 -6.75 3.53125 -6.75 C 3.453125 -6.75 3.421875 -6.75 3.34375 -6.625 L 0.28125 -1.953125 L 0.28125 -1.640625 Z M 2.984375 -1.953125 L 0.5625 -1.953125 L 2.984375 -5.671875 Z M 2.984375 -1.953125 "/>
</g>
<g id="glyph-0-6">
<path d="M 6.84375 -3.265625 C 7 -3.265625 7.1875 -3.265625 7.1875 -3.453125 C 7.1875 -3.65625 7 -3.65625 6.859375 -3.65625 L 0.890625 -3.65625 C 0.75 -3.65625 0.5625 -3.65625 0.5625 -3.453125 C 0.5625 -3.265625 0.75 -3.265625 0.890625 -3.265625 Z M 6.859375 -1.328125 C 7 -1.328125 7.1875 -1.328125 7.1875 -1.53125 C 7.1875 -1.71875 7 -1.71875 6.84375 -1.71875 L 0.890625 -1.71875 C 0.75 -1.71875 0.5625 -1.71875 0.5625 -1.53125 C 0.5625 -1.328125 0.75 -1.328125 0.890625 -1.328125 Z M 6.859375 -1.328125 "/>
</g>
<g id="glyph-0-7">
<path d="M 1.765625 -6.921875 L 0.328125 -6.8125 L 0.328125 -6.5 C 1.03125 -6.5 1.109375 -6.4375 1.109375 -5.9375 L 1.109375 -0.75 C 1.109375 -0.3125 1 -0.3125 0.328125 -0.3125 L 0.328125 0 C 0.65625 -0.015625 1.1875 -0.03125 1.4375 -0.03125 C 1.6875 -0.03125 2.171875 -0.015625 2.546875 0 L 2.546875 -0.3125 C 1.875 -0.3125 1.765625 -0.3125 1.765625 -0.75 Z M 1.765625 -6.921875 "/>
</g>
<g id="glyph-0-8">
<path d="M 1.09375 -3.421875 L 1.09375 -0.75 C 1.09375 -0.3125 0.984375 -0.3125 0.3125 -0.3125 L 0.3125 0 C 0.671875 -0.015625 1.171875 -0.03125 1.453125 -0.03125 C 1.703125 -0.03125 2.21875 -0.015625 2.5625 0 L 2.5625 -0.3125 C 1.890625 -0.3125 1.78125 -0.3125 1.78125 -0.75 L 1.78125 -2.59375 C 1.78125 -3.625 2.5 -4.1875 3.125 -4.1875 C 3.765625 -4.1875 3.875 -3.65625 3.875 -3.078125 L 3.875 -0.75 C 3.875 -0.3125 3.765625 -0.3125 3.09375 -0.3125 L 3.09375 0 C 3.4375 -0.015625 3.953125 -0.03125 4.21875 -0.03125 C 4.46875 -0.03125 5 -0.015625 5.328125 0 L 5.328125 -0.3125 C 4.8125 -0.3125 4.5625 -0.3125 4.5625 -0.609375 L 4.5625 -2.515625 C 4.5625 -3.375 4.5625 -3.671875 4.25 -4.03125 C 4.109375 -4.203125 3.78125 -4.40625 3.203125 -4.40625 C 2.46875 -4.40625 2 -3.984375 1.71875 -3.359375 L 1.71875 -4.40625 L 0.3125 -4.296875 L 0.3125 -3.984375 C 1.015625 -3.984375 1.09375 -3.921875 1.09375 -3.421875 Z M 1.09375 -3.421875 "/>
</g>
<g id="glyph-0-9">
<path d="M 3.296875 2.390625 C 3.296875 2.359375 3.296875 2.34375 3.125 2.171875 C 1.890625 0.921875 1.5625 -0.96875 1.5625 -2.5 C 1.5625 -4.234375 1.9375 -5.96875 3.171875 -7.203125 C 3.296875 -7.328125 3.296875 -7.34375 3.296875 -7.375 C 3.296875 -7.453125 3.265625 -7.484375 3.203125 -7.484375 C 3.09375 -7.484375 2.203125 -6.796875 1.609375 -5.53125 C 1.109375 -4.4375 0.984375 -3.328125 0.984375 -2.5 C 0.984375 -1.71875 1.09375 -0.515625 1.640625 0.625 C 2.25 1.84375 3.09375 2.5 3.203125 2.5 C 3.265625 2.5 3.296875 2.46875 3.296875 2.390625 Z M 3.296875 2.390625 "/>
</g>
<g id="glyph-0-10">
<path d="M 2.875 -2.5 C 2.875 -3.265625 2.765625 -4.46875 2.21875 -5.609375 C 1.625 -6.828125 0.765625 -7.484375 0.671875 -7.484375 C 0.609375 -7.484375 0.5625 -7.4375 0.5625 -7.375 C 0.5625 -7.34375 0.5625 -7.328125 0.75 -7.140625 C 1.734375 -6.15625 2.296875 -4.578125 2.296875 -2.5 C 2.296875 -0.78125 1.9375 0.96875 0.703125 2.21875 C 0.5625 2.34375 0.5625 2.359375 0.5625 2.390625 C 0.5625 2.453125 0.609375 2.5 0.671875 2.5 C 0.765625 2.5 1.671875 1.8125 2.25 0.546875 C 2.765625 -0.546875 2.875 -1.65625 2.875 -2.5 Z M 2.875 -2.5 "/>
</g>
<g id="glyph-1-0">
<path d="M 1.90625 -0.53125 C 1.90625 -0.8125 1.671875 -1.0625 1.390625 -1.0625 C 1.09375 -1.0625 0.859375 -0.8125 0.859375 -0.53125 C 0.859375 -0.234375 1.09375 0 1.390625 0 C 1.671875 0 1.90625 -0.234375 1.90625 -0.53125 Z M 1.90625 -0.53125 "/>
</g>
<g id="glyph-1-1">
<path d="M 0.875 -0.59375 C 0.84375 -0.4375 0.78125 -0.203125 0.78125 -0.15625 C 0.78125 0.015625 0.921875 0.109375 1.078125 0.109375 C 1.203125 0.109375 1.375 0.03125 1.453125 -0.171875 C 1.453125 -0.1875 1.578125 -0.65625 1.640625 -0.90625 L 1.859375 -1.796875 C 1.90625 -2.03125 1.96875 -2.25 2.03125 -2.46875 C 2.0625 -2.640625 2.140625 -2.9375 2.15625 -2.96875 C 2.296875 -3.28125 2.828125 -4.1875 3.78125 -4.1875 C 4.234375 -4.1875 4.3125 -3.8125 4.3125 -3.484375 C 4.3125 -2.875 3.828125 -1.59375 3.671875 -1.171875 C 3.578125 -0.9375 3.5625 -0.8125 3.5625 -0.703125 C 3.5625 -0.234375 3.921875 0.109375 4.390625 0.109375 C 5.328125 0.109375 5.6875 -1.34375 5.6875 -1.421875 C 5.6875 -1.53125 5.609375 -1.53125 5.578125 -1.53125 C 5.46875 -1.53125 5.46875 -1.5 5.421875 -1.34375 C 5.21875 -0.671875 4.890625 -0.109375 4.40625 -0.109375 C 4.234375 -0.109375 4.171875 -0.203125 4.171875 -0.4375 C 4.171875 -0.6875 4.25 -0.921875 4.34375 -1.140625 C 4.53125 -1.671875 4.953125 -2.765625 4.953125 -3.34375 C 4.953125 -4 4.53125 -4.40625 3.8125 -4.40625 C 2.90625 -4.40625 2.421875 -3.765625 2.25 -3.53125 C 2.203125 -4.09375 1.796875 -4.40625 1.328125 -4.40625 C 0.875 -4.40625 0.6875 -4.015625 0.59375 -3.84375 C 0.421875 -3.5 0.296875 -2.90625 0.296875 -2.875 C 0.296875 -2.765625 0.390625 -2.765625 0.40625 -2.765625 C 0.515625 -2.765625 0.515625 -2.78125 0.578125 -3 C 0.75 -3.703125 0.953125 -4.1875 1.3125 -4.1875 C 1.5 -4.1875 1.609375 -4.0625 1.609375 -3.734375 C 1.609375 -3.515625 1.578125 -3.40625 1.453125 -2.890625 Z M 0.875 -0.59375 "/>
</g>
<g id="glyph-1-2">
<path d="M 7.609375 -6.046875 C 7.703125 -6.40625 7.71875 -6.5 8.4375 -6.5 C 8.703125 -6.5 8.78125 -6.5 8.78125 -6.703125 C 8.78125 -6.8125 8.671875 -6.8125 8.640625 -6.8125 C 8.359375 -6.8125 7.640625 -6.78125 7.359375 -6.78125 C 7.078125 -6.78125 6.375 -6.8125 6.078125 -6.8125 C 6 -6.8125 5.890625 -6.8125 5.890625 -6.609375 C 5.890625 -6.5 5.984375 -6.5 6.171875 -6.5 C 6.1875 -6.5 6.375 -6.5 6.546875 -6.484375 C 6.734375 -6.453125 6.8125 -6.453125 6.8125 -6.3125 C 6.8125 -6.28125 6.8125 -6.265625 6.78125 -6.125 L 6.1875 -3.703125 L 3.140625 -3.703125 L 3.734375 -6.046875 C 3.8125 -6.40625 3.84375 -6.5 4.5625 -6.5 C 4.828125 -6.5 4.90625 -6.5 4.90625 -6.703125 C 4.90625 -6.8125 4.796875 -6.8125 4.765625 -6.8125 C 4.484375 -6.8125 3.765625 -6.78125 3.484375 -6.78125 C 3.203125 -6.78125 2.5 -6.8125 2.203125 -6.8125 C 2.125 -6.8125 2.015625 -6.8125 2.015625 -6.609375 C 2.015625 -6.5 2.109375 -6.5 2.296875 -6.5 C 2.3125 -6.5 2.5 -6.5 2.671875 -6.484375 C 2.84375 -6.453125 2.9375 -6.453125 2.9375 -6.3125 C 2.9375 -6.28125 2.9375 -6.25 2.90625 -6.125 L 1.5625 -0.78125 C 1.46875 -0.390625 1.453125 -0.3125 0.65625 -0.3125 C 0.484375 -0.3125 0.390625 -0.3125 0.390625 -0.109375 C 0.390625 0 0.515625 0 0.53125 0 C 0.8125 0 1.515625 -0.03125 1.796875 -0.03125 C 2 -0.03125 2.21875 -0.015625 2.4375 -0.015625 C 2.65625 -0.015625 2.875 0 3.078125 0 C 3.15625 0 3.28125 0 3.28125 -0.203125 C 3.28125 -0.3125 3.1875 -0.3125 3 -0.3125 C 2.625 -0.3125 2.359375 -0.3125 2.359375 -0.484375 C 2.359375 -0.546875 2.375 -0.59375 2.375 -0.65625 L 3.0625 -3.390625 L 6.09375 -3.390625 C 5.6875 -1.734375 5.453125 -0.78125 5.40625 -0.640625 C 5.3125 -0.3125 5.125 -0.3125 4.5 -0.3125 C 4.359375 -0.3125 4.265625 -0.3125 4.265625 -0.109375 C 4.265625 0 4.390625 0 4.40625 0 C 4.6875 0 5.390625 -0.03125 5.671875 -0.03125 C 5.875 -0.03125 6.09375 -0.015625 6.3125 -0.015625 C 6.53125 -0.015625 6.75 0 6.953125 0 C 7.03125 0 7.15625 0 7.15625 -0.203125 C 7.15625 -0.3125 7.0625 -0.3125 6.875 -0.3125 C 6.515625 -0.3125 6.234375 -0.3125 6.234375 -0.484375 C 6.234375 -0.546875 6.25 -0.59375 6.265625 -0.65625 Z M 7.609375 -6.046875 "/>
</g>
<g id="glyph-2-0">
<path d="M -3.796875 -4.84375 C -3.9375 -4.890625 -3.953125 -4.890625 -4.03125 -4.890625 C -4.203125 -4.890625 -4.296875 -4.75 -4.296875 -4.59375 C -4.296875 -4.5 -4.234375 -4.34375 -4.09375 -4.25 C -4.03125 -4.234375 -3.734375 -4.140625 -3.546875 -4.109375 C -3.296875 -4.03125 -3.015625 -3.96875 -2.75 -3.90625 L -0.953125 -3.453125 C -0.8125 -3.421875 -0.109375 -2.984375 -0.109375 -2.328125 C -0.109375 -1.828125 -0.546875 -1.71875 -0.921875 -1.71875 C -1.375 -1.71875 -2 -1.890625 -2.875 -2.21875 C -3.28125 -2.375 -3.390625 -2.421875 -3.59375 -2.421875 C -4.03125 -2.421875 -4.40625 -2.109375 -4.40625 -1.609375 C -4.40625 -0.65625 -2.953125 -0.296875 -2.875 -0.296875 C -2.765625 -0.296875 -2.765625 -0.390625 -2.765625 -0.40625 C -2.765625 -0.515625 -2.796875 -0.515625 -2.953125 -0.5625 C -3.890625 -0.84375 -4.1875 -1.234375 -4.1875 -1.578125 C -4.1875 -1.65625 -4.1875 -1.828125 -3.875 -1.828125 C -3.625 -1.828125 -3.359375 -1.71875 -3.171875 -1.65625 C -2.109375 -1.25 -1.546875 -1.078125 -1.078125 -1.078125 C -0.1875 -1.078125 0.109375 -1.703125 0.109375 -2.296875 C 0.109375 -2.6875 -0.0625 -3.015625 -0.34375 -3.296875 C 0.171875 -3.171875 0.671875 -3.046875 1.203125 -2.65625 C 1.53125 -2.390625 1.828125 -2.015625 1.828125 -1.5625 C 1.828125 -1.421875 1.796875 -0.96875 1.40625 -0.796875 C 1.40625 -0.953125 1.40625 -1.09375 1.28125 -1.21875 C 1.203125 -1.328125 1.0625 -1.421875 0.875 -1.421875 C 0.5625 -1.421875 0.53125 -1.15625 0.53125 -1.0625 C 0.53125 -0.828125 0.6875 -0.5 1.171875 -0.5 C 1.671875 -0.5 2.046875 -0.9375 2.046875 -1.5625 C 2.046875 -2.578125 1.140625 -3.609375 0.015625 -3.890625 Z M -3.796875 -4.84375 "/>
</g>
<g id="glyph-3-0">
<path d="M 0.84375 -0.4375 C 0.828125 -0.34375 0.78125 -0.171875 0.78125 -0.15625 C 0.78125 0 0.90625 0.0625 1.015625 0.0625 C 1.140625 0.0625 1.25 -0.015625 1.296875 -0.078125 C 1.328125 -0.140625 1.375 -0.375 1.421875 -0.515625 C 1.453125 -0.640625 1.53125 -0.96875 1.5625 -1.140625 C 1.609375 -1.296875 1.65625 -1.453125 1.6875 -1.609375 C 1.765625 -1.890625 1.78125 -1.953125 1.984375 -2.234375 C 2.171875 -2.515625 2.5 -2.875 3.03125 -2.875 C 3.421875 -2.875 3.4375 -2.515625 3.4375 -2.390625 C 3.4375 -1.96875 3.140625 -1.203125 3.03125 -0.90625 C 2.953125 -0.703125 2.921875 -0.640625 2.921875 -0.53125 C 2.921875 -0.15625 3.21875 0.0625 3.578125 0.0625 C 4.28125 0.0625 4.578125 -0.890625 4.578125 -1 C 4.578125 -1.09375 4.5 -1.09375 4.46875 -1.09375 C 4.375 -1.09375 4.375 -1.046875 4.34375 -0.96875 C 4.1875 -0.40625 3.875 -0.125 3.609375 -0.125 C 3.453125 -0.125 3.421875 -0.21875 3.421875 -0.375 C 3.421875 -0.53125 3.46875 -0.625 3.59375 -0.9375 C 3.671875 -1.15625 3.953125 -1.890625 3.953125 -2.28125 C 3.953125 -2.953125 3.421875 -3.078125 3.046875 -3.078125 C 2.46875 -3.078125 2.078125 -2.71875 1.875 -2.4375 C 1.828125 -2.921875 1.421875 -3.078125 1.125 -3.078125 C 0.828125 -3.078125 0.671875 -2.859375 0.578125 -2.703125 C 0.421875 -2.4375 0.328125 -2.046875 0.328125 -2 C 0.328125 -1.921875 0.421875 -1.921875 0.453125 -1.921875 C 0.546875 -1.921875 0.546875 -1.9375 0.59375 -2.125 C 0.703125 -2.53125 0.84375 -2.875 1.109375 -2.875 C 1.296875 -2.875 1.34375 -2.71875 1.34375 -2.53125 C 1.34375 -2.40625 1.28125 -2.140625 1.21875 -1.953125 C 1.171875 -1.765625 1.109375 -1.484375 1.078125 -1.328125 Z M 0.84375 -0.4375 "/>
</g>
<g id="glyph-3-1">
<path d="M 2.1875 -4.625 C 2.1875 -4.640625 2.203125 -4.734375 2.203125 -4.734375 C 2.203125 -4.78125 2.1875 -4.84375 2.09375 -4.84375 C 1.953125 -4.84375 1.375 -4.78125 1.203125 -4.765625 C 1.15625 -4.765625 1.046875 -4.75 1.046875 -4.609375 C 1.046875 -4.515625 1.15625 -4.515625 1.234375 -4.515625 C 1.5625 -4.515625 1.5625 -4.453125 1.5625 -4.40625 C 1.5625 -4.359375 1.546875 -4.3125 1.546875 -4.25 L 0.5625 -0.3125 C 0.515625 -0.1875 0.515625 -0.171875 0.515625 -0.15625 C 0.515625 -0.046875 0.609375 0.0625 0.765625 0.0625 C 0.953125 0.0625 1.03125 -0.0625 1.078125 -0.21875 C 1.09375 -0.25 1.390625 -1.484375 1.421875 -1.578125 C 1.921875 -1.53125 2.3125 -1.359375 2.3125 -1 C 2.3125 -0.96875 2.3125 -0.9375 2.296875 -0.859375 C 2.265625 -0.765625 2.265625 -0.71875 2.265625 -0.640625 C 2.265625 -0.15625 2.671875 0.0625 3.015625 0.0625 C 3.6875 0.0625 3.890625 -0.984375 3.890625 -1 C 3.890625 -1.09375 3.8125 -1.09375 3.78125 -1.09375 C 3.6875 -1.09375 3.671875 -1.046875 3.640625 -0.921875 C 3.5625 -0.625 3.375 -0.125 3.03125 -0.125 C 2.84375 -0.125 2.78125 -0.296875 2.78125 -0.484375 C 2.78125 -0.609375 2.78125 -0.625 2.828125 -0.796875 C 2.84375 -0.828125 2.859375 -0.9375 2.859375 -1.015625 C 2.859375 -1.640625 2.03125 -1.734375 1.734375 -1.75 C 1.9375 -1.875 2.1875 -2.109375 2.3125 -2.21875 C 2.671875 -2.546875 3.015625 -2.875 3.40625 -2.875 C 3.484375 -2.875 3.578125 -2.859375 3.640625 -2.78125 C 3.34375 -2.734375 3.28125 -2.5 3.28125 -2.390625 C 3.28125 -2.25 3.390625 -2.140625 3.546875 -2.140625 C 3.75 -2.140625 3.953125 -2.296875 3.953125 -2.578125 C 3.953125 -2.8125 3.78125 -3.078125 3.421875 -3.078125 C 3.015625 -3.078125 2.65625 -2.78125 2.296875 -2.453125 C 2 -2.1875 1.78125 -1.96875 1.484375 -1.84375 Z M 2.1875 -4.625 "/>
</g>
<g id="glyph-4-0">
<path d="M 4.203125 5.328125 L 0.65625 9.703125 C 0.578125 9.796875 0.5625 9.8125 0.5625 9.859375 C 0.5625 9.96875 0.65625 9.96875 0.84375 9.96875 L 9.09375 9.96875 L 9.953125 7.484375 L 9.703125 7.484375 C 9.453125 8.234375 8.796875 8.84375 7.9375 9.125 C 7.78125 9.1875 7.09375 9.421875 5.625 9.421875 L 1.390625 9.421875 L 4.859375 5.140625 C 4.921875 5.046875 4.9375 5.03125 4.9375 4.984375 C 4.9375 4.9375 4.9375 4.9375 4.875 4.84375 L 1.640625 0.40625 L 5.578125 0.40625 C 6.71875 0.40625 9.015625 0.46875 9.703125 2.328125 L 9.953125 2.328125 L 9.09375 0 L 0.84375 0 C 0.5625 0 0.5625 0.015625 0.5625 0.3125 Z M 4.203125 5.328125 "/>
</g>
<g id="glyph-5-0">
<path d="M 5.359375 -2.34375 C 5.453125 -2.34375 5.609375 -2.34375 5.609375 -2.515625 C 5.609375 -2.6875 5.453125 -2.6875 5.359375 -2.6875 L 0.75 -2.6875 C 0.65625 -2.6875 0.484375 -2.6875 0.484375 -2.515625 C 0.484375 -2.34375 0.640625 -2.34375 0.75 -2.34375 Z M 5.359375 -0.8125 C 5.453125 -0.8125 5.609375 -0.8125 5.609375 -0.96875 C 5.609375 -1.15625 5.453125 -1.15625 5.359375 -1.15625 L 0.75 -1.15625 C 0.640625 -1.15625 0.484375 -1.15625 0.484375 -0.96875 C 0.484375 -0.8125 0.65625 -0.8125 0.75 -0.8125 Z M 5.359375 -0.8125 "/>
</g>
<g id="glyph-5-1">
<path d="M 2.328125 -4.4375 C 2.328125 -4.625 2.328125 -4.625 2.125 -4.625 C 1.671875 -4.1875 1.046875 -4.1875 0.765625 -4.1875 L 0.765625 -3.9375 C 0.921875 -3.9375 1.390625 -3.9375 1.765625 -4.125 L 1.765625 -0.578125 C 1.765625 -0.34375 1.765625 -0.25 1.078125 -0.25 L 0.8125 -0.25 L 0.8125 0 C 0.9375 0 1.796875 -0.03125 2.046875 -0.03125 C 2.265625 -0.03125 3.140625 0 3.296875 0 L 3.296875 -0.25 L 3.03125 -0.25 C 2.328125 -0.25 2.328125 -0.34375 2.328125 -0.578125 Z M 2.328125 -4.4375 "/>
</g>
</g>
<clipPath id="clip-0">
<path clip-rule="nonzero" d="M 67 0 L 337.9375 0 L 337.9375 252 L 67 252 Z M 67 0 "/>
</clipPath>
<clipPath id="clip-1">
<path clip-rule="nonzero" d="M 67 0 L 337.9375 0 L 337.9375 251 L 67 251 Z M 67 0 "/>
</clipPath>
<clipPath id="clip-2">
<path clip-rule="nonzero" d="M 67 0 L 337.9375 0 L 337.9375 252 L 67 252 Z M 67 0 "/>
</clipPath>
<clipPath id="clip-3">
<path clip-rule="nonzero" d="M 70 24 L 337.9375 24 L 337.9375 250.894531 L 70 250.894531 Z M 70 24 "/>
</clipPath>
<clipPath id="clip-4">
<path clip-rule="nonzero" d="M 67.265625 48 L 337.9375 48 L 337.9375 250.894531 L 67.265625 250.894531 Z M 67.265625 48 "/>
</clipPath>
</defs>
<g clip-path="url(#clip-0)">
<path fill="none" stroke-width="0.3985" stroke-linecap="butt" stroke-linejoin="miter" stroke="rgb(75%, 75%, 75%)" stroke-opacity="1" stroke-miterlimit="10" d="M -0.001375 0.00146875 L -0.001375 251.622563 M 29.303313 0.00146875 L 29.303313 251.622563 M 58.604094 0.00146875 L 58.604094 251.622563 M 87.904875 0.00146875 L 87.904875 251.622563 M 117.205656 0.00146875 L 117.205656 251.622563 M 146.510344 0.00146875 L 146.510344 251.622563 M 175.811125 0.00146875 L 175.811125 251.622563 M 205.111906 0.00146875 L 205.111906 251.622563 M 234.412688 0.00146875 L 234.412688 251.622563 M 263.717375 0.00146875 L 263.717375 251.622563 M 293.018156 0.00146875 L 293.018156 251.622563 " transform="matrix(1, 0, 0, -1, 67.267, 250.896)"/>
<path fill="none" stroke-width="0.3985" stroke-linecap="butt" stroke-linejoin="miter" stroke="rgb(75%, 75%, 75%)" stroke-opacity="1" stroke-miterlimit="10" d="M -0.001375 0.00146875 L 298.877531 0.00146875 M -0.001375 25.161625 L 298.877531 25.161625 M -0.001375 50.325688 L 298.877531 50.325688 M -0.001375 75.485844 L 298.877531 75.485844 M -0.001375 100.649906 L 298.877531 100.649906 M -0.001375 125.810063 L 298.877531 125.810063 M -0.001375 150.974125 L 298.877531 150.974125 M -0.001375 176.134281 L 298.877531 176.134281 M -0.001375 201.298344 L 298.877531 201.298344 M -0.001375 226.462406 L 298.877531 226.462406 M -0.001375 251.622563 L 298.877531 251.622563 " transform="matrix(1, 0, 0, -1, 67.267, 250.896)"/>
</g>
<g clip-path="url(#clip-1)">
<path fill="none" stroke-width="0.19925" stroke-linecap="butt" stroke-linejoin="miter" stroke="rgb(50%, 50%, 50%)" stroke-opacity="1" stroke-miterlimit="10" d="M -0.001375 0.00146875 L -0.001375 4.251469 M 29.303313 0.00146875 L 29.303313 4.251469 M 58.604094 0.00146875 L 58.604094 4.251469 M 87.904875 0.00146875 L 87.904875 4.251469 M 117.205656 0.00146875 L 117.205656 4.251469 M 146.510344 0.00146875 L 146.510344 4.251469 M 175.811125 0.00146875 L 175.811125 4.251469 M 205.111906 0.00146875 L 205.111906 4.251469 M 234.412688 0.00146875 L 234.412688 4.251469 M 263.717375 0.00146875 L 263.717375 4.251469 M 293.018156 0.00146875 L 293.018156 4.251469 M -0.001375 251.622563 L -0.001375 247.372563 M 29.303313 251.622563 L 29.303313 247.372563 M 58.604094 251.622563 L 58.604094 247.372563 M 87.904875 251.622563 L 87.904875 247.372563 M 117.205656 251.622563 L 117.205656 247.372563 M 146.510344 251.622563 L 146.510344 247.372563 M 175.811125 251.622563 L 175.811125 247.372563 M 205.111906 251.622563 L 205.111906 247.372563 M 234.412688 251.622563 L 234.412688 247.372563 M 263.717375 251.622563 L 263.717375 247.372563 M 293.018156 251.622563 L 293.018156 247.372563 " transform="matrix(1, 0, 0, -1, 67.267, 250.896)"/>
<path fill="none" stroke-width="0.19925" stroke-linecap="butt" stroke-linejoin="miter" stroke="rgb(50%, 50%, 50%)" stroke-opacity="1" stroke-miterlimit="10" d="M -0.001375 0.00146875 L 4.252531 0.00146875 M -0.001375 25.161625 L 4.252531 25.161625 M -0.001375 50.325688 L 4.252531 50.325688 M -0.001375 75.485844 L 4.252531 75.485844 M -0.001375 100.649906 L 4.252531 100.649906 M -0.001375 125.810063 L 4.252531 125.810063 M -0.001375 150.974125 L 4.252531 150.974125 M -0.001375 176.134281 L 4.252531 176.134281 M -0.001375 201.298344 L 4.252531 201.298344 M -0.001375 226.462406 L 4.252531 226.462406 M -0.001375 251.622563 L 4.252531 251.622563 M 298.877531 0.00146875 L 294.627531 0.00146875 M 298.877531 25.161625 L 294.627531 25.161625 M 298.877531 50.325688 L 294.627531 50.325688 M 298.877531 75.485844 L 294.627531 75.485844 M 298.877531 100.649906 L 294.627531 100.649906 M 298.877531 125.810063 L 294.627531 125.810063 M 298.877531 150.974125 L 294.627531 150.974125 M 298.877531 176.134281 L 294.627531 176.134281 M 298.877531 201.298344 L 294.627531 201.298344 M 298.877531 226.462406 L 294.627531 226.462406 M 298.877531 251.622563 L 294.627531 251.622563 " transform="matrix(1, 0, 0, -1, 67.267, 250.896)"/>
</g>
<g clip-path="url(#clip-2)">
<path fill="none" stroke-width="0.3985" stroke-linecap="butt" stroke-linejoin="miter" stroke="rgb(0%, 0%, 0%)" stroke-opacity="1" stroke-miterlimit="10" d="M -0.001375 0.00146875 L -0.001375 251.622563 L 298.877531 251.622563 L 298.877531 0.00146875 Z M -0.001375 0.00146875 " transform="matrix(1, 0, 0, -1, 67.267, 250.896)"/>
</g>
<g fill="rgb(0%, 0%, 0%)" fill-opacity="1">
<use xlink:href="#glyph-0-0" x="64.776" y="260.836"/>
</g>
<g fill="rgb(0%, 0%, 0%)" fill-opacity="1">
<use xlink:href="#glyph-0-1" x="94.078" y="260.836"/>
</g>
<g fill="rgb(0%, 0%, 0%)" fill-opacity="1">
<use xlink:href="#glyph-0-2" x="120.889" y="260.836"/>
<use xlink:href="#glyph-0-0" x="125.8703" y="260.836"/>
</g>
<g fill="rgb(0%, 0%, 0%)" fill-opacity="1">
<use xlink:href="#glyph-0-2" x="150.19" y="260.836"/>
<use xlink:href="#glyph-0-1" x="155.1713" y="260.836"/>
</g>
<g fill="rgb(0%, 0%, 0%)" fill-opacity="1">
<use xlink:href="#glyph-0-3" x="179.491" y="260.836"/>
<use xlink:href="#glyph-0-0" x="184.4723" y="260.836"/>
</g>
<g fill="rgb(0%, 0%, 0%)" fill-opacity="1">
<use xlink:href="#glyph-0-3" x="208.793" y="260.836"/>
<use xlink:href="#glyph-0-1" x="213.7743" y="260.836"/>
</g>
<g fill="rgb(0%, 0%, 0%)" fill-opacity="1">
<use xlink:href="#glyph-0-4" x="238.094" y="260.836"/>
<use xlink:href="#glyph-0-0" x="243.0753" y="260.836"/>
</g>
<g fill="rgb(0%, 0%, 0%)" fill-opacity="1">
<use xlink:href="#glyph-0-4" x="267.396" y="260.836"/>
<use xlink:href="#glyph-0-1" x="272.3773" y="260.836"/>
</g>
<g fill="rgb(0%, 0%, 0%)" fill-opacity="1">
<use xlink:href="#glyph-0-5" x="296.697" y="260.836"/>
<use xlink:href="#glyph-0-0" x="301.6783" y="260.836"/>
</g>
<g fill="rgb(0%, 0%, 0%)" fill-opacity="1">
<use xlink:href="#glyph-0-5" x="325.999" y="260.836"/>
<use xlink:href="#glyph-0-1" x="330.9803" y="260.836"/>
</g>
<g fill="rgb(0%, 0%, 0%)" fill-opacity="1">
<use xlink:href="#glyph-0-0" x="58.766" y="254.106"/>
</g>
<g fill="rgb(0%, 0%, 0%)" fill-opacity="1">
<use xlink:href="#glyph-0-0" x="51.017" y="228.944"/>
</g>
<g fill="rgb(0%, 0%, 0%)" fill-opacity="1">
<use xlink:href="#glyph-1-0" x="55.9983" y="228.944"/>
</g>
<g fill="rgb(0%, 0%, 0%)" fill-opacity="1">
<use xlink:href="#glyph-0-1" x="58.76591" y="228.944"/>
</g>
<g fill="rgb(0%, 0%, 0%)" fill-opacity="1">
<use xlink:href="#glyph-0-2" x="58.766" y="203.782"/>
</g>
<g fill="rgb(0%, 0%, 0%)" fill-opacity="1">
<use xlink:href="#glyph-0-2" x="51.017" y="178.62"/>
</g>
<g fill="rgb(0%, 0%, 0%)" fill-opacity="1">
<use xlink:href="#glyph-1-0" x="55.9983" y="178.62"/>
</g>
<g fill="rgb(0%, 0%, 0%)" fill-opacity="1">
<use xlink:href="#glyph-0-1" x="58.76591" y="178.62"/>
</g>
<g fill="rgb(0%, 0%, 0%)" fill-opacity="1">
<use xlink:href="#glyph-0-3" x="58.766" y="153.458"/>
</g>
<g fill="rgb(0%, 0%, 0%)" fill-opacity="1">
<use xlink:href="#glyph-0-3" x="51.017" y="128.296"/>
</g>
<g fill="rgb(0%, 0%, 0%)" fill-opacity="1">
<use xlink:href="#glyph-1-0" x="55.9983" y="128.296"/>
</g>
<g fill="rgb(0%, 0%, 0%)" fill-opacity="1">
<use xlink:href="#glyph-0-1" x="58.76591" y="128.296"/>
</g>
<g fill="rgb(0%, 0%, 0%)" fill-opacity="1">
<use xlink:href="#glyph-0-4" x="58.766" y="103.134"/>
</g>
<g fill="rgb(0%, 0%, 0%)" fill-opacity="1">
<use xlink:href="#glyph-0-4" x="51.017" y="77.972"/>
</g>
<g fill="rgb(0%, 0%, 0%)" fill-opacity="1">
<use xlink:href="#glyph-1-0" x="55.9983" y="77.972"/>
</g>
<g fill="rgb(0%, 0%, 0%)" fill-opacity="1">
<use xlink:href="#glyph-0-1" x="58.76591" y="77.972"/>
</g>
<g fill="rgb(0%, 0%, 0%)" fill-opacity="1">
<use xlink:href="#glyph-0-5" x="58.766" y="52.81"/>
</g>
<g fill="rgb(0%, 0%, 0%)" fill-opacity="1">
<use xlink:href="#glyph-0-5" x="51.017" y="27.648"/>
</g>
<g fill="rgb(0%, 0%, 0%)" fill-opacity="1">
<use xlink:href="#glyph-1-0" x="55.9983" y="27.648"/>
</g>
<g fill="rgb(0%, 0%, 0%)" fill-opacity="1">
<use xlink:href="#glyph-0-1" x="58.76591" y="27.648"/>
</g>
<g fill="rgb(0%, 0%, 0%)" fill-opacity="1">
<use xlink:href="#glyph-0-1" x="58.766" y="2.486"/>
</g>
<g clip-path="url(#clip-3)">
<path fill-rule="nonzero" fill="rgb(0%, 0%, 0%)" fill-opacity="0.1" stroke-width="0.3985" stroke-linecap="butt" stroke-linejoin="miter" stroke="rgb(0%, 0%, 0%)" stroke-opacity="1" stroke-miterlimit="10" d="M 3.51425 0.00146875 L 8.205656 0.00146875 L 8.205656 50.325688 L 3.51425 50.325688 Z M 9.377531 0.00146875 L 14.065031 0.00146875 L 14.065031 75.485844 L 9.377531 75.485844 Z M 15.236906 0.00146875 L 19.924406 0.00146875 L 19.924406 92.263188 L 15.236906 92.263188 Z M 21.096281 0.00146875 L 25.783781 0.00146875 L 25.783781 104.841313 L 21.096281 104.841313 Z M 26.959563 0.00146875 L 31.647063 0.00146875 L 31.647063 114.907719 L 26.959563 114.907719 Z M 32.818938 0.00146875 L 37.506438 0.00146875 L 37.506438 123.294438 L 32.818938 123.294438 Z M 38.678313 0.00146875 L 43.365813 0.00146875 L 43.365813 130.485844 L 38.678313 130.485844 Z M 44.537688 0.00146875 L 49.225188 0.00146875 L 49.225188 136.774906 L 44.537688 136.774906 Z M 50.400969 0.00146875 L 55.088469 0.00146875 L 55.088469 142.368656 L 50.400969 142.368656 Z M 56.260344 0.00146875 L 60.947844 0.00146875 L 60.947844 147.399906 L 56.260344 147.399906 Z M 62.119719 0.00146875 L 66.807219 0.00146875 L 66.807219 151.974125 L 62.119719 151.974125 Z M 67.979094 0.00146875 L 72.666594 0.00146875 L 72.666594 156.169438 L 67.979094 156.169438 Z M 73.842375 0.00146875 L 78.529875 0.00146875 L 78.529875 160.040531 L 73.842375 160.040531 Z M 79.70175 0.00146875 L 84.38925 0.00146875 L 84.38925 163.634281 L 79.70175 163.634281 Z M 85.561125 0.00146875 L 90.248625 0.00146875 L 90.248625 166.98975 L 85.561125 166.98975 Z M 91.4205 0.00146875 L 96.108 0.00146875 L 96.108 170.134281 L 91.4205 170.134281 Z M 97.283781 0.00146875 L 101.971281 0.00146875 L 101.971281 173.095219 L 97.283781 173.095219 Z M 103.143156 0.00146875 L 107.830656 0.00146875 L 107.830656 175.888188 L 103.143156 175.888188 Z M 109.002531 0.00146875 L 113.690031 0.00146875 L 113.690031 178.540531 L 109.002531 178.540531 Z M 114.861906 0.00146875 L 119.553313 0.00146875 L 119.553313 181.056156 L 114.861906 181.056156 Z M 120.725188 0.00146875 L 125.412688 0.00146875 L 125.412688 183.450688 L 120.725188 183.450688 Z M 126.584563 0.00146875 L 131.272063 0.00146875 L 131.272063 185.73975 L 126.584563 185.73975 Z M 132.443938 0.00146875 L 137.131438 0.00146875 L 137.131438 187.92725 L 132.443938 187.92725 Z M 138.303313 0.00146875 L 142.994719 0.00146875 L 142.994719 190.024906 L 138.303313 190.024906 Z M 144.166594 0.00146875 L 148.854094 0.00146875 L 148.854094 192.036625 L 144.166594 192.036625 Z M 150.025969 0.00146875 L 154.713469 0.00146875 L 154.713469 193.974125 L 150.025969 193.974125 Z M 155.885344 0.00146875 L 160.572844 0.00146875 L 160.572844 195.837406 L 155.885344 195.837406 Z M 161.744719 0.00146875 L 166.436125 0.00146875 L 166.436125 197.634281 L 161.744719 197.634281 Z M 167.608 0.00146875 L 172.2955 0.00146875 L 172.2955 199.368656 L 167.608 199.368656 Z M 173.467375 0.00146875 L 178.154875 0.00146875 L 178.154875 201.044438 L 173.467375 201.044438 Z M 179.32675 0.00146875 L 184.01425 0.00146875 L 184.01425 202.669438 L 179.32675 202.669438 Z M 185.186125 0.00146875 L 189.877531 0.00146875 L 189.877531 204.243656 L 185.186125 204.243656 Z M 191.049406 0.00146875 L 195.736906 0.00146875 L 195.736906 205.767094 L 191.049406 205.767094 Z M 196.908781 0.00146875 L 201.596281 0.00146875 L 201.596281 207.247563 L 196.908781 207.247563 Z M 202.768156 0.00146875 L 207.455656 0.00146875 L 207.455656 208.685063 L 202.768156 208.685063 Z M 208.627531 0.00146875 L 213.318938 0.00146875 L 213.318938 210.0835 L 208.627531 210.0835 Z M 214.490813 0.00146875 L 219.178313 0.00146875 L 219.178313 211.446781 L 214.490813 211.446781 Z M 220.350188 0.00146875 L 225.037688 0.00146875 L 225.037688 212.771 L 220.350188 212.771 Z M 226.209563 0.00146875 L 230.897063 0.00146875 L 230.897063 214.060063 L 226.209563 214.060063 Z M 232.068938 0.00146875 L 236.760344 0.00146875 L 236.760344 215.317875 L 232.068938 215.317875 Z M 237.932219 0.00146875 L 242.619719 0.00146875 L 242.619719 216.544438 L 237.932219 216.544438 Z M 243.791594 0.00146875 L 248.479094 0.00146875 L 248.479094 217.743656 L 243.791594 217.743656 Z M 249.650969 0.00146875 L 254.338469 0.00146875 L 254.338469 218.911625 L 249.650969 218.911625 Z M 255.510344 0.00146875 L 260.20175 0.00146875 L 260.20175 220.056156 L 255.510344 220.056156 Z M 261.373625 0.00146875 L 266.061125 0.00146875 L 266.061125 221.173344 L 261.373625 221.173344 Z M 267.233 0.00146875 L 271.9205 0.00146875 L 271.9205 222.267094 L 267.233 222.267094 Z M 273.092375 0.00146875 L 277.779875 0.00146875 L 277.779875 223.341313 L 273.092375 223.341313 Z M 278.95175 0.00146875 L 283.643156 0.00146875 L 283.643156 224.388188 L 278.95175 224.388188 Z M 284.815031 0.00146875 L 289.502531 0.00146875 L 289.502531 225.415531 L 284.815031 225.415531 Z M 290.674406 0.00146875 L 295.361906 0.00146875 L 295.361906 226.419438 L 290.674406 226.419438 Z M 290.674406 0.00146875 " transform="matrix(1, 0, 0, -1, 67.267, 250.896)"/>
</g>
<g clip-path="url(#clip-4)">
<path fill="none" stroke-width="0.3985" stroke-linecap="butt" stroke-linejoin="miter" stroke="rgb(0%, 0%, 0%)" stroke-opacity="1" stroke-miterlimit="10" d="M 5.861906 0.00146875 C 5.861906 0.00146875 7.955656 15.431156 8.760344 20.231938 C 9.565031 25.036625 10.858 31.071781 11.662688 34.618656 C 12.467375 38.165531 13.756438 42.985844 14.561125 45.806156 C 15.365813 48.626469 16.658781 52.603031 17.463469 54.942875 C 18.268156 57.286625 19.557219 60.673344 20.361906 62.673344 C 21.166594 64.67725 22.459563 67.622563 23.26425 69.372563 C 24.068938 71.122563 25.358 73.73975 26.162688 75.294438 C 26.971281 76.849125 28.260344 79.185063 29.065031 80.5835 C 29.869719 81.981938 31.162688 84.099125 31.967375 85.372563 C 32.772063 86.642094 34.061125 88.575688 34.865813 89.743656 C 35.6705 90.907719 36.963469 92.688969 37.768156 93.763188 C 38.572844 94.837406 39.861906 96.48975 40.666594 97.485844 C 41.471281 98.481938 42.76425 100.017094 43.568938 100.946781 C 44.373625 101.880375 45.662688 103.317875 46.467375 104.192875 C 47.272063 105.067875 48.565031 106.423344 49.369719 107.247563 C 50.174406 108.067875 51.463469 109.341313 52.268156 110.118656 C 53.072844 110.896 54.365813 112.103031 55.1705 112.837406 C 55.975188 113.571781 57.26425 114.716313 58.068938 115.415531 C 58.877531 116.11475 60.166594 117.204594 60.971281 117.868656 C 61.775969 118.532719 63.068938 119.571781 63.873625 120.2085 C 64.678313 120.841313 65.967375 121.837406 66.772063 122.442875 C 67.57675 123.048344 68.869719 124.001469 69.674406 124.5835 C 70.479094 125.165531 71.768156 126.075688 72.572844 126.634281 C 73.377531 127.192875 74.6705 128.071781 75.475188 128.606938 C 76.279875 129.146 77.568938 129.985844 78.373625 130.505375 C 79.178313 131.021 80.471281 131.837406 81.275969 132.3335 C 82.080656 132.8335 83.369719 133.61475 84.174406 134.095219 C 84.983 134.579594 86.272063 135.337406 87.07675 135.80225 C 87.881438 136.267094 89.1705 137.001469 89.979094 137.450688 C 90.783781 137.899906 92.072844 138.61475 92.877531 139.048344 C 93.682219 139.485844 94.975188 140.173344 95.779875 140.595219 C 96.584563 141.017094 97.873625 141.685063 98.678313 142.095219 C 99.483 142.509281 100.775969 143.153813 101.580656 143.55225 C 102.385344 143.950688 103.674406 144.5835 104.479094 144.970219 C 105.283781 145.360844 106.57675 145.970219 107.381438 146.349125 C 108.186125 146.724125 109.475188 147.313969 110.279875 147.681156 C 111.084563 148.048344 112.377531 148.634281 113.182219 148.98975 C 113.986906 149.349125 115.275969 149.915531 116.084563 150.263188 C 116.88925 150.61475 118.178313 151.173344 118.983 151.513188 C 119.787688 151.856938 121.080656 152.396 121.885344 152.728031 C 122.690031 153.060063 123.979094 153.587406 124.783781 153.911625 C 125.588469 154.235844 126.881438 154.747563 127.686125 155.063969 C 128.490813 155.384281 129.779875 155.888188 130.584563 156.196781 C 131.38925 156.509281 132.682219 156.997563 133.486906 157.30225 C 134.291594 157.606938 135.580656 158.087406 136.385344 158.384281 C 137.190031 158.681156 138.483 159.153813 139.287688 159.442875 C 140.092375 159.735844 141.381438 160.196781 142.186125 160.481938 C 142.994719 160.767094 144.283781 161.216313 145.088469 161.497563 C 145.893156 161.774906 147.182219 162.220219 147.990813 162.493656 C 148.7955 162.767094 150.084563 163.200688 150.88925 163.470219 C 151.693938 163.735844 152.986906 164.165531 153.791594 164.42725 C 154.596281 164.688969 155.885344 165.110844 156.690031 165.368656 C 157.494719 165.626469 158.787688 166.036625 159.592375 166.290531 C 160.397063 166.544438 161.686125 166.946781 162.490813 167.196781 C 163.2955 167.446781 164.588469 167.841313 165.393156 168.087406 C 166.197844 168.3335 167.486906 168.720219 168.291594 168.962406 C 169.096281 169.204594 170.38925 169.5835 171.193938 169.821781 C 171.998625 170.060063 173.287688 170.435063 174.096281 170.669438 C 174.900969 170.899906 176.190031 171.271 176.994719 171.501469 C 177.799406 171.728031 179.092375 172.091313 179.897063 172.317875 C 180.70175 172.544438 181.990813 172.899906 182.7955 173.122563 C 183.600188 173.341313 184.893156 173.696781 185.697844 173.911625 C 186.502531 174.130375 187.791594 174.478031 188.596281 174.692875 C 189.400969 174.907719 190.693938 175.251469 191.498625 175.462406 C 192.303313 175.673344 193.592375 176.005375 194.397063 176.216313 C 195.20175 176.423344 196.494719 176.755375 197.299406 176.962406 C 198.104094 177.169438 199.393156 177.493656 200.197844 177.696781 C 201.006438 177.899906 202.2955 178.224125 203.100188 178.423344 C 203.904875 178.622563 205.197844 178.938969 206.002531 179.134281 C 206.807219 179.329594 208.096281 179.646 208.900969 179.837406 C 209.705656 180.032719 210.998625 180.341313 211.803313 180.532719 C 212.608 180.724125 213.897063 181.032719 214.70175 181.220219 C 215.506438 181.407719 216.799406 181.704594 217.604094 181.888188 C 218.408781 182.075688 219.697844 182.372563 220.502531 182.556156 C 221.307219 182.73975 222.600188 183.032719 223.404875 183.216313 C 224.209563 183.396 225.498625 183.681156 226.303313 183.856938 C 227.108 184.036625 228.400969 184.321781 229.205656 184.497563 C 230.010344 184.67725 231.299406 184.9585 232.108 185.134281 C 232.912688 185.310063 234.20175 185.595219 235.006438 185.767094 C 235.811125 185.938969 237.104094 186.212406 237.908781 186.384281 C 238.713469 186.55225 240.002531 186.825688 240.807219 186.993656 C 241.611906 187.161625 242.904875 187.431156 243.709563 187.595219 C 244.51425 187.763188 245.803313 188.028813 246.608 188.192875 C 247.412688 188.356938 248.705656 188.618656 249.510344 188.778813 C 250.315031 188.942875 251.604094 189.200688 252.408781 189.360844 C 253.213469 189.521 254.506438 189.778813 255.311125 189.938969 C 256.115813 190.095219 257.404875 190.349125 258.209563 190.505375 C 259.018156 190.661625 260.307219 190.911625 261.111906 191.067875 C 261.916594 191.224125 263.209563 191.470219 264.01425 191.622563 C 264.818938 191.774906 266.108 192.021 266.912688 192.173344 C 267.717375 192.325688 269.010344 192.567875 269.815031 192.716313 C 270.619719 192.868656 271.908781 193.106938 272.713469 193.255375 C 273.518156 193.403813 274.811125 193.642094 275.615813 193.786625 C 276.4205 193.935063 277.709563 194.169438 278.51425 194.313969 C 279.318938 194.462406 280.611906 194.692875 281.416594 194.837406 C 282.221281 194.981938 283.510344 195.2085 284.315031 195.353031 C 285.119719 195.493656 286.412688 195.724125 287.217375 195.86475 C 288.022063 196.005375 289.311125 196.228031 290.119719 196.368656 C 290.924406 196.509281 293.018156 196.868656 293.018156 196.868656 " transform="matrix(1, 0, 0, -1, 67.267, 250.896)"/>
</g>
<g fill="rgb(0%, 0%, 0%)" fill-opacity="1">
<use xlink:href="#glyph-1-1" x="213.714" y="271.966"/>
</g>
<g fill="rgb(0%, 0%, 0%)" fill-opacity="1">
<use xlink:href="#glyph-2-0" x="42.24" y="127.707"/>
</g>
<path fill-rule="nonzero" fill="rgb(100%, 100%, 100%)" fill-opacity="1" stroke-width="0.3985" stroke-linecap="butt" stroke-linejoin="miter" stroke="rgb(0%, 0%, 0%)" stroke-opacity="1" stroke-miterlimit="10" d="M 9.166594 213.040531 L 100.471281 213.040531 L 100.471281 243.876469 L 9.166594 243.876469 Z M 9.166594 213.040531 " transform="matrix(1, 0, 0, -1, 67.267, 250.896)"/>
<path fill="none" stroke-width="0.3985" stroke-linecap="butt" stroke-linejoin="miter" stroke="rgb(0%, 0%, 0%)" stroke-opacity="1" stroke-miterlimit="10" d="M -1.493906 -0.00084375 L 1.494375 -0.00084375 Z M 7.01 -0.00084375 L 9.998281 -0.00084375 Z M 15.513906 -0.00084375 L 18.502188 -0.00084375 Z M 15.513906 -0.00084375 " transform="matrix(1, 0, 0, -1, 81.115, 15.964)"/>
<g fill="rgb(0%, 0%, 0%)" fill-opacity="1">
<use xlink:href="#glyph-1-2" x="101.809" y="19.425"/>
</g>
<g fill="rgb(0%, 0%, 0%)" fill-opacity="1">
<use xlink:href="#glyph-3-0" x="110.09" y="20.92"/>
</g>
<g fill="rgb(0%, 0%, 0%)" fill-opacity="1">
<use xlink:href="#glyph-0-6" x="118.281" y="19.425"/>
</g>
<g fill="rgb(0%, 0%, 0%)" fill-opacity="1">
<use xlink:href="#glyph-4-0" x="128.797" y="11.953"/>
</g>
<g fill="rgb(0%, 0%, 0%)" fill-opacity="1">
<use xlink:href="#glyph-3-0" x="139.313" y="14.416"/>
</g>
<g fill="rgb(0%, 0%, 0%)" fill-opacity="1">
<use xlink:href="#glyph-3-1" x="139.313" y="22.414"/>
</g>
<g fill="rgb(0%, 0%, 0%)" fill-opacity="1">
<use xlink:href="#glyph-5-0" x="143.71556" y="22.414"/>
<use xlink:href="#glyph-5-1" x="149.831583" y="22.414"/>
</g>
<g fill="rgb(0%, 0%, 0%)" fill-opacity="1">
<use xlink:href="#glyph-5-1" x="157.374" y="15.503"/>
</g>
<path fill="none" stroke-width="0.398" stroke-linecap="butt" stroke-linejoin="miter" stroke="rgb(0%, 0%, 0%)" stroke-opacity="1" stroke-miterlimit="10" d="M -0.00175 0.00140625 L 4.4045 0.00140625 " transform="matrix(1, 0, 0, -1, 157.158, 16.935)"/>
<g fill="rgb(0%, 0%, 0%)" fill-opacity="1">
<use xlink:href="#glyph-3-1" x="157.158" y="22.861"/>
</g>
<path fill="none" stroke-width="0.3985" stroke-linecap="butt" stroke-linejoin="miter" stroke="rgb(0%, 0%, 0%)" stroke-opacity="1" stroke-miterlimit="10" d="M -0.00171875 0.00128125 C -0.00171875 0.00128125 6.142812 0.00128125 8.502187 0.00128125 C 10.865469 0.00128125 17.01 0.00128125 17.01 0.00128125 " transform="matrix(1, 0, 0, -1, 81.115, 29.388)"/>
<g fill="rgb(0%, 0%, 0%)" fill-opacity="1">
<use xlink:href="#glyph-0-7" x="121.267" y="32.377"/>
<use xlink:href="#glyph-0-8" x="124.03461" y="32.377"/>
<use xlink:href="#glyph-0-9" x="129.569831" y="32.377"/>
</g>
<g fill="rgb(0%, 0%, 0%)" fill-opacity="1">
<use xlink:href="#glyph-1-1" x="133.444286" y="32.377"/>
</g>
<g fill="rgb(0%, 0%, 0%)" fill-opacity="1">
<use xlink:href="#glyph-0-10" x="139.423839" y="32.377"/>
</g>
</svg>
