<?xml version="1.0" encoding="UTF-8"?>
<svg xmlns="http://www.w3.org/2000/svg" xmlns:xlink="http://www.w3.org/1999/xlink" width="223.342pt" height="211.443pt" viewBox="0 0 223.342 211.443">
<defs>
<g>
<g id="glyph-0-0">
<path d="M 4.578125 -3.1875 C 4.578125 -3.984375 4.53125 -4.78125 4.1875 -5.515625 C 3.734375 -6.484375 2.90625 -6.640625 2.5 -6.640625 C 1.890625 -6.640625 1.171875 -6.375 0.75 -5.453125 C 0.4375 -4.765625 0.390625 -3.984375 0.390625 -3.1875 C 0.390625 -2.4375 0.421875 -1.546875 0.84375 -0.78125 C 1.265625 0.015625 2 0.21875 2.484375 0.21875 C 3.015625 0.21875 3.78125 0.015625 4.21875 -0.9375 C 4.53125 -1.625 4.578125 -2.40625 4.578125 -3.1875 Z M 2.484375 0 C 2.09375 0 1.5 -0.25 1.328125 -1.203125 C 1.21875 -1.796875 1.21875 -2.71875 1.21875 -3.3125 C 1.21875 -3.953125 1.21875 -4.609375 1.296875 -5.140625 C 1.484375 -6.328125 2.234375 -6.421875 2.484375 -6.421875 C 2.8125 -6.421875 3.46875 -6.234375 3.65625 -5.25 C 3.765625 -4.6875 3.765625 -3.9375 3.765625 -3.3125 C 3.765625 -2.5625 3.765625 -1.890625 3.65625 -1.25 C 3.5 -0.296875 2.9375 0 2.484375 0 Z M 2.484375 0 "/>
</g>
<g id="glyph-0-1">
<path d="M 4.46875 -2 C 4.46875 -3.1875 3.65625 -4.1875 2.578125 -4.1875 C 2.109375 -4.1875 1.671875 -4.03125 1.3125 -3.671875 L 1.3125 -5.625 C 1.515625 -5.5625 1.84375 -5.5 2.15625 -5.5 C 3.390625 -5.5 4.09375 -6.40625 4.09375 -6.53125 C 4.09375 -6.59375 4.0625 -6.640625 3.984375 -6.640625 C 3.984375 -6.640625 3.953125 -6.640625 3.90625 -6.609375 C 3.703125 -6.515625 3.21875 -6.3125 2.546875 -6.3125 C 2.15625 -6.3125 1.6875 -6.390625 1.21875 -6.59375 C 1.140625 -6.625 1.125 -6.625 1.109375 -6.625 C 1 -6.625 1 -6.546875 1 -6.390625 L 1 -3.4375 C 1 -3.265625 1 -3.1875 1.140625 -3.1875 C 1.21875 -3.1875 1.234375 -3.203125 1.28125 -3.265625 C 1.390625 -3.421875 1.75 -3.96875 2.5625 -3.96875 C 3.078125 -3.96875 3.328125 -3.515625 3.40625 -3.328125 C 3.5625 -2.953125 3.59375 -2.578125 3.59375 -2.078125 C 3.59375 -1.71875 3.59375 -1.125 3.34375 -0.703125 C 3.109375 -0.3125 2.734375 -0.0625 2.28125 -0.0625 C 1.5625 -0.0625 0.984375 -0.59375 0.8125 -1.171875 C 0.84375 -1.171875 0.875 -1.15625 0.984375 -1.15625 C 1.3125 -1.15625 1.484375 -1.40625 1.484375 -1.640625 C 1.484375 -1.890625 1.3125 -2.140625 0.984375 -2.140625 C 0.84375 -2.140625 0.5 -2.0625 0.5 -1.609375 C 0.5 -0.75 1.1875 0.21875 2.296875 0.21875 C 3.453125 0.21875 4.46875 -0.734375 4.46875 -2 Z M 4.46875 -2 "/>
</g>
<g id="glyph-0-2">
<path d="M 2.9375 -6.375 C 2.9375 -6.625 2.9375 -6.640625 2.703125 -6.640625 C 2.078125 -6 1.203125 -6 0.890625 -6 L 0.890625 -5.6875 C 1.09375 -5.6875 1.671875 -5.6875 2.1875 -5.953125 L 2.1875 -0.78125 C 2.1875 -0.421875 2.15625 -0.3125 1.265625 -0.3125 L 0.953125 -0.3125 L 0.953125 0 C 1.296875 -0.03125 2.15625 -0.03125 2.5625 -0.03125 C 2.953125 -0.03125 3.828125 -0.03125 4.171875 0 L 4.171875 -0.3125 L 3.859375 -0.3125 C 2.953125 -0.3125 2.9375 -0.421875 2.9375 -0.78125 Z M 2.9375 -6.375 "/>
</g>
<g id="glyph-0-3">
<path d="M 1.265625 -0.765625 L 2.328125 -1.796875 C 3.875 -3.171875 4.46875 -3.703125 4.46875 -4.703125 C 4.46875 -5.84375 3.578125 -6.640625 2.359375 -6.640625 C 1.234375 -6.640625 0.5 -5.71875 0.5 -4.828125 C 0.5 -4.28125 1 -4.28125 1.03125 -4.28125 C 1.203125 -4.28125 1.546875 -4.390625 1.546875 -4.8125 C 1.546875 -5.0625 1.359375 -5.328125 1.015625 -5.328125 C 0.9375 -5.328125 0.921875 -5.328125 0.890625 -5.3125 C 1.109375 -5.96875 1.65625 -6.328125 2.234375 -6.328125 C 3.140625 -6.328125 3.5625 -5.515625 3.5625 -4.703125 C 3.5625 -3.90625 3.078125 -3.125 2.515625 -2.5 L 0.609375 -0.375 C 0.5 -0.265625 0.5 -0.234375 0.5 0 L 4.203125 0 L 4.46875 -1.734375 L 4.234375 -1.734375 C 4.171875 -1.4375 4.109375 -1 4 -0.84375 C 3.9375 -0.765625 3.28125 -0.765625 3.0625 -0.765625 Z M 1.265625 -0.765625 "/>
</g>
<g id="glyph-0-4">
<path d="M 2.890625 -3.515625 C 3.703125 -3.78125 4.28125 -4.46875 4.28125 -5.265625 C 4.28125 -6.078125 3.40625 -6.640625 2.453125 -6.640625 C 1.453125 -6.640625 0.6875 -6.046875 0.6875 -5.28125 C 0.6875 -4.953125 0.90625 -4.765625 1.203125 -4.765625 C 1.5 -4.765625 1.703125 -4.984375 1.703125 -5.28125 C 1.703125 -5.765625 1.234375 -5.765625 1.09375 -5.765625 C 1.390625 -6.265625 2.046875 -6.390625 2.40625 -6.390625 C 2.828125 -6.390625 3.375 -6.171875 3.375 -5.28125 C 3.375 -5.15625 3.34375 -4.578125 3.09375 -4.140625 C 2.796875 -3.65625 2.453125 -3.625 2.203125 -3.625 C 2.125 -3.609375 1.890625 -3.59375 1.8125 -3.59375 C 1.734375 -3.578125 1.671875 -3.5625 1.671875 -3.46875 C 1.671875 -3.359375 1.734375 -3.359375 1.90625 -3.359375 L 2.34375 -3.359375 C 3.15625 -3.359375 3.53125 -2.6875 3.53125 -1.703125 C 3.53125 -0.34375 2.84375 -0.0625 2.40625 -0.0625 C 1.96875 -0.0625 1.21875 -0.234375 0.875 -0.8125 C 1.21875 -0.765625 1.53125 -0.984375 1.53125 -1.359375 C 1.53125 -1.71875 1.265625 -1.921875 0.984375 -1.921875 C 0.734375 -1.921875 0.421875 -1.78125 0.421875 -1.34375 C 0.421875 -0.4375 1.34375 0.21875 2.4375 0.21875 C 3.65625 0.21875 4.5625 -0.6875 4.5625 -1.703125 C 4.5625 -2.515625 3.921875 -3.296875 2.890625 -3.515625 Z M 2.890625 -3.515625 "/>
</g>
<g id="glyph-0-5">
<path d="M 2.9375 -1.640625 L 2.9375 -0.78125 C 2.9375 -0.421875 2.90625 -0.3125 2.171875 -0.3125 L 1.96875 -0.3125 L 1.96875 0 C 2.375 -0.03125 2.890625 -0.03125 3.3125 -0.03125 C 3.734375 -0.03125 4.25 -0.03125 4.671875 0 L 4.671875 -0.3125 L 4.453125 -0.3125 C 3.71875 -0.3125 3.703125 -0.421875 3.703125 -0.78125 L 3.703125 -1.640625 L 4.6875 -1.640625 L 4.6875 -1.953125 L 3.703125 -1.953125 L 3.703125 -6.484375 C 3.703125 -6.6875 3.703125 -6.75 3.53125 -6.75 C 3.453125 -6.75 3.421875 -6.75 3.34375 -6.625 L 0.28125 -1.953125 L 0.28125 -1.640625 Z M 2.984375 -1.953125 L 0.5625 -1.953125 L 2.984375 -5.671875 Z M 2.984375 -1.953125 "/>
</g>
<g id="glyph-0-6">
<path d="M 6.84375 -3.265625 C 7 -3.265625 7.1875 -3.265625 7.1875 -3.453125 C 7.1875 -3.65625 7 -3.65625 6.859375 -3.65625 L 0.890625 -3.65625 C 0.75 -3.65625 0.5625 -3.65625 0.5625 -3.453125 C 0.5625 -3.265625 0.75 -3.265625 0.890625 -3.265625 Z M 6.859375 -1.328125 C 7 -1.328125 7.1875 -1.328125 7.1875 -1.53125 C 7.1875 -1.71875 7 -1.71875 6.84375 -1.71875 L 0.890625 -1.71875 C 0.75 -1.71875 0.5625 -1.71875 0.5625 -1.53125 C 0.5625 -1.328125 0.75 -1.328125 0.890625 -1.328125 Z M 6.859375 -1.328125 "/>
</g>
<g id="glyph-0-7">
<path d="M 1.765625 -6.921875 L 0.328125 -6.8125 L 0.328125 -6.5 C 1.03125 -6.5 1.109375 -6.4375 1.109375 -5.9375 L 1.109375 -0.75 C 1.109375 -0.3125 1 -0.3125 0.328125 -0.3125 L 0.328125 0 C 0.65625 -0.015625 1.1875 -0.03125 1.4375 -0.03125 C 1.6875 -0.03125 2.171875 -0.015625 2.546875 0 L 2.546875 -0.3125 C 1.875 -0.3125 1.765625 -0.3125 1.765625 -0.75 Z M 1.765625 -6.921875 "/>
</g>
<g id="glyph-0-8">
<path d="M 1.09375 -3.421875 L 1.09375 -0.75 C 1.09375 -0.3125 0.984375 -0.3125 0.3125 -0.3125 L 0.3125 0 C 0.671875 -0.015625 1.171875 -0.03125 1.453125 -0.03125 C 1.703125 -0.03125 2.21875 -0.015625 2.5625 0 L 2.5625 -0.3125 C 1.890625 -0.3125 1.78125 -0.3125 1.78125 -0.75 L 1.78125 -2.59375 C 1.78125 -3.625 2.5 -4.1875 3.125 -4.1875 C 3.765625 -4.1875 3.875 -3.65625 3.875 -3.078125 L 3.875 -0.75 C 3.875 -0.3125 3.765625 -0.3125 3.09375 -0.3125 L 3.09375 0 C 3.4375 -0.015625 3.953125 -0.03125 4.21875 -0.03125 C 4.46875 -0.03125 5 -0.015625 5.328125 0 L 5.328125 -0.3125 C 4.8125 -0.3125 4.5625 -0.3125 4.5625 -0.609375 L 4.5625 -2.515625 C 4.5625 -3.375 4.5625 -3.671875 4.25 -4.03125 C 4.109375 -4.203125 3.78125 -4.40625 3.203125 -4.40625 C 2.46875 -4.40625 2 -3.984375 1.71875 -3.359375 L 1.71875 -4.40625 L 0.3125 -4.296875 L 0.3125 -3.984375 C 1.015625 -3.984375 1.09375 -3.921875 1.09375 -3.421875 Z M 1.09375 -3.421875 "/>
</g>
<g id="glyph-0-9">
<path d="M 3.296875 2.390625 C 3.296875 2.359375 3.296875 2.34375 3.125 2.171875 C 1.890625 0.921875 1.5625 -0.96875 1.5625 -2.5 C 1.5625 -4.234375 1.9375 -5.96875 3.171875 -7.203125 C 3.296875 -7.328125 3.296875 -7.34375 3.296875 -7.375 C 3.296875 -7.453125 3.265625 -7.484375 3.203125 -7.484375 C 3.09375 -7.484375 2.203125 -6.796875 1.609375 -5.53125 C 1.109375 -4.4375 0.984375 -3.328125 0.984375 -2.5 C 0.984375 -1.71875 1.09375 -0.515625 1.640625 0.625 C 2.25 1.84375 3.09375 2.5 3.203125 2.5 C 3.265625 2.5 3.296875 2.46875 3.296875 2.390625 Z M 3.296875 2.390625 "/>
</g>
<g id="glyph-0-10">
<path d="M 2.875 -2.5 C 2.875 -3.265625 2.765625 -4.46875 2.21875 -5.609375 C 1.625 -6.828125 0.765625 -7.484375 0.671875 -7.484375 C 0.609375 -7.484375 0.5625 -7.4375 0.5625 -7.375 C 0.5625 -7.34375 0.5625 -7.328125 0.75 -7.140625 C 1.734375 -6.15625 2.296875 -4.578125 2.296875 -2.5 C 2.296875 -0.78125 1.9375 0.96875 0.703125 2.21875 C 0.5625 2.34375 0.5625 2.359375 0.5625 2.390625 C 0.5625 2.453125 0.609375 2.5 0.671875 2.5 C 0.765625 2.5 1.671875 1.8125 2.25 0.546875 C 2.765625 -0.546875 2.875 -1.65625 2.875 -2.5 Z M 2.875 -2.5 "/>
</g>
<g id="glyph-1-0">
<path d="M 0.875 -0.59375 C 0.84375 -0.4375 0.78125 -0.203125 0.78125 -0.15625 C 0.78125 0.015625 0.921875 0.109375 1.078125 0.109375 C 1.203125 0.109375 1.375 0.03125 1.453125 -0.171875 C 1.453125 -0.1875 1.578125 -0.65625 1.640625 -0.90625 L 1.859375 -1.796875 C 1.90625 -2.03125 1.96875 -2.25 2.03125 -2.46875 C 2.0625 -2.640625 2.140625 -2.9375 2.15625 -2.96875 C 2.296875 -3.28125 2.828125 -4.1875 3.78125 -4.1875 C 4.234375 -4.1875 4.3125 -3.8125 4.3125 -3.484375 C 4.3125 -2.875 3.828125 -1.59375 3.671875 -1.171875 C 3.578125 -0.9375 3.5625 -0.8125 3.5625 -0.703125 C 3.5625 -0.234375 3.921875 0.109375 4.390625 0.109375 C 5.328125 0.109375 5.6875 -1.34375 5.6875 -1.421875 C 5.6875 -1.53125 5.609375 -1.53125 5.578125 -1.53125 C 5.46875 -1.53125 5.46875 -1.5 5.421875 -1.34375 C 5.21875 -0.671875 4.890625 -0.109375 4.40625 -0.109375 C 4.234375 -0.109375 4.171875 -0.203125 4.171875 -0.4375 C 4.171875 -0.6875 4.25 -0.921875 4.34375 -1.140625 C 4.53125 -1.671875 4.953125 -2.765625 4.953125 -3.34375 C 4.953125 -4 4.53125 -4.40625 3.8125 -4.40625 C 2.90625 -4.40625 2.421875 -3.765625 2.25 -3.53125 C 2.203125 -4.09375 1.796875 -4.40625 1.328125 -4.40625 C 0.875 -4.40625 0.6875 -4.015625 0.59375 -3.84375 C 0.421875 -3.5 0.296875 -2.90625 0.296875 -2.875 C 0.296875 -2.765625 0.390625 -2.765625 0.40625 -2.765625 C 0.515625 -2.765625 0.515625 -2.78125 0.578125 -3 C 0.75 -3.703125 0.953125 -4.1875 1.3125 -4.1875 C 1.5 -4.1875 1.609375 -4.0625 1.609375 -3.734375 C 1.609375 -3.515625 1.578125 -3.40625 1.453125 -2.890625 Z M 0.875 -0.59375 "/>
</g>
<g id="glyph-1-1">
<path d="M 7.609375 -6.046875 C 7.703125 -6.40625 7.71875 -6.5 8.4375 -6.5 C 8.703125 -6.5 8.78125 -6.5 8.78125 -6.703125 C 8.78125 -6.8125 8.671875 -6.8125 8.640625 -6.8125 C 8.359375 -6.8125 7.640625 -6.78125 7.359375 -6.78125 C 7.078125 -6.78125 6.375 -6.8125 6.078125 -6.8125 C 6 -6.8125 5.890625 -6.8125 5.890625 -6.609375 C 5.890625 -6.5 5.984375 -6.5 6.171875 -6.5 C 6.1875 -6.5 6.375 -6.5 6.546875 -6.484375 C 6.734375 -6.453125 6.8125 -6.453125 6.8125 -6.3125 C 6.8125 -6.28125 6.8125 -6.265625 6.78125 -6.125 L 6.1875 -3.703125 L 3.140625 -3.703125 L 3.734375 -6.046875 C 3.8125 -6.40625 3.84375 -6.5 4.5625 -6.5 C 4.828125 -6.5 4.90625 -6.5 4.90625 -6.703125 C 4.90625 -6.8125 4.796875 -6.8125 4.765625 -6.8125 C 4.484375 -6.8125 3.765625 -6.78125 3.484375 -6.78125 C 3.203125 -6.78125 2.5 -6.8125 2.203125 -6.8125 C 2.125 -6.8125 2.015625 -6.8125 2.015625 -6.609375 C 2.015625 -6.5 2.109375 -6.5 2.296875 -6.5 C 2.3125 -6.5 2.5 -6.5 2.671875 -6.484375 C 2.84375 -6.453125 2.9375 -6.453125 2.9375 -6.3125 C 2.9375 -6.28125 2.9375 -6.25 2.90625 -6.125 L 1.5625 -0.78125 C 1.46875 -0.390625 1.453125 -0.3125 0.65625 -0.3125 C 0.484375 -0.3125 0.390625 -0.3125 0.390625 -0.109375 C 0.390625 0 0.515625 0 0.53125 0 C 0.8125 0 1.515625 -0.03125 1.796875 -0.03125 C 2 -0.03125 2.21875 -0.015625 2.4375 -0.015625 C 2.65625 -0.015625 2.875 0 3.078125 0 C 3.15625 0 3.28125 0 3.28125 -0.203125 C 3.28125 -0.3125 3.1875 -0.3125 3 -0.3125 C 2.625 -0.3125 2.359375 -0.3125 2.359375 -0.484375 C 2.359375 -0.546875 2.375 -0.59375 2.375 -0.65625 L 3.0625 -3.390625 L 6.09375 -3.390625 C 5.6875 -1.734375 5.453125 -0.78125 5.40625 -0.640625 C 5.3125 -0.3125 5.125 -0.3125 4.5 -0.3125 C 4.359375 -0.3125 4.265625 -0.3125 4.265625 -0.109375 C 4.265625 0 4.390625 0 4.40625 0 C 4.6875 0 5.390625 -0.03125 5.671875 -0.03125 C 5.875 -0.03125 6.09375 -0.015625 6.3125 -0.015625 C 6.53125 -0.015625 6.75 0 6.953125 0 C 7.03125 0 7.15625 0 7.15625 -0.203125 C 7.15625 -0.3125 7.0625 -0.3125 6.875 -0.3125 C 6.515625 -0.3125 6.234375 -0.3125 6.234375 -0.484375 C 6.234375 -0.546875 6.25 -0.59375 6.265625 -0.65625 Z M 7.609375 -6.046875 "/>
</g>
<g id="glyph-2-0">
<path d="M -3.796875 -4.84375 C -3.9375 -4.890625 -3.953125 -4.890625 -4.03125 -4.890625 C -4.203125 -4.890625 -4.296875 -4.75 -4.296875 -4.59375 C -4.296875 -4.5 -4.234375 -4.34375 -4.09375 -4.25 C -4.03125 -4.234375 -3.734375 -4.140625 -3.546875 -4.109375 C -3.296875 -4.03125 -3.015625 -3.96875 -2.75 -3.90625 L -0.953125 -3.453125 C -0.8125 -3.421875 -0.109375 -2.984375 -0.109375 -2.328125 C -0.109375 -1.828125 -0.546875 -1.71875 -0.921875 -1.71875 C -1.375 -1.71875 -2 -1.890625 -2.875 -2.21875 C -3.28125 -2.375 -3.390625 -2.421875 -3.59375 -2.421875 C -4.03125 -2.421875 -4.40625 -2.109375 -4.40625 -1.609375 C -4.40625 -0.65625 -2.953125 -0.296875 -2.875 -0.296875 C -2.765625 -0.296875 -2.765625 -0.390625 -2.765625 -0.40625 C -2.765625 -0.515625 -2.796875 -0.515625 -2.953125 -0.5625 C -3.890625 -0.84375 -4.1875 -1.234375 -4.1875 -1.578125 C -4.1875 -1.65625 -4.1875 -1.828125 -3.875 -1.828125 C -3.625 -1.828125 -3.359375 -1.71875 -3.171875 -1.65625 C -2.109375 -1.25 -1.546875 -1.078125 -1.078125 -1.078125 C -0.1875 -1.078125 0.109375 -1.703125 0.109375 -2.296875 C 0.109375 -2.6875 -0.0625 -3.015625 -0.34375 -3.296875 C 0.171875 -3.171875 0.671875 -3.046875 1.203125 -2.65625 C 1.53125 -2.390625 1.828125 -2.015625 1.828125 -1.5625 C 1.828125 -1.421875 1.796875 -0.96875 1.40625 -0.796875 C 1.40625 -0.953125 1.40625 -1.09375 1.28125 -1.21875 C 1.203125 -1.328125 1.0625 -1.421875 0.875 -1.421875 C 0.5625 -1.421875 0.53125 -1.15625 0.53125 -1.0625 C 0.53125 -0.828125 0.6875 -0.5 1.171875 -0.5 C 1.671875 -0.5 2.046875 -0.9375 2.046875 -1.5625 C 2.046875 -2.578125 1.140625 -3.609375 0.015625 -3.890625 Z M -3.796875 -4.84375 "/>
</g>
<g id="glyph-3-0">
<path d="M 0.84375 -0.4375 C 0.828125 -0.34375 0.78125 -0.171875 0.78125 -0.15625 C 0.78125 0 0.90625 0.0625 1.015625 0.0625 C 1.140625 0.0625 1.25 -0.015625 1.296875 -0.078125 C 1.328125 -0.140625 1.375 -0.375 1.421875 -0.515625 C 1.453125 -0.640625 1.53125 -0.96875 1.5625 -1.140625 C 1.609375 -1.296875 1.65625 -1.453125 1.6875 -1.609375 C 1.765625 -1.890625 1.78125 -1.953125 1.984375 -2.234375 C 2.171875 -2.515625 2.5 -2.875 3.03125 -2.875 C 3.421875 -2.875 3.4375 -2.515625 3.4375 -2.390625 C 3.4375 -1.96875 3.140625 -1.203125 3.03125 -0.90625 C 2.953125 -0.703125 2.921875 -0.640625 2.921875 -0.53125 C 2.921875 -0.15625 3.21875 0.0625 3.578125 0.0625 C 4.28125 0.0625 4.578125 -0.890625 4.578125 -1 C 4.578125 -1.09375 4.5 -1.09375 4.46875 -1.09375 C 4.375 -1.09375 4.375 -1.046875 4.34375 -0.96875 C 4.1875 -0.40625 3.875 -0.125 3.609375 -0.125 C 3.453125 -0.125 3.421875 -0.21875 3.421875 -0.375 C 3.421875 -0.53125 3.46875 -0.625 3.59375 -0.9375 C 3.671875 -1.15625 3.953125 -1.890625 3.953125 -2.28125 C 3.953125 -2.953125 3.421875 -3.078125 3.046875 -3.078125 C 2.46875 -3.078125 2.078125 -2.71875 1.875 -2.4375 C 1.828125 -2.921875 1.421875 -3.078125 1.125 -3.078125 C 0.828125 -3.078125 0.671875 -2.859375 0.578125 -2.703125 C 0.421875 -2.4375 0.328125 -2.046875 0.328125 -2 C 0.328125 -1.921875 0.421875 -1.921875 0.453125 -1.921875 C 0.546875 -1.921875 0.546875 -1.9375 0.59375 -2.125 C 0.703125 -2.53125 0.84375 -2.875 1.109375 -2.875 C 1.296875 -2.875 1.34375 -2.71875 1.34375 -2.53125 C 1.34375 -2.40625 1.28125 -2.140625 1.21875 -1.953125 C 1.171875 -1.765625 1.109375 -1.484375 1.078125 -1.328125 Z M 0.84375 -0.4375 "/>
</g>
<g id="glyph-3-1">
<path d="M 2.1875 -4.625 C 2.1875 -4.640625 2.203125 -4.734375 2.203125 -4.734375 C 2.203125 -4.78125 2.1875 -4.84375 2.09375 -4.84375 C 1.953125 -4.84375 1.375 -4.78125 1.203125 -4.765625 C 1.15625 -4.765625 1.046875 -4.75 1.046875 -4.609375 C 1.046875 -4.515625 1.15625 -4.515625 1.234375 -4.515625 C 1.5625 -4.515625 1.5625 -4.453125 1.5625 -4.40625 C 1.5625 -4.359375 1.546875 -4.3125 1.546875 -4.25 L 0.5625 -0.3125 C 0.515625 -0.1875 0.515625 -0.171875 0.515625 -0.15625 C 0.515625 -0.046875 0.609375 0.0625 0.765625 0.0625 C 0.953125 0.0625 1.03125 -0.0625 1.078125 -0.21875 C 1.09375 -0.25 1.390625 -1.484375 1.421875 -1.578125 C 1.921875 -1.53125 2.3125 -1.359375 2.3125 -1 C 2.3125 -0.96875 2.3125 -0.9375 2.296875 -0.859375 C 2.265625 -0.765625 2.265625 -0.71875 2.265625 -0.640625 C 2.265625 -0.15625 2.671875 0.0625 3.015625 0.0625 C 3.6875 0.0625 3.890625 -0.984375 3.890625 -1 C 3.890625 -1.09375 3.8125 -1.09375 3.78125 -1.09375 C 3.6875 -1.09375 3.671875 -1.046875 3.640625 -0.921875 C 3.5625 -0.625 3.375 -0.125 3.03125 -0.125 C 2.84375 -0.125 2.78125 -0.296875 2.78125 -0.484375 C 2.78125 -0.609375 2.78125 -0.625 2.828125 -0.796875 C 2.84375 -0.828125 2.859375 -0.9375 2.859375 -1.015625 C 2.859375 -1.640625 2.03125 -1.734375 1.734375 -1.75 C 1.9375 -1.875 2.1875 -2.109375 2.3125 -2.21875 C 2.671875 -2.546875 3.015625 -2.875 3.40625 -2.875 C 3.484375 -2.875 3.578125 -2.859375 3.640625 -2.78125 C 3.34375 -2.734375 3.28125 -2.5 3.28125 -2.390625 C 3.28125 -2.25 3.390625 -2.140625 3.546875 -2.140625 C 3.75 -2.140625 3.953125 -2.296875 3.953125 -2.578125 C 3.953125 -2.8125 3.78125 -3.078125 3.421875 -3.078125 C 3.015625 -3.078125 2.65625 -2.78125 2.296875 -2.453125 C 2 -2.1875 1.78125 -1.96875 1.484375 -1.84375 Z M 2.1875 -4.625 "/>
</g>
<g id="glyph-4-0">
<path d="M 4.203125 5.328125 L 0.65625 9.703125 C 0.578125 9.796875 0.5625 9.8125 0.5625 9.859375 C 0.5625 9.96875 0.65625 9.96875 0.84375 9.96875 L 9.09375 9.96875 L 9.953125 7.484375 L 9.703125 7.484375 C 9.453125 8.234375 8.796875 8.84375 7.9375 9.125 C 7.78125 9.1875 7.09375 9.421875 5.625 9.421875 L 1.390625 9.421875 L 4.859375 5.140625 C 4.921875 5.046875 4.9375 5.03125 4.9375 4.984375 C 4.9375 4.9375 4.9375 4.9375 4.875 4.84375 L 1.640625 0.40625 L 5.578125 0.40625 C 6.71875 0.40625 9.015625 0.46875 9.703125 2.328125 L 9.953125 2.328125 L 9.09375 0 L 0.84375 0 C 0.5625 0 0.5625 0.015625 0.5625 0.3125 Z M 4.203125 5.328125 "/>
</g>
<g id="glyph-5-0">
<path d="M 5.359375 -2.34375 C 5.453125 -2.34375 5.609375 -2.34375 5.609375 -2.515625 C 5.609375 -2.6875 5.453125 -2.6875 5.359375 -2.6875 L 0.75 -2.6875 C 0.65625 -2.6875 0.484375 -2.6875 0.484375 -2.515625 C 0.484375 -2.34375 0.640625 -2.34375 0.75 -2.34375 Z M 5.359375 -0.8125 C 5.453125 -0.8125 5.609375 -0.8125 5.609375 -0.96875 C 5.609375 -1.15625 5.453125 -1.15625 5.359375 -1.15625 L 0.75 -1.15625 C 0.640625 -1.15625 0.484375 -1.15625 0.484375 -0.96875 C 0.484375 -0.8125 0.65625 -0.8125 0.75 -0.8125 Z M 5.359375 -0.8125 "/>
</g>
<g id="glyph-5-1">
<path d="M 2.328125 -4.4375 C 2.328125 -4.625 2.328125 -4.625 2.125 -4.625 C 1.671875 -4.1875 1.046875 -4.1875 0.765625 -4.1875 L 0.765625 -3.9375 C 0.921875 -3.9375 1.390625 -3.9375 1.765625 -4.125 L 1.765625 -0.578125 C 1.765625 -0.34375 1.765625 -0.25 1.078125 -0.25 L 0.8125 -0.25 L 0.8125 0 C 0.9375 0 1.796875 -0.03125 2.046875 -0.03125 C 2.265625 -0.03125 3.140625 0 3.296875 0 L 3.296875 -0.25 L 3.03125 -0.25 C 2.328125 -0.25 2.328125 -0.34375 2.328125 -0.578125 Z M 2.328125 -4.4375 "/>
</g>
</g>
<clipPath id="clip-0">
<path clip-rule="nonzero" d="M 51 0 L 223.34375 0 L 223.34375 161 L 51 161 Z M 51 0 "/>
</clipPath>
<clipPath id="clip-1">
<path clip-rule="nonzero" d="M 55 9 L 223.34375 9 L 223.34375 126 L 55 126 Z M 55 9 "/>
</clipPath>
<clipPath id="clip-2">
<path clip-rule="nonzero" d="M 55 34 L 223.34375 34 L 223.34375 160.671875 L 55 160.671875 Z M 55 34 "/>
</clipPath>
<clipPath id="clip-3">
<path clip-rule="nonzero" d="M 210 12 L 223.34375 12 L 223.34375 28 L 210 28 Z M 210 12 "/>
</clipPath>
<clipPath id="clip-4">
<path clip-rule="nonzero" d="M 219 9 L 223.34375 9 L 223.34375 26 L 219 26 Z M 219 9 "/>
</clipPath>
</defs>
<g clip-path="url(#clip-0)">
<path fill="none" stroke-width="0.3985" stroke-linecap="butt" stroke-linejoin="miter" stroke="rgb(75%, 75%, 75%)" stroke-opacity="1" stroke-miterlimit="10" d="M -0.00046875 -0.001875 L -0.00046875 161.396562 M 46.253438 -0.001875 L 46.253438 161.396562 M 92.51125 -0.001875 L 92.51125 161.396562 M 138.765156 -0.001875 L 138.765156 161.396562 M 185.019063 -0.001875 L 185.019063 161.396562 " transform="matrix(1, 0, 0, -1, 51.77, 160.67)"/>
<path fill="none" stroke-width="0.3985" stroke-linecap="butt" stroke-linejoin="miter" stroke="rgb(75%, 75%, 75%)" stroke-opacity="1" stroke-miterlimit="10" d="M -0.00046875 -0.001875 L 194.272969 -0.001875 M -0.00046875 40.349687 L 194.272969 40.349687 M -0.00046875 80.697344 L 194.272969 80.697344 M -0.00046875 121.048906 L 194.272969 121.048906 M -0.00046875 161.396562 L 194.272969 161.396562 " transform="matrix(1, 0, 0, -1, 51.77, 160.67)"/>
<path fill="none" stroke-width="0.19925" stroke-linecap="butt" stroke-linejoin="miter" stroke="rgb(50%, 50%, 50%)" stroke-opacity="1" stroke-miterlimit="10" d="M -0.00046875 -0.001875 L -0.00046875 4.252031 M 46.253438 -0.001875 L 46.253438 4.252031 M 92.51125 -0.001875 L 92.51125 4.252031 M 138.765156 -0.001875 L 138.765156 4.252031 M 185.019063 -0.001875 L 185.019063 4.252031 M -0.00046875 161.396562 L -0.00046875 157.142656 M 46.253438 161.396562 L 46.253438 157.142656 M 92.51125 161.396562 L 92.51125 157.142656 M 138.765156 161.396562 L 138.765156 157.142656 M 185.019063 161.396562 L 185.019063 157.142656 " transform="matrix(1, 0, 0, -1, 51.77, 160.67)"/>
<path fill="none" stroke-width="0.19925" stroke-linecap="butt" stroke-linejoin="miter" stroke="rgb(50%, 50%, 50%)" stroke-opacity="1" stroke-miterlimit="10" d="M -0.00046875 -0.001875 L 4.253438 -0.001875 M -0.00046875 40.349687 L 4.253438 40.349687 M -0.00046875 80.697344 L 4.253438 80.697344 M -0.00046875 121.048906 L 4.253438 121.048906 M -0.00046875 161.396562 L 4.253438 161.396562 M 194.272969 -0.001875 L 190.019063 -0.001875 M 194.272969 40.349687 L 190.019063 40.349687 M 194.272969 80.697344 L 190.019063 80.697344 M 194.272969 121.048906 L 190.019063 121.048906 M 194.272969 161.396562 L 190.019063 161.396562 " transform="matrix(1, 0, 0, -1, 51.77, 160.67)"/>
<path fill="none" stroke-width="0.3985" stroke-linecap="butt" stroke-linejoin="miter" stroke="rgb(0%, 0%, 0%)" stroke-opacity="1" stroke-miterlimit="10" d="M -0.00046875 -0.001875 L -0.00046875 161.396562 L 194.272969 161.396562 L 194.272969 -0.001875 Z M -0.00046875 -0.001875 " transform="matrix(1, 0, 0, -1, 51.77, 160.67)"/>
</g>
<g fill="rgb(0%, 0%, 0%)" fill-opacity="1">
<use xlink:href="#glyph-0-0" x="49.279" y="170.61"/>
</g>
<g fill="rgb(0%, 0%, 0%)" fill-opacity="1">
<use xlink:href="#glyph-0-1" x="95.533" y="170.61"/>
</g>
<g fill="rgb(0%, 0%, 0%)" fill-opacity="1">
<use xlink:href="#glyph-0-2" x="139.297" y="170.61"/>
<use xlink:href="#glyph-0-0" x="144.2783" y="170.61"/>
</g>
<g fill="rgb(0%, 0%, 0%)" fill-opacity="1">
<use xlink:href="#glyph-0-2" x="185.552" y="170.61"/>
<use xlink:href="#glyph-0-1" x="190.5333" y="170.61"/>
</g>
<g fill="rgb(0%, 0%, 0%)" fill-opacity="1">
<use xlink:href="#glyph-0-0" x="43.268" y="163.88"/>
</g>
<g fill="rgb(0%, 0%, 0%)" fill-opacity="1">
<use xlink:href="#glyph-0-2" x="43.268" y="123.531"/>
</g>
<g fill="rgb(0%, 0%, 0%)" fill-opacity="1">
<use xlink:href="#glyph-0-3" x="43.268" y="83.183"/>
</g>
<g fill="rgb(0%, 0%, 0%)" fill-opacity="1">
<use xlink:href="#glyph-0-4" x="43.268" y="42.834"/>
</g>
<g fill="rgb(0%, 0%, 0%)" fill-opacity="1">
<use xlink:href="#glyph-0-5" x="43.268" y="2.486"/>
</g>
<g clip-path="url(#clip-1)">
<path fill="none" stroke-width="0.3985" stroke-linecap="butt" stroke-linejoin="miter" stroke="rgb(0%, 0%, 100%)" stroke-opacity="1" stroke-miterlimit="10" d="M 9.249531 40.349687 L 18.503438 60.525469 L 27.753438 73.974687 L 37.003438 84.060625 L 46.253438 92.130937 L 55.507344 98.853594 L 64.757344 104.619219 L 74.007344 109.662187 L 83.257344 114.146562 L 92.51125 118.181719 L 101.76125 121.849687 L 111.01125 125.212969 L 120.26125 128.314531 L 129.515156 131.197344 L 138.765156 133.88875 L 148.015156 136.408281 L 157.269063 138.783281 L 166.519063 141.025469 L 175.769063 143.146562 L 185.019063 145.166094 " transform="matrix(1, 0, 0, -1, 51.77, 160.67)"/>
</g>
<g clip-path="url(#clip-2)">
<path fill="none" stroke-width="0.3985" stroke-linecap="butt" stroke-linejoin="miter" stroke="rgb(100%, 0%, 0%)" stroke-opacity="1" stroke-miterlimit="10" d="M 9.249531 -0.001875 C 9.249531 -0.001875 10.534688 5.26375 11.026875 7.084062 C 11.519063 8.900469 12.308125 11.541094 12.800313 13.103594 C 13.2925 14.67 14.085469 16.974687 14.577656 18.345781 C 15.069844 19.716875 15.858906 21.76375 16.351094 22.9825 C 16.843281 24.205156 17.63625 26.041094 18.128438 27.13875 C 18.620625 28.240312 19.409688 29.908281 19.901875 30.912187 C 20.394063 31.912187 21.187031 33.439531 21.679219 34.361406 C 22.171406 35.279375 22.960469 36.685625 23.452656 37.537187 C 23.944844 38.384844 24.737813 39.689531 25.23 40.478594 C 25.722188 41.267656 26.51125 42.486406 27.003438 43.224687 C 27.495625 43.959062 28.288594 45.103594 28.780781 45.791094 C 29.272969 46.4825 30.062031 47.552812 30.554219 48.205156 C 31.046406 48.8575 31.839375 49.869219 32.331563 50.486406 C 32.82375 51.103594 33.612813 52.056719 34.105 52.63875 C 34.597188 53.224687 35.390156 54.127031 35.882344 54.685625 C 36.374531 55.240312 37.163594 56.111406 37.655781 56.63875 C 38.147969 57.17 38.940938 57.994219 39.433125 58.498125 C 39.925313 59.002031 40.714375 59.795 41.206563 60.275469 C 41.69875 60.759844 42.491719 61.51375 42.983906 61.978594 C 43.476094 62.439531 44.265156 63.166094 44.757344 63.611406 C 45.249531 64.056719 46.0425 64.752031 46.534688 65.181719 C 47.026875 65.6075 47.815938 66.279375 48.308125 66.689531 C 48.800313 67.103594 49.593281 67.748125 50.085469 68.146562 C 50.577656 68.545 51.366719 69.17 51.858906 69.552812 C 52.351094 69.935625 53.144063 70.541094 53.63625 70.912187 C 54.128438 71.279375 54.9175 71.865312 55.409688 72.224687 C 55.901875 72.580156 56.694844 73.146562 57.187031 73.494219 C 57.679219 73.841875 58.468281 74.392656 58.960469 74.7325 C 59.452656 75.068437 60.245625 75.599687 60.737813 75.927812 C 61.23 76.255937 62.019063 76.771562 62.51125 77.087969 C 63.003438 77.408281 63.796406 77.912187 64.288594 78.220781 C 64.780781 78.529375 65.569844 79.01375 66.062031 79.318437 C 66.554219 79.619219 67.347188 80.095781 67.839375 80.38875 C 68.331563 80.681719 69.120625 81.146562 69.612813 81.427812 C 70.105 81.712969 70.894063 82.166094 71.390156 82.443437 C 71.882344 82.720781 72.671406 83.162187 73.163594 83.431719 C 73.655781 83.705156 74.444844 84.142656 74.940938 84.408281 C 75.433125 84.673906 76.222188 85.091875 76.714375 85.353594 C 77.206563 85.611406 77.995625 86.021562 78.491719 86.275469 C 78.983906 86.529375 79.772969 86.931719 80.265156 87.177812 C 80.757344 87.423906 81.546406 87.818437 82.0425 88.060625 C 82.534688 88.302812 83.32375 88.685625 83.815938 88.923906 C 84.308125 89.162187 85.097188 89.537187 85.593281 89.771562 C 86.085469 90.002031 86.874531 90.373125 87.366719 90.599687 C 87.858906 90.82625 88.647969 91.185625 89.144063 91.408281 C 89.63625 91.630937 90.425313 91.986406 90.9175 92.205156 C 91.409688 92.423906 92.19875 92.771562 92.694844 92.986406 C 93.187031 93.20125 93.976094 93.541094 94.468281 93.752031 C 94.960469 93.962969 95.749531 94.295 96.245625 94.502031 C 96.737813 94.709062 97.526875 95.037187 98.019063 95.240312 C 98.51125 95.443437 99.300313 95.76375 99.7925 95.962969 C 100.288594 96.162187 101.077656 96.478594 101.569844 96.673906 C 102.062031 96.873125 102.851094 97.181719 103.343281 97.377031 C 103.839375 97.568437 104.628438 97.873125 105.120625 98.060625 C 105.612813 98.252031 106.401875 98.552812 106.894063 98.736406 C 107.390156 98.923906 108.179219 99.220781 108.671406 99.404375 C 109.163594 99.587969 109.952656 99.877031 110.444844 100.056719 C 110.940938 100.236406 111.73 100.521562 112.222188 100.70125 C 112.714375 100.877031 113.503438 101.158281 113.995625 101.334062 C 114.491719 101.505937 115.280781 101.787187 115.772969 101.959062 C 116.265156 102.130937 117.054219 102.400469 117.546406 102.572344 C 118.0425 102.740312 118.831563 103.009844 119.32375 103.173906 C 119.815938 103.341875 120.605 103.6075 121.097188 103.771562 C 121.593281 103.935625 122.382344 104.197344 122.874531 104.3575 C 123.366719 104.521562 124.155781 104.779375 124.647969 104.939531 C 125.144063 105.095781 125.933125 105.353594 126.425313 105.509844 C 126.9175 105.666094 127.706563 105.916094 128.19875 106.072344 C 128.690938 106.224687 129.483906 106.474687 129.976094 106.627031 C 130.468281 106.779375 131.257344 107.021562 131.749531 107.173906 C 132.241719 107.322344 133.034688 107.564531 133.526875 107.712969 C 134.019063 107.861406 134.808125 108.099687 135.300313 108.244219 C 135.7925 108.392656 136.585469 108.627031 137.077656 108.771562 C 137.569844 108.916094 138.358906 109.146562 138.851094 109.291094 C 139.343281 109.435625 140.13625 109.662187 140.628438 109.802812 C 141.120625 109.943437 141.909688 110.17 142.401875 110.310625 C 142.894063 110.447344 143.687031 110.67 144.179219 110.806719 C 144.671406 110.947344 145.460469 111.166094 145.952656 111.302812 C 146.444844 111.439531 147.237813 111.658281 147.73 111.791094 C 148.222188 111.927812 149.01125 112.13875 149.503438 112.271562 C 149.995625 112.404375 150.788594 112.619219 151.280781 112.752031 C 151.772969 112.880937 152.562031 113.087969 153.054219 113.220781 C 153.546406 113.349687 154.339375 113.556719 154.831563 113.685625 C 155.32375 113.814531 156.112813 114.017656 156.605 114.146562 C 157.097188 114.271562 157.890156 114.474687 158.382344 114.599687 C 158.874531 114.724687 159.663594 114.923906 160.155781 115.048906 C 160.647969 115.173906 161.440938 115.369219 161.933125 115.494219 C 162.425313 115.615312 163.214375 115.810625 163.706563 115.931719 C 164.19875 116.052812 164.991719 116.244219 165.483906 116.365312 C 165.976094 116.486406 166.765156 116.677812 167.257344 116.795 C 167.749531 116.916094 168.5425 117.1075 169.034688 117.224687 C 169.526875 117.345781 170.315938 117.533281 170.808125 117.650469 C 171.300313 117.76375 172.093281 117.947344 172.585469 118.064531 C 173.077656 118.177812 173.866719 118.361406 174.358906 118.474687 C 174.851094 118.587969 175.644063 118.771562 176.13625 118.884844 C 176.628438 118.998125 177.4175 119.173906 177.909688 119.287187 C 178.401875 119.396562 179.194844 119.57625 179.687031 119.689531 C 180.179219 119.798906 180.968281 119.974687 181.460469 120.087969 C 181.952656 120.197344 182.745625 120.369219 183.237813 120.478594 C 183.73 120.587969 185.01125 120.865312 185.01125 120.865312 " transform="matrix(1, 0, 0, -1, 51.77, 160.67)"/>
</g>
<path fill-rule="nonzero" fill="rgb(0%, 0%, 100%)" fill-opacity="1" stroke-width="0.3985" stroke-linecap="butt" stroke-linejoin="miter" stroke="rgb(0%, 0%, 100%)" stroke-opacity="1" stroke-miterlimit="10" d="M 11.241719 40.349687 C 11.241719 41.45125 10.351094 42.341875 9.249531 42.341875 C 8.151875 42.341875 7.257344 41.45125 7.257344 40.349687 C 7.257344 39.248125 8.151875 38.3575 9.249531 38.3575 C 10.351094 38.3575 11.241719 39.248125 11.241719 40.349687 Z M 11.241719 40.349687 " transform="matrix(1, 0, 0, -1, 51.77, 160.67)"/>
<path fill-rule="nonzero" fill="rgb(0%, 0%, 100%)" fill-opacity="1" stroke-width="0.3985" stroke-linecap="butt" stroke-linejoin="miter" stroke="rgb(0%, 0%, 100%)" stroke-opacity="1" stroke-miterlimit="10" d="M 20.495625 60.525469 C 20.495625 61.623125 19.601094 62.517656 18.503438 62.517656 C 17.401875 62.517656 16.51125 61.623125 16.51125 60.525469 C 16.51125 59.423906 17.401875 58.529375 18.503438 58.529375 C 19.601094 58.529375 20.495625 59.423906 20.495625 60.525469 Z M 20.495625 60.525469 " transform="matrix(1, 0, 0, -1, 51.77, 160.67)"/>
<path fill-rule="nonzero" fill="rgb(0%, 0%, 100%)" fill-opacity="1" stroke-width="0.3985" stroke-linecap="butt" stroke-linejoin="miter" stroke="rgb(0%, 0%, 100%)" stroke-opacity="1" stroke-miterlimit="10" d="M 29.745625 73.974687 C 29.745625 75.072344 28.855 75.966875 27.753438 75.966875 C 26.651875 75.966875 25.76125 75.072344 25.76125 73.974687 C 25.76125 72.873125 26.651875 71.9825 27.753438 71.9825 C 28.855 71.9825 29.745625 72.873125 29.745625 73.974687 Z M 29.745625 73.974687 " transform="matrix(1, 0, 0, -1, 51.77, 160.67)"/>
<path fill-rule="nonzero" fill="rgb(0%, 0%, 100%)" fill-opacity="1" stroke-width="0.3985" stroke-linecap="butt" stroke-linejoin="miter" stroke="rgb(0%, 0%, 100%)" stroke-opacity="1" stroke-miterlimit="10" d="M 38.995625 84.060625 C 38.995625 85.162187 38.105 86.052812 37.003438 86.052812 C 35.901875 86.052812 35.01125 85.162187 35.01125 84.060625 C 35.01125 82.959062 35.901875 82.068437 37.003438 82.068437 C 38.105 82.068437 38.995625 82.959062 38.995625 84.060625 Z M 38.995625 84.060625 " transform="matrix(1, 0, 0, -1, 51.77, 160.67)"/>
<path fill-rule="nonzero" fill="rgb(0%, 0%, 100%)" fill-opacity="1" stroke-width="0.3985" stroke-linecap="butt" stroke-linejoin="miter" stroke="rgb(0%, 0%, 100%)" stroke-opacity="1" stroke-miterlimit="10" d="M 48.249531 92.130937 C 48.249531 93.2325 47.355 94.123125 46.253438 94.123125 C 45.155781 94.123125 44.26125 93.2325 44.26125 92.130937 C 44.26125 91.029375 45.155781 90.13875 46.253438 90.13875 C 47.355 90.13875 48.249531 91.029375 48.249531 92.130937 Z M 48.249531 92.130937 " transform="matrix(1, 0, 0, -1, 51.77, 160.67)"/>
<path fill-rule="nonzero" fill="rgb(0%, 0%, 100%)" fill-opacity="1" stroke-width="0.3985" stroke-linecap="butt" stroke-linejoin="miter" stroke="rgb(0%, 0%, 100%)" stroke-opacity="1" stroke-miterlimit="10" d="M 57.499531 98.853594 C 57.499531 99.955156 56.605 100.849687 55.507344 100.849687 C 54.405781 100.849687 53.515156 99.955156 53.515156 98.853594 C 53.515156 97.755937 54.405781 96.861406 55.507344 96.861406 C 56.605 96.861406 57.499531 97.755937 57.499531 98.853594 Z M 57.499531 98.853594 " transform="matrix(1, 0, 0, -1, 51.77, 160.67)"/>
<path fill-rule="nonzero" fill="rgb(0%, 0%, 100%)" fill-opacity="1" stroke-width="0.3985" stroke-linecap="butt" stroke-linejoin="miter" stroke="rgb(0%, 0%, 100%)" stroke-opacity="1" stroke-miterlimit="10" d="M 66.749531 104.619219 C 66.749531 105.720781 65.858906 106.611406 64.757344 106.611406 C 63.655781 106.611406 62.765156 105.720781 62.765156 104.619219 C 62.765156 103.517656 63.655781 102.627031 64.757344 102.627031 C 65.858906 102.627031 66.749531 103.517656 66.749531 104.619219 Z M 66.749531 104.619219 " transform="matrix(1, 0, 0, -1, 51.77, 160.67)"/>
<path fill-rule="nonzero" fill="rgb(0%, 0%, 100%)" fill-opacity="1" stroke-width="0.3985" stroke-linecap="butt" stroke-linejoin="miter" stroke="rgb(0%, 0%, 100%)" stroke-opacity="1" stroke-miterlimit="10" d="M 75.999531 109.662187 C 75.999531 110.76375 75.108906 111.654375 74.007344 111.654375 C 72.905781 111.654375 72.015156 110.76375 72.015156 109.662187 C 72.015156 108.564531 72.905781 107.67 74.007344 107.67 C 75.108906 107.67 75.999531 108.564531 75.999531 109.662187 Z M 75.999531 109.662187 " transform="matrix(1, 0, 0, -1, 51.77, 160.67)"/>
<path fill-rule="nonzero" fill="rgb(0%, 0%, 100%)" fill-opacity="1" stroke-width="0.3985" stroke-linecap="butt" stroke-linejoin="miter" stroke="rgb(0%, 0%, 100%)" stroke-opacity="1" stroke-miterlimit="10" d="M 85.253438 114.146562 C 85.253438 115.248125 84.358906 116.13875 83.257344 116.13875 C 82.159688 116.13875 81.265156 115.248125 81.265156 114.146562 C 81.265156 113.045 82.159688 112.154375 83.257344 112.154375 C 84.358906 112.154375 85.253438 113.045 85.253438 114.146562 Z M 85.253438 114.146562 " transform="matrix(1, 0, 0, -1, 51.77, 160.67)"/>
<path fill-rule="nonzero" fill="rgb(0%, 0%, 100%)" fill-opacity="1" stroke-width="0.3985" stroke-linecap="butt" stroke-linejoin="miter" stroke="rgb(0%, 0%, 100%)" stroke-opacity="1" stroke-miterlimit="10" d="M 94.503438 118.181719 C 94.503438 119.283281 93.608906 120.173906 92.51125 120.173906 C 91.409688 120.173906 90.519063 119.283281 90.519063 118.181719 C 90.519063 117.080156 91.409688 116.189531 92.51125 116.189531 C 93.608906 116.189531 94.503438 117.080156 94.503438 118.181719 Z M 94.503438 118.181719 " transform="matrix(1, 0, 0, -1, 51.77, 160.67)"/>
<path fill-rule="nonzero" fill="rgb(0%, 0%, 100%)" fill-opacity="1" stroke-width="0.3985" stroke-linecap="butt" stroke-linejoin="miter" stroke="rgb(0%, 0%, 100%)" stroke-opacity="1" stroke-miterlimit="10" d="M 103.753438 121.849687 C 103.753438 122.95125 102.862813 123.841875 101.76125 123.841875 C 100.659688 123.841875 99.769063 122.95125 99.769063 121.849687 C 99.769063 120.748125 100.659688 119.8575 101.76125 119.8575 C 102.862813 119.8575 103.753438 120.748125 103.753438 121.849687 Z M 103.753438 121.849687 " transform="matrix(1, 0, 0, -1, 51.77, 160.67)"/>
<path fill-rule="nonzero" fill="rgb(0%, 0%, 100%)" fill-opacity="1" stroke-width="0.3985" stroke-linecap="butt" stroke-linejoin="miter" stroke="rgb(0%, 0%, 100%)" stroke-opacity="1" stroke-miterlimit="10" d="M 113.003438 125.212969 C 113.003438 126.310625 112.112813 127.205156 111.01125 127.205156 C 109.913594 127.205156 109.019063 126.310625 109.019063 125.212969 C 109.019063 124.111406 109.913594 123.220781 111.01125 123.220781 C 112.112813 123.220781 113.003438 124.111406 113.003438 125.212969 Z M 113.003438 125.212969 " transform="matrix(1, 0, 0, -1, 51.77, 160.67)"/>
<path fill-rule="nonzero" fill="rgb(0%, 0%, 100%)" fill-opacity="1" stroke-width="0.3985" stroke-linecap="butt" stroke-linejoin="miter" stroke="rgb(0%, 0%, 100%)" stroke-opacity="1" stroke-miterlimit="10" d="M 122.257344 128.314531 C 122.257344 129.416094 121.362813 130.306719 120.26125 130.306719 C 119.163594 130.306719 118.269063 129.416094 118.269063 128.314531 C 118.269063 127.216875 119.163594 126.322344 120.26125 126.322344 C 121.362813 126.322344 122.257344 127.216875 122.257344 128.314531 Z M 122.257344 128.314531 " transform="matrix(1, 0, 0, -1, 51.77, 160.67)"/>
<path fill-rule="nonzero" fill="rgb(0%, 0%, 100%)" fill-opacity="1" stroke-width="0.3985" stroke-linecap="butt" stroke-linejoin="miter" stroke="rgb(0%, 0%, 100%)" stroke-opacity="1" stroke-miterlimit="10" d="M 131.507344 131.197344 C 131.507344 132.298906 130.612813 133.189531 129.515156 133.189531 C 128.413594 133.189531 127.522969 132.298906 127.522969 131.197344 C 127.522969 130.095781 128.413594 129.205156 129.515156 129.205156 C 130.612813 129.205156 131.507344 130.095781 131.507344 131.197344 Z M 131.507344 131.197344 " transform="matrix(1, 0, 0, -1, 51.77, 160.67)"/>
<path fill-rule="nonzero" fill="rgb(0%, 0%, 100%)" fill-opacity="1" stroke-width="0.3985" stroke-linecap="butt" stroke-linejoin="miter" stroke="rgb(0%, 0%, 100%)" stroke-opacity="1" stroke-miterlimit="10" d="M 140.757344 133.88875 C 140.757344 134.986406 139.866719 135.880937 138.765156 135.880937 C 137.663594 135.880937 136.772969 134.986406 136.772969 133.88875 C 136.772969 132.787187 137.663594 131.896562 138.765156 131.896562 C 139.866719 131.896562 140.757344 132.787187 140.757344 133.88875 Z M 140.757344 133.88875 " transform="matrix(1, 0, 0, -1, 51.77, 160.67)"/>
<path fill-rule="nonzero" fill="rgb(0%, 0%, 100%)" fill-opacity="1" stroke-width="0.3985" stroke-linecap="butt" stroke-linejoin="miter" stroke="rgb(0%, 0%, 100%)" stroke-opacity="1" stroke-miterlimit="10" d="M 150.007344 136.408281 C 150.007344 137.509844 149.116719 138.400469 148.015156 138.400469 C 146.9175 138.400469 146.022969 137.509844 146.022969 136.408281 C 146.022969 135.310625 146.9175 134.416094 148.015156 134.416094 C 149.116719 134.416094 150.007344 135.310625 150.007344 136.408281 Z M 150.007344 136.408281 " transform="matrix(1, 0, 0, -1, 51.77, 160.67)"/>
<path fill-rule="nonzero" fill="rgb(0%, 0%, 100%)" fill-opacity="1" stroke-width="0.3985" stroke-linecap="butt" stroke-linejoin="miter" stroke="rgb(0%, 0%, 100%)" stroke-opacity="1" stroke-miterlimit="10" d="M 159.26125 138.783281 C 159.26125 139.884844 158.366719 140.775469 157.269063 140.775469 C 156.1675 140.775469 155.272969 139.884844 155.272969 138.783281 C 155.272969 137.681719 156.1675 136.791094 157.269063 136.791094 C 158.366719 136.791094 159.26125 137.681719 159.26125 138.783281 Z M 159.26125 138.783281 " transform="matrix(1, 0, 0, -1, 51.77, 160.67)"/>
<path fill-rule="nonzero" fill="rgb(0%, 0%, 100%)" fill-opacity="1" d="M 220.28125 19.644531 C 220.28125 18.546875 219.390625 17.652344 218.289062 17.652344 C 217.1875 17.652344 216.296875 18.546875 216.296875 19.644531 C 216.296875 20.746094 217.1875 21.636719 218.289062 21.636719 C 219.390625 21.636719 220.28125 20.746094 220.28125 19.644531 Z M 220.28125 19.644531 "/>
<g clip-path="url(#clip-3)">
<path fill="none" stroke-width="0.3985" stroke-linecap="butt" stroke-linejoin="miter" stroke="rgb(0%, 0%, 100%)" stroke-opacity="1" stroke-miterlimit="10" d="M 168.51125 141.025469 C 168.51125 142.123125 167.620625 143.017656 166.519063 143.017656 C 165.4175 143.017656 164.526875 142.123125 164.526875 141.025469 C 164.526875 139.923906 165.4175 139.033281 166.519063 139.033281 C 167.620625 139.033281 168.51125 139.923906 168.51125 141.025469 Z M 168.51125 141.025469 " transform="matrix(1, 0, 0, -1, 51.77, 160.67)"/>
</g>
<g clip-path="url(#clip-4)">
<path fill="none" stroke-width="0.3985" stroke-linecap="butt" stroke-linejoin="miter" stroke="rgb(0%, 0%, 100%)" stroke-opacity="1" stroke-miterlimit="10" d="M 177.76125 143.146562 C 177.76125 144.248125 176.870625 145.13875 175.769063 145.13875 C 174.6675 145.13875 173.776875 144.248125 173.776875 143.146562 C 173.776875 142.048906 174.6675 141.154375 175.769063 141.154375 C 176.870625 141.154375 177.76125 142.048906 177.76125 143.146562 Z M 177.76125 143.146562 " transform="matrix(1, 0, 0, -1, 51.77, 160.67)"/>
</g>
<g fill="rgb(0%, 0%, 0%)" fill-opacity="1">
<use xlink:href="#glyph-1-0" x="145.914" y="181.74"/>
</g>
<g fill="rgb(0%, 0%, 0%)" fill-opacity="1">
<use xlink:href="#glyph-2-0" x="34.491" y="82.594"/>
</g>
<path fill-rule="nonzero" fill="rgb(100%, 100%, 100%)" fill-opacity="1" stroke-width="0.3985" stroke-linecap="butt" stroke-linejoin="miter" stroke="rgb(0%, 0%, 0%)" stroke-opacity="1" stroke-miterlimit="10" d="M 6.026875 125.521562 L 94.347188 125.521562 L 94.347188 156.353594 L 6.026875 156.353594 Z M 6.026875 125.521562 " transform="matrix(1, 0, 0, -1, 51.77, 160.67)"/>
<path fill="none" stroke-width="0.3985" stroke-linecap="butt" stroke-linejoin="miter" stroke="rgb(0%, 0%, 100%)" stroke-opacity="1" stroke-miterlimit="10" d="M -0.000625 -0.0008125 L 17.007188 -0.0008125 " transform="matrix(1, 0, 0, -1, 60.985, 13.257)"/>
<path fill-rule="nonzero" fill="rgb(0%, 0%, 100%)" fill-opacity="1" stroke-width="0.3985" stroke-linecap="butt" stroke-linejoin="miter" stroke="rgb(0%, 0%, 100%)" stroke-opacity="1" stroke-miterlimit="10" d="M 10.495469 -0.0008125 C 10.495469 1.10075 9.604844 1.991375 8.503281 1.991375 C 7.401719 1.991375 6.511094 1.10075 6.511094 -0.0008125 C 6.511094 -1.102375 7.401719 -1.993 8.503281 -1.993 C 9.604844 -1.993 10.495469 -1.102375 10.495469 -0.0008125 Z M 10.495469 -0.0008125 " transform="matrix(1, 0, 0, -1, 60.985, 13.257)"/>
<g fill="rgb(0%, 0%, 0%)" fill-opacity="1">
<use xlink:href="#glyph-1-1" x="80.185" y="16.718"/>
</g>
<g fill="rgb(0%, 0%, 0%)" fill-opacity="1">
<use xlink:href="#glyph-3-0" x="88.466" y="18.213"/>
</g>
<g fill="rgb(0%, 0%, 0%)" fill-opacity="1">
<use xlink:href="#glyph-0-6" x="96.656" y="16.718"/>
</g>
<g fill="rgb(0%, 0%, 0%)" fill-opacity="1">
<use xlink:href="#glyph-4-0" x="107.172" y="9.246"/>
</g>
<g fill="rgb(0%, 0%, 0%)" fill-opacity="1">
<use xlink:href="#glyph-3-0" x="117.689" y="11.709"/>
</g>
<g fill="rgb(0%, 0%, 0%)" fill-opacity="1">
<use xlink:href="#glyph-3-1" x="117.689" y="19.707"/>
</g>
<g fill="rgb(0%, 0%, 0%)" fill-opacity="1">
<use xlink:href="#glyph-5-0" x="122.09156" y="19.707"/>
<use xlink:href="#glyph-5-1" x="128.207583" y="19.707"/>
</g>
<g fill="rgb(0%, 0%, 0%)" fill-opacity="1">
<use xlink:href="#glyph-5-1" x="135.75" y="12.796"/>
</g>
<path fill="none" stroke-width="0.398" stroke-linecap="butt" stroke-linejoin="miter" stroke="rgb(0%, 0%, 0%)" stroke-opacity="1" stroke-miterlimit="10" d="M -0.00175 0.0014375 L 4.4045 0.0014375 " transform="matrix(1, 0, 0, -1, 135.533, 14.228)"/>
<g fill="rgb(0%, 0%, 0%)" fill-opacity="1">
<use xlink:href="#glyph-3-1" x="135.533" y="20.154"/>
</g>
<path fill="none" stroke-width="0.3985" stroke-linecap="butt" stroke-linejoin="miter" stroke="rgb(100%, 0%, 0%)" stroke-opacity="1" stroke-miterlimit="10" d="M -0.000625 0.0013125 C -0.000625 0.0013125 6.143906 0.0013125 8.503281 0.0013125 C 10.862656 0.0013125 17.007188 0.0013125 17.007188 0.0013125 " transform="matrix(1, 0, 0, -1, 60.985, 26.681)"/>
<g fill="rgb(0%, 0%, 0%)" fill-opacity="1">
<use xlink:href="#glyph-0-7" x="99.643" y="29.67"/>
<use xlink:href="#glyph-0-8" x="102.41061" y="29.67"/>
<use xlink:href="#glyph-0-9" x="107.945831" y="29.67"/>
</g>
<g fill="rgb(0%, 0%, 0%)" fill-opacity="1">
<use xlink:href="#glyph-1-0" x="111.820286" y="29.67"/>
</g>
<g fill="rgb(0%, 0%, 0%)" fill-opacity="1">
<use xlink:href="#glyph-0-10" x="117.799838" y="29.67"/>
</g>
</svg>
