<?xml version="1.0" encoding="UTF-8"?>
<svg xmlns="http://www.w3.org/2000/svg" xmlns:xlink="http://www.w3.org/1999/xlink" width="679.411pt" height="348.921pt" viewBox="0 0 679.411 348.921">
<defs>
<g>
<g id="glyph-0-0">
<path d="M 4.578125 -3.1875 C 4.578125 -3.984375 4.53125 -4.78125 4.1875 -5.515625 C 3.734375 -6.484375 2.90625 -6.640625 2.5 -6.640625 C 1.890625 -6.640625 1.171875 -6.375 0.75 -5.453125 C 0.4375 -4.765625 0.390625 -3.984375 0.390625 -3.1875 C 0.390625 -2.4375 0.421875 -1.546875 0.84375 -0.78125 C 1.265625 0.015625 2 0.21875 2.484375 0.21875 C 3.015625 0.21875 3.78125 0.015625 4.21875 -0.9375 C 4.53125 -1.625 4.578125 -2.40625 4.578125 -3.1875 Z M 2.484375 0 C 2.09375 0 1.5 -0.25 1.328125 -1.203125 C 1.21875 -1.796875 1.21875 -2.71875 1.21875 -3.3125 C 1.21875 -3.953125 1.21875 -4.609375 1.296875 -5.140625 C 1.484375 -6.328125 2.234375 -6.421875 2.484375 -6.421875 C 2.8125 -6.421875 3.46875 -6.234375 3.65625 -5.25 C 3.765625 -4.6875 3.765625 -3.9375 3.765625 -3.3125 C 3.765625 -2.5625 3.765625 -1.890625 3.65625 -1.25 C 3.5 -0.296875 2.9375 0 2.484375 0 Z M 2.484375 0 "/>
</g>
<g id="glyph-0-1">
<path d="M 1.265625 -0.765625 L 2.328125 -1.796875 C 3.875 -3.171875 4.46875 -3.703125 4.46875 -4.703125 C 4.46875 -5.84375 3.578125 -6.640625 2.359375 -6.640625 C 1.234375 -6.640625 0.5 -5.71875 0.5 -4.828125 C 0.5 -4.28125 1 -4.28125 1.03125 -4.28125 C 1.203125 -4.28125 1.546875 -4.390625 1.546875 -4.8125 C 1.546875 -5.0625 1.359375 -5.328125 1.015625 -5.328125 C 0.9375 -5.328125 0.921875 -5.328125 0.890625 -5.3125 C 1.109375 -5.96875 1.65625 -6.328125 2.234375 -6.328125 C 3.140625 -6.328125 3.5625 -5.515625 3.5625 -4.703125 C 3.5625 -3.90625 3.078125 -3.125 2.515625 -2.5 L 0.609375 -0.375 C 0.5 -0.265625 0.5 -0.234375 0.5 0 L 4.203125 0 L 4.46875 -1.734375 L 4.234375 -1.734375 C 4.171875 -1.4375 4.109375 -1 4 -0.84375 C 3.9375 -0.765625 3.28125 -0.765625 3.0625 -0.765625 Z M 1.265625 -0.765625 "/>
</g>
<g id="glyph-0-2">
<path d="M 2.9375 -1.640625 L 2.9375 -0.78125 C 2.9375 -0.421875 2.90625 -0.3125 2.171875 -0.3125 L 1.96875 -0.3125 L 1.96875 0 C 2.375 -0.03125 2.890625 -0.03125 3.3125 -0.03125 C 3.734375 -0.03125 4.25 -0.03125 4.671875 0 L 4.671875 -0.3125 L 4.453125 -0.3125 C 3.71875 -0.3125 3.703125 -0.421875 3.703125 -0.78125 L 3.703125 -1.640625 L 4.6875 -1.640625 L 4.6875 -1.953125 L 3.703125 -1.953125 L 3.703125 -6.484375 C 3.703125 -6.6875 3.703125 -6.75 3.53125 -6.75 C 3.453125 -6.75 3.421875 -6.75 3.34375 -6.625 L 0.28125 -1.953125 L 0.28125 -1.640625 Z M 2.984375 -1.953125 L 0.5625 -1.953125 L 2.984375 -5.671875 Z M 2.984375 -1.953125 "/>
</g>
<g id="glyph-0-3">
<path d="M 1.3125 -3.265625 L 1.3125 -3.515625 C 1.3125 -6.03125 2.546875 -6.390625 3.0625 -6.390625 C 3.296875 -6.390625 3.71875 -6.328125 3.9375 -5.984375 C 3.78125 -5.984375 3.390625 -5.984375 3.390625 -5.546875 C 3.390625 -5.234375 3.625 -5.078125 3.84375 -5.078125 C 4 -5.078125 4.3125 -5.171875 4.3125 -5.5625 C 4.3125 -6.15625 3.875 -6.640625 3.046875 -6.640625 C 1.765625 -6.640625 0.421875 -5.359375 0.421875 -3.15625 C 0.421875 -0.484375 1.578125 0.21875 2.5 0.21875 C 3.609375 0.21875 4.5625 -0.71875 4.5625 -2.03125 C 4.5625 -3.296875 3.671875 -4.25 2.5625 -4.25 C 1.890625 -4.25 1.515625 -3.75 1.3125 -3.265625 Z M 2.5 -0.0625 C 1.875 -0.0625 1.578125 -0.65625 1.515625 -0.8125 C 1.328125 -1.28125 1.328125 -2.078125 1.328125 -2.25 C 1.328125 -3.03125 1.65625 -4.03125 2.546875 -4.03125 C 2.71875 -4.03125 3.171875 -4.03125 3.484375 -3.40625 C 3.65625 -3.046875 3.65625 -2.53125 3.65625 -2.046875 C 3.65625 -1.5625 3.65625 -1.0625 3.484375 -0.703125 C 3.1875 -0.109375 2.734375 -0.0625 2.5 -0.0625 Z M 2.5 -0.0625 "/>
</g>
<g id="glyph-0-4">
<path d="M 1.625 -4.5625 C 1.171875 -4.859375 1.125 -5.1875 1.125 -5.359375 C 1.125 -5.96875 1.78125 -6.390625 2.484375 -6.390625 C 3.203125 -6.390625 3.84375 -5.875 3.84375 -5.15625 C 3.84375 -4.578125 3.453125 -4.109375 2.859375 -3.765625 Z M 3.078125 -3.609375 C 3.796875 -3.984375 4.28125 -4.5 4.28125 -5.15625 C 4.28125 -6.078125 3.40625 -6.640625 2.5 -6.640625 C 1.5 -6.640625 0.6875 -5.90625 0.6875 -4.96875 C 0.6875 -4.796875 0.703125 -4.34375 1.125 -3.875 C 1.234375 -3.765625 1.609375 -3.515625 1.859375 -3.34375 C 1.28125 -3.046875 0.421875 -2.5 0.421875 -1.5 C 0.421875 -0.453125 1.4375 0.21875 2.484375 0.21875 C 3.609375 0.21875 4.5625 -0.609375 4.5625 -1.671875 C 4.5625 -2.03125 4.453125 -2.484375 4.0625 -2.90625 C 3.875 -3.109375 3.71875 -3.203125 3.078125 -3.609375 Z M 2.078125 -3.1875 L 3.3125 -2.40625 C 3.59375 -2.21875 4.0625 -1.921875 4.0625 -1.3125 C 4.0625 -0.578125 3.3125 -0.0625 2.5 -0.0625 C 1.640625 -0.0625 0.921875 -0.671875 0.921875 -1.5 C 0.921875 -2.078125 1.234375 -2.71875 2.078125 -3.1875 Z M 2.078125 -3.1875 "/>
</g>
<g id="glyph-0-5">
<path d="M 2.9375 -6.375 C 2.9375 -6.625 2.9375 -6.640625 2.703125 -6.640625 C 2.078125 -6 1.203125 -6 0.890625 -6 L 0.890625 -5.6875 C 1.09375 -5.6875 1.671875 -5.6875 2.1875 -5.953125 L 2.1875 -0.78125 C 2.1875 -0.421875 2.15625 -0.3125 1.265625 -0.3125 L 0.953125 -0.3125 L 0.953125 0 C 1.296875 -0.03125 2.15625 -0.03125 2.5625 -0.03125 C 2.953125 -0.03125 3.828125 -0.03125 4.171875 0 L 4.171875 -0.3125 L 3.859375 -0.3125 C 2.953125 -0.3125 2.9375 -0.421875 2.9375 -0.78125 Z M 2.9375 -6.375 "/>
</g>
<g id="glyph-0-6">
<path d="M 2.890625 -3.515625 C 3.703125 -3.78125 4.28125 -4.46875 4.28125 -5.265625 C 4.28125 -6.078125 3.40625 -6.640625 2.453125 -6.640625 C 1.453125 -6.640625 0.6875 -6.046875 0.6875 -5.28125 C 0.6875 -4.953125 0.90625 -4.765625 1.203125 -4.765625 C 1.5 -4.765625 1.703125 -4.984375 1.703125 -5.28125 C 1.703125 -5.765625 1.234375 -5.765625 1.09375 -5.765625 C 1.390625 -6.265625 2.046875 -6.390625 2.40625 -6.390625 C 2.828125 -6.390625 3.375 -6.171875 3.375 -5.28125 C 3.375 -5.15625 3.34375 -4.578125 3.09375 -4.140625 C 2.796875 -3.65625 2.453125 -3.625 2.203125 -3.625 C 2.125 -3.609375 1.890625 -3.59375 1.8125 -3.59375 C 1.734375 -3.578125 1.671875 -3.5625 1.671875 -3.46875 C 1.671875 -3.359375 1.734375 -3.359375 1.90625 -3.359375 L 2.34375 -3.359375 C 3.15625 -3.359375 3.53125 -2.6875 3.53125 -1.703125 C 3.53125 -0.34375 2.84375 -0.0625 2.40625 -0.0625 C 1.96875 -0.0625 1.21875 -0.234375 0.875 -0.8125 C 1.21875 -0.765625 1.53125 -0.984375 1.53125 -1.359375 C 1.53125 -1.71875 1.265625 -1.921875 0.984375 -1.921875 C 0.734375 -1.921875 0.421875 -1.78125 0.421875 -1.34375 C 0.421875 -0.4375 1.34375 0.21875 2.4375 0.21875 C 3.65625 0.21875 4.5625 -0.6875 4.5625 -1.703125 C 4.5625 -2.515625 3.921875 -3.296875 2.890625 -3.515625 Z M 2.890625 -3.515625 "/>
</g>
<g id="glyph-0-7">
<path d="M 4.46875 -2 C 4.46875 -3.1875 3.65625 -4.1875 2.578125 -4.1875 C 2.109375 -4.1875 1.671875 -4.03125 1.3125 -3.671875 L 1.3125 -5.625 C 1.515625 -5.5625 1.84375 -5.5 2.15625 -5.5 C 3.390625 -5.5 4.09375 -6.40625 4.09375 -6.53125 C 4.09375 -6.59375 4.0625 -6.640625 3.984375 -6.640625 C 3.984375 -6.640625 3.953125 -6.640625 3.90625 -6.609375 C 3.703125 -6.515625 3.21875 -6.3125 2.546875 -6.3125 C 2.15625 -6.3125 1.6875 -6.390625 1.21875 -6.59375 C 1.140625 -6.625 1.125 -6.625 1.109375 -6.625 C 1 -6.625 1 -6.546875 1 -6.390625 L 1 -3.4375 C 1 -3.265625 1 -3.1875 1.140625 -3.1875 C 1.21875 -3.1875 1.234375 -3.203125 1.28125 -3.265625 C 1.390625 -3.421875 1.75 -3.96875 2.5625 -3.96875 C 3.078125 -3.96875 3.328125 -3.515625 3.40625 -3.328125 C 3.5625 -2.953125 3.59375 -2.578125 3.59375 -2.078125 C 3.59375 -1.71875 3.59375 -1.125 3.34375 -0.703125 C 3.109375 -0.3125 2.734375 -0.0625 2.28125 -0.0625 C 1.5625 -0.0625 0.984375 -0.59375 0.8125 -1.171875 C 0.84375 -1.171875 0.875 -1.15625 0.984375 -1.15625 C 1.3125 -1.15625 1.484375 -1.40625 1.484375 -1.640625 C 1.484375 -1.890625 1.3125 -2.140625 0.984375 -2.140625 C 0.84375 -2.140625 0.5 -2.0625 0.5 -1.609375 C 0.5 -0.75 1.1875 0.21875 2.296875 0.21875 C 3.453125 0.21875 4.46875 -0.734375 4.46875 -2 Z M 4.46875 -2 "/>
</g>
<g id="glyph-0-8">
<path d="M 6.84375 -3.265625 C 7 -3.265625 7.1875 -3.265625 7.1875 -3.453125 C 7.1875 -3.65625 7 -3.65625 6.859375 -3.65625 L 0.890625 -3.65625 C 0.75 -3.65625 0.5625 -3.65625 0.5625 -3.453125 C 0.5625 -3.265625 0.75 -3.265625 0.890625 -3.265625 Z M 6.859375 -1.328125 C 7 -1.328125 7.1875 -1.328125 7.1875 -1.53125 C 7.1875 -1.71875 7 -1.71875 6.84375 -1.71875 L 0.890625 -1.71875 C 0.75 -1.71875 0.5625 -1.71875 0.5625 -1.53125 C 0.5625 -1.328125 0.75 -1.328125 0.890625 -1.328125 Z M 6.859375 -1.328125 "/>
</g>
<g id="glyph-0-9">
<path d="M 1.765625 -6.921875 L 0.328125 -6.8125 L 0.328125 -6.5 C 1.03125 -6.5 1.109375 -6.4375 1.109375 -5.9375 L 1.109375 -0.75 C 1.109375 -0.3125 1 -0.3125 0.328125 -0.3125 L 0.328125 0 C 0.65625 -0.015625 1.1875 -0.03125 1.4375 -0.03125 C 1.6875 -0.03125 2.171875 -0.015625 2.546875 0 L 2.546875 -0.3125 C 1.875 -0.3125 1.765625 -0.3125 1.765625 -0.75 Z M 1.765625 -6.921875 "/>
</g>
<g id="glyph-0-10">
<path d="M 1.09375 -3.421875 L 1.09375 -0.75 C 1.09375 -0.3125 0.984375 -0.3125 0.3125 -0.3125 L 0.3125 0 C 0.671875 -0.015625 1.171875 -0.03125 1.453125 -0.03125 C 1.703125 -0.03125 2.21875 -0.015625 2.5625 0 L 2.5625 -0.3125 C 1.890625 -0.3125 1.78125 -0.3125 1.78125 -0.75 L 1.78125 -2.59375 C 1.78125 -3.625 2.5 -4.1875 3.125 -4.1875 C 3.765625 -4.1875 3.875 -3.65625 3.875 -3.078125 L 3.875 -0.75 C 3.875 -0.3125 3.765625 -0.3125 3.09375 -0.3125 L 3.09375 0 C 3.4375 -0.015625 3.953125 -0.03125 4.21875 -0.03125 C 4.46875 -0.03125 5 -0.015625 5.328125 0 L 5.328125 -0.3125 C 4.8125 -0.3125 4.5625 -0.3125 4.5625 -0.609375 L 4.5625 -2.515625 C 4.5625 -3.375 4.5625 -3.671875 4.25 -4.03125 C 4.109375 -4.203125 3.78125 -4.40625 3.203125 -4.40625 C 2.46875 -4.40625 2 -3.984375 1.71875 -3.359375 L 1.71875 -4.40625 L 0.3125 -4.296875 L 0.3125 -3.984375 C 1.015625 -3.984375 1.09375 -3.921875 1.09375 -3.421875 Z M 1.09375 -3.421875 "/>
</g>
<g id="glyph-0-11">
<path d="M 3.296875 2.390625 C 3.296875 2.359375 3.296875 2.34375 3.125 2.171875 C 1.890625 0.921875 1.5625 -0.96875 1.5625 -2.5 C 1.5625 -4.234375 1.9375 -5.96875 3.171875 -7.203125 C 3.296875 -7.328125 3.296875 -7.34375 3.296875 -7.375 C 3.296875 -7.453125 3.265625 -7.484375 3.203125 -7.484375 C 3.09375 -7.484375 2.203125 -6.796875 1.609375 -5.53125 C 1.109375 -4.4375 0.984375 -3.328125 0.984375 -2.5 C 0.984375 -1.71875 1.09375 -0.515625 1.640625 0.625 C 2.25 1.84375 3.09375 2.5 3.203125 2.5 C 3.265625 2.5 3.296875 2.46875 3.296875 2.390625 Z M 3.296875 2.390625 "/>
</g>
<g id="glyph-0-12">
<path d="M 2.875 -2.5 C 2.875 -3.265625 2.765625 -4.46875 2.21875 -5.609375 C 1.625 -6.828125 0.765625 -7.484375 0.671875 -7.484375 C 0.609375 -7.484375 0.5625 -7.4375 0.5625 -7.375 C 0.5625 -7.34375 0.5625 -7.328125 0.75 -7.140625 C 1.734375 -6.15625 2.296875 -4.578125 2.296875 -2.5 C 2.296875 -0.78125 1.9375 0.96875 0.703125 2.21875 C 0.5625 2.34375 0.5625 2.359375 0.5625 2.390625 C 0.5625 2.453125 0.609375 2.5 0.671875 2.5 C 0.765625 2.5 1.671875 1.8125 2.25 0.546875 C 2.765625 -0.546875 2.875 -1.65625 2.875 -2.5 Z M 2.875 -2.5 "/>
</g>
<g id="glyph-1-0">
<path d="M 1.90625 -0.53125 C 1.90625 -0.8125 1.671875 -1.0625 1.390625 -1.0625 C 1.09375 -1.0625 0.859375 -0.8125 0.859375 -0.53125 C 0.859375 -0.234375 1.09375 0 1.390625 0 C 1.671875 0 1.90625 -0.234375 1.90625 -0.53125 Z M 1.90625 -0.53125 "/>
</g>
<g id="glyph-1-1">
<path d="M 0.875 -0.59375 C 0.84375 -0.4375 0.78125 -0.203125 0.78125 -0.15625 C 0.78125 0.015625 0.921875 0.109375 1.078125 0.109375 C 1.203125 0.109375 1.375 0.03125 1.453125 -0.171875 C 1.453125 -0.1875 1.578125 -0.65625 1.640625 -0.90625 L 1.859375 -1.796875 C 1.90625 -2.03125 1.96875 -2.25 2.03125 -2.46875 C 2.0625 -2.640625 2.140625 -2.9375 2.15625 -2.96875 C 2.296875 -3.28125 2.828125 -4.1875 3.78125 -4.1875 C 4.234375 -4.1875 4.3125 -3.8125 4.3125 -3.484375 C 4.3125 -2.875 3.828125 -1.59375 3.671875 -1.171875 C 3.578125 -0.9375 3.5625 -0.8125 3.5625 -0.703125 C 3.5625 -0.234375 3.921875 0.109375 4.390625 0.109375 C 5.328125 0.109375 5.6875 -1.34375 5.6875 -1.421875 C 5.6875 -1.53125 5.609375 -1.53125 5.578125 -1.53125 C 5.46875 -1.53125 5.46875 -1.5 5.421875 -1.34375 C 5.21875 -0.671875 4.890625 -0.109375 4.40625 -0.109375 C 4.234375 -0.109375 4.171875 -0.203125 4.171875 -0.4375 C 4.171875 -0.6875 4.25 -0.921875 4.34375 -1.140625 C 4.53125 -1.671875 4.953125 -2.765625 4.953125 -3.34375 C 4.953125 -4 4.53125 -4.40625 3.8125 -4.40625 C 2.90625 -4.40625 2.421875 -3.765625 2.25 -3.53125 C 2.203125 -4.09375 1.796875 -4.40625 1.328125 -4.40625 C 0.875 -4.40625 0.6875 -4.015625 0.59375 -3.84375 C 0.421875 -3.5 0.296875 -2.90625 0.296875 -2.875 C 0.296875 -2.765625 0.390625 -2.765625 0.40625 -2.765625 C 0.515625 -2.765625 0.515625 -2.78125 0.578125 -3 C 0.75 -3.703125 0.953125 -4.1875 1.3125 -4.1875 C 1.5 -4.1875 1.609375 -4.0625 1.609375 -3.734375 C 1.609375 -3.515625 1.578125 -3.40625 1.453125 -2.890625 Z M 0.875 -0.59375 "/>
</g>
<g id="glyph-1-2">
<path d="M 7.609375 -6.046875 C 7.703125 -6.40625 7.71875 -6.5 8.4375 -6.5 C 8.703125 -6.5 8.78125 -6.5 8.78125 -6.703125 C 8.78125 -6.8125 8.671875 -6.8125 8.640625 -6.8125 C 8.359375 -6.8125 7.640625 -6.78125 7.359375 -6.78125 C 7.078125 -6.78125 6.375 -6.8125 6.078125 -6.8125 C 6 -6.8125 5.890625 -6.8125 5.890625 -6.609375 C 5.890625 -6.5 5.984375 -6.5 6.171875 -6.5 C 6.1875 -6.5 6.375 -6.5 6.546875 -6.484375 C 6.734375 -6.453125 6.8125 -6.453125 6.8125 -6.3125 C 6.8125 -6.28125 6.8125 -6.265625 6.78125 -6.125 L 6.1875 -3.703125 L 3.140625 -3.703125 L 3.734375 -6.046875 C 3.8125 -6.40625 3.84375 -6.5 4.5625 -6.5 C 4.828125 -6.5 4.90625 -6.5 4.90625 -6.703125 C 4.90625 -6.8125 4.796875 -6.8125 4.765625 -6.8125 C 4.484375 -6.8125 3.765625 -6.78125 3.484375 -6.78125 C 3.203125 -6.78125 2.5 -6.8125 2.203125 -6.8125 C 2.125 -6.8125 2.015625 -6.8125 2.015625 -6.609375 C 2.015625 -6.5 2.109375 -6.5 2.296875 -6.5 C 2.3125 -6.5 2.5 -6.5 2.671875 -6.484375 C 2.84375 -6.453125 2.9375 -6.453125 2.9375 -6.3125 C 2.9375 -6.28125 2.9375 -6.25 2.90625 -6.125 L 1.5625 -0.78125 C 1.46875 -0.390625 1.453125 -0.3125 0.65625 -0.3125 C 0.484375 -0.3125 0.390625 -0.3125 0.390625 -0.109375 C 0.390625 0 0.515625 0 0.53125 0 C 0.8125 0 1.515625 -0.03125 1.796875 -0.03125 C 2 -0.03125 2.21875 -0.015625 2.4375 -0.015625 C 2.65625 -0.015625 2.875 0 3.078125 0 C 3.15625 0 3.28125 0 3.28125 -0.203125 C 3.28125 -0.3125 3.1875 -0.3125 3 -0.3125 C 2.625 -0.3125 2.359375 -0.3125 2.359375 -0.484375 C 2.359375 -0.546875 2.375 -0.59375 2.375 -0.65625 L 3.0625 -3.390625 L 6.09375 -3.390625 C 5.6875 -1.734375 5.453125 -0.78125 5.40625 -0.640625 C 5.3125 -0.3125 5.125 -0.3125 4.5 -0.3125 C 4.359375 -0.3125 4.265625 -0.3125 4.265625 -0.109375 C 4.265625 0 4.390625 0 4.40625 0 C 4.6875 0 5.390625 -0.03125 5.671875 -0.03125 C 5.875 -0.03125 6.09375 -0.015625 6.3125 -0.015625 C 6.53125 -0.015625 6.75 0 6.953125 0 C 7.03125 0 7.15625 0 7.15625 -0.203125 C 7.15625 -0.3125 7.0625 -0.3125 6.875 -0.3125 C 6.515625 -0.3125 6.234375 -0.3125 6.234375 -0.484375 C 6.234375 -0.546875 6.25 -0.59375 6.265625 -0.65625 Z M 7.609375 -6.046875 "/>
</g>
<g id="glyph-2-0">
<path d="M -3.796875 -4.84375 C -3.9375 -4.890625 -3.953125 -4.890625 -4.03125 -4.890625 C -4.203125 -4.890625 -4.296875 -4.75 -4.296875 -4.59375 C -4.296875 -4.5 -4.234375 -4.34375 -4.09375 -4.25 C -4.03125 -4.234375 -3.734375 -4.140625 -3.546875 -4.109375 C -3.296875 -4.03125 -3.015625 -3.96875 -2.75 -3.90625 L -0.953125 -3.453125 C -0.8125 -3.421875 -0.109375 -2.984375 -0.109375 -2.328125 C -0.109375 -1.828125 -0.546875 -1.71875 -0.921875 -1.71875 C -1.375 -1.71875 -2 -1.890625 -2.875 -2.21875 C -3.28125 -2.375 -3.390625 -2.421875 -3.59375 -2.421875 C -4.03125 -2.421875 -4.40625 -2.109375 -4.40625 -1.609375 C -4.40625 -0.65625 -2.953125 -0.296875 -2.875 -0.296875 C -2.765625 -0.296875 -2.765625 -0.390625 -2.765625 -0.40625 C -2.765625 -0.515625 -2.796875 -0.515625 -2.953125 -0.5625 C -3.890625 -0.84375 -4.1875 -1.234375 -4.1875 -1.578125 C -4.1875 -1.65625 -4.1875 -1.828125 -3.875 -1.828125 C -3.625 -1.828125 -3.359375 -1.71875 -3.171875 -1.65625 C -2.109375 -1.25 -1.546875 -1.078125 -1.078125 -1.078125 C -0.1875 -1.078125 0.109375 -1.703125 0.109375 -2.296875 C 0.109375 -2.6875 -0.0625 -3.015625 -0.34375 -3.296875 C 0.171875 -3.171875 0.671875 -3.046875 1.203125 -2.65625 C 1.53125 -2.390625 1.828125 -2.015625 1.828125 -1.5625 C 1.828125 -1.421875 1.796875 -0.96875 1.40625 -0.796875 C 1.40625 -0.953125 1.40625 -1.09375 1.28125 -1.21875 C 1.203125 -1.328125 1.0625 -1.421875 0.875 -1.421875 C 0.5625 -1.421875 0.53125 -1.15625 0.53125 -1.0625 C 0.53125 -0.828125 0.6875 -0.5 1.171875 -0.5 C 1.671875 -0.5 2.046875 -0.9375 2.046875 -1.5625 C 2.046875 -2.578125 1.140625 -3.609375 0.015625 -3.890625 Z M -3.796875 -4.84375 "/>
</g>
<g id="glyph-3-0">
<path d="M 0.84375 -0.4375 C 0.828125 -0.34375 0.78125 -0.171875 0.78125 -0.15625 C 0.78125 0 0.90625 0.0625 1.015625 0.0625 C 1.140625 0.0625 1.25 -0.015625 1.296875 -0.078125 C 1.328125 -0.140625 1.375 -0.375 1.421875 -0.515625 C 1.453125 -0.640625 1.53125 -0.96875 1.5625 -1.140625 C 1.609375 -1.296875 1.65625 -1.453125 1.6875 -1.609375 C 1.765625 -1.890625 1.78125 -1.953125 1.984375 -2.234375 C 2.171875 -2.515625 2.5 -2.875 3.03125 -2.875 C 3.421875 -2.875 3.4375 -2.515625 3.4375 -2.390625 C 3.4375 -1.96875 3.140625 -1.203125 3.03125 -0.90625 C 2.953125 -0.703125 2.921875 -0.640625 2.921875 -0.53125 C 2.921875 -0.15625 3.21875 0.0625 3.578125 0.0625 C 4.28125 0.0625 4.578125 -0.890625 4.578125 -1 C 4.578125 -1.09375 4.5 -1.09375 4.46875 -1.09375 C 4.375 -1.09375 4.375 -1.046875 4.34375 -0.96875 C 4.1875 -0.40625 3.875 -0.125 3.609375 -0.125 C 3.453125 -0.125 3.421875 -0.21875 3.421875 -0.375 C 3.421875 -0.53125 3.46875 -0.625 3.59375 -0.9375 C 3.671875 -1.15625 3.953125 -1.890625 3.953125 -2.28125 C 3.953125 -2.953125 3.421875 -3.078125 3.046875 -3.078125 C 2.46875 -3.078125 2.078125 -2.71875 1.875 -2.4375 C 1.828125 -2.921875 1.421875 -3.078125 1.125 -3.078125 C 0.828125 -3.078125 0.671875 -2.859375 0.578125 -2.703125 C 0.421875 -2.4375 0.328125 -2.046875 0.328125 -2 C 0.328125 -1.921875 0.421875 -1.921875 0.453125 -1.921875 C 0.546875 -1.921875 0.546875 -1.9375 0.59375 -2.125 C 0.703125 -2.53125 0.84375 -2.875 1.109375 -2.875 C 1.296875 -2.875 1.34375 -2.71875 1.34375 -2.53125 C 1.34375 -2.40625 1.28125 -2.140625 1.21875 -1.953125 C 1.171875 -1.765625 1.109375 -1.484375 1.078125 -1.328125 Z M 0.84375 -0.4375 "/>
</g>
<g id="glyph-3-1">
<path d="M 2.1875 -4.625 C 2.1875 -4.640625 2.203125 -4.734375 2.203125 -4.734375 C 2.203125 -4.78125 2.1875 -4.84375 2.09375 -4.84375 C 1.953125 -4.84375 1.375 -4.78125 1.203125 -4.765625 C 1.15625 -4.765625 1.046875 -4.75 1.046875 -4.609375 C 1.046875 -4.515625 1.15625 -4.515625 1.234375 -4.515625 C 1.5625 -4.515625 1.5625 -4.453125 1.5625 -4.40625 C 1.5625 -4.359375 1.546875 -4.3125 1.546875 -4.25 L 0.5625 -0.3125 C 0.515625 -0.1875 0.515625 -0.171875 0.515625 -0.15625 C 0.515625 -0.046875 0.609375 0.0625 0.765625 0.0625 C 0.953125 0.0625 1.03125 -0.0625 1.078125 -0.21875 C 1.09375 -0.25 1.390625 -1.484375 1.421875 -1.578125 C 1.921875 -1.53125 2.3125 -1.359375 2.3125 -1 C 2.3125 -0.96875 2.3125 -0.9375 2.296875 -0.859375 C 2.265625 -0.765625 2.265625 -0.71875 2.265625 -0.640625 C 2.265625 -0.15625 2.671875 0.0625 3.015625 0.0625 C 3.6875 0.0625 3.890625 -0.984375 3.890625 -1 C 3.890625 -1.09375 3.8125 -1.09375 3.78125 -1.09375 C 3.6875 -1.09375 3.671875 -1.046875 3.640625 -0.921875 C 3.5625 -0.625 3.375 -0.125 3.03125 -0.125 C 2.84375 -0.125 2.78125 -0.296875 2.78125 -0.484375 C 2.78125 -0.609375 2.78125 -0.625 2.828125 -0.796875 C 2.84375 -0.828125 2.859375 -0.9375 2.859375 -1.015625 C 2.859375 -1.640625 2.03125 -1.734375 1.734375 -1.75 C 1.9375 -1.875 2.1875 -2.109375 2.3125 -2.21875 C 2.671875 -2.546875 3.015625 -2.875 3.40625 -2.875 C 3.484375 -2.875 3.578125 -2.859375 3.640625 -2.78125 C 3.34375 -2.734375 3.28125 -2.5 3.28125 -2.390625 C 3.28125 -2.25 3.390625 -2.140625 3.546875 -2.140625 C 3.75 -2.140625 3.953125 -2.296875 3.953125 -2.578125 C 3.953125 -2.8125 3.78125 -3.078125 3.421875 -3.078125 C 3.015625 -3.078125 2.65625 -2.78125 2.296875 -2.453125 C 2 -2.1875 1.78125 -1.96875 1.484375 -1.84375 Z M 2.1875 -4.625 "/>
</g>
<g id="glyph-4-0">
<path d="M 4.203125 5.328125 L 0.65625 9.703125 C 0.578125 9.796875 0.5625 9.8125 0.5625 9.859375 C 0.5625 9.96875 0.65625 9.96875 0.84375 9.96875 L 9.09375 9.96875 L 9.953125 7.484375 L 9.703125 7.484375 C 9.453125 8.234375 8.796875 8.84375 7.9375 9.125 C 7.78125 9.1875 7.09375 9.421875 5.625 9.421875 L 1.390625 9.421875 L 4.859375 5.140625 C 4.921875 5.046875 4.9375 5.03125 4.9375 4.984375 C 4.9375 4.9375 4.9375 4.9375 4.875 4.84375 L 1.640625 0.40625 L 5.578125 0.40625 C 6.71875 0.40625 9.015625 0.46875 9.703125 2.328125 L 9.953125 2.328125 L 9.09375 0 L 0.84375 0 C 0.5625 0 0.5625 0.015625 0.5625 0.3125 Z M 4.203125 5.328125 "/>
</g>
<g id="glyph-5-0">
<path d="M 5.359375 -2.34375 C 5.453125 -2.34375 5.609375 -2.34375 5.609375 -2.515625 C 5.609375 -2.6875 5.453125 -2.6875 5.359375 -2.6875 L 0.75 -2.6875 C 0.65625 -2.6875 0.484375 -2.6875 0.484375 -2.515625 C 0.484375 -2.34375 0.640625 -2.34375 0.75 -2.34375 Z M 5.359375 -0.8125 C 5.453125 -0.8125 5.609375 -0.8125 5.609375 -0.96875 C 5.609375 -1.15625 5.453125 -1.15625 5.359375 -1.15625 L 0.75 -1.15625 C 0.640625 -1.15625 0.484375 -1.15625 0.484375 -0.96875 C 0.484375 -0.8125 0.65625 -0.8125 0.75 -0.8125 Z M 5.359375 -0.8125 "/>
</g>
<g id="glyph-5-1">
<path d="M 2.328125 -4.4375 C 2.328125 -4.625 2.328125 -4.625 2.125 -4.625 C 1.671875 -4.1875 1.046875 -4.1875 0.765625 -4.1875 L 0.765625 -3.9375 C 0.921875 -3.9375 1.390625 -3.9375 1.765625 -4.125 L 1.765625 -0.578125 C 1.765625 -0.34375 1.765625 -0.25 1.078125 -0.25 L 0.8125 -0.25 L 0.8125 0 C 0.9375 0 1.796875 -0.03125 2.046875 -0.03125 C 2.265625 -0.03125 3.140625 0 3.296875 0 L 3.296875 -0.25 L 3.03125 -0.25 C 2.328125 -0.25 2.328125 -0.34375 2.328125 -0.578125 Z M 2.328125 -4.4375 "/>
</g>
</g>
<clipPath id="clip-0">
<path clip-rule="nonzero" d="M 67 0 L 679.410156 0 L 679.410156 299 L 67 299 Z M 67 0 "/>
</clipPath>
<clipPath id="clip-1">
<path clip-rule="nonzero" d="M 67 15 L 679.410156 15 L 679.410156 299 L 67 299 Z M 67 15 "/>
</clipPath>
<clipPath id="clip-2">
<path clip-rule="nonzero" d="M 67 0 L 679.410156 0 L 679.410156 299 L 67 299 Z M 67 0 "/>
</clipPath>
<clipPath id="clip-3">
<path clip-rule="nonzero" d="M 67 16 L 679.410156 16 L 679.410156 299 L 67 299 Z M 67 16 "/>
</clipPath>
<clipPath id="clip-4">
<path clip-rule="nonzero" d="M 67 0 L 679.410156 0 L 679.410156 299 L 67 299 Z M 67 0 "/>
</clipPath>
<clipPath id="clip-5">
<path clip-rule="nonzero" d="M 74 44 L 679 44 L 679 298.148438 L 74 298.148438 Z M 74 44 "/>
</clipPath>
<clipPath id="clip-6">
<path clip-rule="nonzero" d="M 73 71 L 679.410156 71 L 679.410156 298.148438 L 73 298.148438 Z M 73 71 "/>
</clipPath>
</defs>
<g clip-path="url(#clip-0)">
<path fill="none" stroke-width="0.3985" stroke-linecap="butt" stroke-linejoin="miter" stroke="rgb(75%, 75%, 75%)" stroke-opacity="1" stroke-miterlimit="10" d="M -0.001375 -0.0004375 L -0.001375 298.874562 M 24.248625 -0.0004375 L 24.248625 298.874562 M 48.498625 -0.0004375 L 48.498625 298.874562 M 72.748625 -0.0004375 L 72.748625 298.874562 M 96.994719 -0.0004375 L 96.994719 298.874562 M 121.244719 -0.0004375 L 121.244719 298.874562 M 145.494719 -0.0004375 L 145.494719 298.874562 M 169.744719 -0.0004375 L 169.744719 298.874562 M 193.990813 -0.0004375 L 193.990813 298.874562 M 218.240813 -0.0004375 L 218.240813 298.874562 M 242.490813 -0.0004375 L 242.490813 298.874562 M 266.736906 -0.0004375 L 266.736906 298.874562 M 290.986906 -0.0004375 L 290.986906 298.874562 M 315.236906 -0.0004375 L 315.236906 298.874562 M 339.486906 -0.0004375 L 339.486906 298.874562 M 363.733 -0.0004375 L 363.733 298.874562 M 387.983 -0.0004375 L 387.983 298.874562 M 412.233 -0.0004375 L 412.233 298.874562 M 436.483 -0.0004375 L 436.483 298.874562 M 460.729094 -0.0004375 L 460.729094 298.874562 M 484.979094 -0.0004375 L 484.979094 298.874562 M 509.229094 -0.0004375 L 509.229094 298.874562 M 533.479094 -0.0004375 L 533.479094 298.874562 M 557.725187 -0.0004375 L 557.725187 298.874562 M 581.975187 -0.0004375 L 581.975187 298.874562 M 606.225187 -0.0004375 L 606.225187 298.874562 M 630.475187 -0.0004375 L 630.475187 298.874562 " transform="matrix(1, 0, 0, -1, 67.267, 298.148)"/>
</g>
<g clip-path="url(#clip-1)">
<path fill="none" stroke-width="0.3985" stroke-linecap="butt" stroke-linejoin="miter" stroke="rgb(75%, 75%, 75%)" stroke-opacity="1" stroke-miterlimit="10" d="M -0.001375 -0.0004375 L 642.596281 -0.0004375 M -0.001375 28.194875 L 642.596281 28.194875 M -0.001375 56.390187 L 642.596281 56.390187 M -0.001375 84.589406 L 642.596281 84.589406 M -0.001375 112.784719 L 642.596281 112.784719 M -0.001375 140.980031 L 642.596281 140.980031 M -0.001375 169.175344 L 642.596281 169.175344 M -0.001375 197.370656 L 642.596281 197.370656 M -0.001375 225.565969 L 642.596281 225.565969 M -0.001375 253.761281 L 642.596281 253.761281 M -0.001375 281.9605 L 642.596281 281.9605 " transform="matrix(1, 0, 0, -1, 67.267, 298.148)"/>
</g>
<g clip-path="url(#clip-2)">
<path fill="none" stroke-width="0.19925" stroke-linecap="butt" stroke-linejoin="miter" stroke="rgb(50%, 50%, 50%)" stroke-opacity="1" stroke-miterlimit="10" d="M -0.001375 -0.0004375 L -0.001375 4.253469 M 24.248625 -0.0004375 L 24.248625 4.253469 M 48.498625 -0.0004375 L 48.498625 4.253469 M 72.748625 -0.0004375 L 72.748625 4.253469 M 96.994719 -0.0004375 L 96.994719 4.253469 M 121.244719 -0.0004375 L 121.244719 4.253469 M 145.494719 -0.0004375 L 145.494719 4.253469 M 169.744719 -0.0004375 L 169.744719 4.253469 M 193.990813 -0.0004375 L 193.990813 4.253469 M 218.240813 -0.0004375 L 218.240813 4.253469 M 242.490813 -0.0004375 L 242.490813 4.253469 M 266.736906 -0.0004375 L 266.736906 4.253469 M 290.986906 -0.0004375 L 290.986906 4.253469 M 315.236906 -0.0004375 L 315.236906 4.253469 M 339.486906 -0.0004375 L 339.486906 4.253469 M 363.733 -0.0004375 L 363.733 4.253469 M 387.983 -0.0004375 L 387.983 4.253469 M 412.233 -0.0004375 L 412.233 4.253469 M 436.483 -0.0004375 L 436.483 4.253469 M 460.729094 -0.0004375 L 460.729094 4.253469 M 484.979094 -0.0004375 L 484.979094 4.253469 M 509.229094 -0.0004375 L 509.229094 4.253469 M 533.479094 -0.0004375 L 533.479094 4.253469 M 557.725187 -0.0004375 L 557.725187 4.253469 M 581.975187 -0.0004375 L 581.975187 4.253469 M 606.225187 -0.0004375 L 606.225187 4.253469 M 630.475187 -0.0004375 L 630.475187 4.253469 M -0.001375 298.874562 L -0.001375 294.624562 M 24.248625 298.874562 L 24.248625 294.624562 M 48.498625 298.874562 L 48.498625 294.624562 M 72.748625 298.874562 L 72.748625 294.624562 M 96.994719 298.874562 L 96.994719 294.624562 M 121.244719 298.874562 L 121.244719 294.624562 M 145.494719 298.874562 L 145.494719 294.624562 M 169.744719 298.874562 L 169.744719 294.624562 M 193.990813 298.874562 L 193.990813 294.624562 M 218.240813 298.874562 L 218.240813 294.624562 M 242.490813 298.874562 L 242.490813 294.624562 M 266.736906 298.874562 L 266.736906 294.624562 M 290.986906 298.874562 L 290.986906 294.624562 M 315.236906 298.874562 L 315.236906 294.624562 M 339.486906 298.874562 L 339.486906 294.624562 M 363.733 298.874562 L 363.733 294.624562 M 387.983 298.874562 L 387.983 294.624562 M 412.233 298.874562 L 412.233 294.624562 M 436.483 298.874562 L 436.483 294.624562 M 460.729094 298.874562 L 460.729094 294.624562 M 484.979094 298.874562 L 484.979094 294.624562 M 509.229094 298.874562 L 509.229094 294.624562 M 533.479094 298.874562 L 533.479094 294.624562 M 557.725187 298.874562 L 557.725187 294.624562 M 581.975187 298.874562 L 581.975187 294.624562 M 606.225187 298.874562 L 606.225187 294.624562 M 630.475187 298.874562 L 630.475187 294.624562 " transform="matrix(1, 0, 0, -1, 67.267, 298.148)"/>
</g>
<g clip-path="url(#clip-3)">
<path fill="none" stroke-width="0.19925" stroke-linecap="butt" stroke-linejoin="miter" stroke="rgb(50%, 50%, 50%)" stroke-opacity="1" stroke-miterlimit="10" d="M -0.001375 -0.0004375 L 4.252531 -0.0004375 M -0.001375 28.194875 L 4.252531 28.194875 M -0.001375 56.390187 L 4.252531 56.390187 M -0.001375 84.589406 L 4.252531 84.589406 M -0.001375 112.784719 L 4.252531 112.784719 M -0.001375 140.980031 L 4.252531 140.980031 M -0.001375 169.175344 L 4.252531 169.175344 M -0.001375 197.370656 L 4.252531 197.370656 M -0.001375 225.565969 L 4.252531 225.565969 M -0.001375 253.761281 L 4.252531 253.761281 M -0.001375 281.9605 L 4.252531 281.9605 M 642.596281 -0.0004375 L 638.346281 -0.0004375 M 642.596281 28.194875 L 638.346281 28.194875 M 642.596281 56.390187 L 638.346281 56.390187 M 642.596281 84.589406 L 638.346281 84.589406 M 642.596281 112.784719 L 638.346281 112.784719 M 642.596281 140.980031 L 638.346281 140.980031 M 642.596281 169.175344 L 638.346281 169.175344 M 642.596281 197.370656 L 638.346281 197.370656 M 642.596281 225.565969 L 638.346281 225.565969 M 642.596281 253.761281 L 638.346281 253.761281 M 642.596281 281.9605 L 638.346281 281.9605 " transform="matrix(1, 0, 0, -1, 67.267, 298.148)"/>
</g>
<g clip-path="url(#clip-4)">
<path fill="none" stroke-width="0.3985" stroke-linecap="butt" stroke-linejoin="miter" stroke="rgb(0%, 0%, 0%)" stroke-opacity="1" stroke-miterlimit="10" d="M -0.001375 -0.0004375 L -0.001375 298.874562 L 642.596281 298.874562 L 642.596281 -0.0004375 Z M -0.001375 -0.0004375 " transform="matrix(1, 0, 0, -1, 67.267, 298.148)"/>
</g>
<g fill="rgb(0%, 0%, 0%)" fill-opacity="1">
<use xlink:href="#glyph-0-0" x="64.776" y="308.088"/>
</g>
<g fill="rgb(0%, 0%, 0%)" fill-opacity="1">
<use xlink:href="#glyph-0-1" x="89.025" y="308.088"/>
</g>
<g fill="rgb(0%, 0%, 0%)" fill-opacity="1">
<use xlink:href="#glyph-0-2" x="113.274" y="308.088"/>
</g>
<g fill="rgb(0%, 0%, 0%)" fill-opacity="1">
<use xlink:href="#glyph-0-3" x="137.522" y="308.088"/>
</g>
<g fill="rgb(0%, 0%, 0%)" fill-opacity="1">
<use xlink:href="#glyph-0-4" x="161.771" y="308.088"/>
</g>
<g fill="rgb(0%, 0%, 0%)" fill-opacity="1">
<use xlink:href="#glyph-0-5" x="183.529" y="308.088"/>
<use xlink:href="#glyph-0-0" x="188.5103" y="308.088"/>
</g>
<g fill="rgb(0%, 0%, 0%)" fill-opacity="1">
<use xlink:href="#glyph-0-5" x="207.778" y="308.088"/>
<use xlink:href="#glyph-0-1" x="212.7593" y="308.088"/>
</g>
<g fill="rgb(0%, 0%, 0%)" fill-opacity="1">
<use xlink:href="#glyph-0-5" x="232.026" y="308.088"/>
<use xlink:href="#glyph-0-2" x="237.0073" y="308.088"/>
</g>
<g fill="rgb(0%, 0%, 0%)" fill-opacity="1">
<use xlink:href="#glyph-0-5" x="256.275" y="308.088"/>
<use xlink:href="#glyph-0-3" x="261.2563" y="308.088"/>
</g>
<g fill="rgb(0%, 0%, 0%)" fill-opacity="1">
<use xlink:href="#glyph-0-5" x="280.524" y="308.088"/>
<use xlink:href="#glyph-0-4" x="285.5053" y="308.088"/>
</g>
<g fill="rgb(0%, 0%, 0%)" fill-opacity="1">
<use xlink:href="#glyph-0-1" x="304.772" y="308.088"/>
<use xlink:href="#glyph-0-0" x="309.7533" y="308.088"/>
</g>
<g fill="rgb(0%, 0%, 0%)" fill-opacity="1">
<use xlink:href="#glyph-0-1" x="329.021" y="308.088"/>
<use xlink:href="#glyph-0-1" x="334.0023" y="308.088"/>
</g>
<g fill="rgb(0%, 0%, 0%)" fill-opacity="1">
<use xlink:href="#glyph-0-1" x="353.27" y="308.088"/>
<use xlink:href="#glyph-0-2" x="358.2513" y="308.088"/>
</g>
<g fill="rgb(0%, 0%, 0%)" fill-opacity="1">
<use xlink:href="#glyph-0-1" x="377.518" y="308.088"/>
<use xlink:href="#glyph-0-3" x="382.4993" y="308.088"/>
</g>
<g fill="rgb(0%, 0%, 0%)" fill-opacity="1">
<use xlink:href="#glyph-0-1" x="401.767" y="308.088"/>
<use xlink:href="#glyph-0-4" x="406.7483" y="308.088"/>
</g>
<g fill="rgb(0%, 0%, 0%)" fill-opacity="1">
<use xlink:href="#glyph-0-6" x="426.016" y="308.088"/>
<use xlink:href="#glyph-0-0" x="430.9973" y="308.088"/>
</g>
<g fill="rgb(0%, 0%, 0%)" fill-opacity="1">
<use xlink:href="#glyph-0-6" x="450.264" y="308.088"/>
<use xlink:href="#glyph-0-1" x="455.2453" y="308.088"/>
</g>
<g fill="rgb(0%, 0%, 0%)" fill-opacity="1">
<use xlink:href="#glyph-0-6" x="474.513" y="308.088"/>
<use xlink:href="#glyph-0-2" x="479.4943" y="308.088"/>
</g>
<g fill="rgb(0%, 0%, 0%)" fill-opacity="1">
<use xlink:href="#glyph-0-6" x="498.762" y="308.088"/>
<use xlink:href="#glyph-0-3" x="503.7433" y="308.088"/>
</g>
<g fill="rgb(0%, 0%, 0%)" fill-opacity="1">
<use xlink:href="#glyph-0-6" x="523.01" y="308.088"/>
<use xlink:href="#glyph-0-4" x="527.9913" y="308.088"/>
</g>
<g fill="rgb(0%, 0%, 0%)" fill-opacity="1">
<use xlink:href="#glyph-0-2" x="547.259" y="308.088"/>
<use xlink:href="#glyph-0-0" x="552.2403" y="308.088"/>
</g>
<g fill="rgb(0%, 0%, 0%)" fill-opacity="1">
<use xlink:href="#glyph-0-2" x="571.508" y="308.088"/>
<use xlink:href="#glyph-0-1" x="576.4893" y="308.088"/>
</g>
<g fill="rgb(0%, 0%, 0%)" fill-opacity="1">
<use xlink:href="#glyph-0-2" x="595.756" y="308.088"/>
<use xlink:href="#glyph-0-2" x="600.7373" y="308.088"/>
</g>
<g fill="rgb(0%, 0%, 0%)" fill-opacity="1">
<use xlink:href="#glyph-0-2" x="620.005" y="308.088"/>
<use xlink:href="#glyph-0-3" x="624.9863" y="308.088"/>
</g>
<g fill="rgb(0%, 0%, 0%)" fill-opacity="1">
<use xlink:href="#glyph-0-2" x="644.254" y="308.088"/>
<use xlink:href="#glyph-0-4" x="649.2353" y="308.088"/>
</g>
<g fill="rgb(0%, 0%, 0%)" fill-opacity="1">
<use xlink:href="#glyph-0-7" x="668.502" y="308.088"/>
<use xlink:href="#glyph-0-0" x="673.4833" y="308.088"/>
</g>
<g fill="rgb(0%, 0%, 0%)" fill-opacity="1">
<use xlink:href="#glyph-0-0" x="58.766" y="301.358"/>
</g>
<g fill="rgb(0%, 0%, 0%)" fill-opacity="1">
<use xlink:href="#glyph-0-0" x="51.017" y="273.163"/>
</g>
<g fill="rgb(0%, 0%, 0%)" fill-opacity="1">
<use xlink:href="#glyph-1-0" x="55.9983" y="273.163"/>
</g>
<g fill="rgb(0%, 0%, 0%)" fill-opacity="1">
<use xlink:href="#glyph-0-7" x="58.76591" y="273.163"/>
</g>
<g fill="rgb(0%, 0%, 0%)" fill-opacity="1">
<use xlink:href="#glyph-0-5" x="58.766" y="244.967"/>
</g>
<g fill="rgb(0%, 0%, 0%)" fill-opacity="1">
<use xlink:href="#glyph-0-5" x="51.017" y="216.772"/>
</g>
<g fill="rgb(0%, 0%, 0%)" fill-opacity="1">
<use xlink:href="#glyph-1-0" x="55.9983" y="216.772"/>
</g>
<g fill="rgb(0%, 0%, 0%)" fill-opacity="1">
<use xlink:href="#glyph-0-7" x="58.76591" y="216.772"/>
</g>
<g fill="rgb(0%, 0%, 0%)" fill-opacity="1">
<use xlink:href="#glyph-0-1" x="58.766" y="188.576"/>
</g>
<g fill="rgb(0%, 0%, 0%)" fill-opacity="1">
<use xlink:href="#glyph-0-1" x="51.017" y="160.38"/>
</g>
<g fill="rgb(0%, 0%, 0%)" fill-opacity="1">
<use xlink:href="#glyph-1-0" x="55.9983" y="160.38"/>
</g>
<g fill="rgb(0%, 0%, 0%)" fill-opacity="1">
<use xlink:href="#glyph-0-7" x="58.76591" y="160.38"/>
</g>
<g fill="rgb(0%, 0%, 0%)" fill-opacity="1">
<use xlink:href="#glyph-0-6" x="58.766" y="132.185"/>
</g>
<g fill="rgb(0%, 0%, 0%)" fill-opacity="1">
<use xlink:href="#glyph-0-6" x="51.017" y="103.989"/>
</g>
<g fill="rgb(0%, 0%, 0%)" fill-opacity="1">
<use xlink:href="#glyph-1-0" x="55.9983" y="103.989"/>
</g>
<g fill="rgb(0%, 0%, 0%)" fill-opacity="1">
<use xlink:href="#glyph-0-7" x="58.76591" y="103.989"/>
</g>
<g fill="rgb(0%, 0%, 0%)" fill-opacity="1">
<use xlink:href="#glyph-0-2" x="58.766" y="75.794"/>
</g>
<g fill="rgb(0%, 0%, 0%)" fill-opacity="1">
<use xlink:href="#glyph-0-2" x="51.017" y="47.598"/>
</g>
<g fill="rgb(0%, 0%, 0%)" fill-opacity="1">
<use xlink:href="#glyph-1-0" x="55.9983" y="47.598"/>
</g>
<g fill="rgb(0%, 0%, 0%)" fill-opacity="1">
<use xlink:href="#glyph-0-7" x="58.76591" y="47.598"/>
</g>
<g fill="rgb(0%, 0%, 0%)" fill-opacity="1">
<use xlink:href="#glyph-0-7" x="58.766" y="19.403"/>
</g>
<g clip-path="url(#clip-5)">
<path fill-rule="nonzero" fill="rgb(0%, 0%, 0%)" fill-opacity="0.1" stroke-width="0.3985" stroke-linecap="butt" stroke-linejoin="miter" stroke="rgb(0%, 0%, 0%)" stroke-opacity="1" stroke-miterlimit="10" d="M 7.275969 -0.0004375 L 16.975188 -0.0004375 L 16.975188 56.390187 L 7.275969 56.390187 Z M 19.400969 -0.0004375 L 29.100188 -0.0004375 L 29.100188 84.589406 L 19.400969 84.589406 Z M 31.522063 -0.0004375 L 41.225188 -0.0004375 L 41.225188 103.386281 L 31.522063 103.386281 Z M 43.647063 -0.0004375 L 53.346281 -0.0004375 L 53.346281 117.483937 L 43.647063 117.483937 Z M 55.772063 -0.0004375 L 65.471281 -0.0004375 L 65.471281 128.761281 L 55.772063 128.761281 Z M 67.897063 -0.0004375 L 77.596281 -0.0004375 L 77.596281 138.159719 L 67.897063 138.159719 Z M 80.022063 -0.0004375 L 89.721281 -0.0004375 L 89.721281 146.214406 L 80.022063 146.214406 Z M 92.147063 -0.0004375 L 101.846281 -0.0004375 L 101.846281 153.265187 L 92.147063 153.265187 Z M 104.272063 -0.0004375 L 113.971281 -0.0004375 L 113.971281 159.530812 L 104.272063 159.530812 Z M 116.393156 -0.0004375 L 126.096281 -0.0004375 L 126.096281 165.171437 L 116.393156 165.171437 Z M 128.518156 -0.0004375 L 138.217375 -0.0004375 L 138.217375 170.296437 L 128.518156 170.296437 Z M 140.643156 -0.0004375 L 150.342375 -0.0004375 L 150.342375 174.995656 L 140.643156 174.995656 Z M 152.768156 -0.0004375 L 162.467375 -0.0004375 L 162.467375 179.331594 L 152.768156 179.331594 Z M 164.893156 -0.0004375 L 174.592375 -0.0004375 L 174.592375 183.362844 L 164.893156 183.362844 Z M 177.018156 -0.0004375 L 186.717375 -0.0004375 L 186.717375 187.120656 L 177.018156 187.120656 Z M 189.143156 -0.0004375 L 198.842375 -0.0004375 L 198.842375 190.644094 L 189.143156 190.644094 Z M 201.268156 -0.0004375 L 210.967375 -0.0004375 L 210.967375 193.9605 L 201.268156 193.9605 Z M 213.38925 -0.0004375 L 223.092375 -0.0004375 L 223.092375 197.093312 L 213.38925 197.093312 Z M 225.51425 -0.0004375 L 235.213469 -0.0004375 L 235.213469 200.062062 L 225.51425 200.062062 Z M 237.63925 -0.0004375 L 247.338469 -0.0004375 L 247.338469 202.882375 L 237.63925 202.882375 Z M 249.76425 -0.0004375 L 259.463469 -0.0004375 L 259.463469 205.569875 L 249.76425 205.569875 Z M 261.88925 -0.0004375 L 271.588469 -0.0004375 L 271.588469 208.132375 L 261.88925 208.132375 Z M 274.01425 -0.0004375 L 283.713469 -0.0004375 L 283.713469 210.5855 L 274.01425 210.5855 Z M 286.13925 -0.0004375 L 295.838469 -0.0004375 L 295.838469 212.933156 L 286.13925 212.933156 Z M 298.26425 -0.0004375 L 307.963469 -0.0004375 L 307.963469 215.190969 L 298.26425 215.190969 Z M 310.385344 -0.0004375 L 320.084563 -0.0004375 L 320.084563 217.358937 L 310.385344 217.358937 Z M 322.510344 -0.0004375 L 332.209563 -0.0004375 L 332.209563 219.448781 L 322.510344 219.448781 Z M 334.635344 -0.0004375 L 344.334563 -0.0004375 L 344.334563 221.4605 L 334.635344 221.4605 Z M 346.760344 -0.0004375 L 356.459563 -0.0004375 L 356.459563 223.405812 L 346.760344 223.405812 Z M 358.885344 -0.0004375 L 368.584563 -0.0004375 L 368.584563 225.284719 L 358.885344 225.284719 Z M 371.010344 -0.0004375 L 380.709563 -0.0004375 L 380.709563 227.105031 L 371.010344 227.105031 Z M 383.135344 -0.0004375 L 392.834563 -0.0004375 L 392.834563 228.86675 L 383.135344 228.86675 Z M 395.256438 -0.0004375 L 404.959563 -0.0004375 L 404.959563 230.577687 L 395.256438 230.577687 Z M 407.381438 -0.0004375 L 417.080656 -0.0004375 L 417.080656 232.233937 L 407.381438 232.233937 Z M 419.506438 -0.0004375 L 429.205656 -0.0004375 L 429.205656 233.847219 L 419.506438 233.847219 Z M 431.631438 -0.0004375 L 441.330656 -0.0004375 L 441.330656 235.413625 L 431.631438 235.413625 Z M 443.756438 -0.0004375 L 453.455656 -0.0004375 L 453.455656 236.937062 L 443.756438 236.937062 Z M 455.881438 -0.0004375 L 465.580656 -0.0004375 L 465.580656 238.421437 L 455.881438 238.421437 Z M 468.006438 -0.0004375 L 477.705656 -0.0004375 L 477.705656 239.86675 L 468.006438 239.86675 Z M 480.131438 -0.0004375 L 489.830656 -0.0004375 L 489.830656 241.276906 L 480.131438 241.276906 Z M 492.252531 -0.0004375 L 501.955656 -0.0004375 L 501.955656 242.651906 L 492.252531 242.651906 Z M 504.377531 -0.0004375 L 514.07675 -0.0004375 L 514.07675 243.99175 L 504.377531 243.99175 Z M 516.502531 -0.0004375 L 526.20175 -0.0004375 L 526.20175 245.30425 L 516.502531 245.30425 Z M 528.627531 -0.0004375 L 538.32675 -0.0004375 L 538.32675 246.5855 L 528.627531 246.5855 Z M 540.752531 -0.0004375 L 550.45175 -0.0004375 L 550.45175 247.839406 L 540.752531 247.839406 Z M 552.877531 -0.0004375 L 562.57675 -0.0004375 L 562.57675 249.065969 L 552.877531 249.065969 Z M 565.002531 -0.0004375 L 574.70175 -0.0004375 L 574.70175 250.269094 L 565.002531 250.269094 Z M 577.127531 -0.0004375 L 586.82675 -0.0004375 L 586.82675 251.440969 L 577.127531 251.440969 Z M 589.248625 -0.0004375 L 598.947844 -0.0004375 L 598.947844 252.593312 L 589.248625 252.593312 Z M 601.373625 -0.0004375 L 611.072844 -0.0004375 L 611.072844 253.718312 L 601.373625 253.718312 Z M 601.373625 -0.0004375 " transform="matrix(1, 0, 0, -1, 67.267, 298.148)"/>
</g>
<g clip-path="url(#clip-6)">
<path fill="none" stroke-width="0.3985" stroke-linecap="butt" stroke-linejoin="miter" stroke="rgb(0%, 0%, 0%)" stroke-opacity="1" stroke-miterlimit="10" d="M 12.123625 -0.0004375 C 12.123625 -0.0004375 16.459563 17.288625 18.123625 22.671437 C 19.791594 28.05425 22.459563 34.815969 24.127531 38.792531 C 25.791594 42.769094 28.463469 48.167531 30.127531 51.327687 C 31.791594 54.487844 34.463469 58.944875 36.127531 61.569875 C 37.7955 64.190969 40.463469 67.987844 42.131438 70.230031 C 43.7955 72.472219 46.463469 75.776906 48.131438 77.737844 C 49.7955 79.698781 52.467375 82.628469 54.131438 84.370656 C 55.7955 86.112844 58.467375 88.733937 60.131438 90.300344 C 61.799406 91.86675 64.467375 94.237844 66.135344 95.663625 C 67.799406 97.0855 70.471281 99.257375 72.135344 100.562062 C 73.799406 101.86675 76.471281 103.86675 78.135344 105.069875 C 79.799406 106.273 82.471281 108.120656 84.135344 109.237844 C 85.803313 110.355031 88.471281 112.077687 90.13925 113.120656 C 91.803313 114.163625 94.475188 115.776906 96.13925 116.753469 C 97.803313 117.733937 100.475188 119.253469 102.13925 120.175344 C 103.803313 121.097219 106.475188 122.526906 108.13925 123.394094 C 109.807219 124.265187 112.475188 125.61675 114.143156 126.440969 C 115.807219 127.265187 118.479094 128.546437 120.143156 129.331594 C 121.807219 130.112844 124.479094 131.3355 126.143156 132.077687 C 127.807219 132.823781 130.479094 133.987844 132.143156 134.698781 C 133.811125 135.409719 136.479094 136.523 138.147063 137.202687 C 139.811125 137.886281 142.483 138.952687 144.147063 139.605031 C 145.811125 140.253469 148.483 141.276906 150.147063 141.901906 C 151.815031 142.526906 154.483 143.511281 156.147063 144.112844 C 157.815031 144.714406 160.483 145.659719 162.150969 146.237844 C 163.815031 146.815969 166.486906 147.730031 168.150969 148.288625 C 169.815031 148.847219 172.486906 149.726125 174.150969 150.265187 C 175.818938 150.80425 178.486906 151.651906 180.150969 152.171437 C 181.818938 152.694875 184.486906 153.515187 186.154875 154.023 C 187.818938 154.526906 190.490813 155.323781 192.154875 155.812062 C 193.818938 156.30425 196.490813 157.069875 198.154875 157.542531 C 199.822844 158.019094 202.490813 158.769094 204.158781 159.230031 C 205.822844 159.687062 208.490813 160.409719 210.158781 160.858937 C 211.822844 161.30425 214.494719 162.015187 216.158781 162.448781 C 217.822844 162.886281 220.494719 163.569875 222.158781 163.99175 C 223.82675 164.413625 226.494719 165.073781 228.162688 165.487844 C 229.82675 165.898 232.498625 166.550344 234.162688 166.952687 C 235.82675 167.355031 238.498625 167.987844 240.162688 168.378469 C 241.82675 168.773 244.498625 169.398 246.162688 169.780812 C 247.830656 170.163625 250.498625 170.769094 252.166594 171.140187 C 253.830656 171.511281 256.502531 172.101125 258.166594 172.464406 C 259.830656 172.827687 262.502531 173.405812 264.166594 173.761281 C 265.830656 174.11675 268.502531 174.67925 270.166594 175.026906 C 271.834563 175.374562 274.502531 175.925344 276.1705 176.265187 C 277.834563 176.608937 280.506438 177.148 282.1705 177.480031 C 283.834563 177.812062 286.506438 178.339406 288.1705 178.667531 C 289.834563 178.99175 292.506438 179.511281 294.1705 179.827687 C 295.838469 180.148 298.506438 180.655812 300.174406 180.968312 C 301.838469 181.280812 304.510344 181.776906 306.174406 182.081594 C 307.838469 182.390187 310.510344 182.874562 312.174406 183.175344 C 313.842375 183.476125 316.510344 183.956594 318.174406 184.249562 C 319.842375 184.546437 322.510344 185.015187 324.178313 185.30425 C 325.842375 185.593312 328.51425 186.05425 330.178313 186.339406 C 331.842375 186.624562 334.51425 187.073781 336.178313 187.355031 C 337.846281 187.632375 340.51425 188.077687 342.182219 188.351125 C 343.846281 188.624562 346.51425 189.062062 348.182219 189.331594 C 349.846281 189.601125 352.518156 190.030812 354.182219 190.296437 C 355.846281 190.562062 358.518156 190.983937 360.182219 191.24175 C 361.850188 191.503469 364.518156 191.917531 366.186125 192.175344 C 367.850188 192.433156 370.522063 192.839406 372.186125 193.093312 C 373.850188 193.343312 376.522063 193.745656 378.186125 193.99175 C 379.850188 194.24175 382.522063 194.636281 384.186125 194.878469 C 385.854094 195.124562 388.522063 195.515187 390.190031 195.753469 C 391.854094 195.995656 394.525969 196.378469 396.190031 196.61675 C 397.854094 196.851125 400.525969 197.226125 402.190031 197.4605 C 403.854094 197.690969 406.525969 198.065969 408.190031 198.296437 C 409.858 198.526906 412.525969 198.894094 414.193938 199.120656 C 415.858 199.347219 418.529875 199.7105 420.193938 199.933156 C 421.858 200.159719 424.529875 200.511281 426.193938 200.730031 C 427.858 200.948781 430.529875 201.30425 432.193938 201.519094 C 433.861906 201.737844 436.529875 202.081594 438.197844 202.296437 C 439.861906 202.511281 442.533781 202.855031 444.197844 203.065969 C 445.861906 203.276906 448.533781 203.608937 450.197844 203.815969 C 451.865813 204.026906 454.533781 204.358937 456.197844 204.565969 C 457.865813 204.769094 460.533781 205.101125 462.20175 205.30425 C 463.865813 205.507375 466.537688 205.823781 468.20175 206.023 C 469.865813 206.222219 472.537688 206.542531 474.20175 206.74175 C 475.869719 206.940969 478.537688 207.257375 480.20175 207.456594 C 481.869719 207.651906 484.537688 207.968312 486.205656 208.163625 C 487.869719 208.358937 490.541594 208.663625 492.205656 208.855031 C 493.869719 209.046437 496.541594 209.347219 498.205656 209.538625 C 499.873625 209.726125 502.541594 210.026906 504.209563 210.214406 C 505.873625 210.398 508.541594 210.694875 510.209563 210.878469 C 511.873625 211.065969 514.5455 211.358937 516.209562 211.538625 C 517.873625 211.722219 520.5455 212.011281 522.209562 212.190969 C 523.877531 212.370656 526.5455 212.659719 528.213469 212.8355 C 529.877531 213.015187 532.549406 213.296437 534.213469 213.472219 C 535.877531 213.648 538.549406 213.92925 540.213469 214.105031 C 541.877531 214.276906 544.549406 214.55425 546.213469 214.726125 C 547.881437 214.898 550.549406 215.171437 552.217375 215.343312 C 553.881437 215.511281 556.553312 215.784719 558.217375 215.952687 C 559.881437 216.120656 562.553312 216.386281 564.217375 216.55425 C 565.881437 216.722219 568.553312 216.987844 570.217375 217.151906 C 571.885344 217.315969 574.553312 217.577687 576.221281 217.74175 C 577.885344 217.905812 580.557219 218.163625 582.221281 218.327687 C 583.885344 218.487844 586.557219 218.745656 588.221281 218.905812 C 589.885344 219.062062 592.557219 219.319875 594.221281 219.476125 C 595.88925 219.636281 598.557219 219.886281 600.225187 220.042531 C 601.88925 220.198781 606.225187 220.605031 606.225187 220.605031 " transform="matrix(1, 0, 0, -1, 67.267, 298.148)"/>
</g>
<g fill="rgb(0%, 0%, 0%)" fill-opacity="1">
<use xlink:href="#glyph-1-1" x="385.572" y="319.218"/>
</g>
<g fill="rgb(0%, 0%, 0%)" fill-opacity="1">
<use xlink:href="#glyph-2-0" x="42.24" y="151.333"/>
</g>
<path fill-rule="nonzero" fill="rgb(100%, 100%, 100%)" fill-opacity="1" stroke-width="0.3985" stroke-linecap="butt" stroke-linejoin="miter" stroke="rgb(0%, 0%, 0%)" stroke-opacity="1" stroke-miterlimit="10" d="M 19.475188 258.878469 L 110.783781 258.878469 L 110.783781 289.7105 L 19.475188 289.7105 Z M 19.475188 258.878469 " transform="matrix(1, 0, 0, -1, 67.267, 298.148)"/>
<path fill="none" stroke-width="0.3985" stroke-linecap="butt" stroke-linejoin="miter" stroke="rgb(0%, 0%, 0%)" stroke-opacity="1" stroke-miterlimit="10" d="M -1.496313 -0.0018125 L 1.495875 -0.0018125 Z M 7.0115 -0.0018125 L 9.999781 -0.0018125 Z M 15.515406 -0.0018125 L 18.503687 -0.0018125 Z M 15.515406 -0.0018125 " transform="matrix(1, 0, 0, -1, 91.426, 17.381)"/>
<g fill="rgb(0%, 0%, 0%)" fill-opacity="1">
<use xlink:href="#glyph-1-2" x="112.12" y="20.843"/>
</g>
<g fill="rgb(0%, 0%, 0%)" fill-opacity="1">
<use xlink:href="#glyph-3-0" x="120.401" y="22.337"/>
</g>
<g fill="rgb(0%, 0%, 0%)" fill-opacity="1">
<use xlink:href="#glyph-0-8" x="128.592" y="20.843"/>
</g>
<g fill="rgb(0%, 0%, 0%)" fill-opacity="1">
<use xlink:href="#glyph-4-0" x="139.108" y="13.371"/>
</g>
<g fill="rgb(0%, 0%, 0%)" fill-opacity="1">
<use xlink:href="#glyph-3-0" x="149.624" y="15.833"/>
</g>
<g fill="rgb(0%, 0%, 0%)" fill-opacity="1">
<use xlink:href="#glyph-3-1" x="149.624" y="23.831"/>
</g>
<g fill="rgb(0%, 0%, 0%)" fill-opacity="1">
<use xlink:href="#glyph-5-0" x="154.02656" y="23.831"/>
<use xlink:href="#glyph-5-1" x="160.142583" y="23.831"/>
</g>
<g fill="rgb(0%, 0%, 0%)" fill-opacity="1">
<use xlink:href="#glyph-5-1" x="167.685" y="16.92"/>
</g>
<path fill="none" stroke-width="0.398" stroke-linecap="butt" stroke-linejoin="miter" stroke="rgb(0%, 0%, 0%)" stroke-opacity="1" stroke-miterlimit="10" d="M -0.00025 0.0004375 L 4.402094 0.0004375 " transform="matrix(1, 0, 0, -1, 167.469, 18.352)"/>
<g fill="rgb(0%, 0%, 0%)" fill-opacity="1">
<use xlink:href="#glyph-3-1" x="167.469" y="24.278"/>
</g>
<path fill="none" stroke-width="0.3985" stroke-linecap="butt" stroke-linejoin="miter" stroke="rgb(0%, 0%, 0%)" stroke-opacity="1" stroke-miterlimit="10" d="M -0.00021875 0.0003125 C -0.00021875 0.0003125 6.144313 0.0003125 8.503688 0.0003125 C 10.863063 0.0003125 17.007594 0.0003125 17.007594 0.0003125 " transform="matrix(1, 0, 0, -1, 91.426, 30.805)"/>
<g fill="rgb(0%, 0%, 0%)" fill-opacity="1">
<use xlink:href="#glyph-0-9" x="131.578" y="33.794"/>
<use xlink:href="#glyph-0-10" x="134.34561" y="33.794"/>
<use xlink:href="#glyph-0-11" x="139.880831" y="33.794"/>
</g>
<g fill="rgb(0%, 0%, 0%)" fill-opacity="1">
<use xlink:href="#glyph-1-1" x="143.755286" y="33.794"/>
</g>
<g fill="rgb(0%, 0%, 0%)" fill-opacity="1">
<use xlink:href="#glyph-0-12" x="149.734839" y="33.794"/>
</g>
</svg>
