<?xml version="1.0" encoding="UTF-8"?>
<svg xmlns="http://www.w3.org/2000/svg" xmlns:xlink="http://www.w3.org/1999/xlink" width="690.143pt" height="353.488pt" viewBox="0 0 690.143 353.488">
<defs>
<g>
<g id="glyph-0-0">
<path d="M 4.578125 -3.1875 C 4.578125 -3.984375 4.53125 -4.78125 4.1875 -5.515625 C 3.734375 -6.484375 2.90625 -6.640625 2.5 -6.640625 C 1.890625 -6.640625 1.171875 -6.375 0.75 -5.453125 C 0.4375 -4.765625 0.390625 -3.984375 0.390625 -3.1875 C 0.390625 -2.4375 0.421875 -1.546875 0.84375 -0.78125 C 1.265625 0.015625 2 0.21875 2.484375 0.21875 C 3.015625 0.21875 3.78125 0.015625 4.21875 -0.9375 C 4.53125 -1.625 4.578125 -2.40625 4.578125 -3.1875 Z M 2.484375 0 C 2.09375 0 1.5 -0.25 1.328125 -1.203125 C 1.21875 -1.796875 1.21875 -2.71875 1.21875 -3.3125 C 1.21875 -3.953125 1.21875 -4.609375 1.296875 -5.140625 C 1.484375 -6.328125 2.234375 -6.421875 2.484375 -6.421875 C 2.8125 -6.421875 3.46875 -6.234375 3.65625 -5.25 C 3.765625 -4.6875 3.765625 -3.9375 3.765625 -3.3125 C 3.765625 -2.5625 3.765625 -1.890625 3.65625 -1.25 C 3.5 -0.296875 2.9375 0 2.484375 0 Z M 2.484375 0 "/>
</g>
<g id="glyph-0-1">
<path d="M 1.265625 -0.765625 L 2.328125 -1.796875 C 3.875 -3.171875 4.46875 -3.703125 4.46875 -4.703125 C 4.46875 -5.84375 3.578125 -6.640625 2.359375 -6.640625 C 1.234375 -6.640625 0.5 -5.71875 0.5 -4.828125 C 0.5 -4.28125 1 -4.28125 1.03125 -4.28125 C 1.203125 -4.28125 1.546875 -4.390625 1.546875 -4.8125 C 1.546875 -5.0625 1.359375 -5.328125 1.015625 -5.328125 C 0.9375 -5.328125 0.921875 -5.328125 0.890625 -5.3125 C 1.109375 -5.96875 1.65625 -6.328125 2.234375 -6.328125 C 3.140625 -6.328125 3.5625 -5.515625 3.5625 -4.703125 C 3.5625 -3.90625 3.078125 -3.125 2.515625 -2.5 L 0.609375 -0.375 C 0.5 -0.265625 0.5 -0.234375 0.5 0 L 4.203125 0 L 4.46875 -1.734375 L 4.234375 -1.734375 C 4.171875 -1.4375 4.109375 -1 4 -0.84375 C 3.9375 -0.765625 3.28125 -0.765625 3.0625 -0.765625 Z M 1.265625 -0.765625 "/>
</g>
<g id="glyph-0-2">
<path d="M 2.9375 -1.640625 L 2.9375 -0.78125 C 2.9375 -0.421875 2.90625 -0.3125 2.171875 -0.3125 L 1.96875 -0.3125 L 1.96875 0 C 2.375 -0.03125 2.890625 -0.03125 3.3125 -0.03125 C 3.734375 -0.03125 4.25 -0.03125 4.671875 0 L 4.671875 -0.3125 L 4.453125 -0.3125 C 3.71875 -0.3125 3.703125 -0.421875 3.703125 -0.78125 L 3.703125 -1.640625 L 4.6875 -1.640625 L 4.6875 -1.953125 L 3.703125 -1.953125 L 3.703125 -6.484375 C 3.703125 -6.6875 3.703125 -6.75 3.53125 -6.75 C 3.453125 -6.75 3.421875 -6.75 3.34375 -6.625 L 0.28125 -1.953125 L 0.28125 -1.640625 Z M 2.984375 -1.953125 L 0.5625 -1.953125 L 2.984375 -5.671875 Z M 2.984375 -1.953125 "/>
</g>
<g id="glyph-0-3">
<path d="M 1.3125 -3.265625 L 1.3125 -3.515625 C 1.3125 -6.03125 2.546875 -6.390625 3.0625 -6.390625 C 3.296875 -6.390625 3.71875 -6.328125 3.9375 -5.984375 C 3.78125 -5.984375 3.390625 -5.984375 3.390625 -5.546875 C 3.390625 -5.234375 3.625 -5.078125 3.84375 -5.078125 C 4 -5.078125 4.3125 -5.171875 4.3125 -5.5625 C 4.3125 -6.15625 3.875 -6.640625 3.046875 -6.640625 C 1.765625 -6.640625 0.421875 -5.359375 0.421875 -3.15625 C 0.421875 -0.484375 1.578125 0.21875 2.5 0.21875 C 3.609375 0.21875 4.5625 -0.71875 4.5625 -2.03125 C 4.5625 -3.296875 3.671875 -4.25 2.5625 -4.25 C 1.890625 -4.25 1.515625 -3.75 1.3125 -3.265625 Z M 2.5 -0.0625 C 1.875 -0.0625 1.578125 -0.65625 1.515625 -0.8125 C 1.328125 -1.28125 1.328125 -2.078125 1.328125 -2.25 C 1.328125 -3.03125 1.65625 -4.03125 2.546875 -4.03125 C 2.71875 -4.03125 3.171875 -4.03125 3.484375 -3.40625 C 3.65625 -3.046875 3.65625 -2.53125 3.65625 -2.046875 C 3.65625 -1.5625 3.65625 -1.0625 3.484375 -0.703125 C 3.1875 -0.109375 2.734375 -0.0625 2.5 -0.0625 Z M 2.5 -0.0625 "/>
</g>
<g id="glyph-0-4">
<path d="M 1.625 -4.5625 C 1.171875 -4.859375 1.125 -5.1875 1.125 -5.359375 C 1.125 -5.96875 1.78125 -6.390625 2.484375 -6.390625 C 3.203125 -6.390625 3.84375 -5.875 3.84375 -5.15625 C 3.84375 -4.578125 3.453125 -4.109375 2.859375 -3.765625 Z M 3.078125 -3.609375 C 3.796875 -3.984375 4.28125 -4.5 4.28125 -5.15625 C 4.28125 -6.078125 3.40625 -6.640625 2.5 -6.640625 C 1.5 -6.640625 0.6875 -5.90625 0.6875 -4.96875 C 0.6875 -4.796875 0.703125 -4.34375 1.125 -3.875 C 1.234375 -3.765625 1.609375 -3.515625 1.859375 -3.34375 C 1.28125 -3.046875 0.421875 -2.5 0.421875 -1.5 C 0.421875 -0.453125 1.4375 0.21875 2.484375 0.21875 C 3.609375 0.21875 4.5625 -0.609375 4.5625 -1.671875 C 4.5625 -2.03125 4.453125 -2.484375 4.0625 -2.90625 C 3.875 -3.109375 3.71875 -3.203125 3.078125 -3.609375 Z M 2.078125 -3.1875 L 3.3125 -2.40625 C 3.59375 -2.21875 4.0625 -1.921875 4.0625 -1.3125 C 4.0625 -0.578125 3.3125 -0.0625 2.5 -0.0625 C 1.640625 -0.0625 0.921875 -0.671875 0.921875 -1.5 C 0.921875 -2.078125 1.234375 -2.71875 2.078125 -3.1875 Z M 2.078125 -3.1875 "/>
</g>
<g id="glyph-0-5">
<path d="M 2.9375 -6.375 C 2.9375 -6.625 2.9375 -6.640625 2.703125 -6.640625 C 2.078125 -6 1.203125 -6 0.890625 -6 L 0.890625 -5.6875 C 1.09375 -5.6875 1.671875 -5.6875 2.1875 -5.953125 L 2.1875 -0.78125 C 2.1875 -0.421875 2.15625 -0.3125 1.265625 -0.3125 L 0.953125 -0.3125 L 0.953125 0 C 1.296875 -0.03125 2.15625 -0.03125 2.5625 -0.03125 C 2.953125 -0.03125 3.828125 -0.03125 4.171875 0 L 4.171875 -0.3125 L 3.859375 -0.3125 C 2.953125 -0.3125 2.9375 -0.421875 2.9375 -0.78125 Z M 2.9375 -6.375 "/>
</g>
<g id="glyph-0-6">
<path d="M 2.890625 -3.515625 C 3.703125 -3.78125 4.28125 -4.46875 4.28125 -5.265625 C 4.28125 -6.078125 3.40625 -6.640625 2.453125 -6.640625 C 1.453125 -6.640625 0.6875 -6.046875 0.6875 -5.28125 C 0.6875 -4.953125 0.90625 -4.765625 1.203125 -4.765625 C 1.5 -4.765625 1.703125 -4.984375 1.703125 -5.28125 C 1.703125 -5.765625 1.234375 -5.765625 1.09375 -5.765625 C 1.390625 -6.265625 2.046875 -6.390625 2.40625 -6.390625 C 2.828125 -6.390625 3.375 -6.171875 3.375 -5.28125 C 3.375 -5.15625 3.34375 -4.578125 3.09375 -4.140625 C 2.796875 -3.65625 2.453125 -3.625 2.203125 -3.625 C 2.125 -3.609375 1.890625 -3.59375 1.8125 -3.59375 C 1.734375 -3.578125 1.671875 -3.5625 1.671875 -3.46875 C 1.671875 -3.359375 1.734375 -3.359375 1.90625 -3.359375 L 2.34375 -3.359375 C 3.15625 -3.359375 3.53125 -2.6875 3.53125 -1.703125 C 3.53125 -0.34375 2.84375 -0.0625 2.40625 -0.0625 C 1.96875 -0.0625 1.21875 -0.234375 0.875 -0.8125 C 1.21875 -0.765625 1.53125 -0.984375 1.53125 -1.359375 C 1.53125 -1.71875 1.265625 -1.921875 0.984375 -1.921875 C 0.734375 -1.921875 0.421875 -1.78125 0.421875 -1.34375 C 0.421875 -0.4375 1.34375 0.21875 2.4375 0.21875 C 3.65625 0.21875 4.5625 -0.6875 4.5625 -1.703125 C 4.5625 -2.515625 3.921875 -3.296875 2.890625 -3.515625 Z M 2.890625 -3.515625 "/>
</g>
<g id="glyph-0-7">
<path d="M 4.46875 -2 C 4.46875 -3.1875 3.65625 -4.1875 2.578125 -4.1875 C 2.109375 -4.1875 1.671875 -4.03125 1.3125 -3.671875 L 1.3125 -5.625 C 1.515625 -5.5625 1.84375 -5.5 2.15625 -5.5 C 3.390625 -5.5 4.09375 -6.40625 4.09375 -6.53125 C 4.09375 -6.59375 4.0625 -6.640625 3.984375 -6.640625 C 3.984375 -6.640625 3.953125 -6.640625 3.90625 -6.609375 C 3.703125 -6.515625 3.21875 -6.3125 2.546875 -6.3125 C 2.15625 -6.3125 1.6875 -6.390625 1.21875 -6.59375 C 1.140625 -6.625 1.125 -6.625 1.109375 -6.625 C 1 -6.625 1 -6.546875 1 -6.390625 L 1 -3.4375 C 1 -3.265625 1 -3.1875 1.140625 -3.1875 C 1.21875 -3.1875 1.234375 -3.203125 1.28125 -3.265625 C 1.390625 -3.421875 1.75 -3.96875 2.5625 -3.96875 C 3.078125 -3.96875 3.328125 -3.515625 3.40625 -3.328125 C 3.5625 -2.953125 3.59375 -2.578125 3.59375 -2.078125 C 3.59375 -1.71875 3.59375 -1.125 3.34375 -0.703125 C 3.109375 -0.3125 2.734375 -0.0625 2.28125 -0.0625 C 1.5625 -0.0625 0.984375 -0.59375 0.8125 -1.171875 C 0.84375 -1.171875 0.875 -1.15625 0.984375 -1.15625 C 1.3125 -1.15625 1.484375 -1.40625 1.484375 -1.640625 C 1.484375 -1.890625 1.3125 -2.140625 0.984375 -2.140625 C 0.84375 -2.140625 0.5 -2.0625 0.5 -1.609375 C 0.5 -0.75 1.1875 0.21875 2.296875 0.21875 C 3.453125 0.21875 4.46875 -0.734375 4.46875 -2 Z M 4.46875 -2 "/>
</g>
<g id="glyph-0-8">
<path d="M 1.09375 -3.421875 L 1.09375 -0.75 C 1.09375 -0.3125 0.984375 -0.3125 0.3125 -0.3125 L 0.3125 0 C 0.671875 -0.015625 1.171875 -0.03125 1.453125 -0.03125 C 1.703125 -0.03125 2.21875 -0.015625 2.5625 0 L 2.5625 -0.3125 C 1.890625 -0.3125 1.78125 -0.3125 1.78125 -0.75 L 1.78125 -2.59375 C 1.78125 -3.625 2.5 -4.1875 3.125 -4.1875 C 3.765625 -4.1875 3.875 -3.65625 3.875 -3.078125 L 3.875 -0.75 C 3.875 -0.3125 3.765625 -0.3125 3.09375 -0.3125 L 3.09375 0 C 3.4375 -0.015625 3.953125 -0.03125 4.21875 -0.03125 C 4.46875 -0.03125 5 -0.015625 5.328125 0 L 5.328125 -0.3125 C 4.8125 -0.3125 4.5625 -0.3125 4.5625 -0.609375 L 4.5625 -2.515625 C 4.5625 -3.375 4.5625 -3.671875 4.25 -4.03125 C 4.109375 -4.203125 3.78125 -4.40625 3.203125 -4.40625 C 2.46875 -4.40625 2 -3.984375 1.71875 -3.359375 L 1.71875 -4.40625 L 0.3125 -4.296875 L 0.3125 -3.984375 C 1.015625 -3.984375 1.09375 -3.921875 1.09375 -3.421875 Z M 1.09375 -3.421875 "/>
</g>
<g id="glyph-0-9">
<path d="M 4.6875 -2.140625 C 4.6875 -3.40625 3.703125 -4.46875 2.5 -4.46875 C 1.25 -4.46875 0.28125 -3.375 0.28125 -2.140625 C 0.28125 -0.84375 1.3125 0.109375 2.484375 0.109375 C 3.6875 0.109375 4.6875 -0.875 4.6875 -2.140625 Z M 2.5 -0.140625 C 2.0625 -0.140625 1.625 -0.34375 1.359375 -0.8125 C 1.109375 -1.25 1.109375 -1.859375 1.109375 -2.21875 C 1.109375 -2.609375 1.109375 -3.140625 1.34375 -3.578125 C 1.609375 -4.03125 2.078125 -4.25 2.484375 -4.25 C 2.921875 -4.25 3.34375 -4.03125 3.609375 -3.59375 C 3.875 -3.171875 3.875 -2.59375 3.875 -2.21875 C 3.875 -1.859375 3.875 -1.3125 3.65625 -0.875 C 3.421875 -0.421875 2.984375 -0.140625 2.5 -0.140625 Z M 2.5 -0.140625 "/>
</g>
<g id="glyph-0-10">
<path d="M 5.171875 -1.328125 L 7.40625 -1.328125 C 7.546875 -1.328125 7.734375 -1.328125 7.734375 -1.53125 C 7.734375 -1.71875 7.546875 -1.71875 7.390625 -1.71875 L 5.296875 -1.71875 L 5.6875 -3.265625 L 7.390625 -3.265625 C 7.546875 -3.265625 7.734375 -3.265625 7.734375 -3.453125 C 7.734375 -3.65625 7.546875 -3.65625 7.40625 -3.65625 L 5.8125 -3.65625 L 6.59375 -6.546875 C 6.59375 -6.5625 6.625 -6.671875 6.625 -6.71875 C 6.625 -6.828125 6.546875 -6.921875 6.4375 -6.921875 C 6.265625 -6.921875 6.234375 -6.78125 6.203125 -6.671875 L 5.40625 -3.65625 L 3.53125 -3.65625 L 4.3125 -6.546875 C 4.3125 -6.5625 4.34375 -6.671875 4.34375 -6.71875 C 4.34375 -6.828125 4.25 -6.921875 4.140625 -6.921875 C 3.984375 -6.921875 3.953125 -6.78125 3.921875 -6.671875 L 3.125 -3.65625 L 0.890625 -3.65625 C 0.75 -3.65625 0.5625 -3.65625 0.5625 -3.453125 C 0.5625 -3.265625 0.75 -3.265625 0.890625 -3.265625 L 3 -3.265625 L 2.609375 -1.71875 L 0.890625 -1.71875 C 0.75 -1.71875 0.5625 -1.71875 0.5625 -1.53125 C 0.5625 -1.328125 0.75 -1.328125 0.890625 -1.328125 L 2.484375 -1.328125 L 1.703125 1.5625 C 1.6875 1.578125 1.671875 1.6875 1.671875 1.734375 C 1.671875 1.84375 1.75 1.9375 1.859375 1.9375 C 2.03125 1.9375 2.046875 1.796875 2.078125 1.6875 L 2.890625 -1.328125 L 4.765625 -1.328125 L 3.984375 1.5625 C 3.984375 1.578125 3.953125 1.6875 3.953125 1.734375 C 3.953125 1.84375 4.03125 1.9375 4.140625 1.9375 C 4.3125 1.9375 4.34375 1.796875 4.359375 1.6875 Z M 3.015625 -1.71875 L 3.40625 -3.265625 L 5.28125 -3.265625 L 4.890625 -1.71875 Z M 3.015625 -1.71875 "/>
</g>
<g id="glyph-0-11">
<path d="M 1.171875 -2.171875 C 1.171875 -3.796875 1.984375 -4.21875 2.515625 -4.21875 C 2.609375 -4.21875 3.234375 -4.203125 3.578125 -3.84375 C 3.171875 -3.8125 3.109375 -3.515625 3.109375 -3.390625 C 3.109375 -3.125 3.296875 -2.9375 3.5625 -2.9375 C 3.828125 -2.9375 4.03125 -3.09375 4.03125 -3.40625 C 4.03125 -4.078125 3.265625 -4.46875 2.5 -4.46875 C 1.25 -4.46875 0.34375 -3.390625 0.34375 -2.15625 C 0.34375 -0.875 1.328125 0.109375 2.484375 0.109375 C 3.8125 0.109375 4.140625 -1.09375 4.140625 -1.1875 C 4.140625 -1.28125 4.03125 -1.28125 4 -1.28125 C 3.921875 -1.28125 3.890625 -1.25 3.875 -1.1875 C 3.59375 -0.265625 2.9375 -0.140625 2.578125 -0.140625 C 2.046875 -0.140625 1.171875 -0.5625 1.171875 -2.171875 Z M 1.171875 -2.171875 "/>
</g>
<g id="glyph-0-12">
<path d="M 3.78125 -0.546875 L 3.78125 0.109375 L 5.25 0 L 5.25 -0.3125 C 4.5625 -0.3125 4.46875 -0.375 4.46875 -0.875 L 4.46875 -6.921875 L 3.046875 -6.8125 L 3.046875 -6.5 C 3.734375 -6.5 3.8125 -6.4375 3.8125 -5.9375 L 3.8125 -3.78125 C 3.53125 -4.140625 3.09375 -4.40625 2.5625 -4.40625 C 1.390625 -4.40625 0.34375 -3.421875 0.34375 -2.140625 C 0.34375 -0.875 1.3125 0.109375 2.453125 0.109375 C 3.09375 0.109375 3.53125 -0.234375 3.78125 -0.546875 Z M 3.78125 -3.21875 L 3.78125 -1.171875 C 3.78125 -1 3.78125 -0.984375 3.671875 -0.8125 C 3.375 -0.328125 2.9375 -0.109375 2.5 -0.109375 C 2.046875 -0.109375 1.6875 -0.375 1.453125 -0.75 C 1.203125 -1.15625 1.171875 -1.71875 1.171875 -2.140625 C 1.171875 -2.5 1.1875 -3.09375 1.46875 -3.546875 C 1.6875 -3.859375 2.0625 -4.1875 2.609375 -4.1875 C 2.953125 -4.1875 3.375 -4.03125 3.671875 -3.59375 C 3.78125 -3.421875 3.78125 -3.40625 3.78125 -3.21875 Z M 3.78125 -3.21875 "/>
</g>
<g id="glyph-0-13">
<path d="M 1.765625 -4.40625 L 0.375 -4.296875 L 0.375 -3.984375 C 1.015625 -3.984375 1.109375 -3.921875 1.109375 -3.4375 L 1.109375 -0.75 C 1.109375 -0.3125 1 -0.3125 0.328125 -0.3125 L 0.328125 0 C 0.640625 -0.015625 1.1875 -0.03125 1.421875 -0.03125 C 1.78125 -0.03125 2.125 -0.015625 2.46875 0 L 2.46875 -0.3125 C 1.796875 -0.3125 1.765625 -0.359375 1.765625 -0.75 Z M 1.796875 -6.140625 C 1.796875 -6.453125 1.5625 -6.671875 1.28125 -6.671875 C 0.96875 -6.671875 0.75 -6.40625 0.75 -6.140625 C 0.75 -5.875 0.96875 -5.609375 1.28125 -5.609375 C 1.5625 -5.609375 1.796875 -5.828125 1.796875 -6.140625 Z M 1.796875 -6.140625 "/>
</g>
<g id="glyph-0-14">
<path d="M 1.71875 -3.984375 L 3.15625 -3.984375 L 3.15625 -4.296875 L 1.71875 -4.296875 L 1.71875 -6.125 L 1.46875 -6.125 C 1.46875 -5.3125 1.171875 -4.25 0.1875 -4.203125 L 0.1875 -3.984375 L 1.03125 -3.984375 L 1.03125 -1.234375 C 1.03125 -0.015625 1.96875 0.109375 2.328125 0.109375 C 3.03125 0.109375 3.3125 -0.59375 3.3125 -1.234375 L 3.3125 -1.796875 L 3.0625 -1.796875 L 3.0625 -1.25 C 3.0625 -0.515625 2.765625 -0.140625 2.390625 -0.140625 C 1.71875 -0.140625 1.71875 -1.046875 1.71875 -1.21875 Z M 1.71875 -3.984375 "/>
</g>
<g id="glyph-0-15">
<path d="M 2.078125 -1.9375 C 2.296875 -1.890625 3.109375 -1.734375 3.109375 -1.015625 C 3.109375 -0.515625 2.765625 -0.109375 1.984375 -0.109375 C 1.140625 -0.109375 0.78125 -0.671875 0.59375 -1.53125 C 0.5625 -1.65625 0.5625 -1.6875 0.453125 -1.6875 C 0.328125 -1.6875 0.328125 -1.625 0.328125 -1.453125 L 0.328125 -0.125 C 0.328125 0.046875 0.328125 0.109375 0.4375 0.109375 C 0.484375 0.109375 0.5 0.09375 0.6875 -0.09375 C 0.703125 -0.109375 0.703125 -0.125 0.890625 -0.3125 C 1.328125 0.09375 1.78125 0.109375 1.984375 0.109375 C 3.125 0.109375 3.59375 -0.5625 3.59375 -1.28125 C 3.59375 -1.796875 3.296875 -2.109375 3.171875 -2.21875 C 2.84375 -2.546875 2.453125 -2.625 2.03125 -2.703125 C 1.46875 -2.8125 0.8125 -2.9375 0.8125 -3.515625 C 0.8125 -3.875 1.0625 -4.28125 1.921875 -4.28125 C 3.015625 -4.28125 3.078125 -3.375 3.09375 -3.078125 C 3.09375 -2.984375 3.1875 -2.984375 3.203125 -2.984375 C 3.34375 -2.984375 3.34375 -3.03125 3.34375 -3.21875 L 3.34375 -4.234375 C 3.34375 -4.390625 3.34375 -4.46875 3.234375 -4.46875 C 3.1875 -4.46875 3.15625 -4.46875 3.03125 -4.34375 C 3 -4.3125 2.90625 -4.21875 2.859375 -4.1875 C 2.484375 -4.46875 2.078125 -4.46875 1.921875 -4.46875 C 0.703125 -4.46875 0.328125 -3.796875 0.328125 -3.234375 C 0.328125 -2.890625 0.484375 -2.609375 0.75 -2.390625 C 1.078125 -2.140625 1.359375 -2.078125 2.078125 -1.9375 Z M 2.078125 -1.9375 "/>
</g>
<g id="glyph-0-16">
<path d="M 6.84375 -3.265625 C 7 -3.265625 7.1875 -3.265625 7.1875 -3.453125 C 7.1875 -3.65625 7 -3.65625 6.859375 -3.65625 L 0.890625 -3.65625 C 0.75 -3.65625 0.5625 -3.65625 0.5625 -3.453125 C 0.5625 -3.265625 0.75 -3.265625 0.890625 -3.265625 Z M 6.859375 -1.328125 C 7 -1.328125 7.1875 -1.328125 7.1875 -1.53125 C 7.1875 -1.71875 7 -1.71875 6.84375 -1.71875 L 0.890625 -1.71875 C 0.75 -1.71875 0.5625 -1.71875 0.5625 -1.53125 C 0.5625 -1.328125 0.75 -1.328125 0.890625 -1.328125 Z M 6.859375 -1.328125 "/>
</g>
<g id="glyph-0-17">
<path d="M 1.765625 -6.921875 L 0.328125 -6.8125 L 0.328125 -6.5 C 1.03125 -6.5 1.109375 -6.4375 1.109375 -5.9375 L 1.109375 -0.75 C 1.109375 -0.3125 1 -0.3125 0.328125 -0.3125 L 0.328125 0 C 0.65625 -0.015625 1.1875 -0.03125 1.4375 -0.03125 C 1.6875 -0.03125 2.171875 -0.015625 2.546875 0 L 2.546875 -0.3125 C 1.875 -0.3125 1.765625 -0.3125 1.765625 -0.75 Z M 1.765625 -6.921875 "/>
</g>
<g id="glyph-0-18">
<path d="M 3.296875 2.390625 C 3.296875 2.359375 3.296875 2.34375 3.125 2.171875 C 1.890625 0.921875 1.5625 -0.96875 1.5625 -2.5 C 1.5625 -4.234375 1.9375 -5.96875 3.171875 -7.203125 C 3.296875 -7.328125 3.296875 -7.34375 3.296875 -7.375 C 3.296875 -7.453125 3.265625 -7.484375 3.203125 -7.484375 C 3.09375 -7.484375 2.203125 -6.796875 1.609375 -5.53125 C 1.109375 -4.4375 0.984375 -3.328125 0.984375 -2.5 C 0.984375 -1.71875 1.09375 -0.515625 1.640625 0.625 C 2.25 1.84375 3.09375 2.5 3.203125 2.5 C 3.265625 2.5 3.296875 2.46875 3.296875 2.390625 Z M 3.296875 2.390625 "/>
</g>
<g id="glyph-0-19">
<path d="M 2.875 -2.5 C 2.875 -3.265625 2.765625 -4.46875 2.21875 -5.609375 C 1.625 -6.828125 0.765625 -7.484375 0.671875 -7.484375 C 0.609375 -7.484375 0.5625 -7.4375 0.5625 -7.375 C 0.5625 -7.34375 0.5625 -7.328125 0.75 -7.140625 C 1.734375 -6.15625 2.296875 -4.578125 2.296875 -2.5 C 2.296875 -0.78125 1.9375 0.96875 0.703125 2.21875 C 0.5625 2.34375 0.5625 2.359375 0.5625 2.390625 C 0.5625 2.453125 0.609375 2.5 0.671875 2.5 C 0.765625 2.5 1.671875 1.8125 2.25 0.546875 C 2.765625 -0.546875 2.875 -1.65625 2.875 -2.5 Z M 2.875 -2.5 "/>
</g>
<g id="glyph-1-0">
<path d="M 1.90625 -0.53125 C 1.90625 -0.8125 1.671875 -1.0625 1.390625 -1.0625 C 1.09375 -1.0625 0.859375 -0.8125 0.859375 -0.53125 C 0.859375 -0.234375 1.09375 0 1.390625 0 C 1.671875 0 1.90625 -0.234375 1.90625 -0.53125 Z M 1.90625 -0.53125 "/>
</g>
<g id="glyph-1-1">
<path d="M 7.609375 -6.046875 C 7.703125 -6.40625 7.71875 -6.5 8.4375 -6.5 C 8.703125 -6.5 8.78125 -6.5 8.78125 -6.703125 C 8.78125 -6.8125 8.671875 -6.8125 8.640625 -6.8125 C 8.359375 -6.8125 7.640625 -6.78125 7.359375 -6.78125 C 7.078125 -6.78125 6.375 -6.8125 6.078125 -6.8125 C 6 -6.8125 5.890625 -6.8125 5.890625 -6.609375 C 5.890625 -6.5 5.984375 -6.5 6.171875 -6.5 C 6.1875 -6.5 6.375 -6.5 6.546875 -6.484375 C 6.734375 -6.453125 6.8125 -6.453125 6.8125 -6.3125 C 6.8125 -6.28125 6.8125 -6.265625 6.78125 -6.125 L 6.1875 -3.703125 L 3.140625 -3.703125 L 3.734375 -6.046875 C 3.8125 -6.40625 3.84375 -6.5 4.5625 -6.5 C 4.828125 -6.5 4.90625 -6.5 4.90625 -6.703125 C 4.90625 -6.8125 4.796875 -6.8125 4.765625 -6.8125 C 4.484375 -6.8125 3.765625 -6.78125 3.484375 -6.78125 C 3.203125 -6.78125 2.5 -6.8125 2.203125 -6.8125 C 2.125 -6.8125 2.015625 -6.8125 2.015625 -6.609375 C 2.015625 -6.5 2.109375 -6.5 2.296875 -6.5 C 2.3125 -6.5 2.5 -6.5 2.671875 -6.484375 C 2.84375 -6.453125 2.9375 -6.453125 2.9375 -6.3125 C 2.9375 -6.28125 2.9375 -6.25 2.90625 -6.125 L 1.5625 -0.78125 C 1.46875 -0.390625 1.453125 -0.3125 0.65625 -0.3125 C 0.484375 -0.3125 0.390625 -0.3125 0.390625 -0.109375 C 0.390625 0 0.515625 0 0.53125 0 C 0.8125 0 1.515625 -0.03125 1.796875 -0.03125 C 2 -0.03125 2.21875 -0.015625 2.4375 -0.015625 C 2.65625 -0.015625 2.875 0 3.078125 0 C 3.15625 0 3.28125 0 3.28125 -0.203125 C 3.28125 -0.3125 3.1875 -0.3125 3 -0.3125 C 2.625 -0.3125 2.359375 -0.3125 2.359375 -0.484375 C 2.359375 -0.546875 2.375 -0.59375 2.375 -0.65625 L 3.0625 -3.390625 L 6.09375 -3.390625 C 5.6875 -1.734375 5.453125 -0.78125 5.40625 -0.640625 C 5.3125 -0.3125 5.125 -0.3125 4.5 -0.3125 C 4.359375 -0.3125 4.265625 -0.3125 4.265625 -0.109375 C 4.265625 0 4.390625 0 4.40625 0 C 4.6875 0 5.390625 -0.03125 5.671875 -0.03125 C 5.875 -0.03125 6.09375 -0.015625 6.3125 -0.015625 C 6.53125 -0.015625 6.75 0 6.953125 0 C 7.03125 0 7.15625 0 7.15625 -0.203125 C 7.15625 -0.3125 7.0625 -0.3125 6.875 -0.3125 C 6.515625 -0.3125 6.234375 -0.3125 6.234375 -0.484375 C 6.234375 -0.546875 6.25 -0.59375 6.265625 -0.65625 Z M 7.609375 -6.046875 "/>
</g>
<g id="glyph-1-2">
<path d="M 0.875 -0.59375 C 0.84375 -0.4375 0.78125 -0.203125 0.78125 -0.15625 C 0.78125 0.015625 0.921875 0.109375 1.078125 0.109375 C 1.203125 0.109375 1.375 0.03125 1.453125 -0.171875 C 1.453125 -0.1875 1.578125 -0.65625 1.640625 -0.90625 L 1.859375 -1.796875 C 1.90625 -2.03125 1.96875 -2.25 2.03125 -2.46875 C 2.0625 -2.640625 2.140625 -2.9375 2.15625 -2.96875 C 2.296875 -3.28125 2.828125 -4.1875 3.78125 -4.1875 C 4.234375 -4.1875 4.3125 -3.8125 4.3125 -3.484375 C 4.3125 -2.875 3.828125 -1.59375 3.671875 -1.171875 C 3.578125 -0.9375 3.5625 -0.8125 3.5625 -0.703125 C 3.5625 -0.234375 3.921875 0.109375 4.390625 0.109375 C 5.328125 0.109375 5.6875 -1.34375 5.6875 -1.421875 C 5.6875 -1.53125 5.609375 -1.53125 5.578125 -1.53125 C 5.46875 -1.53125 5.46875 -1.5 5.421875 -1.34375 C 5.21875 -0.671875 4.890625 -0.109375 4.40625 -0.109375 C 4.234375 -0.109375 4.171875 -0.203125 4.171875 -0.4375 C 4.171875 -0.6875 4.25 -0.921875 4.34375 -1.140625 C 4.53125 -1.671875 4.953125 -2.765625 4.953125 -3.34375 C 4.953125 -4 4.53125 -4.40625 3.8125 -4.40625 C 2.90625 -4.40625 2.421875 -3.765625 2.25 -3.53125 C 2.203125 -4.09375 1.796875 -4.40625 1.328125 -4.40625 C 0.875 -4.40625 0.6875 -4.015625 0.59375 -3.84375 C 0.421875 -3.5 0.296875 -2.90625 0.296875 -2.875 C 0.296875 -2.765625 0.390625 -2.765625 0.40625 -2.765625 C 0.515625 -2.765625 0.515625 -2.78125 0.578125 -3 C 0.75 -3.703125 0.953125 -4.1875 1.3125 -4.1875 C 1.5 -4.1875 1.609375 -4.0625 1.609375 -3.734375 C 1.609375 -3.515625 1.578125 -3.40625 1.453125 -2.890625 Z M 0.875 -0.59375 "/>
</g>
<g id="glyph-2-0">
<path d="M -3.421875 -1.09375 L -0.75 -1.09375 C -0.3125 -1.09375 -0.3125 -0.984375 -0.3125 -0.3125 L 0 -0.3125 C -0.015625 -0.671875 -0.03125 -1.171875 -0.03125 -1.453125 C -0.03125 -1.703125 -0.015625 -2.21875 0 -2.5625 L -0.3125 -2.5625 C -0.3125 -1.890625 -0.3125 -1.78125 -0.75 -1.78125 L -2.59375 -1.78125 C -3.625 -1.78125 -4.1875 -2.5 -4.1875 -3.125 C -4.1875 -3.765625 -3.65625 -3.875 -3.078125 -3.875 L -0.75 -3.875 C -0.3125 -3.875 -0.3125 -3.765625 -0.3125 -3.09375 L 0 -3.09375 C -0.015625 -3.4375 -0.03125 -3.953125 -0.03125 -4.21875 C -0.03125 -4.46875 -0.015625 -5 0 -5.328125 L -0.3125 -5.328125 C -0.3125 -4.8125 -0.3125 -4.5625 -0.609375 -4.5625 L -2.515625 -4.5625 C -3.375 -4.5625 -3.671875 -4.5625 -4.03125 -4.25 C -4.203125 -4.109375 -4.40625 -3.78125 -4.40625 -3.203125 C -4.40625 -2.46875 -3.984375 -2 -3.359375 -1.71875 L -4.40625 -1.71875 L -4.296875 -0.3125 L -3.984375 -0.3125 C -3.984375 -1.015625 -3.921875 -1.09375 -3.421875 -1.09375 Z M -3.421875 -1.09375 "/>
</g>
<g id="glyph-2-1">
<path d="M -2.140625 -4.6875 C -3.40625 -4.6875 -4.46875 -3.703125 -4.46875 -2.5 C -4.46875 -1.25 -3.375 -0.28125 -2.140625 -0.28125 C -0.84375 -0.28125 0.109375 -1.3125 0.109375 -2.484375 C 0.109375 -3.6875 -0.875 -4.6875 -2.140625 -4.6875 Z M -0.140625 -2.5 C -0.140625 -2.0625 -0.34375 -1.625 -0.8125 -1.359375 C -1.25 -1.109375 -1.859375 -1.109375 -2.21875 -1.109375 C -2.609375 -1.109375 -3.140625 -1.109375 -3.578125 -1.34375 C -4.03125 -1.609375 -4.25 -2.078125 -4.25 -2.484375 C -4.25 -2.921875 -4.03125 -3.34375 -3.59375 -3.609375 C -3.171875 -3.875 -2.59375 -3.875 -2.21875 -3.875 C -1.859375 -3.875 -1.3125 -3.875 -0.875 -3.65625 C -0.421875 -3.421875 -0.140625 -2.984375 -0.140625 -2.5 Z M -0.140625 -2.5 "/>
</g>
<g id="glyph-2-2">
<path d="M -1.328125 -5.171875 L -1.328125 -7.40625 C -1.328125 -7.546875 -1.328125 -7.734375 -1.53125 -7.734375 C -1.71875 -7.734375 -1.71875 -7.546875 -1.71875 -7.390625 L -1.71875 -5.296875 L -3.265625 -5.6875 L -3.265625 -7.390625 C -3.265625 -7.546875 -3.265625 -7.734375 -3.453125 -7.734375 C -3.65625 -7.734375 -3.65625 -7.546875 -3.65625 -7.40625 L -3.65625 -5.8125 L -6.546875 -6.59375 C -6.5625 -6.59375 -6.671875 -6.625 -6.71875 -6.625 C -6.828125 -6.625 -6.921875 -6.546875 -6.921875 -6.4375 C -6.921875 -6.265625 -6.78125 -6.234375 -6.671875 -6.203125 L -3.65625 -5.40625 L -3.65625 -3.53125 L -6.546875 -4.3125 C -6.5625 -4.3125 -6.671875 -4.34375 -6.71875 -4.34375 C -6.828125 -4.34375 -6.921875 -4.25 -6.921875 -4.140625 C -6.921875 -3.984375 -6.78125 -3.953125 -6.671875 -3.921875 L -3.65625 -3.125 L -3.65625 -0.890625 C -3.65625 -0.75 -3.65625 -0.5625 -3.453125 -0.5625 C -3.265625 -0.5625 -3.265625 -0.75 -3.265625 -0.890625 L -3.265625 -3 L -1.71875 -2.609375 L -1.71875 -0.890625 C -1.71875 -0.75 -1.71875 -0.5625 -1.53125 -0.5625 C -1.328125 -0.5625 -1.328125 -0.75 -1.328125 -0.890625 L -1.328125 -2.484375 L 1.5625 -1.703125 C 1.578125 -1.6875 1.6875 -1.671875 1.734375 -1.671875 C 1.84375 -1.671875 1.9375 -1.75 1.9375 -1.859375 C 1.9375 -2.03125 1.796875 -2.046875 1.6875 -2.078125 L -1.328125 -2.890625 L -1.328125 -4.765625 L 1.5625 -3.984375 C 1.578125 -3.984375 1.6875 -3.953125 1.734375 -3.953125 C 1.84375 -3.953125 1.9375 -4.03125 1.9375 -4.140625 C 1.9375 -4.3125 1.796875 -4.34375 1.6875 -4.359375 Z M -1.71875 -3.015625 L -3.265625 -3.40625 L -3.265625 -5.28125 L -1.71875 -4.890625 Z M -1.71875 -3.015625 "/>
</g>
<g id="glyph-2-3">
<path d="M -2.171875 -1.171875 C -3.796875 -1.171875 -4.21875 -1.984375 -4.21875 -2.515625 C -4.21875 -2.609375 -4.203125 -3.234375 -3.84375 -3.578125 C -3.8125 -3.171875 -3.515625 -3.109375 -3.390625 -3.109375 C -3.125 -3.109375 -2.9375 -3.296875 -2.9375 -3.5625 C -2.9375 -3.828125 -3.09375 -4.03125 -3.40625 -4.03125 C -4.078125 -4.03125 -4.46875 -3.265625 -4.46875 -2.5 C -4.46875 -1.25 -3.390625 -0.34375 -2.15625 -0.34375 C -0.875 -0.34375 0.109375 -1.328125 0.109375 -2.484375 C 0.109375 -3.8125 -1.09375 -4.140625 -1.1875 -4.140625 C -1.28125 -4.140625 -1.28125 -4.03125 -1.28125 -4 C -1.28125 -3.921875 -1.25 -3.890625 -1.1875 -3.875 C -0.265625 -3.59375 -0.140625 -2.9375 -0.140625 -2.578125 C -0.140625 -2.046875 -0.5625 -1.171875 -2.171875 -1.171875 Z M -2.171875 -1.171875 "/>
</g>
<g id="glyph-2-4">
<path d="M -0.75 -1.09375 C -0.3125 -1.09375 -0.3125 -0.984375 -0.3125 -0.3125 L 0 -0.3125 C -0.015625 -0.671875 -0.03125 -1.171875 -0.03125 -1.453125 C -0.03125 -1.703125 -0.015625 -2.21875 0 -2.5625 L -0.3125 -2.5625 C -0.3125 -1.890625 -0.3125 -1.78125 -0.75 -1.78125 L -2.59375 -1.78125 C -3.625 -1.78125 -4.1875 -2.5 -4.1875 -3.125 C -4.1875 -3.765625 -3.65625 -3.875 -3.078125 -3.875 L -0.75 -3.875 C -0.3125 -3.875 -0.3125 -3.765625 -0.3125 -3.09375 L 0 -3.09375 C -0.015625 -3.4375 -0.03125 -3.953125 -0.03125 -4.21875 C -0.03125 -4.46875 -0.015625 -5 0 -5.328125 L -0.3125 -5.328125 C -0.3125 -4.8125 -0.3125 -4.5625 -0.609375 -4.5625 L -2.515625 -4.5625 C -3.375 -4.5625 -3.671875 -4.5625 -4.03125 -4.25 C -4.203125 -4.109375 -4.40625 -3.78125 -4.40625 -3.203125 C -4.40625 -2.359375 -3.8125 -1.921875 -3.421875 -1.75 L -6.921875 -1.75 L -6.8125 -0.3125 L -6.5 -0.3125 C -6.5 -1.015625 -6.4375 -1.09375 -5.9375 -1.09375 Z M -0.75 -1.09375 "/>
</g>
<g id="glyph-2-5">
<path d="M -2.515625 -1.109375 C -4 -1.171875 -4.25 -2.015625 -4.25 -2.359375 C -4.25 -3.375 -2.90625 -3.484375 -2.515625 -3.484375 Z M -2.296875 -1.109375 L -2.296875 -3.890625 C -2.296875 -4.109375 -2.296875 -4.140625 -2.515625 -4.140625 C -3.5 -4.140625 -4.46875 -3.59375 -4.46875 -2.359375 C -4.46875 -1.203125 -3.4375 -0.28125 -2.1875 -0.28125 C -0.859375 -0.28125 0.109375 -1.328125 0.109375 -2.46875 C 0.109375 -3.6875 -1 -4.140625 -1.1875 -4.140625 C -1.28125 -4.140625 -1.3125 -4.0625 -1.3125 -4 C -1.3125 -3.921875 -1.25 -3.890625 -1.171875 -3.875 C -0.140625 -3.53125 -0.140625 -2.625 -0.140625 -2.53125 C -0.140625 -2.03125 -0.4375 -1.640625 -0.8125 -1.40625 C -1.28125 -1.109375 -1.9375 -1.109375 -2.296875 -1.109375 Z M -2.296875 -1.109375 "/>
</g>
<g id="glyph-2-6">
<path d="M -0.75 -1.0625 C -0.3125 -1.0625 -0.3125 -0.953125 -0.3125 -0.28125 L 0 -0.28125 C -0.015625 -0.609375 -0.03125 -1.078125 -0.03125 -1.359375 C -0.03125 -1.671875 -0.015625 -2.0625 0 -2.46875 L -0.3125 -2.46875 C -0.3125 -1.796875 -0.3125 -1.6875 -0.75 -1.6875 L -1.78125 -1.6875 L -2.328125 -2.328125 C -1.28125 -3.09375 -0.71875 -3.515625 -0.53125 -3.515625 C -0.34375 -3.515625 -0.3125 -3.34375 -0.3125 -3.15625 L 0 -3.15625 C -0.015625 -3.421875 -0.03125 -4.015625 -0.03125 -4.234375 C -0.03125 -4.515625 -0.015625 -4.8125 0 -5.09375 L -0.3125 -5.09375 C -0.3125 -4.71875 -0.3125 -4.5 -0.84375 -4.125 L -2.625 -2.859375 C -2.640625 -2.84375 -2.703125 -2.796875 -2.734375 -2.796875 C -2.765625 -2.796875 -3.375 -3.515625 -3.453125 -3.609375 C -3.953125 -4.234375 -3.984375 -4.65625 -3.984375 -4.859375 L -4.296875 -4.859375 C -4.265625 -4.578125 -4.265625 -4.453125 -4.265625 -4.171875 C -4.265625 -3.8125 -4.28125 -3.1875 -4.296875 -3.046875 L -3.984375 -3.046875 C -3.984375 -3.234375 -3.875 -3.34375 -3.734375 -3.34375 C -3.53125 -3.34375 -3.421875 -3.203125 -3.34375 -3.125 L -2.140625 -1.71875 L -6.921875 -1.71875 L -6.8125 -0.28125 L -6.5 -0.28125 C -6.5 -0.984375 -6.4375 -1.0625 -5.9375 -1.0625 Z M -0.75 -1.0625 "/>
</g>
<g id="glyph-2-7">
<path d="M -1.9375 -2.078125 C -1.890625 -2.296875 -1.734375 -3.109375 -1.015625 -3.109375 C -0.515625 -3.109375 -0.109375 -2.765625 -0.109375 -1.984375 C -0.109375 -1.140625 -0.671875 -0.78125 -1.53125 -0.59375 C -1.65625 -0.5625 -1.6875 -0.5625 -1.6875 -0.453125 C -1.6875 -0.328125 -1.625 -0.328125 -1.453125 -0.328125 L -0.125 -0.328125 C 0.046875 -0.328125 0.109375 -0.328125 0.109375 -0.4375 C 0.109375 -0.484375 0.09375 -0.5 -0.09375 -0.6875 C -0.109375 -0.703125 -0.125 -0.703125 -0.3125 -0.890625 C 0.09375 -1.328125 0.109375 -1.78125 0.109375 -1.984375 C 0.109375 -3.125 -0.5625 -3.59375 -1.28125 -3.59375 C -1.796875 -3.59375 -2.109375 -3.296875 -2.21875 -3.171875 C -2.546875 -2.84375 -2.625 -2.453125 -2.703125 -2.03125 C -2.8125 -1.46875 -2.9375 -0.8125 -3.515625 -0.8125 C -3.875 -0.8125 -4.28125 -1.0625 -4.28125 -1.921875 C -4.28125 -3.015625 -3.375 -3.078125 -3.078125 -3.09375 C -2.984375 -3.09375 -2.984375 -3.1875 -2.984375 -3.203125 C -2.984375 -3.34375 -3.03125 -3.34375 -3.21875 -3.34375 L -4.234375 -3.34375 C -4.390625 -3.34375 -4.46875 -3.34375 -4.46875 -3.234375 C -4.46875 -3.1875 -4.46875 -3.15625 -4.34375 -3.03125 C -4.3125 -3 -4.21875 -2.90625 -4.1875 -2.859375 C -4.46875 -2.484375 -4.46875 -2.078125 -4.46875 -1.921875 C -4.46875 -0.703125 -3.796875 -0.328125 -3.234375 -0.328125 C -2.890625 -0.328125 -2.609375 -0.484375 -2.390625 -0.75 C -2.140625 -1.078125 -2.078125 -1.359375 -1.9375 -2.078125 Z M -1.9375 -2.078125 "/>
</g>
<g id="glyph-3-0">
<path d="M 0.84375 -0.4375 C 0.828125 -0.34375 0.78125 -0.171875 0.78125 -0.15625 C 0.78125 0 0.90625 0.0625 1.015625 0.0625 C 1.140625 0.0625 1.25 -0.015625 1.296875 -0.078125 C 1.328125 -0.140625 1.375 -0.375 1.421875 -0.515625 C 1.453125 -0.640625 1.53125 -0.96875 1.5625 -1.140625 C 1.609375 -1.296875 1.65625 -1.453125 1.6875 -1.609375 C 1.765625 -1.890625 1.78125 -1.953125 1.984375 -2.234375 C 2.171875 -2.515625 2.5 -2.875 3.03125 -2.875 C 3.421875 -2.875 3.4375 -2.515625 3.4375 -2.390625 C 3.4375 -1.96875 3.140625 -1.203125 3.03125 -0.90625 C 2.953125 -0.703125 2.921875 -0.640625 2.921875 -0.53125 C 2.921875 -0.15625 3.21875 0.0625 3.578125 0.0625 C 4.28125 0.0625 4.578125 -0.890625 4.578125 -1 C 4.578125 -1.09375 4.5 -1.09375 4.46875 -1.09375 C 4.375 -1.09375 4.375 -1.046875 4.34375 -0.96875 C 4.1875 -0.40625 3.875 -0.125 3.609375 -0.125 C 3.453125 -0.125 3.421875 -0.21875 3.421875 -0.375 C 3.421875 -0.53125 3.46875 -0.625 3.59375 -0.9375 C 3.671875 -1.15625 3.953125 -1.890625 3.953125 -2.28125 C 3.953125 -2.953125 3.421875 -3.078125 3.046875 -3.078125 C 2.46875 -3.078125 2.078125 -2.71875 1.875 -2.4375 C 1.828125 -2.921875 1.421875 -3.078125 1.125 -3.078125 C 0.828125 -3.078125 0.671875 -2.859375 0.578125 -2.703125 C 0.421875 -2.4375 0.328125 -2.046875 0.328125 -2 C 0.328125 -1.921875 0.421875 -1.921875 0.453125 -1.921875 C 0.546875 -1.921875 0.546875 -1.9375 0.59375 -2.125 C 0.703125 -2.53125 0.84375 -2.875 1.109375 -2.875 C 1.296875 -2.875 1.34375 -2.71875 1.34375 -2.53125 C 1.34375 -2.40625 1.28125 -2.140625 1.21875 -1.953125 C 1.171875 -1.765625 1.109375 -1.484375 1.078125 -1.328125 Z M 0.84375 -0.4375 "/>
</g>
<g id="glyph-3-1">
<path d="M 2.1875 -4.625 C 2.1875 -4.640625 2.203125 -4.734375 2.203125 -4.734375 C 2.203125 -4.78125 2.1875 -4.84375 2.09375 -4.84375 C 1.953125 -4.84375 1.375 -4.78125 1.203125 -4.765625 C 1.15625 -4.765625 1.046875 -4.75 1.046875 -4.609375 C 1.046875 -4.515625 1.15625 -4.515625 1.234375 -4.515625 C 1.5625 -4.515625 1.5625 -4.453125 1.5625 -4.40625 C 1.5625 -4.359375 1.546875 -4.3125 1.546875 -4.25 L 0.5625 -0.3125 C 0.515625 -0.1875 0.515625 -0.171875 0.515625 -0.15625 C 0.515625 -0.046875 0.609375 0.0625 0.765625 0.0625 C 0.953125 0.0625 1.03125 -0.0625 1.078125 -0.21875 C 1.09375 -0.25 1.390625 -1.484375 1.421875 -1.578125 C 1.921875 -1.53125 2.3125 -1.359375 2.3125 -1 C 2.3125 -0.96875 2.3125 -0.9375 2.296875 -0.859375 C 2.265625 -0.765625 2.265625 -0.71875 2.265625 -0.640625 C 2.265625 -0.15625 2.671875 0.0625 3.015625 0.0625 C 3.6875 0.0625 3.890625 -0.984375 3.890625 -1 C 3.890625 -1.09375 3.8125 -1.09375 3.78125 -1.09375 C 3.6875 -1.09375 3.671875 -1.046875 3.640625 -0.921875 C 3.5625 -0.625 3.375 -0.125 3.03125 -0.125 C 2.84375 -0.125 2.78125 -0.296875 2.78125 -0.484375 C 2.78125 -0.609375 2.78125 -0.625 2.828125 -0.796875 C 2.84375 -0.828125 2.859375 -0.9375 2.859375 -1.015625 C 2.859375 -1.640625 2.03125 -1.734375 1.734375 -1.75 C 1.9375 -1.875 2.1875 -2.109375 2.3125 -2.21875 C 2.671875 -2.546875 3.015625 -2.875 3.40625 -2.875 C 3.484375 -2.875 3.578125 -2.859375 3.640625 -2.78125 C 3.34375 -2.734375 3.28125 -2.5 3.28125 -2.390625 C 3.28125 -2.25 3.390625 -2.140625 3.546875 -2.140625 C 3.75 -2.140625 3.953125 -2.296875 3.953125 -2.578125 C 3.953125 -2.8125 3.78125 -3.078125 3.421875 -3.078125 C 3.015625 -3.078125 2.65625 -2.78125 2.296875 -2.453125 C 2 -2.1875 1.78125 -1.96875 1.484375 -1.84375 Z M 2.1875 -4.625 "/>
</g>
<g id="glyph-4-0">
<path d="M 4.203125 5.328125 L 0.65625 9.703125 C 0.578125 9.796875 0.5625 9.8125 0.5625 9.859375 C 0.5625 9.96875 0.65625 9.96875 0.84375 9.96875 L 9.09375 9.96875 L 9.953125 7.484375 L 9.703125 7.484375 C 9.453125 8.234375 8.796875 8.84375 7.9375 9.125 C 7.78125 9.1875 7.09375 9.421875 5.625 9.421875 L 1.390625 9.421875 L 4.859375 5.140625 C 4.921875 5.046875 4.9375 5.03125 4.9375 4.984375 C 4.9375 4.9375 4.9375 4.9375 4.875 4.84375 L 1.640625 0.40625 L 5.578125 0.40625 C 6.71875 0.40625 9.015625 0.46875 9.703125 2.328125 L 9.953125 2.328125 L 9.09375 0 L 0.84375 0 C 0.5625 0 0.5625 0.015625 0.5625 0.3125 Z M 4.203125 5.328125 "/>
</g>
<g id="glyph-5-0">
<path d="M 5.359375 -2.34375 C 5.453125 -2.34375 5.609375 -2.34375 5.609375 -2.515625 C 5.609375 -2.6875 5.453125 -2.6875 5.359375 -2.6875 L 0.75 -2.6875 C 0.65625 -2.6875 0.484375 -2.6875 0.484375 -2.515625 C 0.484375 -2.34375 0.640625 -2.34375 0.75 -2.34375 Z M 5.359375 -0.8125 C 5.453125 -0.8125 5.609375 -0.8125 5.609375 -0.96875 C 5.609375 -1.15625 5.453125 -1.15625 5.359375 -1.15625 L 0.75 -1.15625 C 0.640625 -1.15625 0.484375 -1.15625 0.484375 -0.96875 C 0.484375 -0.8125 0.65625 -0.8125 0.75 -0.8125 Z M 5.359375 -0.8125 "/>
</g>
<g id="glyph-5-1">
<path d="M 2.328125 -4.4375 C 2.328125 -4.625 2.328125 -4.625 2.125 -4.625 C 1.671875 -4.1875 1.046875 -4.1875 0.765625 -4.1875 L 0.765625 -3.9375 C 0.921875 -3.9375 1.390625 -3.9375 1.765625 -4.125 L 1.765625 -0.578125 C 1.765625 -0.34375 1.765625 -0.25 1.078125 -0.25 L 0.8125 -0.25 L 0.8125 0 C 0.9375 0 1.796875 -0.03125 2.046875 -0.03125 C 2.265625 -0.03125 3.140625 0 3.296875 0 L 3.296875 -0.25 L 3.03125 -0.25 C 2.328125 -0.25 2.328125 -0.34375 2.328125 -0.578125 Z M 2.328125 -4.4375 "/>
</g>
</g>
<clipPath id="clip-0">
<path clip-rule="nonzero" d="M 72 0 L 690.144531 0 L 690.144531 294 L 72 294 Z M 72 0 "/>
</clipPath>
<clipPath id="clip-1">
<path clip-rule="nonzero" d="M 72 11 L 690.144531 11 L 690.144531 294 L 72 294 Z M 72 11 "/>
</clipPath>
<clipPath id="clip-2">
<path clip-rule="nonzero" d="M 72 0 L 690.144531 0 L 690.144531 294 L 72 294 Z M 72 0 "/>
</clipPath>
<clipPath id="clip-3">
<path clip-rule="nonzero" d="M 72 11 L 690.144531 11 L 690.144531 294 L 72 294 Z M 72 11 "/>
</clipPath>
<clipPath id="clip-4">
<path clip-rule="nonzero" d="M 72 0 L 690.144531 0 L 690.144531 294 L 72 294 Z M 72 0 "/>
</clipPath>
<clipPath id="clip-5">
<path clip-rule="nonzero" d="M 686 296 L 690.144531 296 L 690.144531 304 L 686 304 Z M 686 296 "/>
</clipPath>
<clipPath id="clip-6">
<path clip-rule="nonzero" d="M 79 39 L 673 39 L 673 293.582031 L 79 293.582031 Z M 79 39 "/>
</clipPath>
<clipPath id="clip-7">
<path clip-rule="nonzero" d="M 78 67 L 674 67 L 674 293.582031 L 78 293.582031 Z M 78 67 "/>
</clipPath>
</defs>
<g clip-path="url(#clip-0)">
<path fill="none" stroke-width="0.3985" stroke-linecap="butt" stroke-linejoin="miter" stroke="rgb(75%, 75%, 75%)" stroke-opacity="1" stroke-miterlimit="10" d="M -0.0015625 -0.00003125 L -0.0015625 298.874969 M 23.799219 -0.00003125 L 23.799219 298.874969 M 47.6 -0.00003125 L 47.6 298.874969 M 71.400781 -0.00003125 L 71.400781 298.874969 M 95.201562 -0.00003125 L 95.201562 298.874969 M 118.998437 -0.00003125 L 118.998437 298.874969 M 142.799219 -0.00003125 L 142.799219 298.874969 M 166.6 -0.00003125 L 166.6 298.874969 M 190.400781 -0.00003125 L 190.400781 298.874969 M 214.197656 -0.00003125 L 214.197656 298.874969 M 237.998437 -0.00003125 L 237.998437 298.874969 M 261.799219 -0.00003125 L 261.799219 298.874969 M 285.6 -0.00003125 L 285.6 298.874969 M 309.400781 -0.00003125 L 309.400781 298.874969 M 333.197656 -0.00003125 L 333.197656 298.874969 M 356.998438 -0.00003125 L 356.998438 298.874969 M 380.799219 -0.00003125 L 380.799219 298.874969 M 404.6 -0.00003125 L 404.6 298.874969 M 428.396875 -0.00003125 L 428.396875 298.874969 M 452.197656 -0.00003125 L 452.197656 298.874969 M 475.998438 -0.00003125 L 475.998438 298.874969 M 499.799219 -0.00003125 L 499.799219 298.874969 M 523.6 -0.00003125 L 523.6 298.874969 M 547.396875 -0.00003125 L 547.396875 298.874969 M 571.197656 -0.00003125 L 571.197656 298.874969 M 594.998438 -0.00003125 L 594.998438 298.874969 M 618.799219 -0.00003125 L 618.799219 298.874969 M 642.596094 -0.00003125 L 642.596094 298.874969 " transform="matrix(1, 0, 0, -1, 72.525, 293.582)"/>
</g>
<g clip-path="url(#clip-1)">
<path fill="none" stroke-width="0.3985" stroke-linecap="butt" stroke-linejoin="miter" stroke="rgb(75%, 75%, 75%)" stroke-opacity="1" stroke-miterlimit="10" d="M -0.0015625 -0.00003125 L 642.596094 -0.00003125 M -0.0015625 28.195281 L 642.596094 28.195281 M -0.0015625 56.390594 L 642.596094 56.390594 M -0.0015625 84.585906 L 642.596094 84.585906 M -0.0015625 112.785125 L 642.596094 112.785125 M -0.0015625 140.980437 L 642.596094 140.980437 M -0.0015625 169.17575 L 642.596094 169.17575 M -0.0015625 197.371062 L 642.596094 197.371062 M -0.0015625 225.566375 L 642.596094 225.566375 M -0.0015625 253.761687 L 642.596094 253.761687 M -0.0015625 281.957 L 642.596094 281.957 " transform="matrix(1, 0, 0, -1, 72.525, 293.582)"/>
</g>
<g clip-path="url(#clip-2)">
<path fill="none" stroke-width="0.19925" stroke-linecap="butt" stroke-linejoin="miter" stroke="rgb(50%, 50%, 50%)" stroke-opacity="1" stroke-miterlimit="10" d="M -0.0015625 -0.00003125 L -0.0015625 4.253875 M 23.799219 -0.00003125 L 23.799219 4.253875 M 47.6 -0.00003125 L 47.6 4.253875 M 71.400781 -0.00003125 L 71.400781 4.253875 M 95.201562 -0.00003125 L 95.201562 4.253875 M 118.998437 -0.00003125 L 118.998437 4.253875 M 142.799219 -0.00003125 L 142.799219 4.253875 M 166.6 -0.00003125 L 166.6 4.253875 M 190.400781 -0.00003125 L 190.400781 4.253875 M 214.197656 -0.00003125 L 214.197656 4.253875 M 237.998437 -0.00003125 L 237.998437 4.253875 M 261.799219 -0.00003125 L 261.799219 4.253875 M 285.6 -0.00003125 L 285.6 4.253875 M 309.400781 -0.00003125 L 309.400781 4.253875 M 333.197656 -0.00003125 L 333.197656 4.253875 M 356.998438 -0.00003125 L 356.998438 4.253875 M 380.799219 -0.00003125 L 380.799219 4.253875 M 404.6 -0.00003125 L 404.6 4.253875 M 428.396875 -0.00003125 L 428.396875 4.253875 M 452.197656 -0.00003125 L 452.197656 4.253875 M 475.998438 -0.00003125 L 475.998438 4.253875 M 499.799219 -0.00003125 L 499.799219 4.253875 M 523.6 -0.00003125 L 523.6 4.253875 M 547.396875 -0.00003125 L 547.396875 4.253875 M 571.197656 -0.00003125 L 571.197656 4.253875 M 594.998438 -0.00003125 L 594.998438 4.253875 M 618.799219 -0.00003125 L 618.799219 4.253875 M 642.596094 -0.00003125 L 642.596094 4.253875 M -0.0015625 298.874969 L -0.0015625 294.624969 M 23.799219 298.874969 L 23.799219 294.624969 M 47.6 298.874969 L 47.6 294.624969 M 71.400781 298.874969 L 71.400781 294.624969 M 95.201562 298.874969 L 95.201562 294.624969 M 118.998437 298.874969 L 118.998437 294.624969 M 142.799219 298.874969 L 142.799219 294.624969 M 166.6 298.874969 L 166.6 294.624969 M 190.400781 298.874969 L 190.400781 294.624969 M 214.197656 298.874969 L 214.197656 294.624969 M 237.998437 298.874969 L 237.998437 294.624969 M 261.799219 298.874969 L 261.799219 294.624969 M 285.6 298.874969 L 285.6 294.624969 M 309.400781 298.874969 L 309.400781 294.624969 M 333.197656 298.874969 L 333.197656 294.624969 M 356.998438 298.874969 L 356.998438 294.624969 M 380.799219 298.874969 L 380.799219 294.624969 M 404.6 298.874969 L 404.6 294.624969 M 428.396875 298.874969 L 428.396875 294.624969 M 452.197656 298.874969 L 452.197656 294.624969 M 475.998438 298.874969 L 475.998438 294.624969 M 499.799219 298.874969 L 499.799219 294.624969 M 523.6 298.874969 L 523.6 294.624969 M 547.396875 298.874969 L 547.396875 294.624969 M 571.197656 298.874969 L 571.197656 294.624969 M 594.998438 298.874969 L 594.998438 294.624969 M 618.799219 298.874969 L 618.799219 294.624969 M 642.596094 298.874969 L 642.596094 294.624969 " transform="matrix(1, 0, 0, -1, 72.525, 293.582)"/>
</g>
<g clip-path="url(#clip-3)">
<path fill="none" stroke-width="0.19925" stroke-linecap="butt" stroke-linejoin="miter" stroke="rgb(50%, 50%, 50%)" stroke-opacity="1" stroke-miterlimit="10" d="M -0.0015625 -0.00003125 L 4.252344 -0.00003125 M -0.0015625 28.195281 L 4.252344 28.195281 M -0.0015625 56.390594 L 4.252344 56.390594 M -0.0015625 84.585906 L 4.252344 84.585906 M -0.0015625 112.785125 L 4.252344 112.785125 M -0.0015625 140.980437 L 4.252344 140.980437 M -0.0015625 169.17575 L 4.252344 169.17575 M -0.0015625 197.371062 L 4.252344 197.371062 M -0.0015625 225.566375 L 4.252344 225.566375 M -0.0015625 253.761687 L 4.252344 253.761687 M -0.0015625 281.957 L 4.252344 281.957 M 642.596094 -0.00003125 L 638.346094 -0.00003125 M 642.596094 28.195281 L 638.346094 28.195281 M 642.596094 56.390594 L 638.346094 56.390594 M 642.596094 84.585906 L 638.346094 84.585906 M 642.596094 112.785125 L 638.346094 112.785125 M 642.596094 140.980437 L 638.346094 140.980437 M 642.596094 169.17575 L 638.346094 169.17575 M 642.596094 197.371062 L 638.346094 197.371062 M 642.596094 225.566375 L 638.346094 225.566375 M 642.596094 253.761687 L 638.346094 253.761687 M 642.596094 281.957 L 638.346094 281.957 " transform="matrix(1, 0, 0, -1, 72.525, 293.582)"/>
</g>
<g clip-path="url(#clip-4)">
<path fill="none" stroke-width="0.3985" stroke-linecap="butt" stroke-linejoin="miter" stroke="rgb(0%, 0%, 0%)" stroke-opacity="1" stroke-miterlimit="10" d="M -0.0015625 -0.00003125 L -0.0015625 298.874969 L 642.596094 298.874969 L 642.596094 -0.00003125 Z M -0.0015625 -0.00003125 " transform="matrix(1, 0, 0, -1, 72.525, 293.582)"/>
</g>
<g fill="rgb(0%, 0%, 0%)" fill-opacity="1">
<use xlink:href="#glyph-0-0" x="70.034" y="303.522"/>
</g>
<g fill="rgb(0%, 0%, 0%)" fill-opacity="1">
<use xlink:href="#glyph-0-1" x="93.834" y="303.522"/>
</g>
<g fill="rgb(0%, 0%, 0%)" fill-opacity="1">
<use xlink:href="#glyph-0-2" x="117.634" y="303.522"/>
</g>
<g fill="rgb(0%, 0%, 0%)" fill-opacity="1">
<use xlink:href="#glyph-0-3" x="141.433" y="303.522"/>
</g>
<g fill="rgb(0%, 0%, 0%)" fill-opacity="1">
<use xlink:href="#glyph-0-4" x="165.233" y="303.522"/>
</g>
<g fill="rgb(0%, 0%, 0%)" fill-opacity="1">
<use xlink:href="#glyph-0-5" x="186.542" y="303.522"/>
<use xlink:href="#glyph-0-0" x="191.5233" y="303.522"/>
</g>
<g fill="rgb(0%, 0%, 0%)" fill-opacity="1">
<use xlink:href="#glyph-0-5" x="210.341" y="303.522"/>
<use xlink:href="#glyph-0-1" x="215.3223" y="303.522"/>
</g>
<g fill="rgb(0%, 0%, 0%)" fill-opacity="1">
<use xlink:href="#glyph-0-5" x="234.141" y="303.522"/>
<use xlink:href="#glyph-0-2" x="239.1223" y="303.522"/>
</g>
<g fill="rgb(0%, 0%, 0%)" fill-opacity="1">
<use xlink:href="#glyph-0-5" x="257.941" y="303.522"/>
<use xlink:href="#glyph-0-3" x="262.9223" y="303.522"/>
</g>
<g fill="rgb(0%, 0%, 0%)" fill-opacity="1">
<use xlink:href="#glyph-0-5" x="281.74" y="303.522"/>
<use xlink:href="#glyph-0-4" x="286.7213" y="303.522"/>
</g>
<g fill="rgb(0%, 0%, 0%)" fill-opacity="1">
<use xlink:href="#glyph-0-1" x="305.54" y="303.522"/>
<use xlink:href="#glyph-0-0" x="310.5213" y="303.522"/>
</g>
<g fill="rgb(0%, 0%, 0%)" fill-opacity="1">
<use xlink:href="#glyph-0-1" x="329.339" y="303.522"/>
<use xlink:href="#glyph-0-1" x="334.3203" y="303.522"/>
</g>
<g fill="rgb(0%, 0%, 0%)" fill-opacity="1">
<use xlink:href="#glyph-0-1" x="353.139" y="303.522"/>
<use xlink:href="#glyph-0-2" x="358.1203" y="303.522"/>
</g>
<g fill="rgb(0%, 0%, 0%)" fill-opacity="1">
<use xlink:href="#glyph-0-1" x="376.939" y="303.522"/>
<use xlink:href="#glyph-0-3" x="381.9203" y="303.522"/>
</g>
<g fill="rgb(0%, 0%, 0%)" fill-opacity="1">
<use xlink:href="#glyph-0-1" x="400.738" y="303.522"/>
<use xlink:href="#glyph-0-4" x="405.7193" y="303.522"/>
</g>
<g fill="rgb(0%, 0%, 0%)" fill-opacity="1">
<use xlink:href="#glyph-0-6" x="424.538" y="303.522"/>
<use xlink:href="#glyph-0-0" x="429.5193" y="303.522"/>
</g>
<g fill="rgb(0%, 0%, 0%)" fill-opacity="1">
<use xlink:href="#glyph-0-6" x="448.337" y="303.522"/>
<use xlink:href="#glyph-0-1" x="453.3183" y="303.522"/>
</g>
<g fill="rgb(0%, 0%, 0%)" fill-opacity="1">
<use xlink:href="#glyph-0-6" x="472.137" y="303.522"/>
<use xlink:href="#glyph-0-2" x="477.1183" y="303.522"/>
</g>
<g fill="rgb(0%, 0%, 0%)" fill-opacity="1">
<use xlink:href="#glyph-0-6" x="495.937" y="303.522"/>
<use xlink:href="#glyph-0-3" x="500.9183" y="303.522"/>
</g>
<g fill="rgb(0%, 0%, 0%)" fill-opacity="1">
<use xlink:href="#glyph-0-6" x="519.736" y="303.522"/>
<use xlink:href="#glyph-0-4" x="524.7173" y="303.522"/>
</g>
<g fill="rgb(0%, 0%, 0%)" fill-opacity="1">
<use xlink:href="#glyph-0-2" x="543.536" y="303.522"/>
<use xlink:href="#glyph-0-0" x="548.5173" y="303.522"/>
</g>
<g fill="rgb(0%, 0%, 0%)" fill-opacity="1">
<use xlink:href="#glyph-0-2" x="567.335" y="303.522"/>
<use xlink:href="#glyph-0-1" x="572.3163" y="303.522"/>
</g>
<g fill="rgb(0%, 0%, 0%)" fill-opacity="1">
<use xlink:href="#glyph-0-2" x="591.135" y="303.522"/>
<use xlink:href="#glyph-0-2" x="596.1163" y="303.522"/>
</g>
<g fill="rgb(0%, 0%, 0%)" fill-opacity="1">
<use xlink:href="#glyph-0-2" x="614.935" y="303.522"/>
<use xlink:href="#glyph-0-3" x="619.9163" y="303.522"/>
</g>
<g fill="rgb(0%, 0%, 0%)" fill-opacity="1">
<use xlink:href="#glyph-0-2" x="638.734" y="303.522"/>
<use xlink:href="#glyph-0-4" x="643.7153" y="303.522"/>
</g>
<g fill="rgb(0%, 0%, 0%)" fill-opacity="1">
<use xlink:href="#glyph-0-7" x="662.534" y="303.522"/>
<use xlink:href="#glyph-0-0" x="667.5153" y="303.522"/>
</g>
<g clip-path="url(#clip-5)">
<g fill="rgb(0%, 0%, 0%)" fill-opacity="1">
<use xlink:href="#glyph-0-7" x="686.333" y="303.522"/>
<use xlink:href="#glyph-0-1" x="691.3143" y="303.522"/>
</g>
</g>
<g fill="rgb(0%, 0%, 0%)" fill-opacity="1">
<use xlink:href="#glyph-0-0" x="64.024" y="296.792"/>
</g>
<g fill="rgb(0%, 0%, 0%)" fill-opacity="1">
<use xlink:href="#glyph-0-0" x="56.275" y="268.597"/>
</g>
<g fill="rgb(0%, 0%, 0%)" fill-opacity="1">
<use xlink:href="#glyph-1-0" x="61.2563" y="268.597"/>
</g>
<g fill="rgb(0%, 0%, 0%)" fill-opacity="1">
<use xlink:href="#glyph-0-7" x="64.02391" y="268.597"/>
</g>
<g fill="rgb(0%, 0%, 0%)" fill-opacity="1">
<use xlink:href="#glyph-0-5" x="64.024" y="240.401"/>
</g>
<g fill="rgb(0%, 0%, 0%)" fill-opacity="1">
<use xlink:href="#glyph-0-5" x="56.275" y="212.206"/>
</g>
<g fill="rgb(0%, 0%, 0%)" fill-opacity="1">
<use xlink:href="#glyph-1-0" x="61.2563" y="212.206"/>
</g>
<g fill="rgb(0%, 0%, 0%)" fill-opacity="1">
<use xlink:href="#glyph-0-7" x="64.02391" y="212.206"/>
</g>
<g fill="rgb(0%, 0%, 0%)" fill-opacity="1">
<use xlink:href="#glyph-0-1" x="64.024" y="184.01"/>
</g>
<g fill="rgb(0%, 0%, 0%)" fill-opacity="1">
<use xlink:href="#glyph-0-1" x="56.275" y="155.815"/>
</g>
<g fill="rgb(0%, 0%, 0%)" fill-opacity="1">
<use xlink:href="#glyph-1-0" x="61.2563" y="155.815"/>
</g>
<g fill="rgb(0%, 0%, 0%)" fill-opacity="1">
<use xlink:href="#glyph-0-7" x="64.02391" y="155.815"/>
</g>
<g fill="rgb(0%, 0%, 0%)" fill-opacity="1">
<use xlink:href="#glyph-0-6" x="64.024" y="127.619"/>
</g>
<g fill="rgb(0%, 0%, 0%)" fill-opacity="1">
<use xlink:href="#glyph-0-6" x="56.275" y="99.424"/>
</g>
<g fill="rgb(0%, 0%, 0%)" fill-opacity="1">
<use xlink:href="#glyph-1-0" x="61.2563" y="99.424"/>
</g>
<g fill="rgb(0%, 0%, 0%)" fill-opacity="1">
<use xlink:href="#glyph-0-7" x="64.02391" y="99.424"/>
</g>
<g fill="rgb(0%, 0%, 0%)" fill-opacity="1">
<use xlink:href="#glyph-0-2" x="64.024" y="71.228"/>
</g>
<g fill="rgb(0%, 0%, 0%)" fill-opacity="1">
<use xlink:href="#glyph-0-2" x="56.275" y="43.033"/>
</g>
<g fill="rgb(0%, 0%, 0%)" fill-opacity="1">
<use xlink:href="#glyph-1-0" x="61.2563" y="43.033"/>
</g>
<g fill="rgb(0%, 0%, 0%)" fill-opacity="1">
<use xlink:href="#glyph-0-7" x="64.02391" y="43.033"/>
</g>
<g fill="rgb(0%, 0%, 0%)" fill-opacity="1">
<use xlink:href="#glyph-0-7" x="64.024" y="14.837"/>
</g>
<g clip-path="url(#clip-6)">
<path fill-rule="nonzero" fill="rgb(0%, 0%, 0%)" fill-opacity="0.1" stroke-width="0.3985" stroke-linecap="butt" stroke-linejoin="miter" stroke="rgb(0%, 0%, 0%)" stroke-opacity="1" stroke-miterlimit="10" d="M 7.139062 -0.00003125 L 16.658594 -0.00003125 L 16.658594 56.390594 L 7.139062 56.390594 Z M 19.041406 -0.00003125 L 28.560937 -0.00003125 L 28.560937 84.585906 L 19.041406 84.585906 Z M 30.939844 -0.00003125 L 40.459375 -0.00003125 L 40.459375 103.386687 L 30.939844 103.386687 Z M 42.838281 -0.00003125 L 52.361719 -0.00003125 L 52.361719 117.484344 L 42.838281 117.484344 Z M 54.740625 -0.00003125 L 64.260156 -0.00003125 L 64.260156 128.761687 L 54.740625 128.761687 Z M 66.639062 -0.00003125 L 76.158594 -0.00003125 L 76.158594 138.160125 L 66.639062 138.160125 Z M 78.541406 -0.00003125 L 88.060937 -0.00003125 L 88.060937 146.214812 L 78.541406 146.214812 Z M 90.439844 -0.00003125 L 99.959375 -0.00003125 L 99.959375 153.265594 L 90.439844 153.265594 Z M 102.338281 -0.00003125 L 111.857812 -0.00003125 L 111.857812 159.531219 L 102.338281 159.531219 Z M 114.240625 -0.00003125 L 123.760156 -0.00003125 L 123.760156 165.167937 L 114.240625 165.167937 Z M 126.139062 -0.00003125 L 135.658594 -0.00003125 L 135.658594 170.296844 L 126.139062 170.296844 Z M 138.041406 -0.00003125 L 147.560937 -0.00003125 L 147.560937 174.996062 L 138.041406 174.996062 Z M 149.939844 -0.00003125 L 159.459375 -0.00003125 L 159.459375 179.332 L 149.939844 179.332 Z M 161.838281 -0.00003125 L 171.357812 -0.00003125 L 171.357812 183.359344 L 161.838281 183.359344 Z M 173.740625 -0.00003125 L 183.260156 -0.00003125 L 183.260156 187.121062 L 173.740625 187.121062 Z M 185.639062 -0.00003125 L 195.158594 -0.00003125 L 195.158594 190.6445 L 185.639062 190.6445 Z M 197.5375 -0.00003125 L 207.060937 -0.00003125 L 207.060937 193.960906 L 197.5375 193.960906 Z M 209.439844 -0.00003125 L 218.959375 -0.00003125 L 218.959375 197.093719 L 209.439844 197.093719 Z M 221.338281 -0.00003125 L 230.857812 -0.00003125 L 230.857812 200.062469 L 221.338281 200.062469 Z M 233.240625 -0.00003125 L 242.760156 -0.00003125 L 242.760156 202.882781 L 233.240625 202.882781 Z M 245.139062 -0.00003125 L 254.658594 -0.00003125 L 254.658594 205.566375 L 245.139062 205.566375 Z M 257.0375 -0.00003125 L 266.560938 -0.00003125 L 266.560938 208.132781 L 257.0375 208.132781 Z M 268.939844 -0.00003125 L 278.459375 -0.00003125 L 278.459375 210.585906 L 268.939844 210.585906 Z M 280.838281 -0.00003125 L 290.357813 -0.00003125 L 290.357813 212.933562 L 280.838281 212.933562 Z M 292.740625 -0.00003125 L 302.260156 -0.00003125 L 302.260156 215.191375 L 292.740625 215.191375 Z M 304.639063 -0.00003125 L 314.158594 -0.00003125 L 314.158594 217.359344 L 304.639063 217.359344 Z M 316.5375 -0.00003125 L 326.057031 -0.00003125 L 326.057031 219.449187 L 316.5375 219.449187 Z M 328.439844 -0.00003125 L 337.959375 -0.00003125 L 337.959375 221.460906 L 328.439844 221.460906 Z M 340.338281 -0.00003125 L 349.857813 -0.00003125 L 349.857813 223.406219 L 340.338281 223.406219 Z M 352.240625 -0.00003125 L 361.760156 -0.00003125 L 361.760156 225.285125 L 352.240625 225.285125 Z M 364.139063 -0.00003125 L 373.658594 -0.00003125 L 373.658594 227.101531 L 364.139063 227.101531 Z M 376.0375 -0.00003125 L 385.557031 -0.00003125 L 385.557031 228.867156 L 376.0375 228.867156 Z M 387.939844 -0.00003125 L 397.459375 -0.00003125 L 397.459375 230.574187 L 387.939844 230.574187 Z M 399.838281 -0.00003125 L 409.357813 -0.00003125 L 409.357813 232.234344 L 399.838281 232.234344 Z M 411.736719 -0.00003125 L 421.260156 -0.00003125 L 421.260156 233.847625 L 411.736719 233.847625 Z M 423.639063 -0.00003125 L 433.158594 -0.00003125 L 433.158594 235.414031 L 423.639063 235.414031 Z M 435.5375 -0.00003125 L 445.057031 -0.00003125 L 445.057031 236.937469 L 435.5375 236.937469 Z M 447.439844 -0.00003125 L 456.959375 -0.00003125 L 456.959375 238.421844 L 447.439844 238.421844 Z M 459.338281 -0.00003125 L 468.857813 -0.00003125 L 468.857813 239.867156 L 459.338281 239.867156 Z M 471.236719 -0.00003125 L 480.760156 -0.00003125 L 480.760156 241.277312 L 471.236719 241.277312 Z M 483.139063 -0.00003125 L 492.658594 -0.00003125 L 492.658594 242.652312 L 483.139063 242.652312 Z M 495.0375 -0.00003125 L 504.557031 -0.00003125 L 504.557031 243.992156 L 495.0375 243.992156 Z M 506.939844 -0.00003125 L 516.459375 -0.00003125 L 516.459375 245.304656 L 506.939844 245.304656 Z M 518.838281 -0.00003125 L 528.357813 -0.00003125 L 528.357813 246.585906 L 518.838281 246.585906 Z M 530.736719 -0.00003125 L 540.25625 -0.00003125 L 540.25625 247.839812 L 530.736719 247.839812 Z M 542.639063 -0.00003125 L 552.158594 -0.00003125 L 552.158594 249.066375 L 542.639063 249.066375 Z M 554.5375 -0.00003125 L 564.057031 -0.00003125 L 564.057031 250.265594 L 554.5375 250.265594 Z M 566.439844 -0.00003125 L 575.959375 -0.00003125 L 575.959375 251.441375 L 566.439844 251.441375 Z M 578.338281 -0.00003125 L 587.857813 -0.00003125 L 587.857813 252.593719 L 578.338281 252.593719 Z M 590.236719 -0.00003125 L 599.75625 -0.00003125 L 599.75625 253.718719 L 590.236719 253.718719 Z M 590.236719 -0.00003125 " transform="matrix(1, 0, 0, -1, 72.525, 293.582)"/>
</g>
<g clip-path="url(#clip-7)">
<path fill="none" stroke-width="0.3985" stroke-linecap="butt" stroke-linejoin="miter" stroke="rgb(0%, 0%, 0%)" stroke-opacity="1" stroke-miterlimit="10" d="M 11.900781 -0.00003125 C 11.900781 -0.00003125 16.154687 17.289031 17.791406 22.671844 C 19.424219 28.054656 22.045312 34.816375 23.678125 38.792937 C 25.314844 42.7695 27.935937 48.167937 29.56875 51.328094 C 31.205469 54.48825 33.826562 58.945281 35.459375 61.570281 C 37.092187 64.191375 39.713281 67.98825 41.35 70.230437 C 42.982812 72.472625 45.603906 75.773406 47.240625 77.73825 C 48.873437 79.699187 51.494531 82.628875 53.127344 84.371062 C 54.764062 86.11325 57.385156 88.734344 59.017969 90.30075 C 60.654687 91.867156 63.275781 94.23825 64.908594 95.664031 C 66.541406 97.085906 69.1625 99.257781 70.799219 100.562469 C 72.432031 101.867156 75.053125 103.867156 76.689844 105.070281 C 78.322656 106.273406 80.94375 108.121062 82.580469 109.23825 C 84.213281 110.355437 86.834375 112.074187 88.467187 113.117156 C 90.103906 114.160125 92.725 115.777312 94.357812 116.753875 C 95.994531 117.734344 98.615625 119.253875 100.248437 120.17575 C 101.88125 121.097625 104.502344 122.527312 106.139062 123.3945 C 107.771875 124.265594 110.392969 125.617156 112.029687 126.441375 C 113.6625 127.265594 116.283594 128.546844 117.916406 129.332 C 119.553125 130.11325 122.174219 131.335906 123.807031 132.078094 C 125.44375 132.824187 128.064844 133.98825 129.697656 134.699187 C 131.330469 135.410125 133.951562 136.523406 135.588281 137.203094 C 137.221094 137.886687 139.842187 138.953094 141.478906 139.601531 C 143.111719 140.253875 145.732812 141.277312 147.365625 141.902312 C 149.002344 142.527312 151.623437 143.511687 153.25625 144.11325 C 154.892969 144.714812 157.514062 145.660125 159.146875 146.23825 C 160.779687 146.816375 163.400781 147.730437 165.0375 148.289031 C 166.670312 148.847625 169.291406 149.726531 170.928125 150.265594 C 172.560937 150.80075 175.182031 151.652312 176.814844 152.171844 C 178.451562 152.695281 181.072656 153.515594 182.705469 154.023406 C 184.342187 154.527312 186.963281 155.324187 188.596094 155.812469 C 190.228906 156.30075 192.85 157.070281 194.486719 157.542937 C 196.119531 158.0195 198.740625 158.7695 200.377344 159.226531 C 202.010156 159.687469 204.63125 160.410125 206.267969 160.859344 C 207.900781 161.304656 210.521875 162.015594 212.154687 162.449187 C 213.791406 162.882781 216.4125 163.570281 218.045312 163.992156 C 219.682031 164.414031 222.303125 165.074187 223.935937 165.48825 C 225.56875 165.898406 228.189844 166.55075 229.826562 166.953094 C 231.459375 167.355437 234.080469 167.98825 235.717187 168.378875 C 237.35 168.773406 239.971094 169.398406 241.603906 169.781219 C 243.240625 170.164031 245.861719 170.765594 247.494531 171.140594 C 249.13125 171.511687 251.752344 172.101531 253.385156 172.464812 C 255.017969 172.828094 257.639063 173.406219 259.275781 173.761687 C 260.908594 174.117156 263.529688 174.679656 265.166406 175.027312 C 266.799219 175.374969 269.420313 175.92575 271.053125 176.265594 C 272.689844 176.605437 275.310938 177.148406 276.94375 177.480437 C 278.580469 177.812469 281.201563 178.339812 282.834375 178.664031 C 284.467188 178.992156 287.088281 179.511687 288.725 179.828094 C 290.357813 180.148406 292.978906 180.652312 294.615625 180.964812 C 296.248438 181.281219 298.869531 181.777312 300.502344 182.082 C 302.139063 182.390594 304.760156 182.874969 306.392969 183.17575 C 308.029688 183.476531 310.650781 183.957 312.283594 184.249969 C 313.920313 184.546844 316.5375 185.015594 318.174219 185.304656 C 319.807031 185.593719 322.428125 186.054656 324.064844 186.339812 C 325.697656 186.624969 328.31875 187.074187 329.955469 187.355437 C 331.588281 187.632781 334.209375 188.078094 335.842188 188.351531 C 337.478906 188.624969 340.1 189.062469 341.732813 189.332 C 343.369531 189.601531 345.990625 190.031219 347.623438 190.296844 C 349.25625 190.562469 351.877344 190.984344 353.514063 191.242156 C 355.146875 191.503875 357.767969 191.917937 359.404688 192.17575 C 361.0375 192.433562 363.658594 192.839812 365.291406 193.093719 C 366.928125 193.343719 369.549219 193.742156 371.182031 193.992156 C 372.81875 194.23825 375.439844 194.636687 377.072656 194.878875 C 378.705469 195.124969 381.326563 195.515594 382.963281 195.753875 C 384.596094 195.996062 387.217188 196.378875 388.853906 196.617156 C 390.486719 196.851531 393.107813 197.226531 394.740625 197.460906 C 396.377344 197.691375 398.998438 198.066375 400.63125 198.296844 C 402.267969 198.527312 404.889063 198.8945 406.521875 199.121062 C 408.154688 199.347625 410.775781 199.710906 412.4125 199.933562 C 414.045313 200.156219 416.666406 200.511687 418.303125 200.730437 C 419.935938 200.949187 422.557031 201.304656 424.189844 201.5195 C 425.826563 201.73825 428.447656 202.082 430.080469 202.296844 C 431.717188 202.511687 434.338281 202.855437 435.971094 203.066375 C 437.607813 203.277312 440.228906 203.609344 441.861719 203.816375 C 443.494531 204.027312 446.115625 204.359344 447.752344 204.562469 C 449.385156 204.7695 452.00625 205.101531 453.642969 205.304656 C 455.275781 205.503875 457.896875 205.824187 459.529688 206.023406 C 461.166406 206.222625 463.7875 206.542937 465.420313 206.742156 C 467.057031 206.941375 469.678125 207.257781 471.310938 207.453094 C 472.94375 207.652312 475.564844 207.968719 477.201563 208.164031 C 478.834375 208.359344 481.455469 208.664031 483.092188 208.855437 C 484.725 209.042937 487.346094 209.347625 488.978906 209.535125 C 490.615625 209.726531 493.236719 210.027312 494.869531 210.210906 C 496.50625 210.398406 499.127344 210.695281 500.760156 210.878875 C 502.392969 211.062469 505.014063 211.359344 506.650781 211.539031 C 508.283594 211.722625 510.904688 212.011687 512.541406 212.191375 C 514.174219 212.371062 516.795313 212.660125 518.428125 212.835906 C 520.064844 213.015594 522.685938 213.296844 524.31875 213.472625 C 525.955469 213.648406 528.576563 213.929656 530.209375 214.105437 C 531.842188 214.277312 534.463281 214.554656 536.1 214.726531 C 537.732813 214.898406 540.353906 215.171844 541.990625 215.343719 C 543.623438 215.511687 546.244531 215.785125 547.877344 215.953094 C 549.514063 216.121062 552.135156 216.386687 553.767969 216.554656 C 555.404688 216.722625 558.025781 216.98825 559.658594 217.152312 C 561.295313 217.316375 563.916406 217.578094 565.549219 217.742156 C 567.182031 217.906219 569.803125 218.164031 571.439844 218.328094 C 573.072656 218.48825 575.69375 218.746062 577.330469 218.902312 C 578.963281 219.062469 581.584375 219.320281 583.217188 219.476531 C 584.853906 219.632781 587.475 219.886687 589.107813 220.042937 C 590.744531 220.199187 594.998438 220.605437 594.998438 220.605437 " transform="matrix(1, 0, 0, -1, 72.525, 293.582)"/>
</g>
<g fill="rgb(0%, 0%, 0%)" fill-opacity="1">
<use xlink:href="#glyph-0-8" x="360.583" y="317.281"/>
<use xlink:href="#glyph-0-9" x="366.118221" y="317.281"/>
<use xlink:href="#glyph-0-10" x="371.099521" y="317.281"/>
</g>
<g fill="rgb(0%, 0%, 0%)" fill-opacity="1">
<use xlink:href="#glyph-0-11" x="382.718901" y="317.281"/>
<use xlink:href="#glyph-0-9" x="387.14628" y="317.281"/>
<use xlink:href="#glyph-0-8" x="392.12758" y="317.281"/>
<use xlink:href="#glyph-0-12" x="397.662801" y="317.281"/>
<use xlink:href="#glyph-0-13" x="403.198021" y="317.281"/>
<use xlink:href="#glyph-0-14" x="405.965632" y="317.281"/>
<use xlink:href="#glyph-0-13" x="409.840087" y="317.281"/>
<use xlink:href="#glyph-0-9" x="412.607697" y="317.281"/>
<use xlink:href="#glyph-0-8" x="417.588997" y="317.281"/>
<use xlink:href="#glyph-0-15" x="423.124218" y="317.281"/>
</g>
<g fill="rgb(0%, 0%, 0%)" fill-opacity="1">
<use xlink:href="#glyph-2-0" x="47.498" y="168.942"/>
<use xlink:href="#glyph-2-1" x="47.498" y="163.406779"/>
<use xlink:href="#glyph-2-2" x="47.498" y="158.425479"/>
</g>
<g fill="rgb(0%, 0%, 0%)" fill-opacity="1">
<use xlink:href="#glyph-2-3" x="47.498" y="146.806099"/>
</g>
<g fill="rgb(0%, 0%, 0%)" fill-opacity="1">
<use xlink:href="#glyph-2-4" x="47.498" y="142.64771"/>
<use xlink:href="#glyph-2-5" x="47.498" y="137.112489"/>
<use xlink:href="#glyph-2-3" x="47.498" y="132.68511"/>
</g>
<g fill="rgb(0%, 0%, 0%)" fill-opacity="1">
<use xlink:href="#glyph-2-6" x="47.498" y="128.536683"/>
<use xlink:href="#glyph-2-7" x="47.498" y="123.278423"/>
</g>
<path fill-rule="nonzero" fill="rgb(100%, 100%, 100%)" fill-opacity="1" stroke-width="0.3985" stroke-linecap="butt" stroke-linejoin="miter" stroke="rgb(0%, 0%, 0%)" stroke-opacity="1" stroke-miterlimit="10" d="M 19.475 258.878875 L 110.783594 258.878875 L 110.783594 289.710906 L 19.475 289.710906 Z M 19.475 258.878875 " transform="matrix(1, 0, 0, -1, 72.525, 293.582)"/>
<path fill="none" stroke-width="0.3985" stroke-linecap="butt" stroke-linejoin="miter" stroke="rgb(0%, 0%, 0%)" stroke-opacity="1" stroke-miterlimit="10" d="M -1.492594 -0.00140625 L 1.495687 -0.00140625 Z M 7.011312 -0.00140625 L 9.999594 -0.00140625 Z M 15.515219 -0.00140625 L 18.5035 -0.00140625 Z M 15.515219 -0.00140625 " transform="matrix(1, 0, 0, -1, 96.684, 12.815)"/>
<g fill="rgb(0%, 0%, 0%)" fill-opacity="1">
<use xlink:href="#glyph-1-1" x="117.378" y="16.277"/>
</g>
<g fill="rgb(0%, 0%, 0%)" fill-opacity="1">
<use xlink:href="#glyph-3-0" x="125.659" y="17.771"/>
</g>
<g fill="rgb(0%, 0%, 0%)" fill-opacity="1">
<use xlink:href="#glyph-0-16" x="133.85" y="16.277"/>
</g>
<g fill="rgb(0%, 0%, 0%)" fill-opacity="1">
<use xlink:href="#glyph-4-0" x="144.366" y="8.805"/>
</g>
<g fill="rgb(0%, 0%, 0%)" fill-opacity="1">
<use xlink:href="#glyph-3-0" x="154.882" y="11.268"/>
</g>
<g fill="rgb(0%, 0%, 0%)" fill-opacity="1">
<use xlink:href="#glyph-3-1" x="154.882" y="19.266"/>
</g>
<g fill="rgb(0%, 0%, 0%)" fill-opacity="1">
<use xlink:href="#glyph-5-0" x="159.28456" y="19.266"/>
<use xlink:href="#glyph-5-1" x="165.400583" y="19.266"/>
</g>
<g fill="rgb(0%, 0%, 0%)" fill-opacity="1">
<use xlink:href="#glyph-5-1" x="172.943" y="12.354"/>
</g>
<path fill="none" stroke-width="0.398" stroke-linecap="butt" stroke-linejoin="miter" stroke="rgb(0%, 0%, 0%)" stroke-opacity="1" stroke-miterlimit="10" d="M -0.0004375 0.00084375 L 4.405812 0.00084375 " transform="matrix(1, 0, 0, -1, 172.727, 13.786)"/>
<g fill="rgb(0%, 0%, 0%)" fill-opacity="1">
<use xlink:href="#glyph-3-1" x="172.727" y="19.712"/>
</g>
<path fill="none" stroke-width="0.3985" stroke-linecap="butt" stroke-linejoin="miter" stroke="rgb(0%, 0%, 0%)" stroke-opacity="1" stroke-miterlimit="10" d="M -0.00040625 0.00071875 C -0.00040625 0.00071875 6.144125 0.00071875 8.5035 0.00071875 C 10.862875 0.00071875 17.007406 0.00071875 17.007406 0.00071875 " transform="matrix(1, 0, 0, -1, 96.684, 26.239)"/>
<g fill="rgb(0%, 0%, 0%)" fill-opacity="1">
<use xlink:href="#glyph-0-17" x="136.836" y="29.228"/>
<use xlink:href="#glyph-0-8" x="139.60361" y="29.228"/>
<use xlink:href="#glyph-0-18" x="145.138831" y="29.228"/>
</g>
<g fill="rgb(0%, 0%, 0%)" fill-opacity="1">
<use xlink:href="#glyph-1-2" x="149.013286" y="29.228"/>
</g>
<g fill="rgb(0%, 0%, 0%)" fill-opacity="1">
<use xlink:href="#glyph-0-19" x="154.992839" y="29.228"/>
</g>
</svg>
