<?xml version="1.0" encoding="UTF-8"?>
<svg xmlns="http://www.w3.org/2000/svg" xmlns:xlink="http://www.w3.org/1999/xlink" width="349.91pt" height="302.499pt" viewBox="0 0 349.91 302.499">
<defs>
<g>
<g id="glyph-0-0">
<path d="M 6.5625 -2.296875 C 6.734375 -2.296875 6.921875 -2.296875 6.921875 -2.5 C 6.921875 -2.6875 6.734375 -2.6875 6.5625 -2.6875 L 1.171875 -2.6875 C 1 -2.6875 0.828125 -2.6875 0.828125 -2.5 C 0.828125 -2.296875 1 -2.296875 1.171875 -2.296875 Z M 6.5625 -2.296875 "/>
</g>
<g id="glyph-1-0">
<path d="M 1.265625 -0.765625 L 2.328125 -1.796875 C 3.875 -3.171875 4.46875 -3.703125 4.46875 -4.703125 C 4.46875 -5.84375 3.578125 -6.640625 2.359375 -6.640625 C 1.234375 -6.640625 0.5 -5.71875 0.5 -4.828125 C 0.5 -4.28125 1 -4.28125 1.03125 -4.28125 C 1.203125 -4.28125 1.546875 -4.390625 1.546875 -4.8125 C 1.546875 -5.0625 1.359375 -5.328125 1.015625 -5.328125 C 0.9375 -5.328125 0.921875 -5.328125 0.890625 -5.3125 C 1.109375 -5.96875 1.65625 -6.328125 2.234375 -6.328125 C 3.140625 -6.328125 3.5625 -5.515625 3.5625 -4.703125 C 3.5625 -3.90625 3.078125 -3.125 2.515625 -2.5 L 0.609375 -0.375 C 0.5 -0.265625 0.5 -0.234375 0.5 0 L 4.203125 0 L 4.46875 -1.734375 L 4.234375 -1.734375 C 4.171875 -1.4375 4.109375 -1 4 -0.84375 C 3.9375 -0.765625 3.28125 -0.765625 3.0625 -0.765625 Z M 1.265625 -0.765625 "/>
</g>
<g id="glyph-1-1">
<path d="M 4.578125 -3.1875 C 4.578125 -3.984375 4.53125 -4.78125 4.1875 -5.515625 C 3.734375 -6.484375 2.90625 -6.640625 2.5 -6.640625 C 1.890625 -6.640625 1.171875 -6.375 0.75 -5.453125 C 0.4375 -4.765625 0.390625 -3.984375 0.390625 -3.1875 C 0.390625 -2.4375 0.421875 -1.546875 0.84375 -0.78125 C 1.265625 0.015625 2 0.21875 2.484375 0.21875 C 3.015625 0.21875 3.78125 0.015625 4.21875 -0.9375 C 4.53125 -1.625 4.578125 -2.40625 4.578125 -3.1875 Z M 2.484375 0 C 2.09375 0 1.5 -0.25 1.328125 -1.203125 C 1.21875 -1.796875 1.21875 -2.71875 1.21875 -3.3125 C 1.21875 -3.953125 1.21875 -4.609375 1.296875 -5.140625 C 1.484375 -6.328125 2.234375 -6.421875 2.484375 -6.421875 C 2.8125 -6.421875 3.46875 -6.234375 3.65625 -5.25 C 3.765625 -4.6875 3.765625 -3.9375 3.765625 -3.3125 C 3.765625 -2.5625 3.765625 -1.890625 3.65625 -1.25 C 3.5 -0.296875 2.9375 0 2.484375 0 Z M 2.484375 0 "/>
</g>
<g id="glyph-1-2">
<path d="M 2.9375 -1.640625 L 2.9375 -0.78125 C 2.9375 -0.421875 2.90625 -0.3125 2.171875 -0.3125 L 1.96875 -0.3125 L 1.96875 0 C 2.375 -0.03125 2.890625 -0.03125 3.3125 -0.03125 C 3.734375 -0.03125 4.25 -0.03125 4.671875 0 L 4.671875 -0.3125 L 4.453125 -0.3125 C 3.71875 -0.3125 3.703125 -0.421875 3.703125 -0.78125 L 3.703125 -1.640625 L 4.6875 -1.640625 L 4.6875 -1.953125 L 3.703125 -1.953125 L 3.703125 -6.484375 C 3.703125 -6.6875 3.703125 -6.75 3.53125 -6.75 C 3.453125 -6.75 3.421875 -6.75 3.34375 -6.625 L 0.28125 -1.953125 L 0.28125 -1.640625 Z M 2.984375 -1.953125 L 0.5625 -1.953125 L 2.984375 -5.671875 Z M 2.984375 -1.953125 "/>
</g>
<g id="glyph-1-3">
<path d="M 1.3125 -3.265625 L 1.3125 -3.515625 C 1.3125 -6.03125 2.546875 -6.390625 3.0625 -6.390625 C 3.296875 -6.390625 3.71875 -6.328125 3.9375 -5.984375 C 3.78125 -5.984375 3.390625 -5.984375 3.390625 -5.546875 C 3.390625 -5.234375 3.625 -5.078125 3.84375 -5.078125 C 4 -5.078125 4.3125 -5.171875 4.3125 -5.5625 C 4.3125 -6.15625 3.875 -6.640625 3.046875 -6.640625 C 1.765625 -6.640625 0.421875 -5.359375 0.421875 -3.15625 C 0.421875 -0.484375 1.578125 0.21875 2.5 0.21875 C 3.609375 0.21875 4.5625 -0.71875 4.5625 -2.03125 C 4.5625 -3.296875 3.671875 -4.25 2.5625 -4.25 C 1.890625 -4.25 1.515625 -3.75 1.3125 -3.265625 Z M 2.5 -0.0625 C 1.875 -0.0625 1.578125 -0.65625 1.515625 -0.8125 C 1.328125 -1.28125 1.328125 -2.078125 1.328125 -2.25 C 1.328125 -3.03125 1.65625 -4.03125 2.546875 -4.03125 C 2.71875 -4.03125 3.171875 -4.03125 3.484375 -3.40625 C 3.65625 -3.046875 3.65625 -2.53125 3.65625 -2.046875 C 3.65625 -1.5625 3.65625 -1.0625 3.484375 -0.703125 C 3.1875 -0.109375 2.734375 -0.0625 2.5 -0.0625 Z M 2.5 -0.0625 "/>
</g>
<g id="glyph-1-4">
<path d="M 1.625 -4.5625 C 1.171875 -4.859375 1.125 -5.1875 1.125 -5.359375 C 1.125 -5.96875 1.78125 -6.390625 2.484375 -6.390625 C 3.203125 -6.390625 3.84375 -5.875 3.84375 -5.15625 C 3.84375 -4.578125 3.453125 -4.109375 2.859375 -3.765625 Z M 3.078125 -3.609375 C 3.796875 -3.984375 4.28125 -4.5 4.28125 -5.15625 C 4.28125 -6.078125 3.40625 -6.640625 2.5 -6.640625 C 1.5 -6.640625 0.6875 -5.90625 0.6875 -4.96875 C 0.6875 -4.796875 0.703125 -4.34375 1.125 -3.875 C 1.234375 -3.765625 1.609375 -3.515625 1.859375 -3.34375 C 1.28125 -3.046875 0.421875 -2.5 0.421875 -1.5 C 0.421875 -0.453125 1.4375 0.21875 2.484375 0.21875 C 3.609375 0.21875 4.5625 -0.609375 4.5625 -1.671875 C 4.5625 -2.03125 4.453125 -2.484375 4.0625 -2.90625 C 3.875 -3.109375 3.71875 -3.203125 3.078125 -3.609375 Z M 2.078125 -3.1875 L 3.3125 -2.40625 C 3.59375 -2.21875 4.0625 -1.921875 4.0625 -1.3125 C 4.0625 -0.578125 3.3125 -0.0625 2.5 -0.0625 C 1.640625 -0.0625 0.921875 -0.671875 0.921875 -1.5 C 0.921875 -2.078125 1.234375 -2.71875 2.078125 -3.1875 Z M 2.078125 -3.1875 "/>
</g>
<g id="glyph-1-5">
<path d="M 2.9375 -6.375 C 2.9375 -6.625 2.9375 -6.640625 2.703125 -6.640625 C 2.078125 -6 1.203125 -6 0.890625 -6 L 0.890625 -5.6875 C 1.09375 -5.6875 1.671875 -5.6875 2.1875 -5.953125 L 2.1875 -0.78125 C 2.1875 -0.421875 2.15625 -0.3125 1.265625 -0.3125 L 0.953125 -0.3125 L 0.953125 0 C 1.296875 -0.03125 2.15625 -0.03125 2.5625 -0.03125 C 2.953125 -0.03125 3.828125 -0.03125 4.171875 0 L 4.171875 -0.3125 L 3.859375 -0.3125 C 2.953125 -0.3125 2.9375 -0.421875 2.9375 -0.78125 Z M 2.9375 -6.375 "/>
</g>
<g id="glyph-1-6">
<path d="M 4.46875 -2 C 4.46875 -3.1875 3.65625 -4.1875 2.578125 -4.1875 C 2.109375 -4.1875 1.671875 -4.03125 1.3125 -3.671875 L 1.3125 -5.625 C 1.515625 -5.5625 1.84375 -5.5 2.15625 -5.5 C 3.390625 -5.5 4.09375 -6.40625 4.09375 -6.53125 C 4.09375 -6.59375 4.0625 -6.640625 3.984375 -6.640625 C 3.984375 -6.640625 3.953125 -6.640625 3.90625 -6.609375 C 3.703125 -6.515625 3.21875 -6.3125 2.546875 -6.3125 C 2.15625 -6.3125 1.6875 -6.390625 1.21875 -6.59375 C 1.140625 -6.625 1.125 -6.625 1.109375 -6.625 C 1 -6.625 1 -6.546875 1 -6.390625 L 1 -3.4375 C 1 -3.265625 1 -3.1875 1.140625 -3.1875 C 1.21875 -3.1875 1.234375 -3.203125 1.28125 -3.265625 C 1.390625 -3.421875 1.75 -3.96875 2.5625 -3.96875 C 3.078125 -3.96875 3.328125 -3.515625 3.40625 -3.328125 C 3.5625 -2.953125 3.59375 -2.578125 3.59375 -2.078125 C 3.59375 -1.71875 3.59375 -1.125 3.34375 -0.703125 C 3.109375 -0.3125 2.734375 -0.0625 2.28125 -0.0625 C 1.5625 -0.0625 0.984375 -0.59375 0.8125 -1.171875 C 0.84375 -1.171875 0.875 -1.15625 0.984375 -1.15625 C 1.3125 -1.15625 1.484375 -1.40625 1.484375 -1.640625 C 1.484375 -1.890625 1.3125 -2.140625 0.984375 -2.140625 C 0.84375 -2.140625 0.5 -2.0625 0.5 -1.609375 C 0.5 -0.75 1.1875 0.21875 2.296875 0.21875 C 3.453125 0.21875 4.46875 -0.734375 4.46875 -2 Z M 4.46875 -2 "/>
</g>
<g id="glyph-1-7">
<path d="M 2.890625 -3.515625 C 3.703125 -3.78125 4.28125 -4.46875 4.28125 -5.265625 C 4.28125 -6.078125 3.40625 -6.640625 2.453125 -6.640625 C 1.453125 -6.640625 0.6875 -6.046875 0.6875 -5.28125 C 0.6875 -4.953125 0.90625 -4.765625 1.203125 -4.765625 C 1.5 -4.765625 1.703125 -4.984375 1.703125 -5.28125 C 1.703125 -5.765625 1.234375 -5.765625 1.09375 -5.765625 C 1.390625 -6.265625 2.046875 -6.390625 2.40625 -6.390625 C 2.828125 -6.390625 3.375 -6.171875 3.375 -5.28125 C 3.375 -5.15625 3.34375 -4.578125 3.09375 -4.140625 C 2.796875 -3.65625 2.453125 -3.625 2.203125 -3.625 C 2.125 -3.609375 1.890625 -3.59375 1.8125 -3.59375 C 1.734375 -3.578125 1.671875 -3.5625 1.671875 -3.46875 C 1.671875 -3.359375 1.734375 -3.359375 1.90625 -3.359375 L 2.34375 -3.359375 C 3.15625 -3.359375 3.53125 -2.6875 3.53125 -1.703125 C 3.53125 -0.34375 2.84375 -0.0625 2.40625 -0.0625 C 1.96875 -0.0625 1.21875 -0.234375 0.875 -0.8125 C 1.21875 -0.765625 1.53125 -0.984375 1.53125 -1.359375 C 1.53125 -1.71875 1.265625 -1.921875 0.984375 -1.921875 C 0.734375 -1.921875 0.421875 -1.78125 0.421875 -1.34375 C 0.421875 -0.4375 1.34375 0.21875 2.4375 0.21875 C 3.65625 0.21875 4.5625 -0.6875 4.5625 -1.703125 C 4.5625 -2.515625 3.921875 -3.296875 2.890625 -3.515625 Z M 2.890625 -3.515625 "/>
</g>
<g id="glyph-1-8">
<path d="M 6.84375 -3.265625 C 7 -3.265625 7.1875 -3.265625 7.1875 -3.453125 C 7.1875 -3.65625 7 -3.65625 6.859375 -3.65625 L 0.890625 -3.65625 C 0.75 -3.65625 0.5625 -3.65625 0.5625 -3.453125 C 0.5625 -3.265625 0.75 -3.265625 0.890625 -3.265625 Z M 6.859375 -1.328125 C 7 -1.328125 7.1875 -1.328125 7.1875 -1.53125 C 7.1875 -1.71875 7 -1.71875 6.84375 -1.71875 L 0.890625 -1.71875 C 0.75 -1.71875 0.5625 -1.71875 0.5625 -1.53125 C 0.5625 -1.328125 0.75 -1.328125 0.890625 -1.328125 Z M 6.859375 -1.328125 "/>
</g>
<g id="glyph-1-9">
<path d="M 1.765625 -6.921875 L 0.328125 -6.8125 L 0.328125 -6.5 C 1.03125 -6.5 1.109375 -6.4375 1.109375 -5.9375 L 1.109375 -0.75 C 1.109375 -0.3125 1 -0.3125 0.328125 -0.3125 L 0.328125 0 C 0.65625 -0.015625 1.1875 -0.03125 1.4375 -0.03125 C 1.6875 -0.03125 2.171875 -0.015625 2.546875 0 L 2.546875 -0.3125 C 1.875 -0.3125 1.765625 -0.3125 1.765625 -0.75 Z M 1.765625 -6.921875 "/>
</g>
<g id="glyph-1-10">
<path d="M 1.09375 -3.421875 L 1.09375 -0.75 C 1.09375 -0.3125 0.984375 -0.3125 0.3125 -0.3125 L 0.3125 0 C 0.671875 -0.015625 1.171875 -0.03125 1.453125 -0.03125 C 1.703125 -0.03125 2.21875 -0.015625 2.5625 0 L 2.5625 -0.3125 C 1.890625 -0.3125 1.78125 -0.3125 1.78125 -0.75 L 1.78125 -2.59375 C 1.78125 -3.625 2.5 -4.1875 3.125 -4.1875 C 3.765625 -4.1875 3.875 -3.65625 3.875 -3.078125 L 3.875 -0.75 C 3.875 -0.3125 3.765625 -0.3125 3.09375 -0.3125 L 3.09375 0 C 3.4375 -0.015625 3.953125 -0.03125 4.21875 -0.03125 C 4.46875 -0.03125 5 -0.015625 5.328125 0 L 5.328125 -0.3125 C 4.8125 -0.3125 4.5625 -0.3125 4.5625 -0.609375 L 4.5625 -2.515625 C 4.5625 -3.375 4.5625 -3.671875 4.25 -4.03125 C 4.109375 -4.203125 3.78125 -4.40625 3.203125 -4.40625 C 2.46875 -4.40625 2 -3.984375 1.71875 -3.359375 L 1.71875 -4.40625 L 0.3125 -4.296875 L 0.3125 -3.984375 C 1.015625 -3.984375 1.09375 -3.921875 1.09375 -3.421875 Z M 1.09375 -3.421875 "/>
</g>
<g id="glyph-1-11">
<path d="M 3.296875 2.390625 C 3.296875 2.359375 3.296875 2.34375 3.125 2.171875 C 1.890625 0.921875 1.5625 -0.96875 1.5625 -2.5 C 1.5625 -4.234375 1.9375 -5.96875 3.171875 -7.203125 C 3.296875 -7.328125 3.296875 -7.34375 3.296875 -7.375 C 3.296875 -7.453125 3.265625 -7.484375 3.203125 -7.484375 C 3.09375 -7.484375 2.203125 -6.796875 1.609375 -5.53125 C 1.109375 -4.4375 0.984375 -3.328125 0.984375 -2.5 C 0.984375 -1.71875 1.09375 -0.515625 1.640625 0.625 C 2.25 1.84375 3.09375 2.5 3.203125 2.5 C 3.265625 2.5 3.296875 2.46875 3.296875 2.390625 Z M 3.296875 2.390625 "/>
</g>
<g id="glyph-1-12">
<path d="M 2.875 -2.5 C 2.875 -3.265625 2.765625 -4.46875 2.21875 -5.609375 C 1.625 -6.828125 0.765625 -7.484375 0.671875 -7.484375 C 0.609375 -7.484375 0.5625 -7.4375 0.5625 -7.375 C 0.5625 -7.34375 0.5625 -7.328125 0.75 -7.140625 C 1.734375 -6.15625 2.296875 -4.578125 2.296875 -2.5 C 2.296875 -0.78125 1.9375 0.96875 0.703125 2.21875 C 0.5625 2.34375 0.5625 2.359375 0.5625 2.390625 C 0.5625 2.453125 0.609375 2.5 0.671875 2.5 C 0.765625 2.5 1.671875 1.8125 2.25 0.546875 C 2.765625 -0.546875 2.875 -1.65625 2.875 -2.5 Z M 2.875 -2.5 "/>
</g>
<g id="glyph-2-0">
<path d="M 1.90625 -0.53125 C 1.90625 -0.8125 1.671875 -1.0625 1.390625 -1.0625 C 1.09375 -1.0625 0.859375 -0.8125 0.859375 -0.53125 C 0.859375 -0.234375 1.09375 0 1.390625 0 C 1.671875 0 1.90625 -0.234375 1.90625 -0.53125 Z M 1.90625 -0.53125 "/>
</g>
<g id="glyph-2-1">
<path d="M 0.875 -0.59375 C 0.84375 -0.4375 0.78125 -0.203125 0.78125 -0.15625 C 0.78125 0.015625 0.921875 0.109375 1.078125 0.109375 C 1.203125 0.109375 1.375 0.03125 1.453125 -0.171875 C 1.453125 -0.1875 1.578125 -0.65625 1.640625 -0.90625 L 1.859375 -1.796875 C 1.90625 -2.03125 1.96875 -2.25 2.03125 -2.46875 C 2.0625 -2.640625 2.140625 -2.9375 2.15625 -2.96875 C 2.296875 -3.28125 2.828125 -4.1875 3.78125 -4.1875 C 4.234375 -4.1875 4.3125 -3.8125 4.3125 -3.484375 C 4.3125 -2.875 3.828125 -1.59375 3.671875 -1.171875 C 3.578125 -0.9375 3.5625 -0.8125 3.5625 -0.703125 C 3.5625 -0.234375 3.921875 0.109375 4.390625 0.109375 C 5.328125 0.109375 5.6875 -1.34375 5.6875 -1.421875 C 5.6875 -1.53125 5.609375 -1.53125 5.578125 -1.53125 C 5.46875 -1.53125 5.46875 -1.5 5.421875 -1.34375 C 5.21875 -0.671875 4.890625 -0.109375 4.40625 -0.109375 C 4.234375 -0.109375 4.171875 -0.203125 4.171875 -0.4375 C 4.171875 -0.6875 4.25 -0.921875 4.34375 -1.140625 C 4.53125 -1.671875 4.953125 -2.765625 4.953125 -3.34375 C 4.953125 -4 4.53125 -4.40625 3.8125 -4.40625 C 2.90625 -4.40625 2.421875 -3.765625 2.25 -3.53125 C 2.203125 -4.09375 1.796875 -4.40625 1.328125 -4.40625 C 0.875 -4.40625 0.6875 -4.015625 0.59375 -3.84375 C 0.421875 -3.5 0.296875 -2.90625 0.296875 -2.875 C 0.296875 -2.765625 0.390625 -2.765625 0.40625 -2.765625 C 0.515625 -2.765625 0.515625 -2.78125 0.578125 -3 C 0.75 -3.703125 0.953125 -4.1875 1.3125 -4.1875 C 1.5 -4.1875 1.609375 -4.0625 1.609375 -3.734375 C 1.609375 -3.515625 1.578125 -3.40625 1.453125 -2.890625 Z M 0.875 -0.59375 "/>
</g>
<g id="glyph-2-2">
<path d="M 7.609375 -6.046875 C 7.703125 -6.40625 7.71875 -6.5 8.4375 -6.5 C 8.703125 -6.5 8.78125 -6.5 8.78125 -6.703125 C 8.78125 -6.8125 8.671875 -6.8125 8.640625 -6.8125 C 8.359375 -6.8125 7.640625 -6.78125 7.359375 -6.78125 C 7.078125 -6.78125 6.375 -6.8125 6.078125 -6.8125 C 6 -6.8125 5.890625 -6.8125 5.890625 -6.609375 C 5.890625 -6.5 5.984375 -6.5 6.171875 -6.5 C 6.1875 -6.5 6.375 -6.5 6.546875 -6.484375 C 6.734375 -6.453125 6.8125 -6.453125 6.8125 -6.3125 C 6.8125 -6.28125 6.8125 -6.265625 6.78125 -6.125 L 6.1875 -3.703125 L 3.140625 -3.703125 L 3.734375 -6.046875 C 3.8125 -6.40625 3.84375 -6.5 4.5625 -6.5 C 4.828125 -6.5 4.90625 -6.5 4.90625 -6.703125 C 4.90625 -6.8125 4.796875 -6.8125 4.765625 -6.8125 C 4.484375 -6.8125 3.765625 -6.78125 3.484375 -6.78125 C 3.203125 -6.78125 2.5 -6.8125 2.203125 -6.8125 C 2.125 -6.8125 2.015625 -6.8125 2.015625 -6.609375 C 2.015625 -6.5 2.109375 -6.5 2.296875 -6.5 C 2.3125 -6.5 2.5 -6.5 2.671875 -6.484375 C 2.84375 -6.453125 2.9375 -6.453125 2.9375 -6.3125 C 2.9375 -6.28125 2.9375 -6.25 2.90625 -6.125 L 1.5625 -0.78125 C 1.46875 -0.390625 1.453125 -0.3125 0.65625 -0.3125 C 0.484375 -0.3125 0.390625 -0.3125 0.390625 -0.109375 C 0.390625 0 0.515625 0 0.53125 0 C 0.8125 0 1.515625 -0.03125 1.796875 -0.03125 C 2 -0.03125 2.21875 -0.015625 2.4375 -0.015625 C 2.65625 -0.015625 2.875 0 3.078125 0 C 3.15625 0 3.28125 0 3.28125 -0.203125 C 3.28125 -0.3125 3.1875 -0.3125 3 -0.3125 C 2.625 -0.3125 2.359375 -0.3125 2.359375 -0.484375 C 2.359375 -0.546875 2.375 -0.59375 2.375 -0.65625 L 3.0625 -3.390625 L 6.09375 -3.390625 C 5.6875 -1.734375 5.453125 -0.78125 5.40625 -0.640625 C 5.3125 -0.3125 5.125 -0.3125 4.5 -0.3125 C 4.359375 -0.3125 4.265625 -0.3125 4.265625 -0.109375 C 4.265625 0 4.390625 0 4.40625 0 C 4.6875 0 5.390625 -0.03125 5.671875 -0.03125 C 5.875 -0.03125 6.09375 -0.015625 6.3125 -0.015625 C 6.53125 -0.015625 6.75 0 6.953125 0 C 7.03125 0 7.15625 0 7.15625 -0.203125 C 7.15625 -0.3125 7.0625 -0.3125 6.875 -0.3125 C 6.515625 -0.3125 6.234375 -0.3125 6.234375 -0.484375 C 6.234375 -0.546875 6.25 -0.59375 6.265625 -0.65625 Z M 7.609375 -6.046875 "/>
</g>
<g id="glyph-3-0">
<path d="M -3.796875 -4.84375 C -3.9375 -4.890625 -3.953125 -4.890625 -4.03125 -4.890625 C -4.203125 -4.890625 -4.296875 -4.75 -4.296875 -4.59375 C -4.296875 -4.5 -4.234375 -4.34375 -4.09375 -4.25 C -4.03125 -4.234375 -3.734375 -4.140625 -3.546875 -4.109375 C -3.296875 -4.03125 -3.015625 -3.96875 -2.75 -3.90625 L -0.953125 -3.453125 C -0.8125 -3.421875 -0.109375 -2.984375 -0.109375 -2.328125 C -0.109375 -1.828125 -0.546875 -1.71875 -0.921875 -1.71875 C -1.375 -1.71875 -2 -1.890625 -2.875 -2.21875 C -3.28125 -2.375 -3.390625 -2.421875 -3.59375 -2.421875 C -4.03125 -2.421875 -4.40625 -2.109375 -4.40625 -1.609375 C -4.40625 -0.65625 -2.953125 -0.296875 -2.875 -0.296875 C -2.765625 -0.296875 -2.765625 -0.390625 -2.765625 -0.40625 C -2.765625 -0.515625 -2.796875 -0.515625 -2.953125 -0.5625 C -3.890625 -0.84375 -4.1875 -1.234375 -4.1875 -1.578125 C -4.1875 -1.65625 -4.1875 -1.828125 -3.875 -1.828125 C -3.625 -1.828125 -3.359375 -1.71875 -3.171875 -1.65625 C -2.109375 -1.25 -1.546875 -1.078125 -1.078125 -1.078125 C -0.1875 -1.078125 0.109375 -1.703125 0.109375 -2.296875 C 0.109375 -2.6875 -0.0625 -3.015625 -0.34375 -3.296875 C 0.171875 -3.171875 0.671875 -3.046875 1.203125 -2.65625 C 1.53125 -2.390625 1.828125 -2.015625 1.828125 -1.5625 C 1.828125 -1.421875 1.796875 -0.96875 1.40625 -0.796875 C 1.40625 -0.953125 1.40625 -1.09375 1.28125 -1.21875 C 1.203125 -1.328125 1.0625 -1.421875 0.875 -1.421875 C 0.5625 -1.421875 0.53125 -1.15625 0.53125 -1.0625 C 0.53125 -0.828125 0.6875 -0.5 1.171875 -0.5 C 1.671875 -0.5 2.046875 -0.9375 2.046875 -1.5625 C 2.046875 -2.578125 1.140625 -3.609375 0.015625 -3.890625 Z M -3.796875 -4.84375 "/>
</g>
<g id="glyph-4-0">
<path d="M 0.84375 -0.4375 C 0.828125 -0.34375 0.78125 -0.171875 0.78125 -0.15625 C 0.78125 0 0.90625 0.0625 1.015625 0.0625 C 1.140625 0.0625 1.25 -0.015625 1.296875 -0.078125 C 1.328125 -0.140625 1.375 -0.375 1.421875 -0.515625 C 1.453125 -0.640625 1.53125 -0.96875 1.5625 -1.140625 C 1.609375 -1.296875 1.65625 -1.453125 1.6875 -1.609375 C 1.765625 -1.890625 1.78125 -1.953125 1.984375 -2.234375 C 2.171875 -2.515625 2.5 -2.875 3.03125 -2.875 C 3.421875 -2.875 3.4375 -2.515625 3.4375 -2.390625 C 3.4375 -1.96875 3.140625 -1.203125 3.03125 -0.90625 C 2.953125 -0.703125 2.921875 -0.640625 2.921875 -0.53125 C 2.921875 -0.15625 3.21875 0.0625 3.578125 0.0625 C 4.28125 0.0625 4.578125 -0.890625 4.578125 -1 C 4.578125 -1.09375 4.5 -1.09375 4.46875 -1.09375 C 4.375 -1.09375 4.375 -1.046875 4.34375 -0.96875 C 4.1875 -0.40625 3.875 -0.125 3.609375 -0.125 C 3.453125 -0.125 3.421875 -0.21875 3.421875 -0.375 C 3.421875 -0.53125 3.46875 -0.625 3.59375 -0.9375 C 3.671875 -1.15625 3.953125 -1.890625 3.953125 -2.28125 C 3.953125 -2.953125 3.421875 -3.078125 3.046875 -3.078125 C 2.46875 -3.078125 2.078125 -2.71875 1.875 -2.4375 C 1.828125 -2.921875 1.421875 -3.078125 1.125 -3.078125 C 0.828125 -3.078125 0.671875 -2.859375 0.578125 -2.703125 C 0.421875 -2.4375 0.328125 -2.046875 0.328125 -2 C 0.328125 -1.921875 0.421875 -1.921875 0.453125 -1.921875 C 0.546875 -1.921875 0.546875 -1.9375 0.59375 -2.125 C 0.703125 -2.53125 0.84375 -2.875 1.109375 -2.875 C 1.296875 -2.875 1.34375 -2.71875 1.34375 -2.53125 C 1.34375 -2.40625 1.28125 -2.140625 1.21875 -1.953125 C 1.171875 -1.765625 1.109375 -1.484375 1.078125 -1.328125 Z M 0.84375 -0.4375 "/>
</g>
<g id="glyph-4-1">
<path d="M 2.1875 -4.625 C 2.1875 -4.640625 2.203125 -4.734375 2.203125 -4.734375 C 2.203125 -4.78125 2.1875 -4.84375 2.09375 -4.84375 C 1.953125 -4.84375 1.375 -4.78125 1.203125 -4.765625 C 1.15625 -4.765625 1.046875 -4.75 1.046875 -4.609375 C 1.046875 -4.515625 1.15625 -4.515625 1.234375 -4.515625 C 1.5625 -4.515625 1.5625 -4.453125 1.5625 -4.40625 C 1.5625 -4.359375 1.546875 -4.3125 1.546875 -4.25 L 0.5625 -0.3125 C 0.515625 -0.1875 0.515625 -0.171875 0.515625 -0.15625 C 0.515625 -0.046875 0.609375 0.0625 0.765625 0.0625 C 0.953125 0.0625 1.03125 -0.0625 1.078125 -0.21875 C 1.09375 -0.25 1.390625 -1.484375 1.421875 -1.578125 C 1.921875 -1.53125 2.3125 -1.359375 2.3125 -1 C 2.3125 -0.96875 2.3125 -0.9375 2.296875 -0.859375 C 2.265625 -0.765625 2.265625 -0.71875 2.265625 -0.640625 C 2.265625 -0.15625 2.671875 0.0625 3.015625 0.0625 C 3.6875 0.0625 3.890625 -0.984375 3.890625 -1 C 3.890625 -1.09375 3.8125 -1.09375 3.78125 -1.09375 C 3.6875 -1.09375 3.671875 -1.046875 3.640625 -0.921875 C 3.5625 -0.625 3.375 -0.125 3.03125 -0.125 C 2.84375 -0.125 2.78125 -0.296875 2.78125 -0.484375 C 2.78125 -0.609375 2.78125 -0.625 2.828125 -0.796875 C 2.84375 -0.828125 2.859375 -0.9375 2.859375 -1.015625 C 2.859375 -1.640625 2.03125 -1.734375 1.734375 -1.75 C 1.9375 -1.875 2.1875 -2.109375 2.3125 -2.21875 C 2.671875 -2.546875 3.015625 -2.875 3.40625 -2.875 C 3.484375 -2.875 3.578125 -2.859375 3.640625 -2.78125 C 3.34375 -2.734375 3.28125 -2.5 3.28125 -2.390625 C 3.28125 -2.25 3.390625 -2.140625 3.546875 -2.140625 C 3.75 -2.140625 3.953125 -2.296875 3.953125 -2.578125 C 3.953125 -2.8125 3.78125 -3.078125 3.421875 -3.078125 C 3.015625 -3.078125 2.65625 -2.78125 2.296875 -2.453125 C 2 -2.1875 1.78125 -1.96875 1.484375 -1.84375 Z M 2.1875 -4.625 "/>
</g>
<g id="glyph-5-0">
<path d="M 4.203125 5.328125 L 0.65625 9.703125 C 0.578125 9.796875 0.5625 9.8125 0.5625 9.859375 C 0.5625 9.96875 0.65625 9.96875 0.84375 9.96875 L 9.09375 9.96875 L 9.953125 7.484375 L 9.703125 7.484375 C 9.453125 8.234375 8.796875 8.84375 7.9375 9.125 C 7.78125 9.1875 7.09375 9.421875 5.625 9.421875 L 1.390625 9.421875 L 4.859375 5.140625 C 4.921875 5.046875 4.9375 5.03125 4.9375 4.984375 C 4.9375 4.9375 4.9375 4.9375 4.875 4.84375 L 1.640625 0.40625 L 5.578125 0.40625 C 6.71875 0.40625 9.015625 0.46875 9.703125 2.328125 L 9.953125 2.328125 L 9.09375 0 L 0.84375 0 C 0.5625 0 0.5625 0.015625 0.5625 0.3125 Z M 4.203125 5.328125 "/>
</g>
<g id="glyph-6-0">
<path d="M 5.359375 -2.34375 C 5.453125 -2.34375 5.609375 -2.34375 5.609375 -2.515625 C 5.609375 -2.6875 5.453125 -2.6875 5.359375 -2.6875 L 0.75 -2.6875 C 0.65625 -2.6875 0.484375 -2.6875 0.484375 -2.515625 C 0.484375 -2.34375 0.640625 -2.34375 0.75 -2.34375 Z M 5.359375 -0.8125 C 5.453125 -0.8125 5.609375 -0.8125 5.609375 -0.96875 C 5.609375 -1.15625 5.453125 -1.15625 5.359375 -1.15625 L 0.75 -1.15625 C 0.640625 -1.15625 0.484375 -1.15625 0.484375 -0.96875 C 0.484375 -0.8125 0.65625 -0.8125 0.75 -0.8125 Z M 5.359375 -0.8125 "/>
</g>
<g id="glyph-6-1">
<path d="M 2.328125 -4.4375 C 2.328125 -4.625 2.328125 -4.625 2.125 -4.625 C 1.671875 -4.1875 1.046875 -4.1875 0.765625 -4.1875 L 0.765625 -3.9375 C 0.921875 -3.9375 1.390625 -3.9375 1.765625 -4.125 L 1.765625 -0.578125 C 1.765625 -0.34375 1.765625 -0.25 1.078125 -0.25 L 0.8125 -0.25 L 0.8125 0 C 0.9375 0 1.796875 -0.03125 2.046875 -0.03125 C 2.265625 -0.03125 3.140625 0 3.296875 0 L 3.296875 -0.25 L 3.03125 -0.25 C 2.328125 -0.25 2.328125 -0.34375 2.328125 -0.578125 Z M 2.328125 -4.4375 "/>
</g>
</g>
<clipPath id="clip-0">
<path clip-rule="nonzero" d="M 95 0 L 349.910156 0 L 349.910156 251 L 95 251 Z M 95 0 "/>
</clipPath>
<clipPath id="clip-1">
<path clip-rule="nonzero" d="M 82 3 L 349.910156 3 L 349.910156 246 L 82 246 Z M 82 3 "/>
</clipPath>
<clipPath id="clip-2">
<path clip-rule="nonzero" d="M 95 0 L 349.910156 0 L 349.910156 251 L 95 251 Z M 95 0 "/>
</clipPath>
<clipPath id="clip-3">
<path clip-rule="nonzero" d="M 82 3 L 349.910156 3 L 349.910156 246 L 82 246 Z M 82 3 "/>
</clipPath>
<clipPath id="clip-4">
<path clip-rule="nonzero" d="M 82 0 L 349.910156 0 L 349.910156 251 L 82 251 Z M 82 0 "/>
</clipPath>
</defs>
<g clip-path="url(#clip-0)">
<path fill="none" stroke-width="0.3985" stroke-linecap="butt" stroke-linejoin="miter" stroke="rgb(75%, 75%, 75%)" stroke-opacity="1" stroke-miterlimit="10" d="M -21.897437 -29.033406 L -21.897437 222.591594 M 0.001 -29.033406 L 0.001 222.591594 M 21.895531 -29.033406 L 21.895531 222.591594 M 43.793969 -29.033406 L 43.793969 222.591594 M 65.6885 -29.033406 L 65.6885 222.591594 M 87.586938 -29.033406 L 87.586938 222.591594 M 109.481469 -29.033406 L 109.481469 222.591594 M 131.376 -29.033406 L 131.376 222.591594 M 153.274438 -29.033406 L 153.274438 222.591594 M 175.168969 -29.033406 L 175.168969 222.591594 M 197.067406 -29.033406 L 197.067406 222.591594 M 218.961938 -29.033406 L 218.961938 222.591594 M 240.860375 -29.033406 L 240.860375 222.591594 M 262.754906 -29.033406 L 262.754906 222.591594 " transform="matrix(1, 0, 0, -1, 117.249, 221.033)"/>
</g>
<g clip-path="url(#clip-1)">
<path fill="none" stroke-width="0.3985" stroke-linecap="butt" stroke-linejoin="miter" stroke="rgb(75%, 75%, 75%)" stroke-opacity="1" stroke-miterlimit="10" d="M -34.483375 -24.193563 L 264.395531 -24.193563 M -34.483375 0.00175 L 264.395531 0.00175 M -34.483375 24.193156 L 264.395531 24.193156 M -34.483375 48.388469 L 264.395531 48.388469 M -34.483375 72.583781 L 264.395531 72.583781 M -34.483375 96.779094 L 264.395531 96.779094 M -34.483375 120.974406 L 264.395531 120.974406 M -34.483375 145.169719 L 264.395531 145.169719 M -34.483375 169.361125 L 264.395531 169.361125 M -34.483375 193.556437 L 264.395531 193.556437 M -34.483375 217.75175 L 264.395531 217.75175 " transform="matrix(1, 0, 0, -1, 117.249, 221.033)"/>
</g>
<g clip-path="url(#clip-2)">
<path fill="none" stroke-width="0.19925" stroke-linecap="butt" stroke-linejoin="miter" stroke="rgb(50%, 50%, 50%)" stroke-opacity="1" stroke-miterlimit="10" d="M -21.897437 -29.033406 L -21.897437 -24.7795 M 0.001 -29.033406 L 0.001 -24.7795 M 21.895531 -29.033406 L 21.895531 -24.7795 M 43.793969 -29.033406 L 43.793969 -24.7795 M 65.6885 -29.033406 L 65.6885 -24.7795 M 87.586938 -29.033406 L 87.586938 -24.7795 M 109.481469 -29.033406 L 109.481469 -24.7795 M 131.376 -29.033406 L 131.376 -24.7795 M 153.274438 -29.033406 L 153.274438 -24.7795 M 175.168969 -29.033406 L 175.168969 -24.7795 M 197.067406 -29.033406 L 197.067406 -24.7795 M 218.961938 -29.033406 L 218.961938 -24.7795 M 240.860375 -29.033406 L 240.860375 -24.7795 M 262.754906 -29.033406 L 262.754906 -24.7795 M -21.897437 222.591594 L -21.897437 218.337687 M 0.001 222.591594 L 0.001 218.337687 M 21.895531 222.591594 L 21.895531 218.337687 M 43.793969 222.591594 L 43.793969 218.337687 M 65.6885 222.591594 L 65.6885 218.337687 M 87.586938 222.591594 L 87.586938 218.337687 M 109.481469 222.591594 L 109.481469 218.337687 M 131.376 222.591594 L 131.376 218.337687 M 153.274438 222.591594 L 153.274438 218.337687 M 175.168969 222.591594 L 175.168969 218.337687 M 197.067406 222.591594 L 197.067406 218.337687 M 218.961938 222.591594 L 218.961938 218.337687 M 240.860375 222.591594 L 240.860375 218.337687 M 262.754906 222.591594 L 262.754906 218.337687 " transform="matrix(1, 0, 0, -1, 117.249, 221.033)"/>
</g>
<g clip-path="url(#clip-3)">
<path fill="none" stroke-width="0.19925" stroke-linecap="butt" stroke-linejoin="miter" stroke="rgb(50%, 50%, 50%)" stroke-opacity="1" stroke-miterlimit="10" d="M -34.483375 -24.193563 L -30.233375 -24.193563 M -34.483375 0.00175 L -30.233375 0.00175 M -34.483375 24.193156 L -30.233375 24.193156 M -34.483375 48.388469 L -30.233375 48.388469 M -34.483375 72.583781 L -30.233375 72.583781 M -34.483375 96.779094 L -30.233375 96.779094 M -34.483375 120.974406 L -30.233375 120.974406 M -34.483375 145.169719 L -30.233375 145.169719 M -34.483375 169.361125 L -30.233375 169.361125 M -34.483375 193.556437 L -30.233375 193.556437 M -34.483375 217.75175 L -30.233375 217.75175 M 264.395531 -24.193563 L 260.145531 -24.193563 M 264.395531 0.00175 L 260.145531 0.00175 M 264.395531 24.193156 L 260.145531 24.193156 M 264.395531 48.388469 L 260.145531 48.388469 M 264.395531 72.583781 L 260.145531 72.583781 M 264.395531 96.779094 L 260.145531 96.779094 M 264.395531 120.974406 L 260.145531 120.974406 M 264.395531 145.169719 L 260.145531 145.169719 M 264.395531 169.361125 L 260.145531 169.361125 M 264.395531 193.556437 L 260.145531 193.556437 M 264.395531 217.75175 L 260.145531 217.75175 " transform="matrix(1, 0, 0, -1, 117.249, 221.033)"/>
</g>
<g clip-path="url(#clip-4)">
<path fill="none" stroke-width="0.3985" stroke-linecap="butt" stroke-linejoin="miter" stroke="rgb(0%, 0%, 0%)" stroke-opacity="1" stroke-miterlimit="10" d="M -34.483375 -29.033406 L -34.483375 222.591594 L 264.395531 222.591594 L 264.395531 -29.033406 Z M -34.483375 -29.033406 " transform="matrix(1, 0, 0, -1, 117.249, 221.033)"/>
</g>
<g fill="rgb(0%, 0%, 0%)" fill-opacity="1">
<use xlink:href="#glyph-0-0" x="88.988" y="260.005"/>
</g>
<g fill="rgb(0%, 0%, 0%)" fill-opacity="1">
<use xlink:href="#glyph-1-0" x="96.73691" y="260.005"/>
</g>
<g fill="rgb(0%, 0%, 0%)" fill-opacity="1">
<use xlink:href="#glyph-1-1" x="114.759" y="260.005"/>
</g>
<g fill="rgb(0%, 0%, 0%)" fill-opacity="1">
<use xlink:href="#glyph-1-0" x="136.655" y="260.005"/>
</g>
<g fill="rgb(0%, 0%, 0%)" fill-opacity="1">
<use xlink:href="#glyph-1-2" x="158.551" y="260.005"/>
</g>
<g fill="rgb(0%, 0%, 0%)" fill-opacity="1">
<use xlink:href="#glyph-1-3" x="180.447" y="260.005"/>
</g>
<g fill="rgb(0%, 0%, 0%)" fill-opacity="1">
<use xlink:href="#glyph-1-4" x="202.343" y="260.005"/>
</g>
<g fill="rgb(0%, 0%, 0%)" fill-opacity="1">
<use xlink:href="#glyph-1-5" x="221.748" y="260.005"/>
<use xlink:href="#glyph-1-1" x="226.7293" y="260.005"/>
</g>
<g fill="rgb(0%, 0%, 0%)" fill-opacity="1">
<use xlink:href="#glyph-1-5" x="243.644" y="260.005"/>
<use xlink:href="#glyph-1-0" x="248.6253" y="260.005"/>
</g>
<g fill="rgb(0%, 0%, 0%)" fill-opacity="1">
<use xlink:href="#glyph-1-5" x="265.54" y="260.005"/>
<use xlink:href="#glyph-1-2" x="270.5213" y="260.005"/>
</g>
<g fill="rgb(0%, 0%, 0%)" fill-opacity="1">
<use xlink:href="#glyph-1-5" x="287.436" y="260.005"/>
<use xlink:href="#glyph-1-3" x="292.4173" y="260.005"/>
</g>
<g fill="rgb(0%, 0%, 0%)" fill-opacity="1">
<use xlink:href="#glyph-1-5" x="309.332" y="260.005"/>
<use xlink:href="#glyph-1-4" x="314.3133" y="260.005"/>
</g>
<g fill="rgb(0%, 0%, 0%)" fill-opacity="1">
<use xlink:href="#glyph-1-0" x="331.228" y="260.005"/>
<use xlink:href="#glyph-1-1" x="336.2093" y="260.005"/>
</g>
<g fill="rgb(0%, 0%, 0%)" fill-opacity="1">
<use xlink:href="#glyph-0-0" x="58.766" y="248.022"/>
</g>
<g fill="rgb(0%, 0%, 0%)" fill-opacity="1">
<use xlink:href="#glyph-1-1" x="66.51491" y="248.022"/>
</g>
<g fill="rgb(0%, 0%, 0%)" fill-opacity="1">
<use xlink:href="#glyph-2-0" x="71.49621" y="248.022"/>
</g>
<g fill="rgb(0%, 0%, 0%)" fill-opacity="1">
<use xlink:href="#glyph-1-6" x="74.263821" y="248.022"/>
</g>
<g fill="rgb(0%, 0%, 0%)" fill-opacity="1">
<use xlink:href="#glyph-1-1" x="74.263" y="224.243"/>
</g>
<g fill="rgb(0%, 0%, 0%)" fill-opacity="1">
<use xlink:href="#glyph-1-1" x="66.515" y="200.049"/>
</g>
<g fill="rgb(0%, 0%, 0%)" fill-opacity="1">
<use xlink:href="#glyph-2-0" x="71.4963" y="200.049"/>
</g>
<g fill="rgb(0%, 0%, 0%)" fill-opacity="1">
<use xlink:href="#glyph-1-6" x="74.26391" y="200.049"/>
</g>
<g fill="rgb(0%, 0%, 0%)" fill-opacity="1">
<use xlink:href="#glyph-1-5" x="74.263" y="175.854"/>
</g>
<g fill="rgb(0%, 0%, 0%)" fill-opacity="1">
<use xlink:href="#glyph-1-5" x="66.515" y="151.66"/>
</g>
<g fill="rgb(0%, 0%, 0%)" fill-opacity="1">
<use xlink:href="#glyph-2-0" x="71.4963" y="151.66"/>
</g>
<g fill="rgb(0%, 0%, 0%)" fill-opacity="1">
<use xlink:href="#glyph-1-6" x="74.26391" y="151.66"/>
</g>
<g fill="rgb(0%, 0%, 0%)" fill-opacity="1">
<use xlink:href="#glyph-1-0" x="74.263" y="127.466"/>
</g>
<g fill="rgb(0%, 0%, 0%)" fill-opacity="1">
<use xlink:href="#glyph-1-0" x="66.515" y="103.271"/>
</g>
<g fill="rgb(0%, 0%, 0%)" fill-opacity="1">
<use xlink:href="#glyph-2-0" x="71.4963" y="103.271"/>
</g>
<g fill="rgb(0%, 0%, 0%)" fill-opacity="1">
<use xlink:href="#glyph-1-6" x="74.26391" y="103.271"/>
</g>
<g fill="rgb(0%, 0%, 0%)" fill-opacity="1">
<use xlink:href="#glyph-1-7" x="74.263" y="79.077"/>
</g>
<g fill="rgb(0%, 0%, 0%)" fill-opacity="1">
<use xlink:href="#glyph-1-7" x="66.515" y="54.882"/>
</g>
<g fill="rgb(0%, 0%, 0%)" fill-opacity="1">
<use xlink:href="#glyph-2-0" x="71.4963" y="54.882"/>
</g>
<g fill="rgb(0%, 0%, 0%)" fill-opacity="1">
<use xlink:href="#glyph-1-6" x="74.26391" y="54.882"/>
</g>
<g fill="rgb(0%, 0%, 0%)" fill-opacity="1">
<use xlink:href="#glyph-1-2" x="74.263" y="30.688"/>
</g>
<g fill="rgb(0%, 0%, 0%)" fill-opacity="1">
<use xlink:href="#glyph-1-2" x="66.515" y="6.494"/>
</g>
<g fill="rgb(0%, 0%, 0%)" fill-opacity="1">
<use xlink:href="#glyph-2-0" x="71.4963" y="6.494"/>
</g>
<g fill="rgb(0%, 0%, 0%)" fill-opacity="1">
<use xlink:href="#glyph-1-6" x="74.26391" y="6.494"/>
</g>
<path fill-rule="nonzero" fill="rgb(0%, 0%, 0%)" fill-opacity="0.5" stroke-width="0.3985" stroke-linecap="butt" stroke-linejoin="miter" stroke="rgb(0%, 0%, 0%)" stroke-opacity="1" stroke-miterlimit="10" d="M 5.278344 0.00175 L 16.618188 0.00175 L 16.618188 48.388469 L 5.278344 48.388469 Z M 16.227563 0.00175 L 27.567406 0.00175 L 27.567406 72.583781 L 16.227563 72.583781 Z M 27.176781 0.00175 L 38.512719 0.00175 L 38.512719 88.712687 L 27.176781 88.712687 Z M 38.122094 0.00175 L 49.461938 0.00175 L 49.461938 100.810344 L 38.122094 100.810344 Z M 49.071313 0.00175 L 60.411156 0.00175 L 60.411156 110.490031 L 49.071313 110.490031 Z M 60.020531 0.00175 L 71.356469 0.00175 L 71.356469 118.552531 L 60.020531 118.552531 Z M 70.96975 0.00175 L 82.305688 0.00175 L 82.305688 125.466594 L 70.96975 125.466594 Z M 81.915063 0.00175 L 93.254906 0.00175 L 93.254906 131.517375 L 81.915063 131.517375 Z M 92.864281 0.00175 L 104.204125 0.00175 L 104.204125 136.892375 L 92.864281 136.892375 Z M 103.8135 0.00175 L 115.149438 0.00175 L 115.149438 141.732219 L 103.8135 141.732219 Z M 114.758813 0.00175 L 126.098656 0.00175 L 126.098656 146.130656 L 114.758813 146.130656 Z M 125.708031 0.00175 L 137.047875 0.00175 L 137.047875 150.161906 L 125.708031 150.161906 Z M 136.65725 0.00175 L 147.997094 0.00175 L 147.997094 153.884562 L 136.65725 153.884562 Z M 147.606469 0.00175 L 158.942406 0.00175 L 158.942406 157.341594 L 147.606469 157.341594 Z M 158.551781 0.00175 L 169.891625 0.00175 L 169.891625 160.568156 L 158.551781 160.568156 Z M 169.501 0.00175 L 180.840844 0.00175 L 180.840844 163.591594 L 169.501 163.591594 Z M 180.450219 0.00175 L 191.786156 0.00175 L 191.786156 166.43925 L 180.450219 166.43925 Z M 191.399438 0.00175 L 202.735375 0.00175 L 202.735375 169.12675 L 191.399438 169.12675 Z M 202.34475 0.00175 L 213.684594 0.00175 L 213.684594 171.673625 L 202.34475 171.673625 Z M 213.293969 0.00175 L 224.633813 0.00175 L 224.633813 174.091594 L 213.293969 174.091594 Z M 213.293969 0.00175 " transform="matrix(1, 0, 0, -1, 117.249, 221.033)"/>
<path fill="none" stroke-width="0.3985" stroke-linecap="butt" stroke-linejoin="miter" stroke="rgb(0%, 0%, 0%)" stroke-opacity="1" stroke-miterlimit="10" d="M 10.946313 0.00175 C 10.946313 0.00175 12.465844 6.31425 13.047875 8.493937 C 13.633813 10.673625 14.567406 13.841594 15.149438 15.716594 C 15.731469 17.591594 16.668969 20.357219 17.251 22.00175 C 17.833031 23.646281 18.770531 26.103312 19.352563 27.56425 C 19.934594 29.029094 20.872094 31.228312 21.454125 32.548625 C 22.036156 33.865031 22.96975 35.868937 23.555688 37.072062 C 24.137719 38.271281 25.071313 40.103312 25.65725 41.204875 C 26.239281 42.310344 27.172875 43.997844 27.754906 45.017375 C 28.340844 46.033 29.274438 47.599406 29.856469 48.544719 C 30.442406 49.490031 31.376 50.950969 31.958031 51.837687 C 32.540063 52.7205 33.477563 54.087687 34.059594 54.919719 C 34.641625 55.747844 35.579125 57.029094 36.161156 57.810344 C 36.743188 58.591594 37.680688 59.810344 38.262719 60.548625 C 38.84475 61.283 39.778344 62.431437 40.364281 63.130656 C 40.946313 63.829875 41.879906 64.915812 42.465844 65.579875 C 43.047875 66.247844 43.981469 67.290812 44.5635 67.927531 C 45.149438 68.560344 46.083031 69.548625 46.665063 70.154094 C 47.251 70.759562 48.184594 71.708781 48.766625 72.286906 C 49.348656 72.865031 50.286156 73.771281 50.868188 74.329875 C 51.450219 74.884562 52.387719 75.755656 52.96975 76.286906 C 53.551781 76.822062 54.489281 77.658 55.071313 78.169719 C 55.653344 78.681437 56.586938 79.486125 57.172875 79.982219 C 57.754906 80.474406 58.6885 81.25175 59.274438 81.724406 C 59.856469 82.200969 60.790063 82.954875 61.372094 83.411906 C 61.958031 83.872844 62.891625 84.5955 63.473656 85.040812 C 64.059594 85.486125 64.993188 86.185344 65.575219 86.615031 C 66.15725 87.044719 67.09475 87.724406 67.676781 88.142375 C 68.258813 88.560344 69.196313 89.216594 69.778344 89.622844 C 70.360375 90.029094 71.293969 90.665812 71.879906 91.056437 C 72.461938 91.450969 73.395531 92.068156 73.981469 92.450969 C 74.5635 92.829875 75.497094 93.435344 76.079125 93.806437 C 76.665063 94.177531 77.598656 94.759562 78.180688 95.122844 C 78.766625 95.482219 79.700219 96.056437 80.28225 96.408 C 80.864281 96.759562 81.801781 97.31425 82.383813 97.658 C 82.965844 97.997844 83.903344 98.536906 84.485375 98.872844 C 85.067406 99.204875 86.004906 99.732219 86.586938 100.060344 C 87.168969 100.384562 88.102563 100.908 88.6885 101.228312 C 89.270531 101.544719 90.204125 102.048625 90.790063 102.361125 C 91.372094 102.669719 92.305688 103.161906 92.887719 103.466594 C 93.473656 103.771281 94.40725 104.25175 94.989281 104.548625 C 95.575219 104.8455 96.508813 105.31425 97.090844 105.607219 C 97.672875 105.896281 98.610375 106.361125 99.192406 106.642375 C 99.774438 106.927531 100.711938 107.380656 101.293969 107.658 C 101.876 107.93925 102.8135 108.380656 103.395531 108.654094 C 103.977563 108.923625 104.911156 109.357219 105.497094 109.622844 C 106.079125 109.892375 107.012719 110.31425 107.598656 110.579875 C 108.180688 110.841594 109.114281 111.259562 109.696313 111.517375 C 110.28225 111.775187 111.215844 112.181437 111.797875 112.431437 C 112.383813 112.685344 113.317406 113.087687 113.899438 113.333781 C 114.481469 113.579875 115.418969 113.974406 116.001 114.2205 C 116.583031 114.462687 117.520531 114.849406 118.102563 115.087687 C 118.684594 115.325969 119.622094 115.704875 120.204125 115.93925 C 120.786156 116.173625 121.71975 116.548625 122.305688 116.779094 C 122.887719 117.009562 123.821313 117.37675 124.40725 117.603312 C 124.989281 117.829875 125.922875 118.18925 126.504906 118.411906 C 127.090844 118.638469 128.024438 118.990031 128.606469 119.212687 C 129.192406 119.431437 130.126 119.779094 130.708031 119.993937 C 131.290063 120.208781 132.227563 120.556437 132.809594 120.767375 C 133.391625 120.978312 134.329125 121.318156 134.911156 121.525187 C 135.493188 121.736125 136.430688 122.068156 137.012719 122.275187 C 137.59475 122.482219 138.528344 122.806437 139.114281 123.009562 C 139.696313 123.212687 140.629906 123.536906 141.215844 123.736125 C 141.797875 123.935344 142.731469 124.25175 143.3135 124.450969 C 143.899438 124.646281 144.833031 124.958781 145.415063 125.154094 C 146.001 125.349406 146.934594 125.658 147.516625 125.849406 C 148.098656 126.040812 149.036156 126.3455 149.618188 126.533 C 150.200219 126.724406 151.137719 127.021281 151.71975 127.208781 C 152.301781 127.392375 153.235375 127.68925 153.821313 127.872844 C 154.403344 128.056437 155.336938 128.349406 155.922875 128.529094 C 156.504906 128.708781 157.4385 128.997844 158.020531 129.177531 C 158.606469 129.357219 159.540063 129.638469 160.122094 129.81425 C 160.708031 129.990031 161.641625 130.271281 162.223656 130.447062 C 162.805688 130.618937 163.743188 130.896281 164.325219 131.068156 C 164.90725 131.240031 165.84475 131.513469 166.426781 131.681437 C 167.008813 131.853312 167.946313 132.122844 168.528344 132.290812 C 169.110375 132.458781 170.043969 132.724406 170.629906 132.888469 C 171.211938 133.056437 172.145531 133.318156 172.731469 133.482219 C 173.3135 133.642375 174.247094 133.908 174.829125 134.068156 C 175.415063 134.228312 176.348656 134.486125 176.930688 134.646281 C 177.516625 134.806437 178.450219 135.060344 179.03225 135.216594 C 179.614281 135.37675 180.551781 135.62675 181.133813 135.779094 C 181.715844 135.935344 182.653344 136.185344 183.235375 136.337687 C 183.817406 136.493937 184.754906 136.740031 185.336938 136.892375 C 185.918969 137.044719 186.852563 137.286906 187.4385 137.435344 C 188.020531 137.587687 188.954125 137.825969 189.540063 137.974406 C 190.122094 138.122844 191.055688 138.361125 191.637719 138.505656 C 192.223656 138.654094 193.15725 138.888469 193.739281 139.033 C 194.325219 139.177531 195.258813 139.408 195.840844 139.552531 C 196.422875 139.697062 197.360375 139.927531 197.942406 140.072062 C 198.524438 140.212687 199.461938 140.443156 200.043969 140.587687 C 200.626 140.728312 201.5635 140.954875 202.145531 141.091594 C 202.727563 141.232219 203.661156 141.450969 204.247094 141.591594 C 204.829125 141.728312 205.762719 141.947062 206.348656 142.083781 C 206.930688 142.2205 207.864281 142.43925 208.446313 142.575969 C 209.03225 142.712687 209.965844 142.923625 210.547875 143.056437 C 211.133813 143.18925 212.067406 143.404094 212.649438 143.536906 C 213.231469 143.669719 214.168969 143.884562 214.751 144.017375 C 215.333031 144.146281 216.270531 144.357219 216.852563 144.486125 C 217.434594 144.615031 218.954125 144.950969 218.954125 144.950969 " transform="matrix(1, 0, 0, -1, 117.249, 221.033)"/>
<g fill="rgb(0%, 0%, 0%)" fill-opacity="1">
<use xlink:href="#glyph-2-1" x="229.214" y="271.965"/>
</g>
<g fill="rgb(0%, 0%, 0%)" fill-opacity="1">
<use xlink:href="#glyph-3-0" x="49.988" y="126.876"/>
</g>
<path fill-rule="nonzero" fill="rgb(100%, 100%, 100%)" fill-opacity="1" stroke-width="0.3985" stroke-linecap="butt" stroke-linejoin="miter" stroke="rgb(0%, 0%, 0%)" stroke-opacity="1" stroke-miterlimit="10" d="M -25.319312 184.009562 L 65.985375 184.009562 L 65.985375 214.841594 L -25.319312 214.841594 Z M -25.319312 184.009562 " transform="matrix(1, 0, 0, -1, 117.249, 221.033)"/>
<path fill="none" stroke-width="0.3985" stroke-linecap="butt" stroke-linejoin="miter" stroke="rgb(0%, 0%, 0%)" stroke-opacity="1" stroke-miterlimit="10" d="M -1.494812 0.0011875 L 1.493469 0.0011875 Z M 7.009094 0.0011875 L 9.997375 0.0011875 Z M 15.513 0.0011875 L 18.501281 0.0011875 Z M 15.513 0.0011875 " transform="matrix(1, 0, 0, -1, 96.612, 15.134)"/>
<g fill="rgb(0%, 0%, 0%)" fill-opacity="1">
<use xlink:href="#glyph-2-2" x="117.306" y="18.595"/>
</g>
<g fill="rgb(0%, 0%, 0%)" fill-opacity="1">
<use xlink:href="#glyph-4-0" x="125.588" y="20.09"/>
</g>
<g fill="rgb(0%, 0%, 0%)" fill-opacity="1">
<use xlink:href="#glyph-1-8" x="133.778" y="18.595"/>
</g>
<g fill="rgb(0%, 0%, 0%)" fill-opacity="1">
<use xlink:href="#glyph-5-0" x="144.294" y="11.123"/>
</g>
<g fill="rgb(0%, 0%, 0%)" fill-opacity="1">
<use xlink:href="#glyph-4-0" x="154.81" y="13.586"/>
</g>
<g fill="rgb(0%, 0%, 0%)" fill-opacity="1">
<use xlink:href="#glyph-4-1" x="154.81" y="21.584"/>
</g>
<g fill="rgb(0%, 0%, 0%)" fill-opacity="1">
<use xlink:href="#glyph-6-0" x="159.21256" y="21.584"/>
<use xlink:href="#glyph-6-1" x="165.328583" y="21.584"/>
</g>
<g fill="rgb(0%, 0%, 0%)" fill-opacity="1">
<use xlink:href="#glyph-6-1" x="172.871" y="14.673"/>
</g>
<path fill="none" stroke-width="0.398" stroke-linecap="butt" stroke-linejoin="miter" stroke="rgb(0%, 0%, 0%)" stroke-opacity="1" stroke-miterlimit="10" d="M 0.00125 -0.00046875 L 4.403594 -0.00046875 " transform="matrix(1, 0, 0, -1, 172.655, 16.105)"/>
<g fill="rgb(0%, 0%, 0%)" fill-opacity="1">
<use xlink:href="#glyph-4-1" x="172.655" y="22.031"/>
</g>
<path fill="none" stroke-width="0.3985" stroke-linecap="butt" stroke-linejoin="miter" stroke="rgb(0%, 0%, 0%)" stroke-opacity="1" stroke-miterlimit="10" d="M 0.00128125 -0.00059375 C 0.00128125 -0.00059375 6.145813 -0.00059375 8.505188 -0.00059375 C 10.864563 -0.00059375 17.009094 -0.00059375 17.009094 -0.00059375 " transform="matrix(1, 0, 0, -1, 96.612, 28.558)"/>
<g fill="rgb(0%, 0%, 0%)" fill-opacity="1">
<use xlink:href="#glyph-1-9" x="136.765" y="31.547"/>
<use xlink:href="#glyph-1-10" x="139.53261" y="31.547"/>
<use xlink:href="#glyph-1-11" x="145.067831" y="31.547"/>
</g>
<g fill="rgb(0%, 0%, 0%)" fill-opacity="1">
<use xlink:href="#glyph-2-1" x="148.942286" y="31.547"/>
</g>
<g fill="rgb(0%, 0%, 0%)" fill-opacity="1">
<use xlink:href="#glyph-1-12" x="154.921839" y="31.547"/>
</g>
</svg>
