<?xml version="1.0" encoding="UTF-8"?>
<svg xmlns="http://www.w3.org/2000/svg" xmlns:xlink="http://www.w3.org/1999/xlink" width="409.801pt" height="78.275pt" viewBox="0 0 409.801 78.275">
<defs>
<g>
<g id="glyph-0-0">
<path d="M 2.203125 -1.34375 C 1.828125 -0.6875 1.5 -0.40625 0.890625 -0.34375 C 0.765625 -0.328125 0.671875 -0.328125 0.671875 -0.125 C 0.671875 0 0.78125 0 0.8125 0 C 1.09375 0 1.421875 -0.03125 1.71875 -0.03125 C 2.046875 -0.03125 2.390625 0 2.703125 0 C 2.78125 0 2.921875 0 2.921875 -0.234375 C 2.921875 -0.328125 2.828125 -0.34375 2.75 -0.34375 C 2.46875 -0.375 2.296875 -0.515625 2.296875 -0.734375 C 2.296875 -0.90625 2.390625 -1.0625 2.5 -1.25 L 3.375 -2.796875 L 6.140625 -2.796875 L 6.28125 -0.875 C 6.28125 -0.6875 6.3125 -0.359375 5.5625 -0.34375 C 5.40625 -0.34375 5.296875 -0.34375 5.296875 -0.125 C 5.296875 0 5.421875 0 5.46875 0 C 5.859375 0 6.28125 -0.03125 6.6875 -0.03125 C 7.09375 -0.03125 7.5 0 7.875 0 C 7.953125 0 8.09375 0 8.09375 -0.21875 C 8.09375 -0.34375 8.015625 -0.34375 7.859375 -0.34375 C 7.265625 -0.34375 7.203125 -0.4375 7.1875 -0.734375 L 6.65625 -8.25 C 6.640625 -8.5 6.640625 -8.53125 6.46875 -8.53125 C 6.296875 -8.53125 6.265625 -8.46875 6.1875 -8.3125 Z M 3.578125 -3.140625 L 5.84375 -7.125 L 6.125 -3.140625 Z M 3.578125 -3.140625 "/>
</g>
<g id="glyph-0-1">
<path d="M 3.25 -4.8125 L 5.609375 -4.8125 L 4.75 -1.359375 C 4.6875 -1.125 4.6875 -0.984375 4.6875 -0.9375 C 4.6875 -0.296875 5.09375 0.125 5.640625 0.125 C 6.109375 0.125 6.34375 -0.234375 6.5 -0.578125 C 6.703125 -0.984375 6.84375 -1.671875 6.84375 -1.703125 C 6.84375 -1.8125 6.734375 -1.8125 6.6875 -1.8125 C 6.546875 -1.8125 6.53125 -1.8125 6.46875 -1.53125 C 6.234375 -0.53125 6 -0.125 5.671875 -0.125 C 5.40625 -0.125 5.34375 -0.375 5.34375 -0.59375 C 5.34375 -0.8125 5.390625 -1.03125 5.4375 -1.234375 L 6.390625 -5.046875 C 6.390625 -5.15625 6.3125 -5.15625 6.125 -5.15625 L 3.3125 -5.15625 C 3.40625 -5.59375 3.421875 -5.71875 3.53125 -6.265625 C 3.765625 -7.421875 3.921875 -8.171875 5.359375 -8.171875 C 5.546875 -8.171875 6.265625 -8.171875 6.5625 -7.828125 C 6.1875 -7.765625 6.078125 -7.453125 6.078125 -7.296875 C 6.078125 -7.140625 6.1875 -6.9375 6.453125 -6.9375 C 6.734375 -6.9375 7 -7.171875 7 -7.5625 C 7 -8.421875 5.640625 -8.421875 5.359375 -8.421875 C 4 -8.421875 3.140625 -7.9375 2.828125 -6.328125 L 2.59375 -5.15625 L 1.84375 -5.15625 C 1.640625 -5.15625 1.53125 -5.15625 1.53125 -4.921875 C 1.53125 -4.8125 1.625 -4.8125 1.8125 -4.8125 L 2.515625 -4.8125 L 1.65625 -0.34375 C 1.5 0.40625 1.34375 0.984375 1.28125 1.25 C 1.1875 1.625 1.046875 2.203125 0.609375 2.203125 C 0.5625 2.203125 0.265625 2.1875 0.109375 1.96875 C 0.546875 1.890625 0.59375 1.53125 0.59375 1.4375 C 0.59375 1.203125 0.4375 1.09375 0.234375 1.09375 C -0.046875 1.09375 -0.328125 1.296875 -0.328125 1.703125 C -0.328125 2.15625 0.125 2.4375 0.609375 2.4375 C 1.578125 2.4375 2.140625 0.9375 2.515625 -0.984375 Z M 3.25 -4.8125 "/>
</g>
<g id="glyph-0-2">
<path d="M 3.5625 -8.015625 C 3.578125 -8.09375 3.59375 -8.140625 3.59375 -8.171875 C 3.59375 -8.28125 3.515625 -8.296875 3.328125 -8.28125 L 2.125 -8.171875 C 1.953125 -8.15625 1.859375 -8.15625 1.859375 -7.9375 C 1.859375 -7.8125 1.953125 -7.8125 2.109375 -7.8125 C 2.71875 -7.8125 2.71875 -7.703125 2.71875 -7.59375 C 2.71875 -7.546875 2.6875 -7.421875 2.671875 -7.375 L 1.171875 -1.34375 C 1.140625 -1.25 1.109375 -1.109375 1.109375 -0.9375 C 1.109375 -0.296875 1.515625 0.125 2.0625 0.125 C 2.46875 0.125 2.71875 -0.15625 2.875 -0.484375 C 3.09375 -0.890625 3.265625 -1.65625 3.265625 -1.703125 C 3.265625 -1.8125 3.171875 -1.8125 3.109375 -1.8125 C 3.0625 -1.8125 2.96875 -1.8125 2.953125 -1.75 C 2.9375 -1.703125 2.890625 -1.53125 2.859375 -1.421875 C 2.703125 -0.84375 2.5 -0.125 2.09375 -0.125 C 1.828125 -0.125 1.765625 -0.375 1.765625 -0.59375 C 1.765625 -0.75 1.828125 -1.09375 1.859375 -1.25 Z M 3.5625 -8.015625 "/>
</g>
<g id="glyph-0-3">
<path d="M 2.75 -2.765625 C 3.171875 -2.765625 5.421875 -2.765625 5.421875 -4.28125 C 5.421875 -4.8125 4.96875 -5.265625 4.265625 -5.265625 C 3.03125 -5.265625 1.359375 -4.046875 1.359375 -1.953125 C 1.359375 -0.734375 1.984375 0.125 3 0.125 C 4.484375 0.125 5.46875 -1.09375 5.46875 -1.25 C 5.46875 -1.34375 5.359375 -1.4375 5.296875 -1.4375 C 5.265625 -1.4375 5.25 -1.421875 5.15625 -1.3125 C 4.515625 -0.453125 3.625 -0.125 3.015625 -0.125 C 2.21875 -0.125 2.109375 -1.0625 2.109375 -1.453125 C 2.109375 -1.96875 2.203125 -2.3125 2.3125 -2.765625 Z M 2.390625 -3.015625 C 2.875 -4.90625 4.046875 -5.03125 4.25 -5.03125 C 4.734375 -5.03125 5.015625 -4.703125 5.015625 -4.296875 C 5.015625 -3.015625 3.03125 -3.015625 2.640625 -3.015625 Z M 2.390625 -3.015625 "/>
</g>
<g id="glyph-0-4">
<path d="M 5.546875 -4.859375 C 5.28125 -4.796875 5.125 -4.578125 5.125 -4.34375 C 5.125 -4.09375 5.3125 -4 5.5 -4 C 5.71875 -4 6.03125 -4.140625 6.03125 -4.578125 C 6.03125 -5.140625 5.375 -5.265625 5.03125 -5.265625 C 4.4375 -5.265625 4.0625 -4.78125 3.890625 -4.453125 C 3.75 -4.859375 3.375 -5.265625 2.78125 -5.265625 C 1.59375 -5.265625 0.984375 -3.6875 0.984375 -3.4375 C 0.984375 -3.328125 1.09375 -3.328125 1.15625 -3.328125 C 1.296875 -3.328125 1.296875 -3.359375 1.359375 -3.546875 C 1.640625 -4.453125 2.21875 -5.03125 2.765625 -5.03125 C 3.03125 -5.03125 3.3125 -4.84375 3.3125 -4.265625 C 3.3125 -4 3.1875 -3.515625 3.09375 -3.140625 C 3.03125 -2.875 2.625 -1.265625 2.609375 -1.171875 C 2.46875 -0.765625 2.171875 -0.125 1.640625 -0.125 C 1.578125 -0.125 1.3125 -0.125 1.09375 -0.28125 C 1.453125 -0.375 1.53125 -0.671875 1.53125 -0.8125 C 1.53125 -1.046875 1.359375 -1.15625 1.15625 -1.15625 C 0.84375 -1.15625 0.609375 -0.890625 0.609375 -0.578125 C 0.609375 -0.09375 1.140625 0.125 1.609375 0.125 C 2.109375 0.125 2.484375 -0.203125 2.75 -0.703125 C 2.84375 -0.421875 3.15625 0.125 3.875 0.125 C 5.046875 0.125 5.65625 -1.46875 5.65625 -1.703125 C 5.65625 -1.8125 5.546875 -1.8125 5.5 -1.8125 C 5.359375 -1.8125 5.359375 -1.796875 5.296875 -1.59375 C 5.046875 -0.78125 4.484375 -0.125 3.890625 -0.125 C 3.390625 -0.125 3.328125 -0.671875 3.328125 -0.890625 C 3.328125 -1.140625 3.421875 -1.515625 3.5625 -2.109375 C 3.640625 -2.359375 3.75 -2.859375 3.84375 -3.1875 C 4.0625 -4.109375 4.296875 -5.03125 5.015625 -5.03125 C 5.078125 -5.03125 5.328125 -5.03125 5.546875 -4.859375 Z M 5.546875 -4.859375 "/>
</g>
<g id="glyph-0-5">
<path d="M 3.8125 -7.453125 C 3.8125 -7.671875 3.640625 -7.8125 3.4375 -7.8125 C 3.234375 -7.8125 2.921875 -7.609375 2.921875 -7.28125 C 2.921875 -7.015625 3.109375 -6.921875 3.28125 -6.921875 C 3.53125 -6.921875 3.8125 -7.140625 3.8125 -7.453125 Z M 1.609375 -1.34375 C 1.515625 -1.09375 1.515625 -0.9375 1.515625 -0.828125 C 1.515625 -0.125 1.984375 0.125 2.375 0.125 C 3.484375 0.125 3.859375 -1.65625 3.859375 -1.703125 C 3.859375 -1.8125 3.75 -1.8125 3.703125 -1.8125 C 3.5625 -1.8125 3.546875 -1.78125 3.5 -1.609375 C 3.390625 -1.1875 3.078125 -0.125 2.40625 -0.125 C 2.265625 -0.125 2.125 -0.171875 2.125 -0.46875 C 2.125 -0.78125 2.296875 -1.203125 2.515625 -1.796875 L 3.21875 -3.734375 C 3.328125 -4.03125 3.34375 -4.125 3.34375 -4.34375 C 3.34375 -4.953125 2.953125 -5.265625 2.484375 -5.265625 C 1.390625 -5.265625 0.984375 -3.5 0.984375 -3.4375 C 0.984375 -3.328125 1.09375 -3.328125 1.15625 -3.328125 C 1.296875 -3.328125 1.3125 -3.375 1.359375 -3.53125 C 1.453125 -3.921875 1.765625 -5.03125 2.46875 -5.03125 C 2.71875 -5.03125 2.71875 -4.8125 2.71875 -4.671875 C 2.71875 -4.359375 2.65625 -4.15625 2.5625 -3.9375 Z M 1.609375 -1.34375 "/>
</g>
<g id="glyph-0-6">
<path d="M 4.5625 -4.40625 C 4.140625 -4.34375 4.109375 -4 4.109375 -3.9375 C 4.109375 -3.8125 4.203125 -3.640625 4.4375 -3.640625 C 4.703125 -3.640625 4.90625 -3.859375 4.90625 -4.265625 C 4.90625 -4.8125 4.4375 -5.265625 3.671875 -5.265625 C 2.234375 -5.265625 1.8125 -4.046875 1.8125 -3.53125 C 1.8125 -3.09375 2.046875 -2.84375 2.15625 -2.71875 C 2.359375 -2.53125 2.578125 -2.46875 3.09375 -2.359375 C 3.390625 -2.296875 4 -2.15625 4 -1.5 C 4 -1.171875 3.71875 -0.125 2.40625 -0.125 C 1.96875 -0.125 1.375 -0.28125 1.25 -0.84375 C 1.8125 -0.875 1.8125 -1.359375 1.8125 -1.390625 C 1.8125 -1.640625 1.609375 -1.734375 1.453125 -1.734375 C 1.34375 -1.734375 0.890625 -1.6875 0.890625 -1.03125 C 0.890625 -0.296875 1.5625 0.125 2.390625 0.125 C 4.0625 0.125 4.59375 -1.203125 4.59375 -1.859375 C 4.59375 -2.875 3.734375 -3.078125 3.171875 -3.203125 C 2.84375 -3.28125 2.421875 -3.375 2.421875 -3.90625 C 2.421875 -4.21875 2.671875 -5.03125 3.640625 -5.03125 C 4.140625 -5.03125 4.484375 -4.78125 4.5625 -4.40625 Z M 4.5625 -4.40625 "/>
</g>
<g id="glyph-0-7">
<path d="M 3.0625 -4.8125 L 4.046875 -4.8125 C 4.25 -4.8125 4.375 -4.8125 4.375 -5.015625 C 4.375 -5.15625 4.296875 -5.15625 4.09375 -5.15625 L 3.140625 -5.15625 L 3.625 -7.03125 C 3.640625 -7.046875 3.640625 -7.15625 3.640625 -7.1875 C 3.640625 -7.296875 3.5625 -7.46875 3.328125 -7.46875 C 3.03125 -7.46875 2.921875 -7.203125 2.875 -7.03125 L 2.421875 -5.15625 L 1.40625 -5.15625 C 1.1875 -5.15625 1.078125 -5.15625 1.078125 -4.921875 C 1.078125 -4.8125 1.171875 -4.8125 1.359375 -4.8125 L 2.328125 -4.8125 L 1.46875 -1.359375 C 1.40625 -1.125 1.40625 -0.984375 1.40625 -0.9375 C 1.40625 -0.375 1.734375 0.125 2.390625 0.125 C 3.5625 0.125 4.15625 -1.65625 4.15625 -1.703125 C 4.15625 -1.8125 4.046875 -1.8125 4 -1.8125 C 3.875 -1.8125 3.859375 -1.796875 3.796875 -1.65625 C 3.65625 -1.296875 3.1875 -0.125 2.421875 -0.125 C 2.234375 -0.125 2.0625 -0.203125 2.0625 -0.59375 C 2.0625 -0.78125 2.109375 -1.046875 2.15625 -1.234375 Z M 3.0625 -4.8125 "/>
</g>
<g id="glyph-0-8">
<path d="M 5.9375 -3.328125 C 5.9375 -4.578125 5.171875 -5.265625 4.28125 -5.265625 C 2.828125 -5.265625 1.3125 -3.578125 1.3125 -1.8125 C 1.3125 -0.53125 2.109375 0.125 2.96875 0.125 C 4.4375 0.125 5.9375 -1.59375 5.9375 -3.328125 Z M 2.984375 -0.125 C 2.484375 -0.125 2.078125 -0.546875 2.078125 -1.359375 C 2.078125 -1.90625 2.359375 -3.234375 2.765625 -3.90625 C 3.203125 -4.671875 3.8125 -5.03125 4.25 -5.03125 C 4.859375 -5.03125 5.171875 -4.46875 5.171875 -3.796875 C 5.171875 -3.28125 4.890625 -1.921875 4.5 -1.265625 C 4.015625 -0.421875 3.40625 -0.125 2.984375 -0.125 Z M 2.984375 -0.125 "/>
</g>
<g id="glyph-0-9">
<path d="M 5.953125 -3.234375 C 6.03125 -3.515625 6.671875 -5.03125 7.8125 -5.03125 C 8.359375 -5.03125 8.359375 -4.4375 8.359375 -4.234375 C 8.359375 -3.484375 7.84375 -2.0625 7.640625 -1.46875 C 7.53125 -1.171875 7.484375 -1.0625 7.484375 -0.8125 C 7.484375 -0.234375 7.859375 0.125 8.34375 0.125 C 9.453125 0.125 9.84375 -1.65625 9.84375 -1.703125 C 9.84375 -1.8125 9.734375 -1.8125 9.6875 -1.8125 C 9.53125 -1.8125 9.53125 -1.78125 9.484375 -1.609375 C 9.375 -1.1875 9.046875 -0.125 8.375 -0.125 C 8.203125 -0.125 8.109375 -0.203125 8.109375 -0.484375 C 8.109375 -0.765625 8.234375 -1.140625 8.328125 -1.375 C 8.640625 -2.25 9.046875 -3.359375 9.046875 -4.046875 C 9.046875 -4.6875 8.78125 -5.265625 7.859375 -5.265625 C 7.109375 -5.265625 6.515625 -4.84375 6.078125 -4.1875 C 6.015625 -5 5.453125 -5.265625 4.875 -5.265625 C 4.1875 -5.265625 3.59375 -4.90625 3.171875 -4.296875 C 3.125 -4.84375 2.765625 -5.265625 2.21875 -5.265625 C 1.9375 -5.265625 1.625 -5.15625 1.375 -4.640625 C 1.140625 -4.203125 0.984375 -3.484375 0.984375 -3.453125 C 0.984375 -3.359375 1.046875 -3.328125 1.15625 -3.328125 C 1.296875 -3.328125 1.296875 -3.34375 1.375 -3.625 C 1.546875 -4.328125 1.78125 -5.03125 2.1875 -5.03125 C 2.5 -5.03125 2.5 -4.6875 2.5 -4.546875 C 2.5 -4.3125 2.453125 -4.046875 2.40625 -3.890625 L 1.53125 -0.390625 C 1.484375 -0.234375 1.484375 -0.21875 1.484375 -0.171875 C 1.484375 -0.03125 1.578125 0.125 1.796875 0.125 C 1.9375 0.125 2.125 0.03125 2.21875 -0.203125 C 2.234375 -0.328125 2.6875 -2.109375 2.765625 -2.421875 C 2.828125 -2.671875 2.890625 -2.921875 2.953125 -3.1875 C 3.078125 -3.640625 3.734375 -5.03125 4.84375 -5.03125 C 5.390625 -5.03125 5.390625 -4.421875 5.390625 -4.234375 C 5.390625 -4 5.34375 -3.734375 5.296875 -3.515625 L 4.5 -0.359375 C 4.46875 -0.234375 4.46875 -0.1875 4.46875 -0.171875 C 4.46875 -0.03125 4.5625 0.125 4.78125 0.125 C 5.0625 0.125 5.171875 -0.09375 5.21875 -0.296875 Z M 5.953125 -3.234375 "/>
</g>
<g id="glyph-0-10">
<path d="M 4.46875 -2.03125 C 4.390625 -1.671875 4.375 -1.390625 4.375 -1.296875 C 4.375 -1.125 4 -0.125 3.359375 -0.125 C 2.671875 -0.125 2.53125 -0.75 2.53125 -1.15625 C 2.53125 -1.6875 2.734375 -2.390625 3.125 -3.484375 C 3.3125 -3.984375 3.359375 -4.09375 3.359375 -4.34375 C 3.359375 -4.8125 3.078125 -5.265625 2.484375 -5.265625 C 1.40625 -5.265625 0.984375 -3.515625 0.984375 -3.4375 C 0.984375 -3.328125 1.09375 -3.328125 1.15625 -3.328125 C 1.296875 -3.328125 1.3125 -3.375 1.359375 -3.53125 C 1.453125 -3.890625 1.765625 -5.03125 2.46875 -5.03125 C 2.609375 -5.03125 2.734375 -4.96875 2.734375 -4.6875 C 2.734375 -4.390625 2.625 -4.078125 2.359375 -3.375 C 1.96875 -2.3125 1.84375 -1.75 1.84375 -1.3125 C 1.84375 -0.140625 2.71875 0.125 3.328125 0.125 C 3.640625 0.125 4.046875 0.046875 4.484375 -0.671875 C 4.75 0.046875 5.46875 0.125 5.796875 0.125 C 6.703125 0.125 7.171875 -0.6875 7.5 -1.546875 C 7.671875 -2.03125 8.171875 -3.796875 8.171875 -4.5 C 8.171875 -5.109375 7.9375 -5.265625 7.71875 -5.265625 C 7.5 -5.265625 7.203125 -5.046875 7.203125 -4.765625 C 7.203125 -4.65625 7.21875 -4.609375 7.328125 -4.484375 C 7.609375 -4.15625 7.640625 -3.71875 7.640625 -3.53125 C 7.640625 -3.0625 7.25 -1.78125 7.078125 -1.34375 C 6.828125 -0.6875 6.4375 -0.125 5.828125 -0.125 C 5.21875 -0.125 5.0625 -0.640625 5.0625 -1.125 C 5.0625 -1.453125 5.140625 -1.78125 5.296875 -2.40625 C 5.375 -2.765625 5.59375 -3.640625 5.6875 -3.984375 C 5.765625 -4.28125 5.890625 -4.8125 5.890625 -4.859375 C 5.890625 -5.046875 5.75 -5.15625 5.59375 -5.15625 C 5.265625 -5.15625 5.171875 -4.859375 5.125 -4.6875 Z M 4.46875 -2.03125 "/>
</g>
<g id="glyph-0-11">
<path d="M 3.5625 -8.015625 C 3.578125 -8.09375 3.59375 -8.140625 3.59375 -8.171875 C 3.59375 -8.28125 3.515625 -8.296875 3.328125 -8.28125 L 2.125 -8.171875 C 1.953125 -8.15625 1.859375 -8.15625 1.859375 -7.9375 C 1.859375 -7.8125 1.953125 -7.8125 2.109375 -7.8125 C 2.71875 -7.8125 2.71875 -7.703125 2.71875 -7.59375 C 2.71875 -7.546875 2.6875 -7.421875 2.671875 -7.375 L 0.9375 -0.390625 C 0.890625 -0.234375 0.890625 -0.21875 0.890625 -0.171875 C 0.890625 -0.03125 0.984375 0.125 1.1875 0.125 C 1.53125 0.125 1.609375 -0.1875 1.625 -0.28125 L 2.359375 -3.234375 C 2.4375 -3.515625 3.078125 -5.03125 4.234375 -5.03125 C 4.78125 -5.03125 4.78125 -4.4375 4.78125 -4.234375 C 4.78125 -3.484375 4.25 -2.0625 4.046875 -1.46875 C 3.9375 -1.171875 3.890625 -1.0625 3.890625 -0.8125 C 3.890625 -0.234375 4.265625 0.125 4.75 0.125 C 5.875 0.125 6.25 -1.65625 6.25 -1.703125 C 6.25 -1.8125 6.140625 -1.8125 6.09375 -1.8125 C 5.953125 -1.8125 5.9375 -1.78125 5.890625 -1.609375 C 5.78125 -1.1875 5.46875 -0.125 4.796875 -0.125 C 4.609375 -0.125 4.515625 -0.203125 4.515625 -0.484375 C 4.515625 -0.765625 4.65625 -1.140625 4.75 -1.375 C 5.0625 -2.25 5.46875 -3.359375 5.46875 -4.046875 C 5.46875 -4.6875 5.1875 -5.265625 4.265625 -5.265625 C 3.5 -5.265625 3 -4.828125 2.671875 -4.421875 Z M 3.5625 -8.015625 "/>
</g>
<g id="glyph-0-12">
<path d="M 3.015625 -3.421875 C 3.046875 -3.5625 3.578125 -5.03125 4.59375 -5.03125 C 4.65625 -5.03125 4.984375 -5.03125 5.25 -4.859375 C 5.0625 -4.8125 4.84375 -4.640625 4.84375 -4.34375 C 4.84375 -4.09375 5.03125 -4 5.21875 -4 C 5.421875 -4 5.75 -4.140625 5.75 -4.578125 C 5.75 -5.1875 4.9375 -5.265625 4.609375 -5.265625 C 4.046875 -5.265625 3.59375 -5.015625 3.15625 -4.390625 C 3.046875 -5.09375 2.53125 -5.265625 2.21875 -5.265625 C 1.9375 -5.265625 1.625 -5.15625 1.375 -4.640625 C 1.140625 -4.203125 0.984375 -3.484375 0.984375 -3.453125 C 0.984375 -3.359375 1.046875 -3.328125 1.15625 -3.328125 C 1.296875 -3.328125 1.296875 -3.34375 1.375 -3.625 C 1.546875 -4.328125 1.78125 -5.03125 2.1875 -5.03125 C 2.5 -5.03125 2.5 -4.6875 2.5 -4.546875 C 2.5 -4.3125 2.453125 -4.046875 2.40625 -3.890625 L 1.53125 -0.390625 C 1.484375 -0.234375 1.484375 -0.21875 1.484375 -0.171875 C 1.484375 -0.03125 1.578125 0.125 1.796875 0.125 C 2.0625 0.125 2.1875 -0.109375 2.234375 -0.296875 Z M 3.015625 -3.421875 "/>
</g>
<g id="glyph-0-13">
<path d="M 5.671875 -4.5625 C 5.71875 -4.703125 5.71875 -4.734375 5.71875 -4.75 C 5.71875 -4.890625 5.625 -5.046875 5.40625 -5.046875 C 5.015625 -5.046875 4.9375 -4.578125 4.9375 -4.578125 L 4.921875 -4.5625 C 4.703125 -5.125 4.296875 -5.265625 3.96875 -5.265625 C 2.671875 -5.265625 1.296875 -3.4375 1.296875 -1.703125 C 1.296875 -0.640625 1.859375 0.125 2.671875 0.125 C 3.15625 0.125 3.640625 -0.1875 4.09375 -0.734375 C 4.234375 0 4.765625 0.125 5.046875 0.125 C 5.515625 0.125 5.75 -0.234375 5.90625 -0.578125 C 6.109375 -0.984375 6.25 -1.671875 6.25 -1.703125 C 6.25 -1.8125 6.140625 -1.8125 6.09375 -1.8125 C 5.953125 -1.8125 5.9375 -1.8125 5.875 -1.53125 C 5.625 -0.53125 5.40625 -0.125 5.0625 -0.125 C 4.8125 -0.125 4.75 -0.375 4.75 -0.59375 C 4.75 -0.78125 4.796875 -1.046875 4.84375 -1.234375 Z M 4.171875 -1.453125 C 4.09375 -1.140625 3.375 -0.125 2.6875 -0.125 C 2.0625 -0.125 2.03125 -1.046875 2.03125 -1.1875 C 2.03125 -1.796875 2.421875 -3.203125 2.609375 -3.6875 C 2.921875 -4.421875 3.453125 -5.03125 3.96875 -5.03125 C 4.6875 -5.03125 4.765625 -3.96875 4.765625 -3.890625 C 4.765625 -3.875 4.734375 -3.734375 4.734375 -3.71875 Z M 4.171875 -1.453125 "/>
</g>
<g id="glyph-0-14">
<path d="M 2.96875 -3.234375 C 3.03125 -3.5 3.6875 -5.03125 4.828125 -5.03125 C 5.375 -5.03125 5.375 -4.4375 5.375 -4.234375 C 5.375 -3.484375 4.859375 -2.0625 4.65625 -1.46875 C 4.546875 -1.171875 4.5 -1.0625 4.5 -0.8125 C 4.5 -0.234375 4.859375 0.125 5.359375 0.125 C 6.46875 0.125 6.84375 -1.65625 6.84375 -1.703125 C 6.84375 -1.8125 6.734375 -1.8125 6.6875 -1.8125 C 6.546875 -1.8125 6.53125 -1.78125 6.484375 -1.609375 C 6.390625 -1.1875 6.0625 -0.125 5.390625 -0.125 C 5.21875 -0.125 5.109375 -0.203125 5.109375 -0.484375 C 5.109375 -0.765625 5.25 -1.140625 5.34375 -1.375 C 5.65625 -2.25 6.0625 -3.359375 6.0625 -4.046875 C 6.0625 -4.6875 5.78125 -5.265625 4.859375 -5.265625 C 4.125 -5.265625 3.5625 -4.84375 3.171875 -4.296875 C 3.125 -4.84375 2.765625 -5.265625 2.21875 -5.265625 C 1.9375 -5.265625 1.625 -5.15625 1.375 -4.640625 C 1.140625 -4.203125 0.984375 -3.484375 0.984375 -3.453125 C 0.984375 -3.359375 1.046875 -3.328125 1.15625 -3.328125 C 1.296875 -3.328125 1.296875 -3.34375 1.375 -3.625 C 1.546875 -4.328125 1.78125 -5.03125 2.1875 -5.03125 C 2.5 -5.03125 2.5 -4.6875 2.5 -4.546875 C 2.5 -4.3125 2.453125 -4.046875 2.40625 -3.890625 L 1.53125 -0.390625 C 1.484375 -0.234375 1.484375 -0.21875 1.484375 -0.171875 C 1.484375 -0.03125 1.578125 0.125 1.796875 0.125 C 2.0625 0.125 2.1875 -0.09375 2.234375 -0.296875 Z M 2.96875 -3.234375 "/>
</g>
<g id="glyph-0-15">
<path d="M 5.671875 -4.5625 C 5.71875 -4.703125 5.71875 -4.734375 5.71875 -4.75 C 5.71875 -4.890625 5.625 -5.046875 5.40625 -5.046875 C 5.125 -5.046875 4.96875 -4.796875 4.953125 -4.59375 L 4.9375 -4.59375 C 4.8125 -4.859375 4.515625 -5.265625 3.96875 -5.265625 C 2.703125 -5.265625 1.3125 -3.53125 1.3125 -1.796875 C 1.3125 -0.6875 1.90625 0 2.703125 0 C 3.328125 0 3.875 -0.546875 3.953125 -0.640625 L 3.578125 0.921875 C 3.4375 1.296875 2.984375 2.203125 2.015625 2.203125 C 1.890625 2.203125 1.484375 2.203125 1.171875 2.0625 C 1.4375 1.953125 1.546875 1.71875 1.546875 1.546875 C 1.546875 1.40625 1.4375 1.203125 1.15625 1.203125 C 0.921875 1.203125 0.625 1.40625 0.625 1.796875 C 0.625 2.25 1.09375 2.4375 2.015625 2.4375 C 3.234375 2.4375 4.125 1.65625 4.359375 0.71875 Z M 4.203125 -1.546875 C 4.09375 -1.15625 3.375 -0.234375 2.71875 -0.234375 C 2.078125 -0.234375 2.0625 -1.15625 2.0625 -1.296875 C 2.0625 -1.875 2.421875 -3.234375 2.609375 -3.6875 C 2.90625 -4.421875 3.4375 -5.03125 3.96875 -5.03125 C 4.6875 -5.03125 4.78125 -4 4.78125 -3.9375 C 4.78125 -3.90625 4.765625 -3.84375 4.75 -3.734375 Z M 4.203125 -1.546875 "/>
</g>
<g id="glyph-0-16">
<path d="M 1.046875 1.53125 C 0.953125 1.90625 0.875 1.96875 0.421875 1.96875 C 0.28125 1.96875 0.171875 1.96875 0.171875 2.203125 C 0.171875 2.296875 0.25 2.3125 0.3125 2.3125 C 0.625 2.3125 0.96875 2.296875 1.296875 2.296875 C 1.65625 2.296875 2.03125 2.3125 2.375 2.3125 C 2.453125 2.3125 2.59375 2.3125 2.59375 2.109375 C 2.59375 1.96875 2.515625 1.96875 2.3125 1.96875 C 2.046875 1.96875 1.734375 1.96875 1.734375 1.796875 C 1.734375 1.6875 1.75 1.609375 2.3125 -0.59375 C 2.421875 -0.296875 2.71875 0.125 3.28125 0.125 C 4.59375 0.125 5.96875 -1.71875 5.96875 -3.453125 C 5.96875 -4.5 5.421875 -5.265625 4.59375 -5.265625 C 3.84375 -5.265625 3.21875 -4.5 3.15625 -4.421875 C 3.046875 -5.015625 2.625 -5.265625 2.21875 -5.265625 C 1.9375 -5.265625 1.625 -5.15625 1.375 -4.640625 C 1.140625 -4.203125 0.984375 -3.484375 0.984375 -3.453125 C 0.984375 -3.359375 1.046875 -3.328125 1.15625 -3.328125 C 1.296875 -3.328125 1.296875 -3.34375 1.375 -3.625 C 1.546875 -4.328125 1.78125 -5.03125 2.1875 -5.03125 C 2.5 -5.03125 2.5 -4.6875 2.5 -4.546875 C 2.5 -4.3125 2.453125 -4.0625 2.40625 -3.890625 Z M 3.078125 -3.6875 C 3.171875 -4.046875 3.890625 -5.03125 4.546875 -5.03125 C 4.984375 -5.03125 5.21875 -4.59375 5.21875 -3.953125 C 5.21875 -3.28125 4.8125 -1.796875 4.5625 -1.296875 C 4.140625 -0.453125 3.65625 -0.125 3.28125 -0.125 C 2.546875 -0.125 2.46875 -1.25 2.46875 -1.25 C 2.46875 -1.296875 2.484375 -1.328125 2.515625 -1.421875 Z M 3.078125 -3.6875 "/>
</g>
<g id="glyph-0-17">
<path d="M 5.140625 -4.453125 C 4.84375 -4.453125 4.578125 -4.21875 4.578125 -3.9375 C 4.578125 -3.640625 4.84375 -3.578125 4.953125 -3.578125 C 5.0625 -3.578125 5.515625 -3.640625 5.515625 -4.265625 C 5.515625 -4.828125 5.015625 -5.265625 4.28125 -5.265625 C 2.828125 -5.265625 1.3125 -3.578125 1.3125 -1.8125 C 1.3125 -0.59375 2.046875 0.125 3 0.125 C 4.484375 0.125 5.46875 -1.09375 5.46875 -1.25 C 5.46875 -1.34375 5.359375 -1.4375 5.296875 -1.4375 C 5.265625 -1.4375 5.25 -1.421875 5.15625 -1.3125 C 4.515625 -0.453125 3.625 -0.125 3.015625 -0.125 C 2.40625 -0.125 2.078125 -0.65625 2.078125 -1.359375 C 2.078125 -1.90625 2.359375 -3.234375 2.765625 -3.90625 C 3.171875 -4.625 3.75 -5.03125 4.265625 -5.03125 C 4.34375 -5.03125 4.96875 -5.03125 5.140625 -4.453125 Z M 5.140625 -4.453125 "/>
</g>
<g id="glyph-0-18">
<path d="M 5.984375 -4.625 C 6.03125 -4.796875 6.03125 -4.8125 6.03125 -4.859375 C 6.03125 -5.046875 5.890625 -5.15625 5.734375 -5.15625 C 5.40625 -5.15625 5.3125 -4.859375 5.265625 -4.6875 L 4.40625 -1.234375 C 4.40625 -1.21875 4.40625 -1.09375 4.390625 -1.046875 C 4.140625 -0.53125 3.703125 -0.125 3.15625 -0.125 C 2.625 -0.125 2.515625 -0.65625 2.515625 -1.046875 C 2.515625 -1.765625 2.921875 -2.90625 3.203125 -3.671875 C 3.296875 -3.9375 3.359375 -4.09375 3.359375 -4.34375 C 3.359375 -4.8125 3.078125 -5.265625 2.484375 -5.265625 C 1.40625 -5.265625 0.984375 -3.515625 0.984375 -3.4375 C 0.984375 -3.328125 1.09375 -3.328125 1.15625 -3.328125 C 1.296875 -3.328125 1.3125 -3.375 1.359375 -3.53125 C 1.453125 -3.890625 1.765625 -5.03125 2.46875 -5.03125 C 2.609375 -5.03125 2.734375 -4.96875 2.734375 -4.6875 C 2.734375 -4.390625 2.625 -4.078125 2.359375 -3.375 C 1.984375 -2.3125 1.828125 -1.703125 1.828125 -1.25 C 1.828125 -0.171875 2.53125 0.125 3.125 0.125 C 3.625 0.125 4.046875 -0.125 4.421875 -0.59375 C 4.546875 -0.125 4.921875 0.125 5.34375 0.125 C 5.8125 0.125 6.046875 -0.234375 6.203125 -0.578125 C 6.40625 -0.984375 6.546875 -1.671875 6.546875 -1.703125 C 6.546875 -1.8125 6.4375 -1.8125 6.390625 -1.8125 C 6.25 -1.8125 6.234375 -1.8125 6.171875 -1.53125 C 5.921875 -0.53125 5.703125 -0.125 5.359375 -0.125 C 5.109375 -0.125 5.046875 -0.375 5.046875 -0.59375 C 5.046875 -0.78125 5.09375 -1.046875 5.140625 -1.234375 Z M 5.984375 -4.625 "/>
</g>
<g id="glyph-1-0">
<path d="M 3.921875 -5.0625 C 3.921875 -5.265625 3.921875 -5.328125 3.796875 -5.328125 C 3.703125 -5.328125 3.484375 -5.0625 3.390625 -4.953125 C 3.03125 -5.265625 2.65625 -5.328125 2.265625 -5.328125 C 0.828125 -5.328125 0.390625 -4.546875 0.390625 -3.890625 C 0.390625 -3.75 0.390625 -3.328125 0.84375 -2.921875 C 1.234375 -2.578125 1.640625 -2.5 2.1875 -2.390625 C 2.84375 -2.265625 3 -2.21875 3.296875 -1.984375 C 3.515625 -1.8125 3.671875 -1.546875 3.671875 -1.203125 C 3.671875 -0.6875 3.375 -0.125 2.3125 -0.125 C 1.53125 -0.125 0.953125 -0.578125 0.6875 -1.765625 C 0.640625 -1.984375 0.640625 -2 0.640625 -2.015625 C 0.609375 -2.0625 0.5625 -2.0625 0.53125 -2.0625 C 0.390625 -2.0625 0.390625 -2 0.390625 -1.78125 L 0.390625 -0.15625 C 0.390625 0.0625 0.390625 0.125 0.515625 0.125 C 0.578125 0.125 0.578125 0.109375 0.78125 -0.140625 C 0.84375 -0.234375 0.84375 -0.25 1.03125 -0.4375 C 1.484375 0.125 2.125 0.125 2.328125 0.125 C 3.578125 0.125 4.203125 -0.578125 4.203125 -1.515625 C 4.203125 -2.15625 3.8125 -2.546875 3.703125 -2.65625 C 3.28125 -3.03125 2.953125 -3.09375 2.15625 -3.234375 C 1.8125 -3.3125 0.9375 -3.484375 0.9375 -4.203125 C 0.9375 -4.5625 1.1875 -5.109375 2.265625 -5.109375 C 3.5625 -5.109375 3.640625 -4 3.65625 -3.640625 C 3.671875 -3.53125 3.75 -3.53125 3.796875 -3.53125 C 3.921875 -3.53125 3.921875 -3.59375 3.921875 -3.8125 Z M 3.921875 -5.0625 "/>
</g>
<g id="glyph-1-1">
<path d="M 8.578125 -2.90625 C 8.578125 -4.015625 8.578125 -4.34375 8.296875 -4.734375 C 7.953125 -5.203125 7.390625 -5.265625 6.984375 -5.265625 C 5.984375 -5.265625 5.484375 -4.546875 5.296875 -4.09375 C 5.125 -5.015625 4.484375 -5.265625 3.734375 -5.265625 C 2.5625 -5.265625 2.109375 -4.28125 2.015625 -4.046875 L 2.015625 -5.265625 L 0.375 -5.140625 L 0.375 -4.796875 C 1.1875 -4.796875 1.296875 -4.703125 1.296875 -4.125 L 1.296875 -0.890625 C 1.296875 -0.34375 1.15625 -0.34375 0.375 -0.34375 L 0.375 0 C 0.6875 -0.03125 1.34375 -0.03125 1.671875 -0.03125 C 2.015625 -0.03125 2.671875 -0.03125 2.96875 0 L 2.96875 -0.34375 C 2.21875 -0.34375 2.0625 -0.34375 2.0625 -0.890625 L 2.0625 -3.109375 C 2.0625 -4.359375 2.890625 -5.03125 3.640625 -5.03125 C 4.375 -5.03125 4.546875 -4.421875 4.546875 -3.6875 L 4.546875 -0.890625 C 4.546875 -0.34375 4.40625 -0.34375 3.640625 -0.34375 L 3.640625 0 C 3.9375 -0.03125 4.59375 -0.03125 4.921875 -0.03125 C 5.265625 -0.03125 5.921875 -0.03125 6.234375 0 L 6.234375 -0.34375 C 5.46875 -0.34375 5.3125 -0.34375 5.3125 -0.890625 L 5.3125 -3.109375 C 5.3125 -4.359375 6.140625 -5.03125 6.890625 -5.03125 C 7.625 -5.03125 7.796875 -4.421875 7.796875 -3.6875 L 7.796875 -0.890625 C 7.796875 -0.34375 7.65625 -0.34375 6.890625 -0.34375 L 6.890625 0 C 7.203125 -0.03125 7.84375 -0.03125 8.171875 -0.03125 C 8.515625 -0.03125 9.171875 -0.03125 9.484375 0 L 9.484375 -0.34375 C 8.875 -0.34375 8.578125 -0.34375 8.578125 -0.703125 Z M 8.578125 -2.90625 "/>
</g>
<g id="glyph-1-2">
<path d="M 4.609375 -3.1875 C 4.609375 -3.84375 4.609375 -4.3125 4.09375 -4.78125 C 3.671875 -5.15625 3.125 -5.328125 2.609375 -5.328125 C 1.625 -5.328125 0.875 -4.6875 0.875 -3.90625 C 0.875 -3.5625 1.09375 -3.390625 1.375 -3.390625 C 1.65625 -3.390625 1.859375 -3.59375 1.859375 -3.890625 C 1.859375 -4.375 1.4375 -4.375 1.25 -4.375 C 1.53125 -4.875 2.109375 -5.09375 2.578125 -5.09375 C 3.125 -5.09375 3.84375 -4.640625 3.84375 -3.5625 L 3.84375 -3.078125 C 1.4375 -3.046875 0.53125 -2.046875 0.53125 -1.125 C 0.53125 -0.171875 1.625 0.125 2.359375 0.125 C 3.140625 0.125 3.6875 -0.359375 3.90625 -0.9375 C 3.953125 -0.375 4.328125 0.0625 4.84375 0.0625 C 5.09375 0.0625 5.78125 -0.109375 5.78125 -1.0625 L 5.78125 -1.734375 L 5.515625 -1.734375 L 5.515625 -1.0625 C 5.515625 -0.375 5.234375 -0.28125 5.0625 -0.28125 C 4.609375 -0.28125 4.609375 -0.921875 4.609375 -1.09375 Z M 3.84375 -1.6875 C 3.84375 -0.515625 2.96875 -0.125 2.453125 -0.125 C 1.859375 -0.125 1.375 -0.546875 1.375 -1.125 C 1.375 -2.703125 3.40625 -2.84375 3.84375 -2.875 Z M 3.84375 -1.6875 "/>
</g>
<g id="glyph-1-3">
<path d="M 2.0625 -8.296875 L 0.390625 -8.15625 L 0.390625 -7.8125 C 1.203125 -7.8125 1.296875 -7.734375 1.296875 -7.140625 L 1.296875 -0.890625 C 1.296875 -0.34375 1.171875 -0.34375 0.390625 -0.34375 L 0.390625 0 C 0.734375 -0.03125 1.3125 -0.03125 1.671875 -0.03125 C 2.03125 -0.03125 2.625 -0.03125 2.96875 0 L 2.96875 -0.34375 C 2.203125 -0.34375 2.0625 -0.34375 2.0625 -0.890625 Z M 2.0625 -8.296875 "/>
</g>
<g id="glyph-1-4">
<path d="M 3.796875 -5.1875 C 3.734375 -5.1875 3.609375 -5.171875 3.578125 -5.15625 C 3.5625 -5.15625 3.53125 -5.15625 3.375 -5.15625 L 1.96875 -5.15625 L 1.96875 -6.5 C 1.96875 -7.71875 3.015625 -8.171875 3.71875 -8.171875 C 3.84375 -8.171875 4.40625 -8.15625 4.765625 -7.75 C 4.265625 -7.75 4.234375 -7.390625 4.234375 -7.25 C 4.234375 -6.90625 4.515625 -6.75 4.71875 -6.75 C 4.9375 -6.75 5.21875 -6.890625 5.21875 -7.265625 C 5.21875 -7.875 4.65625 -8.421875 3.734375 -8.421875 C 2.65625 -8.421875 1.25 -7.8125 1.25 -6.53125 L 1.25 -5.15625 L 0.3125 -5.15625 L 0.3125 -4.8125 L 1.25 -4.8125 L 1.25 -0.890625 C 1.25 -0.34375 1.109375 -0.34375 0.328125 -0.34375 L 0.328125 0 C 0.671875 -0.03125 1.25 -0.03125 1.609375 -0.03125 C 1.96875 -0.03125 2.5625 -0.03125 2.90625 0 L 2.90625 -0.34375 C 2.140625 -0.34375 2 -0.34375 2 -0.890625 L 2 -4.8125 L 3.875 -4.8125 C 4.421875 -4.8125 4.5 -4.65625 4.5 -4.15625 L 4.5 -0.890625 C 4.5 -0.34375 4.359375 -0.34375 3.578125 -0.34375 L 3.578125 0 C 3.921875 -0.03125 4.5 -0.03125 4.859375 -0.03125 C 5.21875 -0.03125 5.828125 -0.03125 6.15625 0 L 6.15625 -0.34375 C 5.390625 -0.34375 5.25 -0.34375 5.25 -0.890625 L 5.25 -5.28125 Z M 3.796875 -5.1875 "/>
</g>
<g id="glyph-1-5">
<path d="M 4.578125 -2.765625 C 4.84375 -2.765625 4.859375 -2.765625 4.859375 -3 C 4.859375 -4.203125 4.21875 -5.328125 2.765625 -5.328125 C 1.40625 -5.328125 0.359375 -4.09375 0.359375 -2.625 C 0.359375 -1.046875 1.578125 0.125 2.90625 0.125 C 4.328125 0.125 4.859375 -1.171875 4.859375 -1.421875 C 4.859375 -1.5 4.8125 -1.546875 4.734375 -1.546875 C 4.640625 -1.546875 4.609375 -1.484375 4.59375 -1.421875 C 4.28125 -0.421875 3.484375 -0.140625 2.96875 -0.140625 C 2.46875 -0.140625 1.265625 -0.484375 1.265625 -2.546875 L 1.265625 -2.765625 Z M 1.28125 -3 C 1.375 -4.875 2.421875 -5.09375 2.765625 -5.09375 C 4.046875 -5.09375 4.109375 -3.40625 4.125 -3 Z M 1.28125 -3 "/>
</g>
<g id="glyph-1-6">
<path d="M 2 -2.78125 C 2 -3.9375 2.46875 -5.03125 3.390625 -5.03125 C 3.484375 -5.03125 3.515625 -5.03125 3.5625 -5.015625 C 3.46875 -4.96875 3.28125 -4.90625 3.28125 -4.578125 C 3.28125 -4.234375 3.546875 -4.09375 3.734375 -4.09375 C 3.984375 -4.09375 4.21875 -4.25 4.21875 -4.578125 C 4.21875 -4.9375 3.890625 -5.265625 3.375 -5.265625 C 2.359375 -5.265625 2.015625 -4.171875 1.953125 -3.9375 L 1.9375 -3.9375 L 1.9375 -5.265625 L 0.328125 -5.140625 L 0.328125 -4.796875 C 1.140625 -4.796875 1.25 -4.703125 1.25 -4.125 L 1.25 -0.890625 C 1.25 -0.34375 1.109375 -0.34375 0.328125 -0.34375 L 0.328125 0 C 0.671875 -0.03125 1.328125 -0.03125 1.6875 -0.03125 C 2.015625 -0.03125 2.859375 -0.03125 3.125 0 L 3.125 -0.34375 L 2.890625 -0.34375 C 2.015625 -0.34375 2 -0.484375 2 -0.90625 Z M 2 -2.78125 "/>
</g>
<g id="glyph-1-7">
<path d="M 1.421875 -2.15625 C 1.984375 -1.796875 2.46875 -1.796875 2.59375 -1.796875 C 3.671875 -1.796875 4.46875 -2.609375 4.46875 -3.53125 C 4.46875 -3.84375 4.375 -4.296875 4 -4.6875 C 4.453125 -5.15625 5.015625 -5.15625 5.078125 -5.15625 C 5.125 -5.15625 5.1875 -5.15625 5.234375 -5.140625 C 5.109375 -5.09375 5.0625 -4.96875 5.0625 -4.84375 C 5.0625 -4.671875 5.171875 -4.53125 5.359375 -4.53125 C 5.46875 -4.53125 5.671875 -4.59375 5.671875 -4.859375 C 5.671875 -5.0625 5.515625 -5.40625 5.09375 -5.40625 C 4.46875 -5.40625 4 -5.015625 3.84375 -4.84375 C 3.484375 -5.109375 3.0625 -5.265625 2.609375 -5.265625 C 1.53125 -5.265625 0.734375 -4.453125 0.734375 -3.53125 C 0.734375 -2.859375 1.140625 -2.421875 1.265625 -2.3125 C 1.125 -2.125 0.90625 -1.78125 0.90625 -1.3125 C 0.90625 -0.625 1.328125 -0.328125 1.421875 -0.265625 C 0.875 -0.109375 0.328125 0.328125 0.328125 0.9375 C 0.328125 1.765625 1.453125 2.453125 2.921875 2.453125 C 4.34375 2.453125 5.515625 1.8125 5.515625 0.921875 C 5.515625 0.625 5.4375 -0.078125 4.71875 -0.453125 C 4.109375 -0.765625 3.515625 -0.765625 2.484375 -0.765625 C 1.75 -0.765625 1.671875 -0.765625 1.453125 -0.984375 C 1.34375 -1.109375 1.234375 -1.34375 1.234375 -1.59375 C 1.234375 -1.796875 1.296875 -2 1.421875 -2.15625 Z M 2.609375 -2.046875 C 1.546875 -2.046875 1.546875 -3.25 1.546875 -3.53125 C 1.546875 -3.734375 1.546875 -4.234375 1.75 -4.546875 C 1.984375 -4.90625 2.34375 -5.015625 2.59375 -5.015625 C 3.640625 -5.015625 3.640625 -3.8125 3.640625 -3.53125 C 3.640625 -3.328125 3.640625 -2.828125 3.4375 -2.515625 C 3.21875 -2.15625 2.859375 -2.046875 2.609375 -2.046875 Z M 2.921875 2.203125 C 1.78125 2.203125 0.90625 1.609375 0.90625 0.9375 C 0.90625 0.84375 0.9375 0.375 1.390625 0.0625 C 1.65625 -0.109375 1.75 -0.109375 2.59375 -0.109375 C 3.578125 -0.109375 4.9375 -0.109375 4.9375 0.9375 C 4.9375 1.640625 4.03125 2.203125 2.921875 2.203125 Z M 2.921875 2.203125 "/>
</g>
<g id="glyph-1-8">
<path d="M 5.484375 -2.5625 C 5.484375 -4.09375 4.3125 -5.328125 2.921875 -5.328125 C 1.5 -5.328125 0.359375 -4.0625 0.359375 -2.5625 C 0.359375 -1.03125 1.546875 0.125 2.921875 0.125 C 4.328125 0.125 5.484375 -1.046875 5.484375 -2.5625 Z M 2.921875 -0.140625 C 2.484375 -0.140625 1.953125 -0.328125 1.609375 -0.921875 C 1.28125 -1.453125 1.265625 -2.15625 1.265625 -2.671875 C 1.265625 -3.125 1.265625 -3.84375 1.640625 -4.390625 C 1.96875 -4.90625 2.5 -5.09375 2.921875 -5.09375 C 3.375 -5.09375 3.890625 -4.875 4.203125 -4.40625 C 4.578125 -3.859375 4.578125 -3.109375 4.578125 -2.671875 C 4.578125 -2.25 4.578125 -1.5 4.265625 -0.9375 C 3.9375 -0.375 3.375 -0.140625 2.921875 -0.140625 Z M 2.921875 -0.140625 "/>
</g>
<g id="glyph-1-9">
<path d="M 7.234375 -4.015625 C 7.5 -4.765625 8.015625 -4.796875 8.21875 -4.8125 L 8.21875 -5.15625 C 7.921875 -5.125 7.703125 -5.125 7.34375 -5.125 C 7 -5.125 6.96875 -5.125 6.328125 -5.15625 L 6.328125 -4.8125 C 6.859375 -4.78125 7 -4.453125 7 -4.234375 C 7 -4.21875 7 -4.140625 6.953125 -4.015625 L 5.859375 -0.890625 L 4.65625 -4.265625 C 4.609375 -4.40625 4.609375 -4.4375 4.609375 -4.46875 C 4.609375 -4.8125 5.046875 -4.8125 5.296875 -4.8125 L 5.296875 -5.15625 C 4.953125 -5.125 4.46875 -5.125 4.125 -5.125 C 3.734375 -5.125 3.71875 -5.125 3.046875 -5.15625 L 3.046875 -4.8125 C 3.5 -4.8125 3.65625 -4.78125 3.796875 -4.625 C 3.84375 -4.546875 4 -4.15625 4.078125 -3.921875 L 3.0625 -1 L 1.90625 -4.25 C 1.859375 -4.40625 1.859375 -4.4375 1.859375 -4.484375 C 1.859375 -4.8125 2.3125 -4.8125 2.546875 -4.8125 L 2.546875 -5.15625 C 2.25 -5.125 1.65625 -5.125 1.328125 -5.125 C 0.984375 -5.125 0.96875 -5.125 0.21875 -5.15625 L 0.21875 -4.8125 C 0.828125 -4.8125 0.9375 -4.75 1.078125 -4.375 L 2.578125 -0.09375 C 2.625 0.03125 2.671875 0.125 2.796875 0.125 C 2.90625 0.125 2.96875 0.078125 3.03125 -0.109375 L 4.21875 -3.515625 L 5.421875 -0.109375 C 5.46875 0.078125 5.53125 0.125 5.640625 0.125 C 5.765625 0.125 5.8125 0.03125 5.859375 -0.09375 Z M 7.234375 -4.015625 "/>
</g>
<g id="glyph-1-10">
<path d="M 5.25 -5.265625 L 5.015625 -5.265625 L 4.5625 -4.15625 C 4.34375 -4.609375 3.890625 -5.265625 2.96875 -5.265625 C 1.65625 -5.265625 0.421875 -4.140625 0.421875 -2.5625 C 0.421875 -1.046875 1.5625 0.125 2.875 0.125 C 3.515625 0.125 4.046875 -0.171875 4.46875 -0.78125 L 4.46875 1.4375 C 4.46875 1.96875 4.34375 1.96875 3.5625 1.96875 L 3.5625 2.3125 C 3.875 2.296875 4.515625 2.296875 4.859375 2.296875 C 5.203125 2.296875 5.84375 2.296875 6.15625 2.3125 L 6.15625 1.96875 C 5.390625 1.96875 5.25 1.96875 5.25 1.4375 Z M 4.5 -1.609375 C 4.5 -1.21875 4.28125 -0.875 4 -0.59375 C 3.578125 -0.15625 3.125 -0.125 2.9375 -0.125 C 2.03125 -0.125 1.328125 -1.25 1.328125 -2.5625 C 1.328125 -4 2.15625 -5.015625 3.046875 -5.015625 C 4 -5.015625 4.5 -3.984375 4.5 -3.359375 Z M 4.5 -1.609375 "/>
</g>
<g id="glyph-1-11">
<path d="M 3.640625 -5.140625 L 3.640625 -4.796875 C 4.453125 -4.796875 4.546875 -4.703125 4.546875 -4.125 L 4.546875 -1.984375 C 4.546875 -0.96875 4 -0.125 3.109375 -0.125 C 2.125 -0.125 2.0625 -0.6875 2.0625 -1.3125 L 2.0625 -5.265625 L 0.375 -5.140625 L 0.375 -4.796875 C 1.296875 -4.796875 1.296875 -4.75 1.296875 -3.6875 L 1.296875 -1.90625 C 1.296875 -1.15625 1.296875 -0.734375 1.65625 -0.328125 C 1.9375 -0.03125 2.421875 0.125 3.03125 0.125 C 3.234375 0.125 3.625 0.125 4.03125 -0.234375 C 4.375 -0.5 4.5625 -0.953125 4.5625 -0.953125 L 4.5625 0.125 L 6.234375 0 L 6.234375 -0.34375 C 5.421875 -0.34375 5.3125 -0.4375 5.3125 -1.015625 L 5.3125 -5.265625 Z M 3.640625 -5.140625 "/>
</g>
<g id="glyph-1-12">
<path d="M 2.078125 -7.359375 C 2.078125 -7.671875 1.828125 -7.953125 1.5 -7.953125 C 1.1875 -7.953125 0.921875 -7.703125 0.921875 -7.375 C 0.921875 -7.015625 1.203125 -6.796875 1.5 -6.796875 C 1.859375 -6.796875 2.078125 -7.09375 2.078125 -7.359375 Z M 0.4375 -5.140625 L 0.4375 -4.796875 C 1.1875 -4.796875 1.296875 -4.71875 1.296875 -4.140625 L 1.296875 -0.890625 C 1.296875 -0.34375 1.171875 -0.34375 0.390625 -0.34375 L 0.390625 0 C 0.734375 -0.03125 1.296875 -0.03125 1.65625 -0.03125 C 1.78125 -0.03125 2.46875 -0.03125 2.875 0 L 2.875 -0.34375 C 2.109375 -0.34375 2.0625 -0.40625 2.0625 -0.875 L 2.0625 -5.265625 Z M 0.4375 -5.140625 "/>
</g>
<g id="glyph-1-13">
<path d="M 2.015625 -4.8125 L 3.6875 -4.8125 L 3.6875 -5.15625 L 2.015625 -5.15625 L 2.015625 -7.34375 L 1.75 -7.34375 C 1.734375 -6.234375 1.296875 -5.078125 0.21875 -5.046875 L 0.21875 -4.8125 L 1.234375 -4.8125 L 1.234375 -1.484375 C 1.234375 -0.15625 2.109375 0.125 2.75 0.125 C 3.5 0.125 3.890625 -0.625 3.890625 -1.484375 L 3.890625 -2.15625 L 3.640625 -2.15625 L 3.640625 -1.5 C 3.640625 -0.640625 3.28125 -0.140625 2.828125 -0.140625 C 2.015625 -0.140625 2.015625 -1.25 2.015625 -1.453125 Z M 2.015625 -4.8125 "/>
</g>
<g id="glyph-1-14">
<path d="M 4.84375 -4 C 5.15625 -4.796875 5.71875 -4.8125 5.953125 -4.8125 L 5.953125 -5.15625 C 5.609375 -5.125 5.4375 -5.125 5.0625 -5.125 C 4.78125 -5.125 4.75 -5.125 4.09375 -5.15625 L 4.09375 -4.8125 C 4.53125 -4.78125 4.640625 -4.5 4.640625 -4.296875 C 4.640625 -4.1875 4.609375 -4.125 4.5625 -4 L 3.34375 -0.984375 L 2.015625 -4.25 C 1.953125 -4.40625 1.953125 -4.484375 1.953125 -4.5 C 1.953125 -4.8125 2.359375 -4.8125 2.609375 -4.8125 L 2.609375 -5.15625 C 2.296875 -5.125 1.703125 -5.125 1.375 -5.125 C 0.921875 -5.125 0.890625 -5.125 0.21875 -5.15625 L 0.21875 -4.8125 C 0.90625 -4.8125 1 -4.75 1.15625 -4.375 L 2.9375 0 C 2.421875 1.265625 2.421875 1.296875 2.359375 1.390625 C 2.15625 1.75 1.84375 2.203125 1.296875 2.203125 C 0.9375 2.203125 0.703125 1.984375 0.703125 1.984375 C 0.703125 1.984375 1.125 1.9375 1.125 1.515625 C 1.125 1.234375 0.890625 1.078125 0.6875 1.078125 C 0.484375 1.078125 0.234375 1.1875 0.234375 1.546875 C 0.234375 2 0.671875 2.4375 1.296875 2.4375 C 1.96875 2.4375 2.46875 1.859375 2.765625 1.09375 Z M 4.84375 -4 "/>
</g>
<g id="glyph-1-15">
<path d="M 5.3125 -2.90625 C 5.3125 -4.015625 5.3125 -4.34375 5.046875 -4.734375 C 4.703125 -5.203125 4.140625 -5.265625 3.734375 -5.265625 C 2.703125 -5.265625 2.21875 -4.5 2.0625 -4.125 L 2.046875 -4.125 L 2.046875 -8.296875 L 0.375 -8.15625 L 0.375 -7.8125 C 1.1875 -7.8125 1.296875 -7.734375 1.296875 -7.140625 L 1.296875 -0.890625 C 1.296875 -0.34375 1.15625 -0.34375 0.375 -0.34375 L 0.375 0 C 0.6875 -0.03125 1.34375 -0.03125 1.671875 -0.03125 C 2.015625 -0.03125 2.671875 -0.03125 2.96875 0 L 2.96875 -0.34375 C 2.21875 -0.34375 2.0625 -0.34375 2.0625 -0.890625 L 2.0625 -3.109375 C 2.0625 -4.359375 2.890625 -5.03125 3.640625 -5.03125 C 4.375 -5.03125 4.546875 -4.421875 4.546875 -3.6875 L 4.546875 -0.890625 C 4.546875 -0.34375 4.40625 -0.34375 3.640625 -0.34375 L 3.640625 0 C 3.9375 -0.03125 4.59375 -0.03125 4.921875 -0.03125 C 5.265625 -0.03125 5.921875 -0.03125 6.234375 0 L 6.234375 -0.34375 C 5.625 -0.34375 5.328125 -0.34375 5.3125 -0.703125 Z M 5.3125 -2.90625 "/>
</g>
</g>
</defs>
<g fill="rgb(0%, 0%, 0%)" fill-opacity="1">
<use xlink:href="#glyph-0-0" x="93.084" y="13.615"/>
</g>
<g fill="rgb(0%, 0%, 0%)" fill-opacity="1">
<use xlink:href="#glyph-0-1" x="105.958555" y="13.615"/>
<use xlink:href="#glyph-0-2" x="112.533915" y="13.615"/>
<use xlink:href="#glyph-0-3" x="115.522715" y="13.615"/>
</g>
<g fill="rgb(0%, 0%, 0%)" fill-opacity="1">
<use xlink:href="#glyph-0-3" x="125.086875" y="13.615"/>
<use xlink:href="#glyph-0-4" x="130.466715" y="13.615"/>
<use xlink:href="#glyph-0-5" x="135.846555" y="13.615"/>
<use xlink:href="#glyph-0-6" x="139.433115" y="13.615"/>
<use xlink:href="#glyph-0-7" x="144.215195" y="13.615"/>
<use xlink:href="#glyph-0-6" x="148.100635" y="13.615"/>
</g>
<g fill="rgb(0%, 0%, 0%)" fill-opacity="1">
<use xlink:href="#glyph-0-6" x="157.067035" y="13.615"/>
<use xlink:href="#glyph-0-8" x="161.849115" y="13.615"/>
<use xlink:href="#glyph-0-9" x="167.826715" y="13.615"/>
<use xlink:href="#glyph-0-3" x="177.390875" y="13.615"/>
<use xlink:href="#glyph-0-10" x="182.770715" y="13.615"/>
<use xlink:href="#glyph-0-11" x="190.541595" y="13.615"/>
<use xlink:href="#glyph-0-3" x="196.519195" y="13.615"/>
<use xlink:href="#glyph-0-12" x="201.899035" y="13.615"/>
</g>
<g fill="rgb(0%, 0%, 0%)" fill-opacity="1">
<use xlink:href="#glyph-0-3" x="206.232795" y="13.615"/>
</g>
<g fill="rgb(0%, 0%, 0%)" fill-opacity="1">
<use xlink:href="#glyph-0-13" x="215.796955" y="13.615"/>
<use xlink:href="#glyph-0-2" x="221.774555" y="13.615"/>
<use xlink:href="#glyph-0-8" x="224.763355" y="13.615"/>
<use xlink:href="#glyph-0-14" x="230.740955" y="13.615"/>
<use xlink:href="#glyph-0-15" x="237.316315" y="13.615"/>
</g>
<g fill="rgb(0%, 0%, 0%)" fill-opacity="1">
<use xlink:href="#glyph-0-7" x="246.880475" y="13.615"/>
<use xlink:href="#glyph-0-11" x="250.765915" y="13.615"/>
<use xlink:href="#glyph-0-5" x="256.743515" y="13.615"/>
<use xlink:href="#glyph-0-6" x="260.330075" y="13.615"/>
</g>
<g fill="rgb(0%, 0%, 0%)" fill-opacity="1">
<use xlink:href="#glyph-0-6" x="269.296475" y="13.615"/>
<use xlink:href="#glyph-0-16" x="274.078555" y="13.615"/>
</g>
<g fill="rgb(0%, 0%, 0%)" fill-opacity="1">
<use xlink:href="#glyph-0-3" x="279.458395" y="13.615"/>
</g>
<g fill="rgb(0%, 0%, 0%)" fill-opacity="1">
<use xlink:href="#glyph-0-17" x="284.240475" y="13.615"/>
<use xlink:href="#glyph-0-7" x="289.620315" y="13.615"/>
<use xlink:href="#glyph-0-12" x="293.505755" y="13.615"/>
<use xlink:href="#glyph-0-18" x="298.437275" y="13.615"/>
<use xlink:href="#glyph-0-9" x="304.713755" y="13.615"/>
</g>
<path fill="none" stroke-width="0.79701" stroke-linecap="butt" stroke-linejoin="miter" stroke="rgb(0%, 0%, 0%)" stroke-opacity="1" stroke-miterlimit="10" d="M 0.798687 0.00146875 L 396.0565 0.00146875 " transform="matrix(1, 0, 0, -1, 5.256, 53.146)"/>
<path fill="none" stroke-width="0.79701" stroke-linecap="round" stroke-linejoin="round" stroke="rgb(0%, 0%, 0%)" stroke-opacity="1" stroke-miterlimit="10" d="M -2.548625 3.111813 C -2.083781 1.244625 -1.044719 0.361813 -0.00175 -0.00146875 C -1.044719 -0.36475 -2.083781 -1.243656 -2.548625 -3.110844 " transform="matrix(-1, 0, 0, 1, 5.6545, 53.146)"/>
<path fill="none" stroke-width="0.79701" stroke-linecap="round" stroke-linejoin="round" stroke="rgb(0%, 0%, 0%)" stroke-opacity="1" stroke-miterlimit="10" d="M -2.548767 3.110844 C -2.083924 1.243656 -1.044861 0.36475 -0.0018925 0.00146875 C -1.044861 -0.361813 -2.083924 -1.244625 -2.548767 -3.111813 " transform="matrix(1, 0, 0, -1, 401.71283, 53.146)"/>
<path fill="none" stroke-width="0.79701" stroke-linecap="butt" stroke-linejoin="miter" stroke="rgb(0%, 0%, 0%)" stroke-opacity="1" stroke-miterlimit="10" d="M 28.345562 -4.252438 L 28.345562 4.251469 " transform="matrix(1, 0, 0, -1, 5.256, 53.146)"/>
<path fill="none" stroke-width="0.79701" stroke-linecap="butt" stroke-linejoin="miter" stroke="rgb(0%, 0%, 0%)" stroke-opacity="1" stroke-miterlimit="10" d="M 368.509625 -4.252438 L 368.509625 4.251469 " transform="matrix(1, 0, 0, -1, 5.256, 53.146)"/>
<g fill="rgb(0%, 0%, 0%)" fill-opacity="1">
<use xlink:href="#glyph-1-0" x="10.808" y="43.957"/>
<use xlink:href="#glyph-1-1" x="15.425098" y="43.957"/>
<use xlink:href="#glyph-1-2" x="25.180541" y="43.957"/>
<use xlink:href="#glyph-1-3" x="31.033807" y="43.957"/>
<use xlink:href="#glyph-1-3" x="34.285622" y="43.957"/>
</g>
<g fill="rgb(0%, 0%, 0%)" fill-opacity="1">
<use xlink:href="#glyph-1-4" x="41.434831" y="43.957"/>
<use xlink:href="#glyph-1-3" x="47.93846" y="43.957"/>
<use xlink:href="#glyph-1-5" x="51.190275" y="43.957"/>
</g>
<g fill="rgb(0%, 0%, 0%)" fill-opacity="1">
<use xlink:href="#glyph-1-3" x="351.974" y="41.633"/>
<use xlink:href="#glyph-1-2" x="355.225814" y="41.633"/>
<use xlink:href="#glyph-1-6" x="361.07908" y="41.633"/>
<use xlink:href="#glyph-1-7" x="365.63162" y="41.633"/>
<use xlink:href="#glyph-1-5" x="371.484886" y="41.633"/>
</g>
<g fill="rgb(0%, 0%, 0%)" fill-opacity="1">
<use xlink:href="#glyph-1-4" x="380.585185" y="41.633"/>
<use xlink:href="#glyph-1-3" x="387.088813" y="41.633"/>
<use xlink:href="#glyph-1-5" x="390.340628" y="41.633"/>
</g>
<g fill="rgb(0%, 0%, 0%)" fill-opacity="1">
<use xlink:href="#glyph-1-3" x="5.313" y="70.637"/>
<use xlink:href="#glyph-1-8" x="8.564814" y="70.637"/>
</g>
<g fill="rgb(0%, 0%, 0%)" fill-opacity="1">
<use xlink:href="#glyph-1-9" x="14.09529" y="70.637"/>
</g>
<g fill="rgb(0%, 0%, 0%)" fill-opacity="1">
<use xlink:href="#glyph-1-10" x="26.447403" y="70.637"/>
<use xlink:href="#glyph-1-11" x="32.62585" y="70.637"/>
<use xlink:href="#glyph-1-2" x="39.129479" y="70.637"/>
<use xlink:href="#glyph-1-3" x="44.982745" y="70.637"/>
<use xlink:href="#glyph-1-12" x="48.234559" y="70.637"/>
<use xlink:href="#glyph-1-13" x="51.486373" y="70.637"/>
</g>
<g fill="rgb(0%, 0%, 0%)" fill-opacity="1">
<use xlink:href="#glyph-1-14" x="55.716123" y="70.637"/>
</g>
<g fill="rgb(0%, 0%, 0%)" fill-opacity="1">
<use xlink:href="#glyph-1-15" x="343.032" y="70.637"/>
<use xlink:href="#glyph-1-12" x="349.535629" y="70.637"/>
<use xlink:href="#glyph-1-7" x="352.787443" y="70.637"/>
<use xlink:href="#glyph-1-15" x="358.640709" y="70.637"/>
</g>
<g fill="rgb(0%, 0%, 0%)" fill-opacity="1">
<use xlink:href="#glyph-1-10" x="369.041733" y="70.637"/>
<use xlink:href="#glyph-1-11" x="375.22018" y="70.637"/>
<use xlink:href="#glyph-1-2" x="381.723809" y="70.637"/>
<use xlink:href="#glyph-1-3" x="387.577075" y="70.637"/>
<use xlink:href="#glyph-1-12" x="390.82889" y="70.637"/>
<use xlink:href="#glyph-1-13" x="394.080704" y="70.637"/>
</g>
<g fill="rgb(0%, 0%, 0%)" fill-opacity="1">
<use xlink:href="#glyph-1-14" x="398.310454" y="70.637"/>
</g>
</svg>
