<?xml version="1.0" encoding="UTF-8"?>
<svg xmlns="http://www.w3.org/2000/svg" xmlns:xlink="http://www.w3.org/1999/xlink" width="402.878pt" height="313.284pt" viewBox="0 0 402.878 313.284">
<defs>
<g>
<g id="glyph-0-0">
<path d="M 2.9375 -6.375 C 2.9375 -6.625 2.9375 -6.640625 2.703125 -6.640625 C 2.078125 -6 1.203125 -6 0.890625 -6 L 0.890625 -5.6875 C 1.09375 -5.6875 1.671875 -5.6875 2.1875 -5.953125 L 2.1875 -0.78125 C 2.1875 -0.421875 2.15625 -0.3125 1.265625 -0.3125 L 0.953125 -0.3125 L 0.953125 0 C 1.296875 -0.03125 2.15625 -0.03125 2.5625 -0.03125 C 2.953125 -0.03125 3.828125 -0.03125 4.171875 0 L 4.171875 -0.3125 L 3.859375 -0.3125 C 2.953125 -0.3125 2.9375 -0.421875 2.9375 -0.78125 Z M 2.9375 -6.375 "/>
</g>
<g id="glyph-0-1">
<path d="M 4.46875 -2 C 4.46875 -3.1875 3.65625 -4.1875 2.578125 -4.1875 C 2.109375 -4.1875 1.671875 -4.03125 1.3125 -3.671875 L 1.3125 -5.625 C 1.515625 -5.5625 1.84375 -5.5 2.15625 -5.5 C 3.390625 -5.5 4.09375 -6.40625 4.09375 -6.53125 C 4.09375 -6.59375 4.0625 -6.640625 3.984375 -6.640625 C 3.984375 -6.640625 3.953125 -6.640625 3.90625 -6.609375 C 3.703125 -6.515625 3.21875 -6.3125 2.546875 -6.3125 C 2.15625 -6.3125 1.6875 -6.390625 1.21875 -6.59375 C 1.140625 -6.625 1.125 -6.625 1.109375 -6.625 C 1 -6.625 1 -6.546875 1 -6.390625 L 1 -3.4375 C 1 -3.265625 1 -3.1875 1.140625 -3.1875 C 1.21875 -3.1875 1.234375 -3.203125 1.28125 -3.265625 C 1.390625 -3.421875 1.75 -3.96875 2.5625 -3.96875 C 3.078125 -3.96875 3.328125 -3.515625 3.40625 -3.328125 C 3.5625 -2.953125 3.59375 -2.578125 3.59375 -2.078125 C 3.59375 -1.71875 3.59375 -1.125 3.34375 -0.703125 C 3.109375 -0.3125 2.734375 -0.0625 2.28125 -0.0625 C 1.5625 -0.0625 0.984375 -0.59375 0.8125 -1.171875 C 0.84375 -1.171875 0.875 -1.15625 0.984375 -1.15625 C 1.3125 -1.15625 1.484375 -1.40625 1.484375 -1.640625 C 1.484375 -1.890625 1.3125 -2.140625 0.984375 -2.140625 C 0.84375 -2.140625 0.5 -2.0625 0.5 -1.609375 C 0.5 -0.75 1.1875 0.21875 2.296875 0.21875 C 3.453125 0.21875 4.46875 -0.734375 4.46875 -2 Z M 4.46875 -2 "/>
</g>
<g id="glyph-0-2">
<path d="M 1.265625 -0.765625 L 2.328125 -1.796875 C 3.875 -3.171875 4.46875 -3.703125 4.46875 -4.703125 C 4.46875 -5.84375 3.578125 -6.640625 2.359375 -6.640625 C 1.234375 -6.640625 0.5 -5.71875 0.5 -4.828125 C 0.5 -4.28125 1 -4.28125 1.03125 -4.28125 C 1.203125 -4.28125 1.546875 -4.390625 1.546875 -4.8125 C 1.546875 -5.0625 1.359375 -5.328125 1.015625 -5.328125 C 0.9375 -5.328125 0.921875 -5.328125 0.890625 -5.3125 C 1.109375 -5.96875 1.65625 -6.328125 2.234375 -6.328125 C 3.140625 -6.328125 3.5625 -5.515625 3.5625 -4.703125 C 3.5625 -3.90625 3.078125 -3.125 2.515625 -2.5 L 0.609375 -0.375 C 0.5 -0.265625 0.5 -0.234375 0.5 0 L 4.203125 0 L 4.46875 -1.734375 L 4.234375 -1.734375 C 4.171875 -1.4375 4.109375 -1 4 -0.84375 C 3.9375 -0.765625 3.28125 -0.765625 3.0625 -0.765625 Z M 1.265625 -0.765625 "/>
</g>
<g id="glyph-0-3">
<path d="M 2.890625 -3.515625 C 3.703125 -3.78125 4.28125 -4.46875 4.28125 -5.265625 C 4.28125 -6.078125 3.40625 -6.640625 2.453125 -6.640625 C 1.453125 -6.640625 0.6875 -6.046875 0.6875 -5.28125 C 0.6875 -4.953125 0.90625 -4.765625 1.203125 -4.765625 C 1.5 -4.765625 1.703125 -4.984375 1.703125 -5.28125 C 1.703125 -5.765625 1.234375 -5.765625 1.09375 -5.765625 C 1.390625 -6.265625 2.046875 -6.390625 2.40625 -6.390625 C 2.828125 -6.390625 3.375 -6.171875 3.375 -5.28125 C 3.375 -5.15625 3.34375 -4.578125 3.09375 -4.140625 C 2.796875 -3.65625 2.453125 -3.625 2.203125 -3.625 C 2.125 -3.609375 1.890625 -3.59375 1.8125 -3.59375 C 1.734375 -3.578125 1.671875 -3.5625 1.671875 -3.46875 C 1.671875 -3.359375 1.734375 -3.359375 1.90625 -3.359375 L 2.34375 -3.359375 C 3.15625 -3.359375 3.53125 -2.6875 3.53125 -1.703125 C 3.53125 -0.34375 2.84375 -0.0625 2.40625 -0.0625 C 1.96875 -0.0625 1.21875 -0.234375 0.875 -0.8125 C 1.21875 -0.765625 1.53125 -0.984375 1.53125 -1.359375 C 1.53125 -1.71875 1.265625 -1.921875 0.984375 -1.921875 C 0.734375 -1.921875 0.421875 -1.78125 0.421875 -1.34375 C 0.421875 -0.4375 1.34375 0.21875 2.4375 0.21875 C 3.65625 0.21875 4.5625 -0.6875 4.5625 -1.703125 C 4.5625 -2.515625 3.921875 -3.296875 2.890625 -3.515625 Z M 2.890625 -3.515625 "/>
</g>
<g id="glyph-0-4">
<path d="M 2.9375 -1.640625 L 2.9375 -0.78125 C 2.9375 -0.421875 2.90625 -0.3125 2.171875 -0.3125 L 1.96875 -0.3125 L 1.96875 0 C 2.375 -0.03125 2.890625 -0.03125 3.3125 -0.03125 C 3.734375 -0.03125 4.25 -0.03125 4.671875 0 L 4.671875 -0.3125 L 4.453125 -0.3125 C 3.71875 -0.3125 3.703125 -0.421875 3.703125 -0.78125 L 3.703125 -1.640625 L 4.6875 -1.640625 L 4.6875 -1.953125 L 3.703125 -1.953125 L 3.703125 -6.484375 C 3.703125 -6.6875 3.703125 -6.75 3.53125 -6.75 C 3.453125 -6.75 3.421875 -6.75 3.34375 -6.625 L 0.28125 -1.953125 L 0.28125 -1.640625 Z M 2.984375 -1.953125 L 0.5625 -1.953125 L 2.984375 -5.671875 Z M 2.984375 -1.953125 "/>
</g>
<g id="glyph-0-5">
<path d="M 4.578125 -3.1875 C 4.578125 -3.984375 4.53125 -4.78125 4.1875 -5.515625 C 3.734375 -6.484375 2.90625 -6.640625 2.5 -6.640625 C 1.890625 -6.640625 1.171875 -6.375 0.75 -5.453125 C 0.4375 -4.765625 0.390625 -3.984375 0.390625 -3.1875 C 0.390625 -2.4375 0.421875 -1.546875 0.84375 -0.78125 C 1.265625 0.015625 2 0.21875 2.484375 0.21875 C 3.015625 0.21875 3.78125 0.015625 4.21875 -0.9375 C 4.53125 -1.625 4.578125 -2.40625 4.578125 -3.1875 Z M 2.484375 0 C 2.09375 0 1.5 -0.25 1.328125 -1.203125 C 1.21875 -1.796875 1.21875 -2.71875 1.21875 -3.3125 C 1.21875 -3.953125 1.21875 -4.609375 1.296875 -5.140625 C 1.484375 -6.328125 2.234375 -6.421875 2.484375 -6.421875 C 2.8125 -6.421875 3.46875 -6.234375 3.65625 -5.25 C 3.765625 -4.6875 3.765625 -3.9375 3.765625 -3.3125 C 3.765625 -2.5625 3.765625 -1.890625 3.65625 -1.25 C 3.5 -0.296875 2.9375 0 2.484375 0 Z M 2.484375 0 "/>
</g>
<g id="glyph-0-6">
<path d="M 1.3125 -3.265625 L 1.3125 -3.515625 C 1.3125 -6.03125 2.546875 -6.390625 3.0625 -6.390625 C 3.296875 -6.390625 3.71875 -6.328125 3.9375 -5.984375 C 3.78125 -5.984375 3.390625 -5.984375 3.390625 -5.546875 C 3.390625 -5.234375 3.625 -5.078125 3.84375 -5.078125 C 4 -5.078125 4.3125 -5.171875 4.3125 -5.5625 C 4.3125 -6.15625 3.875 -6.640625 3.046875 -6.640625 C 1.765625 -6.640625 0.421875 -5.359375 0.421875 -3.15625 C 0.421875 -0.484375 1.578125 0.21875 2.5 0.21875 C 3.609375 0.21875 4.5625 -0.71875 4.5625 -2.03125 C 4.5625 -3.296875 3.671875 -4.25 2.5625 -4.25 C 1.890625 -4.25 1.515625 -3.75 1.3125 -3.265625 Z M 2.5 -0.0625 C 1.875 -0.0625 1.578125 -0.65625 1.515625 -0.8125 C 1.328125 -1.28125 1.328125 -2.078125 1.328125 -2.25 C 1.328125 -3.03125 1.65625 -4.03125 2.546875 -4.03125 C 2.71875 -4.03125 3.171875 -4.03125 3.484375 -3.40625 C 3.65625 -3.046875 3.65625 -2.53125 3.65625 -2.046875 C 3.65625 -1.5625 3.65625 -1.0625 3.484375 -0.703125 C 3.1875 -0.109375 2.734375 -0.0625 2.5 -0.0625 Z M 2.5 -0.0625 "/>
</g>
<g id="glyph-0-7">
<path d="M 1.625 -4.5625 C 1.171875 -4.859375 1.125 -5.1875 1.125 -5.359375 C 1.125 -5.96875 1.78125 -6.390625 2.484375 -6.390625 C 3.203125 -6.390625 3.84375 -5.875 3.84375 -5.15625 C 3.84375 -4.578125 3.453125 -4.109375 2.859375 -3.765625 Z M 3.078125 -3.609375 C 3.796875 -3.984375 4.28125 -4.5 4.28125 -5.15625 C 4.28125 -6.078125 3.40625 -6.640625 2.5 -6.640625 C 1.5 -6.640625 0.6875 -5.90625 0.6875 -4.96875 C 0.6875 -4.796875 0.703125 -4.34375 1.125 -3.875 C 1.234375 -3.765625 1.609375 -3.515625 1.859375 -3.34375 C 1.28125 -3.046875 0.421875 -2.5 0.421875 -1.5 C 0.421875 -0.453125 1.4375 0.21875 2.484375 0.21875 C 3.609375 0.21875 4.5625 -0.609375 4.5625 -1.671875 C 4.5625 -2.03125 4.453125 -2.484375 4.0625 -2.90625 C 3.875 -3.109375 3.71875 -3.203125 3.078125 -3.609375 Z M 2.078125 -3.1875 L 3.3125 -2.40625 C 3.59375 -2.21875 4.0625 -1.921875 4.0625 -1.3125 C 4.0625 -0.578125 3.3125 -0.0625 2.5 -0.0625 C 1.640625 -0.0625 0.921875 -0.671875 0.921875 -1.5 C 0.921875 -2.078125 1.234375 -2.71875 2.078125 -3.1875 Z M 2.078125 -3.1875 "/>
</g>
<g id="glyph-1-0">
<path d="M 1.90625 -0.53125 C 1.90625 -0.8125 1.671875 -1.0625 1.390625 -1.0625 C 1.09375 -1.0625 0.859375 -0.8125 0.859375 -0.53125 C 0.859375 -0.234375 1.09375 0 1.390625 0 C 1.671875 0 1.90625 -0.234375 1.90625 -0.53125 Z M 1.90625 -0.53125 "/>
</g>
<g id="glyph-2-0">
<path d="M 2.40625 -4.8125 L 3.5 -4.8125 C 3.734375 -4.8125 3.84375 -4.8125 3.84375 -5.015625 C 3.84375 -5.15625 3.78125 -5.15625 3.53125 -5.15625 L 2.484375 -5.15625 L 2.921875 -6.890625 C 2.96875 -7.0625 2.96875 -7.09375 2.96875 -7.171875 C 2.96875 -7.359375 2.828125 -7.46875 2.671875 -7.46875 C 2.5625 -7.46875 2.296875 -7.4375 2.203125 -7.046875 L 1.734375 -5.15625 L 0.609375 -5.15625 C 0.375 -5.15625 0.265625 -5.15625 0.265625 -4.921875 C 0.265625 -4.8125 0.34375 -4.8125 0.578125 -4.8125 L 1.640625 -4.8125 L 0.84375 -1.65625 C 0.75 -1.234375 0.71875 -1.109375 0.71875 -0.953125 C 0.71875 -0.390625 1.109375 0.125 1.78125 0.125 C 2.984375 0.125 3.640625 -1.625 3.640625 -1.703125 C 3.640625 -1.78125 3.578125 -1.8125 3.515625 -1.8125 C 3.484375 -1.8125 3.4375 -1.8125 3.421875 -1.765625 C 3.40625 -1.75 3.390625 -1.75 3.3125 -1.546875 C 3.0625 -0.953125 2.515625 -0.125 1.8125 -0.125 C 1.453125 -0.125 1.4375 -0.421875 1.4375 -0.6875 C 1.4375 -0.6875 1.4375 -0.921875 1.46875 -1.0625 Z M 2.40625 -4.8125 "/>
</g>
<g id="glyph-2-1">
<path d="M 5.265625 -5.15625 C 5.265625 -5.21875 5.21875 -5.265625 5.15625 -5.265625 C 5.0625 -5.265625 4.609375 -4.828125 4.375 -4.40625 C 4.15625 -4.953125 3.796875 -5.265625 3.28125 -5.265625 C 1.921875 -5.265625 0.46875 -3.53125 0.46875 -1.75 C 0.46875 -0.578125 1.15625 0.125 1.96875 0.125 C 2.609375 0.125 3.125 -0.359375 3.375 -0.640625 L 3.390625 -0.625 L 2.9375 1.171875 L 2.828125 1.609375 C 2.71875 1.953125 2.546875 1.953125 1.984375 1.96875 C 1.859375 1.96875 1.734375 1.96875 1.734375 2.203125 C 1.734375 2.28125 1.8125 2.3125 1.890625 2.3125 C 2.0625 2.3125 2.265625 2.296875 2.4375 2.296875 L 3.65625 2.296875 C 3.84375 2.296875 4.046875 2.3125 4.21875 2.3125 C 4.296875 2.3125 4.4375 2.3125 4.4375 2.09375 C 4.4375 1.96875 4.34375 1.96875 4.15625 1.96875 C 3.59375 1.96875 3.5625 1.890625 3.5625 1.796875 C 3.5625 1.734375 3.578125 1.71875 3.609375 1.5625 Z M 3.578125 -1.421875 C 3.53125 -1.21875 3.53125 -1.1875 3.359375 -0.96875 C 3.09375 -0.640625 2.5625 -0.125 2.015625 -0.125 C 1.515625 -0.125 1.25 -0.5625 1.25 -1.265625 C 1.25 -1.921875 1.609375 -3.265625 1.84375 -3.765625 C 2.25 -4.609375 2.8125 -5.03125 3.28125 -5.03125 C 4.0625 -5.03125 4.21875 -4.046875 4.21875 -3.953125 C 4.21875 -3.9375 4.1875 -3.796875 4.171875 -3.765625 Z M 3.578125 -1.421875 "/>
</g>
<g id="glyph-3-0">
<path d="M -2.625 -1.375 C -2.671875 -1.515625 -2.9375 -1.9375 -3.109375 -1.9375 C -3.1875 -1.9375 -3.1875 -1.859375 -3.1875 -1.796875 C -3.1875 -1.390625 -2.671875 -0.21875 -1.484375 -0.21875 C -0.625 -0.21875 0.265625 -1.1875 0.265625 -2.640625 C 0.265625 -4.59375 -1.09375 -6.84375 -2.71875 -6.84375 C -3.84375 -6.84375 -4.40625 -5.65625 -4.828125 -4.6875 C -5.21875 -3.84375 -5.703125 -3.296875 -6.390625 -3.296875 C -6.640625 -3.296875 -7.09375 -3.40625 -7.421875 -3.78125 C -7.734375 -4.140625 -7.765625 -4.8125 -7.765625 -4.96875 C -7.765625 -5.109375 -7.75 -5.609375 -7.53125 -6.125 C -7.421875 -6.34375 -7.28125 -6.65625 -6.765625 -6.65625 C -6.59375 -6.65625 -6.53125 -6.640625 -6.40625 -6.609375 C -6.375 -6.59375 -6.328125 -6.59375 -6.28125 -6.59375 C -6.203125 -6.59375 -6.203125 -6.65625 -6.203125 -6.703125 C -6.203125 -6.859375 -6.328125 -7.140625 -6.53125 -7.390625 C -6.640625 -7.546875 -6.796875 -7.671875 -7.265625 -7.671875 C -7.859375 -7.671875 -8.015625 -7.359375 -8.15625 -7.046875 C -8.421875 -6.484375 -8.421875 -5.921875 -8.421875 -5.765625 C -8.421875 -4.203125 -7.234375 -2.28125 -5.875 -2.28125 C -4.859375 -2.28125 -4.390625 -3.328125 -4.140625 -3.890625 C -3.75 -4.75 -3.203125 -5.828125 -2.203125 -5.828125 C -1.40625 -5.828125 -0.390625 -5.25 -0.390625 -3.4375 C -0.390625 -2.21875 -1.1875 -1.234375 -2 -1.234375 C -2.21875 -1.234375 -2.421875 -1.296875 -2.625 -1.375 Z M -2.625 -1.375 "/>
</g>
<g id="glyph-4-0">
<path d="M 2.90625 -3.890625 C 2.875 -3.890625 2.84375 -3.890625 2.640625 -3.6875 C 1.4375 -2.484375 -0.53125 -1.8125 -2.96875 -1.8125 C -5.296875 -1.8125 -7.296875 -2.375 -8.703125 -3.765625 C -8.8125 -3.890625 -8.828125 -3.890625 -8.875 -3.890625 C -8.9375 -3.890625 -8.96875 -3.828125 -8.96875 -3.78125 C -8.96875 -3.625 -8.109375 -2.640625 -6.9375 -2.0625 C -5.71875 -1.453125 -4.453125 -1.171875 -2.96875 -1.171875 C -1.90625 -1.171875 -0.484375 -1.34375 0.78125 -1.953125 C 2.21875 -2.671875 3 -3.640625 3 -3.78125 C 3 -3.828125 2.96875 -3.890625 2.90625 -3.890625 Z M 2.90625 -3.890625 "/>
</g>
<g id="glyph-4-1">
<path d="M -2.96875 -3.375 C -3.890625 -3.375 -5.359375 -3.25 -6.75 -2.578125 C -8.1875 -1.875 -8.96875 -0.890625 -8.96875 -0.765625 C -8.96875 -0.71875 -8.9375 -0.65625 -8.875 -0.65625 C -8.828125 -0.65625 -8.8125 -0.65625 -8.609375 -0.859375 C -7.40625 -2.0625 -5.421875 -2.71875 -2.984375 -2.71875 C -0.671875 -2.71875 1.328125 -2.15625 2.734375 -0.78125 C 2.84375 -0.65625 2.875 -0.65625 2.90625 -0.65625 C 2.96875 -0.65625 3 -0.71875 3 -0.765625 C 3 -0.921875 2.140625 -1.90625 0.96875 -2.484375 C -0.25 -3.09375 -1.546875 -3.375 -2.96875 -3.375 Z M -2.96875 -3.375 "/>
</g>
<g id="glyph-5-0">
<path d="M -5.15625 -5.265625 C -5.21875 -5.265625 -5.265625 -5.21875 -5.265625 -5.15625 C -5.265625 -5.0625 -4.828125 -4.609375 -4.40625 -4.375 C -4.953125 -4.15625 -5.265625 -3.796875 -5.265625 -3.28125 C -5.265625 -1.921875 -3.53125 -0.46875 -1.75 -0.46875 C -0.578125 -0.46875 0.125 -1.15625 0.125 -1.96875 C 0.125 -2.609375 -0.359375 -3.125 -0.640625 -3.375 L -0.625 -3.390625 L 1.171875 -2.9375 L 1.609375 -2.828125 C 1.953125 -2.71875 1.953125 -2.546875 1.96875 -1.984375 C 1.96875 -1.859375 1.96875 -1.734375 2.203125 -1.734375 C 2.28125 -1.734375 2.3125 -1.8125 2.3125 -1.890625 C 2.3125 -2.0625 2.296875 -2.265625 2.296875 -2.4375 L 2.296875 -3.65625 C 2.296875 -3.84375 2.3125 -4.046875 2.3125 -4.21875 C 2.3125 -4.296875 2.3125 -4.4375 2.09375 -4.4375 C 1.96875 -4.4375 1.96875 -4.34375 1.96875 -4.15625 C 1.96875 -3.59375 1.890625 -3.5625 1.796875 -3.5625 C 1.734375 -3.5625 1.71875 -3.578125 1.5625 -3.609375 Z M -1.421875 -3.578125 C -1.21875 -3.53125 -1.1875 -3.53125 -0.96875 -3.359375 C -0.640625 -3.09375 -0.125 -2.5625 -0.125 -2.015625 C -0.125 -1.515625 -0.5625 -1.25 -1.265625 -1.25 C -1.921875 -1.25 -3.265625 -1.609375 -3.765625 -1.84375 C -4.609375 -2.25 -5.03125 -2.8125 -5.03125 -3.28125 C -5.03125 -4.0625 -4.046875 -4.21875 -3.953125 -4.21875 C -3.9375 -4.21875 -3.796875 -4.1875 -3.765625 -4.171875 Z M -1.421875 -3.578125 "/>
</g>
<g id="glyph-5-1">
<path d="M 0.046875 -2.328125 C -0.640625 -2.328125 -1.15625 -2.109375 -1.15625 -1.609375 C -1.15625 -1.234375 -0.84375 -1.046875 -0.578125 -1.046875 C -0.328125 -1.046875 0 -1.21875 0 -1.625 C 0 -1.78125 -0.046875 -1.90625 -0.15625 -2.015625 C -0.171875 -2.046875 -0.171875 -2.0625 -0.171875 -2.0625 C -0.171875 -2.09375 -0.015625 -2.09375 0.046875 -2.09375 C 0.4375 -2.09375 1.21875 -2.015625 2 -1.328125 C 2.140625 -1.1875 2.15625 -1.1875 2.1875 -1.1875 C 2.25 -1.1875 2.3125 -1.25 2.3125 -1.3125 C 2.3125 -1.40625 1.421875 -2.328125 0.046875 -2.328125 Z M 0.046875 -2.328125 "/>
</g>
<g id="glyph-5-2">
<path d="M -4.8125 -2.40625 L -4.8125 -3.5 C -4.8125 -3.734375 -4.8125 -3.84375 -5.015625 -3.84375 C -5.15625 -3.84375 -5.15625 -3.78125 -5.15625 -3.53125 L -5.15625 -2.484375 L -6.890625 -2.921875 C -7.0625 -2.96875 -7.09375 -2.96875 -7.171875 -2.96875 C -7.359375 -2.96875 -7.46875 -2.828125 -7.46875 -2.671875 C -7.46875 -2.5625 -7.4375 -2.296875 -7.046875 -2.203125 L -5.15625 -1.734375 L -5.15625 -0.609375 C -5.15625 -0.375 -5.15625 -0.265625 -4.921875 -0.265625 C -4.8125 -0.265625 -4.8125 -0.34375 -4.8125 -0.578125 L -4.8125 -1.640625 L -1.65625 -0.84375 C -1.234375 -0.75 -1.109375 -0.71875 -0.953125 -0.71875 C -0.390625 -0.71875 0.125 -1.109375 0.125 -1.78125 C 0.125 -2.984375 -1.625 -3.640625 -1.703125 -3.640625 C -1.78125 -3.640625 -1.8125 -3.578125 -1.8125 -3.515625 C -1.8125 -3.484375 -1.8125 -3.4375 -1.765625 -3.421875 C -1.75 -3.40625 -1.75 -3.390625 -1.546875 -3.3125 C -0.953125 -3.0625 -0.125 -2.515625 -0.125 -1.8125 C -0.125 -1.453125 -0.421875 -1.4375 -0.6875 -1.4375 C -0.6875 -1.4375 -0.921875 -1.4375 -1.0625 -1.46875 Z M -4.8125 -2.40625 "/>
</g>
</g>
<clipPath id="clip-0">
<path clip-rule="nonzero" d="M 145 119 L 218 119 L 218 144 L 145 144 Z M 145 119 "/>
</clipPath>
<clipPath id="clip-1">
<path clip-rule="nonzero" d="M 37.957031 230.589844 L 37.957031 81.929688 L 198.570312 2.1875 L 389.976562 69.101562 L 389.976562 217.761719 L 229.367188 297.503906 Z M 37.957031 230.589844 "/>
</clipPath>
<clipPath id="clip-2">
<path clip-rule="nonzero" d="M 139 113 L 224 113 L 224 149 L 139 149 Z M 139 113 "/>
</clipPath>
<clipPath id="clip-3">
<path clip-rule="nonzero" d="M 37.957031 230.589844 L 37.957031 81.929688 L 198.570312 2.1875 L 389.976562 69.101562 L 389.976562 217.761719 L 229.367188 297.503906 Z M 37.957031 230.589844 "/>
</clipPath>
<clipPath id="clip-4">
<path clip-rule="nonzero" d="M 164 133 L 237 133 L 237 158 L 164 158 Z M 164 133 "/>
</clipPath>
<clipPath id="clip-5">
<path clip-rule="nonzero" d="M 37.957031 230.589844 L 37.957031 81.929688 L 198.570312 2.1875 L 389.976562 69.101562 L 389.976562 217.761719 L 229.367188 297.503906 Z M 37.957031 230.589844 "/>
</clipPath>
<clipPath id="clip-6">
<path clip-rule="nonzero" d="M 158 128 L 243 128 L 243 164 L 158 164 Z M 158 128 "/>
</clipPath>
<clipPath id="clip-7">
<path clip-rule="nonzero" d="M 37.957031 230.589844 L 37.957031 81.929688 L 198.570312 2.1875 L 389.976562 69.101562 L 389.976562 217.761719 L 229.367188 297.503906 Z M 37.957031 230.589844 "/>
</clipPath>
<clipPath id="clip-8">
<path clip-rule="nonzero" d="M 183 146 L 256 146 L 256 172 L 183 172 Z M 183 146 "/>
</clipPath>
<clipPath id="clip-9">
<path clip-rule="nonzero" d="M 37.957031 230.589844 L 37.957031 81.929688 L 198.570312 2.1875 L 389.976562 69.101562 L 389.976562 217.761719 L 229.367188 297.503906 Z M 37.957031 230.589844 "/>
</clipPath>
<clipPath id="clip-10">
<path clip-rule="nonzero" d="M 177 140 L 262 140 L 262 178 L 177 178 Z M 177 140 "/>
</clipPath>
<clipPath id="clip-11">
<path clip-rule="nonzero" d="M 37.957031 230.589844 L 37.957031 81.929688 L 198.570312 2.1875 L 389.976562 69.101562 L 389.976562 217.761719 L 229.367188 297.503906 Z M 37.957031 230.589844 "/>
</clipPath>
<clipPath id="clip-12">
<path clip-rule="nonzero" d="M 202 156 L 276 156 L 276 185 L 202 185 Z M 202 156 "/>
</clipPath>
<clipPath id="clip-13">
<path clip-rule="nonzero" d="M 37.957031 230.589844 L 37.957031 81.929688 L 198.570312 2.1875 L 389.976562 69.101562 L 389.976562 217.761719 L 229.367188 297.503906 Z M 37.957031 230.589844 "/>
</clipPath>
<clipPath id="clip-14">
<path clip-rule="nonzero" d="M 196 150 L 281 150 L 281 190 L 196 190 Z M 196 150 "/>
</clipPath>
<clipPath id="clip-15">
<path clip-rule="nonzero" d="M 37.957031 230.589844 L 37.957031 81.929688 L 198.570312 2.1875 L 389.976562 69.101562 L 389.976562 217.761719 L 229.367188 297.503906 Z M 37.957031 230.589844 "/>
</clipPath>
<clipPath id="clip-16">
<path clip-rule="nonzero" d="M 221 165 L 295 165 L 295 195 L 221 195 Z M 221 165 "/>
</clipPath>
<clipPath id="clip-17">
<path clip-rule="nonzero" d="M 37.957031 230.589844 L 37.957031 81.929688 L 198.570312 2.1875 L 389.976562 69.101562 L 389.976562 217.761719 L 229.367188 297.503906 Z M 37.957031 230.589844 "/>
</clipPath>
<clipPath id="clip-18">
<path clip-rule="nonzero" d="M 215 159 L 300 159 L 300 201 L 215 201 Z M 215 159 "/>
</clipPath>
<clipPath id="clip-19">
<path clip-rule="nonzero" d="M 37.957031 230.589844 L 37.957031 81.929688 L 198.570312 2.1875 L 389.976562 69.101562 L 389.976562 217.761719 L 229.367188 297.503906 Z M 37.957031 230.589844 "/>
</clipPath>
<clipPath id="clip-20">
<path clip-rule="nonzero" d="M 240 170 L 314 170 L 314 204 L 240 204 Z M 240 170 "/>
</clipPath>
<clipPath id="clip-21">
<path clip-rule="nonzero" d="M 37.957031 230.589844 L 37.957031 81.929688 L 198.570312 2.1875 L 389.976562 69.101562 L 389.976562 217.761719 L 229.367188 297.503906 Z M 37.957031 230.589844 "/>
</clipPath>
<clipPath id="clip-22">
<path clip-rule="nonzero" d="M 235 164 L 320 164 L 320 209 L 235 209 Z M 235 164 "/>
</clipPath>
<clipPath id="clip-23">
<path clip-rule="nonzero" d="M 37.957031 230.589844 L 37.957031 81.929688 L 198.570312 2.1875 L 389.976562 69.101562 L 389.976562 217.761719 L 229.367188 297.503906 Z M 37.957031 230.589844 "/>
</clipPath>
<clipPath id="clip-24">
<path clip-rule="nonzero" d="M 259 172 L 333 172 L 333 212 L 259 212 Z M 259 172 "/>
</clipPath>
<clipPath id="clip-25">
<path clip-rule="nonzero" d="M 37.957031 230.589844 L 37.957031 81.929688 L 198.570312 2.1875 L 389.976562 69.101562 L 389.976562 217.761719 L 229.367188 297.503906 Z M 37.957031 230.589844 "/>
</clipPath>
<clipPath id="clip-26">
<path clip-rule="nonzero" d="M 254 167 L 339 167 L 339 218 L 254 218 Z M 254 167 "/>
</clipPath>
<clipPath id="clip-27">
<path clip-rule="nonzero" d="M 37.957031 230.589844 L 37.957031 81.929688 L 198.570312 2.1875 L 389.976562 69.101562 L 389.976562 217.761719 L 229.367188 297.503906 Z M 37.957031 230.589844 "/>
</clipPath>
<clipPath id="clip-28">
<path clip-rule="nonzero" d="M 279 171 L 352 171 L 352 217 L 279 217 Z M 279 171 "/>
</clipPath>
<clipPath id="clip-29">
<path clip-rule="nonzero" d="M 37.957031 230.589844 L 37.957031 81.929688 L 198.570312 2.1875 L 389.976562 69.101562 L 389.976562 217.761719 L 229.367188 297.503906 Z M 37.957031 230.589844 "/>
</clipPath>
<clipPath id="clip-30">
<path clip-rule="nonzero" d="M 273 165 L 358 165 L 358 223 L 273 223 Z M 273 165 "/>
</clipPath>
<clipPath id="clip-31">
<path clip-rule="nonzero" d="M 37.957031 230.589844 L 37.957031 81.929688 L 198.570312 2.1875 L 389.976562 69.101562 L 389.976562 217.761719 L 229.367188 297.503906 Z M 37.957031 230.589844 "/>
</clipPath>
<clipPath id="clip-32">
<path clip-rule="nonzero" d="M 298 166 L 371 166 L 371 222 L 298 222 Z M 298 166 "/>
</clipPath>
<clipPath id="clip-33">
<path clip-rule="nonzero" d="M 37.957031 230.589844 L 37.957031 81.929688 L 198.570312 2.1875 L 389.976562 69.101562 L 389.976562 217.761719 L 229.367188 297.503906 Z M 37.957031 230.589844 "/>
</clipPath>
<clipPath id="clip-34">
<path clip-rule="nonzero" d="M 292 160 L 377 160 L 377 228 L 292 228 Z M 292 160 "/>
</clipPath>
<clipPath id="clip-35">
<path clip-rule="nonzero" d="M 37.957031 230.589844 L 37.957031 81.929688 L 198.570312 2.1875 L 389.976562 69.101562 L 389.976562 217.761719 L 229.367188 297.503906 Z M 37.957031 230.589844 "/>
</clipPath>
<clipPath id="clip-36">
<path clip-rule="nonzero" d="M 317 157 L 390 157 L 390 223 L 317 223 Z M 317 157 "/>
</clipPath>
<clipPath id="clip-37">
<path clip-rule="nonzero" d="M 37.957031 230.589844 L 37.957031 81.929688 L 198.570312 2.1875 L 389.976562 69.101562 L 389.976562 217.761719 L 229.367188 297.503906 Z M 37.957031 230.589844 "/>
</clipPath>
<clipPath id="clip-38">
<path clip-rule="nonzero" d="M 311 152 L 390 152 L 390 229 L 311 229 Z M 311 152 "/>
</clipPath>
<clipPath id="clip-39">
<path clip-rule="nonzero" d="M 37.957031 230.589844 L 37.957031 81.929688 L 198.570312 2.1875 L 389.976562 69.101562 L 389.976562 217.761719 L 229.367188 297.503906 Z M 37.957031 230.589844 "/>
</clipPath>
<clipPath id="clip-40">
<path clip-rule="nonzero" d="M 91 124 L 165 124 L 165 147 L 91 147 Z M 91 124 "/>
</clipPath>
<clipPath id="clip-41">
<path clip-rule="nonzero" d="M 37.957031 230.589844 L 37.957031 81.929688 L 198.570312 2.1875 L 389.976562 69.101562 L 389.976562 217.761719 L 229.367188 297.503906 Z M 37.957031 230.589844 "/>
</clipPath>
<clipPath id="clip-42">
<path clip-rule="nonzero" d="M 85 119 L 170 119 L 170 153 L 85 153 Z M 85 119 "/>
</clipPath>
<clipPath id="clip-43">
<path clip-rule="nonzero" d="M 37.957031 230.589844 L 37.957031 81.929688 L 198.570312 2.1875 L 389.976562 69.101562 L 389.976562 217.761719 L 229.367188 297.503906 Z M 37.957031 230.589844 "/>
</clipPath>
<clipPath id="clip-44">
<path clip-rule="nonzero" d="M 110 143 L 184 143 L 184 165 L 110 165 Z M 110 143 "/>
</clipPath>
<clipPath id="clip-45">
<path clip-rule="nonzero" d="M 37.957031 230.589844 L 37.957031 81.929688 L 198.570312 2.1875 L 389.976562 69.101562 L 389.976562 217.761719 L 229.367188 297.503906 Z M 37.957031 230.589844 "/>
</clipPath>
<clipPath id="clip-46">
<path clip-rule="nonzero" d="M 105 137 L 189 137 L 189 171 L 105 171 Z M 105 137 "/>
</clipPath>
<clipPath id="clip-47">
<path clip-rule="nonzero" d="M 37.957031 230.589844 L 37.957031 81.929688 L 198.570312 2.1875 L 389.976562 69.101562 L 389.976562 217.761719 L 229.367188 297.503906 Z M 37.957031 230.589844 "/>
</clipPath>
<clipPath id="clip-48">
<path clip-rule="nonzero" d="M 129 157 L 203 157 L 203 184 L 129 184 Z M 129 157 "/>
</clipPath>
<clipPath id="clip-49">
<path clip-rule="nonzero" d="M 37.957031 230.589844 L 37.957031 81.929688 L 198.570312 2.1875 L 389.976562 69.101562 L 389.976562 217.761719 L 229.367188 297.503906 Z M 37.957031 230.589844 "/>
</clipPath>
<clipPath id="clip-50">
<path clip-rule="nonzero" d="M 124 151 L 209 151 L 209 189 L 124 189 Z M 124 151 "/>
</clipPath>
<clipPath id="clip-51">
<path clip-rule="nonzero" d="M 37.957031 230.589844 L 37.957031 81.929688 L 198.570312 2.1875 L 389.976562 69.101562 L 389.976562 217.761719 L 229.367188 297.503906 Z M 37.957031 230.589844 "/>
</clipPath>
<clipPath id="clip-52">
<path clip-rule="nonzero" d="M 148 171 L 222 171 L 222 198 L 148 198 Z M 148 171 "/>
</clipPath>
<clipPath id="clip-53">
<path clip-rule="nonzero" d="M 37.957031 230.589844 L 37.957031 81.929688 L 198.570312 2.1875 L 389.976562 69.101562 L 389.976562 217.761719 L 229.367188 297.503906 Z M 37.957031 230.589844 "/>
</clipPath>
<clipPath id="clip-54">
<path clip-rule="nonzero" d="M 143 166 L 228 166 L 228 204 L 143 204 Z M 143 166 "/>
</clipPath>
<clipPath id="clip-55">
<path clip-rule="nonzero" d="M 37.957031 230.589844 L 37.957031 81.929688 L 198.570312 2.1875 L 389.976562 69.101562 L 389.976562 217.761719 L 229.367188 297.503906 Z M 37.957031 230.589844 "/>
</clipPath>
<clipPath id="clip-56">
<path clip-rule="nonzero" d="M 168 184 L 241 184 L 241 212 L 168 212 Z M 168 184 "/>
</clipPath>
<clipPath id="clip-57">
<path clip-rule="nonzero" d="M 37.957031 230.589844 L 37.957031 81.929688 L 198.570312 2.1875 L 389.976562 69.101562 L 389.976562 217.761719 L 229.367188 297.503906 Z M 37.957031 230.589844 "/>
</clipPath>
<clipPath id="clip-58">
<path clip-rule="nonzero" d="M 162 178 L 247 178 L 247 218 L 162 218 Z M 162 178 "/>
</clipPath>
<clipPath id="clip-59">
<path clip-rule="nonzero" d="M 37.957031 230.589844 L 37.957031 81.929688 L 198.570312 2.1875 L 389.976562 69.101562 L 389.976562 217.761719 L 229.367188 297.503906 Z M 37.957031 230.589844 "/>
</clipPath>
<clipPath id="clip-60">
<path clip-rule="nonzero" d="M 187 194 L 260 194 L 260 225 L 187 225 Z M 187 194 "/>
</clipPath>
<clipPath id="clip-61">
<path clip-rule="nonzero" d="M 37.957031 230.589844 L 37.957031 81.929688 L 198.570312 2.1875 L 389.976562 69.101562 L 389.976562 217.761719 L 229.367188 297.503906 Z M 37.957031 230.589844 "/>
</clipPath>
<clipPath id="clip-62">
<path clip-rule="nonzero" d="M 181 189 L 266 189 L 266 230 L 181 230 Z M 181 189 "/>
</clipPath>
<clipPath id="clip-63">
<path clip-rule="nonzero" d="M 37.957031 230.589844 L 37.957031 81.929688 L 198.570312 2.1875 L 389.976562 69.101562 L 389.976562 217.761719 L 229.367188 297.503906 Z M 37.957031 230.589844 "/>
</clipPath>
<clipPath id="clip-64">
<path clip-rule="nonzero" d="M 206 203 L 280 203 L 280 235 L 206 235 Z M 206 203 "/>
</clipPath>
<clipPath id="clip-65">
<path clip-rule="nonzero" d="M 37.957031 230.589844 L 37.957031 81.929688 L 198.570312 2.1875 L 389.976562 69.101562 L 389.976562 217.761719 L 229.367188 297.503906 Z M 37.957031 230.589844 "/>
</clipPath>
<clipPath id="clip-66">
<path clip-rule="nonzero" d="M 200 197 L 285 197 L 285 241 L 200 241 Z M 200 197 "/>
</clipPath>
<clipPath id="clip-67">
<path clip-rule="nonzero" d="M 37.957031 230.589844 L 37.957031 81.929688 L 198.570312 2.1875 L 389.976562 69.101562 L 389.976562 217.761719 L 229.367188 297.503906 Z M 37.957031 230.589844 "/>
</clipPath>
<clipPath id="clip-68">
<path clip-rule="nonzero" d="M 225 211 L 299 211 L 299 244 L 225 244 Z M 225 211 "/>
</clipPath>
<clipPath id="clip-69">
<path clip-rule="nonzero" d="M 37.957031 230.589844 L 37.957031 81.929688 L 198.570312 2.1875 L 389.976562 69.101562 L 389.976562 217.761719 L 229.367188 297.503906 Z M 37.957031 230.589844 "/>
</clipPath>
<clipPath id="clip-70">
<path clip-rule="nonzero" d="M 219 206 L 304 206 L 304 249 L 219 249 Z M 219 206 "/>
</clipPath>
<clipPath id="clip-71">
<path clip-rule="nonzero" d="M 37.957031 230.589844 L 37.957031 81.929688 L 198.570312 2.1875 L 389.976562 69.101562 L 389.976562 217.761719 L 229.367188 297.503906 Z M 37.957031 230.589844 "/>
</clipPath>
<clipPath id="clip-72">
<path clip-rule="nonzero" d="M 244 216 L 318 216 L 318 252 L 244 252 Z M 244 216 "/>
</clipPath>
<clipPath id="clip-73">
<path clip-rule="nonzero" d="M 37.957031 230.589844 L 37.957031 81.929688 L 198.570312 2.1875 L 389.976562 69.101562 L 389.976562 217.761719 L 229.367188 297.503906 Z M 37.957031 230.589844 "/>
</clipPath>
<clipPath id="clip-74">
<path clip-rule="nonzero" d="M 238 211 L 323 211 L 323 258 L 238 258 Z M 238 211 "/>
</clipPath>
<clipPath id="clip-75">
<path clip-rule="nonzero" d="M 37.957031 230.589844 L 37.957031 81.929688 L 198.570312 2.1875 L 389.976562 69.101562 L 389.976562 217.761719 L 229.367188 297.503906 Z M 37.957031 230.589844 "/>
</clipPath>
<clipPath id="clip-76">
<path clip-rule="nonzero" d="M 263 221 L 337 221 L 337 257 L 263 257 Z M 263 221 "/>
</clipPath>
<clipPath id="clip-77">
<path clip-rule="nonzero" d="M 37.957031 230.589844 L 37.957031 81.929688 L 198.570312 2.1875 L 389.976562 69.101562 L 389.976562 217.761719 L 229.367188 297.503906 Z M 37.957031 230.589844 "/>
</clipPath>
<clipPath id="clip-78">
<path clip-rule="nonzero" d="M 258 215 L 343 215 L 343 263 L 258 263 Z M 258 215 "/>
</clipPath>
<clipPath id="clip-79">
<path clip-rule="nonzero" d="M 37.957031 230.589844 L 37.957031 81.929688 L 198.570312 2.1875 L 389.976562 69.101562 L 389.976562 217.761719 L 229.367188 297.503906 Z M 37.957031 230.589844 "/>
</clipPath>
<clipPath id="clip-80">
<path clip-rule="nonzero" d="M 37 94 L 111 94 L 111 147 L 37 147 Z M 37 94 "/>
</clipPath>
<clipPath id="clip-81">
<path clip-rule="nonzero" d="M 37.957031 230.589844 L 37.957031 81.929688 L 198.570312 2.1875 L 389.976562 69.101562 L 389.976562 217.761719 L 229.367188 297.503906 Z M 37.957031 230.589844 "/>
</clipPath>
<clipPath id="clip-82">
<path clip-rule="nonzero" d="M 37 88 L 117 88 L 117 153 L 37 153 Z M 37 88 "/>
</clipPath>
<clipPath id="clip-83">
<path clip-rule="nonzero" d="M 37.957031 230.589844 L 37.957031 81.929688 L 198.570312 2.1875 L 389.976562 69.101562 L 389.976562 217.761719 L 229.367188 297.503906 Z M 37.957031 230.589844 "/>
</clipPath>
<clipPath id="clip-84">
<path clip-rule="nonzero" d="M 57 125 L 130 125 L 130 165 L 57 165 Z M 57 125 "/>
</clipPath>
<clipPath id="clip-85">
<path clip-rule="nonzero" d="M 37.957031 230.589844 L 37.957031 81.929688 L 198.570312 2.1875 L 389.976562 69.101562 L 389.976562 217.761719 L 229.367188 297.503906 Z M 37.957031 230.589844 "/>
</clipPath>
<clipPath id="clip-86">
<path clip-rule="nonzero" d="M 51 120 L 136 120 L 136 171 L 51 171 Z M 51 120 "/>
</clipPath>
<clipPath id="clip-87">
<path clip-rule="nonzero" d="M 37.957031 230.589844 L 37.957031 81.929688 L 198.570312 2.1875 L 389.976562 69.101562 L 389.976562 217.761719 L 229.367188 297.503906 Z M 37.957031 230.589844 "/>
</clipPath>
<clipPath id="clip-88">
<path clip-rule="nonzero" d="M 76 153 L 149 153 L 149 184 L 76 184 Z M 76 153 "/>
</clipPath>
<clipPath id="clip-89">
<path clip-rule="nonzero" d="M 37.957031 230.589844 L 37.957031 81.929688 L 198.570312 2.1875 L 389.976562 69.101562 L 389.976562 217.761719 L 229.367188 297.503906 Z M 37.957031 230.589844 "/>
</clipPath>
<clipPath id="clip-90">
<path clip-rule="nonzero" d="M 70 147 L 155 147 L 155 189 L 70 189 Z M 70 147 "/>
</clipPath>
<clipPath id="clip-91">
<path clip-rule="nonzero" d="M 37.957031 230.589844 L 37.957031 81.929688 L 198.570312 2.1875 L 389.976562 69.101562 L 389.976562 217.761719 L 229.367188 297.503906 Z M 37.957031 230.589844 "/>
</clipPath>
<clipPath id="clip-92">
<path clip-rule="nonzero" d="M 95 179 L 169 179 L 169 202 L 95 202 Z M 95 179 "/>
</clipPath>
<clipPath id="clip-93">
<path clip-rule="nonzero" d="M 37.957031 230.589844 L 37.957031 81.929688 L 198.570312 2.1875 L 389.976562 69.101562 L 389.976562 217.761719 L 229.367188 297.503906 Z M 37.957031 230.589844 "/>
</clipPath>
<clipPath id="clip-94">
<path clip-rule="nonzero" d="M 89 173 L 174 173 L 174 207 L 89 207 Z M 89 173 "/>
</clipPath>
<clipPath id="clip-95">
<path clip-rule="nonzero" d="M 37.957031 230.589844 L 37.957031 81.929688 L 198.570312 2.1875 L 389.976562 69.101562 L 389.976562 217.761719 L 229.367188 297.503906 Z M 37.957031 230.589844 "/>
</clipPath>
<clipPath id="clip-96">
<path clip-rule="nonzero" d="M 114 197 L 188 197 L 188 222 L 114 222 Z M 114 197 "/>
</clipPath>
<clipPath id="clip-97">
<path clip-rule="nonzero" d="M 37.957031 230.589844 L 37.957031 81.929688 L 198.570312 2.1875 L 389.976562 69.101562 L 389.976562 217.761719 L 229.367188 297.503906 Z M 37.957031 230.589844 "/>
</clipPath>
<clipPath id="clip-98">
<path clip-rule="nonzero" d="M 108 191 L 193 191 L 193 227 L 108 227 Z M 108 191 "/>
</clipPath>
<clipPath id="clip-99">
<path clip-rule="nonzero" d="M 37.957031 230.589844 L 37.957031 81.929688 L 198.570312 2.1875 L 389.976562 69.101562 L 389.976562 217.761719 L 229.367188 297.503906 Z M 37.957031 230.589844 "/>
</clipPath>
<clipPath id="clip-100">
<path clip-rule="nonzero" d="M 133 211 L 207 211 L 207 240 L 133 240 Z M 133 211 "/>
</clipPath>
<clipPath id="clip-101">
<path clip-rule="nonzero" d="M 37.957031 230.589844 L 37.957031 81.929688 L 198.570312 2.1875 L 389.976562 69.101562 L 389.976562 217.761719 L 229.367188 297.503906 Z M 37.957031 230.589844 "/>
</clipPath>
<clipPath id="clip-102">
<path clip-rule="nonzero" d="M 128 206 L 212 206 L 212 245 L 128 245 Z M 128 206 "/>
</clipPath>
<clipPath id="clip-103">
<path clip-rule="nonzero" d="M 37.957031 230.589844 L 37.957031 81.929688 L 198.570312 2.1875 L 389.976562 69.101562 L 389.976562 217.761719 L 229.367188 297.503906 Z M 37.957031 230.589844 "/>
</clipPath>
<clipPath id="clip-104">
<path clip-rule="nonzero" d="M 152 224 L 226 224 L 226 254 L 152 254 Z M 152 224 "/>
</clipPath>
<clipPath id="clip-105">
<path clip-rule="nonzero" d="M 37.957031 230.589844 L 37.957031 81.929688 L 198.570312 2.1875 L 389.976562 69.101562 L 389.976562 217.761719 L 229.367188 297.503906 Z M 37.957031 230.589844 "/>
</clipPath>
<clipPath id="clip-106">
<path clip-rule="nonzero" d="M 147 218 L 232 218 L 232 260 L 147 260 Z M 147 218 "/>
</clipPath>
<clipPath id="clip-107">
<path clip-rule="nonzero" d="M 37.957031 230.589844 L 37.957031 81.929688 L 198.570312 2.1875 L 389.976562 69.101562 L 389.976562 217.761719 L 229.367188 297.503906 Z M 37.957031 230.589844 "/>
</clipPath>
<clipPath id="clip-108">
<path clip-rule="nonzero" d="M 171 234 L 245 234 L 245 267 L 171 267 Z M 171 234 "/>
</clipPath>
<clipPath id="clip-109">
<path clip-rule="nonzero" d="M 37.957031 230.589844 L 37.957031 81.929688 L 198.570312 2.1875 L 389.976562 69.101562 L 389.976562 217.761719 L 229.367188 297.503906 Z M 37.957031 230.589844 "/>
</clipPath>
<clipPath id="clip-110">
<path clip-rule="nonzero" d="M 166 229 L 251 229 L 251 272 L 166 272 Z M 166 229 "/>
</clipPath>
<clipPath id="clip-111">
<path clip-rule="nonzero" d="M 37.957031 230.589844 L 37.957031 81.929688 L 198.570312 2.1875 L 389.976562 69.101562 L 389.976562 217.761719 L 229.367188 297.503906 Z M 37.957031 230.589844 "/>
</clipPath>
<clipPath id="clip-112">
<path clip-rule="nonzero" d="M 191 243 L 264 243 L 264 277 L 191 277 Z M 191 243 "/>
</clipPath>
<clipPath id="clip-113">
<path clip-rule="nonzero" d="M 37.957031 230.589844 L 37.957031 81.929688 L 198.570312 2.1875 L 389.976562 69.101562 L 389.976562 217.761719 L 229.367188 297.503906 Z M 37.957031 230.589844 "/>
</clipPath>
<clipPath id="clip-114">
<path clip-rule="nonzero" d="M 185 237 L 270 237 L 270 283 L 185 283 Z M 185 237 "/>
</clipPath>
<clipPath id="clip-115">
<path clip-rule="nonzero" d="M 37.957031 230.589844 L 37.957031 81.929688 L 198.570312 2.1875 L 389.976562 69.101562 L 389.976562 217.761719 L 229.367188 297.503906 Z M 37.957031 230.589844 "/>
</clipPath>
<clipPath id="clip-116">
<path clip-rule="nonzero" d="M 210 251 L 283 251 L 283 286 L 210 286 Z M 210 251 "/>
</clipPath>
<clipPath id="clip-117">
<path clip-rule="nonzero" d="M 37.957031 230.589844 L 37.957031 81.929688 L 198.570312 2.1875 L 389.976562 69.101562 L 389.976562 217.761719 L 229.367188 297.503906 Z M 37.957031 230.589844 "/>
</clipPath>
<clipPath id="clip-118">
<path clip-rule="nonzero" d="M 204 246 L 289 246 L 289 291 L 204 291 Z M 204 246 "/>
</clipPath>
<clipPath id="clip-119">
<path clip-rule="nonzero" d="M 37.957031 230.589844 L 37.957031 81.929688 L 198.570312 2.1875 L 389.976562 69.101562 L 389.976562 217.761719 L 229.367188 297.503906 Z M 37.957031 230.589844 "/>
</clipPath>
</defs>
<path fill="none" stroke-width="0.19925" stroke-linecap="butt" stroke-linejoin="miter" stroke="rgb(50%, 50%, 50%)" stroke-opacity="1" stroke-miterlimit="10" d="M 0.0001875 -12.389906 L -4.015437 -10.987563 M 26.769719 0.903062 L 22.754094 2.305406 M 53.535344 14.192125 L 49.523625 15.594469 M 80.304875 27.481187 L 76.28925 28.883531 M 107.074406 40.774156 L 103.058781 42.1765 M 133.843938 54.063219 L 129.828313 55.465562 M 160.609563 67.352281 L 156.597844 68.754625 M -191.409969 54.524156 L -187.394344 53.121812 M -164.640437 67.813219 L -160.624812 66.410875 M -137.870906 81.106187 L -133.855281 79.699937 M -111.101375 94.39525 L -107.089656 92.992906 M -84.33575 107.684312 L -80.320125 106.281969 M -57.566219 120.977281 L -53.550594 119.571031 M -30.796687 134.266344 L -26.784969 132.864 " transform="matrix(1, 0, 0, -1, 229.367, 285.114)"/>
<path fill="none" stroke-width="0.19925" stroke-linecap="butt" stroke-linejoin="miter" stroke="rgb(50%, 50%, 50%)" stroke-opacity="1" stroke-miterlimit="10" d="M 0.0001875 -12.389906 L 3.808781 -10.499281 M -38.281062 0.992906 L -34.472469 2.883531 M -76.562312 14.375719 L -72.753719 16.266344 M -114.843562 27.758531 L -111.034969 29.649156 M -153.124812 41.141344 L -149.316219 43.031969 M -191.409969 54.524156 L -187.601375 56.414781 M 160.609563 67.352281 L 156.800969 65.461656 M 122.328313 80.735094 L 118.519719 78.844469 M 84.047063 94.117906 L 80.238469 92.227281 M 45.765813 107.500719 L 41.957219 105.610094 M 7.484563 120.883531 L 3.675969 118.992906 M -30.796687 134.266344 L -34.605281 132.375719 " transform="matrix(1, 0, 0, -1, 229.367, 285.114)"/>
<path fill="none" stroke-width="0.3985" stroke-linecap="butt" stroke-linejoin="miter" stroke="rgb(0%, 0%, 0%)" stroke-opacity="1" stroke-miterlimit="10" d="M 0.0001875 -12.389906 L 160.609563 67.352281 " transform="matrix(1, 0, 0, -1, 229.367, 285.114)"/>
<path fill="none" stroke-width="0.3985" stroke-linecap="butt" stroke-linejoin="miter" stroke="rgb(0%, 0%, 0%)" stroke-opacity="1" stroke-miterlimit="10" d="M -191.409969 54.524156 L -30.796687 134.266344 " transform="matrix(1, 0, 0, -1, 229.367, 285.114)"/>
<path fill="none" stroke-width="0.3985" stroke-linecap="butt" stroke-linejoin="miter" stroke="rgb(0%, 0%, 0%)" stroke-opacity="1" stroke-miterlimit="10" d="M 0.0001875 -12.389906 L -191.409969 54.524156 " transform="matrix(1, 0, 0, -1, 229.367, 285.114)"/>
<path fill="none" stroke-width="0.3985" stroke-linecap="butt" stroke-linejoin="miter" stroke="rgb(0%, 0%, 0%)" stroke-opacity="1" stroke-miterlimit="10" d="M 160.609563 67.352281 L -30.796687 134.266344 " transform="matrix(1, 0, 0, -1, 229.367, 285.114)"/>
<g fill="rgb(0%, 0%, 0%)" fill-opacity="1">
<use xlink:href="#glyph-0-0" x="231.975" y="307.895"/>
</g>
<g fill="rgb(0%, 0%, 0%)" fill-opacity="1">
<use xlink:href="#glyph-0-0" x="255.878" y="296.028"/>
</g>
<g fill="rgb(0%, 0%, 0%)" fill-opacity="1">
<use xlink:href="#glyph-1-0" x="260.8593" y="296.028"/>
</g>
<g fill="rgb(0%, 0%, 0%)" fill-opacity="1">
<use xlink:href="#glyph-0-1" x="263.62691" y="296.028"/>
</g>
<g fill="rgb(0%, 0%, 0%)" fill-opacity="1">
<use xlink:href="#glyph-0-2" x="285.511" y="281.315"/>
</g>
<g fill="rgb(0%, 0%, 0%)" fill-opacity="1">
<use xlink:href="#glyph-0-2" x="309.414" y="269.447"/>
</g>
<g fill="rgb(0%, 0%, 0%)" fill-opacity="1">
<use xlink:href="#glyph-1-0" x="314.3953" y="269.447"/>
</g>
<g fill="rgb(0%, 0%, 0%)" fill-opacity="1">
<use xlink:href="#glyph-0-1" x="317.16291" y="269.447"/>
</g>
<g fill="rgb(0%, 0%, 0%)" fill-opacity="1">
<use xlink:href="#glyph-0-3" x="339.047" y="254.735"/>
</g>
<g fill="rgb(0%, 0%, 0%)" fill-opacity="1">
<use xlink:href="#glyph-0-3" x="362.95" y="242.867"/>
</g>
<g fill="rgb(0%, 0%, 0%)" fill-opacity="1">
<use xlink:href="#glyph-1-0" x="367.9313" y="242.867"/>
</g>
<g fill="rgb(0%, 0%, 0%)" fill-opacity="1">
<use xlink:href="#glyph-0-1" x="370.69891" y="242.867"/>
</g>
<g fill="rgb(0%, 0%, 0%)" fill-opacity="1">
<use xlink:href="#glyph-0-4" x="392.583" y="228.155"/>
</g>
<g fill="rgb(0%, 0%, 0%)" fill-opacity="1">
<use xlink:href="#glyph-0-5" x="222.377" y="307.971"/>
</g>
<g fill="rgb(0%, 0%, 0%)" fill-opacity="1">
<use xlink:href="#glyph-0-2" x="184.096" y="294.589"/>
</g>
<g fill="rgb(0%, 0%, 0%)" fill-opacity="1">
<use xlink:href="#glyph-0-4" x="145.815" y="281.206"/>
</g>
<g fill="rgb(0%, 0%, 0%)" fill-opacity="1">
<use xlink:href="#glyph-0-6" x="107.534" y="267.824"/>
</g>
<g fill="rgb(0%, 0%, 0%)" fill-opacity="1">
<use xlink:href="#glyph-0-7" x="69.253" y="254.441"/>
</g>
<g fill="rgb(0%, 0%, 0%)" fill-opacity="1">
<use xlink:href="#glyph-0-0" x="28.037" y="241.774"/>
<use xlink:href="#glyph-0-5" x="33.0183" y="241.774"/>
</g>
<path fill="none" stroke-width="0.19925" stroke-linecap="butt" stroke-linejoin="miter" stroke="rgb(50%, 50%, 50%)" stroke-opacity="1" stroke-miterlimit="10" d="M -191.409969 203.184312 L -187.394344 201.781969 M -164.640437 216.473375 L -160.624812 215.071031 M -137.870906 229.762437 L -133.855281 228.360094 M -111.101375 243.055406 L -107.089656 241.653062 M -84.33575 256.344469 L -80.320125 254.942125 M -57.566219 269.633531 L -53.550594 268.231187 M -30.796687 282.9265 L -26.784969 281.524156 " transform="matrix(1, 0, 0, -1, 229.367, 285.114)"/>
<path fill="none" stroke-width="0.19925" stroke-linecap="butt" stroke-linejoin="miter" stroke="rgb(50%, 50%, 50%)" stroke-opacity="1" stroke-miterlimit="10" d="M 160.609563 216.012437 L 156.800969 214.121812 M 122.328313 229.39525 L 118.519719 227.504625 M 84.047063 242.778062 L 80.238469 240.887437 M 45.765813 256.160875 L 41.957219 254.27025 M 7.484563 269.543687 L 3.675969 267.653062 M -30.796687 282.9265 L -34.605281 281.035875 " transform="matrix(1, 0, 0, -1, 229.367, 285.114)"/>
<path fill="none" stroke-width="0.3985" stroke-linecap="butt" stroke-linejoin="miter" stroke="rgb(0%, 0%, 0%)" stroke-opacity="1" stroke-miterlimit="10" d="M -191.409969 203.184312 L -30.796687 282.9265 " transform="matrix(1, 0, 0, -1, 229.367, 285.114)"/>
<path fill="none" stroke-width="0.3985" stroke-linecap="butt" stroke-linejoin="miter" stroke="rgb(0%, 0%, 0%)" stroke-opacity="1" stroke-miterlimit="10" d="M 160.609563 216.012437 L -30.796687 282.9265 " transform="matrix(1, 0, 0, -1, 229.367, 285.114)"/>
<path fill="none" stroke-width="0.19925" stroke-linecap="butt" stroke-linejoin="miter" stroke="rgb(50%, 50%, 50%)" stroke-opacity="1" stroke-miterlimit="10" d="M 0.0001875 -12.389906 L 0.0001875 -8.136 M -38.281062 0.992906 L -38.281062 5.246812 M -76.562312 14.375719 L -76.562312 18.629625 M -114.843562 27.758531 L -114.843562 32.012437 M -153.124812 41.141344 L -153.124812 45.391344 M -191.409969 54.524156 L -191.409969 58.774156 " transform="matrix(1, 0, 0, -1, 229.367, 285.114)"/>
<path fill="none" stroke-width="0.19925" stroke-linecap="butt" stroke-linejoin="miter" stroke="rgb(50%, 50%, 50%)" stroke-opacity="1" stroke-miterlimit="10" d="M -191.409969 57.383531 L -187.394344 55.981187 M -191.409969 95.500719 L -187.394344 94.098375 M -191.409969 133.617906 L -187.394344 132.215562 M -191.409969 171.735094 L -187.394344 170.33275 " transform="matrix(1, 0, 0, -1, 229.367, 285.114)"/>
<path fill="none" stroke-width="0.3985" stroke-linecap="butt" stroke-linejoin="miter" stroke="rgb(0%, 0%, 0%)" stroke-opacity="1" stroke-miterlimit="10" d="M -191.409969 54.524156 L -191.409969 203.184312 " transform="matrix(1, 0, 0, -1, 229.367, 285.114)"/>
<g fill="rgb(0%, 0%, 0%)" fill-opacity="1">
<use xlink:href="#glyph-0-2" x="24.479" y="231.47"/>
<use xlink:href="#glyph-0-5" x="29.4603" y="231.47"/>
</g>
<g fill="rgb(0%, 0%, 0%)" fill-opacity="1">
<use xlink:href="#glyph-0-4" x="24.479" y="193.354"/>
<use xlink:href="#glyph-0-5" x="29.4603" y="193.354"/>
</g>
<g fill="rgb(0%, 0%, 0%)" fill-opacity="1">
<use xlink:href="#glyph-0-6" x="24.479" y="155.237"/>
<use xlink:href="#glyph-0-5" x="29.4603" y="155.237"/>
</g>
<g fill="rgb(0%, 0%, 0%)" fill-opacity="1">
<use xlink:href="#glyph-0-7" x="24.479" y="117.12"/>
<use xlink:href="#glyph-0-5" x="29.4603" y="117.12"/>
</g>
<path fill="none" stroke-width="0.19925" stroke-linecap="butt" stroke-linejoin="miter" stroke="rgb(50%, 50%, 50%)" stroke-opacity="1" stroke-miterlimit="10" d="M 160.609563 67.352281 L 160.609563 71.606187 M 122.328313 80.735094 L 122.328313 84.989 M 84.047063 94.117906 L 84.047063 98.371812 M 45.765813 107.500719 L 45.765813 111.750719 M 7.484563 120.883531 L 7.484563 125.133531 M -30.796687 134.266344 L -30.796687 138.516344 M 160.609563 216.012437 L 160.609563 211.762437 M 122.328313 229.39525 L 122.328313 225.14525 M 84.047063 242.778062 L 84.047063 238.524156 M 45.765813 256.160875 L 45.765813 251.906969 M 7.484563 269.543687 L 7.484563 265.289781 M -30.796687 282.9265 L -30.796687 278.672594 " transform="matrix(1, 0, 0, -1, 229.367, 285.114)"/>
<path fill="none" stroke-width="0.19925" stroke-linecap="butt" stroke-linejoin="miter" stroke="rgb(50%, 50%, 50%)" stroke-opacity="1" stroke-miterlimit="10" d="M 160.609563 70.211656 L 156.597844 71.614 M 160.609563 108.328844 L 156.597844 109.735094 M 160.609563 146.446031 L 156.597844 147.852281 M 160.609563 184.563219 L 156.597844 185.969469 M -30.796687 137.125719 L -26.784969 135.723375 M -30.796687 175.242906 L -26.784969 173.840562 M -30.796687 213.360094 L -26.784969 211.95775 M -30.796687 251.477281 L -26.784969 250.074937 " transform="matrix(1, 0, 0, -1, 229.367, 285.114)"/>
<path fill="none" stroke-width="0.3985" stroke-linecap="butt" stroke-linejoin="miter" stroke="rgb(0%, 0%, 0%)" stroke-opacity="1" stroke-miterlimit="10" d="M 160.609563 67.352281 L 160.609563 216.012437 " transform="matrix(1, 0, 0, -1, 229.367, 285.114)"/>
<path fill="none" stroke-width="0.3985" stroke-linecap="butt" stroke-linejoin="miter" stroke="rgb(0%, 0%, 0%)" stroke-opacity="1" stroke-miterlimit="10" d="M -30.796687 134.266344 L -30.796687 282.9265 " transform="matrix(1, 0, 0, -1, 229.367, 285.114)"/>
<path fill="none" stroke-width="0.19925" stroke-linecap="butt" stroke-linejoin="miter" stroke="rgb(50%, 50%, 50%)" stroke-opacity="1" stroke-miterlimit="10" d="M 0.0001875 -12.389906 L 0.0001875 -8.136 M 26.769719 0.903062 L 26.769719 5.153062 M 53.535344 14.192125 L 53.535344 18.442125 M 80.304875 27.481187 L 80.304875 31.735094 M 107.074406 40.774156 L 107.074406 45.024156 M 133.843938 54.063219 L 133.843938 58.313219 M 160.609563 67.352281 L 160.609563 71.606187 " transform="matrix(1, 0, 0, -1, 229.367, 285.114)"/>
<path fill="none" stroke-width="0.19925" stroke-linecap="butt" stroke-linejoin="miter" stroke="rgb(50%, 50%, 50%)" stroke-opacity="1" stroke-miterlimit="10" d="M 160.609563 70.211656 L 156.800969 68.321031 M 160.609563 108.328844 L 156.800969 106.438219 M 160.609563 146.446031 L 156.800969 144.555406 M 160.609563 184.563219 L 156.800969 182.672594 " transform="matrix(1, 0, 0, -1, 229.367, 285.114)"/>
<path fill="none" stroke-width="0.19925" stroke-linecap="butt" stroke-linejoin="miter" stroke="rgb(50%, 50%, 50%)" stroke-opacity="1" stroke-miterlimit="10" d="M -191.409969 54.524156 L -191.409969 58.774156 M -164.640437 67.813219 L -164.640437 72.067125 M -137.870906 81.106187 L -137.870906 85.356187 M -111.101375 94.39525 L -111.101375 98.64525 M -84.33575 107.684312 L -84.33575 111.938219 M -57.566219 120.977281 L -57.566219 125.227281 M -30.796687 134.266344 L -30.796687 138.516344 M -191.409969 203.184312 L -191.409969 198.930406 M -164.640437 216.473375 L -164.640437 212.223375 M -137.870906 229.762437 L -137.870906 225.512437 M -111.101375 243.055406 L -111.101375 238.8015 M -84.33575 256.344469 L -84.33575 252.094469 M -57.566219 269.633531 L -57.566219 265.383531 M -30.796687 282.9265 L -30.796687 278.672594 " transform="matrix(1, 0, 0, -1, 229.367, 285.114)"/>
<path fill="none" stroke-width="0.19925" stroke-linecap="butt" stroke-linejoin="miter" stroke="rgb(50%, 50%, 50%)" stroke-opacity="1" stroke-miterlimit="10" d="M -191.409969 57.383531 L -187.601375 59.274156 M -191.409969 95.500719 L -187.601375 97.391344 M -191.409969 133.617906 L -187.601375 135.508531 M -191.409969 171.735094 L -187.601375 173.625719 M -30.796687 137.125719 L -34.605281 135.235094 M -30.796687 175.242906 L -34.605281 173.352281 M -30.796687 213.360094 L -34.605281 211.469469 M -30.796687 251.477281 L -34.605281 249.586656 " transform="matrix(1, 0, 0, -1, 229.367, 285.114)"/>
<g clip-path="url(#clip-0)">
<g clip-path="url(#clip-1)">
<path fill-rule="nonzero" fill="rgb(20.13855%, 20.13855%, 20.13855%)" fill-opacity="0.8" d="M 198.570312 119.398438 L 217.710938 133.714844 L 164.171875 143.144531 L 145.03125 125.015625 Z M 198.570312 119.398438 "/>
</g>
</g>
<g clip-path="url(#clip-2)">
<g clip-path="url(#clip-3)">
<path fill="none" stroke-width="0.3985" stroke-linecap="butt" stroke-linejoin="miter" stroke="rgb(50%, 50%, 50%)" stroke-opacity="0.8" stroke-miterlimit="10" d="M -30.796687 165.715562 L -11.656062 151.399156 L -65.195125 141.969469 L -84.33575 160.098375 Z M -30.796687 165.715562 " transform="matrix(1, 0, 0, -1, 229.367, 285.114)"/>
</g>
</g>
<g clip-path="url(#clip-4)">
<g clip-path="url(#clip-5)">
<path fill-rule="nonzero" fill="rgb(13.555908%, 13.555908%, 13.555908%)" fill-opacity="0.8" d="M 217.710938 133.714844 L 236.851562 146.125 L 183.3125 157.457031 L 164.171875 143.144531 Z M 217.710938 133.714844 "/>
</g>
</g>
<g clip-path="url(#clip-6)">
<g clip-path="url(#clip-7)">
<path fill="none" stroke-width="0.3985" stroke-linecap="butt" stroke-linejoin="miter" stroke="rgb(50%, 50%, 50%)" stroke-opacity="0.8" stroke-miterlimit="10" d="M -11.656062 151.399156 L 7.484563 138.989 L -46.0545 127.656969 L -65.195125 141.969469 Z M -11.656062 151.399156 " transform="matrix(1, 0, 0, -1, 229.367, 285.114)"/>
</g>
</g>
<g clip-path="url(#clip-8)">
<g clip-path="url(#clip-9)">
<path fill-rule="nonzero" fill="rgb(8.518982%, 8.518982%, 8.518982%)" fill-opacity="0.8" d="M 236.851562 146.125 L 255.992188 156.628906 L 202.453125 171.773438 L 183.3125 157.457031 Z M 236.851562 146.125 "/>
</g>
</g>
<g clip-path="url(#clip-10)">
<g clip-path="url(#clip-11)">
<path fill="none" stroke-width="0.3985" stroke-linecap="butt" stroke-linejoin="miter" stroke="rgb(50%, 50%, 50%)" stroke-opacity="0.8" stroke-miterlimit="10" d="M 7.484563 138.989 L 26.625188 128.485094 L -26.913875 113.340562 L -46.0545 127.656969 Z M 7.484563 138.989 " transform="matrix(1, 0, 0, -1, 229.367, 285.114)"/>
</g>
</g>
<g clip-path="url(#clip-12)">
<g clip-path="url(#clip-13)">
<path fill-rule="nonzero" fill="rgb(4.647827%, 4.647827%, 4.647827%)" fill-opacity="0.8" d="M 255.992188 156.628906 L 275.132812 165.222656 L 221.597656 184.179688 L 202.453125 171.773438 Z M 255.992188 156.628906 "/>
</g>
</g>
<g clip-path="url(#clip-14)">
<g clip-path="url(#clip-15)">
<path fill="none" stroke-width="0.3985" stroke-linecap="butt" stroke-linejoin="miter" stroke="rgb(50%, 50%, 50%)" stroke-opacity="0.8" stroke-miterlimit="10" d="M 26.625188 128.485094 L 45.765813 119.891344 L -7.769344 100.934312 L -26.913875 113.340562 Z M 26.625188 128.485094 " transform="matrix(1, 0, 0, -1, 229.367, 285.114)"/>
</g>
</g>
<g clip-path="url(#clip-16)">
<g clip-path="url(#clip-17)">
<path fill-rule="nonzero" fill="rgb(2.709961%, 2.709961%, 2.709961%)" fill-opacity="0.8" d="M 275.132812 165.222656 L 294.273438 170.007812 L 240.738281 194.683594 L 221.597656 184.179688 Z M 275.132812 165.222656 "/>
</g>
</g>
<g clip-path="url(#clip-18)">
<g clip-path="url(#clip-19)">
<path fill="none" stroke-width="0.3985" stroke-linecap="butt" stroke-linejoin="miter" stroke="rgb(50%, 50%, 50%)" stroke-opacity="0.8" stroke-miterlimit="10" d="M 45.765813 119.891344 L 64.906438 115.106187 L 11.371281 90.430406 L -7.769344 100.934312 Z M 45.765813 119.891344 " transform="matrix(1, 0, 0, -1, 229.367, 285.114)"/>
</g>
</g>
<g clip-path="url(#clip-20)">
<g clip-path="url(#clip-21)">
<path fill-rule="nonzero" fill="rgb(2.709961%, 2.709961%, 2.709961%)" fill-opacity="0.8" d="M 294.273438 170.007812 L 313.414062 172.890625 L 259.878906 203.28125 L 240.738281 194.683594 Z M 294.273438 170.007812 "/>
</g>
</g>
<g clip-path="url(#clip-22)">
<g clip-path="url(#clip-23)">
<path fill="none" stroke-width="0.3985" stroke-linecap="butt" stroke-linejoin="miter" stroke="rgb(50%, 50%, 50%)" stroke-opacity="0.8" stroke-miterlimit="10" d="M 64.906438 115.106187 L 84.047063 112.223375 L 30.511906 81.83275 L 11.371281 90.430406 Z M 64.906438 115.106187 " transform="matrix(1, 0, 0, -1, 229.367, 285.114)"/>
</g>
</g>
<g clip-path="url(#clip-24)">
<g clip-path="url(#clip-25)">
<path fill-rule="nonzero" fill="rgb(3.872681%, 3.872681%, 3.872681%)" fill-opacity="0.8" d="M 313.414062 172.890625 L 332.554688 173.863281 L 279.019531 211.878906 L 259.878906 203.28125 Z M 313.414062 172.890625 "/>
</g>
</g>
<g clip-path="url(#clip-26)">
<g clip-path="url(#clip-27)">
<path fill="none" stroke-width="0.3985" stroke-linecap="butt" stroke-linejoin="miter" stroke="rgb(50%, 50%, 50%)" stroke-opacity="0.8" stroke-miterlimit="10" d="M 84.047063 112.223375 L 103.187688 111.250719 L 49.652531 73.235094 L 30.511906 81.83275 Z M 84.047063 112.223375 " transform="matrix(1, 0, 0, -1, 229.367, 285.114)"/>
</g>
</g>
<g clip-path="url(#clip-28)">
<g clip-path="url(#clip-29)">
<path fill-rule="nonzero" fill="rgb(6.971741%, 6.971741%, 6.971741%)" fill-opacity="0.8" d="M 332.554688 173.863281 L 351.695312 171.023438 L 298.160156 216.664062 L 279.019531 211.878906 Z M 332.554688 173.863281 "/>
</g>
</g>
<g clip-path="url(#clip-30)">
<g clip-path="url(#clip-31)">
<path fill="none" stroke-width="0.3985" stroke-linecap="butt" stroke-linejoin="miter" stroke="rgb(50%, 50%, 50%)" stroke-opacity="0.8" stroke-miterlimit="10" d="M 103.187688 111.250719 L 122.328313 114.090562 L 68.793156 68.449937 L 49.652531 73.235094 Z M 103.187688 111.250719 " transform="matrix(1, 0, 0, -1, 229.367, 285.114)"/>
</g>
</g>
<g clip-path="url(#clip-32)">
<g clip-path="url(#clip-33)">
<path fill-rule="nonzero" fill="rgb(12.005615%, 12.005615%, 12.005615%)" fill-opacity="0.8" d="M 351.695312 171.023438 L 370.835938 166.28125 L 317.300781 221.449219 L 298.160156 216.664062 Z M 351.695312 171.023438 "/>
</g>
</g>
<g clip-path="url(#clip-34)">
<g clip-path="url(#clip-35)">
<path fill="none" stroke-width="0.3985" stroke-linecap="butt" stroke-linejoin="miter" stroke="rgb(50%, 50%, 50%)" stroke-opacity="0.8" stroke-miterlimit="10" d="M 122.328313 114.090562 L 141.468938 118.83275 L 87.933781 63.664781 L 68.793156 68.449937 Z M 122.328313 114.090562 " transform="matrix(1, 0, 0, -1, 229.367, 285.114)"/>
</g>
</g>
<g clip-path="url(#clip-36)">
<g clip-path="url(#clip-37)">
<path fill-rule="nonzero" fill="rgb(18.97583%, 18.97583%, 18.97583%)" fill-opacity="0.8" d="M 370.835938 166.28125 L 389.976562 157.726562 L 336.441406 222.421875 L 317.300781 221.449219 Z M 370.835938 166.28125 "/>
</g>
</g>
<g clip-path="url(#clip-38)">
<g clip-path="url(#clip-39)">
<path fill="none" stroke-width="0.3985" stroke-linecap="butt" stroke-linejoin="miter" stroke="rgb(50%, 50%, 50%)" stroke-opacity="0.8" stroke-miterlimit="10" d="M 141.468938 118.83275 L 160.609563 127.387437 L 107.074406 62.692125 L 87.933781 63.664781 Z M 141.468938 118.83275 " transform="matrix(1, 0, 0, -1, 229.367, 285.114)"/>
</g>
</g>
<g clip-path="url(#clip-40)">
<g clip-path="url(#clip-41)">
<path fill-rule="nonzero" fill="rgb(37.954712%, 37.954712%, 37.954712%)" fill-opacity="0.8" d="M 145.03125 125.015625 L 164.171875 143.144531 L 110.636719 146.851562 L 91.496094 124.914062 Z M 145.03125 125.015625 "/>
</g>
</g>
<g clip-path="url(#clip-42)">
<g clip-path="url(#clip-43)">
<path fill="none" stroke-width="0.3985" stroke-linecap="butt" stroke-linejoin="miter" stroke="rgb(50%, 50%, 50%)" stroke-opacity="0.8" stroke-miterlimit="10" d="M -84.33575 160.098375 L -65.195125 141.969469 L -118.730281 138.262437 L -137.870906 160.199937 Z M -84.33575 160.098375 " transform="matrix(1, 0, 0, -1, 229.367, 285.114)"/>
</g>
</g>
<g clip-path="url(#clip-44)">
<g clip-path="url(#clip-45)">
<path fill-rule="nonzero" fill="rgb(28.659058%, 28.659058%, 28.659058%)" fill-opacity="0.8" d="M 164.171875 143.144531 L 183.3125 157.457031 L 129.777344 164.980469 L 110.636719 146.851562 Z M 164.171875 143.144531 "/>
</g>
</g>
<g clip-path="url(#clip-46)">
<g clip-path="url(#clip-47)">
<path fill="none" stroke-width="0.3985" stroke-linecap="butt" stroke-linejoin="miter" stroke="rgb(50%, 50%, 50%)" stroke-opacity="0.8" stroke-miterlimit="10" d="M -65.195125 141.969469 L -46.0545 127.656969 L -99.589656 120.133531 L -118.730281 138.262437 Z M -65.195125 141.969469 " transform="matrix(1, 0, 0, -1, 229.367, 285.114)"/>
</g>
</g>
<g clip-path="url(#clip-48)">
<g clip-path="url(#clip-49)">
<path fill-rule="nonzero" fill="rgb(20.913696%, 20.913696%, 20.913696%)" fill-opacity="0.8" d="M 183.3125 157.457031 L 202.453125 171.773438 L 148.917969 183.105469 L 129.777344 164.980469 Z M 183.3125 157.457031 "/>
</g>
</g>
<g clip-path="url(#clip-50)">
<g clip-path="url(#clip-51)">
<path fill="none" stroke-width="0.3985" stroke-linecap="butt" stroke-linejoin="miter" stroke="rgb(50%, 50%, 50%)" stroke-opacity="0.8" stroke-miterlimit="10" d="M -46.0545 127.656969 L -26.913875 113.340562 L -80.449031 102.008531 L -99.589656 120.133531 Z M -46.0545 127.656969 " transform="matrix(1, 0, 0, -1, 229.367, 285.114)"/>
</g>
</g>
<g clip-path="url(#clip-52)">
<g clip-path="url(#clip-53)">
<path fill-rule="nonzero" fill="rgb(14.329529%, 14.329529%, 14.329529%)" fill-opacity="0.8" d="M 202.453125 171.773438 L 221.597656 184.179688 L 168.058594 197.421875 L 148.917969 183.105469 Z M 202.453125 171.773438 "/>
</g>
</g>
<g clip-path="url(#clip-54)">
<g clip-path="url(#clip-55)">
<path fill="none" stroke-width="0.3985" stroke-linecap="butt" stroke-linejoin="miter" stroke="rgb(50%, 50%, 50%)" stroke-opacity="0.8" stroke-miterlimit="10" d="M -26.913875 113.340562 L -7.769344 100.934312 L -61.308406 87.692125 L -80.449031 102.008531 Z M -26.913875 113.340562 " transform="matrix(1, 0, 0, -1, 229.367, 285.114)"/>
</g>
</g>
<g clip-path="url(#clip-56)">
<g clip-path="url(#clip-57)">
<path fill-rule="nonzero" fill="rgb(9.295654%, 9.295654%, 9.295654%)" fill-opacity="0.8" d="M 221.597656 184.179688 L 240.738281 194.683594 L 187.199219 211.734375 L 168.058594 197.421875 Z M 221.597656 184.179688 "/>
</g>
</g>
<g clip-path="url(#clip-58)">
<g clip-path="url(#clip-59)">
<path fill="none" stroke-width="0.3985" stroke-linecap="butt" stroke-linejoin="miter" stroke="rgb(50%, 50%, 50%)" stroke-opacity="0.8" stroke-miterlimit="10" d="M -7.769344 100.934312 L 11.371281 90.430406 L -42.167781 73.379625 L -61.308406 87.692125 Z M -7.769344 100.934312 " transform="matrix(1, 0, 0, -1, 229.367, 285.114)"/>
</g>
</g>
<g clip-path="url(#clip-60)">
<g clip-path="url(#clip-61)">
<path fill-rule="nonzero" fill="rgb(5.419922%, 5.419922%, 5.419922%)" fill-opacity="0.8" d="M 240.738281 194.683594 L 259.878906 203.28125 L 206.339844 224.144531 L 187.199219 211.734375 Z M 240.738281 194.683594 "/>
</g>
</g>
<g clip-path="url(#clip-62)">
<g clip-path="url(#clip-63)">
<path fill="none" stroke-width="0.3985" stroke-linecap="butt" stroke-linejoin="miter" stroke="rgb(50%, 50%, 50%)" stroke-opacity="0.8" stroke-miterlimit="10" d="M 11.371281 90.430406 L 30.511906 81.83275 L -23.027156 60.969469 L -42.167781 73.379625 Z M 11.371281 90.430406 " transform="matrix(1, 0, 0, -1, 229.367, 285.114)"/>
</g>
</g>
<g clip-path="url(#clip-64)">
<g clip-path="url(#clip-65)">
<path fill-rule="nonzero" fill="rgb(2.709961%, 2.709961%, 2.709961%)" fill-opacity="0.8" d="M 259.878906 203.28125 L 279.019531 211.878906 L 225.480469 234.648438 L 206.339844 224.144531 Z M 259.878906 203.28125 "/>
</g>
</g>
<g clip-path="url(#clip-66)">
<g clip-path="url(#clip-67)">
<path fill="none" stroke-width="0.3985" stroke-linecap="butt" stroke-linejoin="miter" stroke="rgb(50%, 50%, 50%)" stroke-opacity="0.8" stroke-miterlimit="10" d="M 30.511906 81.83275 L 49.652531 73.235094 L -3.886531 50.465562 L -23.027156 60.969469 Z M 30.511906 81.83275 " transform="matrix(1, 0, 0, -1, 229.367, 285.114)"/>
</g>
</g>
<g clip-path="url(#clip-68)">
<g clip-path="url(#clip-69)">
<path fill-rule="nonzero" fill="rgb(1.548767%, 1.548767%, 1.548767%)" fill-opacity="0.8" d="M 279.019531 211.878906 L 298.160156 216.664062 L 244.621094 243.246094 L 225.480469 234.648438 Z M 279.019531 211.878906 "/>
</g>
</g>
<g clip-path="url(#clip-70)">
<g clip-path="url(#clip-71)">
<path fill="none" stroke-width="0.3985" stroke-linecap="butt" stroke-linejoin="miter" stroke="rgb(50%, 50%, 50%)" stroke-opacity="0.8" stroke-miterlimit="10" d="M 49.652531 73.235094 L 68.793156 68.449937 L 15.254094 41.867906 L -3.886531 50.465562 Z M 49.652531 73.235094 " transform="matrix(1, 0, 0, -1, 229.367, 285.114)"/>
</g>
</g>
<g clip-path="url(#clip-72)">
<g clip-path="url(#clip-73)">
<path fill-rule="nonzero" fill="rgb(1.548767%, 1.548767%, 1.548767%)" fill-opacity="0.8" d="M 298.160156 216.664062 L 317.300781 221.449219 L 263.761719 251.84375 L 244.621094 243.246094 Z M 298.160156 216.664062 "/>
</g>
</g>
<g clip-path="url(#clip-74)">
<g clip-path="url(#clip-75)">
<path fill="none" stroke-width="0.3985" stroke-linecap="butt" stroke-linejoin="miter" stroke="rgb(50%, 50%, 50%)" stroke-opacity="0.8" stroke-miterlimit="10" d="M 68.793156 68.449937 L 87.933781 63.664781 L 34.394719 33.27025 L 15.254094 41.867906 Z M 68.793156 68.449937 " transform="matrix(1, 0, 0, -1, 229.367, 285.114)"/>
</g>
</g>
<g clip-path="url(#clip-76)">
<g clip-path="url(#clip-77)">
<path fill-rule="nonzero" fill="rgb(3.097534%, 3.097534%, 3.097534%)" fill-opacity="0.8" d="M 317.300781 221.449219 L 336.441406 222.421875 L 282.902344 256.628906 L 263.761719 251.84375 Z M 317.300781 221.449219 "/>
</g>
</g>
<g clip-path="url(#clip-78)">
<g clip-path="url(#clip-79)">
<path fill="none" stroke-width="0.3985" stroke-linecap="butt" stroke-linejoin="miter" stroke="rgb(50%, 50%, 50%)" stroke-opacity="0.8" stroke-miterlimit="10" d="M 87.933781 63.664781 L 107.074406 62.692125 L 53.535344 28.485094 L 34.394719 33.27025 Z M 87.933781 63.664781 " transform="matrix(1, 0, 0, -1, 229.367, 285.114)"/>
</g>
</g>
<g clip-path="url(#clip-80)">
<g clip-path="url(#clip-81)">
<path fill-rule="nonzero" fill="rgb(69.329834%, 69.329834%, 69.329834%)" fill-opacity="0.8" d="M 91.496094 124.914062 L 110.636719 146.851562 L 57.101562 125.785156 L 37.957031 94.320312 Z M 91.496094 124.914062 "/>
</g>
</g>
<g clip-path="url(#clip-82)">
<g clip-path="url(#clip-83)">
<path fill="none" stroke-width="0.3985" stroke-linecap="butt" stroke-linejoin="miter" stroke="rgb(50%, 50%, 50%)" stroke-opacity="0.8" stroke-miterlimit="10" d="M -137.870906 160.199937 L -118.730281 138.262437 L -172.265437 159.328844 L -191.409969 190.793687 Z M -137.870906 160.199937 " transform="matrix(1, 0, 0, -1, 229.367, 285.114)"/>
</g>
</g>
<g clip-path="url(#clip-84)">
<g clip-path="url(#clip-85)">
<path fill-rule="nonzero" fill="rgb(54.60968%, 54.60968%, 54.60968%)" fill-opacity="0.8" d="M 110.636719 146.851562 L 129.777344 164.980469 L 76.242188 153.441406 L 57.101562 125.785156 Z M 110.636719 146.851562 "/>
</g>
</g>
<g clip-path="url(#clip-86)">
<g clip-path="url(#clip-87)">
<path fill="none" stroke-width="0.3985" stroke-linecap="butt" stroke-linejoin="miter" stroke="rgb(50%, 50%, 50%)" stroke-opacity="0.8" stroke-miterlimit="10" d="M -118.730281 138.262437 L -99.589656 120.133531 L -153.124812 131.672594 L -172.265437 159.328844 Z M -118.730281 138.262437 " transform="matrix(1, 0, 0, -1, 229.367, 285.114)"/>
</g>
</g>
<g clip-path="url(#clip-88)">
<g clip-path="url(#clip-89)">
<path fill-rule="nonzero" fill="rgb(41.828918%, 41.828918%, 41.828918%)" fill-opacity="0.8" d="M 129.777344 164.980469 L 148.917969 183.105469 L 95.382812 179.191406 L 76.242188 153.441406 Z M 129.777344 164.980469 "/>
</g>
</g>
<g clip-path="url(#clip-90)">
<g clip-path="url(#clip-91)">
<path fill="none" stroke-width="0.3985" stroke-linecap="butt" stroke-linejoin="miter" stroke="rgb(50%, 50%, 50%)" stroke-opacity="0.8" stroke-miterlimit="10" d="M -99.589656 120.133531 L -80.449031 102.008531 L -133.984187 105.922594 L -153.124812 131.672594 Z M -99.589656 120.133531 " transform="matrix(1, 0, 0, -1, 229.367, 285.114)"/>
</g>
</g>
<g clip-path="url(#clip-92)">
<g clip-path="url(#clip-93)">
<path fill-rule="nonzero" fill="rgb(30.982971%, 30.982971%, 30.982971%)" fill-opacity="0.8" d="M 148.917969 183.105469 L 168.058594 197.421875 L 114.523438 201.132812 L 95.382812 179.191406 Z M 148.917969 183.105469 "/>
</g>
</g>
<g clip-path="url(#clip-94)">
<g clip-path="url(#clip-95)">
<path fill="none" stroke-width="0.3985" stroke-linecap="butt" stroke-linejoin="miter" stroke="rgb(50%, 50%, 50%)" stroke-opacity="0.8" stroke-miterlimit="10" d="M -80.449031 102.008531 L -61.308406 87.692125 L -114.843562 83.981187 L -133.984187 105.922594 Z M -80.449031 102.008531 " transform="matrix(1, 0, 0, -1, 229.367, 285.114)"/>
</g>
</g>
<g clip-path="url(#clip-96)">
<g clip-path="url(#clip-97)">
<path fill-rule="nonzero" fill="rgb(22.07489%, 22.07489%, 22.07489%)" fill-opacity="0.8" d="M 168.058594 197.421875 L 187.199219 211.734375 L 133.664062 221.164062 L 114.523438 201.132812 Z M 168.058594 197.421875 "/>
</g>
</g>
<g clip-path="url(#clip-98)">
<g clip-path="url(#clip-99)">
<path fill="none" stroke-width="0.3985" stroke-linecap="butt" stroke-linejoin="miter" stroke="rgb(50%, 50%, 50%)" stroke-opacity="0.8" stroke-miterlimit="10" d="M -61.308406 87.692125 L -42.167781 73.379625 L -95.702937 63.949937 L -114.843562 83.981187 Z M -61.308406 87.692125 " transform="matrix(1, 0, 0, -1, 229.367, 285.114)"/>
</g>
</g>
<g clip-path="url(#clip-100)">
<g clip-path="url(#clip-101)">
<path fill-rule="nonzero" fill="rgb(14.329529%, 14.329529%, 14.329529%)" fill-opacity="0.8" d="M 187.199219 211.734375 L 206.339844 224.144531 L 152.804688 239.289062 L 133.664062 221.164062 Z M 187.199219 211.734375 "/>
</g>
</g>
<g clip-path="url(#clip-102)">
<g clip-path="url(#clip-103)">
<path fill="none" stroke-width="0.3985" stroke-linecap="butt" stroke-linejoin="miter" stroke="rgb(50%, 50%, 50%)" stroke-opacity="0.8" stroke-miterlimit="10" d="M -42.167781 73.379625 L -23.027156 60.969469 L -76.562312 45.824937 L -95.702937 63.949937 Z M -42.167781 73.379625 " transform="matrix(1, 0, 0, -1, 229.367, 285.114)"/>
</g>
</g>
<g clip-path="url(#clip-104)">
<g clip-path="url(#clip-105)">
<path fill-rule="nonzero" fill="rgb(8.518982%, 8.518982%, 8.518982%)" fill-opacity="0.8" d="M 206.339844 224.144531 L 225.480469 234.648438 L 171.945312 253.605469 L 152.804688 239.289062 Z M 206.339844 224.144531 "/>
</g>
</g>
<g clip-path="url(#clip-106)">
<g clip-path="url(#clip-107)">
<path fill="none" stroke-width="0.3985" stroke-linecap="butt" stroke-linejoin="miter" stroke="rgb(50%, 50%, 50%)" stroke-opacity="0.8" stroke-miterlimit="10" d="M -23.027156 60.969469 L -3.886531 50.465562 L -57.421687 31.508531 L -76.562312 45.824937 Z M -23.027156 60.969469 " transform="matrix(1, 0, 0, -1, 229.367, 285.114)"/>
</g>
</g>
<g clip-path="url(#clip-108)">
<g clip-path="url(#clip-109)">
<path fill-rule="nonzero" fill="rgb(4.647827%, 4.647827%, 4.647827%)" fill-opacity="0.8" d="M 225.480469 234.648438 L 244.621094 243.246094 L 191.085938 266.015625 L 171.945312 253.605469 Z M 225.480469 234.648438 "/>
</g>
</g>
<g clip-path="url(#clip-110)">
<g clip-path="url(#clip-111)">
<path fill="none" stroke-width="0.3985" stroke-linecap="butt" stroke-linejoin="miter" stroke="rgb(50%, 50%, 50%)" stroke-opacity="0.8" stroke-miterlimit="10" d="M -3.886531 50.465562 L 15.254094 41.867906 L -38.281062 19.098375 L -57.421687 31.508531 Z M -3.886531 50.465562 " transform="matrix(1, 0, 0, -1, 229.367, 285.114)"/>
</g>
</g>
<g clip-path="url(#clip-112)">
<g clip-path="url(#clip-113)">
<path fill-rule="nonzero" fill="rgb(1.934814%, 1.934814%, 1.934814%)" fill-opacity="0.8" d="M 244.621094 243.246094 L 263.761719 251.84375 L 210.226562 276.515625 L 191.085938 266.015625 Z M 244.621094 243.246094 "/>
</g>
</g>
<g clip-path="url(#clip-114)">
<g clip-path="url(#clip-115)">
<path fill="none" stroke-width="0.3985" stroke-linecap="butt" stroke-linejoin="miter" stroke="rgb(50%, 50%, 50%)" stroke-opacity="0.8" stroke-miterlimit="10" d="M 15.254094 41.867906 L 34.394719 33.27025 L -19.140437 8.598375 L -38.281062 19.098375 Z M 15.254094 41.867906 " transform="matrix(1, 0, 0, -1, 229.367, 285.114)"/>
</g>
</g>
<g clip-path="url(#clip-116)">
<g clip-path="url(#clip-117)">
<path fill-rule="nonzero" fill="rgb(0.773621%, 0.773621%, 0.773621%)" fill-opacity="0.8" d="M 263.761719 251.84375 L 282.902344 256.628906 L 229.367188 285.113281 L 210.226562 276.515625 Z M 263.761719 251.84375 "/>
</g>
</g>
<g clip-path="url(#clip-118)">
<g clip-path="url(#clip-119)">
<path fill="none" stroke-width="0.3985" stroke-linecap="butt" stroke-linejoin="miter" stroke="rgb(50%, 50%, 50%)" stroke-opacity="0.8" stroke-miterlimit="10" d="M 34.394719 33.27025 L 53.535344 28.485094 L 0.0001875 0.00071875 L -19.140437 8.598375 Z M 34.394719 33.27025 " transform="matrix(1, 0, 0, -1, 229.367, 285.114)"/>
</g>
</g>
<g fill="rgb(0%, 0%, 0%)" fill-opacity="1">
<use xlink:href="#glyph-2-0" x="325.237" y="286.216"/>
</g>
<g fill="rgb(0%, 0%, 0%)" fill-opacity="1">
<use xlink:href="#glyph-2-1" x="115.859" y="289.648"/>
</g>
<g fill="rgb(0%, 0%, 0%)" fill-opacity="1">
<use xlink:href="#glyph-3-0" x="14.279" y="174.088"/>
</g>
<g fill="rgb(0%, 0%, 0%)" fill-opacity="1">
<use xlink:href="#glyph-4-0" x="14.279" y="165.951291"/>
</g>
<g fill="rgb(0%, 0%, 0%)" fill-opacity="1">
<use xlink:href="#glyph-5-0" x="14.279" y="161.398751"/>
</g>
<g fill="rgb(0%, 0%, 0%)" fill-opacity="1">
<use xlink:href="#glyph-5-1" x="14.279" y="155.778611"/>
</g>
<g fill="rgb(0%, 0%, 0%)" fill-opacity="1">
<use xlink:href="#glyph-5-2" x="14.279" y="150.530278"/>
</g>
<g fill="rgb(0%, 0%, 0%)" fill-opacity="1">
<use xlink:href="#glyph-4-1" x="14.279" y="146.30292"/>
</g>
</svg>
