<?xml version="1.0" encoding="UTF-8"?>
<svg xmlns="http://www.w3.org/2000/svg" xmlns:xlink="http://www.w3.org/1999/xlink" width="338.545pt" height="301.663pt" viewBox="0 0 338.545 301.663">
<defs>
<g>
<g id="glyph-0-0">
<path d="M 4.578125 -3.1875 C 4.578125 -3.984375 4.53125 -4.78125 4.1875 -5.515625 C 3.734375 -6.484375 2.90625 -6.640625 2.5 -6.640625 C 1.890625 -6.640625 1.171875 -6.375 0.75 -5.453125 C 0.4375 -4.765625 0.390625 -3.984375 0.390625 -3.1875 C 0.390625 -2.4375 0.421875 -1.546875 0.84375 -0.78125 C 1.265625 0.015625 2 0.21875 2.484375 0.21875 C 3.015625 0.21875 3.78125 0.015625 4.21875 -0.9375 C 4.53125 -1.625 4.578125 -2.40625 4.578125 -3.1875 Z M 2.484375 0 C 2.09375 0 1.5 -0.25 1.328125 -1.203125 C 1.21875 -1.796875 1.21875 -2.71875 1.21875 -3.3125 C 1.21875 -3.953125 1.21875 -4.609375 1.296875 -5.140625 C 1.484375 -6.328125 2.234375 -6.421875 2.484375 -6.421875 C 2.8125 -6.421875 3.46875 -6.234375 3.65625 -5.25 C 3.765625 -4.6875 3.765625 -3.9375 3.765625 -3.3125 C 3.765625 -2.5625 3.765625 -1.890625 3.65625 -1.25 C 3.5 -0.296875 2.9375 0 2.484375 0 Z M 2.484375 0 "/>
</g>
<g id="glyph-0-1">
<path d="M 2.9375 -6.375 C 2.9375 -6.625 2.9375 -6.640625 2.703125 -6.640625 C 2.078125 -6 1.203125 -6 0.890625 -6 L 0.890625 -5.6875 C 1.09375 -5.6875 1.671875 -5.6875 2.1875 -5.953125 L 2.1875 -0.78125 C 2.1875 -0.421875 2.15625 -0.3125 1.265625 -0.3125 L 0.953125 -0.3125 L 0.953125 0 C 1.296875 -0.03125 2.15625 -0.03125 2.5625 -0.03125 C 2.953125 -0.03125 3.828125 -0.03125 4.171875 0 L 4.171875 -0.3125 L 3.859375 -0.3125 C 2.953125 -0.3125 2.9375 -0.421875 2.9375 -0.78125 Z M 2.9375 -6.375 "/>
</g>
<g id="glyph-0-2">
<path d="M 1.265625 -0.765625 L 2.328125 -1.796875 C 3.875 -3.171875 4.46875 -3.703125 4.46875 -4.703125 C 4.46875 -5.84375 3.578125 -6.640625 2.359375 -6.640625 C 1.234375 -6.640625 0.5 -5.71875 0.5 -4.828125 C 0.5 -4.28125 1 -4.28125 1.03125 -4.28125 C 1.203125 -4.28125 1.546875 -4.390625 1.546875 -4.8125 C 1.546875 -5.0625 1.359375 -5.328125 1.015625 -5.328125 C 0.9375 -5.328125 0.921875 -5.328125 0.890625 -5.3125 C 1.109375 -5.96875 1.65625 -6.328125 2.234375 -6.328125 C 3.140625 -6.328125 3.5625 -5.515625 3.5625 -4.703125 C 3.5625 -3.90625 3.078125 -3.125 2.515625 -2.5 L 0.609375 -0.375 C 0.5 -0.265625 0.5 -0.234375 0.5 0 L 4.203125 0 L 4.46875 -1.734375 L 4.234375 -1.734375 C 4.171875 -1.4375 4.109375 -1 4 -0.84375 C 3.9375 -0.765625 3.28125 -0.765625 3.0625 -0.765625 Z M 1.265625 -0.765625 "/>
</g>
<g id="glyph-0-3">
<path d="M 2.890625 -3.515625 C 3.703125 -3.78125 4.28125 -4.46875 4.28125 -5.265625 C 4.28125 -6.078125 3.40625 -6.640625 2.453125 -6.640625 C 1.453125 -6.640625 0.6875 -6.046875 0.6875 -5.28125 C 0.6875 -4.953125 0.90625 -4.765625 1.203125 -4.765625 C 1.5 -4.765625 1.703125 -4.984375 1.703125 -5.28125 C 1.703125 -5.765625 1.234375 -5.765625 1.09375 -5.765625 C 1.390625 -6.265625 2.046875 -6.390625 2.40625 -6.390625 C 2.828125 -6.390625 3.375 -6.171875 3.375 -5.28125 C 3.375 -5.15625 3.34375 -4.578125 3.09375 -4.140625 C 2.796875 -3.65625 2.453125 -3.625 2.203125 -3.625 C 2.125 -3.609375 1.890625 -3.59375 1.8125 -3.59375 C 1.734375 -3.578125 1.671875 -3.5625 1.671875 -3.46875 C 1.671875 -3.359375 1.734375 -3.359375 1.90625 -3.359375 L 2.34375 -3.359375 C 3.15625 -3.359375 3.53125 -2.6875 3.53125 -1.703125 C 3.53125 -0.34375 2.84375 -0.0625 2.40625 -0.0625 C 1.96875 -0.0625 1.21875 -0.234375 0.875 -0.8125 C 1.21875 -0.765625 1.53125 -0.984375 1.53125 -1.359375 C 1.53125 -1.71875 1.265625 -1.921875 0.984375 -1.921875 C 0.734375 -1.921875 0.421875 -1.78125 0.421875 -1.34375 C 0.421875 -0.4375 1.34375 0.21875 2.4375 0.21875 C 3.65625 0.21875 4.5625 -0.6875 4.5625 -1.703125 C 4.5625 -2.515625 3.921875 -3.296875 2.890625 -3.515625 Z M 2.890625 -3.515625 "/>
</g>
<g id="glyph-0-4">
<path d="M 2.9375 -1.640625 L 2.9375 -0.78125 C 2.9375 -0.421875 2.90625 -0.3125 2.171875 -0.3125 L 1.96875 -0.3125 L 1.96875 0 C 2.375 -0.03125 2.890625 -0.03125 3.3125 -0.03125 C 3.734375 -0.03125 4.25 -0.03125 4.671875 0 L 4.671875 -0.3125 L 4.453125 -0.3125 C 3.71875 -0.3125 3.703125 -0.421875 3.703125 -0.78125 L 3.703125 -1.640625 L 4.6875 -1.640625 L 4.6875 -1.953125 L 3.703125 -1.953125 L 3.703125 -6.484375 C 3.703125 -6.6875 3.703125 -6.75 3.53125 -6.75 C 3.453125 -6.75 3.421875 -6.75 3.34375 -6.625 L 0.28125 -1.953125 L 0.28125 -1.640625 Z M 2.984375 -1.953125 L 0.5625 -1.953125 L 2.984375 -5.671875 Z M 2.984375 -1.953125 "/>
</g>
<g id="glyph-0-5">
<path d="M 4.46875 -2 C 4.46875 -3.1875 3.65625 -4.1875 2.578125 -4.1875 C 2.109375 -4.1875 1.671875 -4.03125 1.3125 -3.671875 L 1.3125 -5.625 C 1.515625 -5.5625 1.84375 -5.5 2.15625 -5.5 C 3.390625 -5.5 4.09375 -6.40625 4.09375 -6.53125 C 4.09375 -6.59375 4.0625 -6.640625 3.984375 -6.640625 C 3.984375 -6.640625 3.953125 -6.640625 3.90625 -6.609375 C 3.703125 -6.515625 3.21875 -6.3125 2.546875 -6.3125 C 2.15625 -6.3125 1.6875 -6.390625 1.21875 -6.59375 C 1.140625 -6.625 1.125 -6.625 1.109375 -6.625 C 1 -6.625 1 -6.546875 1 -6.390625 L 1 -3.4375 C 1 -3.265625 1 -3.1875 1.140625 -3.1875 C 1.21875 -3.1875 1.234375 -3.203125 1.28125 -3.265625 C 1.390625 -3.421875 1.75 -3.96875 2.5625 -3.96875 C 3.078125 -3.96875 3.328125 -3.515625 3.40625 -3.328125 C 3.5625 -2.953125 3.59375 -2.578125 3.59375 -2.078125 C 3.59375 -1.71875 3.59375 -1.125 3.34375 -0.703125 C 3.109375 -0.3125 2.734375 -0.0625 2.28125 -0.0625 C 1.5625 -0.0625 0.984375 -0.59375 0.8125 -1.171875 C 0.84375 -1.171875 0.875 -1.15625 0.984375 -1.15625 C 1.3125 -1.15625 1.484375 -1.40625 1.484375 -1.640625 C 1.484375 -1.890625 1.3125 -2.140625 0.984375 -2.140625 C 0.84375 -2.140625 0.5 -2.0625 0.5 -1.609375 C 0.5 -0.75 1.1875 0.21875 2.296875 0.21875 C 3.453125 0.21875 4.46875 -0.734375 4.46875 -2 Z M 4.46875 -2 "/>
</g>
<g id="glyph-0-6">
<path d="M 1.3125 -3.265625 L 1.3125 -3.515625 C 1.3125 -6.03125 2.546875 -6.390625 3.0625 -6.390625 C 3.296875 -6.390625 3.71875 -6.328125 3.9375 -5.984375 C 3.78125 -5.984375 3.390625 -5.984375 3.390625 -5.546875 C 3.390625 -5.234375 3.625 -5.078125 3.84375 -5.078125 C 4 -5.078125 4.3125 -5.171875 4.3125 -5.5625 C 4.3125 -6.15625 3.875 -6.640625 3.046875 -6.640625 C 1.765625 -6.640625 0.421875 -5.359375 0.421875 -3.15625 C 0.421875 -0.484375 1.578125 0.21875 2.5 0.21875 C 3.609375 0.21875 4.5625 -0.71875 4.5625 -2.03125 C 4.5625 -3.296875 3.671875 -4.25 2.5625 -4.25 C 1.890625 -4.25 1.515625 -3.75 1.3125 -3.265625 Z M 2.5 -0.0625 C 1.875 -0.0625 1.578125 -0.65625 1.515625 -0.8125 C 1.328125 -1.28125 1.328125 -2.078125 1.328125 -2.25 C 1.328125 -3.03125 1.65625 -4.03125 2.546875 -4.03125 C 2.71875 -4.03125 3.171875 -4.03125 3.484375 -3.40625 C 3.65625 -3.046875 3.65625 -2.53125 3.65625 -2.046875 C 3.65625 -1.5625 3.65625 -1.0625 3.484375 -0.703125 C 3.1875 -0.109375 2.734375 -0.0625 2.5 -0.0625 Z M 2.5 -0.0625 "/>
</g>
<g id="glyph-0-7">
<path d="M 4.75 -6.078125 C 4.828125 -6.1875 4.828125 -6.203125 4.828125 -6.421875 L 2.40625 -6.421875 C 1.203125 -6.421875 1.171875 -6.546875 1.140625 -6.734375 L 0.890625 -6.734375 L 0.5625 -4.6875 L 0.8125 -4.6875 C 0.84375 -4.84375 0.921875 -5.46875 1.0625 -5.59375 C 1.125 -5.65625 1.90625 -5.65625 2.03125 -5.65625 L 4.09375 -5.65625 C 3.984375 -5.5 3.203125 -4.40625 2.984375 -4.078125 C 2.078125 -2.734375 1.75 -1.34375 1.75 -0.328125 C 1.75 -0.234375 1.75 0.21875 2.21875 0.21875 C 2.671875 0.21875 2.671875 -0.234375 2.671875 -0.328125 L 2.671875 -0.84375 C 2.671875 -1.390625 2.703125 -1.9375 2.78125 -2.46875 C 2.828125 -2.703125 2.953125 -3.5625 3.40625 -4.171875 Z M 4.75 -6.078125 "/>
</g>
<g id="glyph-0-8">
<path d="M 1.625 -4.5625 C 1.171875 -4.859375 1.125 -5.1875 1.125 -5.359375 C 1.125 -5.96875 1.78125 -6.390625 2.484375 -6.390625 C 3.203125 -6.390625 3.84375 -5.875 3.84375 -5.15625 C 3.84375 -4.578125 3.453125 -4.109375 2.859375 -3.765625 Z M 3.078125 -3.609375 C 3.796875 -3.984375 4.28125 -4.5 4.28125 -5.15625 C 4.28125 -6.078125 3.40625 -6.640625 2.5 -6.640625 C 1.5 -6.640625 0.6875 -5.90625 0.6875 -4.96875 C 0.6875 -4.796875 0.703125 -4.34375 1.125 -3.875 C 1.234375 -3.765625 1.609375 -3.515625 1.859375 -3.34375 C 1.28125 -3.046875 0.421875 -2.5 0.421875 -1.5 C 0.421875 -0.453125 1.4375 0.21875 2.484375 0.21875 C 3.609375 0.21875 4.5625 -0.609375 4.5625 -1.671875 C 4.5625 -2.03125 4.453125 -2.484375 4.0625 -2.90625 C 3.875 -3.109375 3.71875 -3.203125 3.078125 -3.609375 Z M 2.078125 -3.1875 L 3.3125 -2.40625 C 3.59375 -2.21875 4.0625 -1.921875 4.0625 -1.3125 C 4.0625 -0.578125 3.3125 -0.0625 2.5 -0.0625 C 1.640625 -0.0625 0.921875 -0.671875 0.921875 -1.5 C 0.921875 -2.078125 1.234375 -2.71875 2.078125 -3.1875 Z M 2.078125 -3.1875 "/>
</g>
<g id="glyph-0-9">
<path d="M 3.65625 -3.171875 L 3.65625 -2.84375 C 3.65625 -0.515625 2.625 -0.0625 2.046875 -0.0625 C 1.875 -0.0625 1.328125 -0.078125 1.0625 -0.421875 C 1.5 -0.421875 1.578125 -0.703125 1.578125 -0.875 C 1.578125 -1.1875 1.34375 -1.328125 1.125 -1.328125 C 0.96875 -1.328125 0.671875 -1.25 0.671875 -0.859375 C 0.671875 -0.1875 1.203125 0.21875 2.046875 0.21875 C 3.34375 0.21875 4.5625 -1.140625 4.5625 -3.28125 C 4.5625 -5.96875 3.40625 -6.640625 2.515625 -6.640625 C 1.96875 -6.640625 1.484375 -6.453125 1.0625 -6.015625 C 0.640625 -5.5625 0.421875 -5.140625 0.421875 -4.390625 C 0.421875 -3.15625 1.296875 -2.171875 2.40625 -2.171875 C 3.015625 -2.171875 3.421875 -2.59375 3.65625 -3.171875 Z M 2.421875 -2.40625 C 2.265625 -2.40625 1.796875 -2.40625 1.5 -3.03125 C 1.3125 -3.40625 1.3125 -3.890625 1.3125 -4.390625 C 1.3125 -4.921875 1.3125 -5.390625 1.53125 -5.765625 C 1.796875 -6.265625 2.171875 -6.390625 2.515625 -6.390625 C 2.984375 -6.390625 3.3125 -6.046875 3.484375 -5.609375 C 3.59375 -5.28125 3.640625 -4.65625 3.640625 -4.203125 C 3.640625 -3.375 3.296875 -2.40625 2.421875 -2.40625 Z M 2.421875 -2.40625 "/>
</g>
<g id="glyph-0-10">
<path d="M 6.84375 -3.265625 C 7 -3.265625 7.1875 -3.265625 7.1875 -3.453125 C 7.1875 -3.65625 7 -3.65625 6.859375 -3.65625 L 0.890625 -3.65625 C 0.75 -3.65625 0.5625 -3.65625 0.5625 -3.453125 C 0.5625 -3.265625 0.75 -3.265625 0.890625 -3.265625 Z M 6.859375 -1.328125 C 7 -1.328125 7.1875 -1.328125 7.1875 -1.53125 C 7.1875 -1.71875 7 -1.71875 6.84375 -1.71875 L 0.890625 -1.71875 C 0.75 -1.71875 0.5625 -1.71875 0.5625 -1.53125 C 0.5625 -1.328125 0.75 -1.328125 0.890625 -1.328125 Z M 6.859375 -1.328125 "/>
</g>
<g id="glyph-0-11">
<path d="M 1.765625 -6.921875 L 0.328125 -6.8125 L 0.328125 -6.5 C 1.03125 -6.5 1.109375 -6.4375 1.109375 -5.9375 L 1.109375 -0.75 C 1.109375 -0.3125 1 -0.3125 0.328125 -0.3125 L 0.328125 0 C 0.65625 -0.015625 1.1875 -0.03125 1.4375 -0.03125 C 1.6875 -0.03125 2.171875 -0.015625 2.546875 0 L 2.546875 -0.3125 C 1.875 -0.3125 1.765625 -0.3125 1.765625 -0.75 Z M 1.765625 -6.921875 "/>
</g>
<g id="glyph-0-12">
<path d="M 1.09375 -3.421875 L 1.09375 -0.75 C 1.09375 -0.3125 0.984375 -0.3125 0.3125 -0.3125 L 0.3125 0 C 0.671875 -0.015625 1.171875 -0.03125 1.453125 -0.03125 C 1.703125 -0.03125 2.21875 -0.015625 2.5625 0 L 2.5625 -0.3125 C 1.890625 -0.3125 1.78125 -0.3125 1.78125 -0.75 L 1.78125 -2.59375 C 1.78125 -3.625 2.5 -4.1875 3.125 -4.1875 C 3.765625 -4.1875 3.875 -3.65625 3.875 -3.078125 L 3.875 -0.75 C 3.875 -0.3125 3.765625 -0.3125 3.09375 -0.3125 L 3.09375 0 C 3.4375 -0.015625 3.953125 -0.03125 4.21875 -0.03125 C 4.46875 -0.03125 5 -0.015625 5.328125 0 L 5.328125 -0.3125 C 4.8125 -0.3125 4.5625 -0.3125 4.5625 -0.609375 L 4.5625 -2.515625 C 4.5625 -3.375 4.5625 -3.671875 4.25 -4.03125 C 4.109375 -4.203125 3.78125 -4.40625 3.203125 -4.40625 C 2.46875 -4.40625 2 -3.984375 1.71875 -3.359375 L 1.71875 -4.40625 L 0.3125 -4.296875 L 0.3125 -3.984375 C 1.015625 -3.984375 1.09375 -3.921875 1.09375 -3.421875 Z M 1.09375 -3.421875 "/>
</g>
<g id="glyph-0-13">
<path d="M 3.296875 2.390625 C 3.296875 2.359375 3.296875 2.34375 3.125 2.171875 C 1.890625 0.921875 1.5625 -0.96875 1.5625 -2.5 C 1.5625 -4.234375 1.9375 -5.96875 3.171875 -7.203125 C 3.296875 -7.328125 3.296875 -7.34375 3.296875 -7.375 C 3.296875 -7.453125 3.265625 -7.484375 3.203125 -7.484375 C 3.09375 -7.484375 2.203125 -6.796875 1.609375 -5.53125 C 1.109375 -4.4375 0.984375 -3.328125 0.984375 -2.5 C 0.984375 -1.71875 1.09375 -0.515625 1.640625 0.625 C 2.25 1.84375 3.09375 2.5 3.203125 2.5 C 3.265625 2.5 3.296875 2.46875 3.296875 2.390625 Z M 3.296875 2.390625 "/>
</g>
<g id="glyph-0-14">
<path d="M 2.875 -2.5 C 2.875 -3.265625 2.765625 -4.46875 2.21875 -5.609375 C 1.625 -6.828125 0.765625 -7.484375 0.671875 -7.484375 C 0.609375 -7.484375 0.5625 -7.4375 0.5625 -7.375 C 0.5625 -7.34375 0.5625 -7.328125 0.75 -7.140625 C 1.734375 -6.15625 2.296875 -4.578125 2.296875 -2.5 C 2.296875 -0.78125 1.9375 0.96875 0.703125 2.21875 C 0.5625 2.34375 0.5625 2.359375 0.5625 2.390625 C 0.5625 2.453125 0.609375 2.5 0.671875 2.5 C 0.765625 2.5 1.671875 1.8125 2.25 0.546875 C 2.765625 -0.546875 2.875 -1.65625 2.875 -2.5 Z M 2.875 -2.5 "/>
</g>
<g id="glyph-1-0">
<path d="M 0.875 -0.59375 C 0.84375 -0.4375 0.78125 -0.203125 0.78125 -0.15625 C 0.78125 0.015625 0.921875 0.109375 1.078125 0.109375 C 1.203125 0.109375 1.375 0.03125 1.453125 -0.171875 C 1.453125 -0.1875 1.578125 -0.65625 1.640625 -0.90625 L 1.859375 -1.796875 C 1.90625 -2.03125 1.96875 -2.25 2.03125 -2.46875 C 2.0625 -2.640625 2.140625 -2.9375 2.15625 -2.96875 C 2.296875 -3.28125 2.828125 -4.1875 3.78125 -4.1875 C 4.234375 -4.1875 4.3125 -3.8125 4.3125 -3.484375 C 4.3125 -2.875 3.828125 -1.59375 3.671875 -1.171875 C 3.578125 -0.9375 3.5625 -0.8125 3.5625 -0.703125 C 3.5625 -0.234375 3.921875 0.109375 4.390625 0.109375 C 5.328125 0.109375 5.6875 -1.34375 5.6875 -1.421875 C 5.6875 -1.53125 5.609375 -1.53125 5.578125 -1.53125 C 5.46875 -1.53125 5.46875 -1.5 5.421875 -1.34375 C 5.21875 -0.671875 4.890625 -0.109375 4.40625 -0.109375 C 4.234375 -0.109375 4.171875 -0.203125 4.171875 -0.4375 C 4.171875 -0.6875 4.25 -0.921875 4.34375 -1.140625 C 4.53125 -1.671875 4.953125 -2.765625 4.953125 -3.34375 C 4.953125 -4 4.53125 -4.40625 3.8125 -4.40625 C 2.90625 -4.40625 2.421875 -3.765625 2.25 -3.53125 C 2.203125 -4.09375 1.796875 -4.40625 1.328125 -4.40625 C 0.875 -4.40625 0.6875 -4.015625 0.59375 -3.84375 C 0.421875 -3.5 0.296875 -2.90625 0.296875 -2.875 C 0.296875 -2.765625 0.390625 -2.765625 0.40625 -2.765625 C 0.515625 -2.765625 0.515625 -2.78125 0.578125 -3 C 0.75 -3.703125 0.953125 -4.1875 1.3125 -4.1875 C 1.5 -4.1875 1.609375 -4.0625 1.609375 -3.734375 C 1.609375 -3.515625 1.578125 -3.40625 1.453125 -2.890625 Z M 0.875 -0.59375 "/>
</g>
<g id="glyph-1-1">
<path d="M 7.609375 -6.046875 C 7.703125 -6.40625 7.71875 -6.5 8.4375 -6.5 C 8.703125 -6.5 8.78125 -6.5 8.78125 -6.703125 C 8.78125 -6.8125 8.671875 -6.8125 8.640625 -6.8125 C 8.359375 -6.8125 7.640625 -6.78125 7.359375 -6.78125 C 7.078125 -6.78125 6.375 -6.8125 6.078125 -6.8125 C 6 -6.8125 5.890625 -6.8125 5.890625 -6.609375 C 5.890625 -6.5 5.984375 -6.5 6.171875 -6.5 C 6.1875 -6.5 6.375 -6.5 6.546875 -6.484375 C 6.734375 -6.453125 6.8125 -6.453125 6.8125 -6.3125 C 6.8125 -6.28125 6.8125 -6.265625 6.78125 -6.125 L 6.1875 -3.703125 L 3.140625 -3.703125 L 3.734375 -6.046875 C 3.8125 -6.40625 3.84375 -6.5 4.5625 -6.5 C 4.828125 -6.5 4.90625 -6.5 4.90625 -6.703125 C 4.90625 -6.8125 4.796875 -6.8125 4.765625 -6.8125 C 4.484375 -6.8125 3.765625 -6.78125 3.484375 -6.78125 C 3.203125 -6.78125 2.5 -6.8125 2.203125 -6.8125 C 2.125 -6.8125 2.015625 -6.8125 2.015625 -6.609375 C 2.015625 -6.5 2.109375 -6.5 2.296875 -6.5 C 2.3125 -6.5 2.5 -6.5 2.671875 -6.484375 C 2.84375 -6.453125 2.9375 -6.453125 2.9375 -6.3125 C 2.9375 -6.28125 2.9375 -6.25 2.90625 -6.125 L 1.5625 -0.78125 C 1.46875 -0.390625 1.453125 -0.3125 0.65625 -0.3125 C 0.484375 -0.3125 0.390625 -0.3125 0.390625 -0.109375 C 0.390625 0 0.515625 0 0.53125 0 C 0.8125 0 1.515625 -0.03125 1.796875 -0.03125 C 2 -0.03125 2.21875 -0.015625 2.4375 -0.015625 C 2.65625 -0.015625 2.875 0 3.078125 0 C 3.15625 0 3.28125 0 3.28125 -0.203125 C 3.28125 -0.3125 3.1875 -0.3125 3 -0.3125 C 2.625 -0.3125 2.359375 -0.3125 2.359375 -0.484375 C 2.359375 -0.546875 2.375 -0.59375 2.375 -0.65625 L 3.0625 -3.390625 L 6.09375 -3.390625 C 5.6875 -1.734375 5.453125 -0.78125 5.40625 -0.640625 C 5.3125 -0.3125 5.125 -0.3125 4.5 -0.3125 C 4.359375 -0.3125 4.265625 -0.3125 4.265625 -0.109375 C 4.265625 0 4.390625 0 4.40625 0 C 4.6875 0 5.390625 -0.03125 5.671875 -0.03125 C 5.875 -0.03125 6.09375 -0.015625 6.3125 -0.015625 C 6.53125 -0.015625 6.75 0 6.953125 0 C 7.03125 0 7.15625 0 7.15625 -0.203125 C 7.15625 -0.3125 7.0625 -0.3125 6.875 -0.3125 C 6.515625 -0.3125 6.234375 -0.3125 6.234375 -0.484375 C 6.234375 -0.546875 6.25 -0.59375 6.265625 -0.65625 Z M 7.609375 -6.046875 "/>
</g>
<g id="glyph-2-0">
<path d="M -3.796875 -4.84375 C -3.9375 -4.890625 -3.953125 -4.890625 -4.03125 -4.890625 C -4.203125 -4.890625 -4.296875 -4.75 -4.296875 -4.59375 C -4.296875 -4.5 -4.234375 -4.34375 -4.09375 -4.25 C -4.03125 -4.234375 -3.734375 -4.140625 -3.546875 -4.109375 C -3.296875 -4.03125 -3.015625 -3.96875 -2.75 -3.90625 L -0.953125 -3.453125 C -0.8125 -3.421875 -0.109375 -2.984375 -0.109375 -2.328125 C -0.109375 -1.828125 -0.546875 -1.71875 -0.921875 -1.71875 C -1.375 -1.71875 -2 -1.890625 -2.875 -2.21875 C -3.28125 -2.375 -3.390625 -2.421875 -3.59375 -2.421875 C -4.03125 -2.421875 -4.40625 -2.109375 -4.40625 -1.609375 C -4.40625 -0.65625 -2.953125 -0.296875 -2.875 -0.296875 C -2.765625 -0.296875 -2.765625 -0.390625 -2.765625 -0.40625 C -2.765625 -0.515625 -2.796875 -0.515625 -2.953125 -0.5625 C -3.890625 -0.84375 -4.1875 -1.234375 -4.1875 -1.578125 C -4.1875 -1.65625 -4.1875 -1.828125 -3.875 -1.828125 C -3.625 -1.828125 -3.359375 -1.71875 -3.171875 -1.65625 C -2.109375 -1.25 -1.546875 -1.078125 -1.078125 -1.078125 C -0.1875 -1.078125 0.109375 -1.703125 0.109375 -2.296875 C 0.109375 -2.6875 -0.0625 -3.015625 -0.34375 -3.296875 C 0.171875 -3.171875 0.671875 -3.046875 1.203125 -2.65625 C 1.53125 -2.390625 1.828125 -2.015625 1.828125 -1.5625 C 1.828125 -1.421875 1.796875 -0.96875 1.40625 -0.796875 C 1.40625 -0.953125 1.40625 -1.09375 1.28125 -1.21875 C 1.203125 -1.328125 1.0625 -1.421875 0.875 -1.421875 C 0.5625 -1.421875 0.53125 -1.15625 0.53125 -1.0625 C 0.53125 -0.828125 0.6875 -0.5 1.171875 -0.5 C 1.671875 -0.5 2.046875 -0.9375 2.046875 -1.5625 C 2.046875 -2.578125 1.140625 -3.609375 0.015625 -3.890625 Z M -3.796875 -4.84375 "/>
</g>
<g id="glyph-3-0">
<path d="M 0.84375 -0.4375 C 0.828125 -0.34375 0.78125 -0.171875 0.78125 -0.15625 C 0.78125 0 0.90625 0.0625 1.015625 0.0625 C 1.140625 0.0625 1.25 -0.015625 1.296875 -0.078125 C 1.328125 -0.140625 1.375 -0.375 1.421875 -0.515625 C 1.453125 -0.640625 1.53125 -0.96875 1.5625 -1.140625 C 1.609375 -1.296875 1.65625 -1.453125 1.6875 -1.609375 C 1.765625 -1.890625 1.78125 -1.953125 1.984375 -2.234375 C 2.171875 -2.515625 2.5 -2.875 3.03125 -2.875 C 3.421875 -2.875 3.4375 -2.515625 3.4375 -2.390625 C 3.4375 -1.96875 3.140625 -1.203125 3.03125 -0.90625 C 2.953125 -0.703125 2.921875 -0.640625 2.921875 -0.53125 C 2.921875 -0.15625 3.21875 0.0625 3.578125 0.0625 C 4.28125 0.0625 4.578125 -0.890625 4.578125 -1 C 4.578125 -1.09375 4.5 -1.09375 4.46875 -1.09375 C 4.375 -1.09375 4.375 -1.046875 4.34375 -0.96875 C 4.1875 -0.40625 3.875 -0.125 3.609375 -0.125 C 3.453125 -0.125 3.421875 -0.21875 3.421875 -0.375 C 3.421875 -0.53125 3.46875 -0.625 3.59375 -0.9375 C 3.671875 -1.15625 3.953125 -1.890625 3.953125 -2.28125 C 3.953125 -2.953125 3.421875 -3.078125 3.046875 -3.078125 C 2.46875 -3.078125 2.078125 -2.71875 1.875 -2.4375 C 1.828125 -2.921875 1.421875 -3.078125 1.125 -3.078125 C 0.828125 -3.078125 0.671875 -2.859375 0.578125 -2.703125 C 0.421875 -2.4375 0.328125 -2.046875 0.328125 -2 C 0.328125 -1.921875 0.421875 -1.921875 0.453125 -1.921875 C 0.546875 -1.921875 0.546875 -1.9375 0.59375 -2.125 C 0.703125 -2.53125 0.84375 -2.875 1.109375 -2.875 C 1.296875 -2.875 1.34375 -2.71875 1.34375 -2.53125 C 1.34375 -2.40625 1.28125 -2.140625 1.21875 -1.953125 C 1.171875 -1.765625 1.109375 -1.484375 1.078125 -1.328125 Z M 0.84375 -0.4375 "/>
</g>
<g id="glyph-3-1">
<path d="M 2.1875 -4.625 C 2.1875 -4.640625 2.203125 -4.734375 2.203125 -4.734375 C 2.203125 -4.78125 2.1875 -4.84375 2.09375 -4.84375 C 1.953125 -4.84375 1.375 -4.78125 1.203125 -4.765625 C 1.15625 -4.765625 1.046875 -4.75 1.046875 -4.609375 C 1.046875 -4.515625 1.15625 -4.515625 1.234375 -4.515625 C 1.5625 -4.515625 1.5625 -4.453125 1.5625 -4.40625 C 1.5625 -4.359375 1.546875 -4.3125 1.546875 -4.25 L 0.5625 -0.3125 C 0.515625 -0.1875 0.515625 -0.171875 0.515625 -0.15625 C 0.515625 -0.046875 0.609375 0.0625 0.765625 0.0625 C 0.953125 0.0625 1.03125 -0.0625 1.078125 -0.21875 C 1.09375 -0.25 1.390625 -1.484375 1.421875 -1.578125 C 1.921875 -1.53125 2.3125 -1.359375 2.3125 -1 C 2.3125 -0.96875 2.3125 -0.9375 2.296875 -0.859375 C 2.265625 -0.765625 2.265625 -0.71875 2.265625 -0.640625 C 2.265625 -0.15625 2.671875 0.0625 3.015625 0.0625 C 3.6875 0.0625 3.890625 -0.984375 3.890625 -1 C 3.890625 -1.09375 3.8125 -1.09375 3.78125 -1.09375 C 3.6875 -1.09375 3.671875 -1.046875 3.640625 -0.921875 C 3.5625 -0.625 3.375 -0.125 3.03125 -0.125 C 2.84375 -0.125 2.78125 -0.296875 2.78125 -0.484375 C 2.78125 -0.609375 2.78125 -0.625 2.828125 -0.796875 C 2.84375 -0.828125 2.859375 -0.9375 2.859375 -1.015625 C 2.859375 -1.640625 2.03125 -1.734375 1.734375 -1.75 C 1.9375 -1.875 2.1875 -2.109375 2.3125 -2.21875 C 2.671875 -2.546875 3.015625 -2.875 3.40625 -2.875 C 3.484375 -2.875 3.578125 -2.859375 3.640625 -2.78125 C 3.34375 -2.734375 3.28125 -2.5 3.28125 -2.390625 C 3.28125 -2.25 3.390625 -2.140625 3.546875 -2.140625 C 3.75 -2.140625 3.953125 -2.296875 3.953125 -2.578125 C 3.953125 -2.8125 3.78125 -3.078125 3.421875 -3.078125 C 3.015625 -3.078125 2.65625 -2.78125 2.296875 -2.453125 C 2 -2.1875 1.78125 -1.96875 1.484375 -1.84375 Z M 2.1875 -4.625 "/>
</g>
<g id="glyph-4-0">
<path d="M 4.203125 5.328125 L 0.65625 9.703125 C 0.578125 9.796875 0.5625 9.8125 0.5625 9.859375 C 0.5625 9.96875 0.65625 9.96875 0.84375 9.96875 L 9.09375 9.96875 L 9.953125 7.484375 L 9.703125 7.484375 C 9.453125 8.234375 8.796875 8.84375 7.9375 9.125 C 7.78125 9.1875 7.09375 9.421875 5.625 9.421875 L 1.390625 9.421875 L 4.859375 5.140625 C 4.921875 5.046875 4.9375 5.03125 4.9375 4.984375 C 4.9375 4.9375 4.9375 4.9375 4.875 4.84375 L 1.640625 0.40625 L 5.578125 0.40625 C 6.71875 0.40625 9.015625 0.46875 9.703125 2.328125 L 9.953125 2.328125 L 9.09375 0 L 0.84375 0 C 0.5625 0 0.5625 0.015625 0.5625 0.3125 Z M 4.203125 5.328125 "/>
</g>
<g id="glyph-5-0">
<path d="M 5.359375 -2.34375 C 5.453125 -2.34375 5.609375 -2.34375 5.609375 -2.515625 C 5.609375 -2.6875 5.453125 -2.6875 5.359375 -2.6875 L 0.75 -2.6875 C 0.65625 -2.6875 0.484375 -2.6875 0.484375 -2.515625 C 0.484375 -2.34375 0.640625 -2.34375 0.75 -2.34375 Z M 5.359375 -0.8125 C 5.453125 -0.8125 5.609375 -0.8125 5.609375 -0.96875 C 5.609375 -1.15625 5.453125 -1.15625 5.359375 -1.15625 L 0.75 -1.15625 C 0.640625 -1.15625 0.484375 -1.15625 0.484375 -0.96875 C 0.484375 -0.8125 0.65625 -0.8125 0.75 -0.8125 Z M 5.359375 -0.8125 "/>
</g>
<g id="glyph-5-1">
<path d="M 2.328125 -4.4375 C 2.328125 -4.625 2.328125 -4.625 2.125 -4.625 C 1.671875 -4.1875 1.046875 -4.1875 0.765625 -4.1875 L 0.765625 -3.9375 C 0.921875 -3.9375 1.390625 -3.9375 1.765625 -4.125 L 1.765625 -0.578125 C 1.765625 -0.34375 1.765625 -0.25 1.078125 -0.25 L 0.8125 -0.25 L 0.8125 0 C 0.9375 0 1.796875 -0.03125 2.046875 -0.03125 C 2.265625 -0.03125 3.140625 0 3.296875 0 L 3.296875 -0.25 L 3.03125 -0.25 C 2.328125 -0.25 2.328125 -0.34375 2.328125 -0.578125 Z M 2.328125 -4.4375 "/>
</g>
</g>
<clipPath id="clip-0">
<path clip-rule="nonzero" d="M 51 0 L 338.546875 0 L 338.546875 252 L 51 252 Z M 51 0 "/>
</clipPath>
<clipPath id="clip-1">
<path clip-rule="nonzero" d="M 51 0 L 338.546875 0 L 338.546875 251 L 51 251 Z M 51 0 "/>
</clipPath>
<clipPath id="clip-2">
<path clip-rule="nonzero" d="M 51 0 L 338.546875 0 L 338.546875 252 L 51 252 Z M 51 0 "/>
</clipPath>
<clipPath id="clip-3">
<path clip-rule="nonzero" d="M 53 62 L 203 62 L 203 250.890625 L 53 250.890625 Z M 53 62 "/>
</clipPath>
<clipPath id="clip-4">
<path clip-rule="nonzero" d="M 51.769531 81 L 207 81 L 207 250.890625 L 51.769531 250.890625 Z M 51.769531 81 "/>
</clipPath>
</defs>
<g clip-path="url(#clip-0)">
<path fill="none" stroke-width="0.3985" stroke-linecap="butt" stroke-linejoin="miter" stroke="rgb(75%, 75%, 75%)" stroke-opacity="1" stroke-miterlimit="10" d="M -0.00046875 -0.000625 L -0.00046875 251.616563 M 29.890156 -0.000625 L 29.890156 251.616563 M 59.776875 -0.000625 L 59.776875 251.616563 M 89.663594 -0.000625 L 89.663594 251.616563 M 119.554219 -0.000625 L 119.554219 251.616563 M 149.440938 -0.000625 L 149.440938 251.616563 M 179.331563 -0.000625 L 179.331563 251.616563 M 209.218281 -0.000625 L 209.218281 251.616563 M 239.105 -0.000625 L 239.105 251.616563 M 268.995625 -0.000625 L 268.995625 251.616563 M 298.882344 -0.000625 L 298.882344 251.616563 " transform="matrix(1, 0, 0, -1, 51.77, 250.89)"/>
<path fill="none" stroke-width="0.3985" stroke-linecap="butt" stroke-linejoin="miter" stroke="rgb(75%, 75%, 75%)" stroke-opacity="1" stroke-miterlimit="10" d="M -0.00046875 -0.000625 L 298.882344 -0.000625 M -0.00046875 41.936875 L 298.882344 41.936875 M -0.00046875 83.870469 L 298.882344 83.870469 M -0.00046875 125.807969 L 298.882344 125.807969 M -0.00046875 167.745469 L 298.882344 167.745469 M -0.00046875 209.679063 L 298.882344 209.679063 M -0.00046875 251.616563 L 298.882344 251.616563 " transform="matrix(1, 0, 0, -1, 51.77, 250.89)"/>
</g>
<g clip-path="url(#clip-1)">
<path fill="none" stroke-width="0.19925" stroke-linecap="butt" stroke-linejoin="miter" stroke="rgb(50%, 50%, 50%)" stroke-opacity="1" stroke-miterlimit="10" d="M -0.00046875 -0.000625 L -0.00046875 4.253281 M 29.890156 -0.000625 L 29.890156 4.253281 M 59.776875 -0.000625 L 59.776875 4.253281 M 89.663594 -0.000625 L 89.663594 4.253281 M 119.554219 -0.000625 L 119.554219 4.253281 M 149.440938 -0.000625 L 149.440938 4.253281 M 179.331563 -0.000625 L 179.331563 4.253281 M 209.218281 -0.000625 L 209.218281 4.253281 M 239.105 -0.000625 L 239.105 4.253281 M 268.995625 -0.000625 L 268.995625 4.253281 M 298.882344 -0.000625 L 298.882344 4.253281 M -0.00046875 251.616563 L -0.00046875 247.366563 M 29.890156 251.616563 L 29.890156 247.366563 M 59.776875 251.616563 L 59.776875 247.366563 M 89.663594 251.616563 L 89.663594 247.366563 M 119.554219 251.616563 L 119.554219 247.366563 M 149.440938 251.616563 L 149.440938 247.366563 M 179.331563 251.616563 L 179.331563 247.366563 M 209.218281 251.616563 L 209.218281 247.366563 M 239.105 251.616563 L 239.105 247.366563 M 268.995625 251.616563 L 268.995625 247.366563 M 298.882344 251.616563 L 298.882344 247.366563 " transform="matrix(1, 0, 0, -1, 51.77, 250.89)"/>
<path fill="none" stroke-width="0.19925" stroke-linecap="butt" stroke-linejoin="miter" stroke="rgb(50%, 50%, 50%)" stroke-opacity="1" stroke-miterlimit="10" d="M -0.00046875 -0.000625 L 4.253438 -0.000625 M -0.00046875 41.936875 L 4.253438 41.936875 M -0.00046875 83.870469 L 4.253438 83.870469 M -0.00046875 125.807969 L 4.253438 125.807969 M -0.00046875 167.745469 L 4.253438 167.745469 M -0.00046875 209.679063 L 4.253438 209.679063 M -0.00046875 251.616563 L 4.253438 251.616563 M 298.882344 -0.000625 L 294.632344 -0.000625 M 298.882344 41.936875 L 294.632344 41.936875 M 298.882344 83.870469 L 294.632344 83.870469 M 298.882344 125.807969 L 294.632344 125.807969 M 298.882344 167.745469 L 294.632344 167.745469 M 298.882344 209.679063 L 294.632344 209.679063 M 298.882344 251.616563 L 294.632344 251.616563 " transform="matrix(1, 0, 0, -1, 51.77, 250.89)"/>
</g>
<g clip-path="url(#clip-2)">
<path fill="none" stroke-width="0.3985" stroke-linecap="butt" stroke-linejoin="miter" stroke="rgb(0%, 0%, 0%)" stroke-opacity="1" stroke-miterlimit="10" d="M -0.00046875 -0.000625 L -0.00046875 251.616563 L 298.882344 251.616563 L 298.882344 -0.000625 Z M -0.00046875 -0.000625 " transform="matrix(1, 0, 0, -1, 51.77, 250.89)"/>
</g>
<g fill="rgb(0%, 0%, 0%)" fill-opacity="1">
<use xlink:href="#glyph-0-0" x="49.279" y="260.83"/>
</g>
<g fill="rgb(0%, 0%, 0%)" fill-opacity="1">
<use xlink:href="#glyph-0-1" x="76.676" y="260.83"/>
<use xlink:href="#glyph-0-0" x="81.6573" y="260.83"/>
</g>
<g fill="rgb(0%, 0%, 0%)" fill-opacity="1">
<use xlink:href="#glyph-0-2" x="106.564" y="260.83"/>
<use xlink:href="#glyph-0-0" x="111.5453" y="260.83"/>
</g>
<g fill="rgb(0%, 0%, 0%)" fill-opacity="1">
<use xlink:href="#glyph-0-3" x="136.452" y="260.83"/>
<use xlink:href="#glyph-0-0" x="141.4333" y="260.83"/>
</g>
<g fill="rgb(0%, 0%, 0%)" fill-opacity="1">
<use xlink:href="#glyph-0-4" x="166.34" y="260.83"/>
<use xlink:href="#glyph-0-0" x="171.3213" y="260.83"/>
</g>
<g fill="rgb(0%, 0%, 0%)" fill-opacity="1">
<use xlink:href="#glyph-0-5" x="196.228" y="260.83"/>
<use xlink:href="#glyph-0-0" x="201.2093" y="260.83"/>
</g>
<g fill="rgb(0%, 0%, 0%)" fill-opacity="1">
<use xlink:href="#glyph-0-6" x="226.116" y="260.83"/>
<use xlink:href="#glyph-0-0" x="231.0973" y="260.83"/>
</g>
<g fill="rgb(0%, 0%, 0%)" fill-opacity="1">
<use xlink:href="#glyph-0-7" x="256.004" y="260.83"/>
<use xlink:href="#glyph-0-0" x="260.9853" y="260.83"/>
</g>
<g fill="rgb(0%, 0%, 0%)" fill-opacity="1">
<use xlink:href="#glyph-0-8" x="285.892" y="260.83"/>
<use xlink:href="#glyph-0-0" x="290.8733" y="260.83"/>
</g>
<g fill="rgb(0%, 0%, 0%)" fill-opacity="1">
<use xlink:href="#glyph-0-9" x="315.78" y="260.83"/>
<use xlink:href="#glyph-0-0" x="320.7613" y="260.83"/>
</g>
<g fill="rgb(0%, 0%, 0%)" fill-opacity="1">
<use xlink:href="#glyph-0-0" x="43.269" y="254.1"/>
</g>
<g fill="rgb(0%, 0%, 0%)" fill-opacity="1">
<use xlink:href="#glyph-0-1" x="43.269" y="212.164"/>
</g>
<g fill="rgb(0%, 0%, 0%)" fill-opacity="1">
<use xlink:href="#glyph-0-2" x="43.269" y="170.229"/>
</g>
<g fill="rgb(0%, 0%, 0%)" fill-opacity="1">
<use xlink:href="#glyph-0-3" x="43.269" y="128.293"/>
</g>
<g fill="rgb(0%, 0%, 0%)" fill-opacity="1">
<use xlink:href="#glyph-0-4" x="43.269" y="86.357"/>
</g>
<g fill="rgb(0%, 0%, 0%)" fill-opacity="1">
<use xlink:href="#glyph-0-5" x="43.269" y="44.422"/>
</g>
<g fill="rgb(0%, 0%, 0%)" fill-opacity="1">
<use xlink:href="#glyph-0-6" x="43.269" y="2.486"/>
</g>
<g clip-path="url(#clip-3)">
<path fill-rule="nonzero" fill="rgb(0%, 0%, 0%)" fill-opacity="0.1" stroke-width="0.3985" stroke-linecap="butt" stroke-linejoin="miter" stroke="rgb(0%, 0%, 0%)" stroke-opacity="1" stroke-miterlimit="10" d="M 1.7925 -0.000625 L 4.183125 -0.000625 L 4.183125 41.936875 L 1.7925 41.936875 Z M 4.780781 -0.000625 L 7.171406 -0.000625 L 7.171406 62.905625 L 4.780781 62.905625 Z M 7.769063 -0.000625 L 10.163594 -0.000625 L 10.163594 76.882188 L 7.769063 76.882188 Z M 10.76125 -0.000625 L 13.151875 -0.000625 L 13.151875 87.366563 L 10.76125 87.366563 Z M 13.749531 -0.000625 L 16.140156 -0.000625 L 16.140156 95.753281 L 13.749531 95.753281 Z M 16.737813 -0.000625 L 19.128438 -0.000625 L 19.128438 102.745469 L 16.737813 102.745469 Z M 19.726094 -0.000625 L 22.116719 -0.000625 L 22.116719 108.73375 L 19.726094 108.73375 Z M 22.714375 -0.000625 L 25.105 -0.000625 L 25.105 113.975938 L 22.714375 113.975938 Z M 25.702656 -0.000625 L 28.093281 -0.000625 L 28.093281 118.636094 L 25.702656 118.636094 Z M 28.690938 -0.000625 L 31.085469 -0.000625 L 31.085469 122.831406 L 28.690938 122.831406 Z M 31.683125 -0.000625 L 34.07375 -0.000625 L 34.07375 126.643906 L 31.683125 126.643906 Z M 34.671406 -0.000625 L 37.062031 -0.000625 L 37.062031 130.136094 L 34.671406 130.136094 Z M 37.659688 -0.000625 L 40.050313 -0.000625 L 40.050313 133.362656 L 37.659688 133.362656 Z M 40.647969 -0.000625 L 43.038594 -0.000625 L 43.038594 136.35875 L 40.647969 136.35875 Z M 43.63625 -0.000625 L 46.026875 -0.000625 L 46.026875 139.155625 L 43.63625 139.155625 Z M 46.624531 -0.000625 L 49.015156 -0.000625 L 49.015156 141.776719 L 46.624531 141.776719 Z M 49.612813 -0.000625 L 52.007344 -0.000625 L 52.007344 144.241563 L 49.612813 144.241563 Z M 52.605 -0.000625 L 54.995625 -0.000625 L 54.995625 146.569688 L 52.605 146.569688 Z M 55.593281 -0.000625 L 57.983906 -0.000625 L 57.983906 148.776719 L 55.593281 148.776719 Z M 58.581563 -0.000625 L 60.972188 -0.000625 L 60.972188 150.874375 L 58.581563 150.874375 Z M 61.569844 -0.000625 L 63.960469 -0.000625 L 63.960469 152.870469 L 61.569844 152.870469 Z M 64.558125 -0.000625 L 66.94875 -0.000625 L 66.94875 154.776719 L 64.558125 154.776719 Z M 67.546406 -0.000625 L 69.937031 -0.000625 L 69.937031 156.600938 L 67.546406 156.600938 Z M 70.534688 -0.000625 L 72.929219 -0.000625 L 72.929219 158.350938 L 70.534688 158.350938 Z M 73.526875 -0.000625 L 75.9175 -0.000625 L 75.9175 160.026719 L 73.526875 160.026719 Z M 76.515156 -0.000625 L 78.905781 -0.000625 L 78.905781 161.64 L 76.515156 161.64 Z M 79.503438 -0.000625 L 81.894063 -0.000625 L 81.894063 163.194688 L 79.503438 163.194688 Z M 82.491719 -0.000625 L 84.882344 -0.000625 L 84.882344 164.690781 L 82.491719 164.690781 Z M 85.48 -0.000625 L 87.870625 -0.000625 L 87.870625 166.14 L 85.48 166.14 Z M 88.468281 -0.000625 L 90.858906 -0.000625 L 90.858906 167.534531 L 88.468281 167.534531 Z M 91.456563 -0.000625 L 93.851094 -0.000625 L 93.851094 168.886094 L 91.456563 168.886094 Z M 94.44875 -0.000625 L 96.839375 -0.000625 L 96.839375 170.198594 L 94.44875 170.198594 Z M 97.437031 -0.000625 L 99.827656 -0.000625 L 99.827656 171.468125 L 97.437031 171.468125 Z M 100.425313 -0.000625 L 102.815938 -0.000625 L 102.815938 172.7025 L 100.425313 172.7025 Z M 103.413594 -0.000625 L 105.804219 -0.000625 L 105.804219 173.901719 L 103.413594 173.901719 Z M 106.401875 -0.000625 L 108.7925 -0.000625 L 108.7925 175.065781 L 106.401875 175.065781 Z M 109.390156 -0.000625 L 111.780781 -0.000625 L 111.780781 176.198594 L 109.390156 176.198594 Z M 112.378438 -0.000625 L 114.772969 -0.000625 L 114.772969 177.304063 L 112.378438 177.304063 Z M 115.370625 -0.000625 L 117.76125 -0.000625 L 117.76125 178.378281 L 115.370625 178.378281 Z M 118.358906 -0.000625 L 120.749531 -0.000625 L 120.749531 179.425156 L 118.358906 179.425156 Z M 121.347188 -0.000625 L 123.737813 -0.000625 L 123.737813 180.448594 L 121.347188 180.448594 Z M 124.335469 -0.000625 L 126.726094 -0.000625 L 126.726094 181.448594 L 124.335469 181.448594 Z M 127.32375 -0.000625 L 129.714375 -0.000625 L 129.714375 182.425156 L 127.32375 182.425156 Z M 130.312031 -0.000625 L 132.702656 -0.000625 L 132.702656 183.374375 L 130.312031 183.374375 Z M 133.300313 -0.000625 L 135.694844 -0.000625 L 135.694844 184.307969 L 133.300313 184.307969 Z M 136.2925 -0.000625 L 138.683125 -0.000625 L 138.683125 185.218125 L 136.2925 185.218125 Z M 139.280781 -0.000625 L 141.671406 -0.000625 L 141.671406 186.112656 L 139.280781 186.112656 Z M 142.269063 -0.000625 L 144.659688 -0.000625 L 144.659688 186.987656 L 142.269063 186.987656 Z M 145.257344 -0.000625 L 147.647969 -0.000625 L 147.647969 187.843125 L 145.257344 187.843125 Z M 148.245625 -0.000625 L 150.63625 -0.000625 L 150.63625 188.679063 L 148.245625 188.679063 Z M 148.245625 -0.000625 " transform="matrix(1, 0, 0, -1, 51.77, 250.89)"/>
</g>
<g clip-path="url(#clip-4)">
<path fill="none" stroke-width="0.3985" stroke-linecap="butt" stroke-linejoin="miter" stroke="rgb(0%, 0%, 0%)" stroke-opacity="1" stroke-miterlimit="10" d="M 2.987813 -0.000625 C 2.987813 -0.000625 4.058125 12.85875 4.468281 16.85875 C 4.878438 20.862656 5.538594 25.89 5.94875 28.847031 C 6.358906 31.804063 7.015156 35.819688 7.425313 38.17125 C 7.835469 40.518906 8.495625 43.835313 8.905781 45.784531 C 9.315938 47.737656 9.976094 50.557969 10.38625 52.225938 C 10.796406 53.893906 11.452656 56.350938 11.862813 57.807969 C 12.276875 59.268906 12.933125 61.448594 13.343281 62.745469 C 13.753438 64.038438 14.413594 65.987656 14.82375 67.151719 C 15.233906 68.315781 15.894063 70.081406 16.304219 71.14 C 16.714375 72.198594 17.370625 73.811875 17.780781 74.784531 C 18.190938 75.753281 18.851094 77.241563 19.26125 78.136094 C 19.671406 79.030625 20.331563 80.405625 20.741719 81.23375 C 21.151875 82.065781 21.808125 83.347031 22.218281 84.120469 C 22.632344 84.897813 23.288594 86.097031 23.69875 86.823594 C 24.108906 87.554063 24.769063 88.682969 25.179219 89.370469 C 25.589375 90.054063 26.245625 91.116563 26.659688 91.765 C 27.069844 92.409531 27.726094 93.417344 28.13625 94.030625 C 28.546406 94.64 29.206563 95.597031 29.616719 96.179063 C 30.026875 96.761094 30.687031 97.667344 31.097188 98.222031 C 31.507344 98.776719 32.163594 99.64 32.57375 100.17125 C 32.983906 100.698594 33.644063 101.526719 34.054219 102.034531 C 34.464375 102.538438 35.124531 103.331406 35.534688 103.815781 C 35.944844 104.300156 36.601094 105.061875 37.015156 105.526719 C 37.425313 105.991563 38.081563 106.722031 38.491719 107.17125 C 38.901875 107.616563 39.562031 108.319688 39.972188 108.749375 C 40.382344 109.182969 41.0425 109.862656 41.452656 110.276719 C 41.862813 110.690781 42.519063 111.343125 42.929219 111.745469 C 43.339375 112.143906 43.999531 112.776719 44.409688 113.163438 C 44.819844 113.554063 45.48 114.163438 45.890156 114.538438 C 46.300313 114.913438 46.956563 115.507188 47.366719 115.870469 C 47.780781 116.23375 48.437031 116.807969 48.847188 117.159531 C 49.257344 117.511094 49.9175 118.069688 50.327656 118.409531 C 50.737813 118.753281 51.394063 119.292344 51.808125 119.624375 C 52.218281 119.956406 52.874531 120.48375 53.284688 120.807969 C 53.694844 121.132188 54.355 121.64 54.765156 121.9525 C 55.175313 122.265 55.835469 122.761094 56.245625 123.065781 C 56.655781 123.370469 57.312031 123.85875 57.722188 124.155625 C 58.132344 124.456406 58.7925 124.925156 59.202656 125.218125 C 59.612813 125.507188 60.272969 125.975938 60.683125 126.257188 C 61.093281 126.542344 61.749531 126.991563 62.163594 127.268906 C 62.57375 127.54625 63.23 127.98375 63.640156 128.257188 C 64.050313 128.526719 64.710469 128.9525 65.120625 129.218125 C 65.530781 129.48375 66.190938 129.901719 66.601094 130.159531 C 67.01125 130.42125 67.6675 130.8275 68.077656 131.081406 C 68.487813 131.335313 69.147969 131.737656 69.558125 131.98375 C 69.968281 132.23375 70.628438 132.624375 71.038594 132.866563 C 71.44875 133.10875 72.105 133.495469 72.515156 133.729844 C 72.929219 133.968125 73.585469 134.343125 73.995625 134.5775 C 74.405781 134.811875 75.065938 135.179063 75.476094 135.409531 C 75.88625 135.636094 76.5425 135.995469 76.956563 136.222031 C 77.366719 136.444688 78.022969 136.800156 78.433125 137.018906 C 78.843281 137.237656 79.503438 137.589219 79.913594 137.804063 C 80.32375 138.018906 80.983906 138.362656 81.394063 138.573594 C 81.804219 138.784531 82.460469 139.120469 82.870625 139.3275 C 83.280781 139.534531 83.940938 139.866563 84.351094 140.069688 C 84.76125 140.272813 85.421406 140.597031 85.831563 140.800156 C 86.241719 140.999375 86.897969 141.315781 87.312031 141.515 C 87.722188 141.710313 88.378438 142.026719 88.788594 142.218125 C 89.19875 142.413438 89.858906 142.722031 90.269063 142.913438 C 90.679219 143.104844 91.339375 143.405625 91.749531 143.593125 C 92.159688 143.780625 92.815938 144.0775 93.226094 144.265 C 93.63625 144.448594 94.296406 144.741563 94.706563 144.925156 C 95.116719 145.104844 95.776875 145.393906 96.187031 145.573594 C 96.597188 145.753281 97.253438 146.038438 97.663594 146.214219 C 98.077656 146.39 98.733906 146.667344 99.144063 146.843125 C 99.554219 147.015 100.214375 147.292344 100.624531 147.464219 C 101.034688 147.636094 101.690938 147.909531 102.105 148.0775 C 102.515156 148.245469 103.171406 148.518906 103.581563 148.682969 C 103.991719 148.847031 104.651875 149.112656 105.062031 149.272813 C 105.472188 149.436875 106.132344 149.698594 106.5425 149.862656 C 106.952656 150.022813 107.608906 150.280625 108.019063 150.440781 C 108.429219 150.600938 109.089375 150.854844 109.499531 151.011094 C 109.909688 151.17125 110.569844 151.417344 110.98 151.569688 C 111.390156 151.725938 112.046406 151.972031 112.460469 152.124375 C 112.870625 152.280625 113.526875 152.526719 113.937031 152.675156 C 114.347188 152.8275 115.007344 153.061875 115.4175 153.210313 C 115.827656 153.35875 116.487813 153.597031 116.897969 153.745469 C 117.308125 153.893906 117.964375 154.128281 118.374531 154.276719 C 118.784688 154.42125 119.444844 154.659531 119.855 154.804063 C 120.265156 154.948594 120.925313 155.175156 121.335469 155.315781 C 121.745625 155.456406 122.401875 155.682969 122.812031 155.823594 C 123.226094 155.964219 123.882344 156.186875 124.2925 156.3275 C 124.702656 156.464219 125.362813 156.686875 125.772969 156.823594 C 126.183125 156.960313 126.839375 157.179063 127.253438 157.311875 C 127.663594 157.448594 128.319844 157.663438 128.73 157.79625 C 129.140156 157.932969 129.800313 158.143906 130.210469 158.276719 C 130.620625 158.409531 131.280781 158.620469 131.690938 158.753281 C 132.101094 158.882188 132.757344 159.089219 133.1675 159.218125 C 133.577656 159.350938 134.237813 159.554063 134.647969 159.682969 C 135.058125 159.807969 135.718281 160.015 136.128438 160.14 C 136.538594 160.268906 137.194844 160.468125 137.608906 160.593125 C 138.019063 160.718125 138.675313 160.917344 139.085469 161.042344 C 139.495625 161.167344 140.155781 161.362656 140.565938 161.487656 C 140.976094 161.60875 141.63625 161.804063 142.046406 161.925156 C 142.456563 162.04625 143.112813 162.241563 143.522969 162.35875 C 143.933125 162.479844 144.593281 162.67125 145.003438 162.788438 C 145.413594 162.909531 146.07375 163.097031 146.483906 163.214219 C 146.894063 163.331406 147.550313 163.518906 147.960469 163.636094 C 148.374531 163.753281 149.440938 164.054063 149.440938 164.054063 " transform="matrix(1, 0, 0, -1, 51.77, 250.89)"/>
</g>
<g fill="rgb(0%, 0%, 0%)" fill-opacity="1">
<use xlink:href="#glyph-1-0" x="198.219" y="271.96"/>
</g>
<g fill="rgb(0%, 0%, 0%)" fill-opacity="1">
<use xlink:href="#glyph-2-0" x="34.491" y="127.704"/>
</g>
<path fill-rule="nonzero" fill="rgb(100%, 100%, 100%)" fill-opacity="1" stroke-width="0.3985" stroke-linecap="butt" stroke-linejoin="miter" stroke="rgb(0%, 0%, 0%)" stroke-opacity="1" stroke-miterlimit="10" d="M 9.163594 213.038438 L 100.472188 213.038438 L 100.472188 243.870469 L 9.163594 243.870469 Z M 9.163594 213.038438 " transform="matrix(1, 0, 0, -1, 51.77, 250.89)"/>
<path fill="none" stroke-width="0.3985" stroke-linecap="butt" stroke-linejoin="miter" stroke="rgb(0%, 0%, 0%)" stroke-opacity="1" stroke-miterlimit="10" d="M -1.493 -0.00084375 L 1.495281 -0.00084375 Z M 7.010906 -0.00084375 L 9.999188 -0.00084375 Z M 15.514813 -0.00084375 L 18.503094 -0.00084375 Z M 15.514813 -0.00084375 " transform="matrix(1, 0, 0, -1, 65.618, 15.964)"/>
<g fill="rgb(0%, 0%, 0%)" fill-opacity="1">
<use xlink:href="#glyph-1-1" x="86.312" y="19.425"/>
</g>
<g fill="rgb(0%, 0%, 0%)" fill-opacity="1">
<use xlink:href="#glyph-3-0" x="94.593" y="20.92"/>
</g>
<g fill="rgb(0%, 0%, 0%)" fill-opacity="1">
<use xlink:href="#glyph-0-10" x="102.784" y="19.425"/>
</g>
<g fill="rgb(0%, 0%, 0%)" fill-opacity="1">
<use xlink:href="#glyph-4-0" x="113.3" y="11.953"/>
</g>
<g fill="rgb(0%, 0%, 0%)" fill-opacity="1">
<use xlink:href="#glyph-3-0" x="123.816" y="14.416"/>
</g>
<g fill="rgb(0%, 0%, 0%)" fill-opacity="1">
<use xlink:href="#glyph-3-1" x="123.816" y="22.414"/>
</g>
<g fill="rgb(0%, 0%, 0%)" fill-opacity="1">
<use xlink:href="#glyph-5-0" x="128.21856" y="22.414"/>
<use xlink:href="#glyph-5-1" x="134.334583" y="22.414"/>
</g>
<g fill="rgb(0%, 0%, 0%)" fill-opacity="1">
<use xlink:href="#glyph-5-1" x="141.877" y="15.503"/>
</g>
<path fill="none" stroke-width="0.398" stroke-linecap="butt" stroke-linejoin="miter" stroke="rgb(0%, 0%, 0%)" stroke-opacity="1" stroke-miterlimit="10" d="M -0.00084375 0.00140625 L 4.405406 0.00140625 " transform="matrix(1, 0, 0, -1, 141.661, 16.935)"/>
<g fill="rgb(0%, 0%, 0%)" fill-opacity="1">
<use xlink:href="#glyph-3-1" x="141.661" y="22.861"/>
</g>
<path fill="none" stroke-width="0.3985" stroke-linecap="butt" stroke-linejoin="miter" stroke="rgb(0%, 0%, 0%)" stroke-opacity="1" stroke-miterlimit="10" d="M -0.0008125 0.00128125 C -0.0008125 0.00128125 6.143719 0.00128125 8.503094 0.00128125 C 10.862469 0.00128125 17.007 0.00128125 17.007 0.00128125 " transform="matrix(1, 0, 0, -1, 65.618, 29.388)"/>
<g fill="rgb(0%, 0%, 0%)" fill-opacity="1">
<use xlink:href="#glyph-0-11" x="105.77" y="32.377"/>
<use xlink:href="#glyph-0-12" x="108.53761" y="32.377"/>
<use xlink:href="#glyph-0-13" x="114.072831" y="32.377"/>
</g>
<g fill="rgb(0%, 0%, 0%)" fill-opacity="1">
<use xlink:href="#glyph-1-0" x="117.947286" y="32.377"/>
</g>
<g fill="rgb(0%, 0%, 0%)" fill-opacity="1">
<use xlink:href="#glyph-0-14" x="123.926838" y="32.377"/>
</g>
</svg>
