<?xml version="1.0" encoding="UTF-8"?>
<svg xmlns="http://www.w3.org/2000/svg" xmlns:xlink="http://www.w3.org/1999/xlink" width="373.286pt" height="85.276pt" viewBox="0 0 373.286 85.276">
<defs>
<g>
<g id="glyph-0-0">
<path d="M 5.796875 -6.78125 L 0.328125 -6.78125 L 0.328125 -6.46875 L 0.5625 -6.46875 C 1.328125 -6.46875 1.359375 -6.359375 1.359375 -6 L 1.359375 -0.78125 C 1.359375 -0.421875 1.328125 -0.3125 0.5625 -0.3125 L 0.328125 -0.3125 L 0.328125 0 C 0.671875 -0.03125 1.453125 -0.03125 1.84375 -0.03125 C 2.25 -0.03125 3.15625 -0.03125 3.515625 0 L 3.515625 -0.3125 L 3.1875 -0.3125 C 2.25 -0.3125 2.25 -0.4375 2.25 -0.78125 L 2.25 -3.234375 L 3.09375 -3.234375 C 4.0625 -3.234375 4.15625 -2.921875 4.15625 -2.078125 L 4.40625 -2.078125 L 4.40625 -4.71875 L 4.15625 -4.71875 C 4.15625 -3.875 4.0625 -3.546875 3.09375 -3.546875 L 2.25 -3.546875 L 2.25 -6.078125 C 2.25 -6.40625 2.265625 -6.46875 2.734375 -6.46875 L 3.921875 -6.46875 C 5.421875 -6.46875 5.671875 -5.90625 5.828125 -4.53125 L 6.078125 -4.53125 Z M 5.796875 -6.78125 "/>
</g>
<g id="glyph-0-1">
<path d="M 1.765625 -4.40625 L 0.375 -4.296875 L 0.375 -3.984375 C 1.015625 -3.984375 1.109375 -3.921875 1.109375 -3.4375 L 1.109375 -0.75 C 1.109375 -0.3125 1 -0.3125 0.328125 -0.3125 L 0.328125 0 C 0.640625 -0.015625 1.1875 -0.03125 1.421875 -0.03125 C 1.78125 -0.03125 2.125 -0.015625 2.46875 0 L 2.46875 -0.3125 C 1.796875 -0.3125 1.765625 -0.359375 1.765625 -0.75 Z M 1.796875 -6.140625 C 1.796875 -6.453125 1.5625 -6.671875 1.28125 -6.671875 C 0.96875 -6.671875 0.75 -6.40625 0.75 -6.140625 C 0.75 -5.875 0.96875 -5.609375 1.28125 -5.609375 C 1.5625 -5.609375 1.796875 -5.828125 1.796875 -6.140625 Z M 1.796875 -6.140625 "/>
</g>
<g id="glyph-0-2">
<path d="M 2.859375 -2.34375 C 3.15625 -2.71875 3.53125 -3.203125 3.78125 -3.46875 C 4.09375 -3.828125 4.5 -3.984375 4.96875 -3.984375 L 4.96875 -4.296875 C 4.703125 -4.28125 4.40625 -4.265625 4.140625 -4.265625 C 3.84375 -4.265625 3.3125 -4.28125 3.1875 -4.296875 L 3.1875 -3.984375 C 3.40625 -3.96875 3.484375 -3.84375 3.484375 -3.671875 C 3.484375 -3.515625 3.375 -3.390625 3.328125 -3.328125 L 2.71875 -2.546875 L 1.9375 -3.5625 C 1.84375 -3.65625 1.84375 -3.671875 1.84375 -3.734375 C 1.84375 -3.890625 2 -3.984375 2.1875 -3.984375 L 2.1875 -4.296875 C 1.9375 -4.28125 1.28125 -4.265625 1.109375 -4.265625 C 0.90625 -4.265625 0.4375 -4.28125 0.171875 -4.296875 L 0.171875 -3.984375 C 0.875 -3.984375 0.875 -3.984375 1.34375 -3.375 L 2.328125 -2.09375 L 1.390625 -0.90625 C 0.921875 -0.328125 0.328125 -0.3125 0.125 -0.3125 L 0.125 0 C 0.375 -0.015625 0.6875 -0.03125 0.953125 -0.03125 C 1.234375 -0.03125 1.65625 -0.015625 1.890625 0 L 1.890625 -0.3125 C 1.671875 -0.34375 1.609375 -0.46875 1.609375 -0.625 C 1.609375 -0.84375 1.890625 -1.171875 2.5 -1.890625 L 3.265625 -0.890625 C 3.34375 -0.78125 3.46875 -0.625 3.46875 -0.5625 C 3.46875 -0.46875 3.375 -0.3125 3.109375 -0.3125 L 3.109375 0 C 3.40625 -0.015625 3.96875 -0.03125 4.1875 -0.03125 C 4.453125 -0.03125 4.84375 -0.015625 5.140625 0 L 5.140625 -0.3125 C 4.609375 -0.3125 4.421875 -0.328125 4.203125 -0.625 Z M 2.859375 -2.34375 "/>
</g>
<g id="glyph-0-3">
<path d="M 3.296875 2.390625 C 3.296875 2.359375 3.296875 2.34375 3.125 2.171875 C 1.890625 0.921875 1.5625 -0.96875 1.5625 -2.5 C 1.5625 -4.234375 1.9375 -5.96875 3.171875 -7.203125 C 3.296875 -7.328125 3.296875 -7.34375 3.296875 -7.375 C 3.296875 -7.453125 3.265625 -7.484375 3.203125 -7.484375 C 3.09375 -7.484375 2.203125 -6.796875 1.609375 -5.53125 C 1.109375 -4.4375 0.984375 -3.328125 0.984375 -2.5 C 0.984375 -1.71875 1.09375 -0.515625 1.640625 0.625 C 2.25 1.84375 3.09375 2.5 3.203125 2.5 C 3.265625 2.5 3.296875 2.46875 3.296875 2.390625 Z M 3.296875 2.390625 "/>
</g>
<g id="glyph-0-4">
<path d="M 2.5 -6.921875 L 1.15625 -5.5625 L 1.328125 -5.390625 L 2.5 -6.40625 L 3.640625 -5.390625 L 3.8125 -5.5625 Z M 2.5 -6.921875 "/>
</g>
<g id="glyph-0-5">
<path d="M 2.875 -2.5 C 2.875 -3.265625 2.765625 -4.46875 2.21875 -5.609375 C 1.625 -6.828125 0.765625 -7.484375 0.671875 -7.484375 C 0.609375 -7.484375 0.5625 -7.4375 0.5625 -7.375 C 0.5625 -7.34375 0.5625 -7.328125 0.75 -7.140625 C 1.734375 -6.15625 2.296875 -4.578125 2.296875 -2.5 C 2.296875 -0.78125 1.9375 0.96875 0.703125 2.21875 C 0.5625 2.34375 0.5625 2.359375 0.5625 2.390625 C 0.5625 2.453125 0.609375 2.5 0.671875 2.5 C 0.765625 2.5 1.671875 1.8125 2.25 0.546875 C 2.765625 -0.546875 2.875 -1.65625 2.875 -2.5 Z M 2.875 -2.5 "/>
</g>
<g id="glyph-0-6">
<path d="M 2.03125 -0.015625 C 2.03125 -0.640625 1.78125 -1.0625 1.390625 -1.0625 C 1.03125 -1.0625 0.859375 -0.78125 0.859375 -0.53125 C 0.859375 -0.265625 1.03125 0 1.390625 0 C 1.546875 0 1.671875 -0.0625 1.765625 -0.140625 L 1.78125 -0.15625 C 1.796875 -0.15625 1.796875 -0.15625 1.796875 -0.015625 C 1.796875 0.625 1.53125 1.234375 1.09375 1.703125 C 1.03125 1.765625 1.015625 1.78125 1.015625 1.8125 C 1.015625 1.890625 1.0625 1.921875 1.109375 1.921875 C 1.234375 1.921875 2.03125 1.140625 2.03125 -0.015625 Z M 2.03125 -0.015625 "/>
</g>
<g id="glyph-0-7">
<path d="M 1.171875 -2.171875 C 1.171875 -3.796875 1.984375 -4.21875 2.515625 -4.21875 C 2.609375 -4.21875 3.234375 -4.203125 3.578125 -3.84375 C 3.171875 -3.8125 3.109375 -3.515625 3.109375 -3.390625 C 3.109375 -3.125 3.296875 -2.9375 3.5625 -2.9375 C 3.828125 -2.9375 4.03125 -3.09375 4.03125 -3.40625 C 4.03125 -4.078125 3.265625 -4.46875 2.5 -4.46875 C 1.25 -4.46875 0.34375 -3.390625 0.34375 -2.15625 C 0.34375 -0.875 1.328125 0.109375 2.484375 0.109375 C 3.8125 0.109375 4.140625 -1.09375 4.140625 -1.1875 C 4.140625 -1.28125 4.03125 -1.28125 4 -1.28125 C 3.921875 -1.28125 3.890625 -1.25 3.875 -1.1875 C 3.59375 -0.265625 2.9375 -0.140625 2.578125 -0.140625 C 2.046875 -0.140625 1.171875 -0.5625 1.171875 -2.171875 Z M 1.171875 -2.171875 "/>
</g>
<g id="glyph-0-8">
<path d="M 4.6875 -2.140625 C 4.6875 -3.40625 3.703125 -4.46875 2.5 -4.46875 C 1.25 -4.46875 0.28125 -3.375 0.28125 -2.140625 C 0.28125 -0.84375 1.3125 0.109375 2.484375 0.109375 C 3.6875 0.109375 4.6875 -0.875 4.6875 -2.140625 Z M 2.5 -0.140625 C 2.0625 -0.140625 1.625 -0.34375 1.359375 -0.8125 C 1.109375 -1.25 1.109375 -1.859375 1.109375 -2.21875 C 1.109375 -2.609375 1.109375 -3.140625 1.34375 -3.578125 C 1.609375 -4.03125 2.078125 -4.25 2.484375 -4.25 C 2.921875 -4.25 3.34375 -4.03125 3.609375 -3.59375 C 3.875 -3.171875 3.875 -2.59375 3.875 -2.21875 C 3.875 -1.859375 3.875 -1.3125 3.65625 -0.875 C 3.421875 -0.421875 2.984375 -0.140625 2.5 -0.140625 Z M 2.5 -0.140625 "/>
</g>
<g id="glyph-0-9">
<path d="M 1.09375 -3.421875 L 1.09375 -0.75 C 1.09375 -0.3125 0.984375 -0.3125 0.3125 -0.3125 L 0.3125 0 C 0.671875 -0.015625 1.171875 -0.03125 1.453125 -0.03125 C 1.703125 -0.03125 2.21875 -0.015625 2.5625 0 L 2.5625 -0.3125 C 1.890625 -0.3125 1.78125 -0.3125 1.78125 -0.75 L 1.78125 -2.59375 C 1.78125 -3.625 2.5 -4.1875 3.125 -4.1875 C 3.765625 -4.1875 3.875 -3.65625 3.875 -3.078125 L 3.875 -0.75 C 3.875 -0.3125 3.765625 -0.3125 3.09375 -0.3125 L 3.09375 0 C 3.4375 -0.015625 3.953125 -0.03125 4.21875 -0.03125 C 4.46875 -0.03125 5 -0.015625 5.328125 0 L 5.328125 -0.3125 C 4.671875 -0.3125 4.5625 -0.3125 4.5625 -0.75 L 4.5625 -2.59375 C 4.5625 -3.625 5.265625 -4.1875 5.90625 -4.1875 C 6.53125 -4.1875 6.640625 -3.65625 6.640625 -3.078125 L 6.640625 -0.75 C 6.640625 -0.3125 6.53125 -0.3125 5.859375 -0.3125 L 5.859375 0 C 6.203125 -0.015625 6.71875 -0.03125 6.984375 -0.03125 C 7.25 -0.03125 7.765625 -0.015625 8.109375 0 L 8.109375 -0.3125 C 7.59375 -0.3125 7.34375 -0.3125 7.328125 -0.609375 L 7.328125 -2.515625 C 7.328125 -3.375 7.328125 -3.671875 7.015625 -4.03125 C 6.875 -4.203125 6.546875 -4.40625 5.96875 -4.40625 C 5.140625 -4.40625 4.6875 -3.8125 4.53125 -3.421875 C 4.390625 -4.296875 3.65625 -4.40625 3.203125 -4.40625 C 2.46875 -4.40625 2 -3.984375 1.71875 -3.359375 L 1.71875 -4.40625 L 0.3125 -4.296875 L 0.3125 -3.984375 C 1.015625 -3.984375 1.09375 -3.921875 1.09375 -3.421875 Z M 1.09375 -3.421875 "/>
</g>
<g id="glyph-0-10">
<path d="M 1.71875 -3.75 L 1.71875 -4.40625 L 0.28125 -4.296875 L 0.28125 -3.984375 C 0.984375 -3.984375 1.0625 -3.921875 1.0625 -3.484375 L 1.0625 1.171875 C 1.0625 1.625 0.953125 1.625 0.28125 1.625 L 0.28125 1.9375 C 0.625 1.921875 1.140625 1.90625 1.390625 1.90625 C 1.671875 1.90625 2.171875 1.921875 2.515625 1.9375 L 2.515625 1.625 C 1.859375 1.625 1.75 1.625 1.75 1.171875 L 1.75 -0.59375 C 1.796875 -0.421875 2.21875 0.109375 2.96875 0.109375 C 4.15625 0.109375 5.1875 -0.875 5.1875 -2.15625 C 5.1875 -3.421875 4.234375 -4.40625 3.109375 -4.40625 C 2.328125 -4.40625 1.90625 -3.96875 1.71875 -3.75 Z M 1.75 -1.140625 L 1.75 -3.359375 C 2.03125 -3.875 2.515625 -4.15625 3.03125 -4.15625 C 3.765625 -4.15625 4.359375 -3.28125 4.359375 -2.15625 C 4.359375 -0.953125 3.671875 -0.109375 2.9375 -0.109375 C 2.53125 -0.109375 2.15625 -0.3125 1.890625 -0.71875 C 1.75 -0.921875 1.75 -0.9375 1.75 -1.140625 Z M 1.75 -1.140625 "/>
</g>
<g id="glyph-0-11">
<path d="M 3.890625 -0.78125 L 3.890625 0.109375 L 5.328125 0 L 5.328125 -0.3125 C 4.640625 -0.3125 4.5625 -0.375 4.5625 -0.875 L 4.5625 -4.40625 L 3.09375 -4.296875 L 3.09375 -3.984375 C 3.78125 -3.984375 3.875 -3.921875 3.875 -3.421875 L 3.875 -1.65625 C 3.875 -0.78125 3.390625 -0.109375 2.65625 -0.109375 C 1.828125 -0.109375 1.78125 -0.578125 1.78125 -1.09375 L 1.78125 -4.40625 L 0.3125 -4.296875 L 0.3125 -3.984375 C 1.09375 -3.984375 1.09375 -3.953125 1.09375 -3.078125 L 1.09375 -1.578125 C 1.09375 -0.796875 1.09375 0.109375 2.609375 0.109375 C 3.171875 0.109375 3.609375 -0.171875 3.890625 -0.78125 Z M 3.890625 -0.78125 "/>
</g>
<g id="glyph-0-12">
<path d="M 1.71875 -3.984375 L 3.15625 -3.984375 L 3.15625 -4.296875 L 1.71875 -4.296875 L 1.71875 -6.125 L 1.46875 -6.125 C 1.46875 -5.3125 1.171875 -4.25 0.1875 -4.203125 L 0.1875 -3.984375 L 1.03125 -3.984375 L 1.03125 -1.234375 C 1.03125 -0.015625 1.96875 0.109375 2.328125 0.109375 C 3.03125 0.109375 3.3125 -0.59375 3.3125 -1.234375 L 3.3125 -1.796875 L 3.0625 -1.796875 L 3.0625 -1.25 C 3.0625 -0.515625 2.765625 -0.140625 2.390625 -0.140625 C 1.71875 -0.140625 1.71875 -1.046875 1.71875 -1.21875 Z M 1.71875 -3.984375 "/>
</g>
<g id="glyph-0-13">
<path d="M 1.109375 -2.515625 C 1.171875 -4 2.015625 -4.25 2.359375 -4.25 C 3.375 -4.25 3.484375 -2.90625 3.484375 -2.515625 Z M 1.109375 -2.296875 L 3.890625 -2.296875 C 4.109375 -2.296875 4.140625 -2.296875 4.140625 -2.515625 C 4.140625 -3.5 3.59375 -4.46875 2.359375 -4.46875 C 1.203125 -4.46875 0.28125 -3.4375 0.28125 -2.1875 C 0.28125 -0.859375 1.328125 0.109375 2.46875 0.109375 C 3.6875 0.109375 4.140625 -1 4.140625 -1.1875 C 4.140625 -1.28125 4.0625 -1.3125 4 -1.3125 C 3.921875 -1.3125 3.890625 -1.25 3.875 -1.171875 C 3.53125 -0.140625 2.625 -0.140625 2.53125 -0.140625 C 2.03125 -0.140625 1.640625 -0.4375 1.40625 -0.8125 C 1.109375 -1.28125 1.109375 -1.9375 1.109375 -2.296875 Z M 1.109375 -2.296875 "/>
</g>
<g id="glyph-0-14">
<path d="M 2.21875 -3.65625 L 2.21875 -6.09375 C 2.21875 -6.4375 2.234375 -6.5 2.703125 -6.5 L 3.9375 -6.5 C 4.90625 -6.5 5.25 -5.65625 5.25 -5.125 C 5.25 -4.484375 4.765625 -3.65625 3.65625 -3.65625 Z M 4.5625 -3.5625 C 5.53125 -3.75 6.21875 -4.390625 6.21875 -5.125 C 6.21875 -5.984375 5.296875 -6.8125 4 -6.8125 L 0.359375 -6.8125 L 0.359375 -6.5 L 0.59375 -6.5 C 1.359375 -6.5 1.390625 -6.390625 1.390625 -6.03125 L 1.390625 -0.78125 C 1.390625 -0.421875 1.359375 -0.3125 0.59375 -0.3125 L 0.359375 -0.3125 L 0.359375 0 L 4.265625 0 C 5.59375 0 6.484375 -0.890625 6.484375 -1.828125 C 6.484375 -2.6875 5.671875 -3.4375 4.5625 -3.5625 Z M 3.953125 -0.3125 L 2.703125 -0.3125 C 2.234375 -0.3125 2.21875 -0.375 2.21875 -0.703125 L 2.21875 -3.421875 L 4.09375 -3.421875 C 5.078125 -3.421875 5.5 -2.5 5.5 -1.828125 C 5.5 -1.125 4.96875 -0.3125 3.953125 -0.3125 Z M 3.953125 -0.3125 "/>
</g>
<g id="glyph-0-15">
<path d="M 1.765625 -6.921875 L 0.328125 -6.8125 L 0.328125 -6.5 C 1.03125 -6.5 1.109375 -6.4375 1.109375 -5.9375 L 1.109375 -0.75 C 1.109375 -0.3125 1 -0.3125 0.328125 -0.3125 L 0.328125 0 C 0.65625 -0.015625 1.1875 -0.03125 1.4375 -0.03125 C 1.6875 -0.03125 2.171875 -0.015625 2.546875 0 L 2.546875 -0.3125 C 1.875 -0.3125 1.765625 -0.3125 1.765625 -0.75 Z M 1.765625 -6.921875 "/>
</g>
<g id="glyph-0-16">
<path d="M 3.890625 -4 C 3.984375 -4.109375 3.984375 -4.125 3.984375 -4.171875 C 3.984375 -4.296875 3.890625 -4.296875 3.71875 -4.296875 L 0.53125 -4.296875 L 0.421875 -2.6875 L 0.671875 -2.6875 C 0.734375 -3.703125 0.921875 -4.078125 2.015625 -4.078125 L 3.15625 -4.078125 L 0.375 -0.3125 C 0.28125 -0.203125 0.28125 -0.1875 0.28125 -0.140625 C 0.28125 0 0.34375 0 0.53125 0 L 3.828125 0 L 4 -1.859375 L 3.75 -1.859375 C 3.65625 -0.6875 3.453125 -0.25 2.296875 -0.25 L 1.109375 -0.25 Z M 3.890625 -4 "/>
</g>
<g id="glyph-0-17">
<path d="M 3.3125 -0.75 C 3.359375 -0.359375 3.625 0.0625 4.09375 0.0625 C 4.3125 0.0625 4.921875 -0.078125 4.921875 -0.890625 L 4.921875 -1.453125 L 4.671875 -1.453125 L 4.671875 -0.890625 C 4.671875 -0.3125 4.421875 -0.25 4.3125 -0.25 C 3.984375 -0.25 3.9375 -0.703125 3.9375 -0.75 L 3.9375 -2.734375 C 3.9375 -3.15625 3.9375 -3.546875 3.578125 -3.921875 C 3.1875 -4.3125 2.6875 -4.46875 2.21875 -4.46875 C 1.390625 -4.46875 0.703125 -4 0.703125 -3.34375 C 0.703125 -3.046875 0.90625 -2.875 1.171875 -2.875 C 1.453125 -2.875 1.625 -3.078125 1.625 -3.328125 C 1.625 -3.453125 1.578125 -3.78125 1.109375 -3.78125 C 1.390625 -4.140625 1.875 -4.25 2.1875 -4.25 C 2.6875 -4.25 3.25 -3.859375 3.25 -2.96875 L 3.25 -2.609375 C 2.734375 -2.578125 2.046875 -2.546875 1.421875 -2.25 C 0.671875 -1.90625 0.421875 -1.390625 0.421875 -0.953125 C 0.421875 -0.140625 1.390625 0.109375 2.015625 0.109375 C 2.671875 0.109375 3.125 -0.296875 3.3125 -0.75 Z M 3.25 -2.390625 L 3.25 -1.390625 C 3.25 -0.453125 2.53125 -0.109375 2.078125 -0.109375 C 1.59375 -0.109375 1.1875 -0.453125 1.1875 -0.953125 C 1.1875 -1.5 1.609375 -2.328125 3.25 -2.390625 Z M 3.25 -2.390625 "/>
</g>
<g id="glyph-0-18">
<path d="M 1.09375 -3.421875 L 1.09375 -0.75 C 1.09375 -0.3125 0.984375 -0.3125 0.3125 -0.3125 L 0.3125 0 C 0.671875 -0.015625 1.171875 -0.03125 1.453125 -0.03125 C 1.703125 -0.03125 2.21875 -0.015625 2.5625 0 L 2.5625 -0.3125 C 1.890625 -0.3125 1.78125 -0.3125 1.78125 -0.75 L 1.78125 -2.59375 C 1.78125 -3.625 2.5 -4.1875 3.125 -4.1875 C 3.765625 -4.1875 3.875 -3.65625 3.875 -3.078125 L 3.875 -0.75 C 3.875 -0.3125 3.765625 -0.3125 3.09375 -0.3125 L 3.09375 0 C 3.4375 -0.015625 3.953125 -0.03125 4.21875 -0.03125 C 4.46875 -0.03125 5 -0.015625 5.328125 0 L 5.328125 -0.3125 C 4.8125 -0.3125 4.5625 -0.3125 4.5625 -0.609375 L 4.5625 -2.515625 C 4.5625 -3.375 4.5625 -3.671875 4.25 -4.03125 C 4.109375 -4.203125 3.78125 -4.40625 3.203125 -4.40625 C 2.46875 -4.40625 2 -3.984375 1.71875 -3.359375 L 1.71875 -4.40625 L 0.3125 -4.296875 L 0.3125 -3.984375 C 1.015625 -3.984375 1.09375 -3.921875 1.09375 -3.421875 Z M 1.09375 -3.421875 "/>
</g>
<g id="glyph-0-19">
<path d="M 3.78125 -0.546875 L 3.78125 0.109375 L 5.25 0 L 5.25 -0.3125 C 4.5625 -0.3125 4.46875 -0.375 4.46875 -0.875 L 4.46875 -6.921875 L 3.046875 -6.8125 L 3.046875 -6.5 C 3.734375 -6.5 3.8125 -6.4375 3.8125 -5.9375 L 3.8125 -3.78125 C 3.53125 -4.140625 3.09375 -4.40625 2.5625 -4.40625 C 1.390625 -4.40625 0.34375 -3.421875 0.34375 -2.140625 C 0.34375 -0.875 1.3125 0.109375 2.453125 0.109375 C 3.09375 0.109375 3.53125 -0.234375 3.78125 -0.546875 Z M 3.78125 -3.21875 L 3.78125 -1.171875 C 3.78125 -1 3.78125 -0.984375 3.671875 -0.8125 C 3.375 -0.328125 2.9375 -0.109375 2.5 -0.109375 C 2.046875 -0.109375 1.6875 -0.375 1.453125 -0.75 C 1.203125 -1.15625 1.171875 -1.71875 1.171875 -2.140625 C 1.171875 -2.5 1.1875 -3.09375 1.46875 -3.546875 C 1.6875 -3.859375 2.0625 -4.1875 2.609375 -4.1875 C 2.953125 -4.1875 3.375 -4.03125 3.671875 -3.59375 C 3.78125 -3.421875 3.78125 -3.40625 3.78125 -3.21875 Z M 3.78125 -3.21875 "/>
</g>
<g id="glyph-0-20">
<path d="M 6.84375 -3.265625 C 7 -3.265625 7.1875 -3.265625 7.1875 -3.453125 C 7.1875 -3.65625 7 -3.65625 6.859375 -3.65625 L 0.890625 -3.65625 C 0.75 -3.65625 0.5625 -3.65625 0.5625 -3.453125 C 0.5625 -3.265625 0.75 -3.265625 0.890625 -3.265625 Z M 6.859375 -1.328125 C 7 -1.328125 7.1875 -1.328125 7.1875 -1.53125 C 7.1875 -1.71875 7 -1.71875 6.84375 -1.71875 L 0.890625 -1.71875 C 0.75 -1.71875 0.5625 -1.71875 0.5625 -1.53125 C 0.5625 -1.328125 0.75 -1.328125 0.890625 -1.328125 Z M 6.859375 -1.328125 "/>
</g>
<g id="glyph-0-21">
<path d="M 1.671875 -3.3125 L 1.671875 -4.40625 L 0.28125 -4.296875 L 0.28125 -3.984375 C 0.984375 -3.984375 1.0625 -3.921875 1.0625 -3.421875 L 1.0625 -0.75 C 1.0625 -0.3125 0.953125 -0.3125 0.28125 -0.3125 L 0.28125 0 C 0.671875 -0.015625 1.140625 -0.03125 1.421875 -0.03125 C 1.8125 -0.03125 2.28125 -0.03125 2.6875 0 L 2.6875 -0.3125 L 2.46875 -0.3125 C 1.734375 -0.3125 1.71875 -0.421875 1.71875 -0.78125 L 1.71875 -2.3125 C 1.71875 -3.296875 2.140625 -4.1875 2.890625 -4.1875 C 2.953125 -4.1875 2.984375 -4.1875 3 -4.171875 C 2.96875 -4.171875 2.765625 -4.046875 2.765625 -3.78125 C 2.765625 -3.515625 2.984375 -3.359375 3.203125 -3.359375 C 3.375 -3.359375 3.625 -3.484375 3.625 -3.796875 C 3.625 -4.109375 3.3125 -4.40625 2.890625 -4.40625 C 2.15625 -4.40625 1.796875 -3.734375 1.671875 -3.3125 Z M 1.671875 -3.3125 "/>
</g>
<g id="glyph-0-22">
<path d="M 4.140625 -3.3125 C 4.234375 -3.546875 4.40625 -3.984375 5.0625 -3.984375 L 5.0625 -4.296875 C 4.828125 -4.28125 4.546875 -4.265625 4.3125 -4.265625 C 4.078125 -4.265625 3.625 -4.28125 3.453125 -4.296875 L 3.453125 -3.984375 C 3.8125 -3.984375 3.921875 -3.75 3.921875 -3.5625 C 3.921875 -3.46875 3.90625 -3.421875 3.875 -3.3125 L 2.84375 -0.78125 L 1.734375 -3.5625 C 1.671875 -3.6875 1.671875 -3.703125 1.671875 -3.734375 C 1.671875 -3.984375 2.0625 -3.984375 2.25 -3.984375 L 2.25 -4.296875 C 1.9375 -4.28125 1.390625 -4.265625 1.15625 -4.265625 C 0.890625 -4.265625 0.484375 -4.28125 0.1875 -4.296875 L 0.1875 -3.984375 C 0.8125 -3.984375 0.859375 -3.921875 0.984375 -3.625 L 2.421875 -0.078125 C 2.484375 0.0625 2.5 0.109375 2.625 0.109375 C 2.765625 0.109375 2.796875 0.015625 2.84375 -0.078125 Z M 4.140625 -3.3125 "/>
</g>
<g id="glyph-0-23">
<path d="M 2.21875 -1.71875 C 1.34375 -1.71875 1.34375 -2.71875 1.34375 -2.9375 C 1.34375 -3.203125 1.359375 -3.53125 1.5 -3.78125 C 1.578125 -3.890625 1.8125 -4.171875 2.21875 -4.171875 C 3.078125 -4.171875 3.078125 -3.1875 3.078125 -2.953125 C 3.078125 -2.6875 3.078125 -2.359375 2.921875 -2.109375 C 2.84375 -2 2.609375 -1.71875 2.21875 -1.71875 Z M 1.0625 -1.328125 C 1.0625 -1.359375 1.0625 -1.59375 1.21875 -1.796875 C 1.609375 -1.515625 2.03125 -1.484375 2.21875 -1.484375 C 3.140625 -1.484375 3.828125 -2.171875 3.828125 -2.9375 C 3.828125 -3.3125 3.671875 -3.671875 3.421875 -3.90625 C 3.78125 -4.25 4.140625 -4.296875 4.3125 -4.296875 C 4.34375 -4.296875 4.390625 -4.296875 4.421875 -4.28125 C 4.3125 -4.25 4.25 -4.140625 4.25 -4.015625 C 4.25 -3.84375 4.390625 -3.734375 4.546875 -3.734375 C 4.640625 -3.734375 4.828125 -3.796875 4.828125 -4.03125 C 4.828125 -4.203125 4.71875 -4.515625 4.328125 -4.515625 C 4.125 -4.515625 3.6875 -4.453125 3.265625 -4.046875 C 2.84375 -4.375 2.4375 -4.40625 2.21875 -4.40625 C 1.28125 -4.40625 0.59375 -3.71875 0.59375 -2.953125 C 0.59375 -2.515625 0.8125 -2.140625 1.0625 -1.921875 C 0.9375 -1.78125 0.75 -1.453125 0.75 -1.09375 C 0.75 -0.78125 0.890625 -0.40625 1.203125 -0.203125 C 0.59375 -0.046875 0.28125 0.390625 0.28125 0.78125 C 0.28125 1.5 1.265625 2.046875 2.484375 2.046875 C 3.65625 2.046875 4.6875 1.546875 4.6875 0.765625 C 4.6875 0.421875 4.5625 -0.09375 4.046875 -0.375 C 3.515625 -0.640625 2.9375 -0.640625 2.328125 -0.640625 C 2.078125 -0.640625 1.65625 -0.640625 1.578125 -0.65625 C 1.265625 -0.703125 1.0625 -1 1.0625 -1.328125 Z M 2.5 1.828125 C 1.484375 1.828125 0.796875 1.3125 0.796875 0.78125 C 0.796875 0.328125 1.171875 -0.046875 1.609375 -0.0625 L 2.203125 -0.0625 C 3.0625 -0.0625 4.171875 -0.0625 4.171875 0.78125 C 4.171875 1.328125 3.46875 1.828125 2.5 1.828125 Z M 2.5 1.828125 "/>
</g>
<g id="glyph-1-0">
<path d="M 4.5 -4.296875 C 4.5 -4.34375 4.46875 -4.390625 4.40625 -4.390625 C 4.296875 -4.390625 3.890625 -4 3.734375 -3.703125 C 3.515625 -4.25 3.125 -4.40625 2.796875 -4.40625 C 1.625 -4.40625 0.40625 -2.9375 0.40625 -1.484375 C 0.40625 -0.515625 0.984375 0.109375 1.71875 0.109375 C 2.140625 0.109375 2.53125 -0.125 2.890625 -0.484375 C 2.796875 -0.140625 2.46875 1.203125 2.4375 1.296875 C 2.359375 1.578125 2.28125 1.609375 1.71875 1.625 C 1.59375 1.625 1.5 1.625 1.5 1.828125 C 1.5 1.828125 1.5 1.9375 1.625 1.9375 C 1.9375 1.9375 2.296875 1.90625 2.625 1.90625 C 2.953125 1.90625 3.3125 1.9375 3.65625 1.9375 C 3.703125 1.9375 3.828125 1.9375 3.828125 1.734375 C 3.828125 1.625 3.734375 1.625 3.5625 1.625 C 3.09375 1.625 3.09375 1.5625 3.09375 1.46875 C 3.09375 1.390625 3.109375 1.328125 3.125 1.25 Z M 1.75 -0.109375 C 1.140625 -0.109375 1.109375 -0.875 1.109375 -1.046875 C 1.109375 -1.53125 1.390625 -2.609375 1.5625 -3.03125 C 1.875 -3.765625 2.390625 -4.1875 2.796875 -4.1875 C 3.453125 -4.1875 3.59375 -3.375 3.59375 -3.3125 C 3.59375 -3.25 3.046875 -1.0625 3.015625 -1.03125 C 2.859375 -0.75 2.296875 -0.109375 1.75 -0.109375 Z M 1.75 -0.109375 "/>
</g>
<g id="glyph-1-1">
<path d="M 3.328125 -3.015625 C 3.390625 -3.265625 3.625 -4.1875 4.3125 -4.1875 C 4.359375 -4.1875 4.609375 -4.1875 4.8125 -4.0625 C 4.53125 -4 4.34375 -3.765625 4.34375 -3.515625 C 4.34375 -3.359375 4.453125 -3.171875 4.71875 -3.171875 C 4.9375 -3.171875 5.25 -3.34375 5.25 -3.75 C 5.25 -4.265625 4.671875 -4.40625 4.328125 -4.40625 C 3.75 -4.40625 3.40625 -3.875 3.28125 -3.65625 C 3.03125 -4.3125 2.5 -4.40625 2.203125 -4.40625 C 1.171875 -4.40625 0.59375 -3.125 0.59375 -2.875 C 0.59375 -2.765625 0.703125 -2.765625 0.71875 -2.765625 C 0.796875 -2.765625 0.828125 -2.796875 0.84375 -2.875 C 1.1875 -3.9375 1.84375 -4.1875 2.1875 -4.1875 C 2.375 -4.1875 2.71875 -4.09375 2.71875 -3.515625 C 2.71875 -3.203125 2.546875 -2.546875 2.1875 -1.140625 C 2.03125 -0.53125 1.671875 -0.109375 1.234375 -0.109375 C 1.171875 -0.109375 0.953125 -0.109375 0.734375 -0.234375 C 0.984375 -0.296875 1.203125 -0.5 1.203125 -0.78125 C 1.203125 -1.046875 0.984375 -1.125 0.84375 -1.125 C 0.53125 -1.125 0.296875 -0.875 0.296875 -0.546875 C 0.296875 -0.09375 0.78125 0.109375 1.21875 0.109375 C 1.890625 0.109375 2.25 -0.59375 2.265625 -0.640625 C 2.390625 -0.28125 2.75 0.109375 3.34375 0.109375 C 4.375 0.109375 4.9375 -1.171875 4.9375 -1.421875 C 4.9375 -1.53125 4.859375 -1.53125 4.828125 -1.53125 C 4.734375 -1.53125 4.71875 -1.484375 4.6875 -1.421875 C 4.359375 -0.34375 3.6875 -0.109375 3.375 -0.109375 C 2.984375 -0.109375 2.828125 -0.421875 2.828125 -0.765625 C 2.828125 -0.984375 2.875 -1.203125 2.984375 -1.640625 Z M 3.328125 -3.015625 "/>
</g>
<g id="glyph-1-2">
<path d="M 1.859375 -2.296875 C 2.15625 -2.296875 2.890625 -2.328125 3.390625 -2.53125 C 4.09375 -2.828125 4.140625 -3.421875 4.140625 -3.5625 C 4.140625 -4 3.765625 -4.40625 3.078125 -4.40625 C 1.96875 -4.40625 0.453125 -3.4375 0.453125 -1.6875 C 0.453125 -0.671875 1.046875 0.109375 2.03125 0.109375 C 3.453125 0.109375 4.28125 -0.953125 4.28125 -1.0625 C 4.28125 -1.125 4.234375 -1.203125 4.171875 -1.203125 C 4.109375 -1.203125 4.09375 -1.171875 4.03125 -1.09375 C 3.25 -0.109375 2.15625 -0.109375 2.046875 -0.109375 C 1.265625 -0.109375 1.171875 -0.953125 1.171875 -1.265625 C 1.171875 -1.390625 1.1875 -1.6875 1.328125 -2.296875 Z M 1.390625 -2.515625 C 1.78125 -4.03125 2.8125 -4.1875 3.078125 -4.1875 C 3.53125 -4.1875 3.8125 -3.890625 3.8125 -3.5625 C 3.8125 -2.515625 2.21875 -2.515625 1.796875 -2.515625 Z M 1.390625 -2.515625 "/>
</g>
<g id="glyph-1-3">
<path d="M 0.453125 1.21875 C 0.375 1.5625 0.34375 1.625 -0.09375 1.625 C -0.203125 1.625 -0.3125 1.625 -0.3125 1.8125 C -0.3125 1.890625 -0.265625 1.9375 -0.1875 1.9375 C 0.078125 1.9375 0.375 1.90625 0.640625 1.90625 C 0.984375 1.90625 1.3125 1.9375 1.640625 1.9375 C 1.6875 1.9375 1.8125 1.9375 1.8125 1.734375 C 1.8125 1.625 1.71875 1.625 1.578125 1.625 C 1.078125 1.625 1.078125 1.5625 1.078125 1.46875 C 1.078125 1.34375 1.5 -0.28125 1.5625 -0.53125 C 1.6875 -0.234375 1.96875 0.109375 2.484375 0.109375 C 3.640625 0.109375 4.890625 -1.34375 4.890625 -2.8125 C 4.890625 -3.75 4.3125 -4.40625 3.5625 -4.40625 C 3.0625 -4.40625 2.578125 -4.046875 2.25 -3.65625 C 2.15625 -4.203125 1.71875 -4.40625 1.359375 -4.40625 C 0.890625 -4.40625 0.703125 -4.015625 0.625 -3.84375 C 0.4375 -3.5 0.3125 -2.90625 0.3125 -2.875 C 0.3125 -2.765625 0.40625 -2.765625 0.421875 -2.765625 C 0.53125 -2.765625 0.53125 -2.78125 0.59375 -3 C 0.765625 -3.703125 0.96875 -4.1875 1.328125 -4.1875 C 1.5 -4.1875 1.640625 -4.109375 1.640625 -3.734375 C 1.640625 -3.5 1.609375 -3.390625 1.5625 -3.21875 Z M 2.203125 -3.109375 C 2.265625 -3.375 2.546875 -3.65625 2.71875 -3.8125 C 3.078125 -4.109375 3.359375 -4.1875 3.53125 -4.1875 C 3.921875 -4.1875 4.171875 -3.84375 4.171875 -3.25 C 4.171875 -2.65625 3.84375 -1.515625 3.65625 -1.140625 C 3.3125 -0.4375 2.84375 -0.109375 2.46875 -0.109375 C 1.8125 -0.109375 1.6875 -0.9375 1.6875 -1 C 1.6875 -1.015625 1.6875 -1.03125 1.71875 -1.15625 Z M 2.203125 -3.109375 "/>
</g>
<g id="glyph-2-0">
<path d="M 2.25 -1.734375 C 2.828125 -1.984375 3.078125 -2.078125 3.25 -2.171875 C 3.390625 -2.21875 3.453125 -2.25 3.453125 -2.390625 C 3.453125 -2.5 3.359375 -2.609375 3.234375 -2.609375 C 3.1875 -2.609375 3.171875 -2.609375 3.09375 -2.546875 L 2.140625 -1.90625 L 2.25 -2.9375 C 2.265625 -3.0625 2.25 -3.234375 2.03125 -3.234375 C 1.953125 -3.234375 1.8125 -3.1875 1.8125 -3.03125 C 1.8125 -2.96875 1.84375 -2.765625 1.859375 -2.6875 C 1.875 -2.578125 1.921875 -2.0625 1.9375 -1.90625 L 0.984375 -2.546875 C 0.921875 -2.578125 0.90625 -2.609375 0.84375 -2.609375 C 0.703125 -2.609375 0.625 -2.5 0.625 -2.390625 C 0.625 -2.25 0.703125 -2.203125 0.765625 -2.1875 L 1.8125 -1.734375 C 1.25 -1.484375 0.984375 -1.390625 0.8125 -1.3125 C 0.6875 -1.25 0.625 -1.21875 0.625 -1.09375 C 0.625 -0.96875 0.703125 -0.875 0.84375 -0.875 C 0.890625 -0.875 0.90625 -0.875 0.984375 -0.9375 L 1.9375 -1.5625 L 1.8125 -0.453125 C 1.8125 -0.296875 1.953125 -0.234375 2.03125 -0.234375 C 2.125 -0.234375 2.25 -0.296875 2.25 -0.453125 C 2.25 -0.515625 2.21875 -0.71875 2.21875 -0.78125 C 2.203125 -0.90625 2.15625 -1.40625 2.140625 -1.5625 L 2.96875 -1.015625 C 3.15625 -0.875 3.171875 -0.875 3.234375 -0.875 C 3.359375 -0.875 3.453125 -0.96875 3.453125 -1.09375 C 3.453125 -1.234375 3.359375 -1.265625 3.296875 -1.296875 Z M 2.25 -1.734375 "/>
</g>
<g id="glyph-2-1">
<path d="M 5.1875 -1.578125 C 5.296875 -1.578125 5.46875 -1.578125 5.46875 -1.734375 C 5.46875 -1.921875 5.296875 -1.921875 5.1875 -1.921875 L 1.03125 -1.921875 C 0.921875 -1.921875 0.75 -1.921875 0.75 -1.75 C 0.75 -1.578125 0.90625 -1.578125 1.03125 -1.578125 Z M 5.1875 -1.578125 "/>
</g>
<g id="glyph-3-0">
<path d="M 1.578125 -7.125 C 1.578125 -7.296875 1.578125 -7.484375 1.390625 -7.484375 C 1.1875 -7.484375 1.1875 -7.296875 1.1875 -7.125 L 1.1875 2.140625 C 1.1875 2.3125 1.1875 2.5 1.390625 2.5 C 1.578125 2.5 1.578125 2.3125 1.578125 2.140625 Z M 1.578125 -7.125 "/>
</g>
<g id="glyph-3-1">
<path d="M 7.203125 -0.3125 C 7.15625 -0.3125 7 -0.296875 6.96875 -0.296875 C 6.1875 -0.296875 5.65625 -1.078125 5.3125 -1.59375 C 5.21875 -1.765625 4.9375 -2.171875 4.828125 -2.34375 C 5.078125 -2.875 5.734375 -4.109375 6.921875 -4.109375 C 7 -4.109375 7.09375 -4.109375 7.203125 -4.09375 C 7.203125 -4.34375 7.1875 -4.359375 7.171875 -4.375 C 7.09375 -4.390625 6.953125 -4.40625 6.859375 -4.40625 C 5.59375 -4.40625 4.859375 -3.1875 4.609375 -2.6875 C 4.21875 -3.296875 4.078125 -3.515625 3.703125 -3.828125 C 3.09375 -4.359375 2.546875 -4.40625 2.296875 -4.40625 C 1.203125 -4.40625 0.5625 -3.296875 0.5625 -2.140625 C 0.5625 -1.03125 1.171875 0.109375 2.265625 0.109375 C 3.53125 0.109375 4.28125 -1.109375 4.515625 -1.609375 C 4.921875 -1 5.046875 -0.78125 5.421875 -0.46875 C 6.03125 0.0625 6.578125 0.109375 6.828125 0.109375 C 6.953125 0.109375 7.109375 0.09375 7.203125 0.0625 Z M 4.296875 -1.953125 C 4.0625 -1.421875 3.390625 -0.171875 2.203125 -0.171875 C 1.234375 -0.171875 0.78125 -1.234375 0.78125 -2.140625 C 0.78125 -3.125 1.328125 -4 2.15625 -4 C 2.953125 -4 3.484375 -3.21875 3.8125 -2.703125 C 3.921875 -2.53125 4.1875 -2.125 4.296875 -1.953125 Z M 4.296875 -1.953125 "/>
</g>
<g id="glyph-4-0">
<path d="M 2.8125 -2 C 3.15625 -1.203125 3.5625 -0.1875 3.640625 -0.09375 C 3.765625 0.0625 3.890625 0.0625 4 0.0625 L 4.140625 0.0625 C 4.28125 0.0625 4.34375 0.0625 4.34375 -0.015625 C 4.34375 -0.046875 4.328125 -0.0625 4.3125 -0.078125 C 4.234375 -0.15625 4.15625 -0.328125 4.125 -0.390625 L 2.4375 -4.390625 C 2.390625 -4.515625 2.25 -4.84375 1.5 -4.84375 C 1.421875 -4.84375 1.328125 -4.84375 1.328125 -4.734375 C 1.328125 -4.65625 1.390625 -4.640625 1.421875 -4.640625 C 1.578125 -4.625 1.703125 -4.59375 1.875 -4.203125 L 2.703125 -2.25 L 0.65625 -0.390625 C 0.578125 -0.328125 0.515625 -0.265625 0.515625 -0.15625 C 0.515625 0.015625 0.65625 0.078125 0.75 0.078125 C 0.890625 0.078125 0.96875 0 0.984375 -0.03125 Z M 2.8125 -2 "/>
</g>
<g id="glyph-4-1">
<path d="M 3.984375 -4.625 C 3.984375 -4.640625 4 -4.734375 4 -4.734375 C 4 -4.78125 3.984375 -4.84375 3.890625 -4.84375 C 3.75 -4.84375 3.171875 -4.78125 3 -4.765625 C 2.953125 -4.765625 2.84375 -4.75 2.84375 -4.609375 C 2.84375 -4.515625 2.953125 -4.515625 3.03125 -4.515625 C 3.359375 -4.515625 3.359375 -4.453125 3.359375 -4.40625 C 3.359375 -4.359375 3.359375 -4.3125 3.34375 -4.25 L 2.9375 -2.65625 C 2.796875 -2.890625 2.5625 -3.078125 2.21875 -3.078125 C 1.328125 -3.078125 0.421875 -2.09375 0.421875 -1.09375 C 0.421875 -0.40625 0.875 0.0625 1.484375 0.0625 C 1.859375 0.0625 2.1875 -0.140625 2.46875 -0.421875 C 2.59375 0 3 0.0625 3.1875 0.0625 C 3.4375 0.0625 3.609375 -0.078125 3.734375 -0.296875 C 3.890625 -0.578125 3.984375 -0.96875 3.984375 -1 C 3.984375 -1.09375 3.890625 -1.09375 3.875 -1.09375 C 3.765625 -1.09375 3.765625 -1.0625 3.71875 -0.875 C 3.625 -0.53125 3.5 -0.125 3.203125 -0.125 C 3.03125 -0.125 2.96875 -0.28125 2.96875 -0.46875 C 2.96875 -0.59375 2.984375 -0.65625 3.015625 -0.75 Z M 2.5 -0.875 C 2.453125 -0.671875 2.296875 -0.53125 2.140625 -0.40625 C 2.078125 -0.34375 1.796875 -0.125 1.5 -0.125 C 1.234375 -0.125 0.984375 -0.3125 0.984375 -0.796875 C 0.984375 -1.171875 1.1875 -1.9375 1.359375 -2.21875 C 1.671875 -2.78125 2.03125 -2.875 2.21875 -2.875 C 2.703125 -2.875 2.84375 -2.34375 2.84375 -2.265625 C 2.84375 -2.25 2.828125 -2.1875 2.828125 -2.171875 Z M 2.5 -0.875 "/>
</g>
<g id="glyph-4-2">
<path d="M 1.734375 -0.734375 C 1.671875 -0.5 1.4375 -0.125 1.078125 -0.125 C 1.0625 -0.125 0.84375 -0.125 0.703125 -0.21875 C 0.984375 -0.3125 1.015625 -0.5625 1.015625 -0.609375 C 1.015625 -0.765625 0.890625 -0.859375 0.734375 -0.859375 C 0.53125 -0.859375 0.328125 -0.703125 0.328125 -0.4375 C 0.328125 -0.09375 0.71875 0.0625 1.0625 0.0625 C 1.390625 0.0625 1.671875 -0.125 1.84375 -0.421875 C 2.015625 -0.0625 2.390625 0.0625 2.671875 0.0625 C 3.484375 0.0625 3.90625 -0.796875 3.90625 -1 C 3.90625 -1.09375 3.8125 -1.09375 3.796875 -1.09375 C 3.6875 -1.09375 3.6875 -1.046875 3.65625 -0.96875 C 3.515625 -0.484375 3.09375 -0.125 2.703125 -0.125 C 2.421875 -0.125 2.28125 -0.3125 2.28125 -0.578125 C 2.28125 -0.765625 2.453125 -1.390625 2.640625 -2.171875 C 2.78125 -2.703125 3.09375 -2.875 3.328125 -2.875 C 3.34375 -2.875 3.546875 -2.875 3.703125 -2.78125 C 3.484375 -2.71875 3.390625 -2.515625 3.390625 -2.390625 C 3.390625 -2.25 3.515625 -2.140625 3.671875 -2.140625 C 3.828125 -2.140625 4.0625 -2.265625 4.0625 -2.5625 C 4.0625 -2.953125 3.609375 -3.078125 3.34375 -3.078125 C 2.984375 -3.078125 2.703125 -2.84375 2.5625 -2.578125 C 2.4375 -2.859375 2.109375 -3.078125 1.71875 -3.078125 C 0.9375 -3.078125 0.5 -2.21875 0.5 -2 C 0.5 -1.921875 0.59375 -1.921875 0.609375 -1.921875 C 0.703125 -1.921875 0.703125 -1.9375 0.75 -2.03125 C 0.921875 -2.578125 1.359375 -2.875 1.703125 -2.875 C 1.9375 -2.875 2.125 -2.75 2.125 -2.421875 C 2.125 -2.28125 2.03125 -1.9375 1.96875 -1.6875 Z M 1.734375 -0.734375 "/>
</g>
<g id="glyph-4-3">
<path d="M 1.46875 -0.109375 C 1.46875 0.265625 1.40625 0.71875 0.921875 1.15625 C 0.90625 1.1875 0.875 1.21875 0.875 1.25 C 0.875 1.296875 0.9375 1.34375 0.96875 1.34375 C 1.078125 1.34375 1.671875 0.78125 1.671875 -0.046875 C 1.671875 -0.46875 1.5 -0.796875 1.171875 -0.796875 C 0.953125 -0.796875 0.78125 -0.625 0.78125 -0.40625 C 0.78125 -0.1875 0.9375 0 1.1875 0 C 1.359375 0 1.46875 -0.109375 1.46875 -0.109375 Z M 1.46875 -0.109375 "/>
</g>
<g id="glyph-5-0">
<path d="M 2.46875 -5.21875 C 1.15625 -4.296875 0.796875 -2.8125 0.796875 -1.75 C 0.796875 -0.765625 1.09375 0.765625 2.46875 1.734375 C 2.53125 1.734375 2.609375 1.734375 2.609375 1.65625 C 2.609375 1.609375 2.59375 1.59375 2.546875 1.546875 C 1.609375 0.703125 1.28125 -0.46875 1.28125 -1.734375 C 1.28125 -3.625 2 -4.546875 2.5625 -5.0625 C 2.59375 -5.09375 2.609375 -5.109375 2.609375 -5.140625 C 2.609375 -5.21875 2.53125 -5.21875 2.46875 -5.21875 Z M 2.46875 -5.21875 "/>
</g>
<g id="glyph-5-1">
<path d="M 1.984375 -4.84375 L 0.9375 -3.90625 L 1.09375 -3.734375 L 1.984375 -4.421875 L 2.859375 -3.734375 L 3.015625 -3.90625 Z M 1.984375 -4.84375 "/>
</g>
<g id="glyph-5-2">
<path d="M 0.625 -5.21875 C 0.578125 -5.21875 0.5 -5.21875 0.5 -5.140625 C 0.5 -5.109375 0.515625 -5.09375 0.5625 -5.03125 C 1.15625 -4.484375 1.828125 -3.546875 1.828125 -1.75 C 1.828125 -0.296875 1.375 0.8125 0.625 1.484375 C 0.5 1.609375 0.5 1.609375 0.5 1.65625 C 0.5 1.6875 0.515625 1.734375 0.578125 1.734375 C 0.671875 1.734375 1.328125 1.28125 1.796875 0.40625 C 2.09375 -0.171875 2.296875 -0.921875 2.296875 -1.734375 C 2.296875 -2.71875 2 -4.25 0.625 -5.21875 Z M 0.625 -5.21875 "/>
</g>
<g id="glyph-6-0">
<path d="M 4.203125 5.328125 L 0.65625 9.703125 C 0.578125 9.796875 0.5625 9.8125 0.5625 9.859375 C 0.5625 9.96875 0.65625 9.96875 0.84375 9.96875 L 9.09375 9.96875 L 9.953125 7.484375 L 9.703125 7.484375 C 9.453125 8.234375 8.796875 8.84375 7.9375 9.125 C 7.78125 9.1875 7.09375 9.421875 5.625 9.421875 L 1.390625 9.421875 L 4.859375 5.140625 C 4.921875 5.046875 4.9375 5.03125 4.9375 4.984375 C 4.9375 4.9375 4.9375 4.9375 4.875 4.84375 L 1.640625 0.40625 L 5.578125 0.40625 C 6.71875 0.40625 9.015625 0.46875 9.703125 2.328125 L 9.953125 2.328125 L 9.09375 0 L 0.84375 0 C 0.5625 0 0.5625 0.015625 0.5625 0.3125 Z M 4.203125 5.328125 "/>
</g>
</g>
<clipPath id="clip-0">
<path clip-rule="nonzero" d="M 217 0 L 373.285156 0 L 373.285156 57 L 217 57 Z M 217 0 "/>
</clipPath>
</defs>
<path fill="none" stroke-width="0.79701" stroke-linecap="butt" stroke-linejoin="miter" stroke="rgb(0%, 0%, 0%)" stroke-opacity="1" stroke-miterlimit="10" d="M -0.000375 3.984219 L -0.000375 38.535 C -0.000375 40.734219 1.784781 42.519375 3.984 42.519375 L 137.749625 42.519375 C 139.948844 42.519375 141.734 40.734219 141.734 38.535 L 141.734 3.984219 C 141.734 1.785 139.948844 -0.00015625 137.749625 -0.00015625 L 3.984 -0.00015625 C 1.784781 -0.00015625 -0.000375 1.785 -0.000375 3.984219 Z M -0.000375 3.984219 " transform="matrix(1, 0, 0, -1, 2.391, 44.91)"/>
<g fill="rgb(0%, 0%, 0%)" fill-opacity="1">
<use xlink:href="#glyph-0-0" x="33.623" y="20.163"/>
<use xlink:href="#glyph-0-1" x="40.126585" y="20.163"/>
<use xlink:href="#glyph-0-2" x="42.894196" y="20.163"/>
</g>
<g fill="rgb(0%, 0%, 0%)" fill-opacity="1">
<use xlink:href="#glyph-1-0" x="51.470002" y="20.163"/>
</g>
<g fill="rgb(0%, 0%, 0%)" fill-opacity="1">
<use xlink:href="#glyph-0-3" x="56.27596" y="20.163"/>
</g>
<g fill="rgb(0%, 0%, 0%)" fill-opacity="1">
<use xlink:href="#glyph-0-4" x="60.788021" y="20.163"/>
</g>
<g fill="rgb(0%, 0%, 0%)" fill-opacity="1">
<use xlink:href="#glyph-1-1" x="60.150415" y="20.163"/>
</g>
<g fill="rgb(0%, 0%, 0%)" fill-opacity="1">
<use xlink:href="#glyph-0-5" x="65.844041" y="20.163"/>
<use xlink:href="#glyph-0-6" x="69.718496" y="20.163"/>
</g>
<g fill="rgb(0%, 0%, 0%)" fill-opacity="1">
<use xlink:href="#glyph-0-7" x="75.803652" y="20.163"/>
</g>
<g fill="rgb(0%, 0%, 0%)" fill-opacity="1">
<use xlink:href="#glyph-0-8" x="80.240994" y="20.163"/>
<use xlink:href="#glyph-0-9" x="85.222294" y="20.163"/>
<use xlink:href="#glyph-0-10" x="93.524129" y="20.163"/>
<use xlink:href="#glyph-0-11" x="99.059349" y="20.163"/>
</g>
<g fill="rgb(0%, 0%, 0%)" fill-opacity="1">
<use xlink:href="#glyph-0-12" x="104.584607" y="20.163"/>
<use xlink:href="#glyph-0-13" x="108.459062" y="20.163"/>
</g>
<g fill="rgb(0%, 0%, 0%)" fill-opacity="1">
<use xlink:href="#glyph-1-0" x="22.915" y="32.119"/>
</g>
<g fill="rgb(0%, 0%, 0%)" fill-opacity="1">
<use xlink:href="#glyph-2-0" x="27.72" y="28.503"/>
</g>
<g fill="rgb(0%, 0%, 0%)" fill-opacity="1">
<use xlink:href="#glyph-0-3" x="32.3" y="32.119"/>
</g>
<g fill="rgb(0%, 0%, 0%)" fill-opacity="1">
<use xlink:href="#glyph-0-4" x="36.812062" y="32.119"/>
</g>
<g fill="rgb(0%, 0%, 0%)" fill-opacity="1">
<use xlink:href="#glyph-1-1" x="36.174455" y="32.119"/>
</g>
<g fill="rgb(0%, 0%, 0%)" fill-opacity="1">
<use xlink:href="#glyph-3-0" x="41.868081" y="32.119"/>
</g>
<g fill="rgb(0%, 0%, 0%)" fill-opacity="1">
<use xlink:href="#glyph-1-1" x="44.635691" y="32.119"/>
</g>
<g fill="rgb(0%, 0%, 0%)" fill-opacity="1">
<use xlink:href="#glyph-0-5" x="50.329317" y="32.119"/>
</g>
<g fill="rgb(0%, 0%, 0%)" fill-opacity="1">
<use xlink:href="#glyph-3-1" x="56.973375" y="32.119"/>
</g>
<g fill="rgb(0%, 0%, 0%)" fill-opacity="1">
<use xlink:href="#glyph-1-0" x="67.491888" y="32.119"/>
</g>
<g fill="rgb(0%, 0%, 0%)" fill-opacity="1">
<use xlink:href="#glyph-0-3" x="72.287884" y="32.119"/>
</g>
<g fill="rgb(0%, 0%, 0%)" fill-opacity="1">
<use xlink:href="#glyph-0-4" x="76.799945" y="32.119"/>
</g>
<g fill="rgb(0%, 0%, 0%)" fill-opacity="1">
<use xlink:href="#glyph-1-1" x="76.162339" y="32.119"/>
</g>
<g fill="rgb(0%, 0%, 0%)" fill-opacity="1">
<use xlink:href="#glyph-0-5" x="81.855965" y="32.119"/>
</g>
<g fill="rgb(0%, 0%, 0%)" fill-opacity="1">
<use xlink:href="#glyph-1-2" x="85.73042" y="32.119"/>
</g>
<g fill="rgb(0%, 0%, 0%)" fill-opacity="1">
<use xlink:href="#glyph-2-1" x="90.374" y="28.503"/>
</g>
<g fill="rgb(0%, 0%, 0%)" fill-opacity="1">
<use xlink:href="#glyph-4-0" x="96.600906" y="28.503"/>
<use xlink:href="#glyph-4-1" x="101.326353" y="28.503"/>
</g>
<g fill="rgb(0%, 0%, 0%)" fill-opacity="1">
<use xlink:href="#glyph-5-0" x="105.473672" y="28.503"/>
</g>
<g fill="rgb(0%, 0%, 0%)" fill-opacity="1">
<use xlink:href="#glyph-4-2" x="108.586776" y="28.503"/>
<use xlink:href="#glyph-4-3" x="113.104404" y="28.503"/>
</g>
<g fill="rgb(0%, 0%, 0%)" fill-opacity="1">
<use xlink:href="#glyph-5-1" x="115.95878" y="28.503"/>
</g>
<g fill="rgb(0%, 0%, 0%)" fill-opacity="1">
<use xlink:href="#glyph-4-2" x="115.467127" y="28.503"/>
</g>
<g fill="rgb(0%, 0%, 0%)" fill-opacity="1">
<use xlink:href="#glyph-5-2" x="119.984755" y="28.503"/>
</g>
<path fill="none" stroke-width="0.79701" stroke-linecap="butt" stroke-linejoin="miter" stroke="rgb(0%, 0%, 0%)" stroke-opacity="1" stroke-miterlimit="10" d="M 155.905875 21.261562 L 211.804313 21.261562 " transform="matrix(1, 0, 0, -1, 2.391, 44.91)"/>
<path fill="none" stroke-width="0.79701" stroke-linecap="round" stroke-linejoin="round" stroke="rgb(0%, 0%, 0%)" stroke-opacity="1" stroke-miterlimit="10" d="M -2.550591 3.110837 C -2.085747 1.24365 -1.046685 0.364744 0.00019 0.0014625 C -1.046685 -0.361819 -2.085747 -1.244631 -2.550591 -3.111819 " transform="matrix(1, 0, 0, -1, 214.59356, 23.6499)"/>
<g fill="rgb(0%, 0%, 0%)" fill-opacity="1">
<use xlink:href="#glyph-0-14" x="162.912" y="20.131"/>
<use xlink:href="#glyph-0-8" x="169.96851" y="20.131"/>
<use xlink:href="#glyph-0-15" x="174.94981" y="20.131"/>
<use xlink:href="#glyph-0-12" x="177.71742" y="20.131"/>
<use xlink:href="#glyph-0-16" x="181.591875" y="20.131"/>
<use xlink:href="#glyph-0-9" x="186.019254" y="20.131"/>
<use xlink:href="#glyph-0-17" x="194.321089" y="20.131"/>
<use xlink:href="#glyph-0-18" x="199.302389" y="20.131"/>
<use xlink:href="#glyph-0-18" x="204.83761" y="20.131"/>
</g>
<g clip-path="url(#clip-0)">
<path fill="none" stroke-width="0.79701" stroke-linecap="butt" stroke-linejoin="miter" stroke="rgb(0%, 0%, 0%)" stroke-opacity="1" stroke-miterlimit="10" d="M 226.773063 3.984219 L 226.773063 38.535 C 226.773063 40.734219 228.558219 42.519375 230.761344 42.519375 L 364.523062 42.519375 C 366.726187 42.519375 368.507437 40.734219 368.507437 38.535 L 368.507437 3.984219 C 368.507437 1.785 366.726187 -0.00015625 364.523062 -0.00015625 L 230.761344 -0.00015625 C 228.558219 -0.00015625 226.773063 1.785 226.773063 3.984219 Z M 226.773063 3.984219 " transform="matrix(1, 0, 0, -1, 2.391, 44.91)"/>
</g>
<g fill="rgb(0%, 0%, 0%)" fill-opacity="1">
<use xlink:href="#glyph-0-0" x="257.333" y="19.914"/>
<use xlink:href="#glyph-0-1" x="263.836585" y="19.914"/>
<use xlink:href="#glyph-0-2" x="266.604196" y="19.914"/>
</g>
<g fill="rgb(0%, 0%, 0%)" fill-opacity="1">
<use xlink:href="#glyph-1-0" x="275.180002" y="19.914"/>
</g>
<g fill="rgb(0%, 0%, 0%)" fill-opacity="1">
<use xlink:href="#glyph-2-0" x="279.987" y="16.299"/>
</g>
<g fill="rgb(0%, 0%, 0%)" fill-opacity="1">
<use xlink:href="#glyph-0-3" x="284.568" y="19.914"/>
</g>
<g fill="rgb(0%, 0%, 0%)" fill-opacity="1">
<use xlink:href="#glyph-0-4" x="289.070099" y="19.914"/>
</g>
<g fill="rgb(0%, 0%, 0%)" fill-opacity="1">
<use xlink:href="#glyph-1-1" x="288.442455" y="19.914"/>
</g>
<g fill="rgb(0%, 0%, 0%)" fill-opacity="1">
<use xlink:href="#glyph-3-0" x="294.136081" y="19.914"/>
</g>
<g fill="rgb(0%, 0%, 0%)" fill-opacity="1">
<use xlink:href="#glyph-1-1" x="296.903691" y="19.914"/>
</g>
<g fill="rgb(0%, 0%, 0%)" fill-opacity="1">
<use xlink:href="#glyph-0-5" x="302.597317" y="19.914"/>
<use xlink:href="#glyph-0-6" x="306.471772" y="19.914"/>
</g>
<g fill="rgb(0%, 0%, 0%)" fill-opacity="1">
<use xlink:href="#glyph-0-11" x="312.556928" y="19.914"/>
<use xlink:href="#glyph-0-10" x="318.092149" y="19.914"/>
</g>
<g fill="rgb(0%, 0%, 0%)" fill-opacity="1">
<use xlink:href="#glyph-0-19" x="323.906322" y="19.914"/>
<use xlink:href="#glyph-0-17" x="329.441543" y="19.914"/>
<use xlink:href="#glyph-0-12" x="334.422843" y="19.914"/>
<use xlink:href="#glyph-0-13" x="338.297298" y="19.914"/>
</g>
<g fill="rgb(0%, 0%, 0%)" fill-opacity="1">
<use xlink:href="#glyph-1-0" x="250.795" y="31.87"/>
</g>
<g fill="rgb(0%, 0%, 0%)" fill-opacity="1">
<use xlink:href="#glyph-0-3" x="255.600958" y="31.87"/>
</g>
<g fill="rgb(0%, 0%, 0%)" fill-opacity="1">
<use xlink:href="#glyph-0-4" x="260.103057" y="31.87"/>
</g>
<g fill="rgb(0%, 0%, 0%)" fill-opacity="1">
<use xlink:href="#glyph-1-1" x="259.475413" y="31.87"/>
</g>
<g fill="rgb(0%, 0%, 0%)" fill-opacity="1">
<use xlink:href="#glyph-0-5" x="265.169039" y="31.87"/>
</g>
<g fill="rgb(0%, 0%, 0%)" fill-opacity="1">
<use xlink:href="#glyph-0-20" x="271.813097" y="31.87"/>
</g>
<g fill="rgb(0%, 0%, 0%)" fill-opacity="1">
<use xlink:href="#glyph-6-0" x="282.326" y="24.398"/>
</g>
<g fill="rgb(0%, 0%, 0%)" fill-opacity="1">
<use xlink:href="#glyph-4-2" x="292.842" y="34.858"/>
</g>
<g fill="rgb(0%, 0%, 0%)" fill-opacity="1">
<use xlink:href="#glyph-1-3" x="299.518" y="31.87"/>
</g>
<g fill="rgb(0%, 0%, 0%)" fill-opacity="1">
<use xlink:href="#glyph-0-3" x="304.530184" y="31.87"/>
</g>
<g fill="rgb(0%, 0%, 0%)" fill-opacity="1">
<use xlink:href="#glyph-1-1" x="308.404639" y="31.87"/>
</g>
<g fill="rgb(0%, 0%, 0%)" fill-opacity="1">
<use xlink:href="#glyph-0-5" x="314.098265" y="31.87"/>
</g>
<g fill="rgb(0%, 0%, 0%)" fill-opacity="1">
<use xlink:href="#glyph-1-0" x="317.97272" y="31.87"/>
</g>
<g fill="rgb(0%, 0%, 0%)" fill-opacity="1">
<use xlink:href="#glyph-2-0" x="322.778" y="28.254"/>
</g>
<g fill="rgb(0%, 0%, 0%)" fill-opacity="1">
<use xlink:href="#glyph-0-3" x="327.358" y="31.87"/>
</g>
<g fill="rgb(0%, 0%, 0%)" fill-opacity="1">
<use xlink:href="#glyph-0-4" x="331.870062" y="31.87"/>
</g>
<g fill="rgb(0%, 0%, 0%)" fill-opacity="1">
<use xlink:href="#glyph-1-1" x="331.232455" y="31.87"/>
</g>
<g fill="rgb(0%, 0%, 0%)" fill-opacity="1">
<use xlink:href="#glyph-3-0" x="336.926081" y="31.87"/>
</g>
<g fill="rgb(0%, 0%, 0%)" fill-opacity="1">
<use xlink:href="#glyph-1-1" x="339.693691" y="31.87"/>
</g>
<g fill="rgb(0%, 0%, 0%)" fill-opacity="1">
<use xlink:href="#glyph-0-5" x="345.387317" y="31.87"/>
</g>
<path fill="none" stroke-width="0.79701" stroke-linecap="butt" stroke-linejoin="miter" stroke="rgb(0%, 0%, 0%)" stroke-opacity="1" stroke-miterlimit="10" d="M 297.64025 -0.00015625 L 297.64025 -22.675938 L 70.866812 -22.675938 L 70.866812 -0.797031 " transform="matrix(1, 0, 0, -1, 2.391, 44.91)"/>
<path fill="none" stroke-width="0.79701" stroke-linecap="round" stroke-linejoin="round" stroke="rgb(0%, 0%, 0%)" stroke-opacity="1" stroke-miterlimit="10" d="M -2.550875 3.109563 C -2.086031 1.246281 -1.046969 0.363469 -0.00009375 0.0001875 C -1.046969 -0.363094 -2.086031 -1.245906 -2.550875 -3.109187 " transform="matrix(0, -1, -1, 0, 73.258, 45.3085)"/>
<g fill="rgb(0%, 0%, 0%)" fill-opacity="1">
<use xlink:href="#glyph-0-21" x="133.619" y="78.026"/>
<use xlink:href="#glyph-0-13" x="137.52135" y="78.026"/>
<use xlink:href="#glyph-0-10" x="141.94873" y="78.026"/>
</g>
<g fill="rgb(0%, 0%, 0%)" fill-opacity="1">
<use xlink:href="#glyph-0-13" x="147.762903" y="78.026"/>
<use xlink:href="#glyph-0-17" x="152.190283" y="78.026"/>
<use xlink:href="#glyph-0-12" x="157.171583" y="78.026"/>
</g>
<g fill="rgb(0%, 0%, 0%)" fill-opacity="1">
<use xlink:href="#glyph-0-11" x="164.363584" y="78.026"/>
<use xlink:href="#glyph-0-18" x="169.898804" y="78.026"/>
</g>
<g fill="rgb(0%, 0%, 0%)" fill-opacity="1">
<use xlink:href="#glyph-0-12" x="175.155072" y="78.026"/>
<use xlink:href="#glyph-0-1" x="179.029527" y="78.026"/>
<use xlink:href="#glyph-0-15" x="181.797137" y="78.026"/>
</g>
<g fill="rgb(0%, 0%, 0%)" fill-opacity="1">
<use xlink:href="#glyph-0-7" x="187.892256" y="78.026"/>
<use xlink:href="#glyph-0-8" x="192.319635" y="78.026"/>
<use xlink:href="#glyph-0-18" x="197.300935" y="78.026"/>
</g>
<g fill="rgb(0%, 0%, 0%)" fill-opacity="1">
<use xlink:href="#glyph-0-22" x="202.557203" y="78.026"/>
</g>
<g fill="rgb(0%, 0%, 0%)" fill-opacity="1">
<use xlink:href="#glyph-0-13" x="207.536511" y="78.026"/>
<use xlink:href="#glyph-0-21" x="211.96389" y="78.026"/>
<use xlink:href="#glyph-0-23" x="215.866241" y="78.026"/>
<use xlink:href="#glyph-0-13" x="220.847541" y="78.026"/>
<use xlink:href="#glyph-0-18" x="225.27492" y="78.026"/>
<use xlink:href="#glyph-0-7" x="230.810141" y="78.026"/>
<use xlink:href="#glyph-0-13" x="235.23752" y="78.026"/>
</g>
</svg>
