<?xml version="1.0" encoding="UTF-8"?>
<svg xmlns="http://www.w3.org/2000/svg" xmlns:xlink="http://www.w3.org/1999/xlink" width="400.326pt" height="313.196pt" viewBox="0 0 400.326 313.196">
<defs>
<g>
<g id="glyph-0-0">
<path d="M 2.9375 -6.375 C 2.9375 -6.625 2.9375 -6.640625 2.703125 -6.640625 C 2.078125 -6 1.203125 -6 0.890625 -6 L 0.890625 -5.6875 C 1.09375 -5.6875 1.671875 -5.6875 2.1875 -5.953125 L 2.1875 -0.78125 C 2.1875 -0.421875 2.15625 -0.3125 1.265625 -0.3125 L 0.953125 -0.3125 L 0.953125 0 C 1.296875 -0.03125 2.15625 -0.03125 2.5625 -0.03125 C 2.953125 -0.03125 3.828125 -0.03125 4.171875 0 L 4.171875 -0.3125 L 3.859375 -0.3125 C 2.953125 -0.3125 2.9375 -0.421875 2.9375 -0.78125 Z M 2.9375 -6.375 "/>
</g>
<g id="glyph-0-1">
<path d="M 4.46875 -2 C 4.46875 -3.1875 3.65625 -4.1875 2.578125 -4.1875 C 2.109375 -4.1875 1.671875 -4.03125 1.3125 -3.671875 L 1.3125 -5.625 C 1.515625 -5.5625 1.84375 -5.5 2.15625 -5.5 C 3.390625 -5.5 4.09375 -6.40625 4.09375 -6.53125 C 4.09375 -6.59375 4.0625 -6.640625 3.984375 -6.640625 C 3.984375 -6.640625 3.953125 -6.640625 3.90625 -6.609375 C 3.703125 -6.515625 3.21875 -6.3125 2.546875 -6.3125 C 2.15625 -6.3125 1.6875 -6.390625 1.21875 -6.59375 C 1.140625 -6.625 1.125 -6.625 1.109375 -6.625 C 1 -6.625 1 -6.546875 1 -6.390625 L 1 -3.4375 C 1 -3.265625 1 -3.1875 1.140625 -3.1875 C 1.21875 -3.1875 1.234375 -3.203125 1.28125 -3.265625 C 1.390625 -3.421875 1.75 -3.96875 2.5625 -3.96875 C 3.078125 -3.96875 3.328125 -3.515625 3.40625 -3.328125 C 3.5625 -2.953125 3.59375 -2.578125 3.59375 -2.078125 C 3.59375 -1.71875 3.59375 -1.125 3.34375 -0.703125 C 3.109375 -0.3125 2.734375 -0.0625 2.28125 -0.0625 C 1.5625 -0.0625 0.984375 -0.59375 0.8125 -1.171875 C 0.84375 -1.171875 0.875 -1.15625 0.984375 -1.15625 C 1.3125 -1.15625 1.484375 -1.40625 1.484375 -1.640625 C 1.484375 -1.890625 1.3125 -2.140625 0.984375 -2.140625 C 0.84375 -2.140625 0.5 -2.0625 0.5 -1.609375 C 0.5 -0.75 1.1875 0.21875 2.296875 0.21875 C 3.453125 0.21875 4.46875 -0.734375 4.46875 -2 Z M 4.46875 -2 "/>
</g>
<g id="glyph-0-2">
<path d="M 1.265625 -0.765625 L 2.328125 -1.796875 C 3.875 -3.171875 4.46875 -3.703125 4.46875 -4.703125 C 4.46875 -5.84375 3.578125 -6.640625 2.359375 -6.640625 C 1.234375 -6.640625 0.5 -5.71875 0.5 -4.828125 C 0.5 -4.28125 1 -4.28125 1.03125 -4.28125 C 1.203125 -4.28125 1.546875 -4.390625 1.546875 -4.8125 C 1.546875 -5.0625 1.359375 -5.328125 1.015625 -5.328125 C 0.9375 -5.328125 0.921875 -5.328125 0.890625 -5.3125 C 1.109375 -5.96875 1.65625 -6.328125 2.234375 -6.328125 C 3.140625 -6.328125 3.5625 -5.515625 3.5625 -4.703125 C 3.5625 -3.90625 3.078125 -3.125 2.515625 -2.5 L 0.609375 -0.375 C 0.5 -0.265625 0.5 -0.234375 0.5 0 L 4.203125 0 L 4.46875 -1.734375 L 4.234375 -1.734375 C 4.171875 -1.4375 4.109375 -1 4 -0.84375 C 3.9375 -0.765625 3.28125 -0.765625 3.0625 -0.765625 Z M 1.265625 -0.765625 "/>
</g>
<g id="glyph-0-3">
<path d="M 2.890625 -3.515625 C 3.703125 -3.78125 4.28125 -4.46875 4.28125 -5.265625 C 4.28125 -6.078125 3.40625 -6.640625 2.453125 -6.640625 C 1.453125 -6.640625 0.6875 -6.046875 0.6875 -5.28125 C 0.6875 -4.953125 0.90625 -4.765625 1.203125 -4.765625 C 1.5 -4.765625 1.703125 -4.984375 1.703125 -5.28125 C 1.703125 -5.765625 1.234375 -5.765625 1.09375 -5.765625 C 1.390625 -6.265625 2.046875 -6.390625 2.40625 -6.390625 C 2.828125 -6.390625 3.375 -6.171875 3.375 -5.28125 C 3.375 -5.15625 3.34375 -4.578125 3.09375 -4.140625 C 2.796875 -3.65625 2.453125 -3.625 2.203125 -3.625 C 2.125 -3.609375 1.890625 -3.59375 1.8125 -3.59375 C 1.734375 -3.578125 1.671875 -3.5625 1.671875 -3.46875 C 1.671875 -3.359375 1.734375 -3.359375 1.90625 -3.359375 L 2.34375 -3.359375 C 3.15625 -3.359375 3.53125 -2.6875 3.53125 -1.703125 C 3.53125 -0.34375 2.84375 -0.0625 2.40625 -0.0625 C 1.96875 -0.0625 1.21875 -0.234375 0.875 -0.8125 C 1.21875 -0.765625 1.53125 -0.984375 1.53125 -1.359375 C 1.53125 -1.71875 1.265625 -1.921875 0.984375 -1.921875 C 0.734375 -1.921875 0.421875 -1.78125 0.421875 -1.34375 C 0.421875 -0.4375 1.34375 0.21875 2.4375 0.21875 C 3.65625 0.21875 4.5625 -0.6875 4.5625 -1.703125 C 4.5625 -2.515625 3.921875 -3.296875 2.890625 -3.515625 Z M 2.890625 -3.515625 "/>
</g>
<g id="glyph-0-4">
<path d="M 2.9375 -1.640625 L 2.9375 -0.78125 C 2.9375 -0.421875 2.90625 -0.3125 2.171875 -0.3125 L 1.96875 -0.3125 L 1.96875 0 C 2.375 -0.03125 2.890625 -0.03125 3.3125 -0.03125 C 3.734375 -0.03125 4.25 -0.03125 4.671875 0 L 4.671875 -0.3125 L 4.453125 -0.3125 C 3.71875 -0.3125 3.703125 -0.421875 3.703125 -0.78125 L 3.703125 -1.640625 L 4.6875 -1.640625 L 4.6875 -1.953125 L 3.703125 -1.953125 L 3.703125 -6.484375 C 3.703125 -6.6875 3.703125 -6.75 3.53125 -6.75 C 3.453125 -6.75 3.421875 -6.75 3.34375 -6.625 L 0.28125 -1.953125 L 0.28125 -1.640625 Z M 2.984375 -1.953125 L 0.5625 -1.953125 L 2.984375 -5.671875 Z M 2.984375 -1.953125 "/>
</g>
<g id="glyph-0-5">
<path d="M 4.578125 -3.1875 C 4.578125 -3.984375 4.53125 -4.78125 4.1875 -5.515625 C 3.734375 -6.484375 2.90625 -6.640625 2.5 -6.640625 C 1.890625 -6.640625 1.171875 -6.375 0.75 -5.453125 C 0.4375 -4.765625 0.390625 -3.984375 0.390625 -3.1875 C 0.390625 -2.4375 0.421875 -1.546875 0.84375 -0.78125 C 1.265625 0.015625 2 0.21875 2.484375 0.21875 C 3.015625 0.21875 3.78125 0.015625 4.21875 -0.9375 C 4.53125 -1.625 4.578125 -2.40625 4.578125 -3.1875 Z M 2.484375 0 C 2.09375 0 1.5 -0.25 1.328125 -1.203125 C 1.21875 -1.796875 1.21875 -2.71875 1.21875 -3.3125 C 1.21875 -3.953125 1.21875 -4.609375 1.296875 -5.140625 C 1.484375 -6.328125 2.234375 -6.421875 2.484375 -6.421875 C 2.8125 -6.421875 3.46875 -6.234375 3.65625 -5.25 C 3.765625 -4.6875 3.765625 -3.9375 3.765625 -3.3125 C 3.765625 -2.5625 3.765625 -1.890625 3.65625 -1.25 C 3.5 -0.296875 2.9375 0 2.484375 0 Z M 2.484375 0 "/>
</g>
<g id="glyph-0-6">
<path d="M 1.3125 -3.265625 L 1.3125 -3.515625 C 1.3125 -6.03125 2.546875 -6.390625 3.0625 -6.390625 C 3.296875 -6.390625 3.71875 -6.328125 3.9375 -5.984375 C 3.78125 -5.984375 3.390625 -5.984375 3.390625 -5.546875 C 3.390625 -5.234375 3.625 -5.078125 3.84375 -5.078125 C 4 -5.078125 4.3125 -5.171875 4.3125 -5.5625 C 4.3125 -6.15625 3.875 -6.640625 3.046875 -6.640625 C 1.765625 -6.640625 0.421875 -5.359375 0.421875 -3.15625 C 0.421875 -0.484375 1.578125 0.21875 2.5 0.21875 C 3.609375 0.21875 4.5625 -0.71875 4.5625 -2.03125 C 4.5625 -3.296875 3.671875 -4.25 2.5625 -4.25 C 1.890625 -4.25 1.515625 -3.75 1.3125 -3.265625 Z M 2.5 -0.0625 C 1.875 -0.0625 1.578125 -0.65625 1.515625 -0.8125 C 1.328125 -1.28125 1.328125 -2.078125 1.328125 -2.25 C 1.328125 -3.03125 1.65625 -4.03125 2.546875 -4.03125 C 2.71875 -4.03125 3.171875 -4.03125 3.484375 -3.40625 C 3.65625 -3.046875 3.65625 -2.53125 3.65625 -2.046875 C 3.65625 -1.5625 3.65625 -1.0625 3.484375 -0.703125 C 3.1875 -0.109375 2.734375 -0.0625 2.5 -0.0625 Z M 2.5 -0.0625 "/>
</g>
<g id="glyph-0-7">
<path d="M 1.625 -4.5625 C 1.171875 -4.859375 1.125 -5.1875 1.125 -5.359375 C 1.125 -5.96875 1.78125 -6.390625 2.484375 -6.390625 C 3.203125 -6.390625 3.84375 -5.875 3.84375 -5.15625 C 3.84375 -4.578125 3.453125 -4.109375 2.859375 -3.765625 Z M 3.078125 -3.609375 C 3.796875 -3.984375 4.28125 -4.5 4.28125 -5.15625 C 4.28125 -6.078125 3.40625 -6.640625 2.5 -6.640625 C 1.5 -6.640625 0.6875 -5.90625 0.6875 -4.96875 C 0.6875 -4.796875 0.703125 -4.34375 1.125 -3.875 C 1.234375 -3.765625 1.609375 -3.515625 1.859375 -3.34375 C 1.28125 -3.046875 0.421875 -2.5 0.421875 -1.5 C 0.421875 -0.453125 1.4375 0.21875 2.484375 0.21875 C 3.609375 0.21875 4.5625 -0.609375 4.5625 -1.671875 C 4.5625 -2.03125 4.453125 -2.484375 4.0625 -2.90625 C 3.875 -3.109375 3.71875 -3.203125 3.078125 -3.609375 Z M 2.078125 -3.1875 L 3.3125 -2.40625 C 3.59375 -2.21875 4.0625 -1.921875 4.0625 -1.3125 C 4.0625 -0.578125 3.3125 -0.0625 2.5 -0.0625 C 1.640625 -0.0625 0.921875 -0.671875 0.921875 -1.5 C 0.921875 -2.078125 1.234375 -2.71875 2.078125 -3.1875 Z M 2.078125 -3.1875 "/>
</g>
<g id="glyph-1-0">
<path d="M 1.90625 -0.53125 C 1.90625 -0.8125 1.671875 -1.0625 1.390625 -1.0625 C 1.09375 -1.0625 0.859375 -0.8125 0.859375 -0.53125 C 0.859375 -0.234375 1.09375 0 1.390625 0 C 1.671875 0 1.90625 -0.234375 1.90625 -0.53125 Z M 1.90625 -0.53125 "/>
</g>
<g id="glyph-2-0">
<path d="M 2.40625 -4.8125 L 3.5 -4.8125 C 3.734375 -4.8125 3.84375 -4.8125 3.84375 -5.015625 C 3.84375 -5.15625 3.78125 -5.15625 3.53125 -5.15625 L 2.484375 -5.15625 L 2.921875 -6.890625 C 2.96875 -7.0625 2.96875 -7.09375 2.96875 -7.171875 C 2.96875 -7.359375 2.828125 -7.46875 2.671875 -7.46875 C 2.5625 -7.46875 2.296875 -7.4375 2.203125 -7.046875 L 1.734375 -5.15625 L 0.609375 -5.15625 C 0.375 -5.15625 0.265625 -5.15625 0.265625 -4.921875 C 0.265625 -4.8125 0.34375 -4.8125 0.578125 -4.8125 L 1.640625 -4.8125 L 0.84375 -1.65625 C 0.75 -1.234375 0.71875 -1.109375 0.71875 -0.953125 C 0.71875 -0.390625 1.109375 0.125 1.78125 0.125 C 2.984375 0.125 3.640625 -1.625 3.640625 -1.703125 C 3.640625 -1.78125 3.578125 -1.8125 3.515625 -1.8125 C 3.484375 -1.8125 3.4375 -1.8125 3.421875 -1.765625 C 3.40625 -1.75 3.390625 -1.75 3.3125 -1.546875 C 3.0625 -0.953125 2.515625 -0.125 1.8125 -0.125 C 1.453125 -0.125 1.4375 -0.421875 1.4375 -0.6875 C 1.4375 -0.6875 1.4375 -0.921875 1.46875 -1.0625 Z M 2.40625 -4.8125 "/>
</g>
<g id="glyph-2-1">
<path d="M 5.265625 -5.15625 C 5.265625 -5.21875 5.21875 -5.265625 5.15625 -5.265625 C 5.0625 -5.265625 4.609375 -4.828125 4.375 -4.40625 C 4.15625 -4.953125 3.796875 -5.265625 3.28125 -5.265625 C 1.921875 -5.265625 0.46875 -3.53125 0.46875 -1.75 C 0.46875 -0.578125 1.15625 0.125 1.96875 0.125 C 2.609375 0.125 3.125 -0.359375 3.375 -0.640625 L 3.390625 -0.625 L 2.9375 1.171875 L 2.828125 1.609375 C 2.71875 1.953125 2.546875 1.953125 1.984375 1.96875 C 1.859375 1.96875 1.734375 1.96875 1.734375 2.203125 C 1.734375 2.28125 1.8125 2.3125 1.890625 2.3125 C 2.0625 2.3125 2.265625 2.296875 2.4375 2.296875 L 3.65625 2.296875 C 3.84375 2.296875 4.046875 2.3125 4.21875 2.3125 C 4.296875 2.3125 4.4375 2.3125 4.4375 2.09375 C 4.4375 1.96875 4.34375 1.96875 4.15625 1.96875 C 3.59375 1.96875 3.5625 1.890625 3.5625 1.796875 C 3.5625 1.734375 3.578125 1.71875 3.609375 1.5625 Z M 3.578125 -1.421875 C 3.53125 -1.21875 3.53125 -1.1875 3.359375 -0.96875 C 3.09375 -0.640625 2.5625 -0.125 2.015625 -0.125 C 1.515625 -0.125 1.25 -0.5625 1.25 -1.265625 C 1.25 -1.921875 1.609375 -3.265625 1.84375 -3.765625 C 2.25 -4.609375 2.8125 -5.03125 3.28125 -5.03125 C 4.0625 -5.03125 4.21875 -4.046875 4.21875 -3.953125 C 4.21875 -3.9375 4.1875 -3.796875 4.171875 -3.765625 Z M 3.578125 -1.421875 "/>
</g>
<g id="glyph-3-0">
<path d="M -2.625 -1.375 C -2.671875 -1.515625 -2.9375 -1.9375 -3.109375 -1.9375 C -3.1875 -1.9375 -3.1875 -1.859375 -3.1875 -1.796875 C -3.1875 -1.390625 -2.671875 -0.21875 -1.484375 -0.21875 C -0.625 -0.21875 0.265625 -1.1875 0.265625 -2.640625 C 0.265625 -4.59375 -1.09375 -6.84375 -2.71875 -6.84375 C -3.84375 -6.84375 -4.40625 -5.65625 -4.828125 -4.6875 C -5.21875 -3.84375 -5.703125 -3.296875 -6.390625 -3.296875 C -6.640625 -3.296875 -7.09375 -3.40625 -7.421875 -3.78125 C -7.734375 -4.140625 -7.765625 -4.8125 -7.765625 -4.96875 C -7.765625 -5.109375 -7.75 -5.609375 -7.53125 -6.125 C -7.421875 -6.34375 -7.28125 -6.65625 -6.765625 -6.65625 C -6.59375 -6.65625 -6.53125 -6.640625 -6.40625 -6.609375 C -6.375 -6.59375 -6.328125 -6.59375 -6.28125 -6.59375 C -6.203125 -6.59375 -6.203125 -6.65625 -6.203125 -6.703125 C -6.203125 -6.859375 -6.328125 -7.140625 -6.53125 -7.390625 C -6.640625 -7.546875 -6.796875 -7.671875 -7.265625 -7.671875 C -7.859375 -7.671875 -8.015625 -7.359375 -8.15625 -7.046875 C -8.421875 -6.484375 -8.421875 -5.921875 -8.421875 -5.765625 C -8.421875 -4.203125 -7.234375 -2.28125 -5.875 -2.28125 C -4.859375 -2.28125 -4.390625 -3.328125 -4.140625 -3.890625 C -3.75 -4.75 -3.203125 -5.828125 -2.203125 -5.828125 C -1.40625 -5.828125 -0.390625 -5.25 -0.390625 -3.4375 C -0.390625 -2.21875 -1.1875 -1.234375 -2 -1.234375 C -2.21875 -1.234375 -2.421875 -1.296875 -2.625 -1.375 Z M -2.625 -1.375 "/>
</g>
<g id="glyph-4-0">
<path d="M -1.8125 -3.46875 L -1.8125 -5.8125 C -1.8125 -5.921875 -1.8125 -6.109375 -1.984375 -6.109375 C -2.171875 -6.109375 -2.171875 -5.921875 -2.171875 -5.8125 L -2.171875 -3.46875 L -4.53125 -3.46875 C -4.640625 -3.46875 -4.8125 -3.46875 -4.8125 -3.296875 C -4.8125 -3.109375 -4.640625 -3.109375 -4.53125 -3.109375 L -2.171875 -3.109375 L -2.171875 -0.75 C -2.171875 -0.640625 -2.171875 -0.46875 -1.984375 -0.46875 C -1.8125 -0.46875 -1.8125 -0.640625 -1.8125 -0.75 L -1.8125 -3.109375 L 0.546875 -3.109375 C 0.65625 -3.109375 0.828125 -3.109375 0.828125 -3.296875 C 0.828125 -3.46875 0.65625 -3.46875 0.546875 -3.46875 Z M -1.8125 -3.46875 "/>
</g>
<g id="glyph-5-0">
<path d="M -2.765625 -4.765625 L -2.765625 -8.0625 C -2.765625 -8.234375 -2.765625 -8.453125 -2.96875 -8.453125 C -3.203125 -8.453125 -3.203125 -8.25 -3.203125 -8.0625 L -3.203125 -4.765625 L -6.5 -4.765625 C -6.671875 -4.765625 -6.890625 -4.765625 -6.890625 -4.546875 C -6.890625 -4.328125 -6.6875 -4.328125 -6.5 -4.328125 L -3.203125 -4.328125 L -3.203125 -1.03125 C -3.203125 -0.859375 -3.203125 -0.640625 -2.984375 -0.640625 C -2.765625 -0.640625 -2.765625 -0.84375 -2.765625 -1.03125 L -2.765625 -4.328125 L 0.53125 -4.328125 C 0.703125 -4.328125 0.921875 -4.328125 0.921875 -4.546875 C 0.921875 -4.765625 0.71875 -4.765625 0.53125 -4.765625 Z M -2.765625 -4.765625 "/>
</g>
<g id="glyph-6-0">
<path d="M -1.8125 -5.5625 C -1.8125 -5.703125 -1.8125 -5.875 -1.984375 -5.875 C -2.171875 -5.875 -2.171875 -5.703125 -2.171875 -5.5625 L -2.171875 -1 C -2.171875 -0.875 -2.171875 -0.703125 -1.984375 -0.703125 C -1.8125 -0.703125 -1.8125 -0.875 -1.8125 -1 Z M -1.8125 -5.5625 "/>
</g>
</g>
<clipPath id="clip-0">
<path clip-rule="nonzero" d="M 203 144 L 273 144 L 273 161 L 203 161 Z M 203 144 "/>
</clipPath>
<clipPath id="clip-1">
<path clip-rule="nonzero" d="M 36.582031 214.941406 L 36.582031 49.847656 L 259.753906 2.1875 L 388.601562 84.742188 L 388.601562 249.835938 L 165.429688 297.496094 Z M 36.582031 214.941406 "/>
</clipPath>
<clipPath id="clip-2">
<path clip-rule="nonzero" d="M 198 138 L 279 138 L 279 167 L 198 167 Z M 198 138 "/>
</clipPath>
<clipPath id="clip-3">
<path clip-rule="nonzero" d="M 36.582031 214.941406 L 36.582031 49.847656 L 259.753906 2.1875 L 388.601562 84.742188 L 388.601562 249.835938 L 165.429688 297.496094 Z M 36.582031 214.941406 "/>
</clipPath>
<clipPath id="clip-4">
<path clip-rule="nonzero" d="M 216 159 L 286 159 L 286 176 L 216 176 Z M 216 159 "/>
</clipPath>
<clipPath id="clip-5">
<path clip-rule="nonzero" d="M 36.582031 214.941406 L 36.582031 49.847656 L 259.753906 2.1875 L 388.601562 84.742188 L 388.601562 249.835938 L 165.429688 297.496094 Z M 36.582031 214.941406 "/>
</clipPath>
<clipPath id="clip-6">
<path clip-rule="nonzero" d="M 211 154 L 292 154 L 292 182 L 211 182 Z M 211 154 "/>
</clipPath>
<clipPath id="clip-7">
<path clip-rule="nonzero" d="M 36.582031 214.941406 L 36.582031 49.847656 L 259.753906 2.1875 L 388.601562 84.742188 L 388.601562 249.835938 L 165.429688 297.496094 Z M 36.582031 214.941406 "/>
</clipPath>
<clipPath id="clip-8">
<path clip-rule="nonzero" d="M 229 163 L 299 163 L 299 189 L 229 189 Z M 229 163 "/>
</clipPath>
<clipPath id="clip-9">
<path clip-rule="nonzero" d="M 36.582031 214.941406 L 36.582031 49.847656 L 259.753906 2.1875 L 388.601562 84.742188 L 388.601562 249.835938 L 165.429688 297.496094 Z M 36.582031 214.941406 "/>
</clipPath>
<clipPath id="clip-10">
<path clip-rule="nonzero" d="M 224 158 L 305 158 L 305 194 L 224 194 Z M 224 158 "/>
</clipPath>
<clipPath id="clip-11">
<path clip-rule="nonzero" d="M 36.582031 214.941406 L 36.582031 49.847656 L 259.753906 2.1875 L 388.601562 84.742188 L 388.601562 249.835938 L 165.429688 297.496094 Z M 36.582031 214.941406 "/>
</clipPath>
<clipPath id="clip-12">
<path clip-rule="nonzero" d="M 242 165 L 312 165 L 312 199 L 242 199 Z M 242 165 "/>
</clipPath>
<clipPath id="clip-13">
<path clip-rule="nonzero" d="M 36.582031 214.941406 L 36.582031 49.847656 L 259.753906 2.1875 L 388.601562 84.742188 L 388.601562 249.835938 L 165.429688 297.496094 Z M 36.582031 214.941406 "/>
</clipPath>
<clipPath id="clip-14">
<path clip-rule="nonzero" d="M 236 159 L 317 159 L 317 205 L 236 205 Z M 236 159 "/>
</clipPath>
<clipPath id="clip-15">
<path clip-rule="nonzero" d="M 36.582031 214.941406 L 36.582031 49.847656 L 259.753906 2.1875 L 388.601562 84.742188 L 388.601562 249.835938 L 165.429688 297.496094 Z M 36.582031 214.941406 "/>
</clipPath>
<clipPath id="clip-16">
<path clip-rule="nonzero" d="M 255 160 L 325 160 L 325 205 L 255 205 Z M 255 160 "/>
</clipPath>
<clipPath id="clip-17">
<path clip-rule="nonzero" d="M 36.582031 214.941406 L 36.582031 49.847656 L 259.753906 2.1875 L 388.601562 84.742188 L 388.601562 249.835938 L 165.429688 297.496094 Z M 36.582031 214.941406 "/>
</clipPath>
<clipPath id="clip-18">
<path clip-rule="nonzero" d="M 249 155 L 330 155 L 330 211 L 249 211 Z M 249 155 "/>
</clipPath>
<clipPath id="clip-19">
<path clip-rule="nonzero" d="M 36.582031 214.941406 L 36.582031 49.847656 L 259.753906 2.1875 L 388.601562 84.742188 L 388.601562 249.835938 L 165.429688 297.496094 Z M 36.582031 214.941406 "/>
</clipPath>
<clipPath id="clip-20">
<path clip-rule="nonzero" d="M 268 154 L 338 154 L 338 209 L 268 209 Z M 268 154 "/>
</clipPath>
<clipPath id="clip-21">
<path clip-rule="nonzero" d="M 36.582031 214.941406 L 36.582031 49.847656 L 259.753906 2.1875 L 388.601562 84.742188 L 388.601562 249.835938 L 165.429688 297.496094 Z M 36.582031 214.941406 "/>
</clipPath>
<clipPath id="clip-22">
<path clip-rule="nonzero" d="M 262 148 L 343 148 L 343 215 L 262 215 Z M 262 148 "/>
</clipPath>
<clipPath id="clip-23">
<path clip-rule="nonzero" d="M 36.582031 214.941406 L 36.582031 49.847656 L 259.753906 2.1875 L 388.601562 84.742188 L 388.601562 249.835938 L 165.429688 297.496094 Z M 36.582031 214.941406 "/>
</clipPath>
<clipPath id="clip-24">
<path clip-rule="nonzero" d="M 281 145 L 350 145 L 350 211 L 281 211 Z M 281 145 "/>
</clipPath>
<clipPath id="clip-25">
<path clip-rule="nonzero" d="M 36.582031 214.941406 L 36.582031 49.847656 L 259.753906 2.1875 L 388.601562 84.742188 L 388.601562 249.835938 L 165.429688 297.496094 Z M 36.582031 214.941406 "/>
</clipPath>
<clipPath id="clip-26">
<path clip-rule="nonzero" d="M 275 140 L 356 140 L 356 217 L 275 217 Z M 275 140 "/>
</clipPath>
<clipPath id="clip-27">
<path clip-rule="nonzero" d="M 36.582031 214.941406 L 36.582031 49.847656 L 259.753906 2.1875 L 388.601562 84.742188 L 388.601562 249.835938 L 165.429688 297.496094 Z M 36.582031 214.941406 "/>
</clipPath>
<clipPath id="clip-28">
<path clip-rule="nonzero" d="M 294 132 L 363 132 L 363 211 L 294 211 Z M 294 132 "/>
</clipPath>
<clipPath id="clip-29">
<path clip-rule="nonzero" d="M 36.582031 214.941406 L 36.582031 49.847656 L 259.753906 2.1875 L 388.601562 84.742188 L 388.601562 249.835938 L 165.429688 297.496094 Z M 36.582031 214.941406 "/>
</clipPath>
<clipPath id="clip-30">
<path clip-rule="nonzero" d="M 288 127 L 369 127 L 369 217 L 288 217 Z M 288 127 "/>
</clipPath>
<clipPath id="clip-31">
<path clip-rule="nonzero" d="M 36.582031 214.941406 L 36.582031 49.847656 L 259.753906 2.1875 L 388.601562 84.742188 L 388.601562 249.835938 L 165.429688 297.496094 Z M 36.582031 214.941406 "/>
</clipPath>
<clipPath id="clip-32">
<path clip-rule="nonzero" d="M 307 117 L 376 117 L 376 209 L 307 209 Z M 307 117 "/>
</clipPath>
<clipPath id="clip-33">
<path clip-rule="nonzero" d="M 36.582031 214.941406 L 36.582031 49.847656 L 259.753906 2.1875 L 388.601562 84.742188 L 388.601562 249.835938 L 165.429688 297.496094 Z M 36.582031 214.941406 "/>
</clipPath>
<clipPath id="clip-34">
<path clip-rule="nonzero" d="M 301 112 L 382 112 L 382 214 L 301 214 Z M 301 112 "/>
</clipPath>
<clipPath id="clip-35">
<path clip-rule="nonzero" d="M 36.582031 214.941406 L 36.582031 49.847656 L 259.753906 2.1875 L 388.601562 84.742188 L 388.601562 249.835938 L 165.429688 297.496094 Z M 36.582031 214.941406 "/>
</clipPath>
<clipPath id="clip-36">
<path clip-rule="nonzero" d="M 319 98 L 389 98 L 389 204 L 319 204 Z M 319 98 "/>
</clipPath>
<clipPath id="clip-37">
<path clip-rule="nonzero" d="M 36.582031 214.941406 L 36.582031 49.847656 L 259.753906 2.1875 L 388.601562 84.742188 L 388.601562 249.835938 L 165.429688 297.496094 Z M 36.582031 214.941406 "/>
</clipPath>
<clipPath id="clip-38">
<path clip-rule="nonzero" d="M 314 92 L 389 92 L 389 210 L 314 210 Z M 314 92 "/>
</clipPath>
<clipPath id="clip-39">
<path clip-rule="nonzero" d="M 36.582031 214.941406 L 36.582031 49.847656 L 259.753906 2.1875 L 388.601562 84.742188 L 388.601562 249.835938 L 165.429688 297.496094 Z M 36.582031 214.941406 "/>
</clipPath>
<clipPath id="clip-40">
<path clip-rule="nonzero" d="M 148 132 L 217 132 L 217 161 L 148 161 Z M 148 132 "/>
</clipPath>
<clipPath id="clip-41">
<path clip-rule="nonzero" d="M 36.582031 214.941406 L 36.582031 49.847656 L 259.753906 2.1875 L 388.601562 84.742188 L 388.601562 249.835938 L 165.429688 297.496094 Z M 36.582031 214.941406 "/>
</clipPath>
<clipPath id="clip-42">
<path clip-rule="nonzero" d="M 142 127 L 223 127 L 223 167 L 142 167 Z M 142 127 "/>
</clipPath>
<clipPath id="clip-43">
<path clip-rule="nonzero" d="M 36.582031 214.941406 L 36.582031 49.847656 L 259.753906 2.1875 L 388.601562 84.742188 L 388.601562 249.835938 L 165.429688 297.496094 Z M 36.582031 214.941406 "/>
</clipPath>
<clipPath id="clip-44">
<path clip-rule="nonzero" d="M 161 153 L 230 153 L 230 176 L 161 176 Z M 161 153 "/>
</clipPath>
<clipPath id="clip-45">
<path clip-rule="nonzero" d="M 36.582031 214.941406 L 36.582031 49.847656 L 259.753906 2.1875 L 388.601562 84.742188 L 388.601562 249.835938 L 165.429688 297.496094 Z M 36.582031 214.941406 "/>
</clipPath>
<clipPath id="clip-46">
<path clip-rule="nonzero" d="M 155 148 L 236 148 L 236 182 L 155 182 Z M 155 148 "/>
</clipPath>
<clipPath id="clip-47">
<path clip-rule="nonzero" d="M 36.582031 214.941406 L 36.582031 49.847656 L 259.753906 2.1875 L 388.601562 84.742188 L 388.601562 249.835938 L 165.429688 297.496094 Z M 36.582031 214.941406 "/>
</clipPath>
<clipPath id="clip-48">
<path clip-rule="nonzero" d="M 173 170 L 243 170 L 243 189 L 173 189 Z M 173 170 "/>
</clipPath>
<clipPath id="clip-49">
<path clip-rule="nonzero" d="M 36.582031 214.941406 L 36.582031 49.847656 L 259.753906 2.1875 L 388.601562 84.742188 L 388.601562 249.835938 L 165.429688 297.496094 Z M 36.582031 214.941406 "/>
</clipPath>
<clipPath id="clip-50">
<path clip-rule="nonzero" d="M 168 164 L 249 164 L 249 194 L 168 194 Z M 168 164 "/>
</clipPath>
<clipPath id="clip-51">
<path clip-rule="nonzero" d="M 36.582031 214.941406 L 36.582031 49.847656 L 259.753906 2.1875 L 388.601562 84.742188 L 388.601562 249.835938 L 165.429688 297.496094 Z M 36.582031 214.941406 "/>
</clipPath>
<clipPath id="clip-52">
<path clip-rule="nonzero" d="M 186 187 L 256 187 L 256 202 L 186 202 Z M 186 187 "/>
</clipPath>
<clipPath id="clip-53">
<path clip-rule="nonzero" d="M 36.582031 214.941406 L 36.582031 49.847656 L 259.753906 2.1875 L 388.601562 84.742188 L 388.601562 249.835938 L 165.429688 297.496094 Z M 36.582031 214.941406 "/>
</clipPath>
<clipPath id="clip-54">
<path clip-rule="nonzero" d="M 181 181 L 262 181 L 262 208 L 181 208 Z M 181 181 "/>
</clipPath>
<clipPath id="clip-55">
<path clip-rule="nonzero" d="M 36.582031 214.941406 L 36.582031 49.847656 L 259.753906 2.1875 L 388.601562 84.742188 L 388.601562 249.835938 L 165.429688 297.496094 Z M 36.582031 214.941406 "/>
</clipPath>
<clipPath id="clip-56">
<path clip-rule="nonzero" d="M 199 198 L 269 198 L 269 215 L 199 215 Z M 199 198 "/>
</clipPath>
<clipPath id="clip-57">
<path clip-rule="nonzero" d="M 36.582031 214.941406 L 36.582031 49.847656 L 259.753906 2.1875 L 388.601562 84.742188 L 388.601562 249.835938 L 165.429688 297.496094 Z M 36.582031 214.941406 "/>
</clipPath>
<clipPath id="clip-58">
<path clip-rule="nonzero" d="M 194 192 L 275 192 L 275 221 L 194 221 Z M 194 192 "/>
</clipPath>
<clipPath id="clip-59">
<path clip-rule="nonzero" d="M 36.582031 214.941406 L 36.582031 49.847656 L 259.753906 2.1875 L 388.601562 84.742188 L 388.601562 249.835938 L 165.429688 297.496094 Z M 36.582031 214.941406 "/>
</clipPath>
<clipPath id="clip-60">
<path clip-rule="nonzero" d="M 212 204 L 282 204 L 282 225 L 212 225 Z M 212 204 "/>
</clipPath>
<clipPath id="clip-61">
<path clip-rule="nonzero" d="M 36.582031 214.941406 L 36.582031 49.847656 L 259.753906 2.1875 L 388.601562 84.742188 L 388.601562 249.835938 L 165.429688 297.496094 Z M 36.582031 214.941406 "/>
</clipPath>
<clipPath id="clip-62">
<path clip-rule="nonzero" d="M 206 198 L 287 198 L 287 231 L 206 231 Z M 206 198 "/>
</clipPath>
<clipPath id="clip-63">
<path clip-rule="nonzero" d="M 36.582031 214.941406 L 36.582031 49.847656 L 259.753906 2.1875 L 388.601562 84.742188 L 388.601562 249.835938 L 165.429688 297.496094 Z M 36.582031 214.941406 "/>
</clipPath>
<clipPath id="clip-64">
<path clip-rule="nonzero" d="M 225 208 L 295 208 L 295 236 L 225 236 Z M 225 208 "/>
</clipPath>
<clipPath id="clip-65">
<path clip-rule="nonzero" d="M 36.582031 214.941406 L 36.582031 49.847656 L 259.753906 2.1875 L 388.601562 84.742188 L 388.601562 249.835938 L 165.429688 297.496094 Z M 36.582031 214.941406 "/>
</clipPath>
<clipPath id="clip-66">
<path clip-rule="nonzero" d="M 219 202 L 300 202 L 300 241 L 219 241 Z M 219 202 "/>
</clipPath>
<clipPath id="clip-67">
<path clip-rule="nonzero" d="M 36.582031 214.941406 L 36.582031 49.847656 L 259.753906 2.1875 L 388.601562 84.742188 L 388.601562 249.835938 L 165.429688 297.496094 Z M 36.582031 214.941406 "/>
</clipPath>
<clipPath id="clip-68">
<path clip-rule="nonzero" d="M 238 208 L 308 208 L 308 242 L 238 242 Z M 238 208 "/>
</clipPath>
<clipPath id="clip-69">
<path clip-rule="nonzero" d="M 36.582031 214.941406 L 36.582031 49.847656 L 259.753906 2.1875 L 388.601562 84.742188 L 388.601562 249.835938 L 165.429688 297.496094 Z M 36.582031 214.941406 "/>
</clipPath>
<clipPath id="clip-70">
<path clip-rule="nonzero" d="M 232 202 L 313 202 L 313 247 L 232 247 Z M 232 202 "/>
</clipPath>
<clipPath id="clip-71">
<path clip-rule="nonzero" d="M 36.582031 214.941406 L 36.582031 49.847656 L 259.753906 2.1875 L 388.601562 84.742188 L 388.601562 249.835938 L 165.429688 297.496094 Z M 36.582031 214.941406 "/>
</clipPath>
<clipPath id="clip-72">
<path clip-rule="nonzero" d="M 251 203 L 320 203 L 320 248 L 251 248 Z M 251 203 "/>
</clipPath>
<clipPath id="clip-73">
<path clip-rule="nonzero" d="M 36.582031 214.941406 L 36.582031 49.847656 L 259.753906 2.1875 L 388.601562 84.742188 L 388.601562 249.835938 L 165.429688 297.496094 Z M 36.582031 214.941406 "/>
</clipPath>
<clipPath id="clip-74">
<path clip-rule="nonzero" d="M 245 198 L 326 198 L 326 254 L 245 254 Z M 245 198 "/>
</clipPath>
<clipPath id="clip-75">
<path clip-rule="nonzero" d="M 36.582031 214.941406 L 36.582031 49.847656 L 259.753906 2.1875 L 388.601562 84.742188 L 388.601562 249.835938 L 165.429688 297.496094 Z M 36.582031 214.941406 "/>
</clipPath>
<clipPath id="clip-76">
<path clip-rule="nonzero" d="M 264 195 L 333 195 L 333 250 L 264 250 Z M 264 195 "/>
</clipPath>
<clipPath id="clip-77">
<path clip-rule="nonzero" d="M 36.582031 214.941406 L 36.582031 49.847656 L 259.753906 2.1875 L 388.601562 84.742188 L 388.601562 249.835938 L 165.429688 297.496094 Z M 36.582031 214.941406 "/>
</clipPath>
<clipPath id="clip-78">
<path clip-rule="nonzero" d="M 258 189 L 339 189 L 339 255 L 258 255 Z M 258 189 "/>
</clipPath>
<clipPath id="clip-79">
<path clip-rule="nonzero" d="M 36.582031 214.941406 L 36.582031 49.847656 L 259.753906 2.1875 L 388.601562 84.742188 L 388.601562 249.835938 L 165.429688 297.496094 Z M 36.582031 214.941406 "/>
</clipPath>
<clipPath id="clip-80">
<path clip-rule="nonzero" d="M 92 115 L 162 115 L 162 154 L 92 154 Z M 92 115 "/>
</clipPath>
<clipPath id="clip-81">
<path clip-rule="nonzero" d="M 36.582031 214.941406 L 36.582031 49.847656 L 259.753906 2.1875 L 388.601562 84.742188 L 388.601562 249.835938 L 165.429688 297.496094 Z M 36.582031 214.941406 "/>
</clipPath>
<clipPath id="clip-82">
<path clip-rule="nonzero" d="M 86 109 L 167 109 L 167 160 L 86 160 Z M 86 109 "/>
</clipPath>
<clipPath id="clip-83">
<path clip-rule="nonzero" d="M 36.582031 214.941406 L 36.582031 49.847656 L 259.753906 2.1875 L 388.601562 84.742188 L 388.601562 249.835938 L 165.429688 297.496094 Z M 36.582031 214.941406 "/>
</clipPath>
<clipPath id="clip-84">
<path clip-rule="nonzero" d="M 105 140 L 174 140 L 174 171 L 105 171 Z M 105 140 "/>
</clipPath>
<clipPath id="clip-85">
<path clip-rule="nonzero" d="M 36.582031 214.941406 L 36.582031 49.847656 L 259.753906 2.1875 L 388.601562 84.742188 L 388.601562 249.835938 L 165.429688 297.496094 Z M 36.582031 214.941406 "/>
</clipPath>
<clipPath id="clip-86">
<path clip-rule="nonzero" d="M 99 134 L 180 134 L 180 177 L 99 177 Z M 99 134 "/>
</clipPath>
<clipPath id="clip-87">
<path clip-rule="nonzero" d="M 36.582031 214.941406 L 36.582031 49.847656 L 259.753906 2.1875 L 388.601562 84.742188 L 388.601562 249.835938 L 165.429688 297.496094 Z M 36.582031 214.941406 "/>
</clipPath>
<clipPath id="clip-88">
<path clip-rule="nonzero" d="M 118 161 L 187 161 L 187 188 L 118 188 Z M 118 161 "/>
</clipPath>
<clipPath id="clip-89">
<path clip-rule="nonzero" d="M 36.582031 214.941406 L 36.582031 49.847656 L 259.753906 2.1875 L 388.601562 84.742188 L 388.601562 249.835938 L 165.429688 297.496094 Z M 36.582031 214.941406 "/>
</clipPath>
<clipPath id="clip-90">
<path clip-rule="nonzero" d="M 112 155 L 193 155 L 193 193 L 112 193 Z M 112 155 "/>
</clipPath>
<clipPath id="clip-91">
<path clip-rule="nonzero" d="M 36.582031 214.941406 L 36.582031 49.847656 L 259.753906 2.1875 L 388.601562 84.742188 L 388.601562 249.835938 L 165.429688 297.496094 Z M 36.582031 214.941406 "/>
</clipPath>
<clipPath id="clip-92">
<path clip-rule="nonzero" d="M 131 182 L 200 182 L 200 202 L 131 202 Z M 131 182 "/>
</clipPath>
<clipPath id="clip-93">
<path clip-rule="nonzero" d="M 36.582031 214.941406 L 36.582031 49.847656 L 259.753906 2.1875 L 388.601562 84.742188 L 388.601562 249.835938 L 165.429688 297.496094 Z M 36.582031 214.941406 "/>
</clipPath>
<clipPath id="clip-94">
<path clip-rule="nonzero" d="M 125 176 L 206 176 L 206 208 L 125 208 Z M 125 176 "/>
</clipPath>
<clipPath id="clip-95">
<path clip-rule="nonzero" d="M 36.582031 214.941406 L 36.582031 49.847656 L 259.753906 2.1875 L 388.601562 84.742188 L 388.601562 249.835938 L 165.429688 297.496094 Z M 36.582031 214.941406 "/>
</clipPath>
<clipPath id="clip-96">
<path clip-rule="nonzero" d="M 143 199 L 213 199 L 213 216 L 143 216 Z M 143 199 "/>
</clipPath>
<clipPath id="clip-97">
<path clip-rule="nonzero" d="M 36.582031 214.941406 L 36.582031 49.847656 L 259.753906 2.1875 L 388.601562 84.742188 L 388.601562 249.835938 L 165.429688 297.496094 Z M 36.582031 214.941406 "/>
</clipPath>
<clipPath id="clip-98">
<path clip-rule="nonzero" d="M 138 193 L 219 193 L 219 222 L 138 222 Z M 138 193 "/>
</clipPath>
<clipPath id="clip-99">
<path clip-rule="nonzero" d="M 36.582031 214.941406 L 36.582031 49.847656 L 259.753906 2.1875 L 388.601562 84.742188 L 388.601562 249.835938 L 165.429688 297.496094 Z M 36.582031 214.941406 "/>
</clipPath>
<clipPath id="clip-100">
<path clip-rule="nonzero" d="M 156 214 L 226 214 L 226 231 L 156 231 Z M 156 214 "/>
</clipPath>
<clipPath id="clip-101">
<path clip-rule="nonzero" d="M 36.582031 214.941406 L 36.582031 49.847656 L 259.753906 2.1875 L 388.601562 84.742188 L 388.601562 249.835938 L 165.429688 297.496094 Z M 36.582031 214.941406 "/>
</clipPath>
<clipPath id="clip-102">
<path clip-rule="nonzero" d="M 151 208 L 232 208 L 232 236 L 151 236 Z M 151 208 "/>
</clipPath>
<clipPath id="clip-103">
<path clip-rule="nonzero" d="M 36.582031 214.941406 L 36.582031 49.847656 L 259.753906 2.1875 L 388.601562 84.742188 L 388.601562 249.835938 L 165.429688 297.496094 Z M 36.582031 214.941406 "/>
</clipPath>
<clipPath id="clip-104">
<path clip-rule="nonzero" d="M 169 224 L 239 224 L 239 243 L 169 243 Z M 169 224 "/>
</clipPath>
<clipPath id="clip-105">
<path clip-rule="nonzero" d="M 36.582031 214.941406 L 36.582031 49.847656 L 259.753906 2.1875 L 388.601562 84.742188 L 388.601562 249.835938 L 165.429688 297.496094 Z M 36.582031 214.941406 "/>
</clipPath>
<clipPath id="clip-106">
<path clip-rule="nonzero" d="M 164 219 L 244 219 L 244 249 L 164 249 Z M 164 219 "/>
</clipPath>
<clipPath id="clip-107">
<path clip-rule="nonzero" d="M 36.582031 214.941406 L 36.582031 49.847656 L 259.753906 2.1875 L 388.601562 84.742188 L 388.601562 249.835938 L 165.429688 297.496094 Z M 36.582031 214.941406 "/>
</clipPath>
<clipPath id="clip-108">
<path clip-rule="nonzero" d="M 182 235 L 252 235 L 252 254 L 182 254 Z M 182 235 "/>
</clipPath>
<clipPath id="clip-109">
<path clip-rule="nonzero" d="M 36.582031 214.941406 L 36.582031 49.847656 L 259.753906 2.1875 L 388.601562 84.742188 L 388.601562 249.835938 L 165.429688 297.496094 Z M 36.582031 214.941406 "/>
</clipPath>
<clipPath id="clip-110">
<path clip-rule="nonzero" d="M 176 229 L 257 229 L 257 259 L 176 259 Z M 176 229 "/>
</clipPath>
<clipPath id="clip-111">
<path clip-rule="nonzero" d="M 36.582031 214.941406 L 36.582031 49.847656 L 259.753906 2.1875 L 388.601562 84.742188 L 388.601562 249.835938 L 165.429688 297.496094 Z M 36.582031 214.941406 "/>
</clipPath>
<clipPath id="clip-112">
<path clip-rule="nonzero" d="M 195 241 L 265 241 L 265 264 L 195 264 Z M 195 241 "/>
</clipPath>
<clipPath id="clip-113">
<path clip-rule="nonzero" d="M 36.582031 214.941406 L 36.582031 49.847656 L 259.753906 2.1875 L 388.601562 84.742188 L 388.601562 249.835938 L 165.429688 297.496094 Z M 36.582031 214.941406 "/>
</clipPath>
<clipPath id="clip-114">
<path clip-rule="nonzero" d="M 189 235 L 270 235 L 270 270 L 189 270 Z M 189 235 "/>
</clipPath>
<clipPath id="clip-115">
<path clip-rule="nonzero" d="M 36.582031 214.941406 L 36.582031 49.847656 L 259.753906 2.1875 L 388.601562 84.742188 L 388.601562 249.835938 L 165.429688 297.496094 Z M 36.582031 214.941406 "/>
</clipPath>
<clipPath id="clip-116">
<path clip-rule="nonzero" d="M 208 247 L 278 247 L 278 270 L 208 270 Z M 208 247 "/>
</clipPath>
<clipPath id="clip-117">
<path clip-rule="nonzero" d="M 36.582031 214.941406 L 36.582031 49.847656 L 259.753906 2.1875 L 388.601562 84.742188 L 388.601562 249.835938 L 165.429688 297.496094 Z M 36.582031 214.941406 "/>
</clipPath>
<clipPath id="clip-118">
<path clip-rule="nonzero" d="M 202 241 L 283 241 L 283 276 L 202 276 Z M 202 241 "/>
</clipPath>
<clipPath id="clip-119">
<path clip-rule="nonzero" d="M 36.582031 214.941406 L 36.582031 49.847656 L 259.753906 2.1875 L 388.601562 84.742188 L 388.601562 249.835938 L 165.429688 297.496094 Z M 36.582031 214.941406 "/>
</clipPath>
<clipPath id="clip-120">
<path clip-rule="nonzero" d="M 36 63 L 106 63 L 106 141 L 36 141 Z M 36 63 "/>
</clipPath>
<clipPath id="clip-121">
<path clip-rule="nonzero" d="M 36.582031 214.941406 L 36.582031 49.847656 L 259.753906 2.1875 L 388.601562 84.742188 L 388.601562 249.835938 L 165.429688 297.496094 Z M 36.582031 214.941406 "/>
</clipPath>
<clipPath id="clip-122">
<path clip-rule="nonzero" d="M 36 57 L 111 57 L 111 147 L 36 147 Z M 36 57 "/>
</clipPath>
<clipPath id="clip-123">
<path clip-rule="nonzero" d="M 36.582031 214.941406 L 36.582031 49.847656 L 259.753906 2.1875 L 388.601562 84.742188 L 388.601562 249.835938 L 165.429688 297.496094 Z M 36.582031 214.941406 "/>
</clipPath>
<clipPath id="clip-124">
<path clip-rule="nonzero" d="M 49 99 L 119 99 L 119 162 L 49 162 Z M 49 99 "/>
</clipPath>
<clipPath id="clip-125">
<path clip-rule="nonzero" d="M 36.582031 214.941406 L 36.582031 49.847656 L 259.753906 2.1875 L 388.601562 84.742188 L 388.601562 249.835938 L 165.429688 297.496094 Z M 36.582031 214.941406 "/>
</clipPath>
<clipPath id="clip-126">
<path clip-rule="nonzero" d="M 43 93 L 124 93 L 124 167 L 43 167 Z M 43 93 "/>
</clipPath>
<clipPath id="clip-127">
<path clip-rule="nonzero" d="M 36.582031 214.941406 L 36.582031 49.847656 L 259.753906 2.1875 L 388.601562 84.742188 L 388.601562 249.835938 L 165.429688 297.496094 Z M 36.582031 214.941406 "/>
</clipPath>
<clipPath id="clip-128">
<path clip-rule="nonzero" d="M 62 130 L 132 130 L 132 183 L 62 183 Z M 62 130 "/>
</clipPath>
<clipPath id="clip-129">
<path clip-rule="nonzero" d="M 36.582031 214.941406 L 36.582031 49.847656 L 259.753906 2.1875 L 388.601562 84.742188 L 388.601562 249.835938 L 165.429688 297.496094 Z M 36.582031 214.941406 "/>
</clipPath>
<clipPath id="clip-130">
<path clip-rule="nonzero" d="M 56 125 L 137 125 L 137 188 L 56 188 Z M 56 125 "/>
</clipPath>
<clipPath id="clip-131">
<path clip-rule="nonzero" d="M 36.582031 214.941406 L 36.582031 49.847656 L 259.753906 2.1875 L 388.601562 84.742188 L 388.601562 249.835938 L 165.429688 297.496094 Z M 36.582031 214.941406 "/>
</clipPath>
<clipPath id="clip-132">
<path clip-rule="nonzero" d="M 75 160 L 144 160 L 144 200 L 75 200 Z M 75 160 "/>
</clipPath>
<clipPath id="clip-133">
<path clip-rule="nonzero" d="M 36.582031 214.941406 L 36.582031 49.847656 L 259.753906 2.1875 L 388.601562 84.742188 L 388.601562 249.835938 L 165.429688 297.496094 Z M 36.582031 214.941406 "/>
</clipPath>
<clipPath id="clip-134">
<path clip-rule="nonzero" d="M 69 154 L 150 154 L 150 205 L 69 205 Z M 69 154 "/>
</clipPath>
<clipPath id="clip-135">
<path clip-rule="nonzero" d="M 36.582031 214.941406 L 36.582031 49.847656 L 259.753906 2.1875 L 388.601562 84.742188 L 388.601562 249.835938 L 165.429688 297.496094 Z M 36.582031 214.941406 "/>
</clipPath>
<clipPath id="clip-136">
<path clip-rule="nonzero" d="M 88 185 L 157 185 L 157 216 L 88 216 Z M 88 185 "/>
</clipPath>
<clipPath id="clip-137">
<path clip-rule="nonzero" d="M 36.582031 214.941406 L 36.582031 49.847656 L 259.753906 2.1875 L 388.601562 84.742188 L 388.601562 249.835938 L 165.429688 297.496094 Z M 36.582031 214.941406 "/>
</clipPath>
<clipPath id="clip-138">
<path clip-rule="nonzero" d="M 82 179 L 163 179 L 163 222 L 82 222 Z M 82 179 "/>
</clipPath>
<clipPath id="clip-139">
<path clip-rule="nonzero" d="M 36.582031 214.941406 L 36.582031 49.847656 L 259.753906 2.1875 L 388.601562 84.742188 L 388.601562 249.835938 L 165.429688 297.496094 Z M 36.582031 214.941406 "/>
</clipPath>
<clipPath id="clip-140">
<path clip-rule="nonzero" d="M 101 208 L 170 208 L 170 231 L 101 231 Z M 101 208 "/>
</clipPath>
<clipPath id="clip-141">
<path clip-rule="nonzero" d="M 36.582031 214.941406 L 36.582031 49.847656 L 259.753906 2.1875 L 388.601562 84.742188 L 388.601562 249.835938 L 165.429688 297.496094 Z M 36.582031 214.941406 "/>
</clipPath>
<clipPath id="clip-142">
<path clip-rule="nonzero" d="M 95 202 L 176 202 L 176 236 L 95 236 Z M 95 202 "/>
</clipPath>
<clipPath id="clip-143">
<path clip-rule="nonzero" d="M 36.582031 214.941406 L 36.582031 49.847656 L 259.753906 2.1875 L 388.601562 84.742188 L 388.601562 249.835938 L 165.429688 297.496094 Z M 36.582031 214.941406 "/>
</clipPath>
<clipPath id="clip-144">
<path clip-rule="nonzero" d="M 113 229 L 183 229 L 183 247 L 113 247 Z M 113 229 "/>
</clipPath>
<clipPath id="clip-145">
<path clip-rule="nonzero" d="M 36.582031 214.941406 L 36.582031 49.847656 L 259.753906 2.1875 L 388.601562 84.742188 L 388.601562 249.835938 L 165.429688 297.496094 Z M 36.582031 214.941406 "/>
</clipPath>
<clipPath id="clip-146">
<path clip-rule="nonzero" d="M 108 223 L 189 223 L 189 252 L 108 252 Z M 108 223 "/>
</clipPath>
<clipPath id="clip-147">
<path clip-rule="nonzero" d="M 36.582031 214.941406 L 36.582031 49.847656 L 259.753906 2.1875 L 388.601562 84.742188 L 388.601562 249.835938 L 165.429688 297.496094 Z M 36.582031 214.941406 "/>
</clipPath>
<clipPath id="clip-148">
<path clip-rule="nonzero" d="M 126 242 L 196 242 L 196 261 L 126 261 Z M 126 242 "/>
</clipPath>
<clipPath id="clip-149">
<path clip-rule="nonzero" d="M 36.582031 214.941406 L 36.582031 49.847656 L 259.753906 2.1875 L 388.601562 84.742188 L 388.601562 249.835938 L 165.429688 297.496094 Z M 36.582031 214.941406 "/>
</clipPath>
<clipPath id="clip-150">
<path clip-rule="nonzero" d="M 121 237 L 202 237 L 202 267 L 121 267 Z M 121 237 "/>
</clipPath>
<clipPath id="clip-151">
<path clip-rule="nonzero" d="M 36.582031 214.941406 L 36.582031 49.847656 L 259.753906 2.1875 L 388.601562 84.742188 L 388.601562 249.835938 L 165.429688 297.496094 Z M 36.582031 214.941406 "/>
</clipPath>
<clipPath id="clip-152">
<path clip-rule="nonzero" d="M 139 253 L 209 253 L 209 274 L 139 274 Z M 139 253 "/>
</clipPath>
<clipPath id="clip-153">
<path clip-rule="nonzero" d="M 36.582031 214.941406 L 36.582031 49.847656 L 259.753906 2.1875 L 388.601562 84.742188 L 388.601562 249.835938 L 165.429688 297.496094 Z M 36.582031 214.941406 "/>
</clipPath>
<clipPath id="clip-154">
<path clip-rule="nonzero" d="M 134 247 L 214 247 L 214 280 L 134 280 Z M 134 247 "/>
</clipPath>
<clipPath id="clip-155">
<path clip-rule="nonzero" d="M 36.582031 214.941406 L 36.582031 49.847656 L 259.753906 2.1875 L 388.601562 84.742188 L 388.601562 249.835938 L 165.429688 297.496094 Z M 36.582031 214.941406 "/>
</clipPath>
<clipPath id="clip-156">
<path clip-rule="nonzero" d="M 152 263 L 222 263 L 222 284 L 152 284 Z M 152 263 "/>
</clipPath>
<clipPath id="clip-157">
<path clip-rule="nonzero" d="M 36.582031 214.941406 L 36.582031 49.847656 L 259.753906 2.1875 L 388.601562 84.742188 L 388.601562 249.835938 L 165.429688 297.496094 Z M 36.582031 214.941406 "/>
</clipPath>
<clipPath id="clip-158">
<path clip-rule="nonzero" d="M 146 257 L 227 257 L 227 290 L 146 290 Z M 146 257 "/>
</clipPath>
<clipPath id="clip-159">
<path clip-rule="nonzero" d="M 36.582031 214.941406 L 36.582031 49.847656 L 259.753906 2.1875 L 388.601562 84.742188 L 388.601562 249.835938 L 165.429688 297.496094 Z M 36.582031 214.941406 "/>
</clipPath>
<clipPath id="clip-160">
<path clip-rule="nonzero" d="M 154 142 L 272 142 L 272 296 L 154 296 Z M 154 142 "/>
</clipPath>
<clipPath id="clip-161">
<path clip-rule="nonzero" d="M 36.582031 214.941406 L 36.582031 49.847656 L 259.753906 2.1875 L 388.601562 84.742188 L 388.601562 249.835938 L 165.429688 297.496094 Z M 36.582031 214.941406 "/>
</clipPath>
</defs>
<path fill="none" stroke-width="0.19925" stroke-linecap="butt" stroke-linejoin="miter" stroke="rgb(50%, 50%, 50%)" stroke-opacity="1" stroke-miterlimit="10" d="M -0.0003125 -13.757094 L -3.582344 -11.464125 M 27.898125 -7.800063 L 24.316094 -5.507094 M 55.792656 -1.843031 L 52.210625 0.449937 M 83.691094 4.114 L 80.109062 6.406969 M 111.585625 10.071031 L 108.003594 12.367906 M 139.480156 16.028062 L 135.902031 18.324937 M 167.378594 21.989 L 163.796562 24.281969 M 195.273125 27.946031 L 191.695 30.239 M 223.171562 33.903062 L 219.589531 36.196031 M -128.847969 68.797594 L -125.269844 66.500719 M -100.953438 74.754625 L -97.371406 72.45775 M -73.055 80.711656 L -69.476875 78.418687 M -45.160469 86.668687 L -41.578438 84.375719 M -17.262031 92.625719 L -13.683906 90.33275 M 10.6325 98.58275 L 14.214531 96.289781 M 38.530937 104.539781 L 42.109062 102.246812 M 66.425469 110.500719 L 70.0075 108.203844 M 94.323906 116.45775 L 97.902031 114.164781 " transform="matrix(1, 0, 0, -1, 165.43, 283.739)"/>
<path fill="none" stroke-width="0.19925" stroke-linecap="butt" stroke-linejoin="miter" stroke="rgb(50%, 50%, 50%)" stroke-opacity="1" stroke-miterlimit="10" d="M -0.0003125 -13.757094 L 4.159844 -12.870375 M -25.769844 2.750719 L -21.609688 3.641344 M -51.539375 19.262437 L -47.379219 20.153062 M -77.308906 35.774156 L -73.152656 36.660875 M -103.078438 52.285875 L -98.922188 53.172594 M -128.847969 68.797594 L -124.691719 69.684312 M 223.171562 33.903062 L 219.011406 33.016344 M 197.402031 50.414781 L 193.241875 49.524156 M 171.6325 66.922594 L 167.472344 66.035875 M 145.862969 83.434312 L 141.702812 82.547594 M 120.093437 99.946031 L 115.933281 99.059312 M 94.323906 116.45775 L 90.16375 115.567125 " transform="matrix(1, 0, 0, -1, 165.43, 283.739)"/>
<path fill="none" stroke-width="0.3985" stroke-linecap="butt" stroke-linejoin="miter" stroke="rgb(0%, 0%, 0%)" stroke-opacity="1" stroke-miterlimit="10" d="M -0.0003125 -13.757094 L 223.171562 33.903062 " transform="matrix(1, 0, 0, -1, 165.43, 283.739)"/>
<path fill="none" stroke-width="0.3985" stroke-linecap="butt" stroke-linejoin="miter" stroke="rgb(0%, 0%, 0%)" stroke-opacity="1" stroke-miterlimit="10" d="M -128.847969 68.797594 L 94.323906 116.45775 " transform="matrix(1, 0, 0, -1, 165.43, 283.739)"/>
<path fill="none" stroke-width="0.3985" stroke-linecap="butt" stroke-linejoin="miter" stroke="rgb(0%, 0%, 0%)" stroke-opacity="1" stroke-miterlimit="10" d="M -0.0003125 -13.757094 L -128.847969 68.797594 " transform="matrix(1, 0, 0, -1, 165.43, 283.739)"/>
<path fill="none" stroke-width="0.3985" stroke-linecap="butt" stroke-linejoin="miter" stroke="rgb(0%, 0%, 0%)" stroke-opacity="1" stroke-miterlimit="10" d="M 223.171562 33.903062 L 94.323906 116.45775 " transform="matrix(1, 0, 0, -1, 165.43, 283.739)"/>
<g fill="rgb(0%, 0%, 0%)" fill-opacity="1">
<use xlink:href="#glyph-0-0" x="166.864" y="307.883"/>
</g>
<g fill="rgb(0%, 0%, 0%)" fill-opacity="1">
<use xlink:href="#glyph-0-0" x="191.29" y="302.666"/>
</g>
<g fill="rgb(0%, 0%, 0%)" fill-opacity="1">
<use xlink:href="#glyph-1-0" x="196.2713" y="302.666"/>
</g>
<g fill="rgb(0%, 0%, 0%)" fill-opacity="1">
<use xlink:href="#glyph-0-1" x="199.03891" y="302.666"/>
</g>
<g fill="rgb(0%, 0%, 0%)" fill-opacity="1">
<use xlink:href="#glyph-0-2" x="222.656" y="295.968"/>
</g>
<g fill="rgb(0%, 0%, 0%)" fill-opacity="1">
<use xlink:href="#glyph-0-2" x="247.082" y="290.751"/>
</g>
<g fill="rgb(0%, 0%, 0%)" fill-opacity="1">
<use xlink:href="#glyph-1-0" x="252.0633" y="290.751"/>
</g>
<g fill="rgb(0%, 0%, 0%)" fill-opacity="1">
<use xlink:href="#glyph-0-1" x="254.83091" y="290.751"/>
</g>
<g fill="rgb(0%, 0%, 0%)" fill-opacity="1">
<use xlink:href="#glyph-0-3" x="278.448" y="284.053"/>
</g>
<g fill="rgb(0%, 0%, 0%)" fill-opacity="1">
<use xlink:href="#glyph-0-3" x="302.875" y="278.836"/>
</g>
<g fill="rgb(0%, 0%, 0%)" fill-opacity="1">
<use xlink:href="#glyph-1-0" x="307.8563" y="278.836"/>
</g>
<g fill="rgb(0%, 0%, 0%)" fill-opacity="1">
<use xlink:href="#glyph-0-1" x="310.62391" y="278.836"/>
</g>
<g fill="rgb(0%, 0%, 0%)" fill-opacity="1">
<use xlink:href="#glyph-0-4" x="334.24" y="272.137"/>
</g>
<g fill="rgb(0%, 0%, 0%)" fill-opacity="1">
<use xlink:href="#glyph-0-4" x="358.667" y="266.921"/>
</g>
<g fill="rgb(0%, 0%, 0%)" fill-opacity="1">
<use xlink:href="#glyph-1-0" x="363.6483" y="266.921"/>
</g>
<g fill="rgb(0%, 0%, 0%)" fill-opacity="1">
<use xlink:href="#glyph-0-1" x="366.41591" y="266.921"/>
</g>
<g fill="rgb(0%, 0%, 0%)" fill-opacity="1">
<use xlink:href="#glyph-0-1" x="390.032" y="260.222"/>
</g>
<g fill="rgb(0%, 0%, 0%)" fill-opacity="1">
<use xlink:href="#glyph-0-5" x="157.301" y="307.676"/>
</g>
<g fill="rgb(0%, 0%, 0%)" fill-opacity="1">
<use xlink:href="#glyph-0-2" x="131.532" y="291.165"/>
</g>
<g fill="rgb(0%, 0%, 0%)" fill-opacity="1">
<use xlink:href="#glyph-0-4" x="105.762" y="274.655"/>
</g>
<g fill="rgb(0%, 0%, 0%)" fill-opacity="1">
<use xlink:href="#glyph-0-6" x="79.993" y="258.144"/>
</g>
<g fill="rgb(0%, 0%, 0%)" fill-opacity="1">
<use xlink:href="#glyph-0-7" x="54.223" y="241.633"/>
</g>
<g fill="rgb(0%, 0%, 0%)" fill-opacity="1">
<use xlink:href="#glyph-0-0" x="25.113" y="226.174"/>
<use xlink:href="#glyph-0-5" x="30.0943" y="226.174"/>
</g>
<path fill="none" stroke-width="0.19925" stroke-linecap="butt" stroke-linejoin="miter" stroke="rgb(50%, 50%, 50%)" stroke-opacity="1" stroke-miterlimit="10" d="M -128.847969 233.891344 L -125.269844 231.594469 M -100.953438 239.848375 L -97.371406 237.555406 M -73.055 245.805406 L -69.476875 243.512437 M -45.160469 251.762437 L -41.578438 249.469469 M -17.262031 257.719469 L -13.683906 255.4265 M 10.6325 263.6765 L 14.214531 261.383531 M 38.530937 269.637437 L 42.109062 267.340562 M 66.425469 275.594469 L 70.0075 273.297594 M 94.323906 281.5515 L 97.902031 279.258531 " transform="matrix(1, 0, 0, -1, 165.43, 283.739)"/>
<path fill="none" stroke-width="0.19925" stroke-linecap="butt" stroke-linejoin="miter" stroke="rgb(50%, 50%, 50%)" stroke-opacity="1" stroke-miterlimit="10" d="M 223.171562 198.996812 L 219.011406 198.110094 M 197.402031 215.508531 L 193.241875 214.617906 M 171.6325 232.02025 L 167.472344 231.129625 M 145.862969 248.528062 L 141.702812 247.641344 M 120.093437 265.039781 L 115.933281 264.153062 M 94.323906 281.5515 L 90.16375 280.664781 " transform="matrix(1, 0, 0, -1, 165.43, 283.739)"/>
<path fill="none" stroke-width="0.3985" stroke-linecap="butt" stroke-linejoin="miter" stroke="rgb(0%, 0%, 0%)" stroke-opacity="1" stroke-miterlimit="10" d="M -128.847969 233.891344 L 94.323906 281.5515 " transform="matrix(1, 0, 0, -1, 165.43, 283.739)"/>
<path fill="none" stroke-width="0.3985" stroke-linecap="butt" stroke-linejoin="miter" stroke="rgb(0%, 0%, 0%)" stroke-opacity="1" stroke-miterlimit="10" d="M 223.171562 198.996812 L 94.323906 281.5515 " transform="matrix(1, 0, 0, -1, 165.43, 283.739)"/>
<path fill="none" stroke-width="0.19925" stroke-linecap="butt" stroke-linejoin="miter" stroke="rgb(50%, 50%, 50%)" stroke-opacity="1" stroke-miterlimit="10" d="M -0.0003125 -13.757094 L -0.0003125 -9.507094 M -25.769844 2.750719 L -25.769844 7.004625 M -51.539375 19.262437 L -51.539375 23.516344 M -77.308906 35.774156 L -77.308906 40.024156 M -103.078438 52.285875 L -103.078438 56.535875 M -128.847969 68.797594 L -128.847969 73.047594 " transform="matrix(1, 0, 0, -1, 165.43, 283.739)"/>
<path fill="none" stroke-width="0.19925" stroke-linecap="butt" stroke-linejoin="miter" stroke="rgb(50%, 50%, 50%)" stroke-opacity="1" stroke-miterlimit="10" d="M -128.847969 71.973375 L -125.269844 69.6765 M -128.847969 114.3015 L -125.269844 112.008531 M -128.847969 156.633531 L -125.269844 154.340562 M -128.847969 198.965562 L -125.269844 196.672594 " transform="matrix(1, 0, 0, -1, 165.43, 283.739)"/>
<path fill="none" stroke-width="0.3985" stroke-linecap="butt" stroke-linejoin="miter" stroke="rgb(0%, 0%, 0%)" stroke-opacity="1" stroke-miterlimit="10" d="M -128.847969 68.797594 L -128.847969 233.891344 " transform="matrix(1, 0, 0, -1, 165.43, 283.739)"/>
<g fill="rgb(0%, 0%, 0%)" fill-opacity="1">
<use xlink:href="#glyph-0-2" x="23.101" y="213.435"/>
<use xlink:href="#glyph-0-5" x="28.0823" y="213.435"/>
</g>
<g fill="rgb(0%, 0%, 0%)" fill-opacity="1">
<use xlink:href="#glyph-0-4" x="23.101" y="171.104"/>
<use xlink:href="#glyph-0-5" x="28.0823" y="171.104"/>
</g>
<g fill="rgb(0%, 0%, 0%)" fill-opacity="1">
<use xlink:href="#glyph-0-6" x="23.101" y="128.773"/>
<use xlink:href="#glyph-0-5" x="28.0823" y="128.773"/>
</g>
<g fill="rgb(0%, 0%, 0%)" fill-opacity="1">
<use xlink:href="#glyph-0-7" x="23.101" y="86.443"/>
<use xlink:href="#glyph-0-5" x="28.0823" y="86.443"/>
</g>
<path fill="none" stroke-width="0.19925" stroke-linecap="butt" stroke-linejoin="miter" stroke="rgb(50%, 50%, 50%)" stroke-opacity="1" stroke-miterlimit="10" d="M 223.171562 33.903062 L 223.171562 38.153062 M 197.402031 50.414781 L 197.402031 54.664781 M 171.6325 66.922594 L 171.6325 71.1765 M 145.862969 83.434312 L 145.862969 87.688219 M 120.093437 99.946031 L 120.093437 104.199937 M 94.323906 116.45775 L 94.323906 120.70775 M 223.171562 198.996812 L 223.171562 194.746812 M 197.402031 215.508531 L 197.402031 211.254625 M 171.6325 232.02025 L 171.6325 227.766344 M 145.862969 248.528062 L 145.862969 244.278062 M 120.093437 265.039781 L 120.093437 260.789781 M 94.323906 281.5515 L 94.323906 277.297594 " transform="matrix(1, 0, 0, -1, 165.43, 283.739)"/>
<path fill="none" stroke-width="0.19925" stroke-linecap="butt" stroke-linejoin="miter" stroke="rgb(50%, 50%, 50%)" stroke-opacity="1" stroke-miterlimit="10" d="M 223.171562 37.078844 L 219.589531 39.371812 M 223.171562 79.410875 L 219.589531 81.703844 M 223.171562 121.742906 L 219.589531 124.035875 M 223.171562 164.071031 L 219.589531 166.367906 M 94.323906 119.633531 L 97.902031 117.336656 M 94.323906 161.965562 L 97.902031 159.668687 M 94.323906 204.293687 L 97.902031 202.000719 M 94.323906 246.625719 L 97.902031 244.33275 " transform="matrix(1, 0, 0, -1, 165.43, 283.739)"/>
<path fill="none" stroke-width="0.3985" stroke-linecap="butt" stroke-linejoin="miter" stroke="rgb(0%, 0%, 0%)" stroke-opacity="1" stroke-miterlimit="10" d="M 223.171562 33.903062 L 223.171562 198.996812 " transform="matrix(1, 0, 0, -1, 165.43, 283.739)"/>
<path fill="none" stroke-width="0.3985" stroke-linecap="butt" stroke-linejoin="miter" stroke="rgb(0%, 0%, 0%)" stroke-opacity="1" stroke-miterlimit="10" d="M 94.323906 116.45775 L 94.323906 281.5515 " transform="matrix(1, 0, 0, -1, 165.43, 283.739)"/>
<path fill="none" stroke-width="0.19925" stroke-linecap="butt" stroke-linejoin="miter" stroke="rgb(50%, 50%, 50%)" stroke-opacity="1" stroke-miterlimit="10" d="M -0.0003125 -13.757094 L -0.0003125 -9.507094 M 27.898125 -7.800063 L 27.898125 -3.550063 M 55.792656 -1.843031 L 55.792656 2.406969 M 83.691094 4.114 L 83.691094 8.367906 M 111.585625 10.071031 L 111.585625 14.324937 M 139.480156 16.028062 L 139.480156 20.281969 M 167.378594 21.989 L 167.378594 26.239 M 195.273125 27.946031 L 195.273125 32.196031 M 223.171562 33.903062 L 223.171562 38.153062 " transform="matrix(1, 0, 0, -1, 165.43, 283.739)"/>
<path fill="none" stroke-width="0.19925" stroke-linecap="butt" stroke-linejoin="miter" stroke="rgb(50%, 50%, 50%)" stroke-opacity="1" stroke-miterlimit="10" d="M 223.171562 37.078844 L 219.011406 36.192125 M 223.171562 79.410875 L 219.011406 78.52025 M 223.171562 121.742906 L 219.011406 120.852281 M 223.171562 164.071031 L 219.011406 163.184312 " transform="matrix(1, 0, 0, -1, 165.43, 283.739)"/>
<path fill="none" stroke-width="0.19925" stroke-linecap="butt" stroke-linejoin="miter" stroke="rgb(50%, 50%, 50%)" stroke-opacity="1" stroke-miterlimit="10" d="M -128.847969 68.797594 L -128.847969 73.047594 M -100.953438 74.754625 L -100.953438 79.004625 M -73.055 80.711656 L -73.055 84.961656 M -45.160469 86.668687 L -45.160469 90.918687 M -17.262031 92.625719 L -17.262031 96.879625 M 10.6325 98.58275 L 10.6325 102.836656 M 38.530937 104.539781 L 38.530937 108.793687 M 66.425469 110.500719 L 66.425469 114.750719 M 94.323906 116.45775 L 94.323906 120.70775 M -128.847969 233.891344 L -128.847969 229.637437 M -100.953438 239.848375 L -100.953438 235.594469 M -73.055 245.805406 L -73.055 241.555406 M -45.160469 251.762437 L -45.160469 247.512437 M -17.262031 257.719469 L -17.262031 253.469469 M 10.6325 263.6765 L 10.6325 259.4265 M 38.530937 269.637437 L 38.530937 265.383531 M 66.425469 275.594469 L 66.425469 271.340562 M 94.323906 281.5515 L 94.323906 277.297594 " transform="matrix(1, 0, 0, -1, 165.43, 283.739)"/>
<path fill="none" stroke-width="0.19925" stroke-linecap="butt" stroke-linejoin="miter" stroke="rgb(50%, 50%, 50%)" stroke-opacity="1" stroke-miterlimit="10" d="M -128.847969 71.973375 L -124.691719 72.860094 M -128.847969 114.3015 L -124.691719 115.192125 M -128.847969 156.633531 L -124.691719 157.524156 M -128.847969 198.965562 L -124.691719 199.852281 M 94.323906 119.633531 L 90.16375 118.742906 M 94.323906 161.965562 L 90.16375 161.074937 M 94.323906 204.293687 L 90.16375 203.406969 M 94.323906 246.625719 L 90.16375 245.739 " transform="matrix(1, 0, 0, -1, 165.43, 283.739)"/>
<g clip-path="url(#clip-0)">
<g clip-path="url(#clip-1)">
<path fill-rule="nonzero" fill="rgb(100%, 100%, 100%)" fill-opacity="0.8" d="M 259.753906 153.523438 L 272.636719 159.664062 L 216.84375 160.996094 L 203.960938 144.273438 Z M 259.753906 153.523438 "/>
</g>
</g>
<g clip-path="url(#clip-2)">
<g clip-path="url(#clip-3)">
<path fill="none" stroke-width="0.3985" stroke-linecap="butt" stroke-linejoin="miter" stroke="rgb(50%, 50%, 50%)" stroke-opacity="0.8" stroke-miterlimit="10" d="M 94.323906 130.215562 L 107.206719 124.074937 L 51.41375 122.742906 L 38.530937 139.465562 Z M 94.323906 130.215562 " transform="matrix(1, 0, 0, -1, 165.43, 283.739)"/>
</g>
</g>
<g clip-path="url(#clip-4)">
<g clip-path="url(#clip-5)">
<path fill-rule="nonzero" fill="rgb(100%, 100%, 100%)" fill-opacity="0.8" d="M 272.636719 159.664062 L 285.523438 163.683594 L 229.730469 175.601562 L 216.84375 160.996094 Z M 272.636719 159.664062 "/>
</g>
</g>
<g clip-path="url(#clip-6)">
<g clip-path="url(#clip-7)">
<path fill="none" stroke-width="0.3985" stroke-linecap="butt" stroke-linejoin="miter" stroke="rgb(50%, 50%, 50%)" stroke-opacity="0.8" stroke-miterlimit="10" d="M 107.206719 124.074937 L 120.093437 120.055406 L 64.300469 108.137437 L 51.41375 122.742906 Z M 107.206719 124.074937 " transform="matrix(1, 0, 0, -1, 165.43, 283.739)"/>
</g>
</g>
<g clip-path="url(#clip-8)">
<g clip-path="url(#clip-9)">
<path fill-rule="nonzero" fill="rgb(100%, 100%, 100%)" fill-opacity="0.8" d="M 285.523438 163.683594 L 298.40625 165.589844 L 242.613281 188.089844 L 229.730469 175.601562 Z M 285.523438 163.683594 "/>
</g>
</g>
<g clip-path="url(#clip-10)">
<g clip-path="url(#clip-11)">
<path fill="none" stroke-width="0.3985" stroke-linecap="butt" stroke-linejoin="miter" stroke="rgb(50%, 50%, 50%)" stroke-opacity="0.8" stroke-miterlimit="10" d="M 120.093437 120.055406 L 132.97625 118.149156 L 77.183281 95.649156 L 64.300469 108.137437 Z M 120.093437 120.055406 " transform="matrix(1, 0, 0, -1, 165.43, 283.739)"/>
</g>
</g>
<g clip-path="url(#clip-12)">
<g clip-path="url(#clip-13)">
<path fill-rule="nonzero" fill="rgb(100%, 100%, 100%)" fill-opacity="0.8" d="M 298.40625 165.589844 L 311.292969 165.378906 L 255.5 198.460938 L 242.613281 188.089844 Z M 298.40625 165.589844 "/>
</g>
</g>
<g clip-path="url(#clip-14)">
<g clip-path="url(#clip-15)">
<path fill="none" stroke-width="0.3985" stroke-linecap="butt" stroke-linejoin="miter" stroke="rgb(50%, 50%, 50%)" stroke-opacity="0.8" stroke-miterlimit="10" d="M 132.97625 118.149156 L 145.862969 118.360094 L 90.07 85.278062 L 77.183281 95.649156 Z M 132.97625 118.149156 " transform="matrix(1, 0, 0, -1, 165.43, 283.739)"/>
</g>
</g>
<g clip-path="url(#clip-16)">
<g clip-path="url(#clip-17)">
<path fill-rule="nonzero" fill="rgb(100%, 100%, 100%)" fill-opacity="0.8" d="M 311.292969 165.378906 L 324.175781 160.933594 L 268.382812 204.597656 L 255.5 198.460938 Z M 311.292969 165.378906 "/>
</g>
</g>
<g clip-path="url(#clip-18)">
<g clip-path="url(#clip-19)">
<path fill="none" stroke-width="0.3985" stroke-linecap="butt" stroke-linejoin="miter" stroke="rgb(50%, 50%, 50%)" stroke-opacity="0.8" stroke-miterlimit="10" d="M 145.862969 118.360094 L 158.745781 122.805406 L 102.952812 79.141344 L 90.07 85.278062 Z M 145.862969 118.360094 " transform="matrix(1, 0, 0, -1, 165.43, 283.739)"/>
</g>
</g>
<g clip-path="url(#clip-20)">
<g clip-path="url(#clip-21)">
<path fill-rule="nonzero" fill="rgb(100%, 100%, 100%)" fill-opacity="0.8" d="M 324.175781 160.933594 L 337.0625 154.375 L 281.269531 208.621094 L 268.382812 204.597656 Z M 324.175781 160.933594 "/>
</g>
</g>
<g clip-path="url(#clip-22)">
<g clip-path="url(#clip-23)">
<path fill="none" stroke-width="0.3985" stroke-linecap="butt" stroke-linejoin="miter" stroke="rgb(50%, 50%, 50%)" stroke-opacity="0.8" stroke-miterlimit="10" d="M 158.745781 122.805406 L 171.6325 129.364 L 115.839531 75.117906 L 102.952812 79.141344 Z M 158.745781 122.805406 " transform="matrix(1, 0, 0, -1, 165.43, 283.739)"/>
</g>
</g>
<g clip-path="url(#clip-24)">
<g clip-path="url(#clip-25)">
<path fill-rule="nonzero" fill="rgb(100%, 100%, 100%)" fill-opacity="0.8" d="M 337.0625 154.375 L 349.945312 145.699219 L 294.152344 210.527344 L 281.269531 208.621094 Z M 337.0625 154.375 "/>
</g>
</g>
<g clip-path="url(#clip-26)">
<g clip-path="url(#clip-27)">
<path fill="none" stroke-width="0.3985" stroke-linecap="butt" stroke-linejoin="miter" stroke="rgb(50%, 50%, 50%)" stroke-opacity="0.8" stroke-miterlimit="10" d="M 171.6325 129.364 L 184.515312 138.039781 L 128.722344 73.211656 L 115.839531 75.117906 Z M 171.6325 129.364 " transform="matrix(1, 0, 0, -1, 165.43, 283.739)"/>
</g>
</g>
<g clip-path="url(#clip-28)">
<g clip-path="url(#clip-29)">
<path fill-rule="nonzero" fill="rgb(100%, 100%, 100%)" fill-opacity="0.8" d="M 349.945312 145.699219 L 362.832031 132.789062 L 307.039062 208.199219 L 294.152344 210.527344 Z M 349.945312 145.699219 "/>
</g>
</g>
<g clip-path="url(#clip-30)">
<g clip-path="url(#clip-31)">
<path fill="none" stroke-width="0.3985" stroke-linecap="butt" stroke-linejoin="miter" stroke="rgb(50%, 50%, 50%)" stroke-opacity="0.8" stroke-miterlimit="10" d="M 184.515312 138.039781 L 197.402031 150.949937 L 141.609062 75.539781 L 128.722344 73.211656 Z M 184.515312 138.039781 " transform="matrix(1, 0, 0, -1, 165.43, 283.739)"/>
</g>
</g>
<g clip-path="url(#clip-32)">
<g clip-path="url(#clip-33)">
<path fill-rule="nonzero" fill="rgb(100%, 100%, 100%)" fill-opacity="0.8" d="M 362.832031 132.789062 L 375.714844 117.761719 L 319.921875 203.757812 L 307.039062 208.199219 Z M 362.832031 132.789062 "/>
</g>
</g>
<g clip-path="url(#clip-34)">
<g clip-path="url(#clip-35)">
<path fill="none" stroke-width="0.3985" stroke-linecap="butt" stroke-linejoin="miter" stroke="rgb(50%, 50%, 50%)" stroke-opacity="0.8" stroke-miterlimit="10" d="M 197.402031 150.949937 L 210.284844 165.977281 L 154.491875 79.981187 L 141.609062 75.539781 Z M 197.402031 150.949937 " transform="matrix(1, 0, 0, -1, 165.43, 283.739)"/>
</g>
</g>
<g clip-path="url(#clip-36)">
<g clip-path="url(#clip-37)">
<path fill-rule="nonzero" fill="rgb(100%, 100%, 100%)" fill-opacity="0.8" d="M 375.714844 117.761719 L 388.601562 98.5 L 332.808594 195.078125 L 319.921875 203.757812 Z M 375.714844 117.761719 "/>
</g>
</g>
<g clip-path="url(#clip-38)">
<g clip-path="url(#clip-39)">
<path fill="none" stroke-width="0.3985" stroke-linecap="butt" stroke-linejoin="miter" stroke="rgb(50%, 50%, 50%)" stroke-opacity="0.8" stroke-miterlimit="10" d="M 210.284844 165.977281 L 223.171562 185.239 L 167.378594 88.660875 L 154.491875 79.981187 Z M 210.284844 165.977281 " transform="matrix(1, 0, 0, -1, 165.43, 283.739)"/>
</g>
</g>
<g clip-path="url(#clip-40)">
<g clip-path="url(#clip-41)">
<path fill-rule="nonzero" fill="rgb(100%, 100%, 100%)" fill-opacity="0.8" d="M 203.960938 144.273438 L 216.84375 160.996094 L 161.050781 153.859375 L 148.167969 132.90625 Z M 203.960938 144.273438 "/>
</g>
</g>
<g clip-path="url(#clip-42)">
<g clip-path="url(#clip-43)">
<path fill="none" stroke-width="0.3985" stroke-linecap="butt" stroke-linejoin="miter" stroke="rgb(50%, 50%, 50%)" stroke-opacity="0.8" stroke-miterlimit="10" d="M 38.530937 139.465562 L 51.41375 122.742906 L -4.379219 129.879625 L -17.262031 150.83275 Z M 38.530937 139.465562 " transform="matrix(1, 0, 0, -1, 165.43, 283.739)"/>
</g>
</g>
<g clip-path="url(#clip-44)">
<g clip-path="url(#clip-45)">
<path fill-rule="nonzero" fill="rgb(100%, 100%, 100%)" fill-opacity="0.8" d="M 216.84375 160.996094 L 229.730469 175.601562 L 173.9375 170.582031 L 161.050781 153.859375 Z M 216.84375 160.996094 "/>
</g>
</g>
<g clip-path="url(#clip-46)">
<g clip-path="url(#clip-47)">
<path fill="none" stroke-width="0.3985" stroke-linecap="butt" stroke-linejoin="miter" stroke="rgb(50%, 50%, 50%)" stroke-opacity="0.8" stroke-miterlimit="10" d="M 51.41375 122.742906 L 64.300469 108.137437 L 8.5075 113.156969 L -4.379219 129.879625 Z M 51.41375 122.742906 " transform="matrix(1, 0, 0, -1, 165.43, 283.739)"/>
</g>
</g>
<g clip-path="url(#clip-48)">
<g clip-path="url(#clip-49)">
<path fill-rule="nonzero" fill="rgb(100%, 100%, 100%)" fill-opacity="0.8" d="M 229.730469 175.601562 L 242.613281 188.089844 L 186.820312 187.304688 L 173.9375 170.582031 Z M 229.730469 175.601562 "/>
</g>
</g>
<g clip-path="url(#clip-50)">
<g clip-path="url(#clip-51)">
<path fill="none" stroke-width="0.3985" stroke-linecap="butt" stroke-linejoin="miter" stroke="rgb(50%, 50%, 50%)" stroke-opacity="0.8" stroke-miterlimit="10" d="M 64.300469 108.137437 L 77.183281 95.649156 L 21.390312 96.434312 L 8.5075 113.156969 Z M 64.300469 108.137437 " transform="matrix(1, 0, 0, -1, 165.43, 283.739)"/>
</g>
</g>
<g clip-path="url(#clip-52)">
<g clip-path="url(#clip-53)">
<path fill-rule="nonzero" fill="rgb(100%, 100%, 100%)" fill-opacity="0.8" d="M 242.613281 188.089844 L 255.5 198.460938 L 199.707031 201.910156 L 186.820312 187.304688 Z M 242.613281 188.089844 "/>
</g>
</g>
<g clip-path="url(#clip-54)">
<g clip-path="url(#clip-55)">
<path fill="none" stroke-width="0.3985" stroke-linecap="butt" stroke-linejoin="miter" stroke="rgb(50%, 50%, 50%)" stroke-opacity="0.8" stroke-miterlimit="10" d="M 77.183281 95.649156 L 90.07 85.278062 L 34.277031 81.828844 L 21.390312 96.434312 Z M 77.183281 95.649156 " transform="matrix(1, 0, 0, -1, 165.43, 283.739)"/>
</g>
</g>
<g clip-path="url(#clip-56)">
<g clip-path="url(#clip-57)">
<path fill-rule="nonzero" fill="rgb(100%, 100%, 100%)" fill-opacity="0.8" d="M 255.5 198.460938 L 268.382812 204.597656 L 212.589844 214.398438 L 199.707031 201.910156 Z M 255.5 198.460938 "/>
</g>
</g>
<g clip-path="url(#clip-58)">
<g clip-path="url(#clip-59)">
<path fill="none" stroke-width="0.3985" stroke-linecap="butt" stroke-linejoin="miter" stroke="rgb(50%, 50%, 50%)" stroke-opacity="0.8" stroke-miterlimit="10" d="M 90.07 85.278062 L 102.952812 79.141344 L 47.159844 69.340562 L 34.277031 81.828844 Z M 90.07 85.278062 " transform="matrix(1, 0, 0, -1, 165.43, 283.739)"/>
</g>
</g>
<g clip-path="url(#clip-60)">
<g clip-path="url(#clip-61)">
<path fill-rule="nonzero" fill="rgb(100%, 100%, 100%)" fill-opacity="0.8" d="M 268.382812 204.597656 L 281.269531 208.621094 L 225.476562 224.769531 L 212.589844 214.398438 Z M 268.382812 204.597656 "/>
</g>
</g>
<g clip-path="url(#clip-62)">
<g clip-path="url(#clip-63)">
<path fill="none" stroke-width="0.3985" stroke-linecap="butt" stroke-linejoin="miter" stroke="rgb(50%, 50%, 50%)" stroke-opacity="0.8" stroke-miterlimit="10" d="M 102.952812 79.141344 L 115.839531 75.117906 L 60.046562 58.969469 L 47.159844 69.340562 Z M 102.952812 79.141344 " transform="matrix(1, 0, 0, -1, 165.43, 283.739)"/>
</g>
</g>
<g clip-path="url(#clip-64)">
<g clip-path="url(#clip-65)">
<path fill-rule="nonzero" fill="rgb(100%, 100%, 100%)" fill-opacity="0.8" d="M 281.269531 208.621094 L 294.152344 210.527344 L 238.359375 235.140625 L 225.476562 224.769531 Z M 281.269531 208.621094 "/>
</g>
</g>
<g clip-path="url(#clip-66)">
<g clip-path="url(#clip-67)">
<path fill="none" stroke-width="0.3985" stroke-linecap="butt" stroke-linejoin="miter" stroke="rgb(50%, 50%, 50%)" stroke-opacity="0.8" stroke-miterlimit="10" d="M 115.839531 75.117906 L 128.722344 73.211656 L 72.929375 48.598375 L 60.046562 58.969469 Z M 115.839531 75.117906 " transform="matrix(1, 0, 0, -1, 165.43, 283.739)"/>
</g>
</g>
<g clip-path="url(#clip-68)">
<g clip-path="url(#clip-69)">
<path fill-rule="nonzero" fill="rgb(100%, 100%, 100%)" fill-opacity="0.8" d="M 294.152344 210.527344 L 307.039062 208.199219 L 251.246094 241.28125 L 238.359375 235.140625 Z M 294.152344 210.527344 "/>
</g>
</g>
<g clip-path="url(#clip-70)">
<g clip-path="url(#clip-71)">
<path fill="none" stroke-width="0.3985" stroke-linecap="butt" stroke-linejoin="miter" stroke="rgb(50%, 50%, 50%)" stroke-opacity="0.8" stroke-miterlimit="10" d="M 128.722344 73.211656 L 141.609062 75.539781 L 85.816094 42.45775 L 72.929375 48.598375 Z M 128.722344 73.211656 " transform="matrix(1, 0, 0, -1, 165.43, 283.739)"/>
</g>
</g>
<g clip-path="url(#clip-72)">
<g clip-path="url(#clip-73)">
<path fill-rule="nonzero" fill="rgb(100%, 100%, 100%)" fill-opacity="0.8" d="M 307.039062 208.199219 L 319.921875 203.757812 L 264.128906 247.417969 L 251.246094 241.28125 Z M 307.039062 208.199219 "/>
</g>
</g>
<g clip-path="url(#clip-74)">
<g clip-path="url(#clip-75)">
<path fill="none" stroke-width="0.3985" stroke-linecap="butt" stroke-linejoin="miter" stroke="rgb(50%, 50%, 50%)" stroke-opacity="0.8" stroke-miterlimit="10" d="M 141.609062 75.539781 L 154.491875 79.981187 L 98.698906 36.321031 L 85.816094 42.45775 Z M 141.609062 75.539781 " transform="matrix(1, 0, 0, -1, 165.43, 283.739)"/>
</g>
</g>
<g clip-path="url(#clip-76)">
<g clip-path="url(#clip-77)">
<path fill-rule="nonzero" fill="rgb(100%, 100%, 100%)" fill-opacity="0.8" d="M 319.921875 203.757812 L 332.808594 195.078125 L 277.015625 249.324219 L 264.128906 247.417969 Z M 319.921875 203.757812 "/>
</g>
</g>
<g clip-path="url(#clip-78)">
<g clip-path="url(#clip-79)">
<path fill="none" stroke-width="0.3985" stroke-linecap="butt" stroke-linejoin="miter" stroke="rgb(50%, 50%, 50%)" stroke-opacity="0.8" stroke-miterlimit="10" d="M 154.491875 79.981187 L 167.378594 88.660875 L 111.585625 34.414781 L 98.698906 36.321031 Z M 154.491875 79.981187 " transform="matrix(1, 0, 0, -1, 165.43, 283.739)"/>
</g>
</g>
<g clip-path="url(#clip-80)">
<g clip-path="url(#clip-81)">
<path fill-rule="nonzero" fill="rgb(100%, 100%, 100%)" fill-opacity="0.8" d="M 148.167969 132.90625 L 161.050781 153.859375 L 105.257812 140.378906 L 92.375 115.1875 Z M 148.167969 132.90625 "/>
</g>
</g>
<g clip-path="url(#clip-82)">
<g clip-path="url(#clip-83)">
<path fill="none" stroke-width="0.3985" stroke-linecap="butt" stroke-linejoin="miter" stroke="rgb(50%, 50%, 50%)" stroke-opacity="0.8" stroke-miterlimit="10" d="M -17.262031 150.83275 L -4.379219 129.879625 L -60.172188 143.360094 L -73.055 168.5515 Z M -17.262031 150.83275 " transform="matrix(1, 0, 0, -1, 165.43, 283.739)"/>
</g>
</g>
<g clip-path="url(#clip-84)">
<g clip-path="url(#clip-85)">
<path fill-rule="nonzero" fill="rgb(100%, 100%, 100%)" fill-opacity="0.8" d="M 161.050781 153.859375 L 173.9375 170.582031 L 118.144531 161.332031 L 105.257812 140.378906 Z M 161.050781 153.859375 "/>
</g>
</g>
<g clip-path="url(#clip-86)">
<g clip-path="url(#clip-87)">
<path fill="none" stroke-width="0.3985" stroke-linecap="butt" stroke-linejoin="miter" stroke="rgb(50%, 50%, 50%)" stroke-opacity="0.8" stroke-miterlimit="10" d="M -4.379219 129.879625 L 8.5075 113.156969 L -47.285469 122.406969 L -60.172188 143.360094 Z M -4.379219 129.879625 " transform="matrix(1, 0, 0, -1, 165.43, 283.739)"/>
</g>
</g>
<g clip-path="url(#clip-88)">
<g clip-path="url(#clip-89)">
<path fill-rule="nonzero" fill="rgb(100%, 100%, 100%)" fill-opacity="0.8" d="M 173.9375 170.582031 L 186.820312 187.304688 L 131.027344 182.285156 L 118.144531 161.332031 Z M 173.9375 170.582031 "/>
</g>
</g>
<g clip-path="url(#clip-90)">
<g clip-path="url(#clip-91)">
<path fill="none" stroke-width="0.3985" stroke-linecap="butt" stroke-linejoin="miter" stroke="rgb(50%, 50%, 50%)" stroke-opacity="0.8" stroke-miterlimit="10" d="M 8.5075 113.156969 L 21.390312 96.434312 L -34.402656 101.453844 L -47.285469 122.406969 Z M 8.5075 113.156969 " transform="matrix(1, 0, 0, -1, 165.43, 283.739)"/>
</g>
</g>
<g clip-path="url(#clip-92)">
<g clip-path="url(#clip-93)">
<path fill-rule="nonzero" fill="rgb(100%, 100%, 100%)" fill-opacity="0.8" d="M 186.820312 187.304688 L 199.707031 201.910156 L 143.914062 199.007812 L 131.027344 182.285156 Z M 186.820312 187.304688 "/>
</g>
</g>
<g clip-path="url(#clip-94)">
<g clip-path="url(#clip-95)">
<path fill="none" stroke-width="0.3985" stroke-linecap="butt" stroke-linejoin="miter" stroke="rgb(50%, 50%, 50%)" stroke-opacity="0.8" stroke-miterlimit="10" d="M 21.390312 96.434312 L 34.277031 81.828844 L -21.515938 84.731187 L -34.402656 101.453844 Z M 21.390312 96.434312 " transform="matrix(1, 0, 0, -1, 165.43, 283.739)"/>
</g>
</g>
<g clip-path="url(#clip-96)">
<g clip-path="url(#clip-97)">
<path fill-rule="nonzero" fill="rgb(100%, 100%, 100%)" fill-opacity="0.8" d="M 199.707031 201.910156 L 212.589844 214.398438 L 156.796875 215.730469 L 143.914062 199.007812 Z M 199.707031 201.910156 "/>
</g>
</g>
<g clip-path="url(#clip-98)">
<g clip-path="url(#clip-99)">
<path fill="none" stroke-width="0.3985" stroke-linecap="butt" stroke-linejoin="miter" stroke="rgb(50%, 50%, 50%)" stroke-opacity="0.8" stroke-miterlimit="10" d="M 34.277031 81.828844 L 47.159844 69.340562 L -8.633125 68.008531 L -21.515938 84.731187 Z M 34.277031 81.828844 " transform="matrix(1, 0, 0, -1, 165.43, 283.739)"/>
</g>
</g>
<g clip-path="url(#clip-100)">
<g clip-path="url(#clip-101)">
<path fill-rule="nonzero" fill="rgb(100%, 100%, 100%)" fill-opacity="0.8" d="M 212.589844 214.398438 L 225.476562 224.769531 L 169.683594 230.335938 L 156.796875 215.730469 Z M 212.589844 214.398438 "/>
</g>
</g>
<g clip-path="url(#clip-102)">
<g clip-path="url(#clip-103)">
<path fill="none" stroke-width="0.3985" stroke-linecap="butt" stroke-linejoin="miter" stroke="rgb(50%, 50%, 50%)" stroke-opacity="0.8" stroke-miterlimit="10" d="M 47.159844 69.340562 L 60.046562 58.969469 L 4.253594 53.403062 L -8.633125 68.008531 Z M 47.159844 69.340562 " transform="matrix(1, 0, 0, -1, 165.43, 283.739)"/>
</g>
</g>
<g clip-path="url(#clip-104)">
<g clip-path="url(#clip-105)">
<path fill-rule="nonzero" fill="rgb(100%, 100%, 100%)" fill-opacity="0.8" d="M 225.476562 224.769531 L 238.359375 235.140625 L 182.566406 242.824219 L 169.683594 230.335938 Z M 225.476562 224.769531 "/>
</g>
</g>
<g clip-path="url(#clip-106)">
<g clip-path="url(#clip-107)">
<path fill="none" stroke-width="0.3985" stroke-linecap="butt" stroke-linejoin="miter" stroke="rgb(50%, 50%, 50%)" stroke-opacity="0.8" stroke-miterlimit="10" d="M 60.046562 58.969469 L 72.929375 48.598375 L 17.136406 40.914781 L 4.253594 53.403062 Z M 60.046562 58.969469 " transform="matrix(1, 0, 0, -1, 165.43, 283.739)"/>
</g>
</g>
<g clip-path="url(#clip-108)">
<g clip-path="url(#clip-109)">
<path fill-rule="nonzero" fill="rgb(100%, 100%, 100%)" fill-opacity="0.8" d="M 238.359375 235.140625 L 251.246094 241.28125 L 195.453125 253.195312 L 182.566406 242.824219 Z M 238.359375 235.140625 "/>
</g>
</g>
<g clip-path="url(#clip-110)">
<g clip-path="url(#clip-111)">
<path fill="none" stroke-width="0.3985" stroke-linecap="butt" stroke-linejoin="miter" stroke="rgb(50%, 50%, 50%)" stroke-opacity="0.8" stroke-miterlimit="10" d="M 72.929375 48.598375 L 85.816094 42.45775 L 30.023125 30.543687 L 17.136406 40.914781 Z M 72.929375 48.598375 " transform="matrix(1, 0, 0, -1, 165.43, 283.739)"/>
</g>
</g>
<g clip-path="url(#clip-112)">
<g clip-path="url(#clip-113)">
<path fill-rule="nonzero" fill="rgb(100%, 100%, 100%)" fill-opacity="0.8" d="M 251.246094 241.28125 L 264.128906 247.417969 L 208.335938 263.566406 L 195.453125 253.195312 Z M 251.246094 241.28125 "/>
</g>
</g>
<g clip-path="url(#clip-114)">
<g clip-path="url(#clip-115)">
<path fill="none" stroke-width="0.3985" stroke-linecap="butt" stroke-linejoin="miter" stroke="rgb(50%, 50%, 50%)" stroke-opacity="0.8" stroke-miterlimit="10" d="M 85.816094 42.45775 L 98.698906 36.321031 L 42.905937 20.172594 L 30.023125 30.543687 Z M 85.816094 42.45775 " transform="matrix(1, 0, 0, -1, 165.43, 283.739)"/>
</g>
</g>
<g clip-path="url(#clip-116)">
<g clip-path="url(#clip-117)">
<path fill-rule="nonzero" fill="rgb(100%, 100%, 100%)" fill-opacity="0.8" d="M 264.128906 247.417969 L 277.015625 249.324219 L 221.222656 269.707031 L 208.335938 263.566406 Z M 264.128906 247.417969 "/>
</g>
</g>
<g clip-path="url(#clip-118)">
<g clip-path="url(#clip-119)">
<path fill="none" stroke-width="0.3985" stroke-linecap="butt" stroke-linejoin="miter" stroke="rgb(50%, 50%, 50%)" stroke-opacity="0.8" stroke-miterlimit="10" d="M 98.698906 36.321031 L 111.585625 34.414781 L 55.792656 14.031969 L 42.905937 20.172594 Z M 98.698906 36.321031 " transform="matrix(1, 0, 0, -1, 165.43, 283.739)"/>
</g>
</g>
<g clip-path="url(#clip-120)">
<g clip-path="url(#clip-121)">
<path fill-rule="nonzero" fill="rgb(100%, 100%, 100%)" fill-opacity="0.8" d="M 92.375 115.1875 L 105.257812 140.378906 L 49.464844 99.378906 L 36.582031 63.609375 Z M 92.375 115.1875 "/>
</g>
</g>
<g clip-path="url(#clip-122)">
<g clip-path="url(#clip-123)">
<path fill="none" stroke-width="0.3985" stroke-linecap="butt" stroke-linejoin="miter" stroke="rgb(50%, 50%, 50%)" stroke-opacity="0.8" stroke-miterlimit="10" d="M -73.055 168.5515 L -60.172188 143.360094 L -115.965156 184.360094 L -128.847969 220.129625 Z M -73.055 168.5515 " transform="matrix(1, 0, 0, -1, 165.43, 283.739)"/>
</g>
</g>
<g clip-path="url(#clip-124)">
<g clip-path="url(#clip-125)">
<path fill-rule="nonzero" fill="rgb(100%, 100%, 100%)" fill-opacity="0.8" d="M 105.257812 140.378906 L 118.144531 161.332031 L 62.351562 130.917969 L 49.464844 99.378906 Z M 105.257812 140.378906 "/>
</g>
</g>
<g clip-path="url(#clip-126)">
<g clip-path="url(#clip-127)">
<path fill="none" stroke-width="0.3985" stroke-linecap="butt" stroke-linejoin="miter" stroke="rgb(50%, 50%, 50%)" stroke-opacity="0.8" stroke-miterlimit="10" d="M -60.172188 143.360094 L -47.285469 122.406969 L -103.078438 152.821031 L -115.965156 184.360094 Z M -60.172188 143.360094 " transform="matrix(1, 0, 0, -1, 165.43, 283.739)"/>
</g>
</g>
<g clip-path="url(#clip-128)">
<g clip-path="url(#clip-129)">
<path fill-rule="nonzero" fill="rgb(100%, 100%, 100%)" fill-opacity="0.8" d="M 118.144531 161.332031 L 131.027344 182.285156 L 75.234375 160.335938 L 62.351562 130.917969 Z M 118.144531 161.332031 "/>
</g>
</g>
<g clip-path="url(#clip-130)">
<g clip-path="url(#clip-131)">
<path fill="none" stroke-width="0.3985" stroke-linecap="butt" stroke-linejoin="miter" stroke="rgb(50%, 50%, 50%)" stroke-opacity="0.8" stroke-miterlimit="10" d="M -47.285469 122.406969 L -34.402656 101.453844 L -90.195625 123.403062 L -103.078438 152.821031 Z M -47.285469 122.406969 " transform="matrix(1, 0, 0, -1, 165.43, 283.739)"/>
</g>
</g>
<g clip-path="url(#clip-132)">
<g clip-path="url(#clip-133)">
<path fill-rule="nonzero" fill="rgb(100%, 100%, 100%)" fill-opacity="0.8" d="M 131.027344 182.285156 L 143.914062 199.007812 L 88.121094 185.523438 L 75.234375 160.335938 Z M 131.027344 182.285156 "/>
</g>
</g>
<g clip-path="url(#clip-134)">
<g clip-path="url(#clip-135)">
<path fill="none" stroke-width="0.3985" stroke-linecap="butt" stroke-linejoin="miter" stroke="rgb(50%, 50%, 50%)" stroke-opacity="0.8" stroke-miterlimit="10" d="M -34.402656 101.453844 L -21.515938 84.731187 L -77.308906 98.215562 L -90.195625 123.403062 Z M -34.402656 101.453844 " transform="matrix(1, 0, 0, -1, 165.43, 283.739)"/>
</g>
</g>
<g clip-path="url(#clip-136)">
<g clip-path="url(#clip-137)">
<path fill-rule="nonzero" fill="rgb(100%, 100%, 100%)" fill-opacity="0.8" d="M 143.914062 199.007812 L 156.796875 215.730469 L 101.003906 208.597656 L 88.121094 185.523438 Z M 143.914062 199.007812 "/>
</g>
</g>
<g clip-path="url(#clip-138)">
<g clip-path="url(#clip-139)">
<path fill="none" stroke-width="0.3985" stroke-linecap="butt" stroke-linejoin="miter" stroke="rgb(50%, 50%, 50%)" stroke-opacity="0.8" stroke-miterlimit="10" d="M -21.515938 84.731187 L -8.633125 68.008531 L -64.426094 75.141344 L -77.308906 98.215562 Z M -21.515938 84.731187 " transform="matrix(1, 0, 0, -1, 165.43, 283.739)"/>
</g>
</g>
<g clip-path="url(#clip-140)">
<g clip-path="url(#clip-141)">
<path fill-rule="nonzero" fill="rgb(100%, 100%, 100%)" fill-opacity="0.8" d="M 156.796875 215.730469 L 169.683594 230.335938 L 113.890625 229.550781 L 101.003906 208.597656 Z M 156.796875 215.730469 "/>
</g>
</g>
<g clip-path="url(#clip-142)">
<g clip-path="url(#clip-143)">
<path fill="none" stroke-width="0.3985" stroke-linecap="butt" stroke-linejoin="miter" stroke="rgb(50%, 50%, 50%)" stroke-opacity="0.8" stroke-miterlimit="10" d="M -8.633125 68.008531 L 4.253594 53.403062 L -51.539375 54.188219 L -64.426094 75.141344 Z M -8.633125 68.008531 " transform="matrix(1, 0, 0, -1, 165.43, 283.739)"/>
</g>
</g>
<g clip-path="url(#clip-144)">
<g clip-path="url(#clip-145)">
<path fill-rule="nonzero" fill="rgb(100%, 100%, 100%)" fill-opacity="0.8" d="M 169.683594 230.335938 L 182.566406 242.824219 L 126.773438 246.273438 L 113.890625 229.550781 Z M 169.683594 230.335938 "/>
</g>
</g>
<g clip-path="url(#clip-146)">
<g clip-path="url(#clip-147)">
<path fill="none" stroke-width="0.3985" stroke-linecap="butt" stroke-linejoin="miter" stroke="rgb(50%, 50%, 50%)" stroke-opacity="0.8" stroke-miterlimit="10" d="M 4.253594 53.403062 L 17.136406 40.914781 L -38.656563 37.465562 L -51.539375 54.188219 Z M 4.253594 53.403062 " transform="matrix(1, 0, 0, -1, 165.43, 283.739)"/>
</g>
</g>
<g clip-path="url(#clip-148)">
<g clip-path="url(#clip-149)">
<path fill-rule="nonzero" fill="rgb(100%, 100%, 100%)" fill-opacity="0.8" d="M 182.566406 242.824219 L 195.453125 253.195312 L 139.660156 260.878906 L 126.773438 246.273438 Z M 182.566406 242.824219 "/>
</g>
</g>
<g clip-path="url(#clip-150)">
<g clip-path="url(#clip-151)">
<path fill="none" stroke-width="0.3985" stroke-linecap="butt" stroke-linejoin="miter" stroke="rgb(50%, 50%, 50%)" stroke-opacity="0.8" stroke-miterlimit="10" d="M 17.136406 40.914781 L 30.023125 30.543687 L -25.769844 22.860094 L -38.656563 37.465562 Z M 17.136406 40.914781 " transform="matrix(1, 0, 0, -1, 165.43, 283.739)"/>
</g>
</g>
<g clip-path="url(#clip-152)">
<g clip-path="url(#clip-153)">
<path fill-rule="nonzero" fill="rgb(100%, 100%, 100%)" fill-opacity="0.8" d="M 195.453125 253.195312 L 208.335938 263.566406 L 152.546875 273.367188 L 139.660156 260.878906 Z M 195.453125 253.195312 "/>
</g>
</g>
<g clip-path="url(#clip-154)">
<g clip-path="url(#clip-155)">
<path fill="none" stroke-width="0.3985" stroke-linecap="butt" stroke-linejoin="miter" stroke="rgb(50%, 50%, 50%)" stroke-opacity="0.8" stroke-miterlimit="10" d="M 30.023125 30.543687 L 42.905937 20.172594 L -12.883125 10.371812 L -25.769844 22.860094 Z M 30.023125 30.543687 " transform="matrix(1, 0, 0, -1, 165.43, 283.739)"/>
</g>
</g>
<g clip-path="url(#clip-156)">
<g clip-path="url(#clip-157)">
<path fill-rule="nonzero" fill="rgb(100%, 100%, 100%)" fill-opacity="0.8" d="M 208.335938 263.566406 L 221.222656 269.707031 L 165.429688 283.738281 L 152.546875 273.367188 Z M 208.335938 263.566406 "/>
</g>
</g>
<g clip-path="url(#clip-158)">
<g clip-path="url(#clip-159)">
<path fill="none" stroke-width="0.3985" stroke-linecap="butt" stroke-linejoin="miter" stroke="rgb(50%, 50%, 50%)" stroke-opacity="0.8" stroke-miterlimit="10" d="M 42.905937 20.172594 L 55.792656 14.031969 L -0.0003125 0.00071875 L -12.883125 10.371812 Z M 42.905937 20.172594 " transform="matrix(1, 0, 0, -1, 165.43, 283.739)"/>
</g>
</g>
<g clip-path="url(#clip-160)">
<g clip-path="url(#clip-161)">
<path fill="none" stroke-width="0.79701" stroke-linecap="butt" stroke-linejoin="miter" stroke="rgb(0%, 0%, 0%)" stroke-opacity="1" stroke-miterlimit="10" d="M -0.0003125 0.00071875 L 42.905937 20.172594 L 72.929375 48.598375 L 90.07 85.278062 L 94.323906 130.215562 " transform="matrix(1, 0, 0, -1, 165.43, 283.739)"/>
</g>
</g>
<path fill-rule="nonzero" fill="rgb(0%, 0%, 0%)" fill-opacity="1" stroke-width="0.79701" stroke-linecap="butt" stroke-linejoin="miter" stroke="rgb(0%, 0%, 0%)" stroke-opacity="1" stroke-miterlimit="10" d="M 1.991875 0.00071875 C 1.991875 1.102281 1.10125 1.992906 -0.0003125 1.992906 C -1.101875 1.992906 -1.9925 1.102281 -1.9925 0.00071875 C -1.9925 -1.100844 -1.101875 -1.991469 -0.0003125 -1.991469 C 1.10125 -1.991469 1.991875 -1.100844 1.991875 0.00071875 Z M 1.991875 0.00071875 " transform="matrix(1, 0, 0, -1, 165.43, 283.739)"/>
<path fill-rule="nonzero" fill="rgb(0%, 0%, 0%)" fill-opacity="1" stroke-width="0.79701" stroke-linecap="butt" stroke-linejoin="miter" stroke="rgb(0%, 0%, 0%)" stroke-opacity="1" stroke-miterlimit="10" d="M 44.902031 20.172594 C 44.902031 21.27025 44.0075 22.164781 42.905937 22.164781 C 41.808281 22.164781 40.91375 21.27025 40.91375 20.172594 C 40.91375 19.071031 41.808281 18.1765 42.905937 18.1765 C 44.0075 18.1765 44.902031 19.071031 44.902031 20.172594 Z M 44.902031 20.172594 " transform="matrix(1, 0, 0, -1, 165.43, 283.739)"/>
<path fill-rule="nonzero" fill="rgb(0%, 0%, 0%)" fill-opacity="1" stroke-width="0.79701" stroke-linecap="butt" stroke-linejoin="miter" stroke="rgb(0%, 0%, 0%)" stroke-opacity="1" stroke-miterlimit="10" d="M 74.921562 48.598375 C 74.921562 49.696031 74.030937 50.590562 72.929375 50.590562 C 71.831719 50.590562 70.937187 49.696031 70.937187 48.598375 C 70.937187 47.496812 71.831719 46.606187 72.929375 46.606187 C 74.030937 46.606187 74.921562 47.496812 74.921562 48.598375 Z M 74.921562 48.598375 " transform="matrix(1, 0, 0, -1, 165.43, 283.739)"/>
<path fill-rule="nonzero" fill="rgb(0%, 0%, 0%)" fill-opacity="1" stroke-width="0.79701" stroke-linecap="butt" stroke-linejoin="miter" stroke="rgb(0%, 0%, 0%)" stroke-opacity="1" stroke-miterlimit="10" d="M 92.062187 85.278062 C 92.062187 86.379625 91.167656 87.27025 90.07 87.27025 C 88.968437 87.27025 88.077812 86.379625 88.077812 85.278062 C 88.077812 84.1765 88.968437 83.285875 90.07 83.285875 C 91.167656 83.285875 92.062187 84.1765 92.062187 85.278062 Z M 92.062187 85.278062 " transform="matrix(1, 0, 0, -1, 165.43, 283.739)"/>
<path fill-rule="nonzero" fill="rgb(0%, 0%, 0%)" fill-opacity="1" stroke-width="0.79701" stroke-linecap="butt" stroke-linejoin="miter" stroke="rgb(0%, 0%, 0%)" stroke-opacity="1" stroke-miterlimit="10" d="M 96.316094 130.215562 C 96.316094 131.317125 95.421562 132.20775 94.323906 132.20775 C 93.222344 132.20775 92.327812 131.317125 92.327812 130.215562 C 92.327812 129.114 93.222344 128.223375 94.323906 128.223375 C 95.421562 128.223375 96.316094 129.114 96.316094 130.215562 Z M 96.316094 130.215562 " transform="matrix(1, 0, 0, -1, 165.43, 283.739)"/>
<g fill="rgb(0%, 0%, 0%)" fill-opacity="1">
<use xlink:href="#glyph-2-0" x="288.322" y="301.883"/>
</g>
<g fill="rgb(0%, 0%, 0%)" fill-opacity="1">
<use xlink:href="#glyph-2-1" x="79.204" y="281.107"/>
</g>
<g fill="rgb(0%, 0%, 0%)" fill-opacity="1">
<use xlink:href="#glyph-3-0" x="14.467" y="150.064"/>
</g>
<g fill="rgb(0%, 0%, 0%)" fill-opacity="1">
<use xlink:href="#glyph-4-0" x="10.128" y="141.928"/>
</g>
<g fill="rgb(0%, 0%, 0%)" fill-opacity="1">
<use xlink:href="#glyph-5-0" x="14.467" y="132.187"/>
</g>
<g fill="rgb(0%, 0%, 0%)" fill-opacity="1">
<use xlink:href="#glyph-3-0" x="14.467" y="120.427865"/>
</g>
<g fill="rgb(0%, 0%, 0%)" fill-opacity="1">
<use xlink:href="#glyph-6-0" x="10.128" y="112.289"/>
</g>
</svg>
