<?xml version="1.0" encoding="UTF-8"?>
<svg xmlns="http://www.w3.org/2000/svg" xmlns:xlink="http://www.w3.org/1999/xlink" width="286.794pt" height="185.351pt" viewBox="0 0 286.794 185.351">
<defs>
<g>
<g id="glyph-0-0">
<path d="M 4.578125 -3.1875 C 4.578125 -3.984375 4.53125 -4.78125 4.1875 -5.515625 C 3.734375 -6.484375 2.90625 -6.640625 2.5 -6.640625 C 1.890625 -6.640625 1.171875 -6.375 0.75 -5.453125 C 0.4375 -4.765625 0.390625 -3.984375 0.390625 -3.1875 C 0.390625 -2.4375 0.421875 -1.546875 0.84375 -0.78125 C 1.265625 0.015625 2 0.21875 2.484375 0.21875 C 3.015625 0.21875 3.78125 0.015625 4.21875 -0.9375 C 4.53125 -1.625 4.578125 -2.40625 4.578125 -3.1875 Z M 2.484375 0 C 2.09375 0 1.5 -0.25 1.328125 -1.203125 C 1.21875 -1.796875 1.21875 -2.71875 1.21875 -3.3125 C 1.21875 -3.953125 1.21875 -4.609375 1.296875 -5.140625 C 1.484375 -6.328125 2.234375 -6.421875 2.484375 -6.421875 C 2.8125 -6.421875 3.46875 -6.234375 3.65625 -5.25 C 3.765625 -4.6875 3.765625 -3.9375 3.765625 -3.3125 C 3.765625 -2.5625 3.765625 -1.890625 3.65625 -1.25 C 3.5 -0.296875 2.9375 0 2.484375 0 Z M 2.484375 0 "/>
</g>
<g id="glyph-0-1">
<path d="M 1.265625 -0.765625 L 2.328125 -1.796875 C 3.875 -3.171875 4.46875 -3.703125 4.46875 -4.703125 C 4.46875 -5.84375 3.578125 -6.640625 2.359375 -6.640625 C 1.234375 -6.640625 0.5 -5.71875 0.5 -4.828125 C 0.5 -4.28125 1 -4.28125 1.03125 -4.28125 C 1.203125 -4.28125 1.546875 -4.390625 1.546875 -4.8125 C 1.546875 -5.0625 1.359375 -5.328125 1.015625 -5.328125 C 0.9375 -5.328125 0.921875 -5.328125 0.890625 -5.3125 C 1.109375 -5.96875 1.65625 -6.328125 2.234375 -6.328125 C 3.140625 -6.328125 3.5625 -5.515625 3.5625 -4.703125 C 3.5625 -3.90625 3.078125 -3.125 2.515625 -2.5 L 0.609375 -0.375 C 0.5 -0.265625 0.5 -0.234375 0.5 0 L 4.203125 0 L 4.46875 -1.734375 L 4.234375 -1.734375 C 4.171875 -1.4375 4.109375 -1 4 -0.84375 C 3.9375 -0.765625 3.28125 -0.765625 3.0625 -0.765625 Z M 1.265625 -0.765625 "/>
</g>
<g id="glyph-0-2">
<path d="M 2.9375 -1.640625 L 2.9375 -0.78125 C 2.9375 -0.421875 2.90625 -0.3125 2.171875 -0.3125 L 1.96875 -0.3125 L 1.96875 0 C 2.375 -0.03125 2.890625 -0.03125 3.3125 -0.03125 C 3.734375 -0.03125 4.25 -0.03125 4.671875 0 L 4.671875 -0.3125 L 4.453125 -0.3125 C 3.71875 -0.3125 3.703125 -0.421875 3.703125 -0.78125 L 3.703125 -1.640625 L 4.6875 -1.640625 L 4.6875 -1.953125 L 3.703125 -1.953125 L 3.703125 -6.484375 C 3.703125 -6.6875 3.703125 -6.75 3.53125 -6.75 C 3.453125 -6.75 3.421875 -6.75 3.34375 -6.625 L 0.28125 -1.953125 L 0.28125 -1.640625 Z M 2.984375 -1.953125 L 0.5625 -1.953125 L 2.984375 -5.671875 Z M 2.984375 -1.953125 "/>
</g>
<g id="glyph-0-3">
<path d="M 1.3125 -3.265625 L 1.3125 -3.515625 C 1.3125 -6.03125 2.546875 -6.390625 3.0625 -6.390625 C 3.296875 -6.390625 3.71875 -6.328125 3.9375 -5.984375 C 3.78125 -5.984375 3.390625 -5.984375 3.390625 -5.546875 C 3.390625 -5.234375 3.625 -5.078125 3.84375 -5.078125 C 4 -5.078125 4.3125 -5.171875 4.3125 -5.5625 C 4.3125 -6.15625 3.875 -6.640625 3.046875 -6.640625 C 1.765625 -6.640625 0.421875 -5.359375 0.421875 -3.15625 C 0.421875 -0.484375 1.578125 0.21875 2.5 0.21875 C 3.609375 0.21875 4.5625 -0.71875 4.5625 -2.03125 C 4.5625 -3.296875 3.671875 -4.25 2.5625 -4.25 C 1.890625 -4.25 1.515625 -3.75 1.3125 -3.265625 Z M 2.5 -0.0625 C 1.875 -0.0625 1.578125 -0.65625 1.515625 -0.8125 C 1.328125 -1.28125 1.328125 -2.078125 1.328125 -2.25 C 1.328125 -3.03125 1.65625 -4.03125 2.546875 -4.03125 C 2.71875 -4.03125 3.171875 -4.03125 3.484375 -3.40625 C 3.65625 -3.046875 3.65625 -2.53125 3.65625 -2.046875 C 3.65625 -1.5625 3.65625 -1.0625 3.484375 -0.703125 C 3.1875 -0.109375 2.734375 -0.0625 2.5 -0.0625 Z M 2.5 -0.0625 "/>
</g>
<g id="glyph-0-4">
<path d="M 1.625 -4.5625 C 1.171875 -4.859375 1.125 -5.1875 1.125 -5.359375 C 1.125 -5.96875 1.78125 -6.390625 2.484375 -6.390625 C 3.203125 -6.390625 3.84375 -5.875 3.84375 -5.15625 C 3.84375 -4.578125 3.453125 -4.109375 2.859375 -3.765625 Z M 3.078125 -3.609375 C 3.796875 -3.984375 4.28125 -4.5 4.28125 -5.15625 C 4.28125 -6.078125 3.40625 -6.640625 2.5 -6.640625 C 1.5 -6.640625 0.6875 -5.90625 0.6875 -4.96875 C 0.6875 -4.796875 0.703125 -4.34375 1.125 -3.875 C 1.234375 -3.765625 1.609375 -3.515625 1.859375 -3.34375 C 1.28125 -3.046875 0.421875 -2.5 0.421875 -1.5 C 0.421875 -0.453125 1.4375 0.21875 2.484375 0.21875 C 3.609375 0.21875 4.5625 -0.609375 4.5625 -1.671875 C 4.5625 -2.03125 4.453125 -2.484375 4.0625 -2.90625 C 3.875 -3.109375 3.71875 -3.203125 3.078125 -3.609375 Z M 2.078125 -3.1875 L 3.3125 -2.40625 C 3.59375 -2.21875 4.0625 -1.921875 4.0625 -1.3125 C 4.0625 -0.578125 3.3125 -0.0625 2.5 -0.0625 C 1.640625 -0.0625 0.921875 -0.671875 0.921875 -1.5 C 0.921875 -2.078125 1.234375 -2.71875 2.078125 -3.1875 Z M 2.078125 -3.1875 "/>
</g>
<g id="glyph-0-5">
<path d="M 2.9375 -6.375 C 2.9375 -6.625 2.9375 -6.640625 2.703125 -6.640625 C 2.078125 -6 1.203125 -6 0.890625 -6 L 0.890625 -5.6875 C 1.09375 -5.6875 1.671875 -5.6875 2.1875 -5.953125 L 2.1875 -0.78125 C 2.1875 -0.421875 2.15625 -0.3125 1.265625 -0.3125 L 0.953125 -0.3125 L 0.953125 0 C 1.296875 -0.03125 2.15625 -0.03125 2.5625 -0.03125 C 2.953125 -0.03125 3.828125 -0.03125 4.171875 0 L 4.171875 -0.3125 L 3.859375 -0.3125 C 2.953125 -0.3125 2.9375 -0.421875 2.9375 -0.78125 Z M 2.9375 -6.375 "/>
</g>
<g id="glyph-0-6">
<path d="M 1.09375 -3.421875 L 1.09375 -0.75 C 1.09375 -0.3125 0.984375 -0.3125 0.3125 -0.3125 L 0.3125 0 C 0.671875 -0.015625 1.171875 -0.03125 1.453125 -0.03125 C 1.703125 -0.03125 2.21875 -0.015625 2.5625 0 L 2.5625 -0.3125 C 1.890625 -0.3125 1.78125 -0.3125 1.78125 -0.75 L 1.78125 -2.59375 C 1.78125 -3.625 2.5 -4.1875 3.125 -4.1875 C 3.765625 -4.1875 3.875 -3.65625 3.875 -3.078125 L 3.875 -0.75 C 3.875 -0.3125 3.765625 -0.3125 3.09375 -0.3125 L 3.09375 0 C 3.4375 -0.015625 3.953125 -0.03125 4.21875 -0.03125 C 4.46875 -0.03125 5 -0.015625 5.328125 0 L 5.328125 -0.3125 C 4.671875 -0.3125 4.5625 -0.3125 4.5625 -0.75 L 4.5625 -2.59375 C 4.5625 -3.625 5.265625 -4.1875 5.90625 -4.1875 C 6.53125 -4.1875 6.640625 -3.65625 6.640625 -3.078125 L 6.640625 -0.75 C 6.640625 -0.3125 6.53125 -0.3125 5.859375 -0.3125 L 5.859375 0 C 6.203125 -0.015625 6.71875 -0.03125 6.984375 -0.03125 C 7.25 -0.03125 7.765625 -0.015625 8.109375 0 L 8.109375 -0.3125 C 7.59375 -0.3125 7.34375 -0.3125 7.328125 -0.609375 L 7.328125 -2.515625 C 7.328125 -3.375 7.328125 -3.671875 7.015625 -4.03125 C 6.875 -4.203125 6.546875 -4.40625 5.96875 -4.40625 C 5.140625 -4.40625 4.6875 -3.8125 4.53125 -3.421875 C 4.390625 -4.296875 3.65625 -4.40625 3.203125 -4.40625 C 2.46875 -4.40625 2 -3.984375 1.71875 -3.359375 L 1.71875 -4.40625 L 0.3125 -4.296875 L 0.3125 -3.984375 C 1.015625 -3.984375 1.09375 -3.921875 1.09375 -3.421875 Z M 1.09375 -3.421875 "/>
</g>
<g id="glyph-0-7">
<path d="M 3.3125 -0.75 C 3.359375 -0.359375 3.625 0.0625 4.09375 0.0625 C 4.3125 0.0625 4.921875 -0.078125 4.921875 -0.890625 L 4.921875 -1.453125 L 4.671875 -1.453125 L 4.671875 -0.890625 C 4.671875 -0.3125 4.421875 -0.25 4.3125 -0.25 C 3.984375 -0.25 3.9375 -0.703125 3.9375 -0.75 L 3.9375 -2.734375 C 3.9375 -3.15625 3.9375 -3.546875 3.578125 -3.921875 C 3.1875 -4.3125 2.6875 -4.46875 2.21875 -4.46875 C 1.390625 -4.46875 0.703125 -4 0.703125 -3.34375 C 0.703125 -3.046875 0.90625 -2.875 1.171875 -2.875 C 1.453125 -2.875 1.625 -3.078125 1.625 -3.328125 C 1.625 -3.453125 1.578125 -3.78125 1.109375 -3.78125 C 1.390625 -4.140625 1.875 -4.25 2.1875 -4.25 C 2.6875 -4.25 3.25 -3.859375 3.25 -2.96875 L 3.25 -2.609375 C 2.734375 -2.578125 2.046875 -2.546875 1.421875 -2.25 C 0.671875 -1.90625 0.421875 -1.390625 0.421875 -0.953125 C 0.421875 -0.140625 1.390625 0.109375 2.015625 0.109375 C 2.671875 0.109375 3.125 -0.296875 3.3125 -0.75 Z M 3.25 -2.390625 L 3.25 -1.390625 C 3.25 -0.453125 2.53125 -0.109375 2.078125 -0.109375 C 1.59375 -0.109375 1.1875 -0.453125 1.1875 -0.953125 C 1.1875 -1.5 1.609375 -2.328125 3.25 -2.390625 Z M 3.25 -2.390625 "/>
</g>
<g id="glyph-0-8">
<path d="M 2.859375 -2.34375 C 3.15625 -2.71875 3.53125 -3.203125 3.78125 -3.46875 C 4.09375 -3.828125 4.5 -3.984375 4.96875 -3.984375 L 4.96875 -4.296875 C 4.703125 -4.28125 4.40625 -4.265625 4.140625 -4.265625 C 3.84375 -4.265625 3.3125 -4.28125 3.1875 -4.296875 L 3.1875 -3.984375 C 3.40625 -3.96875 3.484375 -3.84375 3.484375 -3.671875 C 3.484375 -3.515625 3.375 -3.390625 3.328125 -3.328125 L 2.71875 -2.546875 L 1.9375 -3.5625 C 1.84375 -3.65625 1.84375 -3.671875 1.84375 -3.734375 C 1.84375 -3.890625 2 -3.984375 2.1875 -3.984375 L 2.1875 -4.296875 C 1.9375 -4.28125 1.28125 -4.265625 1.109375 -4.265625 C 0.90625 -4.265625 0.4375 -4.28125 0.171875 -4.296875 L 0.171875 -3.984375 C 0.875 -3.984375 0.875 -3.984375 1.34375 -3.375 L 2.328125 -2.09375 L 1.390625 -0.90625 C 0.921875 -0.328125 0.328125 -0.3125 0.125 -0.3125 L 0.125 0 C 0.375 -0.015625 0.6875 -0.03125 0.953125 -0.03125 C 1.234375 -0.03125 1.65625 -0.015625 1.890625 0 L 1.890625 -0.3125 C 1.671875 -0.34375 1.609375 -0.46875 1.609375 -0.625 C 1.609375 -0.84375 1.890625 -1.171875 2.5 -1.890625 L 3.265625 -0.890625 C 3.34375 -0.78125 3.46875 -0.625 3.46875 -0.5625 C 3.46875 -0.46875 3.375 -0.3125 3.109375 -0.3125 L 3.109375 0 C 3.40625 -0.015625 3.96875 -0.03125 4.1875 -0.03125 C 4.453125 -0.03125 4.84375 -0.015625 5.140625 0 L 5.140625 -0.3125 C 4.609375 -0.3125 4.421875 -0.328125 4.203125 -0.625 Z M 2.859375 -2.34375 "/>
</g>
<g id="glyph-0-9">
<path d="M 1.109375 -2.515625 C 1.171875 -4 2.015625 -4.25 2.359375 -4.25 C 3.375 -4.25 3.484375 -2.90625 3.484375 -2.515625 Z M 1.109375 -2.296875 L 3.890625 -2.296875 C 4.109375 -2.296875 4.140625 -2.296875 4.140625 -2.515625 C 4.140625 -3.5 3.59375 -4.46875 2.359375 -4.46875 C 1.203125 -4.46875 0.28125 -3.4375 0.28125 -2.1875 C 0.28125 -0.859375 1.328125 0.109375 2.46875 0.109375 C 3.6875 0.109375 4.140625 -1 4.140625 -1.1875 C 4.140625 -1.28125 4.0625 -1.3125 4 -1.3125 C 3.921875 -1.3125 3.890625 -1.25 3.875 -1.171875 C 3.53125 -0.140625 2.625 -0.140625 2.53125 -0.140625 C 2.03125 -0.140625 1.640625 -0.4375 1.40625 -0.8125 C 1.109375 -1.28125 1.109375 -1.9375 1.109375 -2.296875 Z M 1.109375 -2.296875 "/>
</g>
<g id="glyph-0-10">
<path d="M 1.09375 -3.421875 L 1.09375 -0.75 C 1.09375 -0.3125 0.984375 -0.3125 0.3125 -0.3125 L 0.3125 0 C 0.671875 -0.015625 1.171875 -0.03125 1.453125 -0.03125 C 1.703125 -0.03125 2.21875 -0.015625 2.5625 0 L 2.5625 -0.3125 C 1.890625 -0.3125 1.78125 -0.3125 1.78125 -0.75 L 1.78125 -2.59375 C 1.78125 -3.625 2.5 -4.1875 3.125 -4.1875 C 3.765625 -4.1875 3.875 -3.65625 3.875 -3.078125 L 3.875 -0.75 C 3.875 -0.3125 3.765625 -0.3125 3.09375 -0.3125 L 3.09375 0 C 3.4375 -0.015625 3.953125 -0.03125 4.21875 -0.03125 C 4.46875 -0.03125 5 -0.015625 5.328125 0 L 5.328125 -0.3125 C 4.8125 -0.3125 4.5625 -0.3125 4.5625 -0.609375 L 4.5625 -2.515625 C 4.5625 -3.375 4.5625 -3.671875 4.25 -4.03125 C 4.109375 -4.203125 3.78125 -4.40625 3.203125 -4.40625 C 2.46875 -4.40625 2 -3.984375 1.71875 -3.359375 L 1.71875 -4.40625 L 0.3125 -4.296875 L 0.3125 -3.984375 C 1.015625 -3.984375 1.09375 -3.921875 1.09375 -3.421875 Z M 1.09375 -3.421875 "/>
</g>
<g id="glyph-0-11">
<path d="M 1.71875 -3.984375 L 3.15625 -3.984375 L 3.15625 -4.296875 L 1.71875 -4.296875 L 1.71875 -6.125 L 1.46875 -6.125 C 1.46875 -5.3125 1.171875 -4.25 0.1875 -4.203125 L 0.1875 -3.984375 L 1.03125 -3.984375 L 1.03125 -1.234375 C 1.03125 -0.015625 1.96875 0.109375 2.328125 0.109375 C 3.03125 0.109375 3.3125 -0.59375 3.3125 -1.234375 L 3.3125 -1.796875 L 3.0625 -1.796875 L 3.0625 -1.25 C 3.0625 -0.515625 2.765625 -0.140625 2.390625 -0.140625 C 1.71875 -0.140625 1.71875 -1.046875 1.71875 -1.21875 Z M 1.71875 -3.984375 "/>
</g>
<g id="glyph-0-12">
<path d="M 1.671875 -3.3125 L 1.671875 -4.40625 L 0.28125 -4.296875 L 0.28125 -3.984375 C 0.984375 -3.984375 1.0625 -3.921875 1.0625 -3.421875 L 1.0625 -0.75 C 1.0625 -0.3125 0.953125 -0.3125 0.28125 -0.3125 L 0.28125 0 C 0.671875 -0.015625 1.140625 -0.03125 1.421875 -0.03125 C 1.8125 -0.03125 2.28125 -0.03125 2.6875 0 L 2.6875 -0.3125 L 2.46875 -0.3125 C 1.734375 -0.3125 1.71875 -0.421875 1.71875 -0.78125 L 1.71875 -2.3125 C 1.71875 -3.296875 2.140625 -4.1875 2.890625 -4.1875 C 2.953125 -4.1875 2.984375 -4.1875 3 -4.171875 C 2.96875 -4.171875 2.765625 -4.046875 2.765625 -3.78125 C 2.765625 -3.515625 2.984375 -3.359375 3.203125 -3.359375 C 3.375 -3.359375 3.625 -3.484375 3.625 -3.796875 C 3.625 -4.109375 3.3125 -4.40625 2.890625 -4.40625 C 2.15625 -4.40625 1.796875 -3.734375 1.671875 -3.3125 Z M 1.671875 -3.3125 "/>
</g>
<g id="glyph-0-13">
<path d="M 4.6875 -2.140625 C 4.6875 -3.40625 3.703125 -4.46875 2.5 -4.46875 C 1.25 -4.46875 0.28125 -3.375 0.28125 -2.140625 C 0.28125 -0.84375 1.3125 0.109375 2.484375 0.109375 C 3.6875 0.109375 4.6875 -0.875 4.6875 -2.140625 Z M 2.5 -0.140625 C 2.0625 -0.140625 1.625 -0.34375 1.359375 -0.8125 C 1.109375 -1.25 1.109375 -1.859375 1.109375 -2.21875 C 1.109375 -2.609375 1.109375 -3.140625 1.34375 -3.578125 C 1.609375 -4.03125 2.078125 -4.25 2.484375 -4.25 C 2.921875 -4.25 3.34375 -4.03125 3.609375 -3.59375 C 3.875 -3.171875 3.875 -2.59375 3.875 -2.21875 C 3.875 -1.859375 3.875 -1.3125 3.65625 -0.875 C 3.421875 -0.421875 2.984375 -0.140625 2.5 -0.140625 Z M 2.5 -0.140625 "/>
</g>
<g id="glyph-0-14">
<path d="M 1.71875 -3.75 L 1.71875 -4.40625 L 0.28125 -4.296875 L 0.28125 -3.984375 C 0.984375 -3.984375 1.0625 -3.921875 1.0625 -3.484375 L 1.0625 1.171875 C 1.0625 1.625 0.953125 1.625 0.28125 1.625 L 0.28125 1.9375 C 0.625 1.921875 1.140625 1.90625 1.390625 1.90625 C 1.671875 1.90625 2.171875 1.921875 2.515625 1.9375 L 2.515625 1.625 C 1.859375 1.625 1.75 1.625 1.75 1.171875 L 1.75 -0.59375 C 1.796875 -0.421875 2.21875 0.109375 2.96875 0.109375 C 4.15625 0.109375 5.1875 -0.875 5.1875 -2.15625 C 5.1875 -3.421875 4.234375 -4.40625 3.109375 -4.40625 C 2.328125 -4.40625 1.90625 -3.96875 1.71875 -3.75 Z M 1.75 -1.140625 L 1.75 -3.359375 C 2.03125 -3.875 2.515625 -4.15625 3.03125 -4.15625 C 3.765625 -4.15625 4.359375 -3.28125 4.359375 -2.15625 C 4.359375 -0.953125 3.671875 -0.109375 2.9375 -0.109375 C 2.53125 -0.109375 2.15625 -0.3125 1.890625 -0.71875 C 1.75 -0.921875 1.75 -0.9375 1.75 -1.140625 Z M 1.75 -1.140625 "/>
</g>
<g id="glyph-0-15">
<path d="M 4.140625 -3.34375 C 4.390625 -3.984375 4.90625 -3.984375 5.0625 -3.984375 L 5.0625 -4.296875 C 4.828125 -4.28125 4.546875 -4.265625 4.3125 -4.265625 C 4.140625 -4.265625 3.671875 -4.28125 3.453125 -4.296875 L 3.453125 -3.984375 C 3.765625 -3.984375 3.921875 -3.8125 3.921875 -3.5625 C 3.921875 -3.453125 3.90625 -3.4375 3.859375 -3.3125 L 2.84375 -0.875 L 1.75 -3.546875 C 1.703125 -3.65625 1.6875 -3.6875 1.6875 -3.734375 C 1.6875 -3.984375 2.046875 -3.984375 2.25 -3.984375 L 2.25 -4.296875 C 1.984375 -4.28125 1.328125 -4.265625 1.15625 -4.265625 C 0.890625 -4.265625 0.484375 -4.28125 0.1875 -4.296875 L 0.1875 -3.984375 C 0.671875 -3.984375 0.859375 -3.984375 1 -3.640625 L 2.5 0 C 2.4375 0.125 2.296875 0.453125 2.25 0.59375 C 2.03125 1.140625 1.75 1.828125 1.109375 1.828125 C 1.0625 1.828125 0.828125 1.828125 0.640625 1.640625 C 0.953125 1.609375 1.03125 1.390625 1.03125 1.21875 C 1.03125 0.96875 0.84375 0.8125 0.609375 0.8125 C 0.40625 0.8125 0.1875 0.9375 0.1875 1.234375 C 0.1875 1.6875 0.609375 2.046875 1.109375 2.046875 C 1.734375 2.046875 2.140625 1.46875 2.375 0.90625 Z M 4.140625 -3.34375 "/>
</g>
<g id="glyph-0-16">
<path d="M 6.84375 -3.265625 C 7 -3.265625 7.1875 -3.265625 7.1875 -3.453125 C 7.1875 -3.65625 7 -3.65625 6.859375 -3.65625 L 0.890625 -3.65625 C 0.75 -3.65625 0.5625 -3.65625 0.5625 -3.453125 C 0.5625 -3.265625 0.75 -3.265625 0.890625 -3.265625 Z M 6.859375 -1.328125 C 7 -1.328125 7.1875 -1.328125 7.1875 -1.53125 C 7.1875 -1.71875 7 -1.71875 6.84375 -1.71875 L 0.890625 -1.71875 C 0.75 -1.71875 0.5625 -1.71875 0.5625 -1.53125 C 0.5625 -1.328125 0.75 -1.328125 0.890625 -1.328125 Z M 6.859375 -1.328125 "/>
</g>
<g id="glyph-0-17">
<path d="M 4.46875 -2 C 4.46875 -3.1875 3.65625 -4.1875 2.578125 -4.1875 C 2.109375 -4.1875 1.671875 -4.03125 1.3125 -3.671875 L 1.3125 -5.625 C 1.515625 -5.5625 1.84375 -5.5 2.15625 -5.5 C 3.390625 -5.5 4.09375 -6.40625 4.09375 -6.53125 C 4.09375 -6.59375 4.0625 -6.640625 3.984375 -6.640625 C 3.984375 -6.640625 3.953125 -6.640625 3.90625 -6.609375 C 3.703125 -6.515625 3.21875 -6.3125 2.546875 -6.3125 C 2.15625 -6.3125 1.6875 -6.390625 1.21875 -6.59375 C 1.140625 -6.625 1.125 -6.625 1.109375 -6.625 C 1 -6.625 1 -6.546875 1 -6.390625 L 1 -3.4375 C 1 -3.265625 1 -3.1875 1.140625 -3.1875 C 1.21875 -3.1875 1.234375 -3.203125 1.28125 -3.265625 C 1.390625 -3.421875 1.75 -3.96875 2.5625 -3.96875 C 3.078125 -3.96875 3.328125 -3.515625 3.40625 -3.328125 C 3.5625 -2.953125 3.59375 -2.578125 3.59375 -2.078125 C 3.59375 -1.71875 3.59375 -1.125 3.34375 -0.703125 C 3.109375 -0.3125 2.734375 -0.0625 2.28125 -0.0625 C 1.5625 -0.0625 0.984375 -0.59375 0.8125 -1.171875 C 0.84375 -1.171875 0.875 -1.15625 0.984375 -1.15625 C 1.3125 -1.15625 1.484375 -1.40625 1.484375 -1.640625 C 1.484375 -1.890625 1.3125 -2.140625 0.984375 -2.140625 C 0.84375 -2.140625 0.5 -2.0625 0.5 -1.609375 C 0.5 -0.75 1.1875 0.21875 2.296875 0.21875 C 3.453125 0.21875 4.46875 -0.734375 4.46875 -2 Z M 4.46875 -2 "/>
</g>
<g id="glyph-0-18">
<path d="M 3.78125 -0.546875 L 3.78125 0.109375 L 5.25 0 L 5.25 -0.3125 C 4.5625 -0.3125 4.46875 -0.375 4.46875 -0.875 L 4.46875 -6.921875 L 3.046875 -6.8125 L 3.046875 -6.5 C 3.734375 -6.5 3.8125 -6.4375 3.8125 -5.9375 L 3.8125 -3.78125 C 3.53125 -4.140625 3.09375 -4.40625 2.5625 -4.40625 C 1.390625 -4.40625 0.34375 -3.421875 0.34375 -2.140625 C 0.34375 -0.875 1.3125 0.109375 2.453125 0.109375 C 3.09375 0.109375 3.53125 -0.234375 3.78125 -0.546875 Z M 3.78125 -3.21875 L 3.78125 -1.171875 C 3.78125 -1 3.78125 -0.984375 3.671875 -0.8125 C 3.375 -0.328125 2.9375 -0.109375 2.5 -0.109375 C 2.046875 -0.109375 1.6875 -0.375 1.453125 -0.75 C 1.203125 -1.15625 1.171875 -1.71875 1.171875 -2.140625 C 1.171875 -2.5 1.1875 -3.09375 1.46875 -3.546875 C 1.6875 -3.859375 2.0625 -4.1875 2.609375 -4.1875 C 2.953125 -4.1875 3.375 -4.03125 3.671875 -3.59375 C 3.78125 -3.421875 3.78125 -3.40625 3.78125 -3.21875 Z M 3.78125 -3.21875 "/>
</g>
<g id="glyph-0-19">
<path d="M 1.765625 -4.40625 L 0.375 -4.296875 L 0.375 -3.984375 C 1.015625 -3.984375 1.109375 -3.921875 1.109375 -3.4375 L 1.109375 -0.75 C 1.109375 -0.3125 1 -0.3125 0.328125 -0.3125 L 0.328125 0 C 0.640625 -0.015625 1.1875 -0.03125 1.421875 -0.03125 C 1.78125 -0.03125 2.125 -0.015625 2.46875 0 L 2.46875 -0.3125 C 1.796875 -0.3125 1.765625 -0.359375 1.765625 -0.75 Z M 1.796875 -6.140625 C 1.796875 -6.453125 1.5625 -6.671875 1.28125 -6.671875 C 0.96875 -6.671875 0.75 -6.40625 0.75 -6.140625 C 0.75 -5.875 0.96875 -5.609375 1.28125 -5.609375 C 1.5625 -5.609375 1.796875 -5.828125 1.796875 -6.140625 Z M 1.796875 -6.140625 "/>
</g>
<g id="glyph-0-20">
<path d="M 1.171875 -2.171875 C 1.171875 -3.796875 1.984375 -4.21875 2.515625 -4.21875 C 2.609375 -4.21875 3.234375 -4.203125 3.578125 -3.84375 C 3.171875 -3.8125 3.109375 -3.515625 3.109375 -3.390625 C 3.109375 -3.125 3.296875 -2.9375 3.5625 -2.9375 C 3.828125 -2.9375 4.03125 -3.09375 4.03125 -3.40625 C 4.03125 -4.078125 3.265625 -4.46875 2.5 -4.46875 C 1.25 -4.46875 0.34375 -3.390625 0.34375 -2.15625 C 0.34375 -0.875 1.328125 0.109375 2.484375 0.109375 C 3.8125 0.109375 4.140625 -1.09375 4.140625 -1.1875 C 4.140625 -1.28125 4.03125 -1.28125 4 -1.28125 C 3.921875 -1.28125 3.890625 -1.25 3.875 -1.1875 C 3.59375 -0.265625 2.9375 -0.140625 2.578125 -0.140625 C 2.046875 -0.140625 1.171875 -0.5625 1.171875 -2.171875 Z M 1.171875 -2.171875 "/>
</g>
<g id="glyph-0-21">
<path d="M 1.71875 -3.765625 L 1.71875 -6.921875 L 0.28125 -6.8125 L 0.28125 -6.5 C 0.984375 -6.5 1.0625 -6.4375 1.0625 -5.9375 L 1.0625 0 L 1.3125 0 C 1.3125 -0.015625 1.390625 -0.15625 1.671875 -0.625 C 1.8125 -0.390625 2.234375 0.109375 2.96875 0.109375 C 4.15625 0.109375 5.1875 -0.875 5.1875 -2.15625 C 5.1875 -3.421875 4.21875 -4.40625 3.078125 -4.40625 C 2.296875 -4.40625 1.875 -3.9375 1.71875 -3.765625 Z M 1.75 -1.140625 L 1.75 -3.1875 C 1.75 -3.375 1.75 -3.390625 1.859375 -3.546875 C 2.25 -4.109375 2.796875 -4.1875 3.03125 -4.1875 C 3.484375 -4.1875 3.84375 -3.921875 4.078125 -3.546875 C 4.34375 -3.140625 4.359375 -2.578125 4.359375 -2.15625 C 4.359375 -1.796875 4.34375 -1.203125 4.0625 -0.75 C 3.84375 -0.4375 3.46875 -0.109375 2.9375 -0.109375 C 2.484375 -0.109375 2.125 -0.34375 1.890625 -0.71875 C 1.75 -0.921875 1.75 -0.953125 1.75 -1.140625 Z M 1.75 -1.140625 "/>
</g>
<g id="glyph-0-22">
<path d="M 1.765625 -6.921875 L 0.328125 -6.8125 L 0.328125 -6.5 C 1.03125 -6.5 1.109375 -6.4375 1.109375 -5.9375 L 1.109375 -0.75 C 1.109375 -0.3125 1 -0.3125 0.328125 -0.3125 L 0.328125 0 C 0.65625 -0.015625 1.1875 -0.03125 1.4375 -0.03125 C 1.6875 -0.03125 2.171875 -0.015625 2.546875 0 L 2.546875 -0.3125 C 1.875 -0.3125 1.765625 -0.3125 1.765625 -0.75 Z M 1.765625 -6.921875 "/>
</g>
<g id="glyph-1-0">
<path d="M 1.90625 -0.53125 C 1.90625 -0.8125 1.671875 -1.0625 1.390625 -1.0625 C 1.09375 -1.0625 0.859375 -0.8125 0.859375 -0.53125 C 0.859375 -0.234375 1.09375 0 1.390625 0 C 1.671875 0 1.90625 -0.234375 1.90625 -0.53125 Z M 1.90625 -0.53125 "/>
</g>
<g id="glyph-1-1">
<path d="M 0.453125 1.21875 C 0.375 1.5625 0.34375 1.625 -0.09375 1.625 C -0.203125 1.625 -0.3125 1.625 -0.3125 1.8125 C -0.3125 1.890625 -0.265625 1.9375 -0.1875 1.9375 C 0.078125 1.9375 0.375 1.90625 0.640625 1.90625 C 0.984375 1.90625 1.3125 1.9375 1.640625 1.9375 C 1.6875 1.9375 1.8125 1.9375 1.8125 1.734375 C 1.8125 1.625 1.71875 1.625 1.578125 1.625 C 1.078125 1.625 1.078125 1.5625 1.078125 1.46875 C 1.078125 1.34375 1.5 -0.28125 1.5625 -0.53125 C 1.6875 -0.234375 1.96875 0.109375 2.484375 0.109375 C 3.640625 0.109375 4.890625 -1.34375 4.890625 -2.8125 C 4.890625 -3.75 4.3125 -4.40625 3.5625 -4.40625 C 3.0625 -4.40625 2.578125 -4.046875 2.25 -3.65625 C 2.15625 -4.203125 1.71875 -4.40625 1.359375 -4.40625 C 0.890625 -4.40625 0.703125 -4.015625 0.625 -3.84375 C 0.4375 -3.5 0.3125 -2.90625 0.3125 -2.875 C 0.3125 -2.765625 0.40625 -2.765625 0.421875 -2.765625 C 0.53125 -2.765625 0.53125 -2.78125 0.59375 -3 C 0.765625 -3.703125 0.96875 -4.1875 1.328125 -4.1875 C 1.5 -4.1875 1.640625 -4.109375 1.640625 -3.734375 C 1.640625 -3.5 1.609375 -3.390625 1.5625 -3.21875 Z M 2.203125 -3.109375 C 2.265625 -3.375 2.546875 -3.65625 2.71875 -3.8125 C 3.078125 -4.109375 3.359375 -4.1875 3.53125 -4.1875 C 3.921875 -4.1875 4.171875 -3.84375 4.171875 -3.25 C 4.171875 -2.65625 3.84375 -1.515625 3.65625 -1.140625 C 3.3125 -0.4375 2.84375 -0.109375 2.46875 -0.109375 C 1.8125 -0.109375 1.6875 -0.9375 1.6875 -1 C 1.6875 -1.015625 1.6875 -1.03125 1.71875 -1.15625 Z M 2.203125 -3.109375 "/>
</g>
<g id="glyph-2-0">
<path d="M 0.515625 1.515625 C 0.4375 1.875 0.375 1.96875 -0.109375 1.96875 C -0.25 1.96875 -0.375 1.96875 -0.375 2.203125 C -0.375 2.21875 -0.359375 2.3125 -0.234375 2.3125 C -0.078125 2.3125 0.09375 2.296875 0.25 2.296875 L 0.765625 2.296875 C 1.015625 2.296875 1.625 2.3125 1.875 2.3125 C 1.953125 2.3125 2.09375 2.3125 2.09375 2.109375 C 2.09375 1.96875 2.015625 1.96875 1.8125 1.96875 C 1.25 1.96875 1.21875 1.890625 1.21875 1.796875 C 1.21875 1.65625 1.75 -0.40625 1.828125 -0.6875 C 1.953125 -0.34375 2.28125 0.125 2.90625 0.125 C 4.25 0.125 5.71875 -1.640625 5.71875 -3.390625 C 5.71875 -4.5 5.09375 -5.265625 4.203125 -5.265625 C 3.4375 -5.265625 2.78125 -4.53125 2.65625 -4.359375 C 2.5625 -4.953125 2.09375 -5.265625 1.609375 -5.265625 C 1.265625 -5.265625 0.984375 -5.109375 0.765625 -4.65625 C 0.546875 -4.21875 0.375 -3.484375 0.375 -3.4375 C 0.375 -3.390625 0.4375 -3.328125 0.515625 -3.328125 C 0.609375 -3.328125 0.625 -3.34375 0.6875 -3.625 C 0.875 -4.328125 1.09375 -5.03125 1.578125 -5.03125 C 1.859375 -5.03125 1.953125 -4.84375 1.953125 -4.484375 C 1.953125 -4.203125 1.90625 -4.078125 1.859375 -3.859375 Z M 2.578125 -3.734375 C 2.671875 -4.0625 3 -4.40625 3.1875 -4.578125 C 3.328125 -4.703125 3.71875 -5.03125 4.171875 -5.03125 C 4.703125 -5.03125 4.9375 -4.5 4.9375 -3.890625 C 4.9375 -3.3125 4.609375 -1.953125 4.296875 -1.34375 C 4 -0.6875 3.453125 -0.125 2.90625 -0.125 C 2.09375 -0.125 1.953125 -1.140625 1.953125 -1.1875 C 1.953125 -1.234375 1.984375 -1.328125 2 -1.390625 Z M 2.578125 -3.734375 "/>
</g>
<g id="glyph-3-0">
<path d="M -7.296875 -8.9375 C -7.703125 -9.046875 -7.8125 -9.078125 -7.8125 -9.921875 C -7.8125 -10.140625 -7.8125 -10.25 -8.03125 -10.25 C -8.15625 -10.25 -8.15625 -10.140625 -8.15625 -10.078125 C -8.15625 -9.859375 -8.140625 -9.609375 -8.140625 -9.390625 L -8.140625 -7.96875 C -8.140625 -7.75 -8.15625 -7.5 -8.15625 -7.265625 C -8.15625 -7.1875 -8.15625 -7.046875 -7.9375 -7.046875 C -7.8125 -7.046875 -7.8125 -7.125 -7.8125 -7.34375 C -7.8125 -8.0625 -7.71875 -8.0625 -7.59375 -8.0625 C -7.5625 -8.0625 -7.5 -8.0625 -7.3125 -8.015625 L -4.421875 -7.296875 L -4.421875 -3.6875 L -7.296875 -4.40625 C -7.703125 -4.5 -7.8125 -4.53125 -7.8125 -5.375 C -7.8125 -5.59375 -7.8125 -5.71875 -8.03125 -5.71875 C -8.15625 -5.71875 -8.15625 -5.609375 -8.15625 -5.53125 C -8.15625 -5.3125 -8.140625 -5.0625 -8.140625 -4.84375 L -8.140625 -3.4375 C -8.140625 -3.203125 -8.15625 -2.953125 -8.15625 -2.71875 C -8.15625 -2.640625 -8.15625 -2.5 -7.9375 -2.5 C -7.8125 -2.5 -7.8125 -2.578125 -7.8125 -2.8125 C -7.8125 -3.53125 -7.71875 -3.53125 -7.59375 -3.53125 C -7.5625 -3.53125 -7.5 -3.53125 -7.3125 -3.484375 L -0.890625 -1.859375 C -0.46875 -1.75 -0.34375 -1.734375 -0.34375 -0.90625 C -0.34375 -0.640625 -0.34375 -0.546875 -0.125 -0.546875 C 0 -0.546875 0 -0.6875 0 -0.71875 C 0 -0.9375 -0.03125 -1.1875 -0.03125 -1.40625 L -0.03125 -2.828125 C -0.03125 -3.046875 0 -3.296875 0 -3.53125 C 0 -3.625 0 -3.75 -0.234375 -3.75 C -0.34375 -3.75 -0.34375 -3.640625 -0.34375 -3.46875 C -0.34375 -2.734375 -0.4375 -2.734375 -0.5625 -2.734375 C -0.578125 -2.734375 -0.65625 -2.734375 -0.75 -2.765625 L -4.078125 -3.578125 L -4.078125 -7.203125 C -3.28125 -7 -0.78125 -6.390625 -0.71875 -6.375 C -0.359375 -6.234375 -0.359375 -6.046875 -0.34375 -5.34375 C -0.34375 -5.203125 -0.34375 -5.09375 -0.125 -5.09375 C 0 -5.09375 0 -5.21875 0 -5.265625 C 0 -5.46875 -0.03125 -5.71875 -0.03125 -5.953125 L -0.03125 -7.359375 C -0.03125 -7.59375 0 -7.84375 0 -8.0625 C 0 -8.15625 0 -8.296875 -0.234375 -8.296875 C -0.34375 -8.296875 -0.34375 -8.1875 -0.34375 -8.015625 C -0.34375 -7.28125 -0.4375 -7.28125 -0.5625 -7.28125 C -0.578125 -7.28125 -0.65625 -7.28125 -0.75 -7.296875 Z M -7.296875 -8.9375 "/>
</g>
<g id="glyph-4-0">
<path d="M 2.90625 -3.890625 C 2.875 -3.890625 2.84375 -3.890625 2.640625 -3.6875 C 1.4375 -2.484375 -0.53125 -1.8125 -2.96875 -1.8125 C -5.296875 -1.8125 -7.296875 -2.375 -8.703125 -3.765625 C -8.8125 -3.890625 -8.828125 -3.890625 -8.875 -3.890625 C -8.9375 -3.890625 -8.96875 -3.828125 -8.96875 -3.78125 C -8.96875 -3.625 -8.109375 -2.640625 -6.9375 -2.0625 C -5.71875 -1.453125 -4.453125 -1.171875 -2.96875 -1.171875 C -1.90625 -1.171875 -0.484375 -1.34375 0.78125 -1.953125 C 2.21875 -2.671875 3 -3.640625 3 -3.78125 C 3 -3.828125 2.96875 -3.890625 2.90625 -3.890625 Z M 2.90625 -3.890625 "/>
</g>
<g id="glyph-4-1">
<path d="M -8.296875 -2 L -8.15625 -0.328125 L -7.8125 -0.328125 C -7.8125 -1.140625 -7.734375 -1.25 -7.140625 -1.25 L 0 -1.25 L 0 -1.5 C -0.09375 -1.546875 -0.6875 -1.890625 -0.78125 -1.9375 C -0.328125 -2.21875 0.125 -2.71875 0.125 -3.484375 C 0.125 -4.859375 -1.046875 -6.078125 -2.578125 -6.078125 C -4.09375 -6.078125 -5.265625 -4.953125 -5.265625 -3.625 C -5.265625 -2.96875 -4.96875 -2.40625 -4.46875 -2 Z M -3.828125 -2.015625 C -4.046875 -2.015625 -4.0625 -2.015625 -4.25 -2.15625 C -4.6875 -2.4375 -5.03125 -2.96875 -5.03125 -3.546875 C -5.03125 -3.90625 -4.890625 -5.15625 -2.59375 -5.15625 C -1.796875 -5.15625 -1.296875 -5.046875 -0.859375 -4.75 C -0.484375 -4.515625 -0.125 -4.046875 -0.125 -3.4375 C -0.125 -2.796875 -0.53125 -2.375 -0.859375 -2.171875 C -1.109375 -2.015625 -1.15625 -2.015625 -1.359375 -2.015625 Z M -3.828125 -2.015625 "/>
</g>
<g id="glyph-4-2">
<path d="M -7.359375 -2.078125 C -7.671875 -2.078125 -7.953125 -1.828125 -7.953125 -1.5 C -7.953125 -1.1875 -7.703125 -0.921875 -7.375 -0.921875 C -7.015625 -0.921875 -6.796875 -1.203125 -6.796875 -1.5 C -6.796875 -1.859375 -7.09375 -2.078125 -7.359375 -2.078125 Z M -5.140625 -0.4375 L -4.796875 -0.4375 C -4.796875 -1.1875 -4.71875 -1.296875 -4.140625 -1.296875 L -0.890625 -1.296875 C -0.34375 -1.296875 -0.34375 -1.171875 -0.34375 -0.390625 L 0 -0.390625 C -0.03125 -0.734375 -0.03125 -1.296875 -0.03125 -1.65625 C -0.03125 -1.78125 -0.03125 -2.46875 0 -2.875 L -0.34375 -2.875 C -0.34375 -2.109375 -0.40625 -2.0625 -0.875 -2.0625 L -5.265625 -2.0625 Z M -5.140625 -0.4375 "/>
</g>
<g id="glyph-4-3">
<path d="M -4.8125 -2.015625 L -4.8125 -3.6875 L -5.15625 -3.6875 L -5.15625 -2.015625 L -7.34375 -2.015625 L -7.34375 -1.75 C -6.234375 -1.734375 -5.078125 -1.296875 -5.046875 -0.21875 L -4.8125 -0.21875 L -4.8125 -1.234375 L -1.484375 -1.234375 C -0.15625 -1.234375 0.125 -2.109375 0.125 -2.75 C 0.125 -3.5 -0.625 -3.890625 -1.484375 -3.890625 L -2.15625 -3.890625 L -2.15625 -3.640625 L -1.5 -3.640625 C -0.640625 -3.640625 -0.140625 -3.28125 -0.140625 -2.828125 C -0.140625 -2.015625 -1.25 -2.015625 -1.453125 -2.015625 Z M -4.8125 -2.015625 "/>
</g>
<g id="glyph-4-4">
<path d="M -5.0625 -3.921875 C -5.265625 -3.921875 -5.328125 -3.921875 -5.328125 -3.796875 C -5.328125 -3.703125 -5.0625 -3.484375 -4.953125 -3.390625 C -5.265625 -3.03125 -5.328125 -2.65625 -5.328125 -2.265625 C -5.328125 -0.828125 -4.546875 -0.390625 -3.890625 -0.390625 C -3.75 -0.390625 -3.328125 -0.390625 -2.921875 -0.84375 C -2.578125 -1.234375 -2.5 -1.640625 -2.390625 -2.1875 C -2.265625 -2.84375 -2.21875 -3 -1.984375 -3.296875 C -1.8125 -3.515625 -1.546875 -3.671875 -1.203125 -3.671875 C -0.6875 -3.671875 -0.125 -3.375 -0.125 -2.3125 C -0.125 -1.53125 -0.578125 -0.953125 -1.765625 -0.6875 C -1.984375 -0.640625 -2 -0.640625 -2.015625 -0.640625 C -2.0625 -0.609375 -2.0625 -0.5625 -2.0625 -0.53125 C -2.0625 -0.390625 -2 -0.390625 -1.78125 -0.390625 L -0.15625 -0.390625 C 0.0625 -0.390625 0.125 -0.390625 0.125 -0.515625 C 0.125 -0.578125 0.109375 -0.578125 -0.140625 -0.78125 C -0.234375 -0.84375 -0.25 -0.84375 -0.4375 -1.03125 C 0.125 -1.484375 0.125 -2.125 0.125 -2.328125 C 0.125 -3.578125 -0.578125 -4.203125 -1.515625 -4.203125 C -2.15625 -4.203125 -2.546875 -3.8125 -2.65625 -3.703125 C -3.03125 -3.28125 -3.09375 -2.953125 -3.234375 -2.15625 C -3.3125 -1.8125 -3.484375 -0.9375 -4.203125 -0.9375 C -4.5625 -0.9375 -5.109375 -1.1875 -5.109375 -2.265625 C -5.109375 -3.5625 -4 -3.640625 -3.640625 -3.65625 C -3.53125 -3.671875 -3.53125 -3.75 -3.53125 -3.796875 C -3.53125 -3.921875 -3.59375 -3.921875 -3.8125 -3.921875 Z M -5.0625 -3.921875 "/>
</g>
<g id="glyph-4-5">
<path d="M -2.96875 -3.375 C -3.890625 -3.375 -5.359375 -3.25 -6.75 -2.578125 C -8.1875 -1.875 -8.96875 -0.890625 -8.96875 -0.765625 C -8.96875 -0.71875 -8.9375 -0.65625 -8.875 -0.65625 C -8.828125 -0.65625 -8.8125 -0.65625 -8.609375 -0.859375 C -7.40625 -2.0625 -5.421875 -2.71875 -2.984375 -2.71875 C -0.671875 -2.71875 1.328125 -2.15625 2.734375 -0.78125 C 2.84375 -0.65625 2.875 -0.65625 2.90625 -0.65625 C 2.96875 -0.65625 3 -0.71875 3 -0.765625 C 3 -0.921875 2.140625 -1.90625 0.96875 -2.484375 C -0.25 -3.09375 -1.546875 -3.375 -2.96875 -3.375 Z M -2.96875 -3.375 "/>
</g>
</g>
<clipPath id="clip-0">
<path clip-rule="nonzero" d="M 40.359375 10 L 278.992188 10 L 278.992188 155.785156 L 40.359375 155.785156 Z M 40.359375 10 "/>
</clipPath>
</defs>
<path fill="none" stroke-width="0.3985" stroke-linecap="butt" stroke-linejoin="miter" stroke="rgb(84.999084%, 84.999084%, 84.999084%)" stroke-opacity="1" stroke-miterlimit="10" d="M 0.001375 0.00084375 L 0.001375 153.594594 M 47.727938 0.00084375 L 47.727938 153.594594 M 95.4545 0.00084375 L 95.4545 153.594594 M 143.181062 0.00084375 L 143.181062 153.594594 M 190.907625 0.00084375 L 190.907625 153.594594 M 238.634187 0.00084375 L 238.634187 153.594594 " transform="matrix(1, 0, 0, -1, 40.358, 155.786)"/>
<path fill="none" stroke-width="0.3985" stroke-linecap="butt" stroke-linejoin="miter" stroke="rgb(84.999084%, 84.999084%, 84.999084%)" stroke-opacity="1" stroke-miterlimit="10" d="M 0.001375 0.00084375 L 238.634187 0.00084375 M 0.001375 26.711781 L 238.634187 26.711781 M 0.001375 53.422719 L 238.634187 53.422719 M 0.001375 80.137563 L 238.634187 80.137563 M 0.001375 106.8485 L 238.634187 106.8485 M 0.001375 133.563344 L 238.634187 133.563344 " transform="matrix(1, 0, 0, -1, 40.358, 155.786)"/>
<path fill="none" stroke-width="0.19925" stroke-linecap="butt" stroke-linejoin="miter" stroke="rgb(50%, 50%, 50%)" stroke-opacity="1" stroke-miterlimit="10" d="M 0.001375 0.00084375 L 0.001375 4.250844 M 47.727938 0.00084375 L 47.727938 4.250844 M 95.4545 0.00084375 L 95.4545 4.250844 M 143.181062 0.00084375 L 143.181062 4.250844 M 190.907625 0.00084375 L 190.907625 4.250844 M 238.634187 0.00084375 L 238.634187 4.250844 M 0.001375 153.594594 L 0.001375 149.344594 M 47.727938 153.594594 L 47.727938 149.344594 M 95.4545 153.594594 L 95.4545 149.344594 M 143.181062 153.594594 L 143.181062 149.344594 M 190.907625 153.594594 L 190.907625 149.344594 M 238.634187 153.594594 L 238.634187 149.344594 " transform="matrix(1, 0, 0, -1, 40.358, 155.786)"/>
<path fill="none" stroke-width="0.19925" stroke-linecap="butt" stroke-linejoin="miter" stroke="rgb(50%, 50%, 50%)" stroke-opacity="1" stroke-miterlimit="10" d="M 0.001375 0.00084375 L 4.251375 0.00084375 M 0.001375 26.711781 L 4.251375 26.711781 M 0.001375 53.422719 L 4.251375 53.422719 M 0.001375 80.137563 L 4.251375 80.137563 M 0.001375 106.8485 L 4.251375 106.8485 M 0.001375 133.563344 L 4.251375 133.563344 M 238.634187 0.00084375 L 234.384187 0.00084375 M 238.634187 26.711781 L 234.384187 26.711781 M 238.634187 53.422719 L 234.384187 53.422719 M 238.634187 80.137563 L 234.384187 80.137563 M 238.634187 106.8485 L 234.384187 106.8485 M 238.634187 133.563344 L 234.384187 133.563344 " transform="matrix(1, 0, 0, -1, 40.358, 155.786)"/>
<path fill="none" stroke-width="0.3985" stroke-linecap="butt" stroke-linejoin="miter" stroke="rgb(0%, 0%, 0%)" stroke-opacity="1" stroke-miterlimit="10" d="M 0.001375 0.00084375 L 0.001375 153.594594 L 238.634187 153.594594 L 238.634187 0.00084375 Z M 0.001375 0.00084375 " transform="matrix(1, 0, 0, -1, 40.358, 155.786)"/>
<g fill="rgb(0%, 0%, 0%)" fill-opacity="1">
<use xlink:href="#glyph-0-0" x="37.868" y="165.726"/>
</g>
<g fill="rgb(0%, 0%, 0%)" fill-opacity="1">
<use xlink:href="#glyph-0-0" x="81.72" y="165.726"/>
</g>
<g fill="rgb(0%, 0%, 0%)" fill-opacity="1">
<use xlink:href="#glyph-1-0" x="86.7013" y="165.726"/>
</g>
<g fill="rgb(0%, 0%, 0%)" fill-opacity="1">
<use xlink:href="#glyph-0-1" x="89.46891" y="165.726"/>
</g>
<g fill="rgb(0%, 0%, 0%)" fill-opacity="1">
<use xlink:href="#glyph-0-0" x="129.446" y="165.726"/>
</g>
<g fill="rgb(0%, 0%, 0%)" fill-opacity="1">
<use xlink:href="#glyph-1-0" x="134.4273" y="165.726"/>
</g>
<g fill="rgb(0%, 0%, 0%)" fill-opacity="1">
<use xlink:href="#glyph-0-2" x="137.19491" y="165.726"/>
</g>
<g fill="rgb(0%, 0%, 0%)" fill-opacity="1">
<use xlink:href="#glyph-0-0" x="177.172" y="165.726"/>
</g>
<g fill="rgb(0%, 0%, 0%)" fill-opacity="1">
<use xlink:href="#glyph-1-0" x="182.1533" y="165.726"/>
</g>
<g fill="rgb(0%, 0%, 0%)" fill-opacity="1">
<use xlink:href="#glyph-0-3" x="184.92091" y="165.726"/>
</g>
<g fill="rgb(0%, 0%, 0%)" fill-opacity="1">
<use xlink:href="#glyph-0-0" x="224.899" y="165.726"/>
</g>
<g fill="rgb(0%, 0%, 0%)" fill-opacity="1">
<use xlink:href="#glyph-1-0" x="229.8803" y="165.726"/>
</g>
<g fill="rgb(0%, 0%, 0%)" fill-opacity="1">
<use xlink:href="#glyph-0-4" x="232.64791" y="165.726"/>
</g>
<g fill="rgb(0%, 0%, 0%)" fill-opacity="1">
<use xlink:href="#glyph-0-5" x="276.499" y="165.726"/>
</g>
<g fill="rgb(0%, 0%, 0%)" fill-opacity="1">
<use xlink:href="#glyph-0-0" x="31.857" y="158.996"/>
</g>
<g fill="rgb(0%, 0%, 0%)" fill-opacity="1">
<use xlink:href="#glyph-0-0" x="24.108" y="132.284"/>
</g>
<g fill="rgb(0%, 0%, 0%)" fill-opacity="1">
<use xlink:href="#glyph-1-0" x="29.0893" y="132.284"/>
</g>
<g fill="rgb(0%, 0%, 0%)" fill-opacity="1">
<use xlink:href="#glyph-0-1" x="31.85691" y="132.284"/>
</g>
<g fill="rgb(0%, 0%, 0%)" fill-opacity="1">
<use xlink:href="#glyph-0-0" x="24.108" y="105.572"/>
</g>
<g fill="rgb(0%, 0%, 0%)" fill-opacity="1">
<use xlink:href="#glyph-1-0" x="29.0893" y="105.572"/>
</g>
<g fill="rgb(0%, 0%, 0%)" fill-opacity="1">
<use xlink:href="#glyph-0-2" x="31.85691" y="105.572"/>
</g>
<g fill="rgb(0%, 0%, 0%)" fill-opacity="1">
<use xlink:href="#glyph-0-0" x="24.108" y="78.86"/>
</g>
<g fill="rgb(0%, 0%, 0%)" fill-opacity="1">
<use xlink:href="#glyph-1-0" x="29.0893" y="78.86"/>
</g>
<g fill="rgb(0%, 0%, 0%)" fill-opacity="1">
<use xlink:href="#glyph-0-3" x="31.85691" y="78.86"/>
</g>
<g fill="rgb(0%, 0%, 0%)" fill-opacity="1">
<use xlink:href="#glyph-0-0" x="24.108" y="52.148"/>
</g>
<g fill="rgb(0%, 0%, 0%)" fill-opacity="1">
<use xlink:href="#glyph-1-0" x="29.0893" y="52.148"/>
</g>
<g fill="rgb(0%, 0%, 0%)" fill-opacity="1">
<use xlink:href="#glyph-0-4" x="31.85691" y="52.148"/>
</g>
<g fill="rgb(0%, 0%, 0%)" fill-opacity="1">
<use xlink:href="#glyph-0-5" x="31.857" y="25.436"/>
</g>
<g clip-path="url(#clip-0)">
<path fill="none" stroke-width="0.79701" stroke-linecap="butt" stroke-linejoin="miter" stroke="rgb(0%, 0%, 0%)" stroke-opacity="1" stroke-miterlimit="10" d="M 2.388094 10.797719 L 4.747469 18.825063 L 7.11075 25.836781 L 9.474031 32.184438 L 11.833406 38.036 L 14.196688 43.477406 L 16.559969 48.582875 L 18.92325 53.395375 L 21.282625 57.946156 L 23.645906 62.266469 L 26.009188 66.375844 L 28.372469 70.289906 L 30.731844 74.024281 L 33.095125 77.586781 L 35.458406 80.996938 L 37.821688 84.250844 L 40.181063 87.364125 L 42.544344 90.344594 L 44.907625 93.203969 L 47.270906 95.926625 L 49.630281 98.559438 L 51.993563 101.024281 L 54.356844 103.422719 L 56.716219 105.707875 L 59.0795 107.871938 L 61.442781 109.938344 L 63.806063 111.914906 L 66.165437 113.789906 L 68.528719 115.571156 L 70.892 117.250844 L 73.255281 118.8485 L 75.614656 120.360219 L 77.977937 121.786 L 80.341219 123.110219 L 82.7045 124.368031 L 85.063875 125.543813 L 87.427156 126.621938 L 89.790437 127.62975 L 92.149812 128.563344 L 94.513094 129.407094 L 96.876375 130.164906 L 99.239656 130.844594 L 101.599031 131.457875 L 103.962312 131.985219 L 106.325594 132.438344 L 108.688875 132.81725 L 111.04825 133.121938 L 113.411531 133.352406 L 115.774812 133.496938 L 118.138094 133.571156 L 120.497469 133.571156 L 122.86075 133.496938 L 125.224031 133.352406 L 127.583406 133.121938 L 129.946687 132.81725 L 132.309969 132.44225 L 134.67325 131.985219 L 137.032625 131.457875 L 139.395906 130.844594 L 141.759187 130.164906 L 144.122469 129.407094 L 146.481844 128.563344 L 148.845125 127.633656 L 151.208406 126.621938 L 153.571687 125.543813 L 155.931062 124.368031 L 158.294344 123.110219 L 160.657625 121.789906 L 163.017 120.360219 L 165.380281 118.852406 L 167.743562 117.250844 L 170.106844 115.571156 L 172.466219 113.789906 L 174.8295 111.914906 L 177.192781 109.938344 L 179.556062 107.871938 L 181.915437 105.707875 L 184.278719 103.418813 L 186.642 101.024281 L 189.005281 98.559438 L 191.364656 95.930531 L 193.727937 93.200063 L 196.091219 90.3485 L 198.4545 87.364125 L 200.813875 84.250844 L 203.177156 80.996938 L 205.540437 77.586781 L 207.899812 74.024281 L 210.263094 70.289906 L 212.626375 66.375844 L 214.989656 62.266469 L 217.349031 57.946156 L 219.712312 53.395375 L 222.075594 48.582875 L 224.438875 43.477406 L 226.79825 38.036 L 229.161531 32.184438 L 231.524812 25.836781 L 233.888094 18.821156 L 236.247469 10.793813 " transform="matrix(1, 0, 0, -1, 40.358, 155.786)"/>
</g>
<g fill="rgb(0%, 0%, 0%)" fill-opacity="1">
<use xlink:href="#glyph-0-6" x="109.001" y="16.769"/>
<use xlink:href="#glyph-0-7" x="117.302835" y="16.769"/>
<use xlink:href="#glyph-0-8" x="122.284135" y="16.769"/>
</g>
<g fill="rgb(0%, 0%, 0%)" fill-opacity="1">
<use xlink:href="#glyph-0-9" x="130.859941" y="16.769"/>
<use xlink:href="#glyph-0-10" x="135.28732" y="16.769"/>
</g>
<g fill="rgb(0%, 0%, 0%)" fill-opacity="1">
<use xlink:href="#glyph-0-11" x="140.55355" y="16.769"/>
<use xlink:href="#glyph-0-12" x="144.428006" y="16.769"/>
<use xlink:href="#glyph-0-13" x="148.330356" y="16.769"/>
<use xlink:href="#glyph-0-14" x="153.311656" y="16.769"/>
</g>
<g fill="rgb(0%, 0%, 0%)" fill-opacity="1">
<use xlink:href="#glyph-0-15" x="158.567924" y="16.769"/>
</g>
<g fill="rgb(0%, 0%, 0%)" fill-opacity="1">
<use xlink:href="#glyph-0-7" x="167.14373" y="16.769"/>
<use xlink:href="#glyph-0-11" x="172.12503" y="16.769"/>
</g>
<g fill="rgb(0%, 0%, 0%)" fill-opacity="1">
<use xlink:href="#glyph-1-1" x="179.317031" y="16.769"/>
</g>
<g fill="rgb(0%, 0%, 0%)" fill-opacity="1">
<use xlink:href="#glyph-0-16" x="187.098818" y="16.769"/>
</g>
<g fill="rgb(0%, 0%, 0%)" fill-opacity="1">
<use xlink:href="#glyph-0-0" x="197.617331" y="16.769"/>
</g>
<g fill="rgb(0%, 0%, 0%)" fill-opacity="1">
<use xlink:href="#glyph-1-0" x="202.598631" y="16.769"/>
</g>
<g fill="rgb(0%, 0%, 0%)" fill-opacity="1">
<use xlink:href="#glyph-0-17" x="205.366241" y="16.769"/>
</g>
<g fill="rgb(0%, 0%, 0%)" fill-opacity="1">
<use xlink:href="#glyph-0-14" x="55.81" y="138.242"/>
<use xlink:href="#glyph-0-12" x="61.345221" y="138.242"/>
<use xlink:href="#glyph-0-9" x="65.247571" y="138.242"/>
<use xlink:href="#glyph-0-18" x="69.67495" y="138.242"/>
<use xlink:href="#glyph-0-19" x="75.210171" y="138.242"/>
<use xlink:href="#glyph-0-20" x="77.977781" y="138.242"/>
<use xlink:href="#glyph-0-11" x="82.405161" y="138.242"/>
<use xlink:href="#glyph-0-7" x="86.279616" y="138.242"/>
<use xlink:href="#glyph-0-21" x="91.260916" y="138.242"/>
<use xlink:href="#glyph-0-22" x="96.796136" y="138.242"/>
<use xlink:href="#glyph-0-9" x="99.563747" y="138.242"/>
</g>
<g fill="rgb(0%, 0%, 0%)" fill-opacity="1">
<use xlink:href="#glyph-0-14" x="215.358" y="138.242"/>
<use xlink:href="#glyph-0-12" x="220.893221" y="138.242"/>
<use xlink:href="#glyph-0-9" x="224.795571" y="138.242"/>
<use xlink:href="#glyph-0-18" x="229.22295" y="138.242"/>
<use xlink:href="#glyph-0-19" x="234.758171" y="138.242"/>
<use xlink:href="#glyph-0-20" x="237.525781" y="138.242"/>
<use xlink:href="#glyph-0-11" x="241.953161" y="138.242"/>
<use xlink:href="#glyph-0-7" x="245.827616" y="138.242"/>
<use xlink:href="#glyph-0-21" x="250.808916" y="138.242"/>
<use xlink:href="#glyph-0-22" x="256.344136" y="138.242"/>
<use xlink:href="#glyph-0-9" x="259.111747" y="138.242"/>
</g>
<g fill="rgb(0%, 0%, 0%)" fill-opacity="1">
<use xlink:href="#glyph-2-0" x="156.736" y="177.713"/>
</g>
<g fill="rgb(0%, 0%, 0%)" fill-opacity="1">
<use xlink:href="#glyph-3-0" x="14.279" y="100.266"/>
</g>
<g fill="rgb(0%, 0%, 0%)" fill-opacity="1">
<use xlink:href="#glyph-4-0" x="14.279" y="85.736845"/>
<use xlink:href="#glyph-4-1" x="14.279" y="81.184305"/>
<use xlink:href="#glyph-4-2" x="14.279" y="74.680676"/>
<use xlink:href="#glyph-4-3" x="14.279" y="71.428862"/>
<use xlink:href="#glyph-4-4" x="14.279" y="66.876322"/>
<use xlink:href="#glyph-4-5" x="14.279" y="62.259224"/>
</g>
</svg>
