<?xml version="1.0" encoding="UTF-8"?>
<svg xmlns="http://www.w3.org/2000/svg" xmlns:xlink="http://www.w3.org/1999/xlink" width="679.406pt" height="348.921pt" viewBox="0 0 679.406 348.921">
<defs>
<g>
<g id="glyph-0-0">
<path d="M 4.578125 -3.1875 C 4.578125 -3.984375 4.53125 -4.78125 4.1875 -5.515625 C 3.734375 -6.484375 2.90625 -6.640625 2.5 -6.640625 C 1.890625 -6.640625 1.171875 -6.375 0.75 -5.453125 C 0.4375 -4.765625 0.390625 -3.984375 0.390625 -3.1875 C 0.390625 -2.4375 0.421875 -1.546875 0.84375 -0.78125 C 1.265625 0.015625 2 0.21875 2.484375 0.21875 C 3.015625 0.21875 3.78125 0.015625 4.21875 -0.9375 C 4.53125 -1.625 4.578125 -2.40625 4.578125 -3.1875 Z M 2.484375 0 C 2.09375 0 1.5 -0.25 1.328125 -1.203125 C 1.21875 -1.796875 1.21875 -2.71875 1.21875 -3.3125 C 1.21875 -3.953125 1.21875 -4.609375 1.296875 -5.140625 C 1.484375 -6.328125 2.234375 -6.421875 2.484375 -6.421875 C 2.8125 -6.421875 3.46875 -6.234375 3.65625 -5.25 C 3.765625 -4.6875 3.765625 -3.9375 3.765625 -3.3125 C 3.765625 -2.5625 3.765625 -1.890625 3.65625 -1.25 C 3.5 -0.296875 2.9375 0 2.484375 0 Z M 2.484375 0 "/>
</g>
<g id="glyph-0-1">
<path d="M 1.265625 -0.765625 L 2.328125 -1.796875 C 3.875 -3.171875 4.46875 -3.703125 4.46875 -4.703125 C 4.46875 -5.84375 3.578125 -6.640625 2.359375 -6.640625 C 1.234375 -6.640625 0.5 -5.71875 0.5 -4.828125 C 0.5 -4.28125 1 -4.28125 1.03125 -4.28125 C 1.203125 -4.28125 1.546875 -4.390625 1.546875 -4.8125 C 1.546875 -5.0625 1.359375 -5.328125 1.015625 -5.328125 C 0.9375 -5.328125 0.921875 -5.328125 0.890625 -5.3125 C 1.109375 -5.96875 1.65625 -6.328125 2.234375 -6.328125 C 3.140625 -6.328125 3.5625 -5.515625 3.5625 -4.703125 C 3.5625 -3.90625 3.078125 -3.125 2.515625 -2.5 L 0.609375 -0.375 C 0.5 -0.265625 0.5 -0.234375 0.5 0 L 4.203125 0 L 4.46875 -1.734375 L 4.234375 -1.734375 C 4.171875 -1.4375 4.109375 -1 4 -0.84375 C 3.9375 -0.765625 3.28125 -0.765625 3.0625 -0.765625 Z M 1.265625 -0.765625 "/>
</g>
<g id="glyph-0-2">
<path d="M 2.9375 -1.640625 L 2.9375 -0.78125 C 2.9375 -0.421875 2.90625 -0.3125 2.171875 -0.3125 L 1.96875 -0.3125 L 1.96875 0 C 2.375 -0.03125 2.890625 -0.03125 3.3125 -0.03125 C 3.734375 -0.03125 4.25 -0.03125 4.671875 0 L 4.671875 -0.3125 L 4.453125 -0.3125 C 3.71875 -0.3125 3.703125 -0.421875 3.703125 -0.78125 L 3.703125 -1.640625 L 4.6875 -1.640625 L 4.6875 -1.953125 L 3.703125 -1.953125 L 3.703125 -6.484375 C 3.703125 -6.6875 3.703125 -6.75 3.53125 -6.75 C 3.453125 -6.75 3.421875 -6.75 3.34375 -6.625 L 0.28125 -1.953125 L 0.28125 -1.640625 Z M 2.984375 -1.953125 L 0.5625 -1.953125 L 2.984375 -5.671875 Z M 2.984375 -1.953125 "/>
</g>
<g id="glyph-0-3">
<path d="M 1.3125 -3.265625 L 1.3125 -3.515625 C 1.3125 -6.03125 2.546875 -6.390625 3.0625 -6.390625 C 3.296875 -6.390625 3.71875 -6.328125 3.9375 -5.984375 C 3.78125 -5.984375 3.390625 -5.984375 3.390625 -5.546875 C 3.390625 -5.234375 3.625 -5.078125 3.84375 -5.078125 C 4 -5.078125 4.3125 -5.171875 4.3125 -5.5625 C 4.3125 -6.15625 3.875 -6.640625 3.046875 -6.640625 C 1.765625 -6.640625 0.421875 -5.359375 0.421875 -3.15625 C 0.421875 -0.484375 1.578125 0.21875 2.5 0.21875 C 3.609375 0.21875 4.5625 -0.71875 4.5625 -2.03125 C 4.5625 -3.296875 3.671875 -4.25 2.5625 -4.25 C 1.890625 -4.25 1.515625 -3.75 1.3125 -3.265625 Z M 2.5 -0.0625 C 1.875 -0.0625 1.578125 -0.65625 1.515625 -0.8125 C 1.328125 -1.28125 1.328125 -2.078125 1.328125 -2.25 C 1.328125 -3.03125 1.65625 -4.03125 2.546875 -4.03125 C 2.71875 -4.03125 3.171875 -4.03125 3.484375 -3.40625 C 3.65625 -3.046875 3.65625 -2.53125 3.65625 -2.046875 C 3.65625 -1.5625 3.65625 -1.0625 3.484375 -0.703125 C 3.1875 -0.109375 2.734375 -0.0625 2.5 -0.0625 Z M 2.5 -0.0625 "/>
</g>
<g id="glyph-0-4">
<path d="M 1.625 -4.5625 C 1.171875 -4.859375 1.125 -5.1875 1.125 -5.359375 C 1.125 -5.96875 1.78125 -6.390625 2.484375 -6.390625 C 3.203125 -6.390625 3.84375 -5.875 3.84375 -5.15625 C 3.84375 -4.578125 3.453125 -4.109375 2.859375 -3.765625 Z M 3.078125 -3.609375 C 3.796875 -3.984375 4.28125 -4.5 4.28125 -5.15625 C 4.28125 -6.078125 3.40625 -6.640625 2.5 -6.640625 C 1.5 -6.640625 0.6875 -5.90625 0.6875 -4.96875 C 0.6875 -4.796875 0.703125 -4.34375 1.125 -3.875 C 1.234375 -3.765625 1.609375 -3.515625 1.859375 -3.34375 C 1.28125 -3.046875 0.421875 -2.5 0.421875 -1.5 C 0.421875 -0.453125 1.4375 0.21875 2.484375 0.21875 C 3.609375 0.21875 4.5625 -0.609375 4.5625 -1.671875 C 4.5625 -2.03125 4.453125 -2.484375 4.0625 -2.90625 C 3.875 -3.109375 3.71875 -3.203125 3.078125 -3.609375 Z M 2.078125 -3.1875 L 3.3125 -2.40625 C 3.59375 -2.21875 4.0625 -1.921875 4.0625 -1.3125 C 4.0625 -0.578125 3.3125 -0.0625 2.5 -0.0625 C 1.640625 -0.0625 0.921875 -0.671875 0.921875 -1.5 C 0.921875 -2.078125 1.234375 -2.71875 2.078125 -3.1875 Z M 2.078125 -3.1875 "/>
</g>
<g id="glyph-0-5">
<path d="M 2.9375 -6.375 C 2.9375 -6.625 2.9375 -6.640625 2.703125 -6.640625 C 2.078125 -6 1.203125 -6 0.890625 -6 L 0.890625 -5.6875 C 1.09375 -5.6875 1.671875 -5.6875 2.1875 -5.953125 L 2.1875 -0.78125 C 2.1875 -0.421875 2.15625 -0.3125 1.265625 -0.3125 L 0.953125 -0.3125 L 0.953125 0 C 1.296875 -0.03125 2.15625 -0.03125 2.5625 -0.03125 C 2.953125 -0.03125 3.828125 -0.03125 4.171875 0 L 4.171875 -0.3125 L 3.859375 -0.3125 C 2.953125 -0.3125 2.9375 -0.421875 2.9375 -0.78125 Z M 2.9375 -6.375 "/>
</g>
<g id="glyph-0-6">
<path d="M 2.890625 -3.515625 C 3.703125 -3.78125 4.28125 -4.46875 4.28125 -5.265625 C 4.28125 -6.078125 3.40625 -6.640625 2.453125 -6.640625 C 1.453125 -6.640625 0.6875 -6.046875 0.6875 -5.28125 C 0.6875 -4.953125 0.90625 -4.765625 1.203125 -4.765625 C 1.5 -4.765625 1.703125 -4.984375 1.703125 -5.28125 C 1.703125 -5.765625 1.234375 -5.765625 1.09375 -5.765625 C 1.390625 -6.265625 2.046875 -6.390625 2.40625 -6.390625 C 2.828125 -6.390625 3.375 -6.171875 3.375 -5.28125 C 3.375 -5.15625 3.34375 -4.578125 3.09375 -4.140625 C 2.796875 -3.65625 2.453125 -3.625 2.203125 -3.625 C 2.125 -3.609375 1.890625 -3.59375 1.8125 -3.59375 C 1.734375 -3.578125 1.671875 -3.5625 1.671875 -3.46875 C 1.671875 -3.359375 1.734375 -3.359375 1.90625 -3.359375 L 2.34375 -3.359375 C 3.15625 -3.359375 3.53125 -2.6875 3.53125 -1.703125 C 3.53125 -0.34375 2.84375 -0.0625 2.40625 -0.0625 C 1.96875 -0.0625 1.21875 -0.234375 0.875 -0.8125 C 1.21875 -0.765625 1.53125 -0.984375 1.53125 -1.359375 C 1.53125 -1.71875 1.265625 -1.921875 0.984375 -1.921875 C 0.734375 -1.921875 0.421875 -1.78125 0.421875 -1.34375 C 0.421875 -0.4375 1.34375 0.21875 2.4375 0.21875 C 3.65625 0.21875 4.5625 -0.6875 4.5625 -1.703125 C 4.5625 -2.515625 3.921875 -3.296875 2.890625 -3.515625 Z M 2.890625 -3.515625 "/>
</g>
<g id="glyph-0-7">
<path d="M 4.46875 -2 C 4.46875 -3.1875 3.65625 -4.1875 2.578125 -4.1875 C 2.109375 -4.1875 1.671875 -4.03125 1.3125 -3.671875 L 1.3125 -5.625 C 1.515625 -5.5625 1.84375 -5.5 2.15625 -5.5 C 3.390625 -5.5 4.09375 -6.40625 4.09375 -6.53125 C 4.09375 -6.59375 4.0625 -6.640625 3.984375 -6.640625 C 3.984375 -6.640625 3.953125 -6.640625 3.90625 -6.609375 C 3.703125 -6.515625 3.21875 -6.3125 2.546875 -6.3125 C 2.15625 -6.3125 1.6875 -6.390625 1.21875 -6.59375 C 1.140625 -6.625 1.125 -6.625 1.109375 -6.625 C 1 -6.625 1 -6.546875 1 -6.390625 L 1 -3.4375 C 1 -3.265625 1 -3.1875 1.140625 -3.1875 C 1.21875 -3.1875 1.234375 -3.203125 1.28125 -3.265625 C 1.390625 -3.421875 1.75 -3.96875 2.5625 -3.96875 C 3.078125 -3.96875 3.328125 -3.515625 3.40625 -3.328125 C 3.5625 -2.953125 3.59375 -2.578125 3.59375 -2.078125 C 3.59375 -1.71875 3.59375 -1.125 3.34375 -0.703125 C 3.109375 -0.3125 2.734375 -0.0625 2.28125 -0.0625 C 1.5625 -0.0625 0.984375 -0.59375 0.8125 -1.171875 C 0.84375 -1.171875 0.875 -1.15625 0.984375 -1.15625 C 1.3125 -1.15625 1.484375 -1.40625 1.484375 -1.640625 C 1.484375 -1.890625 1.3125 -2.140625 0.984375 -2.140625 C 0.84375 -2.140625 0.5 -2.0625 0.5 -1.609375 C 0.5 -0.75 1.1875 0.21875 2.296875 0.21875 C 3.453125 0.21875 4.46875 -0.734375 4.46875 -2 Z M 4.46875 -2 "/>
</g>
<g id="glyph-0-8">
<path d="M 6.84375 -3.265625 C 7 -3.265625 7.1875 -3.265625 7.1875 -3.453125 C 7.1875 -3.65625 7 -3.65625 6.859375 -3.65625 L 0.890625 -3.65625 C 0.75 -3.65625 0.5625 -3.65625 0.5625 -3.453125 C 0.5625 -3.265625 0.75 -3.265625 0.890625 -3.265625 Z M 6.859375 -1.328125 C 7 -1.328125 7.1875 -1.328125 7.1875 -1.53125 C 7.1875 -1.71875 7 -1.71875 6.84375 -1.71875 L 0.890625 -1.71875 C 0.75 -1.71875 0.5625 -1.71875 0.5625 -1.53125 C 0.5625 -1.328125 0.75 -1.328125 0.890625 -1.328125 Z M 6.859375 -1.328125 "/>
</g>
<g id="glyph-0-9">
<path d="M 1.765625 -6.921875 L 0.328125 -6.8125 L 0.328125 -6.5 C 1.03125 -6.5 1.109375 -6.4375 1.109375 -5.9375 L 1.109375 -0.75 C 1.109375 -0.3125 1 -0.3125 0.328125 -0.3125 L 0.328125 0 C 0.65625 -0.015625 1.1875 -0.03125 1.4375 -0.03125 C 1.6875 -0.03125 2.171875 -0.015625 2.546875 0 L 2.546875 -0.3125 C 1.875 -0.3125 1.765625 -0.3125 1.765625 -0.75 Z M 1.765625 -6.921875 "/>
</g>
<g id="glyph-0-10">
<path d="M 1.09375 -3.421875 L 1.09375 -0.75 C 1.09375 -0.3125 0.984375 -0.3125 0.3125 -0.3125 L 0.3125 0 C 0.671875 -0.015625 1.171875 -0.03125 1.453125 -0.03125 C 1.703125 -0.03125 2.21875 -0.015625 2.5625 0 L 2.5625 -0.3125 C 1.890625 -0.3125 1.78125 -0.3125 1.78125 -0.75 L 1.78125 -2.59375 C 1.78125 -3.625 2.5 -4.1875 3.125 -4.1875 C 3.765625 -4.1875 3.875 -3.65625 3.875 -3.078125 L 3.875 -0.75 C 3.875 -0.3125 3.765625 -0.3125 3.09375 -0.3125 L 3.09375 0 C 3.4375 -0.015625 3.953125 -0.03125 4.21875 -0.03125 C 4.46875 -0.03125 5 -0.015625 5.328125 0 L 5.328125 -0.3125 C 4.8125 -0.3125 4.5625 -0.3125 4.5625 -0.609375 L 4.5625 -2.515625 C 4.5625 -3.375 4.5625 -3.671875 4.25 -4.03125 C 4.109375 -4.203125 3.78125 -4.40625 3.203125 -4.40625 C 2.46875 -4.40625 2 -3.984375 1.71875 -3.359375 L 1.71875 -4.40625 L 0.3125 -4.296875 L 0.3125 -3.984375 C 1.015625 -3.984375 1.09375 -3.921875 1.09375 -3.421875 Z M 1.09375 -3.421875 "/>
</g>
<g id="glyph-0-11">
<path d="M 3.296875 2.390625 C 3.296875 2.359375 3.296875 2.34375 3.125 2.171875 C 1.890625 0.921875 1.5625 -0.96875 1.5625 -2.5 C 1.5625 -4.234375 1.9375 -5.96875 3.171875 -7.203125 C 3.296875 -7.328125 3.296875 -7.34375 3.296875 -7.375 C 3.296875 -7.453125 3.265625 -7.484375 3.203125 -7.484375 C 3.09375 -7.484375 2.203125 -6.796875 1.609375 -5.53125 C 1.109375 -4.4375 0.984375 -3.328125 0.984375 -2.5 C 0.984375 -1.71875 1.09375 -0.515625 1.640625 0.625 C 2.25 1.84375 3.09375 2.5 3.203125 2.5 C 3.265625 2.5 3.296875 2.46875 3.296875 2.390625 Z M 3.296875 2.390625 "/>
</g>
<g id="glyph-0-12">
<path d="M 2.875 -2.5 C 2.875 -3.265625 2.765625 -4.46875 2.21875 -5.609375 C 1.625 -6.828125 0.765625 -7.484375 0.671875 -7.484375 C 0.609375 -7.484375 0.5625 -7.4375 0.5625 -7.375 C 0.5625 -7.34375 0.5625 -7.328125 0.75 -7.140625 C 1.734375 -6.15625 2.296875 -4.578125 2.296875 -2.5 C 2.296875 -0.78125 1.9375 0.96875 0.703125 2.21875 C 0.5625 2.34375 0.5625 2.359375 0.5625 2.390625 C 0.5625 2.453125 0.609375 2.5 0.671875 2.5 C 0.765625 2.5 1.671875 1.8125 2.25 0.546875 C 2.765625 -0.546875 2.875 -1.65625 2.875 -2.5 Z M 2.875 -2.5 "/>
</g>
<g id="glyph-1-0">
<path d="M 1.90625 -0.53125 C 1.90625 -0.8125 1.671875 -1.0625 1.390625 -1.0625 C 1.09375 -1.0625 0.859375 -0.8125 0.859375 -0.53125 C 0.859375 -0.234375 1.09375 0 1.390625 0 C 1.671875 0 1.90625 -0.234375 1.90625 -0.53125 Z M 1.90625 -0.53125 "/>
</g>
<g id="glyph-1-1">
<path d="M 0.875 -0.59375 C 0.84375 -0.4375 0.78125 -0.203125 0.78125 -0.15625 C 0.78125 0.015625 0.921875 0.109375 1.078125 0.109375 C 1.203125 0.109375 1.375 0.03125 1.453125 -0.171875 C 1.453125 -0.1875 1.578125 -0.65625 1.640625 -0.90625 L 1.859375 -1.796875 C 1.90625 -2.03125 1.96875 -2.25 2.03125 -2.46875 C 2.0625 -2.640625 2.140625 -2.9375 2.15625 -2.96875 C 2.296875 -3.28125 2.828125 -4.1875 3.78125 -4.1875 C 4.234375 -4.1875 4.3125 -3.8125 4.3125 -3.484375 C 4.3125 -2.875 3.828125 -1.59375 3.671875 -1.171875 C 3.578125 -0.9375 3.5625 -0.8125 3.5625 -0.703125 C 3.5625 -0.234375 3.921875 0.109375 4.390625 0.109375 C 5.328125 0.109375 5.6875 -1.34375 5.6875 -1.421875 C 5.6875 -1.53125 5.609375 -1.53125 5.578125 -1.53125 C 5.46875 -1.53125 5.46875 -1.5 5.421875 -1.34375 C 5.21875 -0.671875 4.890625 -0.109375 4.40625 -0.109375 C 4.234375 -0.109375 4.171875 -0.203125 4.171875 -0.4375 C 4.171875 -0.6875 4.25 -0.921875 4.34375 -1.140625 C 4.53125 -1.671875 4.953125 -2.765625 4.953125 -3.34375 C 4.953125 -4 4.53125 -4.40625 3.8125 -4.40625 C 2.90625 -4.40625 2.421875 -3.765625 2.25 -3.53125 C 2.203125 -4.09375 1.796875 -4.40625 1.328125 -4.40625 C 0.875 -4.40625 0.6875 -4.015625 0.59375 -3.84375 C 0.421875 -3.5 0.296875 -2.90625 0.296875 -2.875 C 0.296875 -2.765625 0.390625 -2.765625 0.40625 -2.765625 C 0.515625 -2.765625 0.515625 -2.78125 0.578125 -3 C 0.75 -3.703125 0.953125 -4.1875 1.3125 -4.1875 C 1.5 -4.1875 1.609375 -4.0625 1.609375 -3.734375 C 1.609375 -3.515625 1.578125 -3.40625 1.453125 -2.890625 Z M 0.875 -0.59375 "/>
</g>
<g id="glyph-1-2">
<path d="M 7.609375 -6.046875 C 7.703125 -6.40625 7.71875 -6.5 8.4375 -6.5 C 8.703125 -6.5 8.78125 -6.5 8.78125 -6.703125 C 8.78125 -6.8125 8.671875 -6.8125 8.640625 -6.8125 C 8.359375 -6.8125 7.640625 -6.78125 7.359375 -6.78125 C 7.078125 -6.78125 6.375 -6.8125 6.078125 -6.8125 C 6 -6.8125 5.890625 -6.8125 5.890625 -6.609375 C 5.890625 -6.5 5.984375 -6.5 6.171875 -6.5 C 6.1875 -6.5 6.375 -6.5 6.546875 -6.484375 C 6.734375 -6.453125 6.8125 -6.453125 6.8125 -6.3125 C 6.8125 -6.28125 6.8125 -6.265625 6.78125 -6.125 L 6.1875 -3.703125 L 3.140625 -3.703125 L 3.734375 -6.046875 C 3.8125 -6.40625 3.84375 -6.5 4.5625 -6.5 C 4.828125 -6.5 4.90625 -6.5 4.90625 -6.703125 C 4.90625 -6.8125 4.796875 -6.8125 4.765625 -6.8125 C 4.484375 -6.8125 3.765625 -6.78125 3.484375 -6.78125 C 3.203125 -6.78125 2.5 -6.8125 2.203125 -6.8125 C 2.125 -6.8125 2.015625 -6.8125 2.015625 -6.609375 C 2.015625 -6.5 2.109375 -6.5 2.296875 -6.5 C 2.3125 -6.5 2.5 -6.5 2.671875 -6.484375 C 2.84375 -6.453125 2.9375 -6.453125 2.9375 -6.3125 C 2.9375 -6.28125 2.9375 -6.25 2.90625 -6.125 L 1.5625 -0.78125 C 1.46875 -0.390625 1.453125 -0.3125 0.65625 -0.3125 C 0.484375 -0.3125 0.390625 -0.3125 0.390625 -0.109375 C 0.390625 0 0.515625 0 0.53125 0 C 0.8125 0 1.515625 -0.03125 1.796875 -0.03125 C 2 -0.03125 2.21875 -0.015625 2.4375 -0.015625 C 2.65625 -0.015625 2.875 0 3.078125 0 C 3.15625 0 3.28125 0 3.28125 -0.203125 C 3.28125 -0.3125 3.1875 -0.3125 3 -0.3125 C 2.625 -0.3125 2.359375 -0.3125 2.359375 -0.484375 C 2.359375 -0.546875 2.375 -0.59375 2.375 -0.65625 L 3.0625 -3.390625 L 6.09375 -3.390625 C 5.6875 -1.734375 5.453125 -0.78125 5.40625 -0.640625 C 5.3125 -0.3125 5.125 -0.3125 4.5 -0.3125 C 4.359375 -0.3125 4.265625 -0.3125 4.265625 -0.109375 C 4.265625 0 4.390625 0 4.40625 0 C 4.6875 0 5.390625 -0.03125 5.671875 -0.03125 C 5.875 -0.03125 6.09375 -0.015625 6.3125 -0.015625 C 6.53125 -0.015625 6.75 0 6.953125 0 C 7.03125 0 7.15625 0 7.15625 -0.203125 C 7.15625 -0.3125 7.0625 -0.3125 6.875 -0.3125 C 6.515625 -0.3125 6.234375 -0.3125 6.234375 -0.484375 C 6.234375 -0.546875 6.25 -0.59375 6.265625 -0.65625 Z M 7.609375 -6.046875 "/>
</g>
<g id="glyph-2-0">
<path d="M -3.796875 -4.84375 C -3.9375 -4.890625 -3.953125 -4.890625 -4.03125 -4.890625 C -4.203125 -4.890625 -4.296875 -4.75 -4.296875 -4.59375 C -4.296875 -4.5 -4.234375 -4.34375 -4.09375 -4.25 C -4.03125 -4.234375 -3.734375 -4.140625 -3.546875 -4.109375 C -3.296875 -4.03125 -3.015625 -3.96875 -2.75 -3.90625 L -0.953125 -3.453125 C -0.8125 -3.421875 -0.109375 -2.984375 -0.109375 -2.328125 C -0.109375 -1.828125 -0.546875 -1.71875 -0.921875 -1.71875 C -1.375 -1.71875 -2 -1.890625 -2.875 -2.21875 C -3.28125 -2.375 -3.390625 -2.421875 -3.59375 -2.421875 C -4.03125 -2.421875 -4.40625 -2.109375 -4.40625 -1.609375 C -4.40625 -0.65625 -2.953125 -0.296875 -2.875 -0.296875 C -2.765625 -0.296875 -2.765625 -0.390625 -2.765625 -0.40625 C -2.765625 -0.515625 -2.796875 -0.515625 -2.953125 -0.5625 C -3.890625 -0.84375 -4.1875 -1.234375 -4.1875 -1.578125 C -4.1875 -1.65625 -4.1875 -1.828125 -3.875 -1.828125 C -3.625 -1.828125 -3.359375 -1.71875 -3.171875 -1.65625 C -2.109375 -1.25 -1.546875 -1.078125 -1.078125 -1.078125 C -0.1875 -1.078125 0.109375 -1.703125 0.109375 -2.296875 C 0.109375 -2.6875 -0.0625 -3.015625 -0.34375 -3.296875 C 0.171875 -3.171875 0.671875 -3.046875 1.203125 -2.65625 C 1.53125 -2.390625 1.828125 -2.015625 1.828125 -1.5625 C 1.828125 -1.421875 1.796875 -0.96875 1.40625 -0.796875 C 1.40625 -0.953125 1.40625 -1.09375 1.28125 -1.21875 C 1.203125 -1.328125 1.0625 -1.421875 0.875 -1.421875 C 0.5625 -1.421875 0.53125 -1.15625 0.53125 -1.0625 C 0.53125 -0.828125 0.6875 -0.5 1.171875 -0.5 C 1.671875 -0.5 2.046875 -0.9375 2.046875 -1.5625 C 2.046875 -2.578125 1.140625 -3.609375 0.015625 -3.890625 Z M -3.796875 -4.84375 "/>
</g>
<g id="glyph-3-0">
<path d="M 0.84375 -0.4375 C 0.828125 -0.34375 0.78125 -0.171875 0.78125 -0.15625 C 0.78125 0 0.90625 0.0625 1.015625 0.0625 C 1.140625 0.0625 1.25 -0.015625 1.296875 -0.078125 C 1.328125 -0.140625 1.375 -0.375 1.421875 -0.515625 C 1.453125 -0.640625 1.53125 -0.96875 1.5625 -1.140625 C 1.609375 -1.296875 1.65625 -1.453125 1.6875 -1.609375 C 1.765625 -1.890625 1.78125 -1.953125 1.984375 -2.234375 C 2.171875 -2.515625 2.5 -2.875 3.03125 -2.875 C 3.421875 -2.875 3.4375 -2.515625 3.4375 -2.390625 C 3.4375 -1.96875 3.140625 -1.203125 3.03125 -0.90625 C 2.953125 -0.703125 2.921875 -0.640625 2.921875 -0.53125 C 2.921875 -0.15625 3.21875 0.0625 3.578125 0.0625 C 4.28125 0.0625 4.578125 -0.890625 4.578125 -1 C 4.578125 -1.09375 4.5 -1.09375 4.46875 -1.09375 C 4.375 -1.09375 4.375 -1.046875 4.34375 -0.96875 C 4.1875 -0.40625 3.875 -0.125 3.609375 -0.125 C 3.453125 -0.125 3.421875 -0.21875 3.421875 -0.375 C 3.421875 -0.53125 3.46875 -0.625 3.59375 -0.9375 C 3.671875 -1.15625 3.953125 -1.890625 3.953125 -2.28125 C 3.953125 -2.953125 3.421875 -3.078125 3.046875 -3.078125 C 2.46875 -3.078125 2.078125 -2.71875 1.875 -2.4375 C 1.828125 -2.921875 1.421875 -3.078125 1.125 -3.078125 C 0.828125 -3.078125 0.671875 -2.859375 0.578125 -2.703125 C 0.421875 -2.4375 0.328125 -2.046875 0.328125 -2 C 0.328125 -1.921875 0.421875 -1.921875 0.453125 -1.921875 C 0.546875 -1.921875 0.546875 -1.9375 0.59375 -2.125 C 0.703125 -2.53125 0.84375 -2.875 1.109375 -2.875 C 1.296875 -2.875 1.34375 -2.71875 1.34375 -2.53125 C 1.34375 -2.40625 1.28125 -2.140625 1.21875 -1.953125 C 1.171875 -1.765625 1.109375 -1.484375 1.078125 -1.328125 Z M 0.84375 -0.4375 "/>
</g>
<g id="glyph-3-1">
<path d="M 2.1875 -4.625 C 2.1875 -4.640625 2.203125 -4.734375 2.203125 -4.734375 C 2.203125 -4.78125 2.1875 -4.84375 2.09375 -4.84375 C 1.953125 -4.84375 1.375 -4.78125 1.203125 -4.765625 C 1.15625 -4.765625 1.046875 -4.75 1.046875 -4.609375 C 1.046875 -4.515625 1.15625 -4.515625 1.234375 -4.515625 C 1.5625 -4.515625 1.5625 -4.453125 1.5625 -4.40625 C 1.5625 -4.359375 1.546875 -4.3125 1.546875 -4.25 L 0.5625 -0.3125 C 0.515625 -0.1875 0.515625 -0.171875 0.515625 -0.15625 C 0.515625 -0.046875 0.609375 0.0625 0.765625 0.0625 C 0.953125 0.0625 1.03125 -0.0625 1.078125 -0.21875 C 1.09375 -0.25 1.390625 -1.484375 1.421875 -1.578125 C 1.921875 -1.53125 2.3125 -1.359375 2.3125 -1 C 2.3125 -0.96875 2.3125 -0.9375 2.296875 -0.859375 C 2.265625 -0.765625 2.265625 -0.71875 2.265625 -0.640625 C 2.265625 -0.15625 2.671875 0.0625 3.015625 0.0625 C 3.6875 0.0625 3.890625 -0.984375 3.890625 -1 C 3.890625 -1.09375 3.8125 -1.09375 3.78125 -1.09375 C 3.6875 -1.09375 3.671875 -1.046875 3.640625 -0.921875 C 3.5625 -0.625 3.375 -0.125 3.03125 -0.125 C 2.84375 -0.125 2.78125 -0.296875 2.78125 -0.484375 C 2.78125 -0.609375 2.78125 -0.625 2.828125 -0.796875 C 2.84375 -0.828125 2.859375 -0.9375 2.859375 -1.015625 C 2.859375 -1.640625 2.03125 -1.734375 1.734375 -1.75 C 1.9375 -1.875 2.1875 -2.109375 2.3125 -2.21875 C 2.671875 -2.546875 3.015625 -2.875 3.40625 -2.875 C 3.484375 -2.875 3.578125 -2.859375 3.640625 -2.78125 C 3.34375 -2.734375 3.28125 -2.5 3.28125 -2.390625 C 3.28125 -2.25 3.390625 -2.140625 3.546875 -2.140625 C 3.75 -2.140625 3.953125 -2.296875 3.953125 -2.578125 C 3.953125 -2.8125 3.78125 -3.078125 3.421875 -3.078125 C 3.015625 -3.078125 2.65625 -2.78125 2.296875 -2.453125 C 2 -2.1875 1.78125 -1.96875 1.484375 -1.84375 Z M 2.1875 -4.625 "/>
</g>
<g id="glyph-4-0">
<path d="M 4.203125 5.328125 L 0.65625 9.703125 C 0.578125 9.796875 0.5625 9.8125 0.5625 9.859375 C 0.5625 9.96875 0.65625 9.96875 0.84375 9.96875 L 9.09375 9.96875 L 9.953125 7.484375 L 9.703125 7.484375 C 9.453125 8.234375 8.796875 8.84375 7.9375 9.125 C 7.78125 9.1875 7.09375 9.421875 5.625 9.421875 L 1.390625 9.421875 L 4.859375 5.140625 C 4.921875 5.046875 4.9375 5.03125 4.9375 4.984375 C 4.9375 4.9375 4.9375 4.9375 4.875 4.84375 L 1.640625 0.40625 L 5.578125 0.40625 C 6.71875 0.40625 9.015625 0.46875 9.703125 2.328125 L 9.953125 2.328125 L 9.09375 0 L 0.84375 0 C 0.5625 0 0.5625 0.015625 0.5625 0.3125 Z M 4.203125 5.328125 "/>
</g>
<g id="glyph-5-0">
<path d="M 5.359375 -2.34375 C 5.453125 -2.34375 5.609375 -2.34375 5.609375 -2.515625 C 5.609375 -2.6875 5.453125 -2.6875 5.359375 -2.6875 L 0.75 -2.6875 C 0.65625 -2.6875 0.484375 -2.6875 0.484375 -2.515625 C 0.484375 -2.34375 0.640625 -2.34375 0.75 -2.34375 Z M 5.359375 -0.8125 C 5.453125 -0.8125 5.609375 -0.8125 5.609375 -0.96875 C 5.609375 -1.15625 5.453125 -1.15625 5.359375 -1.15625 L 0.75 -1.15625 C 0.640625 -1.15625 0.484375 -1.15625 0.484375 -0.96875 C 0.484375 -0.8125 0.65625 -0.8125 0.75 -0.8125 Z M 5.359375 -0.8125 "/>
</g>
<g id="glyph-5-1">
<path d="M 2.328125 -4.4375 C 2.328125 -4.625 2.328125 -4.625 2.125 -4.625 C 1.671875 -4.1875 1.046875 -4.1875 0.765625 -4.1875 L 0.765625 -3.9375 C 0.921875 -3.9375 1.390625 -3.9375 1.765625 -4.125 L 1.765625 -0.578125 C 1.765625 -0.34375 1.765625 -0.25 1.078125 -0.25 L 0.8125 -0.25 L 0.8125 0 C 0.9375 0 1.796875 -0.03125 2.046875 -0.03125 C 2.265625 -0.03125 3.140625 0 3.296875 0 L 3.296875 -0.25 L 3.03125 -0.25 C 2.328125 -0.25 2.328125 -0.34375 2.328125 -0.578125 Z M 2.328125 -4.4375 "/>
</g>
</g>
<clipPath id="clip-0">
<path clip-rule="nonzero" d="M 67 0 L 679.40625 0 L 679.40625 299 L 67 299 Z M 67 0 "/>
</clipPath>
<clipPath id="clip-1">
<path clip-rule="nonzero" d="M 74 53 L 679.40625 53 L 679.40625 298.148438 L 74 298.148438 Z M 74 53 "/>
</clipPath>
<clipPath id="clip-2">
<path clip-rule="nonzero" d="M 74 79 L 679.40625 79 L 679.40625 298.148438 L 74 298.148438 Z M 74 79 "/>
</clipPath>
</defs>
<g clip-path="url(#clip-0)">
<path fill="none" stroke-width="0.3985" stroke-linecap="butt" stroke-linejoin="miter" stroke="rgb(75%, 75%, 75%)" stroke-opacity="1" stroke-miterlimit="10" d="M -0.001375 -0.0004375 L -0.001375 298.874562 M 25.197844 -0.0004375 L 25.197844 298.874562 M 50.400969 -0.0004375 L 50.400969 298.874562 M 75.600188 -0.0004375 L 75.600188 298.874562 M 100.799406 -0.0004375 L 100.799406 298.874562 M 125.998625 -0.0004375 L 125.998625 298.874562 M 151.197844 -0.0004375 L 151.197844 298.874562 M 176.397063 -0.0004375 L 176.397063 298.874562 M 201.596281 -0.0004375 L 201.596281 298.874562 M 226.7955 -0.0004375 L 226.7955 298.874562 M 251.998625 -0.0004375 L 251.998625 298.874562 M 277.197844 -0.0004375 L 277.197844 298.874562 M 302.397063 -0.0004375 L 302.397063 298.874562 M 327.596281 -0.0004375 L 327.596281 298.874562 M 352.7955 -0.0004375 L 352.7955 298.874562 M 377.994719 -0.0004375 L 377.994719 298.874562 M 403.193938 -0.0004375 L 403.193938 298.874562 M 428.393156 -0.0004375 L 428.393156 298.874562 M 453.596281 -0.0004375 L 453.596281 298.874562 M 478.7955 -0.0004375 L 478.7955 298.874562 M 503.994719 -0.0004375 L 503.994719 298.874562 M 529.193937 -0.0004375 L 529.193937 298.874562 M 554.393156 -0.0004375 L 554.393156 298.874562 M 579.592375 -0.0004375 L 579.592375 298.874562 M 604.791594 -0.0004375 L 604.791594 298.874562 M 629.994719 -0.0004375 L 629.994719 298.874562 " transform="matrix(1, 0, 0, -1, 67.267, 298.148)"/>
<path fill="none" stroke-width="0.3985" stroke-linecap="butt" stroke-linejoin="miter" stroke="rgb(75%, 75%, 75%)" stroke-opacity="1" stroke-miterlimit="10" d="M -0.001375 -0.0004375 L 642.592375 -0.0004375 M -0.001375 27.171437 L 642.592375 27.171437 M -0.001375 54.339406 L 642.592375 54.339406 M -0.001375 81.511281 L 642.592375 81.511281 M -0.001375 108.683156 L 642.592375 108.683156 M -0.001375 135.851125 L 642.592375 135.851125 M -0.001375 163.023 L 642.592375 163.023 M -0.001375 190.194875 L 642.592375 190.194875 M -0.001375 217.362844 L 642.592375 217.362844 M -0.001375 244.534719 L 642.592375 244.534719 M -0.001375 271.706594 L 642.592375 271.706594 M -0.001375 298.874562 L 642.592375 298.874562 " transform="matrix(1, 0, 0, -1, 67.267, 298.148)"/>
<path fill="none" stroke-width="0.19925" stroke-linecap="butt" stroke-linejoin="miter" stroke="rgb(50%, 50%, 50%)" stroke-opacity="1" stroke-miterlimit="10" d="M -0.001375 -0.0004375 L -0.001375 4.253469 M 25.197844 -0.0004375 L 25.197844 4.253469 M 50.400969 -0.0004375 L 50.400969 4.253469 M 75.600188 -0.0004375 L 75.600188 4.253469 M 100.799406 -0.0004375 L 100.799406 4.253469 M 125.998625 -0.0004375 L 125.998625 4.253469 M 151.197844 -0.0004375 L 151.197844 4.253469 M 176.397063 -0.0004375 L 176.397063 4.253469 M 201.596281 -0.0004375 L 201.596281 4.253469 M 226.7955 -0.0004375 L 226.7955 4.253469 M 251.998625 -0.0004375 L 251.998625 4.253469 M 277.197844 -0.0004375 L 277.197844 4.253469 M 302.397063 -0.0004375 L 302.397063 4.253469 M 327.596281 -0.0004375 L 327.596281 4.253469 M 352.7955 -0.0004375 L 352.7955 4.253469 M 377.994719 -0.0004375 L 377.994719 4.253469 M 403.193938 -0.0004375 L 403.193938 4.253469 M 428.393156 -0.0004375 L 428.393156 4.253469 M 453.596281 -0.0004375 L 453.596281 4.253469 M 478.7955 -0.0004375 L 478.7955 4.253469 M 503.994719 -0.0004375 L 503.994719 4.253469 M 529.193937 -0.0004375 L 529.193937 4.253469 M 554.393156 -0.0004375 L 554.393156 4.253469 M 579.592375 -0.0004375 L 579.592375 4.253469 M 604.791594 -0.0004375 L 604.791594 4.253469 M 629.994719 -0.0004375 L 629.994719 4.253469 M -0.001375 298.874562 L -0.001375 294.624562 M 25.197844 298.874562 L 25.197844 294.624562 M 50.400969 298.874562 L 50.400969 294.624562 M 75.600188 298.874562 L 75.600188 294.624562 M 100.799406 298.874562 L 100.799406 294.624562 M 125.998625 298.874562 L 125.998625 294.624562 M 151.197844 298.874562 L 151.197844 294.624562 M 176.397063 298.874562 L 176.397063 294.624562 M 201.596281 298.874562 L 201.596281 294.624562 M 226.7955 298.874562 L 226.7955 294.624562 M 251.998625 298.874562 L 251.998625 294.624562 M 277.197844 298.874562 L 277.197844 294.624562 M 302.397063 298.874562 L 302.397063 294.624562 M 327.596281 298.874562 L 327.596281 294.624562 M 352.7955 298.874562 L 352.7955 294.624562 M 377.994719 298.874562 L 377.994719 294.624562 M 403.193938 298.874562 L 403.193938 294.624562 M 428.393156 298.874562 L 428.393156 294.624562 M 453.596281 298.874562 L 453.596281 294.624562 M 478.7955 298.874562 L 478.7955 294.624562 M 503.994719 298.874562 L 503.994719 294.624562 M 529.193937 298.874562 L 529.193937 294.624562 M 554.393156 298.874562 L 554.393156 294.624562 M 579.592375 298.874562 L 579.592375 294.624562 M 604.791594 298.874562 L 604.791594 294.624562 M 629.994719 298.874562 L 629.994719 294.624562 " transform="matrix(1, 0, 0, -1, 67.267, 298.148)"/>
<path fill="none" stroke-width="0.19925" stroke-linecap="butt" stroke-linejoin="miter" stroke="rgb(50%, 50%, 50%)" stroke-opacity="1" stroke-miterlimit="10" d="M -0.001375 -0.0004375 L 4.252531 -0.0004375 M -0.001375 27.171437 L 4.252531 27.171437 M -0.001375 54.339406 L 4.252531 54.339406 M -0.001375 81.511281 L 4.252531 81.511281 M -0.001375 108.683156 L 4.252531 108.683156 M -0.001375 135.851125 L 4.252531 135.851125 M -0.001375 163.023 L 4.252531 163.023 M -0.001375 190.194875 L 4.252531 190.194875 M -0.001375 217.362844 L 4.252531 217.362844 M -0.001375 244.534719 L 4.252531 244.534719 M -0.001375 271.706594 L 4.252531 271.706594 M -0.001375 298.874562 L 4.252531 298.874562 M 642.592375 -0.0004375 L 638.338469 -0.0004375 M 642.592375 27.171437 L 638.338469 27.171437 M 642.592375 54.339406 L 638.338469 54.339406 M 642.592375 81.511281 L 638.338469 81.511281 M 642.592375 108.683156 L 638.338469 108.683156 M 642.592375 135.851125 L 638.338469 135.851125 M 642.592375 163.023 L 638.338469 163.023 M 642.592375 190.194875 L 638.338469 190.194875 M 642.592375 217.362844 L 638.338469 217.362844 M 642.592375 244.534719 L 638.338469 244.534719 M 642.592375 271.706594 L 638.338469 271.706594 M 642.592375 298.874562 L 638.338469 298.874562 " transform="matrix(1, 0, 0, -1, 67.267, 298.148)"/>
<path fill="none" stroke-width="0.3985" stroke-linecap="butt" stroke-linejoin="miter" stroke="rgb(0%, 0%, 0%)" stroke-opacity="1" stroke-miterlimit="10" d="M -0.001375 -0.0004375 L -0.001375 298.874562 L 642.592375 298.874562 L 642.592375 -0.0004375 Z M -0.001375 -0.0004375 " transform="matrix(1, 0, 0, -1, 67.267, 298.148)"/>
</g>
<g fill="rgb(0%, 0%, 0%)" fill-opacity="1">
<use xlink:href="#glyph-0-0" x="64.776" y="308.088"/>
</g>
<g fill="rgb(0%, 0%, 0%)" fill-opacity="1">
<use xlink:href="#glyph-0-1" x="89.976" y="308.088"/>
</g>
<g fill="rgb(0%, 0%, 0%)" fill-opacity="1">
<use xlink:href="#glyph-0-2" x="115.175" y="308.088"/>
</g>
<g fill="rgb(0%, 0%, 0%)" fill-opacity="1">
<use xlink:href="#glyph-0-3" x="140.375" y="308.088"/>
</g>
<g fill="rgb(0%, 0%, 0%)" fill-opacity="1">
<use xlink:href="#glyph-0-4" x="165.574" y="308.088"/>
</g>
<g fill="rgb(0%, 0%, 0%)" fill-opacity="1">
<use xlink:href="#glyph-0-5" x="188.283" y="308.088"/>
<use xlink:href="#glyph-0-0" x="193.2643" y="308.088"/>
</g>
<g fill="rgb(0%, 0%, 0%)" fill-opacity="1">
<use xlink:href="#glyph-0-5" x="213.482" y="308.088"/>
<use xlink:href="#glyph-0-1" x="218.4633" y="308.088"/>
</g>
<g fill="rgb(0%, 0%, 0%)" fill-opacity="1">
<use xlink:href="#glyph-0-5" x="238.681" y="308.088"/>
<use xlink:href="#glyph-0-2" x="243.6623" y="308.088"/>
</g>
<g fill="rgb(0%, 0%, 0%)" fill-opacity="1">
<use xlink:href="#glyph-0-5" x="263.881" y="308.088"/>
<use xlink:href="#glyph-0-3" x="268.8623" y="308.088"/>
</g>
<g fill="rgb(0%, 0%, 0%)" fill-opacity="1">
<use xlink:href="#glyph-0-5" x="289.08" y="308.088"/>
<use xlink:href="#glyph-0-4" x="294.0613" y="308.088"/>
</g>
<g fill="rgb(0%, 0%, 0%)" fill-opacity="1">
<use xlink:href="#glyph-0-1" x="314.28" y="308.088"/>
<use xlink:href="#glyph-0-0" x="319.2613" y="308.088"/>
</g>
<g fill="rgb(0%, 0%, 0%)" fill-opacity="1">
<use xlink:href="#glyph-0-1" x="339.479" y="308.088"/>
<use xlink:href="#glyph-0-1" x="344.4603" y="308.088"/>
</g>
<g fill="rgb(0%, 0%, 0%)" fill-opacity="1">
<use xlink:href="#glyph-0-1" x="364.678" y="308.088"/>
<use xlink:href="#glyph-0-2" x="369.6593" y="308.088"/>
</g>
<g fill="rgb(0%, 0%, 0%)" fill-opacity="1">
<use xlink:href="#glyph-0-1" x="389.878" y="308.088"/>
<use xlink:href="#glyph-0-3" x="394.8593" y="308.088"/>
</g>
<g fill="rgb(0%, 0%, 0%)" fill-opacity="1">
<use xlink:href="#glyph-0-1" x="415.077" y="308.088"/>
<use xlink:href="#glyph-0-4" x="420.0583" y="308.088"/>
</g>
<g fill="rgb(0%, 0%, 0%)" fill-opacity="1">
<use xlink:href="#glyph-0-6" x="440.277" y="308.088"/>
<use xlink:href="#glyph-0-0" x="445.2583" y="308.088"/>
</g>
<g fill="rgb(0%, 0%, 0%)" fill-opacity="1">
<use xlink:href="#glyph-0-6" x="465.476" y="308.088"/>
<use xlink:href="#glyph-0-1" x="470.4573" y="308.088"/>
</g>
<g fill="rgb(0%, 0%, 0%)" fill-opacity="1">
<use xlink:href="#glyph-0-6" x="490.675" y="308.088"/>
<use xlink:href="#glyph-0-2" x="495.6563" y="308.088"/>
</g>
<g fill="rgb(0%, 0%, 0%)" fill-opacity="1">
<use xlink:href="#glyph-0-6" x="515.875" y="308.088"/>
<use xlink:href="#glyph-0-3" x="520.8563" y="308.088"/>
</g>
<g fill="rgb(0%, 0%, 0%)" fill-opacity="1">
<use xlink:href="#glyph-0-6" x="541.074" y="308.088"/>
<use xlink:href="#glyph-0-4" x="546.0553" y="308.088"/>
</g>
<g fill="rgb(0%, 0%, 0%)" fill-opacity="1">
<use xlink:href="#glyph-0-2" x="566.273" y="308.088"/>
<use xlink:href="#glyph-0-0" x="571.2543" y="308.088"/>
</g>
<g fill="rgb(0%, 0%, 0%)" fill-opacity="1">
<use xlink:href="#glyph-0-2" x="591.473" y="308.088"/>
<use xlink:href="#glyph-0-1" x="596.4543" y="308.088"/>
</g>
<g fill="rgb(0%, 0%, 0%)" fill-opacity="1">
<use xlink:href="#glyph-0-2" x="616.672" y="308.088"/>
<use xlink:href="#glyph-0-2" x="621.6533" y="308.088"/>
</g>
<g fill="rgb(0%, 0%, 0%)" fill-opacity="1">
<use xlink:href="#glyph-0-2" x="641.872" y="308.088"/>
<use xlink:href="#glyph-0-3" x="646.8533" y="308.088"/>
</g>
<g fill="rgb(0%, 0%, 0%)" fill-opacity="1">
<use xlink:href="#glyph-0-2" x="667.071" y="308.088"/>
<use xlink:href="#glyph-0-4" x="672.0523" y="308.088"/>
</g>
<g fill="rgb(0%, 0%, 0%)" fill-opacity="1">
<use xlink:href="#glyph-0-0" x="58.766" y="301.358"/>
</g>
<g fill="rgb(0%, 0%, 0%)" fill-opacity="1">
<use xlink:href="#glyph-0-0" x="51.017" y="274.188"/>
</g>
<g fill="rgb(0%, 0%, 0%)" fill-opacity="1">
<use xlink:href="#glyph-1-0" x="55.9983" y="274.188"/>
</g>
<g fill="rgb(0%, 0%, 0%)" fill-opacity="1">
<use xlink:href="#glyph-0-7" x="58.76591" y="274.188"/>
</g>
<g fill="rgb(0%, 0%, 0%)" fill-opacity="1">
<use xlink:href="#glyph-0-5" x="58.766" y="247.018"/>
</g>
<g fill="rgb(0%, 0%, 0%)" fill-opacity="1">
<use xlink:href="#glyph-0-5" x="51.017" y="219.848"/>
</g>
<g fill="rgb(0%, 0%, 0%)" fill-opacity="1">
<use xlink:href="#glyph-1-0" x="55.9983" y="219.848"/>
</g>
<g fill="rgb(0%, 0%, 0%)" fill-opacity="1">
<use xlink:href="#glyph-0-7" x="58.76591" y="219.848"/>
</g>
<g fill="rgb(0%, 0%, 0%)" fill-opacity="1">
<use xlink:href="#glyph-0-1" x="58.766" y="192.678"/>
</g>
<g fill="rgb(0%, 0%, 0%)" fill-opacity="1">
<use xlink:href="#glyph-0-1" x="51.017" y="165.507"/>
</g>
<g fill="rgb(0%, 0%, 0%)" fill-opacity="1">
<use xlink:href="#glyph-1-0" x="55.9983" y="165.507"/>
</g>
<g fill="rgb(0%, 0%, 0%)" fill-opacity="1">
<use xlink:href="#glyph-0-7" x="58.76591" y="165.507"/>
</g>
<g fill="rgb(0%, 0%, 0%)" fill-opacity="1">
<use xlink:href="#glyph-0-6" x="58.766" y="138.337"/>
</g>
<g fill="rgb(0%, 0%, 0%)" fill-opacity="1">
<use xlink:href="#glyph-0-6" x="51.017" y="111.167"/>
</g>
<g fill="rgb(0%, 0%, 0%)" fill-opacity="1">
<use xlink:href="#glyph-1-0" x="55.9983" y="111.167"/>
</g>
<g fill="rgb(0%, 0%, 0%)" fill-opacity="1">
<use xlink:href="#glyph-0-7" x="58.76591" y="111.167"/>
</g>
<g fill="rgb(0%, 0%, 0%)" fill-opacity="1">
<use xlink:href="#glyph-0-2" x="58.766" y="83.997"/>
</g>
<g fill="rgb(0%, 0%, 0%)" fill-opacity="1">
<use xlink:href="#glyph-0-2" x="51.017" y="56.827"/>
</g>
<g fill="rgb(0%, 0%, 0%)" fill-opacity="1">
<use xlink:href="#glyph-1-0" x="55.9983" y="56.827"/>
</g>
<g fill="rgb(0%, 0%, 0%)" fill-opacity="1">
<use xlink:href="#glyph-0-7" x="58.76591" y="56.827"/>
</g>
<g fill="rgb(0%, 0%, 0%)" fill-opacity="1">
<use xlink:href="#glyph-0-7" x="58.766" y="29.657"/>
</g>
<g fill="rgb(0%, 0%, 0%)" fill-opacity="1">
<use xlink:href="#glyph-0-7" x="51.017" y="2.486"/>
</g>
<g fill="rgb(0%, 0%, 0%)" fill-opacity="1">
<use xlink:href="#glyph-1-0" x="55.9983" y="2.486"/>
</g>
<g fill="rgb(0%, 0%, 0%)" fill-opacity="1">
<use xlink:href="#glyph-0-7" x="58.76591" y="2.486"/>
</g>
<g clip-path="url(#clip-1)">
<path fill-rule="nonzero" fill="rgb(0%, 0%, 0%)" fill-opacity="0.1" stroke-width="0.3985" stroke-linecap="butt" stroke-linejoin="miter" stroke="rgb(0%, 0%, 0%)" stroke-opacity="1" stroke-miterlimit="10" d="M 7.561125 -0.0004375 L 17.63925 -0.0004375 L 17.63925 54.339406 L 7.561125 54.339406 Z M 20.158781 -0.0004375 L 30.240813 -0.0004375 L 30.240813 81.511281 L 20.158781 81.511281 Z M 32.760344 -0.0004375 L 42.838469 -0.0004375 L 42.838469 99.624562 L 32.760344 99.624562 Z M 45.358 -0.0004375 L 55.440031 -0.0004375 L 55.440031 113.2105 L 45.358 113.2105 Z M 57.959563 -0.0004375 L 68.037688 -0.0004375 L 68.037688 124.077687 L 57.959563 124.077687 Z M 70.561125 -0.0004375 L 80.63925 -0.0004375 L 80.63925 133.136281 L 70.561125 133.136281 Z M 83.158781 -0.0004375 L 93.240813 -0.0004375 L 93.240813 140.898 L 83.158781 140.898 Z M 95.760344 -0.0004375 L 105.838469 -0.0004375 L 105.838469 147.690969 L 95.760344 147.690969 Z M 108.358 -0.0004375 L 118.440031 -0.0004375 L 118.440031 153.730031 L 108.358 153.730031 Z M 120.959563 -0.0004375 L 131.037688 -0.0004375 L 131.037688 159.163625 L 120.959563 159.163625 Z M 133.557219 -0.0004375 L 143.63925 -0.0004375 L 143.63925 164.105031 L 133.557219 164.105031 Z M 146.158781 -0.0004375 L 156.236906 -0.0004375 L 156.236906 168.632375 L 146.158781 168.632375 Z M 158.756438 -0.0004375 L 168.838469 -0.0004375 L 168.838469 172.812062 L 158.756438 172.812062 Z M 171.358 -0.0004375 L 181.436125 -0.0004375 L 181.436125 176.694875 L 171.358 176.694875 Z M 183.959563 -0.0004375 L 194.037688 -0.0004375 L 194.037688 180.315969 L 183.959563 180.315969 Z M 196.557219 -0.0004375 L 206.63925 -0.0004375 L 206.63925 183.7105 L 196.557219 183.7105 Z M 209.158781 -0.0004375 L 219.236906 -0.0004375 L 219.236906 186.909719 L 209.158781 186.909719 Z M 221.756438 -0.0004375 L 231.838469 -0.0004375 L 231.838469 189.92925 L 221.756438 189.92925 Z M 234.358 -0.0004375 L 244.436125 -0.0004375 L 244.436125 192.788625 L 234.358 192.788625 Z M 246.955656 -0.0004375 L 257.037688 -0.0004375 L 257.037688 195.503469 L 246.955656 195.503469 Z M 259.557219 -0.0004375 L 269.635344 -0.0004375 L 269.635344 198.093312 L 259.557219 198.093312 Z M 272.158781 -0.0004375 L 282.236906 -0.0004375 L 282.236906 200.562062 L 272.158781 200.562062 Z M 284.756438 -0.0004375 L 294.838469 -0.0004375 L 294.838469 202.925344 L 284.756438 202.925344 Z M 297.358 -0.0004375 L 307.436125 -0.0004375 L 307.436125 205.190969 L 297.358 205.190969 Z M 309.955656 -0.0004375 L 320.037688 -0.0004375 L 320.037688 207.362844 L 309.955656 207.362844 Z M 322.557219 -0.0004375 L 332.635344 -0.0004375 L 332.635344 209.452687 L 322.557219 209.452687 Z M 335.154875 -0.0004375 L 345.236906 -0.0004375 L 345.236906 211.468312 L 335.154875 211.468312 Z M 347.756438 -0.0004375 L 357.834563 -0.0004375 L 357.834563 213.409719 L 347.756438 213.409719 Z M 360.354094 -0.0004375 L 370.436125 -0.0004375 L 370.436125 215.280812 L 360.354094 215.280812 Z M 372.955656 -0.0004375 L 383.033781 -0.0004375 L 383.033781 217.093312 L 372.955656 217.093312 Z M 385.557219 -0.0004375 L 395.635344 -0.0004375 L 395.635344 218.843312 L 385.557219 218.843312 Z M 398.154875 -0.0004375 L 408.236906 -0.0004375 L 408.236906 220.542531 L 398.154875 220.542531 Z M 410.756438 -0.0004375 L 420.834563 -0.0004375 L 420.834563 222.190969 L 410.756438 222.190969 Z M 423.354094 -0.0004375 L 433.436125 -0.0004375 L 433.436125 223.788625 L 423.354094 223.788625 Z M 435.955656 -0.0004375 L 446.033781 -0.0004375 L 446.033781 225.343312 L 435.955656 225.343312 Z M 448.553313 -0.0004375 L 458.635344 -0.0004375 L 458.635344 226.851125 L 448.553313 226.851125 Z M 461.154875 -0.0004375 L 471.233 -0.0004375 L 471.233 228.319875 L 461.154875 228.319875 Z M 473.756438 -0.0004375 L 483.834563 -0.0004375 L 483.834563 229.749562 L 473.756438 229.749562 Z M 486.354094 -0.0004375 L 496.436125 -0.0004375 L 496.436125 231.144094 L 486.354094 231.144094 Z M 498.955656 -0.0004375 L 509.033781 -0.0004375 L 509.033781 232.503469 L 498.955656 232.503469 Z M 511.553313 -0.0004375 L 521.635344 -0.0004375 L 521.635344 233.827687 L 511.553313 233.827687 Z M 524.154875 -0.0004375 L 534.233 -0.0004375 L 534.233 235.120656 L 524.154875 235.120656 Z M 536.752531 -0.0004375 L 546.834562 -0.0004375 L 546.834562 236.386281 L 536.752531 236.386281 Z M 549.354094 -0.0004375 L 559.432219 -0.0004375 L 559.432219 237.620656 L 549.354094 237.620656 Z M 561.95175 -0.0004375 L 572.033781 -0.0004375 L 572.033781 238.827687 L 561.95175 238.827687 Z M 574.553312 -0.0004375 L 584.631437 -0.0004375 L 584.631437 240.007375 L 574.553312 240.007375 Z M 587.154875 -0.0004375 L 597.233 -0.0004375 L 597.233 241.167531 L 587.154875 241.167531 Z M 599.752531 -0.0004375 L 609.834562 -0.0004375 L 609.834562 242.296437 L 599.752531 242.296437 Z M 612.354094 -0.0004375 L 622.432219 -0.0004375 L 622.432219 243.405812 L 612.354094 243.405812 Z M 624.95175 -0.0004375 L 635.033781 -0.0004375 L 635.033781 244.49175 L 624.95175 244.49175 Z M 624.95175 -0.0004375 " transform="matrix(1, 0, 0, -1, 67.267, 298.148)"/>
</g>
<g clip-path="url(#clip-2)">
<path fill="none" stroke-width="0.3985" stroke-linecap="butt" stroke-linejoin="miter" stroke="rgb(0%, 0%, 0%)" stroke-opacity="1" stroke-miterlimit="10" d="M 12.600188 -0.0004375 C 12.600188 -0.0004375 17.104094 16.659719 18.834563 21.847219 C 20.565031 27.034719 23.342375 33.550344 25.072844 37.382375 C 26.803313 41.214406 29.57675 46.413625 31.307219 49.4605 C 33.037688 52.507375 35.815031 56.800344 37.5455 59.327687 C 39.275969 61.855031 42.049406 65.515187 43.779875 67.675344 C 45.510344 69.839406 48.287688 73.019094 50.018156 74.909719 C 51.748625 76.800344 54.522063 79.624562 56.252531 81.30425 C 57.983 82.983937 60.760344 85.507375 62.490813 87.015187 C 64.221281 88.526906 66.994719 90.812062 68.725188 92.183156 C 70.455656 93.55425 73.233 95.648 74.963469 96.905812 C 76.693938 98.163625 79.467375 100.089406 81.197844 101.249562 C 82.928313 102.409719 85.705656 104.187062 87.436125 105.265187 C 89.166594 106.339406 91.940031 107.999562 93.6705 109.003469 C 95.400969 110.011281 98.178313 111.565969 99.908781 112.507375 C 101.63925 113.452687 104.412688 114.917531 106.143156 115.80425 C 107.873625 116.694875 110.650969 118.069875 112.381438 118.905812 C 114.111906 119.745656 116.885344 121.050344 118.615813 121.843312 C 120.346281 122.636281 123.123625 123.874562 124.854094 124.628469 C 126.584563 125.382375 129.358 126.558156 131.088469 127.276906 C 132.818938 127.995656 135.596281 129.11675 137.32675 129.800344 C 139.057219 130.487844 141.830656 131.558156 143.561125 132.214406 C 145.291594 132.870656 148.068938 133.898 149.799406 134.526906 C 151.529875 135.155812 154.303313 136.140187 156.033781 136.74175 C 157.76425 137.343312 160.541594 138.292531 162.272063 138.870656 C 164.002531 139.452687 166.775969 140.362844 168.506438 140.921437 C 170.236906 141.476125 173.01425 142.358937 174.744719 142.898 C 176.475188 143.433156 179.248625 144.280812 180.979094 144.800344 C 182.709563 145.319875 185.486906 146.136281 187.217375 146.640187 C 188.947844 147.140187 191.721281 147.933156 193.45175 148.421437 C 195.182219 148.905812 197.959563 149.675344 199.690031 150.148 C 201.4205 150.61675 204.193938 151.358937 205.924406 151.815969 C 207.654875 152.273 210.432219 152.995656 212.162688 153.437062 C 213.893156 153.882375 216.666594 154.577687 218.397063 155.007375 C 220.127531 155.440969 222.904875 156.124562 224.635344 156.542531 C 226.365813 156.9605 229.13925 157.620656 230.869719 158.026906 C 232.600188 158.433156 235.377531 159.073781 237.108 159.468312 C 238.838469 159.862844 241.611906 160.495656 243.342375 160.882375 C 245.072844 161.269094 247.850188 161.878469 249.580656 162.257375 C 251.311125 162.636281 254.084563 163.237844 255.815031 163.605031 C 257.5455 163.976125 260.322844 164.558156 262.053313 164.917531 C 263.783781 165.276906 266.557219 165.843312 268.287688 166.194875 C 270.018156 166.542531 272.7955 167.097219 274.525969 167.440969 C 276.256438 167.784719 279.029875 168.327687 280.760344 168.663625 C 282.490813 168.999562 285.268156 169.530812 286.998625 169.855031 C 288.729094 170.183156 291.502531 170.706594 293.233 171.026906 C 294.963469 171.347219 297.740813 171.855031 299.471281 172.167531 C 301.20175 172.483937 303.975188 172.983937 305.705656 173.288625 C 307.436125 173.597219 310.213469 174.0855 311.943938 174.386281 C 313.674406 174.687062 316.447844 175.167531 318.178313 175.4605 C 319.908781 175.757375 322.686125 176.226125 324.416594 176.515187 C 326.147063 176.80425 328.9205 177.265187 330.650969 177.550344 C 332.381438 177.8355 335.154875 178.288625 336.88925 178.565969 C 338.619719 178.847219 341.393156 179.288625 343.123625 179.562062 C 344.854094 179.8355 347.627531 180.273 349.358 180.542531 C 351.092375 180.808156 353.865813 181.237844 355.596281 181.503469 C 357.32675 181.765187 360.100188 182.187062 361.830656 182.448781 C 363.565031 182.706594 366.338469 183.120656 368.068938 183.374562 C 369.799406 183.632375 372.572844 184.038625 374.303313 184.288625 C 376.033781 184.538625 378.811125 184.940969 380.541594 185.187062 C 382.272063 185.433156 385.0455 185.827687 386.775969 186.069875 C 388.506438 186.312062 391.283781 186.698781 393.01425 186.937062 C 394.744719 187.175344 397.518156 187.558156 399.248625 187.792531 C 400.979094 188.030812 403.756438 188.405812 405.486906 188.636281 C 407.217375 188.86675 409.990813 189.237844 411.721281 189.468312 C 413.45175 189.694875 416.229094 190.05425 417.959563 190.276906 C 419.690031 190.503469 422.463469 190.862844 424.193938 191.0855 C 425.924406 191.308156 428.70175 191.659719 430.432219 191.878469 C 432.162688 192.097219 434.936125 192.448781 436.666594 192.663625 C 438.397063 192.878469 441.174406 193.218312 442.904875 193.42925 C 444.635344 193.640187 447.408781 193.983937 449.13925 194.190969 C 450.869719 194.401906 453.647063 194.733937 455.377531 194.940969 C 457.108 195.148 459.881438 195.480031 461.611906 195.683156 C 463.342375 195.886281 466.119719 196.206594 467.850188 196.405812 C 469.580656 196.605031 472.354094 196.925344 474.084563 197.124562 C 475.815031 197.323781 478.592375 197.640187 480.322844 197.8355 C 482.053313 198.030812 484.82675 198.339406 486.557219 198.530812 C 488.287688 198.722219 491.065031 199.030812 492.7955 199.222219 C 494.525969 199.413625 497.299406 199.722219 499.029875 199.909719 C 500.760344 200.101125 503.537688 200.405812 505.268156 200.593312 C 506.998625 200.780812 509.772063 201.073781 511.502531 201.257375 C 513.233 201.440969 516.010344 201.733937 517.740812 201.917531 C 519.471281 202.097219 522.244719 202.390187 523.975187 202.569875 C 525.705656 202.745656 528.483 203.034719 530.213469 203.2105 C 531.943937 203.390187 534.717375 203.671437 536.447844 203.847219 C 538.178312 204.023 540.955656 204.300344 542.686125 204.476125 C 544.416594 204.648 547.190031 204.925344 548.9205 205.097219 C 550.650969 205.269094 553.428312 205.542531 555.158781 205.7105 C 556.88925 205.878469 559.662687 206.151906 561.393156 206.315969 C 563.123625 206.483937 565.900969 206.749562 567.631437 206.917531 C 569.361906 207.081594 572.135344 207.347219 573.865812 207.511281 C 575.596281 207.675344 578.373625 207.937062 580.104094 208.097219 C 581.834562 208.261281 584.608 208.519094 586.338469 208.67925 C 588.068937 208.839406 590.846281 209.097219 592.57675 209.253469 C 594.307219 209.413625 597.080656 209.667531 598.811125 209.823781 C 600.541594 209.980031 603.318937 210.230031 605.049406 210.386281 C 606.779875 210.542531 609.553312 210.788625 611.283781 210.944875 C 613.01425 211.097219 615.791594 211.343312 617.522062 211.495656 C 619.252531 211.648 622.025969 211.890187 623.756437 212.042531 C 625.486906 212.190969 629.994719 212.581594 629.994719 212.581594 " transform="matrix(1, 0, 0, -1, 67.267, 298.148)"/>
</g>
<g fill="rgb(0%, 0%, 0%)" fill-opacity="1">
<use xlink:href="#glyph-1-1" x="385.569" y="319.218"/>
</g>
<g fill="rgb(0%, 0%, 0%)" fill-opacity="1">
<use xlink:href="#glyph-2-0" x="42.24" y="151.333"/>
</g>
<path fill-rule="nonzero" fill="rgb(100%, 100%, 100%)" fill-opacity="1" stroke-width="0.3985" stroke-linecap="butt" stroke-linejoin="miter" stroke="rgb(0%, 0%, 0%)" stroke-opacity="1" stroke-miterlimit="10" d="M 19.475188 258.878469 L 110.783781 258.878469 L 110.783781 289.7105 L 19.475188 289.7105 Z M 19.475188 258.878469 " transform="matrix(1, 0, 0, -1, 67.267, 298.148)"/>
<path fill="none" stroke-width="0.3985" stroke-linecap="butt" stroke-linejoin="miter" stroke="rgb(0%, 0%, 0%)" stroke-opacity="1" stroke-miterlimit="10" d="M -1.495312 -0.0008125 L 1.492969 -0.0008125 Z M 7.008594 -0.0008125 L 9.996875 -0.0008125 Z M 15.5125 -0.0008125 L 18.500781 -0.0008125 Z M 15.5125 -0.0008125 " transform="matrix(1, 0, 0, -1, 91.425, 17.382)"/>
<g fill="rgb(0%, 0%, 0%)" fill-opacity="1">
<use xlink:href="#glyph-1-2" x="112.12" y="20.843"/>
</g>
<g fill="rgb(0%, 0%, 0%)" fill-opacity="1">
<use xlink:href="#glyph-3-0" x="120.401" y="22.338"/>
</g>
<g fill="rgb(0%, 0%, 0%)" fill-opacity="1">
<use xlink:href="#glyph-0-8" x="128.591" y="20.843"/>
</g>
<g fill="rgb(0%, 0%, 0%)" fill-opacity="1">
<use xlink:href="#glyph-4-0" x="139.108" y="13.371"/>
</g>
<g fill="rgb(0%, 0%, 0%)" fill-opacity="1">
<use xlink:href="#glyph-3-0" x="149.624" y="15.834"/>
</g>
<g fill="rgb(0%, 0%, 0%)" fill-opacity="1">
<use xlink:href="#glyph-3-1" x="149.624" y="23.832"/>
</g>
<g fill="rgb(0%, 0%, 0%)" fill-opacity="1">
<use xlink:href="#glyph-5-0" x="154.02656" y="23.832"/>
<use xlink:href="#glyph-5-1" x="160.142583" y="23.832"/>
</g>
<g fill="rgb(0%, 0%, 0%)" fill-opacity="1">
<use xlink:href="#glyph-5-1" x="167.685" y="16.921"/>
</g>
<path fill="none" stroke-width="0.398" stroke-linecap="butt" stroke-linejoin="miter" stroke="rgb(0%, 0%, 0%)" stroke-opacity="1" stroke-miterlimit="10" d="M -0.00025 0.0014375 L 4.402094 0.0014375 " transform="matrix(1, 0, 0, -1, 167.469, 18.353)"/>
<g fill="rgb(0%, 0%, 0%)" fill-opacity="1">
<use xlink:href="#glyph-3-1" x="167.469" y="24.279"/>
</g>
<path fill="none" stroke-width="0.3985" stroke-linecap="butt" stroke-linejoin="miter" stroke="rgb(0%, 0%, 0%)" stroke-opacity="1" stroke-miterlimit="10" d="M -0.00021875 0.0013125 C -0.00021875 0.0013125 6.144313 0.0013125 8.503688 0.0013125 C 10.863063 0.0013125 17.007594 0.0013125 17.007594 0.0013125 " transform="matrix(1, 0, 0, -1, 91.426, 30.806)"/>
<g fill="rgb(0%, 0%, 0%)" fill-opacity="1">
<use xlink:href="#glyph-0-9" x="131.578" y="33.795"/>
<use xlink:href="#glyph-0-10" x="134.34561" y="33.795"/>
<use xlink:href="#glyph-0-11" x="139.880831" y="33.795"/>
</g>
<g fill="rgb(0%, 0%, 0%)" fill-opacity="1">
<use xlink:href="#glyph-1-1" x="143.755286" y="33.795"/>
</g>
<g fill="rgb(0%, 0%, 0%)" fill-opacity="1">
<use xlink:href="#glyph-0-12" x="149.734839" y="33.795"/>
</g>
</svg>
