<?xml version="1.0" encoding="UTF-8"?>
<svg xmlns="http://www.w3.org/2000/svg" xmlns:xlink="http://www.w3.org/1999/xlink" width="683.612pt" height="355.057pt" viewBox="0 0 683.612 355.057">
<defs>
<g>
<g id="glyph-0-0">
<path d="M 4.578125 -3.1875 C 4.578125 -3.984375 4.53125 -4.78125 4.1875 -5.515625 C 3.734375 -6.484375 2.90625 -6.640625 2.5 -6.640625 C 1.890625 -6.640625 1.171875 -6.375 0.75 -5.453125 C 0.4375 -4.765625 0.390625 -3.984375 0.390625 -3.1875 C 0.390625 -2.4375 0.421875 -1.546875 0.84375 -0.78125 C 1.265625 0.015625 2 0.21875 2.484375 0.21875 C 3.015625 0.21875 3.78125 0.015625 4.21875 -0.9375 C 4.53125 -1.625 4.578125 -2.40625 4.578125 -3.1875 Z M 2.484375 0 C 2.09375 0 1.5 -0.25 1.328125 -1.203125 C 1.21875 -1.796875 1.21875 -2.71875 1.21875 -3.3125 C 1.21875 -3.953125 1.21875 -4.609375 1.296875 -5.140625 C 1.484375 -6.328125 2.234375 -6.421875 2.484375 -6.421875 C 2.8125 -6.421875 3.46875 -6.234375 3.65625 -5.25 C 3.765625 -4.6875 3.765625 -3.9375 3.765625 -3.3125 C 3.765625 -2.5625 3.765625 -1.890625 3.65625 -1.25 C 3.5 -0.296875 2.9375 0 2.484375 0 Z M 2.484375 0 "/>
</g>
<g id="glyph-0-1">
<path d="M 1.265625 -0.765625 L 2.328125 -1.796875 C 3.875 -3.171875 4.46875 -3.703125 4.46875 -4.703125 C 4.46875 -5.84375 3.578125 -6.640625 2.359375 -6.640625 C 1.234375 -6.640625 0.5 -5.71875 0.5 -4.828125 C 0.5 -4.28125 1 -4.28125 1.03125 -4.28125 C 1.203125 -4.28125 1.546875 -4.390625 1.546875 -4.8125 C 1.546875 -5.0625 1.359375 -5.328125 1.015625 -5.328125 C 0.9375 -5.328125 0.921875 -5.328125 0.890625 -5.3125 C 1.109375 -5.96875 1.65625 -6.328125 2.234375 -6.328125 C 3.140625 -6.328125 3.5625 -5.515625 3.5625 -4.703125 C 3.5625 -3.90625 3.078125 -3.125 2.515625 -2.5 L 0.609375 -0.375 C 0.5 -0.265625 0.5 -0.234375 0.5 0 L 4.203125 0 L 4.46875 -1.734375 L 4.234375 -1.734375 C 4.171875 -1.4375 4.109375 -1 4 -0.84375 C 3.9375 -0.765625 3.28125 -0.765625 3.0625 -0.765625 Z M 1.265625 -0.765625 "/>
</g>
<g id="glyph-0-2">
<path d="M 2.9375 -1.640625 L 2.9375 -0.78125 C 2.9375 -0.421875 2.90625 -0.3125 2.171875 -0.3125 L 1.96875 -0.3125 L 1.96875 0 C 2.375 -0.03125 2.890625 -0.03125 3.3125 -0.03125 C 3.734375 -0.03125 4.25 -0.03125 4.671875 0 L 4.671875 -0.3125 L 4.453125 -0.3125 C 3.71875 -0.3125 3.703125 -0.421875 3.703125 -0.78125 L 3.703125 -1.640625 L 4.6875 -1.640625 L 4.6875 -1.953125 L 3.703125 -1.953125 L 3.703125 -6.484375 C 3.703125 -6.6875 3.703125 -6.75 3.53125 -6.75 C 3.453125 -6.75 3.421875 -6.75 3.34375 -6.625 L 0.28125 -1.953125 L 0.28125 -1.640625 Z M 2.984375 -1.953125 L 0.5625 -1.953125 L 2.984375 -5.671875 Z M 2.984375 -1.953125 "/>
</g>
<g id="glyph-0-3">
<path d="M 1.3125 -3.265625 L 1.3125 -3.515625 C 1.3125 -6.03125 2.546875 -6.390625 3.0625 -6.390625 C 3.296875 -6.390625 3.71875 -6.328125 3.9375 -5.984375 C 3.78125 -5.984375 3.390625 -5.984375 3.390625 -5.546875 C 3.390625 -5.234375 3.625 -5.078125 3.84375 -5.078125 C 4 -5.078125 4.3125 -5.171875 4.3125 -5.5625 C 4.3125 -6.15625 3.875 -6.640625 3.046875 -6.640625 C 1.765625 -6.640625 0.421875 -5.359375 0.421875 -3.15625 C 0.421875 -0.484375 1.578125 0.21875 2.5 0.21875 C 3.609375 0.21875 4.5625 -0.71875 4.5625 -2.03125 C 4.5625 -3.296875 3.671875 -4.25 2.5625 -4.25 C 1.890625 -4.25 1.515625 -3.75 1.3125 -3.265625 Z M 2.5 -0.0625 C 1.875 -0.0625 1.578125 -0.65625 1.515625 -0.8125 C 1.328125 -1.28125 1.328125 -2.078125 1.328125 -2.25 C 1.328125 -3.03125 1.65625 -4.03125 2.546875 -4.03125 C 2.71875 -4.03125 3.171875 -4.03125 3.484375 -3.40625 C 3.65625 -3.046875 3.65625 -2.53125 3.65625 -2.046875 C 3.65625 -1.5625 3.65625 -1.0625 3.484375 -0.703125 C 3.1875 -0.109375 2.734375 -0.0625 2.5 -0.0625 Z M 2.5 -0.0625 "/>
</g>
<g id="glyph-0-4">
<path d="M 1.625 -4.5625 C 1.171875 -4.859375 1.125 -5.1875 1.125 -5.359375 C 1.125 -5.96875 1.78125 -6.390625 2.484375 -6.390625 C 3.203125 -6.390625 3.84375 -5.875 3.84375 -5.15625 C 3.84375 -4.578125 3.453125 -4.109375 2.859375 -3.765625 Z M 3.078125 -3.609375 C 3.796875 -3.984375 4.28125 -4.5 4.28125 -5.15625 C 4.28125 -6.078125 3.40625 -6.640625 2.5 -6.640625 C 1.5 -6.640625 0.6875 -5.90625 0.6875 -4.96875 C 0.6875 -4.796875 0.703125 -4.34375 1.125 -3.875 C 1.234375 -3.765625 1.609375 -3.515625 1.859375 -3.34375 C 1.28125 -3.046875 0.421875 -2.5 0.421875 -1.5 C 0.421875 -0.453125 1.4375 0.21875 2.484375 0.21875 C 3.609375 0.21875 4.5625 -0.609375 4.5625 -1.671875 C 4.5625 -2.03125 4.453125 -2.484375 4.0625 -2.90625 C 3.875 -3.109375 3.71875 -3.203125 3.078125 -3.609375 Z M 2.078125 -3.1875 L 3.3125 -2.40625 C 3.59375 -2.21875 4.0625 -1.921875 4.0625 -1.3125 C 4.0625 -0.578125 3.3125 -0.0625 2.5 -0.0625 C 1.640625 -0.0625 0.921875 -0.671875 0.921875 -1.5 C 0.921875 -2.078125 1.234375 -2.71875 2.078125 -3.1875 Z M 2.078125 -3.1875 "/>
</g>
<g id="glyph-0-5">
<path d="M 2.9375 -6.375 C 2.9375 -6.625 2.9375 -6.640625 2.703125 -6.640625 C 2.078125 -6 1.203125 -6 0.890625 -6 L 0.890625 -5.6875 C 1.09375 -5.6875 1.671875 -5.6875 2.1875 -5.953125 L 2.1875 -0.78125 C 2.1875 -0.421875 2.15625 -0.3125 1.265625 -0.3125 L 0.953125 -0.3125 L 0.953125 0 C 1.296875 -0.03125 2.15625 -0.03125 2.5625 -0.03125 C 2.953125 -0.03125 3.828125 -0.03125 4.171875 0 L 4.171875 -0.3125 L 3.859375 -0.3125 C 2.953125 -0.3125 2.9375 -0.421875 2.9375 -0.78125 Z M 2.9375 -6.375 "/>
</g>
<g id="glyph-0-6">
<path d="M 2.890625 -3.515625 C 3.703125 -3.78125 4.28125 -4.46875 4.28125 -5.265625 C 4.28125 -6.078125 3.40625 -6.640625 2.453125 -6.640625 C 1.453125 -6.640625 0.6875 -6.046875 0.6875 -5.28125 C 0.6875 -4.953125 0.90625 -4.765625 1.203125 -4.765625 C 1.5 -4.765625 1.703125 -4.984375 1.703125 -5.28125 C 1.703125 -5.765625 1.234375 -5.765625 1.09375 -5.765625 C 1.390625 -6.265625 2.046875 -6.390625 2.40625 -6.390625 C 2.828125 -6.390625 3.375 -6.171875 3.375 -5.28125 C 3.375 -5.15625 3.34375 -4.578125 3.09375 -4.140625 C 2.796875 -3.65625 2.453125 -3.625 2.203125 -3.625 C 2.125 -3.609375 1.890625 -3.59375 1.8125 -3.59375 C 1.734375 -3.578125 1.671875 -3.5625 1.671875 -3.46875 C 1.671875 -3.359375 1.734375 -3.359375 1.90625 -3.359375 L 2.34375 -3.359375 C 3.15625 -3.359375 3.53125 -2.6875 3.53125 -1.703125 C 3.53125 -0.34375 2.84375 -0.0625 2.40625 -0.0625 C 1.96875 -0.0625 1.21875 -0.234375 0.875 -0.8125 C 1.21875 -0.765625 1.53125 -0.984375 1.53125 -1.359375 C 1.53125 -1.71875 1.265625 -1.921875 0.984375 -1.921875 C 0.734375 -1.921875 0.421875 -1.78125 0.421875 -1.34375 C 0.421875 -0.4375 1.34375 0.21875 2.4375 0.21875 C 3.65625 0.21875 4.5625 -0.6875 4.5625 -1.703125 C 4.5625 -2.515625 3.921875 -3.296875 2.890625 -3.515625 Z M 2.890625 -3.515625 "/>
</g>
<g id="glyph-0-7">
<path d="M 4.46875 -2 C 4.46875 -3.1875 3.65625 -4.1875 2.578125 -4.1875 C 2.109375 -4.1875 1.671875 -4.03125 1.3125 -3.671875 L 1.3125 -5.625 C 1.515625 -5.5625 1.84375 -5.5 2.15625 -5.5 C 3.390625 -5.5 4.09375 -6.40625 4.09375 -6.53125 C 4.09375 -6.59375 4.0625 -6.640625 3.984375 -6.640625 C 3.984375 -6.640625 3.953125 -6.640625 3.90625 -6.609375 C 3.703125 -6.515625 3.21875 -6.3125 2.546875 -6.3125 C 2.15625 -6.3125 1.6875 -6.390625 1.21875 -6.59375 C 1.140625 -6.625 1.125 -6.625 1.109375 -6.625 C 1 -6.625 1 -6.546875 1 -6.390625 L 1 -3.4375 C 1 -3.265625 1 -3.1875 1.140625 -3.1875 C 1.21875 -3.1875 1.234375 -3.203125 1.28125 -3.265625 C 1.390625 -3.421875 1.75 -3.96875 2.5625 -3.96875 C 3.078125 -3.96875 3.328125 -3.515625 3.40625 -3.328125 C 3.5625 -2.953125 3.59375 -2.578125 3.59375 -2.078125 C 3.59375 -1.71875 3.59375 -1.125 3.34375 -0.703125 C 3.109375 -0.3125 2.734375 -0.0625 2.28125 -0.0625 C 1.5625 -0.0625 0.984375 -0.59375 0.8125 -1.171875 C 0.84375 -1.171875 0.875 -1.15625 0.984375 -1.15625 C 1.3125 -1.15625 1.484375 -1.40625 1.484375 -1.640625 C 1.484375 -1.890625 1.3125 -2.140625 0.984375 -2.140625 C 0.84375 -2.140625 0.5 -2.0625 0.5 -1.609375 C 0.5 -0.75 1.1875 0.21875 2.296875 0.21875 C 3.453125 0.21875 4.46875 -0.734375 4.46875 -2 Z M 4.46875 -2 "/>
</g>
<g id="glyph-0-8">
<path d="M 6.84375 -3.265625 C 7 -3.265625 7.1875 -3.265625 7.1875 -3.453125 C 7.1875 -3.65625 7 -3.65625 6.859375 -3.65625 L 0.890625 -3.65625 C 0.75 -3.65625 0.5625 -3.65625 0.5625 -3.453125 C 0.5625 -3.265625 0.75 -3.265625 0.890625 -3.265625 Z M 6.859375 -1.328125 C 7 -1.328125 7.1875 -1.328125 7.1875 -1.53125 C 7.1875 -1.71875 7 -1.71875 6.84375 -1.71875 L 0.890625 -1.71875 C 0.75 -1.71875 0.5625 -1.71875 0.5625 -1.53125 C 0.5625 -1.328125 0.75 -1.328125 0.890625 -1.328125 Z M 6.859375 -1.328125 "/>
</g>
<g id="glyph-0-9">
<path d="M 1.765625 -6.921875 L 0.328125 -6.8125 L 0.328125 -6.5 C 1.03125 -6.5 1.109375 -6.4375 1.109375 -5.9375 L 1.109375 -0.75 C 1.109375 -0.3125 1 -0.3125 0.328125 -0.3125 L 0.328125 0 C 0.65625 -0.015625 1.1875 -0.03125 1.4375 -0.03125 C 1.6875 -0.03125 2.171875 -0.015625 2.546875 0 L 2.546875 -0.3125 C 1.875 -0.3125 1.765625 -0.3125 1.765625 -0.75 Z M 1.765625 -6.921875 "/>
</g>
<g id="glyph-0-10">
<path d="M 1.09375 -3.421875 L 1.09375 -0.75 C 1.09375 -0.3125 0.984375 -0.3125 0.3125 -0.3125 L 0.3125 0 C 0.671875 -0.015625 1.171875 -0.03125 1.453125 -0.03125 C 1.703125 -0.03125 2.21875 -0.015625 2.5625 0 L 2.5625 -0.3125 C 1.890625 -0.3125 1.78125 -0.3125 1.78125 -0.75 L 1.78125 -2.59375 C 1.78125 -3.625 2.5 -4.1875 3.125 -4.1875 C 3.765625 -4.1875 3.875 -3.65625 3.875 -3.078125 L 3.875 -0.75 C 3.875 -0.3125 3.765625 -0.3125 3.09375 -0.3125 L 3.09375 0 C 3.4375 -0.015625 3.953125 -0.03125 4.21875 -0.03125 C 4.46875 -0.03125 5 -0.015625 5.328125 0 L 5.328125 -0.3125 C 4.8125 -0.3125 4.5625 -0.3125 4.5625 -0.609375 L 4.5625 -2.515625 C 4.5625 -3.375 4.5625 -3.671875 4.25 -4.03125 C 4.109375 -4.203125 3.78125 -4.40625 3.203125 -4.40625 C 2.46875 -4.40625 2 -3.984375 1.71875 -3.359375 L 1.71875 -4.40625 L 0.3125 -4.296875 L 0.3125 -3.984375 C 1.015625 -3.984375 1.09375 -3.921875 1.09375 -3.421875 Z M 1.09375 -3.421875 "/>
</g>
<g id="glyph-0-11">
<path d="M 3.296875 2.390625 C 3.296875 2.359375 3.296875 2.34375 3.125 2.171875 C 1.890625 0.921875 1.5625 -0.96875 1.5625 -2.5 C 1.5625 -4.234375 1.9375 -5.96875 3.171875 -7.203125 C 3.296875 -7.328125 3.296875 -7.34375 3.296875 -7.375 C 3.296875 -7.453125 3.265625 -7.484375 3.203125 -7.484375 C 3.09375 -7.484375 2.203125 -6.796875 1.609375 -5.53125 C 1.109375 -4.4375 0.984375 -3.328125 0.984375 -2.5 C 0.984375 -1.71875 1.09375 -0.515625 1.640625 0.625 C 2.25 1.84375 3.09375 2.5 3.203125 2.5 C 3.265625 2.5 3.296875 2.46875 3.296875 2.390625 Z M 3.296875 2.390625 "/>
</g>
<g id="glyph-0-12">
<path d="M 2.875 -2.5 C 2.875 -3.265625 2.765625 -4.46875 2.21875 -5.609375 C 1.625 -6.828125 0.765625 -7.484375 0.671875 -7.484375 C 0.609375 -7.484375 0.5625 -7.4375 0.5625 -7.375 C 0.5625 -7.34375 0.5625 -7.328125 0.75 -7.140625 C 1.734375 -6.15625 2.296875 -4.578125 2.296875 -2.5 C 2.296875 -0.78125 1.9375 0.96875 0.703125 2.21875 C 0.5625 2.34375 0.5625 2.359375 0.5625 2.390625 C 0.5625 2.453125 0.609375 2.5 0.671875 2.5 C 0.765625 2.5 1.671875 1.8125 2.25 0.546875 C 2.765625 -0.546875 2.875 -1.65625 2.875 -2.5 Z M 2.875 -2.5 "/>
</g>
<g id="glyph-1-0">
<path d="M 1.90625 -0.53125 C 1.90625 -0.8125 1.671875 -1.0625 1.390625 -1.0625 C 1.09375 -1.0625 0.859375 -0.8125 0.859375 -0.53125 C 0.859375 -0.234375 1.09375 0 1.390625 0 C 1.671875 0 1.90625 -0.234375 1.90625 -0.53125 Z M 1.90625 -0.53125 "/>
</g>
<g id="glyph-1-1">
<path d="M 7.609375 -6.046875 C 7.703125 -6.40625 7.71875 -6.5 8.4375 -6.5 C 8.703125 -6.5 8.78125 -6.5 8.78125 -6.703125 C 8.78125 -6.8125 8.671875 -6.8125 8.640625 -6.8125 C 8.359375 -6.8125 7.640625 -6.78125 7.359375 -6.78125 C 7.078125 -6.78125 6.375 -6.8125 6.078125 -6.8125 C 6 -6.8125 5.890625 -6.8125 5.890625 -6.609375 C 5.890625 -6.5 5.984375 -6.5 6.171875 -6.5 C 6.1875 -6.5 6.375 -6.5 6.546875 -6.484375 C 6.734375 -6.453125 6.8125 -6.453125 6.8125 -6.3125 C 6.8125 -6.28125 6.8125 -6.265625 6.78125 -6.125 L 6.1875 -3.703125 L 3.140625 -3.703125 L 3.734375 -6.046875 C 3.8125 -6.40625 3.84375 -6.5 4.5625 -6.5 C 4.828125 -6.5 4.90625 -6.5 4.90625 -6.703125 C 4.90625 -6.8125 4.796875 -6.8125 4.765625 -6.8125 C 4.484375 -6.8125 3.765625 -6.78125 3.484375 -6.78125 C 3.203125 -6.78125 2.5 -6.8125 2.203125 -6.8125 C 2.125 -6.8125 2.015625 -6.8125 2.015625 -6.609375 C 2.015625 -6.5 2.109375 -6.5 2.296875 -6.5 C 2.3125 -6.5 2.5 -6.5 2.671875 -6.484375 C 2.84375 -6.453125 2.9375 -6.453125 2.9375 -6.3125 C 2.9375 -6.28125 2.9375 -6.25 2.90625 -6.125 L 1.5625 -0.78125 C 1.46875 -0.390625 1.453125 -0.3125 0.65625 -0.3125 C 0.484375 -0.3125 0.390625 -0.3125 0.390625 -0.109375 C 0.390625 0 0.515625 0 0.53125 0 C 0.8125 0 1.515625 -0.03125 1.796875 -0.03125 C 2 -0.03125 2.21875 -0.015625 2.4375 -0.015625 C 2.65625 -0.015625 2.875 0 3.078125 0 C 3.15625 0 3.28125 0 3.28125 -0.203125 C 3.28125 -0.3125 3.1875 -0.3125 3 -0.3125 C 2.625 -0.3125 2.359375 -0.3125 2.359375 -0.484375 C 2.359375 -0.546875 2.375 -0.59375 2.375 -0.65625 L 3.0625 -3.390625 L 6.09375 -3.390625 C 5.6875 -1.734375 5.453125 -0.78125 5.40625 -0.640625 C 5.3125 -0.3125 5.125 -0.3125 4.5 -0.3125 C 4.359375 -0.3125 4.265625 -0.3125 4.265625 -0.109375 C 4.265625 0 4.390625 0 4.40625 0 C 4.6875 0 5.390625 -0.03125 5.671875 -0.03125 C 5.875 -0.03125 6.09375 -0.015625 6.3125 -0.015625 C 6.53125 -0.015625 6.75 0 6.953125 0 C 7.03125 0 7.15625 0 7.15625 -0.203125 C 7.15625 -0.3125 7.0625 -0.3125 6.875 -0.3125 C 6.515625 -0.3125 6.234375 -0.3125 6.234375 -0.484375 C 6.234375 -0.546875 6.25 -0.59375 6.265625 -0.65625 Z M 7.609375 -6.046875 "/>
</g>
<g id="glyph-1-2">
<path d="M 0.875 -0.59375 C 0.84375 -0.4375 0.78125 -0.203125 0.78125 -0.15625 C 0.78125 0.015625 0.921875 0.109375 1.078125 0.109375 C 1.203125 0.109375 1.375 0.03125 1.453125 -0.171875 C 1.453125 -0.1875 1.578125 -0.65625 1.640625 -0.90625 L 1.859375 -1.796875 C 1.90625 -2.03125 1.96875 -2.25 2.03125 -2.46875 C 2.0625 -2.640625 2.140625 -2.9375 2.15625 -2.96875 C 2.296875 -3.28125 2.828125 -4.1875 3.78125 -4.1875 C 4.234375 -4.1875 4.3125 -3.8125 4.3125 -3.484375 C 4.3125 -2.875 3.828125 -1.59375 3.671875 -1.171875 C 3.578125 -0.9375 3.5625 -0.8125 3.5625 -0.703125 C 3.5625 -0.234375 3.921875 0.109375 4.390625 0.109375 C 5.328125 0.109375 5.6875 -1.34375 5.6875 -1.421875 C 5.6875 -1.53125 5.609375 -1.53125 5.578125 -1.53125 C 5.46875 -1.53125 5.46875 -1.5 5.421875 -1.34375 C 5.21875 -0.671875 4.890625 -0.109375 4.40625 -0.109375 C 4.234375 -0.109375 4.171875 -0.203125 4.171875 -0.4375 C 4.171875 -0.6875 4.25 -0.921875 4.34375 -1.140625 C 4.53125 -1.671875 4.953125 -2.765625 4.953125 -3.34375 C 4.953125 -4 4.53125 -4.40625 3.8125 -4.40625 C 2.90625 -4.40625 2.421875 -3.765625 2.25 -3.53125 C 2.203125 -4.09375 1.796875 -4.40625 1.328125 -4.40625 C 0.875 -4.40625 0.6875 -4.015625 0.59375 -3.84375 C 0.421875 -3.5 0.296875 -2.90625 0.296875 -2.875 C 0.296875 -2.765625 0.390625 -2.765625 0.40625 -2.765625 C 0.515625 -2.765625 0.515625 -2.78125 0.578125 -3 C 0.75 -3.703125 0.953125 -4.1875 1.3125 -4.1875 C 1.5 -4.1875 1.609375 -4.0625 1.609375 -3.734375 C 1.609375 -3.515625 1.578125 -3.40625 1.453125 -2.890625 Z M 0.875 -0.59375 "/>
</g>
<g id="glyph-2-0">
<path d="M 1.203125 -3.765625 L 1.203125 -0.828125 C 1.203125 -0.34375 1.078125 -0.34375 0.34375 -0.34375 L 0.34375 0 C 0.734375 -0.015625 1.296875 -0.03125 1.59375 -0.03125 C 1.875 -0.03125 2.4375 -0.015625 2.8125 0 L 2.8125 -0.34375 C 2.078125 -0.34375 1.953125 -0.34375 1.953125 -0.828125 L 1.953125 -2.84375 C 1.953125 -3.984375 2.734375 -4.59375 3.4375 -4.59375 C 4.125 -4.59375 4.25 -4.015625 4.25 -3.390625 L 4.25 -0.828125 C 4.25 -0.34375 4.125 -0.34375 3.390625 -0.34375 L 3.390625 0 C 3.78125 -0.015625 4.34375 -0.03125 4.640625 -0.03125 C 4.921875 -0.03125 5.484375 -0.015625 5.859375 0 L 5.859375 -0.34375 C 5.296875 -0.34375 5.015625 -0.34375 5 -0.671875 L 5 -2.765625 C 5 -3.703125 5 -4.046875 4.671875 -4.4375 C 4.515625 -4.625 4.15625 -4.84375 3.515625 -4.84375 C 2.71875 -4.84375 2.203125 -4.375 1.890625 -3.6875 L 1.890625 -4.84375 L 0.34375 -4.71875 L 0.34375 -4.375 C 1.125 -4.375 1.203125 -4.296875 1.203125 -3.765625 Z M 1.203125 -3.765625 "/>
</g>
<g id="glyph-2-1">
<path d="M 5.15625 -2.34375 C 5.15625 -3.75 4.0625 -4.90625 2.734375 -4.90625 C 1.375 -4.90625 0.3125 -3.71875 0.3125 -2.34375 C 0.3125 -0.9375 1.453125 0.125 2.734375 0.125 C 4.046875 0.125 5.15625 -0.953125 5.15625 -2.34375 Z M 2.734375 -0.15625 C 2.265625 -0.15625 1.78125 -0.390625 1.484375 -0.890625 C 1.21875 -1.375 1.21875 -2.03125 1.21875 -2.4375 C 1.21875 -2.859375 1.21875 -3.453125 1.484375 -3.9375 C 1.78125 -4.4375 2.296875 -4.671875 2.734375 -4.671875 C 3.203125 -4.671875 3.6875 -4.421875 3.96875 -3.953125 C 4.25 -3.484375 4.25 -2.84375 4.25 -2.4375 C 4.25 -2.03125 4.25 -1.453125 4.015625 -0.96875 C 3.765625 -0.46875 3.28125 -0.15625 2.734375 -0.15625 Z M 2.734375 -0.15625 "/>
</g>
<g id="glyph-2-2">
<path d="M 5.6875 -1.453125 L 8.140625 -1.453125 C 8.296875 -1.453125 8.5 -1.453125 8.5 -1.671875 C 8.5 -1.890625 8.296875 -1.890625 8.125 -1.890625 L 5.8125 -1.890625 L 6.25 -3.578125 L 8.125 -3.578125 C 8.296875 -3.578125 8.5 -3.578125 8.5 -3.796875 C 8.5 -4.015625 8.296875 -4.015625 8.140625 -4.015625 L 6.390625 -4.015625 L 7.234375 -7.1875 C 7.25 -7.203125 7.28125 -7.34375 7.28125 -7.375 C 7.28125 -7.5 7.1875 -7.59375 7.0625 -7.59375 C 6.890625 -7.59375 6.859375 -7.453125 6.828125 -7.34375 L 5.9375 -4.015625 L 3.875 -4.015625 L 4.734375 -7.1875 C 4.75 -7.203125 4.78125 -7.34375 4.78125 -7.375 C 4.78125 -7.5 4.671875 -7.59375 4.5625 -7.59375 C 4.375 -7.59375 4.34375 -7.453125 4.3125 -7.34375 L 3.421875 -4.015625 L 0.96875 -4.015625 C 0.828125 -4.015625 0.609375 -4.015625 0.609375 -3.796875 C 0.609375 -3.578125 0.828125 -3.578125 0.984375 -3.578125 L 3.296875 -3.578125 L 2.859375 -1.890625 L 0.984375 -1.890625 C 0.828125 -1.890625 0.609375 -1.890625 0.609375 -1.671875 C 0.609375 -1.453125 0.828125 -1.453125 0.96875 -1.453125 L 2.734375 -1.453125 L 1.875 1.703125 C 1.859375 1.734375 1.828125 1.859375 1.828125 1.90625 C 1.828125 2.03125 1.921875 2.125 2.046875 2.125 C 2.21875 2.125 2.25 1.984375 2.296875 1.859375 L 3.171875 -1.453125 L 5.234375 -1.453125 L 4.375 1.703125 C 4.375 1.734375 4.34375 1.859375 4.34375 1.90625 C 4.34375 2.03125 4.4375 2.125 4.5625 2.125 C 4.734375 2.125 4.765625 1.984375 4.796875 1.859375 Z M 3.3125 -1.890625 L 3.75 -3.578125 L 5.8125 -3.578125 L 5.359375 -1.890625 Z M 3.3125 -1.890625 "/>
</g>
<g id="glyph-2-3">
<path d="M 1.28125 -2.390625 C 1.28125 -4.171875 2.171875 -4.640625 2.765625 -4.640625 C 2.859375 -4.640625 3.546875 -4.625 3.9375 -4.234375 C 3.484375 -4.1875 3.421875 -3.859375 3.421875 -3.71875 C 3.421875 -3.4375 3.609375 -3.21875 3.921875 -3.21875 C 4.203125 -3.21875 4.421875 -3.40625 4.421875 -3.734375 C 4.421875 -4.484375 3.59375 -4.90625 2.75 -4.90625 C 1.375 -4.90625 0.375 -3.71875 0.375 -2.359375 C 0.375 -0.96875 1.453125 0.125 2.734375 0.125 C 4.1875 0.125 4.546875 -1.1875 4.546875 -1.296875 C 4.546875 -1.40625 4.4375 -1.40625 4.40625 -1.40625 C 4.296875 -1.40625 4.28125 -1.375 4.265625 -1.296875 C 3.9375 -0.28125 3.234375 -0.15625 2.828125 -0.15625 C 2.25 -0.15625 1.28125 -0.625 1.28125 -2.390625 Z M 1.28125 -2.390625 "/>
</g>
<g id="glyph-2-4">
<path d="M 4.15625 -0.609375 L 4.15625 0.125 L 5.765625 0 L 5.765625 -0.34375 C 5 -0.34375 4.921875 -0.421875 4.921875 -0.953125 L 4.921875 -7.59375 L 3.34375 -7.484375 L 3.34375 -7.140625 C 4.109375 -7.140625 4.1875 -7.0625 4.1875 -6.53125 L 4.1875 -4.15625 C 3.875 -4.5625 3.40625 -4.84375 2.8125 -4.84375 C 1.515625 -4.84375 0.375 -3.765625 0.375 -2.359375 C 0.375 -0.96875 1.453125 0.125 2.6875 0.125 C 3.390625 0.125 3.890625 -0.25 4.15625 -0.609375 Z M 4.15625 -3.53125 L 4.15625 -1.296875 C 4.15625 -1.09375 4.15625 -1.078125 4.046875 -0.890625 C 3.71875 -0.359375 3.21875 -0.125 2.75 -0.125 C 2.25 -0.125 1.859375 -0.40625 1.59375 -0.828125 C 1.3125 -1.265625 1.28125 -1.890625 1.28125 -2.34375 C 1.28125 -2.75 1.296875 -3.40625 1.625 -3.90625 C 1.84375 -4.234375 2.265625 -4.59375 2.859375 -4.59375 C 3.234375 -4.59375 3.703125 -4.4375 4.046875 -3.9375 C 4.15625 -3.75 4.15625 -3.734375 4.15625 -3.53125 Z M 4.15625 -3.53125 "/>
</g>
<g id="glyph-2-5">
<path d="M 1.9375 -4.84375 L 0.40625 -4.71875 L 0.40625 -4.375 C 1.125 -4.375 1.21875 -4.3125 1.21875 -3.78125 L 1.21875 -0.828125 C 1.21875 -0.34375 1.09375 -0.34375 0.359375 -0.34375 L 0.359375 0 C 0.71875 -0.015625 1.296875 -0.03125 1.5625 -0.03125 C 1.953125 -0.03125 2.328125 -0.015625 2.703125 0 L 2.703125 -0.34375 C 1.984375 -0.34375 1.9375 -0.390625 1.9375 -0.828125 Z M 1.984375 -6.75 C 1.984375 -7.09375 1.703125 -7.328125 1.40625 -7.328125 C 1.0625 -7.328125 0.828125 -7.03125 0.828125 -6.75 C 0.828125 -6.453125 1.0625 -6.171875 1.40625 -6.171875 C 1.703125 -6.171875 1.984375 -6.390625 1.984375 -6.75 Z M 1.984375 -6.75 "/>
</g>
<g id="glyph-2-6">
<path d="M 1.890625 -4.375 L 3.46875 -4.375 L 3.46875 -4.71875 L 1.890625 -4.71875 L 1.890625 -6.734375 L 1.625 -6.734375 C 1.609375 -5.84375 1.28125 -4.671875 0.203125 -4.625 L 0.203125 -4.375 L 1.140625 -4.375 L 1.140625 -1.359375 C 1.140625 -0.015625 2.15625 0.125 2.546875 0.125 C 3.328125 0.125 3.640625 -0.65625 3.640625 -1.359375 L 3.640625 -1.984375 L 3.359375 -1.984375 L 3.359375 -1.375 C 3.359375 -0.5625 3.03125 -0.15625 2.625 -0.15625 C 1.890625 -0.15625 1.890625 -1.15625 1.890625 -1.34375 Z M 1.890625 -4.375 "/>
</g>
<g id="glyph-2-7">
<path d="M 2.28125 -2.125 C 2.515625 -2.078125 3.421875 -1.90625 3.421875 -1.125 C 3.421875 -0.5625 3.03125 -0.125 2.171875 -0.125 C 1.265625 -0.125 0.859375 -0.75 0.65625 -1.671875 C 0.625 -1.8125 0.609375 -1.859375 0.5 -1.859375 C 0.359375 -1.859375 0.359375 -1.78125 0.359375 -1.59375 L 0.359375 -0.140625 C 0.359375 0.046875 0.359375 0.125 0.484375 0.125 C 0.53125 0.125 0.546875 0.109375 0.75 -0.09375 C 0.78125 -0.125 0.78125 -0.140625 0.96875 -0.34375 C 1.453125 0.109375 1.953125 0.125 2.171875 0.125 C 3.4375 0.125 3.9375 -0.609375 3.9375 -1.40625 C 3.9375 -1.984375 3.609375 -2.3125 3.484375 -2.4375 C 3.125 -2.796875 2.6875 -2.875 2.234375 -2.96875 C 1.625 -3.09375 0.890625 -3.234375 0.890625 -3.859375 C 0.890625 -4.25 1.171875 -4.703125 2.109375 -4.703125 C 3.3125 -4.703125 3.375 -3.71875 3.390625 -3.375 C 3.40625 -3.28125 3.5 -3.28125 3.53125 -3.28125 C 3.671875 -3.28125 3.671875 -3.328125 3.671875 -3.53125 L 3.671875 -4.640625 C 3.671875 -4.828125 3.671875 -4.90625 3.546875 -4.90625 C 3.5 -4.90625 3.46875 -4.90625 3.328125 -4.78125 C 3.296875 -4.734375 3.1875 -4.640625 3.140625 -4.59375 C 2.734375 -4.90625 2.28125 -4.90625 2.109375 -4.90625 C 0.78125 -4.90625 0.359375 -4.171875 0.359375 -3.5625 C 0.359375 -3.171875 0.53125 -2.875 0.828125 -2.625 C 1.1875 -2.34375 1.484375 -2.28125 2.28125 -2.125 Z M 2.28125 -2.125 "/>
</g>
<g id="glyph-3-0">
<path d="M -3.765625 -1.203125 L -0.828125 -1.203125 C -0.34375 -1.203125 -0.34375 -1.078125 -0.34375 -0.34375 L 0 -0.34375 C -0.015625 -0.734375 -0.03125 -1.296875 -0.03125 -1.59375 C -0.03125 -1.875 -0.015625 -2.4375 0 -2.8125 L -0.34375 -2.8125 C -0.34375 -2.078125 -0.34375 -1.953125 -0.828125 -1.953125 L -2.84375 -1.953125 C -3.984375 -1.953125 -4.59375 -2.734375 -4.59375 -3.4375 C -4.59375 -4.125 -4.015625 -4.25 -3.390625 -4.25 L -0.828125 -4.25 C -0.34375 -4.25 -0.34375 -4.125 -0.34375 -3.390625 L 0 -3.390625 C -0.015625 -3.78125 -0.03125 -4.34375 -0.03125 -4.640625 C -0.03125 -4.921875 -0.015625 -5.484375 0 -5.859375 L -0.34375 -5.859375 C -0.34375 -5.296875 -0.34375 -5.015625 -0.671875 -5 L -2.765625 -5 C -3.703125 -5 -4.046875 -5 -4.4375 -4.671875 C -4.625 -4.515625 -4.84375 -4.15625 -4.84375 -3.515625 C -4.84375 -2.71875 -4.375 -2.203125 -3.6875 -1.890625 L -4.84375 -1.890625 L -4.71875 -0.34375 L -4.375 -0.34375 C -4.375 -1.125 -4.296875 -1.203125 -3.765625 -1.203125 Z M -3.765625 -1.203125 "/>
</g>
<g id="glyph-3-1">
<path d="M -2.34375 -5.15625 C -3.75 -5.15625 -4.90625 -4.0625 -4.90625 -2.734375 C -4.90625 -1.375 -3.71875 -0.3125 -2.34375 -0.3125 C -0.9375 -0.3125 0.125 -1.453125 0.125 -2.734375 C 0.125 -4.046875 -0.953125 -5.15625 -2.34375 -5.15625 Z M -0.15625 -2.734375 C -0.15625 -2.265625 -0.390625 -1.78125 -0.890625 -1.484375 C -1.375 -1.21875 -2.03125 -1.21875 -2.4375 -1.21875 C -2.859375 -1.21875 -3.453125 -1.21875 -3.9375 -1.484375 C -4.4375 -1.78125 -4.671875 -2.296875 -4.671875 -2.734375 C -4.671875 -3.203125 -4.421875 -3.6875 -3.953125 -3.96875 C -3.484375 -4.25 -2.84375 -4.25 -2.4375 -4.25 C -2.03125 -4.25 -1.453125 -4.25 -0.96875 -4.015625 C -0.46875 -3.765625 -0.15625 -3.28125 -0.15625 -2.734375 Z M -0.15625 -2.734375 "/>
</g>
<g id="glyph-3-2">
<path d="M -1.453125 -5.6875 L -1.453125 -8.140625 C -1.453125 -8.296875 -1.453125 -8.5 -1.671875 -8.5 C -1.890625 -8.5 -1.890625 -8.296875 -1.890625 -8.125 L -1.890625 -5.8125 L -3.578125 -6.25 L -3.578125 -8.125 C -3.578125 -8.296875 -3.578125 -8.5 -3.796875 -8.5 C -4.015625 -8.5 -4.015625 -8.296875 -4.015625 -8.140625 L -4.015625 -6.390625 L -7.1875 -7.234375 C -7.203125 -7.25 -7.34375 -7.28125 -7.375 -7.28125 C -7.5 -7.28125 -7.59375 -7.1875 -7.59375 -7.0625 C -7.59375 -6.890625 -7.453125 -6.859375 -7.34375 -6.828125 L -4.015625 -5.9375 L -4.015625 -3.875 L -7.1875 -4.734375 C -7.203125 -4.75 -7.34375 -4.78125 -7.375 -4.78125 C -7.5 -4.78125 -7.59375 -4.671875 -7.59375 -4.5625 C -7.59375 -4.375 -7.453125 -4.34375 -7.34375 -4.3125 L -4.015625 -3.421875 L -4.015625 -0.96875 C -4.015625 -0.828125 -4.015625 -0.609375 -3.796875 -0.609375 C -3.578125 -0.609375 -3.578125 -0.828125 -3.578125 -0.984375 L -3.578125 -3.296875 L -1.890625 -2.859375 L -1.890625 -0.984375 C -1.890625 -0.828125 -1.890625 -0.609375 -1.671875 -0.609375 C -1.453125 -0.609375 -1.453125 -0.828125 -1.453125 -0.96875 L -1.453125 -2.734375 L 1.703125 -1.875 C 1.734375 -1.859375 1.859375 -1.828125 1.90625 -1.828125 C 2.03125 -1.828125 2.125 -1.921875 2.125 -2.046875 C 2.125 -2.21875 1.984375 -2.25 1.859375 -2.296875 L -1.453125 -3.171875 L -1.453125 -5.234375 L 1.703125 -4.375 C 1.734375 -4.375 1.859375 -4.34375 1.90625 -4.34375 C 2.03125 -4.34375 2.125 -4.4375 2.125 -4.5625 C 2.125 -4.734375 1.984375 -4.765625 1.859375 -4.796875 Z M -1.890625 -3.3125 L -3.578125 -3.75 L -3.578125 -5.8125 L -1.890625 -5.359375 Z M -1.890625 -3.3125 "/>
</g>
<g id="glyph-3-3">
<path d="M -2.390625 -1.28125 C -4.171875 -1.28125 -4.640625 -2.171875 -4.640625 -2.765625 C -4.640625 -2.859375 -4.625 -3.546875 -4.234375 -3.9375 C -4.1875 -3.484375 -3.859375 -3.421875 -3.71875 -3.421875 C -3.4375 -3.421875 -3.21875 -3.609375 -3.21875 -3.921875 C -3.21875 -4.203125 -3.40625 -4.421875 -3.734375 -4.421875 C -4.484375 -4.421875 -4.90625 -3.59375 -4.90625 -2.75 C -4.90625 -1.375 -3.71875 -0.375 -2.359375 -0.375 C -0.96875 -0.375 0.125 -1.453125 0.125 -2.734375 C 0.125 -4.1875 -1.1875 -4.546875 -1.296875 -4.546875 C -1.40625 -4.546875 -1.40625 -4.4375 -1.40625 -4.40625 C -1.40625 -4.296875 -1.375 -4.28125 -1.296875 -4.265625 C -0.28125 -3.9375 -0.15625 -3.234375 -0.15625 -2.828125 C -0.15625 -2.25 -0.625 -1.28125 -2.390625 -1.28125 Z M -2.390625 -1.28125 "/>
</g>
<g id="glyph-3-4">
<path d="M -0.828125 -1.203125 C -0.34375 -1.203125 -0.34375 -1.078125 -0.34375 -0.34375 L 0 -0.34375 C -0.015625 -0.734375 -0.03125 -1.296875 -0.03125 -1.59375 C -0.03125 -1.875 -0.015625 -2.4375 0 -2.8125 L -0.34375 -2.8125 C -0.34375 -2.078125 -0.34375 -1.953125 -0.828125 -1.953125 L -2.84375 -1.953125 C -3.984375 -1.953125 -4.59375 -2.734375 -4.59375 -3.4375 C -4.59375 -4.125 -4.015625 -4.25 -3.390625 -4.25 L -0.828125 -4.25 C -0.34375 -4.25 -0.34375 -4.125 -0.34375 -3.390625 L 0 -3.390625 C -0.015625 -3.78125 -0.03125 -4.34375 -0.03125 -4.640625 C -0.03125 -4.921875 -0.015625 -5.484375 0 -5.859375 L -0.34375 -5.859375 C -0.34375 -5.296875 -0.34375 -5.015625 -0.671875 -5 L -2.765625 -5 C -3.703125 -5 -4.046875 -5 -4.4375 -4.671875 C -4.625 -4.515625 -4.84375 -4.15625 -4.84375 -3.515625 C -4.84375 -2.59375 -4.1875 -2.109375 -3.765625 -1.921875 L -7.59375 -1.921875 L -7.484375 -0.34375 L -7.140625 -0.34375 C -7.140625 -1.125 -7.0625 -1.203125 -6.53125 -1.203125 Z M -0.828125 -1.203125 "/>
</g>
<g id="glyph-3-5">
<path d="M -2.765625 -1.234375 C -4.390625 -1.296875 -4.671875 -2.21875 -4.671875 -2.578125 C -4.671875 -3.71875 -3.1875 -3.828125 -2.765625 -3.828125 Z M -2.53125 -1.21875 L -2.53125 -4.265625 C -2.53125 -4.515625 -2.53125 -4.546875 -2.765625 -4.546875 C -3.84375 -4.546875 -4.90625 -3.953125 -4.90625 -2.578125 C -4.90625 -1.3125 -3.78125 -0.3125 -2.40625 -0.3125 C -0.9375 -0.3125 0.125 -1.453125 0.125 -2.71875 C 0.125 -4.046875 -1.09375 -4.546875 -1.296875 -4.546875 C -1.40625 -4.546875 -1.4375 -4.453125 -1.4375 -4.40625 C -1.4375 -4.296875 -1.375 -4.28125 -1.28125 -4.265625 C -0.15625 -3.875 -0.15625 -2.890625 -0.15625 -2.78125 C -0.15625 -2.234375 -0.484375 -1.796875 -0.890625 -1.546875 C -1.40625 -1.21875 -2.140625 -1.21875 -2.53125 -1.21875 Z M -2.53125 -1.21875 "/>
</g>
<g id="glyph-3-6">
<path d="M -0.828125 -1.15625 C -0.34375 -1.15625 -0.34375 -1.046875 -0.34375 -0.3125 L 0 -0.3125 C -0.015625 -0.671875 -0.03125 -1.1875 -0.03125 -1.5 C -0.03125 -1.828125 -0.015625 -2.265625 0 -2.703125 L -0.34375 -2.703125 C -0.34375 -1.96875 -0.34375 -1.84375 -0.828125 -1.84375 L -1.953125 -1.84375 L -2.5625 -2.546875 C -1.40625 -3.390625 -0.78125 -3.859375 -0.59375 -3.859375 C -0.390625 -3.859375 -0.34375 -3.671875 -0.34375 -3.46875 L 0 -3.46875 C -0.015625 -3.765625 -0.03125 -4.421875 -0.03125 -4.640625 C -0.03125 -4.96875 -0.015625 -5.28125 0 -5.59375 L -0.34375 -5.59375 C -0.34375 -5.1875 -0.34375 -4.953125 -0.921875 -4.53125 L -2.875 -3.140625 C -2.90625 -3.125 -2.96875 -3.078125 -3 -3.078125 C -3.046875 -3.078125 -3.703125 -3.859375 -3.796875 -3.96875 C -4.34375 -4.65625 -4.375 -5.109375 -4.375 -5.34375 L -4.71875 -5.34375 C -4.6875 -5.03125 -4.6875 -4.890625 -4.6875 -4.578125 C -4.6875 -4.1875 -4.703125 -3.5 -4.71875 -3.359375 L -4.375 -3.359375 C -4.375 -3.5625 -4.25 -3.671875 -4.109375 -3.671875 C -3.890625 -3.671875 -3.75 -3.515625 -3.6875 -3.421875 L -2.34375 -1.890625 L -7.59375 -1.890625 L -7.484375 -0.3125 L -7.140625 -0.3125 C -7.140625 -1.078125 -7.0625 -1.15625 -6.53125 -1.15625 Z M -0.828125 -1.15625 "/>
</g>
<g id="glyph-3-7">
<path d="M -2.125 -2.28125 C -2.078125 -2.515625 -1.90625 -3.421875 -1.125 -3.421875 C -0.5625 -3.421875 -0.125 -3.03125 -0.125 -2.171875 C -0.125 -1.265625 -0.75 -0.859375 -1.671875 -0.65625 C -1.8125 -0.625 -1.859375 -0.609375 -1.859375 -0.5 C -1.859375 -0.359375 -1.78125 -0.359375 -1.59375 -0.359375 L -0.140625 -0.359375 C 0.046875 -0.359375 0.125 -0.359375 0.125 -0.484375 C 0.125 -0.53125 0.109375 -0.546875 -0.09375 -0.75 C -0.125 -0.78125 -0.140625 -0.78125 -0.34375 -0.96875 C 0.109375 -1.453125 0.125 -1.953125 0.125 -2.171875 C 0.125 -3.4375 -0.609375 -3.9375 -1.40625 -3.9375 C -1.984375 -3.9375 -2.3125 -3.609375 -2.4375 -3.484375 C -2.796875 -3.125 -2.875 -2.6875 -2.96875 -2.234375 C -3.09375 -1.625 -3.234375 -0.890625 -3.859375 -0.890625 C -4.25 -0.890625 -4.703125 -1.171875 -4.703125 -2.109375 C -4.703125 -3.3125 -3.71875 -3.375 -3.375 -3.390625 C -3.28125 -3.40625 -3.28125 -3.5 -3.28125 -3.53125 C -3.28125 -3.671875 -3.328125 -3.671875 -3.53125 -3.671875 L -4.640625 -3.671875 C -4.828125 -3.671875 -4.90625 -3.671875 -4.90625 -3.546875 C -4.90625 -3.5 -4.90625 -3.46875 -4.78125 -3.328125 C -4.734375 -3.296875 -4.640625 -3.1875 -4.59375 -3.140625 C -4.90625 -2.734375 -4.90625 -2.28125 -4.90625 -2.109375 C -4.90625 -0.78125 -4.171875 -0.359375 -3.5625 -0.359375 C -3.171875 -0.359375 -2.875 -0.53125 -2.625 -0.828125 C -2.34375 -1.1875 -2.28125 -1.484375 -2.125 -2.28125 Z M -2.125 -2.28125 "/>
</g>
<g id="glyph-4-0">
<path d="M 0.84375 -0.4375 C 0.828125 -0.34375 0.78125 -0.171875 0.78125 -0.15625 C 0.78125 0 0.90625 0.0625 1.015625 0.0625 C 1.140625 0.0625 1.25 -0.015625 1.296875 -0.078125 C 1.328125 -0.140625 1.375 -0.375 1.421875 -0.515625 C 1.453125 -0.640625 1.53125 -0.96875 1.5625 -1.140625 C 1.609375 -1.296875 1.65625 -1.453125 1.6875 -1.609375 C 1.765625 -1.890625 1.78125 -1.953125 1.984375 -2.234375 C 2.171875 -2.515625 2.5 -2.875 3.03125 -2.875 C 3.421875 -2.875 3.4375 -2.515625 3.4375 -2.390625 C 3.4375 -1.96875 3.140625 -1.203125 3.03125 -0.90625 C 2.953125 -0.703125 2.921875 -0.640625 2.921875 -0.53125 C 2.921875 -0.15625 3.21875 0.0625 3.578125 0.0625 C 4.28125 0.0625 4.578125 -0.890625 4.578125 -1 C 4.578125 -1.09375 4.5 -1.09375 4.46875 -1.09375 C 4.375 -1.09375 4.375 -1.046875 4.34375 -0.96875 C 4.1875 -0.40625 3.875 -0.125 3.609375 -0.125 C 3.453125 -0.125 3.421875 -0.21875 3.421875 -0.375 C 3.421875 -0.53125 3.46875 -0.625 3.59375 -0.9375 C 3.671875 -1.15625 3.953125 -1.890625 3.953125 -2.28125 C 3.953125 -2.953125 3.421875 -3.078125 3.046875 -3.078125 C 2.46875 -3.078125 2.078125 -2.71875 1.875 -2.4375 C 1.828125 -2.921875 1.421875 -3.078125 1.125 -3.078125 C 0.828125 -3.078125 0.671875 -2.859375 0.578125 -2.703125 C 0.421875 -2.4375 0.328125 -2.046875 0.328125 -2 C 0.328125 -1.921875 0.421875 -1.921875 0.453125 -1.921875 C 0.546875 -1.921875 0.546875 -1.9375 0.59375 -2.125 C 0.703125 -2.53125 0.84375 -2.875 1.109375 -2.875 C 1.296875 -2.875 1.34375 -2.71875 1.34375 -2.53125 C 1.34375 -2.40625 1.28125 -2.140625 1.21875 -1.953125 C 1.171875 -1.765625 1.109375 -1.484375 1.078125 -1.328125 Z M 0.84375 -0.4375 "/>
</g>
<g id="glyph-4-1">
<path d="M 2.1875 -4.625 C 2.1875 -4.640625 2.203125 -4.734375 2.203125 -4.734375 C 2.203125 -4.78125 2.1875 -4.84375 2.09375 -4.84375 C 1.953125 -4.84375 1.375 -4.78125 1.203125 -4.765625 C 1.15625 -4.765625 1.046875 -4.75 1.046875 -4.609375 C 1.046875 -4.515625 1.15625 -4.515625 1.234375 -4.515625 C 1.5625 -4.515625 1.5625 -4.453125 1.5625 -4.40625 C 1.5625 -4.359375 1.546875 -4.3125 1.546875 -4.25 L 0.5625 -0.3125 C 0.515625 -0.1875 0.515625 -0.171875 0.515625 -0.15625 C 0.515625 -0.046875 0.609375 0.0625 0.765625 0.0625 C 0.953125 0.0625 1.03125 -0.0625 1.078125 -0.21875 C 1.09375 -0.25 1.390625 -1.484375 1.421875 -1.578125 C 1.921875 -1.53125 2.3125 -1.359375 2.3125 -1 C 2.3125 -0.96875 2.3125 -0.9375 2.296875 -0.859375 C 2.265625 -0.765625 2.265625 -0.71875 2.265625 -0.640625 C 2.265625 -0.15625 2.671875 0.0625 3.015625 0.0625 C 3.6875 0.0625 3.890625 -0.984375 3.890625 -1 C 3.890625 -1.09375 3.8125 -1.09375 3.78125 -1.09375 C 3.6875 -1.09375 3.671875 -1.046875 3.640625 -0.921875 C 3.5625 -0.625 3.375 -0.125 3.03125 -0.125 C 2.84375 -0.125 2.78125 -0.296875 2.78125 -0.484375 C 2.78125 -0.609375 2.78125 -0.625 2.828125 -0.796875 C 2.84375 -0.828125 2.859375 -0.9375 2.859375 -1.015625 C 2.859375 -1.640625 2.03125 -1.734375 1.734375 -1.75 C 1.9375 -1.875 2.1875 -2.109375 2.3125 -2.21875 C 2.671875 -2.546875 3.015625 -2.875 3.40625 -2.875 C 3.484375 -2.875 3.578125 -2.859375 3.640625 -2.78125 C 3.34375 -2.734375 3.28125 -2.5 3.28125 -2.390625 C 3.28125 -2.25 3.390625 -2.140625 3.546875 -2.140625 C 3.75 -2.140625 3.953125 -2.296875 3.953125 -2.578125 C 3.953125 -2.8125 3.78125 -3.078125 3.421875 -3.078125 C 3.015625 -3.078125 2.65625 -2.78125 2.296875 -2.453125 C 2 -2.1875 1.78125 -1.96875 1.484375 -1.84375 Z M 2.1875 -4.625 "/>
</g>
<g id="glyph-5-0">
<path d="M 4.203125 5.328125 L 0.65625 9.703125 C 0.578125 9.796875 0.5625 9.8125 0.5625 9.859375 C 0.5625 9.96875 0.65625 9.96875 0.84375 9.96875 L 9.09375 9.96875 L 9.953125 7.484375 L 9.703125 7.484375 C 9.453125 8.234375 8.796875 8.84375 7.9375 9.125 C 7.78125 9.1875 7.09375 9.421875 5.625 9.421875 L 1.390625 9.421875 L 4.859375 5.140625 C 4.921875 5.046875 4.9375 5.03125 4.9375 4.984375 C 4.9375 4.9375 4.9375 4.9375 4.875 4.84375 L 1.640625 0.40625 L 5.578125 0.40625 C 6.71875 0.40625 9.015625 0.46875 9.703125 2.328125 L 9.953125 2.328125 L 9.09375 0 L 0.84375 0 C 0.5625 0 0.5625 0.015625 0.5625 0.3125 Z M 4.203125 5.328125 "/>
</g>
<g id="glyph-6-0">
<path d="M 5.359375 -2.34375 C 5.453125 -2.34375 5.609375 -2.34375 5.609375 -2.515625 C 5.609375 -2.6875 5.453125 -2.6875 5.359375 -2.6875 L 0.75 -2.6875 C 0.65625 -2.6875 0.484375 -2.6875 0.484375 -2.515625 C 0.484375 -2.34375 0.640625 -2.34375 0.75 -2.34375 Z M 5.359375 -0.8125 C 5.453125 -0.8125 5.609375 -0.8125 5.609375 -0.96875 C 5.609375 -1.15625 5.453125 -1.15625 5.359375 -1.15625 L 0.75 -1.15625 C 0.640625 -1.15625 0.484375 -1.15625 0.484375 -0.96875 C 0.484375 -0.8125 0.65625 -0.8125 0.75 -0.8125 Z M 5.359375 -0.8125 "/>
</g>
<g id="glyph-6-1">
<path d="M 2.328125 -4.4375 C 2.328125 -4.625 2.328125 -4.625 2.125 -4.625 C 1.671875 -4.1875 1.046875 -4.1875 0.765625 -4.1875 L 0.765625 -3.9375 C 0.921875 -3.9375 1.390625 -3.9375 1.765625 -4.125 L 1.765625 -0.578125 C 1.765625 -0.34375 1.765625 -0.25 1.078125 -0.25 L 0.8125 -0.25 L 0.8125 0 C 0.9375 0 1.796875 -0.03125 2.046875 -0.03125 C 2.265625 -0.03125 3.140625 0 3.296875 0 L 3.296875 -0.25 L 3.03125 -0.25 C 2.328125 -0.25 2.328125 -0.34375 2.328125 -0.578125 Z M 2.328125 -4.4375 "/>
</g>
</g>
<clipPath id="clip-0">
<path clip-rule="nonzero" d="M 75 0 L 683.613281 0 L 683.613281 293 L 75 293 Z M 75 0 "/>
</clipPath>
<clipPath id="clip-1">
<path clip-rule="nonzero" d="M 75 9 L 683.613281 9 L 683.613281 293 L 75 293 Z M 75 9 "/>
</clipPath>
<clipPath id="clip-2">
<path clip-rule="nonzero" d="M 75 0 L 683.613281 0 L 683.613281 293 L 75 293 Z M 75 0 "/>
</clipPath>
<clipPath id="clip-3">
<path clip-rule="nonzero" d="M 75 9 L 683.613281 9 L 683.613281 293 L 75 293 Z M 75 9 "/>
</clipPath>
<clipPath id="clip-4">
<path clip-rule="nonzero" d="M 75 0 L 683.613281 0 L 683.613281 293 L 75 293 Z M 75 0 "/>
</clipPath>
<clipPath id="clip-5">
<path clip-rule="nonzero" d="M 81 38 L 683 38 L 683 292.011719 L 81 292.011719 Z M 81 38 "/>
</clipPath>
<clipPath id="clip-6">
<path clip-rule="nonzero" d="M 82 65 L 682 65 L 682 292.011719 L 82 292.011719 Z M 82 65 "/>
</clipPath>
</defs>
<g clip-path="url(#clip-0)">
<path fill="none" stroke-width="0.3985" stroke-linecap="butt" stroke-linejoin="miter" stroke="rgb(75%, 75%, 75%)" stroke-opacity="1" stroke-miterlimit="10" d="M 0.0010625 0.00128125 L 0.0010625 298.876281 M 24.020594 0.00128125 L 24.020594 298.876281 M 48.044031 0.00128125 L 48.044031 298.876281 M 72.067469 0.00128125 L 72.067469 298.876281 M 96.090906 0.00128125 L 96.090906 298.876281 M 120.110437 0.00128125 L 120.110437 298.876281 M 144.133875 0.00128125 L 144.133875 298.876281 M 168.157312 0.00128125 L 168.157312 298.876281 M 192.18075 0.00128125 L 192.18075 298.876281 M 216.200281 0.00128125 L 216.200281 298.876281 M 240.223719 0.00128125 L 240.223719 298.876281 M 264.247156 0.00128125 L 264.247156 298.876281 M 288.270594 0.00128125 L 288.270594 298.876281 M 312.294031 0.00128125 L 312.294031 298.876281 M 336.313562 0.00128125 L 336.313562 298.876281 M 360.337 0.00128125 L 360.337 298.876281 M 384.360437 0.00128125 L 384.360437 298.876281 M 408.383875 0.00128125 L 408.383875 298.876281 M 432.403406 0.00128125 L 432.403406 298.876281 M 456.426844 0.00128125 L 456.426844 298.876281 M 480.450281 0.00128125 L 480.450281 298.876281 M 504.473719 0.00128125 L 504.473719 298.876281 M 528.49325 0.00128125 L 528.49325 298.876281 M 552.516687 0.00128125 L 552.516687 298.876281 M 576.540125 0.00128125 L 576.540125 298.876281 M 600.563562 0.00128125 L 600.563562 298.876281 M 624.583094 0.00128125 L 624.583094 298.876281 " transform="matrix(1, 0, 0, -1, 75.663, 292.013)"/>
</g>
<g clip-path="url(#clip-1)">
<path fill="none" stroke-width="0.3985" stroke-linecap="butt" stroke-linejoin="miter" stroke="rgb(75%, 75%, 75%)" stroke-opacity="1" stroke-miterlimit="10" d="M 0.0010625 0.00128125 L 642.602625 0.00128125 M 0.0010625 28.196594 L 642.602625 28.196594 M 0.0010625 56.391906 L 642.602625 56.391906 M 0.0010625 84.587219 L 642.602625 84.587219 M 0.0010625 112.782531 L 642.602625 112.782531 M 0.0010625 140.977844 L 642.602625 140.977844 M 0.0010625 169.177062 L 642.602625 169.177062 M 0.0010625 197.372375 L 642.602625 197.372375 M 0.0010625 225.567687 L 642.602625 225.567687 M 0.0010625 253.763 L 642.602625 253.763 M 0.0010625 281.958312 L 642.602625 281.958312 " transform="matrix(1, 0, 0, -1, 75.663, 292.013)"/>
</g>
<g clip-path="url(#clip-2)">
<path fill="none" stroke-width="0.19925" stroke-linecap="butt" stroke-linejoin="miter" stroke="rgb(50%, 50%, 50%)" stroke-opacity="1" stroke-miterlimit="10" d="M 0.0010625 0.00128125 L 0.0010625 4.251281 M 24.020594 0.00128125 L 24.020594 4.251281 M 48.044031 0.00128125 L 48.044031 4.251281 M 72.067469 0.00128125 L 72.067469 4.251281 M 96.090906 0.00128125 L 96.090906 4.251281 M 120.110437 0.00128125 L 120.110437 4.251281 M 144.133875 0.00128125 L 144.133875 4.251281 M 168.157312 0.00128125 L 168.157312 4.251281 M 192.18075 0.00128125 L 192.18075 4.251281 M 216.200281 0.00128125 L 216.200281 4.251281 M 240.223719 0.00128125 L 240.223719 4.251281 M 264.247156 0.00128125 L 264.247156 4.251281 M 288.270594 0.00128125 L 288.270594 4.251281 M 312.294031 0.00128125 L 312.294031 4.251281 M 336.313562 0.00128125 L 336.313562 4.251281 M 360.337 0.00128125 L 360.337 4.251281 M 384.360437 0.00128125 L 384.360437 4.251281 M 408.383875 0.00128125 L 408.383875 4.251281 M 432.403406 0.00128125 L 432.403406 4.251281 M 456.426844 0.00128125 L 456.426844 4.251281 M 480.450281 0.00128125 L 480.450281 4.251281 M 504.473719 0.00128125 L 504.473719 4.251281 M 528.49325 0.00128125 L 528.49325 4.251281 M 552.516687 0.00128125 L 552.516687 4.251281 M 576.540125 0.00128125 L 576.540125 4.251281 M 600.563562 0.00128125 L 600.563562 4.251281 M 624.583094 0.00128125 L 624.583094 4.251281 M 0.0010625 298.876281 L 0.0010625 294.622375 M 24.020594 298.876281 L 24.020594 294.622375 M 48.044031 298.876281 L 48.044031 294.622375 M 72.067469 298.876281 L 72.067469 294.622375 M 96.090906 298.876281 L 96.090906 294.622375 M 120.110437 298.876281 L 120.110437 294.622375 M 144.133875 298.876281 L 144.133875 294.622375 M 168.157312 298.876281 L 168.157312 294.622375 M 192.18075 298.876281 L 192.18075 294.622375 M 216.200281 298.876281 L 216.200281 294.622375 M 240.223719 298.876281 L 240.223719 294.622375 M 264.247156 298.876281 L 264.247156 294.622375 M 288.270594 298.876281 L 288.270594 294.622375 M 312.294031 298.876281 L 312.294031 294.622375 M 336.313562 298.876281 L 336.313562 294.622375 M 360.337 298.876281 L 360.337 294.622375 M 384.360437 298.876281 L 384.360437 294.622375 M 408.383875 298.876281 L 408.383875 294.622375 M 432.403406 298.876281 L 432.403406 294.622375 M 456.426844 298.876281 L 456.426844 294.622375 M 480.450281 298.876281 L 480.450281 294.622375 M 504.473719 298.876281 L 504.473719 294.622375 M 528.49325 298.876281 L 528.49325 294.622375 M 552.516687 298.876281 L 552.516687 294.622375 M 576.540125 298.876281 L 576.540125 294.622375 M 600.563562 298.876281 L 600.563562 294.622375 M 624.583094 298.876281 L 624.583094 294.622375 " transform="matrix(1, 0, 0, -1, 75.663, 292.013)"/>
</g>
<g clip-path="url(#clip-3)">
<path fill="none" stroke-width="0.19925" stroke-linecap="butt" stroke-linejoin="miter" stroke="rgb(50%, 50%, 50%)" stroke-opacity="1" stroke-miterlimit="10" d="M 0.0010625 0.00128125 L 4.251062 0.00128125 M 0.0010625 28.196594 L 4.251062 28.196594 M 0.0010625 56.391906 L 4.251062 56.391906 M 0.0010625 84.587219 L 4.251062 84.587219 M 0.0010625 112.782531 L 4.251062 112.782531 M 0.0010625 140.977844 L 4.251062 140.977844 M 0.0010625 169.177062 L 4.251062 169.177062 M 0.0010625 197.372375 L 4.251062 197.372375 M 0.0010625 225.567687 L 4.251062 225.567687 M 0.0010625 253.763 L 4.251062 253.763 M 0.0010625 281.958312 L 4.251062 281.958312 M 642.602625 0.00128125 L 638.348719 0.00128125 M 642.602625 28.196594 L 638.348719 28.196594 M 642.602625 56.391906 L 638.348719 56.391906 M 642.602625 84.587219 L 638.348719 84.587219 M 642.602625 112.782531 L 638.348719 112.782531 M 642.602625 140.977844 L 638.348719 140.977844 M 642.602625 169.177062 L 638.348719 169.177062 M 642.602625 197.372375 L 638.348719 197.372375 M 642.602625 225.567687 L 638.348719 225.567687 M 642.602625 253.763 L 638.348719 253.763 M 642.602625 281.958312 L 638.348719 281.958312 " transform="matrix(1, 0, 0, -1, 75.663, 292.013)"/>
</g>
<g clip-path="url(#clip-4)">
<path fill="none" stroke-width="0.3985" stroke-linecap="butt" stroke-linejoin="miter" stroke="rgb(0%, 0%, 0%)" stroke-opacity="1" stroke-miterlimit="10" d="M 0.0010625 0.00128125 L 0.0010625 298.876281 L 642.602625 298.876281 L 642.602625 0.00128125 Z M 0.0010625 0.00128125 " transform="matrix(1, 0, 0, -1, 75.663, 292.013)"/>
</g>
<g fill="rgb(0%, 0%, 0%)" fill-opacity="1">
<use xlink:href="#glyph-0-0" x="73.172" y="301.953"/>
</g>
<g fill="rgb(0%, 0%, 0%)" fill-opacity="1">
<use xlink:href="#glyph-0-1" x="97.195" y="301.953"/>
</g>
<g fill="rgb(0%, 0%, 0%)" fill-opacity="1">
<use xlink:href="#glyph-0-2" x="121.217" y="301.953"/>
</g>
<g fill="rgb(0%, 0%, 0%)" fill-opacity="1">
<use xlink:href="#glyph-0-3" x="145.239" y="301.953"/>
</g>
<g fill="rgb(0%, 0%, 0%)" fill-opacity="1">
<use xlink:href="#glyph-0-4" x="169.261" y="301.953"/>
</g>
<g fill="rgb(0%, 0%, 0%)" fill-opacity="1">
<use xlink:href="#glyph-0-5" x="190.793" y="301.953"/>
<use xlink:href="#glyph-0-0" x="195.7743" y="301.953"/>
</g>
<g fill="rgb(0%, 0%, 0%)" fill-opacity="1">
<use xlink:href="#glyph-0-5" x="214.815" y="301.953"/>
<use xlink:href="#glyph-0-1" x="219.7963" y="301.953"/>
</g>
<g fill="rgb(0%, 0%, 0%)" fill-opacity="1">
<use xlink:href="#glyph-0-5" x="238.837" y="301.953"/>
<use xlink:href="#glyph-0-2" x="243.8183" y="301.953"/>
</g>
<g fill="rgb(0%, 0%, 0%)" fill-opacity="1">
<use xlink:href="#glyph-0-5" x="262.859" y="301.953"/>
<use xlink:href="#glyph-0-3" x="267.8403" y="301.953"/>
</g>
<g fill="rgb(0%, 0%, 0%)" fill-opacity="1">
<use xlink:href="#glyph-0-5" x="286.881" y="301.953"/>
<use xlink:href="#glyph-0-4" x="291.8623" y="301.953"/>
</g>
<g fill="rgb(0%, 0%, 0%)" fill-opacity="1">
<use xlink:href="#glyph-0-1" x="310.903" y="301.953"/>
<use xlink:href="#glyph-0-0" x="315.8843" y="301.953"/>
</g>
<g fill="rgb(0%, 0%, 0%)" fill-opacity="1">
<use xlink:href="#glyph-0-1" x="334.926" y="301.953"/>
<use xlink:href="#glyph-0-1" x="339.9073" y="301.953"/>
</g>
<g fill="rgb(0%, 0%, 0%)" fill-opacity="1">
<use xlink:href="#glyph-0-1" x="358.948" y="301.953"/>
<use xlink:href="#glyph-0-2" x="363.9293" y="301.953"/>
</g>
<g fill="rgb(0%, 0%, 0%)" fill-opacity="1">
<use xlink:href="#glyph-0-1" x="382.97" y="301.953"/>
<use xlink:href="#glyph-0-3" x="387.9513" y="301.953"/>
</g>
<g fill="rgb(0%, 0%, 0%)" fill-opacity="1">
<use xlink:href="#glyph-0-1" x="406.992" y="301.953"/>
<use xlink:href="#glyph-0-4" x="411.9733" y="301.953"/>
</g>
<g fill="rgb(0%, 0%, 0%)" fill-opacity="1">
<use xlink:href="#glyph-0-6" x="431.014" y="301.953"/>
<use xlink:href="#glyph-0-0" x="435.9953" y="301.953"/>
</g>
<g fill="rgb(0%, 0%, 0%)" fill-opacity="1">
<use xlink:href="#glyph-0-6" x="455.036" y="301.953"/>
<use xlink:href="#glyph-0-1" x="460.0173" y="301.953"/>
</g>
<g fill="rgb(0%, 0%, 0%)" fill-opacity="1">
<use xlink:href="#glyph-0-6" x="479.058" y="301.953"/>
<use xlink:href="#glyph-0-2" x="484.0393" y="301.953"/>
</g>
<g fill="rgb(0%, 0%, 0%)" fill-opacity="1">
<use xlink:href="#glyph-0-6" x="503.081" y="301.953"/>
<use xlink:href="#glyph-0-3" x="508.0623" y="301.953"/>
</g>
<g fill="rgb(0%, 0%, 0%)" fill-opacity="1">
<use xlink:href="#glyph-0-6" x="527.103" y="301.953"/>
<use xlink:href="#glyph-0-4" x="532.0843" y="301.953"/>
</g>
<g fill="rgb(0%, 0%, 0%)" fill-opacity="1">
<use xlink:href="#glyph-0-2" x="551.125" y="301.953"/>
<use xlink:href="#glyph-0-0" x="556.1063" y="301.953"/>
</g>
<g fill="rgb(0%, 0%, 0%)" fill-opacity="1">
<use xlink:href="#glyph-0-2" x="575.147" y="301.953"/>
<use xlink:href="#glyph-0-1" x="580.1283" y="301.953"/>
</g>
<g fill="rgb(0%, 0%, 0%)" fill-opacity="1">
<use xlink:href="#glyph-0-2" x="599.169" y="301.953"/>
<use xlink:href="#glyph-0-2" x="604.1503" y="301.953"/>
</g>
<g fill="rgb(0%, 0%, 0%)" fill-opacity="1">
<use xlink:href="#glyph-0-2" x="623.191" y="301.953"/>
<use xlink:href="#glyph-0-3" x="628.1723" y="301.953"/>
</g>
<g fill="rgb(0%, 0%, 0%)" fill-opacity="1">
<use xlink:href="#glyph-0-2" x="647.214" y="301.953"/>
<use xlink:href="#glyph-0-4" x="652.1953" y="301.953"/>
</g>
<g fill="rgb(0%, 0%, 0%)" fill-opacity="1">
<use xlink:href="#glyph-0-7" x="671.236" y="301.953"/>
<use xlink:href="#glyph-0-0" x="676.2173" y="301.953"/>
</g>
<g fill="rgb(0%, 0%, 0%)" fill-opacity="1">
<use xlink:href="#glyph-0-0" x="67.162" y="295.223"/>
</g>
<g fill="rgb(0%, 0%, 0%)" fill-opacity="1">
<use xlink:href="#glyph-0-0" x="59.413" y="267.028"/>
</g>
<g fill="rgb(0%, 0%, 0%)" fill-opacity="1">
<use xlink:href="#glyph-1-0" x="64.3943" y="267.028"/>
</g>
<g fill="rgb(0%, 0%, 0%)" fill-opacity="1">
<use xlink:href="#glyph-0-7" x="67.16191" y="267.028"/>
</g>
<g fill="rgb(0%, 0%, 0%)" fill-opacity="1">
<use xlink:href="#glyph-0-5" x="67.162" y="238.832"/>
</g>
<g fill="rgb(0%, 0%, 0%)" fill-opacity="1">
<use xlink:href="#glyph-0-5" x="59.413" y="210.637"/>
</g>
<g fill="rgb(0%, 0%, 0%)" fill-opacity="1">
<use xlink:href="#glyph-1-0" x="64.3943" y="210.637"/>
</g>
<g fill="rgb(0%, 0%, 0%)" fill-opacity="1">
<use xlink:href="#glyph-0-7" x="67.16191" y="210.637"/>
</g>
<g fill="rgb(0%, 0%, 0%)" fill-opacity="1">
<use xlink:href="#glyph-0-1" x="67.162" y="182.441"/>
</g>
<g fill="rgb(0%, 0%, 0%)" fill-opacity="1">
<use xlink:href="#glyph-0-1" x="59.413" y="154.245"/>
</g>
<g fill="rgb(0%, 0%, 0%)" fill-opacity="1">
<use xlink:href="#glyph-1-0" x="64.3943" y="154.245"/>
</g>
<g fill="rgb(0%, 0%, 0%)" fill-opacity="1">
<use xlink:href="#glyph-0-7" x="67.16191" y="154.245"/>
</g>
<g fill="rgb(0%, 0%, 0%)" fill-opacity="1">
<use xlink:href="#glyph-0-6" x="67.162" y="126.05"/>
</g>
<g fill="rgb(0%, 0%, 0%)" fill-opacity="1">
<use xlink:href="#glyph-0-6" x="59.413" y="97.854"/>
</g>
<g fill="rgb(0%, 0%, 0%)" fill-opacity="1">
<use xlink:href="#glyph-1-0" x="64.3943" y="97.854"/>
</g>
<g fill="rgb(0%, 0%, 0%)" fill-opacity="1">
<use xlink:href="#glyph-0-7" x="67.16191" y="97.854"/>
</g>
<g fill="rgb(0%, 0%, 0%)" fill-opacity="1">
<use xlink:href="#glyph-0-2" x="67.162" y="69.659"/>
</g>
<g fill="rgb(0%, 0%, 0%)" fill-opacity="1">
<use xlink:href="#glyph-0-2" x="59.413" y="41.463"/>
</g>
<g fill="rgb(0%, 0%, 0%)" fill-opacity="1">
<use xlink:href="#glyph-1-0" x="64.3943" y="41.463"/>
</g>
<g fill="rgb(0%, 0%, 0%)" fill-opacity="1">
<use xlink:href="#glyph-0-7" x="67.16191" y="41.463"/>
</g>
<g fill="rgb(0%, 0%, 0%)" fill-opacity="1">
<use xlink:href="#glyph-0-7" x="67.162" y="13.268"/>
</g>
<g clip-path="url(#clip-5)">
<path fill-rule="nonzero" fill="rgb(0%, 0%, 0%)" fill-opacity="0.01" stroke-width="0.3985" stroke-linecap="butt" stroke-linejoin="miter" stroke="rgb(0%, 0%, 0%)" stroke-opacity="1" stroke-miterlimit="10" d="M 6.004969 0.00128125 L 18.016687 0.00128125 L 18.016687 56.391906 L 6.004969 56.391906 Z M 18.016687 0.00128125 L 30.028406 0.00128125 L 30.028406 84.587219 L 18.016687 84.587219 Z M 30.028406 0.00128125 L 42.040125 0.00128125 L 42.040125 103.384094 L 30.028406 103.384094 Z M 42.040125 0.00128125 L 54.051844 0.00128125 L 54.051844 117.48175 L 42.040125 117.48175 Z M 54.051844 0.00128125 L 66.063562 0.00128125 L 66.063562 128.763 L 54.051844 128.763 Z M 66.063562 0.00128125 L 78.071375 0.00128125 L 78.071375 138.161437 L 66.063562 138.161437 Z M 78.071375 0.00128125 L 90.083094 0.00128125 L 90.083094 146.216125 L 78.071375 146.216125 Z M 90.083094 0.00128125 L 102.094812 0.00128125 L 102.094812 153.263 L 90.083094 153.263 Z M 102.094812 0.00128125 L 114.106531 0.00128125 L 114.106531 159.528625 L 102.094812 159.528625 Z M 114.106531 0.00128125 L 126.11825 0.00128125 L 126.11825 165.16925 L 114.106531 165.16925 Z M 126.11825 0.00128125 L 138.129969 0.00128125 L 138.129969 170.29425 L 126.11825 170.29425 Z M 138.129969 0.00128125 L 150.141687 0.00128125 L 150.141687 174.997375 L 138.129969 174.997375 Z M 150.141687 0.00128125 L 162.153406 0.00128125 L 162.153406 179.333312 L 150.141687 179.333312 Z M 162.153406 0.00128125 L 174.161219 0.00128125 L 174.161219 183.360656 L 162.153406 183.360656 Z M 174.161219 0.00128125 L 186.172937 0.00128125 L 186.172937 187.122375 L 174.161219 187.122375 Z M 186.172937 0.00128125 L 198.184656 0.00128125 L 198.184656 190.645812 L 186.172937 190.645812 Z M 198.184656 0.00128125 L 210.196375 0.00128125 L 210.196375 193.962219 L 198.184656 193.962219 Z M 210.196375 0.00128125 L 222.208094 0.00128125 L 222.208094 197.095031 L 210.196375 197.095031 Z M 222.208094 0.00128125 L 234.219812 0.00128125 L 234.219812 200.063781 L 222.208094 200.063781 Z M 234.219812 0.00128125 L 246.231531 0.00128125 L 246.231531 202.884094 L 234.219812 202.884094 Z M 246.231531 0.00128125 L 258.24325 0.00128125 L 258.24325 205.567687 L 246.231531 205.567687 Z M 258.24325 0.00128125 L 270.251062 0.00128125 L 270.251062 208.130187 L 258.24325 208.130187 Z M 270.251062 0.00128125 L 282.262781 0.00128125 L 282.262781 210.583312 L 270.251062 210.583312 Z M 282.262781 0.00128125 L 294.2745 0.00128125 L 294.2745 212.934875 L 282.262781 212.934875 Z M 294.2745 0.00128125 L 306.286219 0.00128125 L 306.286219 215.188781 L 294.2745 215.188781 Z M 306.286219 0.00128125 L 318.297937 0.00128125 L 318.297937 217.360656 L 306.286219 217.360656 Z M 318.297937 0.00128125 L 330.309656 0.00128125 L 330.309656 219.446594 L 318.297937 219.446594 Z M 330.309656 0.00128125 L 342.321375 0.00128125 L 342.321375 221.462219 L 330.309656 221.462219 Z M 342.321375 0.00128125 L 354.333094 0.00128125 L 354.333094 223.407531 L 342.321375 223.407531 Z M 354.333094 0.00128125 L 366.340906 0.00128125 L 366.340906 225.282531 L 354.333094 225.282531 Z M 366.340906 0.00128125 L 378.352625 0.00128125 L 378.352625 227.102844 L 366.340906 227.102844 Z M 378.352625 0.00128125 L 390.364344 0.00128125 L 390.364344 228.864562 L 378.352625 228.864562 Z M 390.364344 0.00128125 L 402.376062 0.00128125 L 402.376062 230.5755 L 390.364344 230.5755 Z M 402.376062 0.00128125 L 414.387781 0.00128125 L 414.387781 232.235656 L 402.376062 232.235656 Z M 414.387781 0.00128125 L 426.3995 0.00128125 L 426.3995 233.845031 L 414.387781 233.845031 Z M 426.3995 0.00128125 L 438.411219 0.00128125 L 438.411219 235.411437 L 426.3995 235.411437 Z M 438.411219 0.00128125 L 450.422937 0.00128125 L 450.422937 236.938781 L 438.411219 236.938781 Z M 450.422937 0.00128125 L 462.43075 0.00128125 L 462.43075 238.41925 L 450.422937 238.41925 Z M 462.43075 0.00128125 L 474.442469 0.00128125 L 474.442469 239.864562 L 462.43075 239.864562 Z M 474.442469 0.00128125 L 486.454187 0.00128125 L 486.454187 241.274719 L 474.442469 241.274719 Z M 486.454187 0.00128125 L 498.465906 0.00128125 L 498.465906 242.649719 L 486.454187 242.649719 Z M 498.465906 0.00128125 L 510.477625 0.00128125 L 510.477625 243.993469 L 498.465906 243.993469 Z M 510.477625 0.00128125 L 522.489344 0.00128125 L 522.489344 245.305969 L 510.477625 245.305969 Z M 522.489344 0.00128125 L 534.501062 0.00128125 L 534.501062 246.587219 L 522.489344 246.587219 Z M 534.501062 0.00128125 L 546.512781 0.00128125 L 546.512781 247.841125 L 534.501062 247.841125 Z M 546.512781 0.00128125 L 558.520594 0.00128125 L 558.520594 249.063781 L 546.512781 249.063781 Z M 558.520594 0.00128125 L 570.532312 0.00128125 L 570.532312 250.266906 L 558.520594 250.266906 Z M 570.532312 0.00128125 L 582.544031 0.00128125 L 582.544031 251.442687 L 570.532312 251.442687 Z M 582.544031 0.00128125 L 594.55575 0.00128125 L 594.55575 252.595031 L 582.544031 252.595031 Z M 594.55575 0.00128125 L 606.567469 0.00128125 L 606.567469 253.716125 L 594.55575 253.716125 Z M 594.55575 0.00128125 " transform="matrix(1, 0, 0, -1, 75.663, 292.013)"/>
</g>
<g clip-path="url(#clip-6)">
<path fill="none" stroke-width="0.3985" stroke-linecap="butt" stroke-linejoin="miter" stroke="rgb(0%, 0%, 0%)" stroke-opacity="1" stroke-miterlimit="10" d="M 12.012781 0.00128125 C 12.012781 0.00128125 20.688562 30.485656 24.020594 39.083312 C 27.356531 47.677062 32.700281 56.528625 36.032312 61.9505 C 39.36825 67.376281 44.712 74.177062 48.044031 78.177062 C 51.376062 82.173156 56.723719 87.587219 60.05575 90.759094 C 63.387781 93.930969 68.735437 98.407531 72.067469 101.040344 C 75.3995 103.66925 80.747156 107.477844 84.079187 109.727844 C 87.411219 111.977844 92.754969 115.29425 96.090906 117.263 C 99.422937 119.23175 104.766687 122.157531 108.102625 123.903625 C 111.434656 125.649719 116.778406 128.274719 120.110437 129.845031 C 123.446375 131.415344 128.790125 133.79425 132.122156 135.220031 C 135.458094 136.645812 140.801844 138.817687 144.133875 140.126281 C 147.469812 141.434875 152.813562 143.434875 156.145594 144.641906 C 159.477625 145.848937 164.825281 147.7005 168.157312 148.817687 C 171.489344 149.938781 176.837 151.665344 180.169031 152.708312 C 183.501062 153.755187 188.844812 155.368469 192.18075 156.348937 C 195.512781 157.3255 200.856531 158.841125 204.192469 159.763 C 207.5245 160.684875 212.86825 162.118469 216.200281 162.989562 C 219.536219 163.860656 224.879969 165.212219 228.212 166.036437 C 231.547937 166.860656 236.891687 168.145812 240.223719 168.930969 C 243.559656 169.712219 248.903406 170.938781 252.235437 171.684875 C 255.567469 172.430969 260.915125 173.595031 264.247156 174.305969 C 267.579187 175.016906 272.926844 176.134094 276.258875 176.813781 C 279.590906 177.497375 284.934656 178.559875 288.270594 179.212219 C 291.602625 179.868469 296.946375 180.891906 300.282312 181.516906 C 303.614344 182.141906 308.958094 183.126281 312.294031 183.727844 C 315.626062 184.329406 320.969812 185.274719 324.301844 185.85675 C 327.637781 186.434875 332.981531 187.348937 336.313562 187.907531 C 339.6495 188.466125 344.99325 189.345031 348.325281 189.888 C 351.657312 190.427062 357.004969 191.274719 360.337 191.798156 C 363.669031 192.317687 369.016687 193.138 372.348719 193.641906 C 375.68075 194.149719 381.028406 194.946594 384.360437 195.434875 C 387.692469 195.923156 393.036219 196.692687 396.372156 197.16925 C 399.704187 197.641906 405.047937 198.391906 408.383875 198.852844 C 411.715906 199.313781 417.059656 200.040344 420.391687 200.485656 C 423.727625 200.934875 429.071375 201.641906 432.403406 202.079406 C 435.739344 202.513 441.083094 203.2005 444.415125 203.622375 C 447.747156 204.04425 453.094812 204.712219 456.426844 205.126281 C 459.758875 205.536437 465.106531 206.188781 468.438562 206.591125 C 471.770594 206.993469 477.11825 207.630187 480.450281 208.020812 C 483.782312 208.411437 489.126062 209.032531 492.462 209.415344 C 495.794031 209.79425 501.137781 210.399719 504.473719 210.770812 C 507.80575 211.141906 513.1495 211.73175 516.481531 212.098937 C 519.817469 212.462219 525.161219 213.040344 528.49325 213.395812 C 531.829187 213.751281 537.172937 214.313781 540.504969 214.661437 C 543.837 215.009094 549.184656 215.559875 552.516687 215.903625 C 555.848719 216.243469 561.196375 216.782531 564.528406 217.114562 C 567.860437 217.446594 573.208094 217.977844 576.540125 218.302062 C 579.872156 218.626281 585.215906 219.145812 588.551844 219.466125 C 591.883875 219.782531 600.563562 220.602844 600.563562 220.602844 " transform="matrix(1, 0, 0, -1, 75.663, 292.013)"/>
</g>
<g fill="rgb(0%, 0%, 0%)" fill-opacity="1">
<use xlink:href="#glyph-2-0" x="360.399" y="316.755"/>
<use xlink:href="#glyph-2-1" x="366.487743" y="316.755"/>
<use xlink:href="#glyph-2-2" x="371.967173" y="316.755"/>
</g>
<g fill="rgb(0%, 0%, 0%)" fill-opacity="1">
<use xlink:href="#glyph-2-3" x="384.748491" y="316.755"/>
<use xlink:href="#glyph-2-1" x="389.618608" y="316.755"/>
<use xlink:href="#glyph-2-0" x="395.098038" y="316.755"/>
<use xlink:href="#glyph-2-4" x="401.186781" y="316.755"/>
<use xlink:href="#glyph-2-5" x="407.275524" y="316.755"/>
<use xlink:href="#glyph-2-6" x="410.319895" y="316.755"/>
<use xlink:href="#glyph-2-5" x="414.581796" y="316.755"/>
<use xlink:href="#glyph-2-1" x="417.626167" y="316.755"/>
<use xlink:href="#glyph-2-0" x="423.105597" y="316.755"/>
<use xlink:href="#glyph-2-7" x="429.19434" y="316.755"/>
</g>
<g fill="rgb(0%, 0%, 0%)" fill-opacity="1">
<use xlink:href="#glyph-3-0" x="50.091" y="169.852"/>
<use xlink:href="#glyph-3-1" x="50.091" y="163.763257"/>
<use xlink:href="#glyph-3-2" x="50.091" y="158.283827"/>
</g>
<g fill="rgb(0%, 0%, 0%)" fill-opacity="1">
<use xlink:href="#glyph-3-3" x="50.091" y="145.502509"/>
</g>
<g fill="rgb(0%, 0%, 0%)" fill-opacity="1">
<use xlink:href="#glyph-3-4" x="50.091" y="140.928281"/>
<use xlink:href="#glyph-3-5" x="50.091" y="134.839538"/>
<use xlink:href="#glyph-3-3" x="50.091" y="129.969421"/>
</g>
<g fill="rgb(0%, 0%, 0%)" fill-opacity="1">
<use xlink:href="#glyph-3-6" x="50.091" y="125.406151"/>
<use xlink:href="#glyph-3-7" x="50.091" y="119.622065"/>
</g>
<path fill-rule="nonzero" fill="rgb(100%, 100%, 100%)" fill-opacity="1" stroke-width="0.3985" stroke-linecap="butt" stroke-linejoin="miter" stroke="rgb(0%, 0%, 0%)" stroke-opacity="1" stroke-miterlimit="10" d="M 19.477625 258.876281 L 110.782312 258.876281 L 110.782312 289.712219 L 19.477625 289.712219 Z M 19.477625 258.876281 " transform="matrix(1, 0, 0, -1, 75.663, 292.013)"/>
<path fill="none" stroke-width="0.3985" stroke-linecap="butt" stroke-linejoin="miter" stroke="rgb(0%, 0%, 0%)" stroke-opacity="1" stroke-miterlimit="10" d="M -1.493875 -0.00009375 L 1.494406 -0.00009375 Z M 7.010031 -0.00009375 L 9.998312 -0.00009375 Z M 15.513937 -0.00009375 L 18.502219 -0.00009375 Z M 15.513937 -0.00009375 " transform="matrix(1, 0, 0, -1, 99.822, 11.246)"/>
<g fill="rgb(0%, 0%, 0%)" fill-opacity="1">
<use xlink:href="#glyph-1-1" x="120.516" y="14.707"/>
</g>
<g fill="rgb(0%, 0%, 0%)" fill-opacity="1">
<use xlink:href="#glyph-4-0" x="128.797" y="16.202"/>
</g>
<g fill="rgb(0%, 0%, 0%)" fill-opacity="1">
<use xlink:href="#glyph-0-8" x="136.988" y="14.707"/>
</g>
<g fill="rgb(0%, 0%, 0%)" fill-opacity="1">
<use xlink:href="#glyph-5-0" x="147.504" y="7.235"/>
</g>
<g fill="rgb(0%, 0%, 0%)" fill-opacity="1">
<use xlink:href="#glyph-4-0" x="158.02" y="9.698"/>
</g>
<g fill="rgb(0%, 0%, 0%)" fill-opacity="1">
<use xlink:href="#glyph-4-1" x="158.02" y="17.696"/>
</g>
<g fill="rgb(0%, 0%, 0%)" fill-opacity="1">
<use xlink:href="#glyph-6-0" x="162.42256" y="17.696"/>
<use xlink:href="#glyph-6-1" x="168.538583" y="17.696"/>
</g>
<g fill="rgb(0%, 0%, 0%)" fill-opacity="1">
<use xlink:href="#glyph-6-1" x="176.081" y="10.785"/>
</g>
<path fill="none" stroke-width="0.398" stroke-linecap="butt" stroke-linejoin="miter" stroke="rgb(0%, 0%, 0%)" stroke-opacity="1" stroke-miterlimit="10" d="M -0.00171875 -0.00175 L 4.404531 -0.00175 " transform="matrix(1, 0, 0, -1, 175.865, 12.217)"/>
<g fill="rgb(0%, 0%, 0%)" fill-opacity="1">
<use xlink:href="#glyph-4-1" x="175.865" y="18.143"/>
</g>
<path fill="none" stroke-width="0.3985" stroke-linecap="butt" stroke-linejoin="miter" stroke="rgb(0%, 0%, 0%)" stroke-opacity="1" stroke-miterlimit="10" d="M -0.0016875 -0.001875 C -0.0016875 -0.001875 6.142844 -0.001875 8.502219 -0.001875 C 10.8655 -0.001875 17.010031 -0.001875 17.010031 -0.001875 " transform="matrix(1, 0, 0, -1, 99.822, 24.67)"/>
<g fill="rgb(0%, 0%, 0%)" fill-opacity="1">
<use xlink:href="#glyph-0-9" x="139.975" y="27.659"/>
<use xlink:href="#glyph-0-10" x="142.74261" y="27.659"/>
<use xlink:href="#glyph-0-11" x="148.277831" y="27.659"/>
</g>
<g fill="rgb(0%, 0%, 0%)" fill-opacity="1">
<use xlink:href="#glyph-1-2" x="152.152286" y="27.659"/>
</g>
<g fill="rgb(0%, 0%, 0%)" fill-opacity="1">
<use xlink:href="#glyph-0-12" x="158.131839" y="27.659"/>
</g>
</svg>
