<?xml version="1.0" encoding="UTF-8"?>
<svg xmlns="http://www.w3.org/2000/svg" xmlns:xlink="http://www.w3.org/1999/xlink" width="686.752pt" height="358.196pt" viewBox="0 0 686.752 358.196">
<defs>
<g>
<g id="glyph-0-0">
<path d="M 4.578125 -3.1875 C 4.578125 -3.984375 4.53125 -4.78125 4.1875 -5.515625 C 3.734375 -6.484375 2.90625 -6.640625 2.5 -6.640625 C 1.890625 -6.640625 1.171875 -6.375 0.75 -5.453125 C 0.4375 -4.765625 0.390625 -3.984375 0.390625 -3.1875 C 0.390625 -2.4375 0.421875 -1.546875 0.84375 -0.78125 C 1.265625 0.015625 2 0.21875 2.484375 0.21875 C 3.015625 0.21875 3.78125 0.015625 4.21875 -0.9375 C 4.53125 -1.625 4.578125 -2.40625 4.578125 -3.1875 Z M 2.484375 0 C 2.09375 0 1.5 -0.25 1.328125 -1.203125 C 1.21875 -1.796875 1.21875 -2.71875 1.21875 -3.3125 C 1.21875 -3.953125 1.21875 -4.609375 1.296875 -5.140625 C 1.484375 -6.328125 2.234375 -6.421875 2.484375 -6.421875 C 2.8125 -6.421875 3.46875 -6.234375 3.65625 -5.25 C 3.765625 -4.6875 3.765625 -3.9375 3.765625 -3.3125 C 3.765625 -2.5625 3.765625 -1.890625 3.65625 -1.25 C 3.5 -0.296875 2.9375 0 2.484375 0 Z M 2.484375 0 "/>
</g>
<g id="glyph-0-1">
<path d="M 1.265625 -0.765625 L 2.328125 -1.796875 C 3.875 -3.171875 4.46875 -3.703125 4.46875 -4.703125 C 4.46875 -5.84375 3.578125 -6.640625 2.359375 -6.640625 C 1.234375 -6.640625 0.5 -5.71875 0.5 -4.828125 C 0.5 -4.28125 1 -4.28125 1.03125 -4.28125 C 1.203125 -4.28125 1.546875 -4.390625 1.546875 -4.8125 C 1.546875 -5.0625 1.359375 -5.328125 1.015625 -5.328125 C 0.9375 -5.328125 0.921875 -5.328125 0.890625 -5.3125 C 1.109375 -5.96875 1.65625 -6.328125 2.234375 -6.328125 C 3.140625 -6.328125 3.5625 -5.515625 3.5625 -4.703125 C 3.5625 -3.90625 3.078125 -3.125 2.515625 -2.5 L 0.609375 -0.375 C 0.5 -0.265625 0.5 -0.234375 0.5 0 L 4.203125 0 L 4.46875 -1.734375 L 4.234375 -1.734375 C 4.171875 -1.4375 4.109375 -1 4 -0.84375 C 3.9375 -0.765625 3.28125 -0.765625 3.0625 -0.765625 Z M 1.265625 -0.765625 "/>
</g>
<g id="glyph-0-2">
<path d="M 2.9375 -1.640625 L 2.9375 -0.78125 C 2.9375 -0.421875 2.90625 -0.3125 2.171875 -0.3125 L 1.96875 -0.3125 L 1.96875 0 C 2.375 -0.03125 2.890625 -0.03125 3.3125 -0.03125 C 3.734375 -0.03125 4.25 -0.03125 4.671875 0 L 4.671875 -0.3125 L 4.453125 -0.3125 C 3.71875 -0.3125 3.703125 -0.421875 3.703125 -0.78125 L 3.703125 -1.640625 L 4.6875 -1.640625 L 4.6875 -1.953125 L 3.703125 -1.953125 L 3.703125 -6.484375 C 3.703125 -6.6875 3.703125 -6.75 3.53125 -6.75 C 3.453125 -6.75 3.421875 -6.75 3.34375 -6.625 L 0.28125 -1.953125 L 0.28125 -1.640625 Z M 2.984375 -1.953125 L 0.5625 -1.953125 L 2.984375 -5.671875 Z M 2.984375 -1.953125 "/>
</g>
<g id="glyph-0-3">
<path d="M 1.3125 -3.265625 L 1.3125 -3.515625 C 1.3125 -6.03125 2.546875 -6.390625 3.0625 -6.390625 C 3.296875 -6.390625 3.71875 -6.328125 3.9375 -5.984375 C 3.78125 -5.984375 3.390625 -5.984375 3.390625 -5.546875 C 3.390625 -5.234375 3.625 -5.078125 3.84375 -5.078125 C 4 -5.078125 4.3125 -5.171875 4.3125 -5.5625 C 4.3125 -6.15625 3.875 -6.640625 3.046875 -6.640625 C 1.765625 -6.640625 0.421875 -5.359375 0.421875 -3.15625 C 0.421875 -0.484375 1.578125 0.21875 2.5 0.21875 C 3.609375 0.21875 4.5625 -0.71875 4.5625 -2.03125 C 4.5625 -3.296875 3.671875 -4.25 2.5625 -4.25 C 1.890625 -4.25 1.515625 -3.75 1.3125 -3.265625 Z M 2.5 -0.0625 C 1.875 -0.0625 1.578125 -0.65625 1.515625 -0.8125 C 1.328125 -1.28125 1.328125 -2.078125 1.328125 -2.25 C 1.328125 -3.03125 1.65625 -4.03125 2.546875 -4.03125 C 2.71875 -4.03125 3.171875 -4.03125 3.484375 -3.40625 C 3.65625 -3.046875 3.65625 -2.53125 3.65625 -2.046875 C 3.65625 -1.5625 3.65625 -1.0625 3.484375 -0.703125 C 3.1875 -0.109375 2.734375 -0.0625 2.5 -0.0625 Z M 2.5 -0.0625 "/>
</g>
<g id="glyph-0-4">
<path d="M 1.625 -4.5625 C 1.171875 -4.859375 1.125 -5.1875 1.125 -5.359375 C 1.125 -5.96875 1.78125 -6.390625 2.484375 -6.390625 C 3.203125 -6.390625 3.84375 -5.875 3.84375 -5.15625 C 3.84375 -4.578125 3.453125 -4.109375 2.859375 -3.765625 Z M 3.078125 -3.609375 C 3.796875 -3.984375 4.28125 -4.5 4.28125 -5.15625 C 4.28125 -6.078125 3.40625 -6.640625 2.5 -6.640625 C 1.5 -6.640625 0.6875 -5.90625 0.6875 -4.96875 C 0.6875 -4.796875 0.703125 -4.34375 1.125 -3.875 C 1.234375 -3.765625 1.609375 -3.515625 1.859375 -3.34375 C 1.28125 -3.046875 0.421875 -2.5 0.421875 -1.5 C 0.421875 -0.453125 1.4375 0.21875 2.484375 0.21875 C 3.609375 0.21875 4.5625 -0.609375 4.5625 -1.671875 C 4.5625 -2.03125 4.453125 -2.484375 4.0625 -2.90625 C 3.875 -3.109375 3.71875 -3.203125 3.078125 -3.609375 Z M 2.078125 -3.1875 L 3.3125 -2.40625 C 3.59375 -2.21875 4.0625 -1.921875 4.0625 -1.3125 C 4.0625 -0.578125 3.3125 -0.0625 2.5 -0.0625 C 1.640625 -0.0625 0.921875 -0.671875 0.921875 -1.5 C 0.921875 -2.078125 1.234375 -2.71875 2.078125 -3.1875 Z M 2.078125 -3.1875 "/>
</g>
<g id="glyph-0-5">
<path d="M 2.9375 -6.375 C 2.9375 -6.625 2.9375 -6.640625 2.703125 -6.640625 C 2.078125 -6 1.203125 -6 0.890625 -6 L 0.890625 -5.6875 C 1.09375 -5.6875 1.671875 -5.6875 2.1875 -5.953125 L 2.1875 -0.78125 C 2.1875 -0.421875 2.15625 -0.3125 1.265625 -0.3125 L 0.953125 -0.3125 L 0.953125 0 C 1.296875 -0.03125 2.15625 -0.03125 2.5625 -0.03125 C 2.953125 -0.03125 3.828125 -0.03125 4.171875 0 L 4.171875 -0.3125 L 3.859375 -0.3125 C 2.953125 -0.3125 2.9375 -0.421875 2.9375 -0.78125 Z M 2.9375 -6.375 "/>
</g>
<g id="glyph-0-6">
<path d="M 2.890625 -3.515625 C 3.703125 -3.78125 4.28125 -4.46875 4.28125 -5.265625 C 4.28125 -6.078125 3.40625 -6.640625 2.453125 -6.640625 C 1.453125 -6.640625 0.6875 -6.046875 0.6875 -5.28125 C 0.6875 -4.953125 0.90625 -4.765625 1.203125 -4.765625 C 1.5 -4.765625 1.703125 -4.984375 1.703125 -5.28125 C 1.703125 -5.765625 1.234375 -5.765625 1.09375 -5.765625 C 1.390625 -6.265625 2.046875 -6.390625 2.40625 -6.390625 C 2.828125 -6.390625 3.375 -6.171875 3.375 -5.28125 C 3.375 -5.15625 3.34375 -4.578125 3.09375 -4.140625 C 2.796875 -3.65625 2.453125 -3.625 2.203125 -3.625 C 2.125 -3.609375 1.890625 -3.59375 1.8125 -3.59375 C 1.734375 -3.578125 1.671875 -3.5625 1.671875 -3.46875 C 1.671875 -3.359375 1.734375 -3.359375 1.90625 -3.359375 L 2.34375 -3.359375 C 3.15625 -3.359375 3.53125 -2.6875 3.53125 -1.703125 C 3.53125 -0.34375 2.84375 -0.0625 2.40625 -0.0625 C 1.96875 -0.0625 1.21875 -0.234375 0.875 -0.8125 C 1.21875 -0.765625 1.53125 -0.984375 1.53125 -1.359375 C 1.53125 -1.71875 1.265625 -1.921875 0.984375 -1.921875 C 0.734375 -1.921875 0.421875 -1.78125 0.421875 -1.34375 C 0.421875 -0.4375 1.34375 0.21875 2.4375 0.21875 C 3.65625 0.21875 4.5625 -0.6875 4.5625 -1.703125 C 4.5625 -2.515625 3.921875 -3.296875 2.890625 -3.515625 Z M 2.890625 -3.515625 "/>
</g>
<g id="glyph-0-7">
<path d="M 4.46875 -2 C 4.46875 -3.1875 3.65625 -4.1875 2.578125 -4.1875 C 2.109375 -4.1875 1.671875 -4.03125 1.3125 -3.671875 L 1.3125 -5.625 C 1.515625 -5.5625 1.84375 -5.5 2.15625 -5.5 C 3.390625 -5.5 4.09375 -6.40625 4.09375 -6.53125 C 4.09375 -6.59375 4.0625 -6.640625 3.984375 -6.640625 C 3.984375 -6.640625 3.953125 -6.640625 3.90625 -6.609375 C 3.703125 -6.515625 3.21875 -6.3125 2.546875 -6.3125 C 2.15625 -6.3125 1.6875 -6.390625 1.21875 -6.59375 C 1.140625 -6.625 1.125 -6.625 1.109375 -6.625 C 1 -6.625 1 -6.546875 1 -6.390625 L 1 -3.4375 C 1 -3.265625 1 -3.1875 1.140625 -3.1875 C 1.21875 -3.1875 1.234375 -3.203125 1.28125 -3.265625 C 1.390625 -3.421875 1.75 -3.96875 2.5625 -3.96875 C 3.078125 -3.96875 3.328125 -3.515625 3.40625 -3.328125 C 3.5625 -2.953125 3.59375 -2.578125 3.59375 -2.078125 C 3.59375 -1.71875 3.59375 -1.125 3.34375 -0.703125 C 3.109375 -0.3125 2.734375 -0.0625 2.28125 -0.0625 C 1.5625 -0.0625 0.984375 -0.59375 0.8125 -1.171875 C 0.84375 -1.171875 0.875 -1.15625 0.984375 -1.15625 C 1.3125 -1.15625 1.484375 -1.40625 1.484375 -1.640625 C 1.484375 -1.890625 1.3125 -2.140625 0.984375 -2.140625 C 0.84375 -2.140625 0.5 -2.0625 0.5 -1.609375 C 0.5 -0.75 1.1875 0.21875 2.296875 0.21875 C 3.453125 0.21875 4.46875 -0.734375 4.46875 -2 Z M 4.46875 -2 "/>
</g>
<g id="glyph-0-8">
<path d="M 6.84375 -3.265625 C 7 -3.265625 7.1875 -3.265625 7.1875 -3.453125 C 7.1875 -3.65625 7 -3.65625 6.859375 -3.65625 L 0.890625 -3.65625 C 0.75 -3.65625 0.5625 -3.65625 0.5625 -3.453125 C 0.5625 -3.265625 0.75 -3.265625 0.890625 -3.265625 Z M 6.859375 -1.328125 C 7 -1.328125 7.1875 -1.328125 7.1875 -1.53125 C 7.1875 -1.71875 7 -1.71875 6.84375 -1.71875 L 0.890625 -1.71875 C 0.75 -1.71875 0.5625 -1.71875 0.5625 -1.53125 C 0.5625 -1.328125 0.75 -1.328125 0.890625 -1.328125 Z M 6.859375 -1.328125 "/>
</g>
<g id="glyph-0-9">
<path d="M 1.765625 -6.921875 L 0.328125 -6.8125 L 0.328125 -6.5 C 1.03125 -6.5 1.109375 -6.4375 1.109375 -5.9375 L 1.109375 -0.75 C 1.109375 -0.3125 1 -0.3125 0.328125 -0.3125 L 0.328125 0 C 0.65625 -0.015625 1.1875 -0.03125 1.4375 -0.03125 C 1.6875 -0.03125 2.171875 -0.015625 2.546875 0 L 2.546875 -0.3125 C 1.875 -0.3125 1.765625 -0.3125 1.765625 -0.75 Z M 1.765625 -6.921875 "/>
</g>
<g id="glyph-0-10">
<path d="M 1.09375 -3.421875 L 1.09375 -0.75 C 1.09375 -0.3125 0.984375 -0.3125 0.3125 -0.3125 L 0.3125 0 C 0.671875 -0.015625 1.171875 -0.03125 1.453125 -0.03125 C 1.703125 -0.03125 2.21875 -0.015625 2.5625 0 L 2.5625 -0.3125 C 1.890625 -0.3125 1.78125 -0.3125 1.78125 -0.75 L 1.78125 -2.59375 C 1.78125 -3.625 2.5 -4.1875 3.125 -4.1875 C 3.765625 -4.1875 3.875 -3.65625 3.875 -3.078125 L 3.875 -0.75 C 3.875 -0.3125 3.765625 -0.3125 3.09375 -0.3125 L 3.09375 0 C 3.4375 -0.015625 3.953125 -0.03125 4.21875 -0.03125 C 4.46875 -0.03125 5 -0.015625 5.328125 0 L 5.328125 -0.3125 C 4.8125 -0.3125 4.5625 -0.3125 4.5625 -0.609375 L 4.5625 -2.515625 C 4.5625 -3.375 4.5625 -3.671875 4.25 -4.03125 C 4.109375 -4.203125 3.78125 -4.40625 3.203125 -4.40625 C 2.46875 -4.40625 2 -3.984375 1.71875 -3.359375 L 1.71875 -4.40625 L 0.3125 -4.296875 L 0.3125 -3.984375 C 1.015625 -3.984375 1.09375 -3.921875 1.09375 -3.421875 Z M 1.09375 -3.421875 "/>
</g>
<g id="glyph-0-11">
<path d="M 3.296875 2.390625 C 3.296875 2.359375 3.296875 2.34375 3.125 2.171875 C 1.890625 0.921875 1.5625 -0.96875 1.5625 -2.5 C 1.5625 -4.234375 1.9375 -5.96875 3.171875 -7.203125 C 3.296875 -7.328125 3.296875 -7.34375 3.296875 -7.375 C 3.296875 -7.453125 3.265625 -7.484375 3.203125 -7.484375 C 3.09375 -7.484375 2.203125 -6.796875 1.609375 -5.53125 C 1.109375 -4.4375 0.984375 -3.328125 0.984375 -2.5 C 0.984375 -1.71875 1.09375 -0.515625 1.640625 0.625 C 2.25 1.84375 3.09375 2.5 3.203125 2.5 C 3.265625 2.5 3.296875 2.46875 3.296875 2.390625 Z M 3.296875 2.390625 "/>
</g>
<g id="glyph-0-12">
<path d="M 2.875 -2.5 C 2.875 -3.265625 2.765625 -4.46875 2.21875 -5.609375 C 1.625 -6.828125 0.765625 -7.484375 0.671875 -7.484375 C 0.609375 -7.484375 0.5625 -7.4375 0.5625 -7.375 C 0.5625 -7.34375 0.5625 -7.328125 0.75 -7.140625 C 1.734375 -6.15625 2.296875 -4.578125 2.296875 -2.5 C 2.296875 -0.78125 1.9375 0.96875 0.703125 2.21875 C 0.5625 2.34375 0.5625 2.359375 0.5625 2.390625 C 0.5625 2.453125 0.609375 2.5 0.671875 2.5 C 0.765625 2.5 1.671875 1.8125 2.25 0.546875 C 2.765625 -0.546875 2.875 -1.65625 2.875 -2.5 Z M 2.875 -2.5 "/>
</g>
<g id="glyph-1-0">
<path d="M 1.90625 -0.53125 C 1.90625 -0.8125 1.671875 -1.0625 1.390625 -1.0625 C 1.09375 -1.0625 0.859375 -0.8125 0.859375 -0.53125 C 0.859375 -0.234375 1.09375 0 1.390625 0 C 1.671875 0 1.90625 -0.234375 1.90625 -0.53125 Z M 1.90625 -0.53125 "/>
</g>
<g id="glyph-1-1">
<path d="M 7.609375 -6.046875 C 7.703125 -6.40625 7.71875 -6.5 8.4375 -6.5 C 8.703125 -6.5 8.78125 -6.5 8.78125 -6.703125 C 8.78125 -6.8125 8.671875 -6.8125 8.640625 -6.8125 C 8.359375 -6.8125 7.640625 -6.78125 7.359375 -6.78125 C 7.078125 -6.78125 6.375 -6.8125 6.078125 -6.8125 C 6 -6.8125 5.890625 -6.8125 5.890625 -6.609375 C 5.890625 -6.5 5.984375 -6.5 6.171875 -6.5 C 6.1875 -6.5 6.375 -6.5 6.546875 -6.484375 C 6.734375 -6.453125 6.8125 -6.453125 6.8125 -6.3125 C 6.8125 -6.28125 6.8125 -6.265625 6.78125 -6.125 L 6.1875 -3.703125 L 3.140625 -3.703125 L 3.734375 -6.046875 C 3.8125 -6.40625 3.84375 -6.5 4.5625 -6.5 C 4.828125 -6.5 4.90625 -6.5 4.90625 -6.703125 C 4.90625 -6.8125 4.796875 -6.8125 4.765625 -6.8125 C 4.484375 -6.8125 3.765625 -6.78125 3.484375 -6.78125 C 3.203125 -6.78125 2.5 -6.8125 2.203125 -6.8125 C 2.125 -6.8125 2.015625 -6.8125 2.015625 -6.609375 C 2.015625 -6.5 2.109375 -6.5 2.296875 -6.5 C 2.3125 -6.5 2.5 -6.5 2.671875 -6.484375 C 2.84375 -6.453125 2.9375 -6.453125 2.9375 -6.3125 C 2.9375 -6.28125 2.9375 -6.25 2.90625 -6.125 L 1.5625 -0.78125 C 1.46875 -0.390625 1.453125 -0.3125 0.65625 -0.3125 C 0.484375 -0.3125 0.390625 -0.3125 0.390625 -0.109375 C 0.390625 0 0.515625 0 0.53125 0 C 0.8125 0 1.515625 -0.03125 1.796875 -0.03125 C 2 -0.03125 2.21875 -0.015625 2.4375 -0.015625 C 2.65625 -0.015625 2.875 0 3.078125 0 C 3.15625 0 3.28125 0 3.28125 -0.203125 C 3.28125 -0.3125 3.1875 -0.3125 3 -0.3125 C 2.625 -0.3125 2.359375 -0.3125 2.359375 -0.484375 C 2.359375 -0.546875 2.375 -0.59375 2.375 -0.65625 L 3.0625 -3.390625 L 6.09375 -3.390625 C 5.6875 -1.734375 5.453125 -0.78125 5.40625 -0.640625 C 5.3125 -0.3125 5.125 -0.3125 4.5 -0.3125 C 4.359375 -0.3125 4.265625 -0.3125 4.265625 -0.109375 C 4.265625 0 4.390625 0 4.40625 0 C 4.6875 0 5.390625 -0.03125 5.671875 -0.03125 C 5.875 -0.03125 6.09375 -0.015625 6.3125 -0.015625 C 6.53125 -0.015625 6.75 0 6.953125 0 C 7.03125 0 7.15625 0 7.15625 -0.203125 C 7.15625 -0.3125 7.0625 -0.3125 6.875 -0.3125 C 6.515625 -0.3125 6.234375 -0.3125 6.234375 -0.484375 C 6.234375 -0.546875 6.25 -0.59375 6.265625 -0.65625 Z M 7.609375 -6.046875 "/>
</g>
<g id="glyph-1-2">
<path d="M 0.875 -0.59375 C 0.84375 -0.4375 0.78125 -0.203125 0.78125 -0.15625 C 0.78125 0.015625 0.921875 0.109375 1.078125 0.109375 C 1.203125 0.109375 1.375 0.03125 1.453125 -0.171875 C 1.453125 -0.1875 1.578125 -0.65625 1.640625 -0.90625 L 1.859375 -1.796875 C 1.90625 -2.03125 1.96875 -2.25 2.03125 -2.46875 C 2.0625 -2.640625 2.140625 -2.9375 2.15625 -2.96875 C 2.296875 -3.28125 2.828125 -4.1875 3.78125 -4.1875 C 4.234375 -4.1875 4.3125 -3.8125 4.3125 -3.484375 C 4.3125 -2.875 3.828125 -1.59375 3.671875 -1.171875 C 3.578125 -0.9375 3.5625 -0.8125 3.5625 -0.703125 C 3.5625 -0.234375 3.921875 0.109375 4.390625 0.109375 C 5.328125 0.109375 5.6875 -1.34375 5.6875 -1.421875 C 5.6875 -1.53125 5.609375 -1.53125 5.578125 -1.53125 C 5.46875 -1.53125 5.46875 -1.5 5.421875 -1.34375 C 5.21875 -0.671875 4.890625 -0.109375 4.40625 -0.109375 C 4.234375 -0.109375 4.171875 -0.203125 4.171875 -0.4375 C 4.171875 -0.6875 4.25 -0.921875 4.34375 -1.140625 C 4.53125 -1.671875 4.953125 -2.765625 4.953125 -3.34375 C 4.953125 -4 4.53125 -4.40625 3.8125 -4.40625 C 2.90625 -4.40625 2.421875 -3.765625 2.25 -3.53125 C 2.203125 -4.09375 1.796875 -4.40625 1.328125 -4.40625 C 0.875 -4.40625 0.6875 -4.015625 0.59375 -3.84375 C 0.421875 -3.5 0.296875 -2.90625 0.296875 -2.875 C 0.296875 -2.765625 0.390625 -2.765625 0.40625 -2.765625 C 0.515625 -2.765625 0.515625 -2.78125 0.578125 -3 C 0.75 -3.703125 0.953125 -4.1875 1.3125 -4.1875 C 1.5 -4.1875 1.609375 -4.0625 1.609375 -3.734375 C 1.609375 -3.515625 1.578125 -3.40625 1.453125 -2.890625 Z M 0.875 -0.59375 "/>
</g>
<g id="glyph-2-0">
<path d="M 1.421875 -4.453125 L 1.421875 -0.984375 C 1.421875 -0.40625 1.28125 -0.40625 0.421875 -0.40625 L 0.421875 0 C 0.875 -0.015625 1.53125 -0.03125 1.875 -0.03125 C 2.21875 -0.03125 2.890625 -0.015625 3.328125 0 L 3.328125 -0.40625 C 2.46875 -0.40625 2.3125 -0.40625 2.3125 -0.984375 L 2.3125 -3.375 C 2.3125 -4.71875 3.234375 -5.4375 4.0625 -5.4375 C 4.890625 -5.4375 5.03125 -4.734375 5.03125 -4 L 5.03125 -0.984375 C 5.03125 -0.40625 4.890625 -0.40625 4.015625 -0.40625 L 4.015625 0 C 4.46875 -0.015625 5.125 -0.03125 5.484375 -0.03125 C 5.8125 -0.03125 6.484375 -0.015625 6.9375 0 L 6.9375 -0.40625 C 6.25 -0.40625 5.9375 -0.40625 5.921875 -0.796875 L 5.921875 -3.265625 C 5.921875 -4.375 5.921875 -4.78125 5.515625 -5.25 C 5.34375 -5.46875 4.90625 -5.71875 4.15625 -5.71875 C 3.21875 -5.71875 2.609375 -5.171875 2.234375 -4.359375 L 2.234375 -5.71875 L 0.421875 -5.578125 L 0.421875 -5.1875 C 1.328125 -5.1875 1.421875 -5.09375 1.421875 -4.453125 Z M 1.421875 -4.453125 "/>
</g>
<g id="glyph-2-1">
<path d="M 6.09375 -2.765625 C 6.09375 -4.4375 4.8125 -5.796875 3.234375 -5.796875 C 1.625 -5.796875 0.359375 -4.390625 0.359375 -2.765625 C 0.359375 -1.09375 1.703125 0.140625 3.21875 0.140625 C 4.796875 0.140625 6.09375 -1.125 6.09375 -2.765625 Z M 3.234375 -0.1875 C 2.6875 -0.1875 2.109375 -0.453125 1.765625 -1.046875 C 1.4375 -1.625 1.4375 -2.40625 1.4375 -2.875 C 1.4375 -3.375 1.4375 -4.078125 1.75 -4.65625 C 2.09375 -5.25 2.703125 -5.515625 3.21875 -5.515625 C 3.796875 -5.515625 4.359375 -5.234375 4.6875 -4.671875 C 5.03125 -4.125 5.03125 -3.375 5.03125 -2.875 C 5.03125 -2.40625 5.03125 -1.703125 4.734375 -1.140625 C 4.453125 -0.5625 3.890625 -0.1875 3.234375 -0.1875 Z M 3.234375 -0.1875 "/>
</g>
<g id="glyph-2-2">
<path d="M 6.71875 -1.71875 L 9.625 -1.71875 C 9.8125 -1.71875 10.046875 -1.71875 10.046875 -1.984375 C 10.046875 -2.234375 9.8125 -2.234375 9.609375 -2.234375 L 6.875 -2.234375 L 7.390625 -4.234375 L 9.609375 -4.234375 C 9.8125 -4.234375 10.046875 -4.234375 10.046875 -4.5 C 10.046875 -4.75 9.8125 -4.75 9.625 -4.75 L 7.546875 -4.75 L 8.5625 -8.5 C 8.578125 -8.515625 8.609375 -8.671875 8.609375 -8.734375 C 8.609375 -8.875 8.5 -8.984375 8.359375 -8.984375 C 8.140625 -8.984375 8.109375 -8.828125 8.0625 -8.671875 L 7.015625 -4.75 L 4.578125 -4.75 L 5.59375 -8.5 C 5.609375 -8.515625 5.640625 -8.671875 5.640625 -8.734375 C 5.640625 -8.875 5.53125 -8.984375 5.390625 -8.984375 C 5.1875 -8.984375 5.140625 -8.828125 5.109375 -8.671875 L 4.046875 -4.75 L 1.15625 -4.75 C 0.96875 -4.75 0.71875 -4.75 0.71875 -4.5 C 0.71875 -4.234375 0.96875 -4.234375 1.171875 -4.234375 L 3.90625 -4.234375 L 3.375 -2.234375 L 1.171875 -2.234375 C 0.96875 -2.234375 0.71875 -2.234375 0.71875 -1.984375 C 0.71875 -1.71875 0.96875 -1.71875 1.15625 -1.71875 L 3.21875 -1.71875 L 2.21875 2.015625 C 2.203125 2.046875 2.15625 2.203125 2.15625 2.25 C 2.15625 2.390625 2.28125 2.515625 2.421875 2.515625 C 2.625 2.515625 2.671875 2.34375 2.703125 2.203125 L 3.75 -1.71875 L 6.1875 -1.71875 L 5.1875 2.015625 C 5.171875 2.046875 5.125 2.203125 5.125 2.25 C 5.125 2.390625 5.25 2.515625 5.390625 2.515625 C 5.59375 2.515625 5.640625 2.34375 5.671875 2.203125 Z M 3.90625 -2.234375 L 4.4375 -4.234375 L 6.859375 -4.234375 L 6.34375 -2.234375 Z M 3.90625 -2.234375 "/>
</g>
<g id="glyph-2-3">
<path d="M 1.515625 -2.828125 C 1.515625 -4.9375 2.578125 -5.484375 3.265625 -5.484375 C 3.375 -5.484375 4.203125 -5.46875 4.65625 -5 C 4.125 -4.96875 4.046875 -4.578125 4.046875 -4.40625 C 4.046875 -4.0625 4.28125 -3.8125 4.640625 -3.8125 C 4.96875 -3.8125 5.234375 -4.03125 5.234375 -4.421875 C 5.234375 -5.296875 4.25 -5.796875 3.25 -5.796875 C 1.625 -5.796875 0.4375 -4.40625 0.4375 -2.796875 C 0.4375 -1.140625 1.71875 0.140625 3.21875 0.140625 C 4.96875 0.140625 5.375 -1.40625 5.375 -1.546875 C 5.375 -1.671875 5.25 -1.671875 5.203125 -1.671875 C 5.09375 -1.671875 5.0625 -1.625 5.03125 -1.546875 C 4.65625 -0.34375 3.828125 -0.1875 3.34375 -0.1875 C 2.65625 -0.1875 1.515625 -0.734375 1.515625 -2.828125 Z M 1.515625 -2.828125 "/>
</g>
<g id="glyph-2-4">
<path d="M 4.921875 -0.71875 L 4.921875 0.140625 L 6.828125 0 L 6.828125 -0.40625 C 5.921875 -0.40625 5.8125 -0.5 5.8125 -1.125 L 5.8125 -8.984375 L 3.953125 -8.84375 L 3.953125 -8.453125 C 4.859375 -8.453125 4.96875 -8.359375 4.96875 -7.71875 L 4.96875 -4.921875 C 4.578125 -5.390625 4.03125 -5.71875 3.328125 -5.71875 C 1.796875 -5.71875 0.4375 -4.453125 0.4375 -2.78125 C 0.4375 -1.140625 1.703125 0.140625 3.1875 0.140625 C 4.015625 0.140625 4.59375 -0.296875 4.921875 -0.71875 Z M 4.921875 -4.1875 L 4.921875 -1.53125 C 4.921875 -1.296875 4.921875 -1.265625 4.78125 -1.046875 C 4.390625 -0.421875 3.8125 -0.140625 3.25 -0.140625 C 2.671875 -0.140625 2.203125 -0.484375 1.890625 -0.96875 C 1.546875 -1.5 1.515625 -2.234375 1.515625 -2.765625 C 1.515625 -3.25 1.546875 -4.03125 1.921875 -4.609375 C 2.1875 -5.015625 2.6875 -5.4375 3.375 -5.4375 C 3.828125 -5.4375 4.375 -5.25 4.78125 -4.65625 C 4.921875 -4.4375 4.921875 -4.421875 4.921875 -4.1875 Z M 4.921875 -4.1875 "/>
</g>
<g id="glyph-2-5">
<path d="M 2.296875 -5.71875 L 0.484375 -5.578125 L 0.484375 -5.1875 C 1.328125 -5.1875 1.4375 -5.109375 1.4375 -4.46875 L 1.4375 -0.984375 C 1.4375 -0.40625 1.296875 -0.40625 0.421875 -0.40625 L 0.421875 0 C 0.84375 -0.015625 1.546875 -0.03125 1.859375 -0.03125 C 2.3125 -0.03125 2.765625 -0.015625 3.203125 0 L 3.203125 -0.40625 C 2.34375 -0.40625 2.296875 -0.46875 2.296875 -0.96875 Z M 2.34375 -7.984375 C 2.34375 -8.390625 2.015625 -8.671875 1.65625 -8.671875 C 1.25 -8.671875 0.96875 -8.3125 0.96875 -7.984375 C 0.96875 -7.625 1.25 -7.296875 1.65625 -7.296875 C 2.015625 -7.296875 2.34375 -7.5625 2.34375 -7.984375 Z M 2.34375 -7.984375 "/>
</g>
<g id="glyph-2-6">
<path d="M 2.234375 -5.1875 L 4.09375 -5.1875 L 4.09375 -5.578125 L 2.234375 -5.578125 L 2.234375 -7.96875 L 1.921875 -7.96875 C 1.90625 -6.90625 1.515625 -5.515625 0.25 -5.46875 L 0.25 -5.1875 L 1.34375 -5.1875 L 1.34375 -1.609375 C 1.34375 -0.015625 2.546875 0.140625 3.015625 0.140625 C 3.9375 0.140625 4.296875 -0.78125 4.296875 -1.609375 L 4.296875 -2.34375 L 3.984375 -2.34375 L 3.984375 -1.625 C 3.984375 -0.671875 3.59375 -0.1875 3.109375 -0.1875 C 2.234375 -0.1875 2.234375 -1.359375 2.234375 -1.578125 Z M 2.234375 -5.1875 "/>
</g>
<g id="glyph-2-7">
<path d="M 2.6875 -2.515625 C 2.984375 -2.46875 4.046875 -2.25 4.046875 -1.328125 C 4.046875 -0.65625 3.59375 -0.140625 2.578125 -0.140625 C 1.484375 -0.140625 1.015625 -0.875 0.78125 -1.984375 C 0.734375 -2.15625 0.71875 -2.203125 0.59375 -2.203125 C 0.421875 -2.203125 0.421875 -2.109375 0.421875 -1.875 L 0.421875 -0.171875 C 0.421875 0.046875 0.421875 0.140625 0.5625 0.140625 C 0.640625 0.140625 0.640625 0.125 0.890625 -0.109375 C 0.921875 -0.140625 0.921875 -0.171875 1.15625 -0.421875 C 1.71875 0.125 2.3125 0.140625 2.578125 0.140625 C 4.0625 0.140625 4.65625 -0.71875 4.65625 -1.65625 C 4.65625 -2.34375 4.28125 -2.734375 4.125 -2.890625 C 3.6875 -3.296875 3.1875 -3.40625 2.640625 -3.515625 C 1.921875 -3.65625 1.046875 -3.828125 1.046875 -4.578125 C 1.046875 -5.03125 1.390625 -5.5625 2.5 -5.5625 C 3.921875 -5.5625 3.984375 -4.390625 4.015625 -3.984375 C 4.03125 -3.875 4.140625 -3.875 4.171875 -3.875 C 4.34375 -3.875 4.34375 -3.9375 4.34375 -4.1875 L 4.34375 -5.484375 C 4.34375 -5.71875 4.34375 -5.796875 4.203125 -5.796875 C 4.125 -5.796875 4.109375 -5.796875 3.9375 -5.640625 C 3.90625 -5.59375 3.765625 -5.484375 3.71875 -5.4375 C 3.21875 -5.796875 2.6875 -5.796875 2.5 -5.796875 C 0.921875 -5.796875 0.421875 -4.9375 0.421875 -4.203125 C 0.421875 -3.75 0.640625 -3.390625 0.984375 -3.109375 C 1.40625 -2.765625 1.765625 -2.6875 2.6875 -2.515625 Z M 2.6875 -2.515625 "/>
</g>
<g id="glyph-3-0">
<path d="M -4.453125 -1.421875 L -0.984375 -1.421875 C -0.40625 -1.421875 -0.40625 -1.28125 -0.40625 -0.421875 L 0 -0.421875 C -0.015625 -0.875 -0.03125 -1.53125 -0.03125 -1.875 C -0.03125 -2.21875 -0.015625 -2.890625 0 -3.328125 L -0.40625 -3.328125 C -0.40625 -2.46875 -0.40625 -2.3125 -0.984375 -2.3125 L -3.375 -2.3125 C -4.71875 -2.3125 -5.4375 -3.234375 -5.4375 -4.0625 C -5.4375 -4.890625 -4.734375 -5.03125 -4 -5.03125 L -0.984375 -5.03125 C -0.40625 -5.03125 -0.40625 -4.890625 -0.40625 -4.015625 L 0 -4.015625 C -0.015625 -4.46875 -0.03125 -5.125 -0.03125 -5.484375 C -0.03125 -5.8125 -0.015625 -6.484375 0 -6.9375 L -0.40625 -6.9375 C -0.40625 -6.25 -0.40625 -5.9375 -0.796875 -5.921875 L -3.265625 -5.921875 C -4.375 -5.921875 -4.78125 -5.921875 -5.25 -5.515625 C -5.46875 -5.34375 -5.71875 -4.90625 -5.71875 -4.15625 C -5.71875 -3.21875 -5.171875 -2.609375 -4.359375 -2.234375 L -5.71875 -2.234375 L -5.578125 -0.421875 L -5.1875 -0.421875 C -5.1875 -1.328125 -5.09375 -1.421875 -4.453125 -1.421875 Z M -4.453125 -1.421875 "/>
</g>
<g id="glyph-3-1">
<path d="M -2.765625 -6.09375 C -4.4375 -6.09375 -5.796875 -4.8125 -5.796875 -3.234375 C -5.796875 -1.625 -4.390625 -0.359375 -2.765625 -0.359375 C -1.09375 -0.359375 0.140625 -1.703125 0.140625 -3.21875 C 0.140625 -4.796875 -1.125 -6.09375 -2.765625 -6.09375 Z M -0.1875 -3.234375 C -0.1875 -2.6875 -0.453125 -2.109375 -1.046875 -1.765625 C -1.625 -1.4375 -2.40625 -1.4375 -2.875 -1.4375 C -3.375 -1.4375 -4.078125 -1.4375 -4.65625 -1.75 C -5.25 -2.09375 -5.515625 -2.703125 -5.515625 -3.21875 C -5.515625 -3.796875 -5.234375 -4.359375 -4.671875 -4.6875 C -4.125 -5.03125 -3.375 -5.03125 -2.875 -5.03125 C -2.40625 -5.03125 -1.703125 -5.03125 -1.140625 -4.734375 C -0.5625 -4.453125 -0.1875 -3.890625 -0.1875 -3.234375 Z M -0.1875 -3.234375 "/>
</g>
<g id="glyph-3-2">
<path d="M -1.71875 -6.71875 L -1.71875 -9.625 C -1.71875 -9.8125 -1.71875 -10.046875 -1.984375 -10.046875 C -2.234375 -10.046875 -2.234375 -9.8125 -2.234375 -9.609375 L -2.234375 -6.875 L -4.234375 -7.390625 L -4.234375 -9.609375 C -4.234375 -9.8125 -4.234375 -10.046875 -4.5 -10.046875 C -4.75 -10.046875 -4.75 -9.8125 -4.75 -9.625 L -4.75 -7.546875 L -8.5 -8.5625 C -8.515625 -8.578125 -8.671875 -8.609375 -8.734375 -8.609375 C -8.875 -8.609375 -8.984375 -8.5 -8.984375 -8.359375 C -8.984375 -8.140625 -8.828125 -8.109375 -8.671875 -8.0625 L -4.75 -7.015625 L -4.75 -4.578125 L -8.5 -5.59375 C -8.515625 -5.609375 -8.671875 -5.640625 -8.734375 -5.640625 C -8.875 -5.640625 -8.984375 -5.53125 -8.984375 -5.390625 C -8.984375 -5.1875 -8.828125 -5.140625 -8.671875 -5.109375 L -4.75 -4.046875 L -4.75 -1.15625 C -4.75 -0.96875 -4.75 -0.71875 -4.5 -0.71875 C -4.234375 -0.71875 -4.234375 -0.96875 -4.234375 -1.171875 L -4.234375 -3.90625 L -2.234375 -3.375 L -2.234375 -1.171875 C -2.234375 -0.96875 -2.234375 -0.71875 -1.984375 -0.71875 C -1.71875 -0.71875 -1.71875 -0.96875 -1.71875 -1.15625 L -1.71875 -3.21875 L 2.015625 -2.21875 C 2.046875 -2.203125 2.203125 -2.15625 2.25 -2.15625 C 2.390625 -2.15625 2.515625 -2.28125 2.515625 -2.421875 C 2.515625 -2.625 2.34375 -2.671875 2.203125 -2.703125 L -1.71875 -3.75 L -1.71875 -6.1875 L 2.015625 -5.1875 C 2.046875 -5.171875 2.203125 -5.125 2.25 -5.125 C 2.390625 -5.125 2.515625 -5.25 2.515625 -5.390625 C 2.515625 -5.59375 2.34375 -5.640625 2.203125 -5.671875 Z M -2.234375 -3.90625 L -4.234375 -4.4375 L -4.234375 -6.859375 L -2.234375 -6.34375 Z M -2.234375 -3.90625 "/>
</g>
<g id="glyph-3-3">
<path d="M -2.828125 -1.515625 C -4.9375 -1.515625 -5.484375 -2.578125 -5.484375 -3.265625 C -5.484375 -3.375 -5.46875 -4.203125 -5 -4.65625 C -4.96875 -4.125 -4.578125 -4.046875 -4.40625 -4.046875 C -4.0625 -4.046875 -3.8125 -4.28125 -3.8125 -4.640625 C -3.8125 -4.96875 -4.03125 -5.234375 -4.421875 -5.234375 C -5.296875 -5.234375 -5.796875 -4.25 -5.796875 -3.25 C -5.796875 -1.625 -4.40625 -0.4375 -2.796875 -0.4375 C -1.140625 -0.4375 0.140625 -1.71875 0.140625 -3.21875 C 0.140625 -4.96875 -1.40625 -5.375 -1.546875 -5.375 C -1.671875 -5.375 -1.671875 -5.25 -1.671875 -5.203125 C -1.671875 -5.09375 -1.625 -5.0625 -1.546875 -5.03125 C -0.34375 -4.65625 -0.1875 -3.828125 -0.1875 -3.34375 C -0.1875 -2.65625 -0.734375 -1.515625 -2.828125 -1.515625 Z M -2.828125 -1.515625 "/>
</g>
<g id="glyph-3-4">
<path d="M -0.984375 -1.421875 C -0.40625 -1.421875 -0.40625 -1.28125 -0.40625 -0.421875 L 0 -0.421875 C -0.015625 -0.875 -0.03125 -1.53125 -0.03125 -1.875 C -0.03125 -2.21875 -0.015625 -2.890625 0 -3.328125 L -0.40625 -3.328125 C -0.40625 -2.46875 -0.40625 -2.3125 -0.984375 -2.3125 L -3.375 -2.3125 C -4.71875 -2.3125 -5.4375 -3.234375 -5.4375 -4.0625 C -5.4375 -4.890625 -4.734375 -5.03125 -4 -5.03125 L -0.984375 -5.03125 C -0.40625 -5.03125 -0.40625 -4.890625 -0.40625 -4.015625 L 0 -4.015625 C -0.015625 -4.46875 -0.03125 -5.125 -0.03125 -5.484375 C -0.03125 -5.8125 -0.015625 -6.484375 0 -6.9375 L -0.40625 -6.9375 C -0.40625 -6.25 -0.40625 -5.9375 -0.796875 -5.921875 L -3.265625 -5.921875 C -4.375 -5.921875 -4.78125 -5.921875 -5.25 -5.515625 C -5.46875 -5.34375 -5.71875 -4.90625 -5.71875 -4.15625 C -5.71875 -3.0625 -4.953125 -2.5 -4.453125 -2.28125 L -8.984375 -2.28125 L -8.84375 -0.421875 L -8.453125 -0.421875 C -8.453125 -1.328125 -8.359375 -1.421875 -7.71875 -1.421875 Z M -0.984375 -1.421875 "/>
</g>
<g id="glyph-3-5">
<path d="M -3.265625 -1.453125 C -5.1875 -1.53125 -5.515625 -2.609375 -5.515625 -3.0625 C -5.515625 -4.390625 -3.765625 -4.515625 -3.265625 -4.515625 Z M -2.984375 -1.4375 L -2.984375 -5.046875 C -2.984375 -5.34375 -2.984375 -5.375 -3.265625 -5.375 C -4.546875 -5.375 -5.796875 -4.671875 -5.796875 -3.0625 C -5.796875 -1.546875 -4.46875 -0.359375 -2.84375 -0.359375 C -1.109375 -0.359375 0.140625 -1.71875 0.140625 -3.21875 C 0.140625 -4.796875 -1.296875 -5.375 -1.546875 -5.375 C -1.671875 -5.375 -1.703125 -5.265625 -1.703125 -5.203125 C -1.703125 -5.09375 -1.625 -5.0625 -1.515625 -5.03125 C -0.1875 -4.578125 -0.1875 -3.421875 -0.1875 -3.296875 C -0.1875 -2.640625 -0.5625 -2.125 -1.046875 -1.828125 C -1.671875 -1.4375 -2.53125 -1.4375 -2.984375 -1.4375 Z M -2.984375 -1.4375 "/>
</g>
<g id="glyph-3-6">
<path d="M -0.984375 -1.375 C -0.40625 -1.375 -0.40625 -1.234375 -0.40625 -0.359375 L 0 -0.359375 C -0.015625 -0.796875 -0.03125 -1.40625 -0.03125 -1.78125 C -0.03125 -2.15625 -0.03125 -2.6875 0 -3.203125 L -0.40625 -3.203125 C -0.40625 -2.328125 -0.40625 -2.1875 -0.984375 -2.1875 L -2.3125 -2.1875 L -3.03125 -3.015625 C -1.65625 -4.015625 -0.9375 -4.5625 -0.703125 -4.5625 C -0.453125 -4.5625 -0.40625 -4.34375 -0.40625 -4.09375 L 0 -4.09375 C -0.015625 -4.453125 -0.03125 -5.21875 -0.03125 -5.484375 C -0.03125 -5.875 -0.03125 -6.25 0 -6.625 L -0.40625 -6.625 C -0.40625 -6.140625 -0.40625 -5.859375 -1.09375 -5.359375 L -3.40625 -3.71875 C -3.4375 -3.703125 -3.515625 -3.640625 -3.546875 -3.640625 C -3.59375 -3.640625 -4.375 -4.5625 -4.484375 -4.6875 C -5.140625 -5.5 -5.171875 -6.046875 -5.1875 -6.328125 L -5.578125 -6.328125 C -5.546875 -5.953125 -5.546875 -5.78125 -5.546875 -5.421875 C -5.546875 -4.953125 -5.5625 -4.140625 -5.578125 -3.96875 L -5.1875 -3.96875 C -5.171875 -4.203125 -5.03125 -4.34375 -4.859375 -4.34375 C -4.59375 -4.34375 -4.4375 -4.15625 -4.359375 -4.046875 L -2.765625 -2.234375 L -8.984375 -2.234375 L -8.84375 -0.359375 L -8.453125 -0.359375 C -8.453125 -1.265625 -8.359375 -1.375 -7.71875 -1.375 Z M -0.984375 -1.375 "/>
</g>
<g id="glyph-3-7">
<path d="M -2.515625 -2.6875 C -2.46875 -2.984375 -2.25 -4.046875 -1.328125 -4.046875 C -0.65625 -4.046875 -0.140625 -3.59375 -0.140625 -2.578125 C -0.140625 -1.484375 -0.875 -1.015625 -1.984375 -0.78125 C -2.15625 -0.734375 -2.203125 -0.71875 -2.203125 -0.59375 C -2.203125 -0.421875 -2.109375 -0.421875 -1.875 -0.421875 L -0.171875 -0.421875 C 0.046875 -0.421875 0.140625 -0.421875 0.140625 -0.5625 C 0.140625 -0.640625 0.125 -0.640625 -0.109375 -0.890625 C -0.140625 -0.921875 -0.171875 -0.921875 -0.421875 -1.15625 C 0.125 -1.71875 0.140625 -2.3125 0.140625 -2.578125 C 0.140625 -4.0625 -0.71875 -4.65625 -1.65625 -4.65625 C -2.34375 -4.65625 -2.734375 -4.28125 -2.890625 -4.125 C -3.296875 -3.6875 -3.40625 -3.1875 -3.515625 -2.640625 C -3.65625 -1.921875 -3.828125 -1.046875 -4.578125 -1.046875 C -5.03125 -1.046875 -5.5625 -1.390625 -5.5625 -2.5 C -5.5625 -3.921875 -4.390625 -3.984375 -3.984375 -4.015625 C -3.875 -4.03125 -3.875 -4.140625 -3.875 -4.171875 C -3.875 -4.34375 -3.9375 -4.34375 -4.1875 -4.34375 L -5.484375 -4.34375 C -5.71875 -4.34375 -5.796875 -4.34375 -5.796875 -4.203125 C -5.796875 -4.125 -5.796875 -4.109375 -5.640625 -3.9375 C -5.59375 -3.90625 -5.484375 -3.765625 -5.4375 -3.71875 C -5.796875 -3.21875 -5.796875 -2.6875 -5.796875 -2.5 C -5.796875 -0.921875 -4.9375 -0.421875 -4.203125 -0.421875 C -3.75 -0.421875 -3.390625 -0.640625 -3.109375 -0.984375 C -2.765625 -1.40625 -2.6875 -1.765625 -2.515625 -2.6875 Z M -2.515625 -2.6875 "/>
</g>
<g id="glyph-4-0">
<path d="M 0.84375 -0.4375 C 0.828125 -0.34375 0.78125 -0.171875 0.78125 -0.15625 C 0.78125 0 0.90625 0.0625 1.015625 0.0625 C 1.140625 0.0625 1.25 -0.015625 1.296875 -0.078125 C 1.328125 -0.140625 1.375 -0.375 1.421875 -0.515625 C 1.453125 -0.640625 1.53125 -0.96875 1.5625 -1.140625 C 1.609375 -1.296875 1.65625 -1.453125 1.6875 -1.609375 C 1.765625 -1.890625 1.78125 -1.953125 1.984375 -2.234375 C 2.171875 -2.515625 2.5 -2.875 3.03125 -2.875 C 3.421875 -2.875 3.4375 -2.515625 3.4375 -2.390625 C 3.4375 -1.96875 3.140625 -1.203125 3.03125 -0.90625 C 2.953125 -0.703125 2.921875 -0.640625 2.921875 -0.53125 C 2.921875 -0.15625 3.21875 0.0625 3.578125 0.0625 C 4.28125 0.0625 4.578125 -0.890625 4.578125 -1 C 4.578125 -1.09375 4.5 -1.09375 4.46875 -1.09375 C 4.375 -1.09375 4.375 -1.046875 4.34375 -0.96875 C 4.1875 -0.40625 3.875 -0.125 3.609375 -0.125 C 3.453125 -0.125 3.421875 -0.21875 3.421875 -0.375 C 3.421875 -0.53125 3.46875 -0.625 3.59375 -0.9375 C 3.671875 -1.15625 3.953125 -1.890625 3.953125 -2.28125 C 3.953125 -2.953125 3.421875 -3.078125 3.046875 -3.078125 C 2.46875 -3.078125 2.078125 -2.71875 1.875 -2.4375 C 1.828125 -2.921875 1.421875 -3.078125 1.125 -3.078125 C 0.828125 -3.078125 0.671875 -2.859375 0.578125 -2.703125 C 0.421875 -2.4375 0.328125 -2.046875 0.328125 -2 C 0.328125 -1.921875 0.421875 -1.921875 0.453125 -1.921875 C 0.546875 -1.921875 0.546875 -1.9375 0.59375 -2.125 C 0.703125 -2.53125 0.84375 -2.875 1.109375 -2.875 C 1.296875 -2.875 1.34375 -2.71875 1.34375 -2.53125 C 1.34375 -2.40625 1.28125 -2.140625 1.21875 -1.953125 C 1.171875 -1.765625 1.109375 -1.484375 1.078125 -1.328125 Z M 0.84375 -0.4375 "/>
</g>
<g id="glyph-4-1">
<path d="M 2.1875 -4.625 C 2.1875 -4.640625 2.203125 -4.734375 2.203125 -4.734375 C 2.203125 -4.78125 2.1875 -4.84375 2.09375 -4.84375 C 1.953125 -4.84375 1.375 -4.78125 1.203125 -4.765625 C 1.15625 -4.765625 1.046875 -4.75 1.046875 -4.609375 C 1.046875 -4.515625 1.15625 -4.515625 1.234375 -4.515625 C 1.5625 -4.515625 1.5625 -4.453125 1.5625 -4.40625 C 1.5625 -4.359375 1.546875 -4.3125 1.546875 -4.25 L 0.5625 -0.3125 C 0.515625 -0.1875 0.515625 -0.171875 0.515625 -0.15625 C 0.515625 -0.046875 0.609375 0.0625 0.765625 0.0625 C 0.953125 0.0625 1.03125 -0.0625 1.078125 -0.21875 C 1.09375 -0.25 1.390625 -1.484375 1.421875 -1.578125 C 1.921875 -1.53125 2.3125 -1.359375 2.3125 -1 C 2.3125 -0.96875 2.3125 -0.9375 2.296875 -0.859375 C 2.265625 -0.765625 2.265625 -0.71875 2.265625 -0.640625 C 2.265625 -0.15625 2.671875 0.0625 3.015625 0.0625 C 3.6875 0.0625 3.890625 -0.984375 3.890625 -1 C 3.890625 -1.09375 3.8125 -1.09375 3.78125 -1.09375 C 3.6875 -1.09375 3.671875 -1.046875 3.640625 -0.921875 C 3.5625 -0.625 3.375 -0.125 3.03125 -0.125 C 2.84375 -0.125 2.78125 -0.296875 2.78125 -0.484375 C 2.78125 -0.609375 2.78125 -0.625 2.828125 -0.796875 C 2.84375 -0.828125 2.859375 -0.9375 2.859375 -1.015625 C 2.859375 -1.640625 2.03125 -1.734375 1.734375 -1.75 C 1.9375 -1.875 2.1875 -2.109375 2.3125 -2.21875 C 2.671875 -2.546875 3.015625 -2.875 3.40625 -2.875 C 3.484375 -2.875 3.578125 -2.859375 3.640625 -2.78125 C 3.34375 -2.734375 3.28125 -2.5 3.28125 -2.390625 C 3.28125 -2.25 3.390625 -2.140625 3.546875 -2.140625 C 3.75 -2.140625 3.953125 -2.296875 3.953125 -2.578125 C 3.953125 -2.8125 3.78125 -3.078125 3.421875 -3.078125 C 3.015625 -3.078125 2.65625 -2.78125 2.296875 -2.453125 C 2 -2.1875 1.78125 -1.96875 1.484375 -1.84375 Z M 2.1875 -4.625 "/>
</g>
<g id="glyph-5-0">
<path d="M 4.203125 5.328125 L 0.65625 9.703125 C 0.578125 9.796875 0.5625 9.8125 0.5625 9.859375 C 0.5625 9.96875 0.65625 9.96875 0.84375 9.96875 L 9.09375 9.96875 L 9.953125 7.484375 L 9.703125 7.484375 C 9.453125 8.234375 8.796875 8.84375 7.9375 9.125 C 7.78125 9.1875 7.09375 9.421875 5.625 9.421875 L 1.390625 9.421875 L 4.859375 5.140625 C 4.921875 5.046875 4.9375 5.03125 4.9375 4.984375 C 4.9375 4.9375 4.9375 4.9375 4.875 4.84375 L 1.640625 0.40625 L 5.578125 0.40625 C 6.71875 0.40625 9.015625 0.46875 9.703125 2.328125 L 9.953125 2.328125 L 9.09375 0 L 0.84375 0 C 0.5625 0 0.5625 0.015625 0.5625 0.3125 Z M 4.203125 5.328125 "/>
</g>
<g id="glyph-6-0">
<path d="M 5.359375 -2.34375 C 5.453125 -2.34375 5.609375 -2.34375 5.609375 -2.515625 C 5.609375 -2.6875 5.453125 -2.6875 5.359375 -2.6875 L 0.75 -2.6875 C 0.65625 -2.6875 0.484375 -2.6875 0.484375 -2.515625 C 0.484375 -2.34375 0.640625 -2.34375 0.75 -2.34375 Z M 5.359375 -0.8125 C 5.453125 -0.8125 5.609375 -0.8125 5.609375 -0.96875 C 5.609375 -1.15625 5.453125 -1.15625 5.359375 -1.15625 L 0.75 -1.15625 C 0.640625 -1.15625 0.484375 -1.15625 0.484375 -0.96875 C 0.484375 -0.8125 0.65625 -0.8125 0.75 -0.8125 Z M 5.359375 -0.8125 "/>
</g>
<g id="glyph-6-1">
<path d="M 2.328125 -4.4375 C 2.328125 -4.625 2.328125 -4.625 2.125 -4.625 C 1.671875 -4.1875 1.046875 -4.1875 0.765625 -4.1875 L 0.765625 -3.9375 C 0.921875 -3.9375 1.390625 -3.9375 1.765625 -4.125 L 1.765625 -0.578125 C 1.765625 -0.34375 1.765625 -0.25 1.078125 -0.25 L 0.8125 -0.25 L 0.8125 0 C 0.9375 0 1.796875 -0.03125 2.046875 -0.03125 C 2.265625 -0.03125 3.140625 0 3.296875 0 L 3.296875 -0.25 L 3.03125 -0.25 C 2.328125 -0.25 2.328125 -0.34375 2.328125 -0.578125 Z M 2.328125 -4.4375 "/>
</g>
</g>
<clipPath id="clip-0">
<path clip-rule="nonzero" d="M 81 0 L 686.753906 0 L 686.753906 290 L 81 290 Z M 81 0 "/>
</clipPath>
<clipPath id="clip-1">
<path clip-rule="nonzero" d="M 81 6 L 686.753906 6 L 686.753906 290 L 81 290 Z M 81 6 "/>
</clipPath>
<clipPath id="clip-2">
<path clip-rule="nonzero" d="M 81 0 L 686.753906 0 L 686.753906 289 L 81 289 Z M 81 0 "/>
</clipPath>
<clipPath id="clip-3">
<path clip-rule="nonzero" d="M 81 6 L 686.753906 6 L 686.753906 289 L 81 289 Z M 81 6 "/>
</clipPath>
<clipPath id="clip-4">
<path clip-rule="nonzero" d="M 81 0 L 686.753906 0 L 686.753906 290 L 81 290 Z M 81 0 "/>
</clipPath>
<clipPath id="clip-5">
<path clip-rule="nonzero" d="M 678 292 L 686.753906 292 L 686.753906 300 L 678 300 Z M 678 292 "/>
</clipPath>
<clipPath id="clip-6">
<path clip-rule="nonzero" d="M 87 35 L 686.753906 35 L 686.753906 288.871094 L 87 288.871094 Z M 87 35 "/>
</clipPath>
<clipPath id="clip-7">
<path clip-rule="nonzero" d="M 87 34 L 686.753906 34 L 686.753906 288.871094 L 87 288.871094 Z M 87 34 "/>
</clipPath>
<clipPath id="clip-8">
<path clip-rule="nonzero" d="M 88 62 L 686.753906 62 L 686.753906 288.871094 L 88 288.871094 Z M 88 62 "/>
</clipPath>
</defs>
<g clip-path="url(#clip-0)">
<path fill="none" stroke-width="0.3985" stroke-linecap="butt" stroke-linejoin="miter" stroke="rgb(75%, 75%, 75%)" stroke-opacity="1" stroke-miterlimit="10" d="M -0.00159375 0.00090625 L -0.00159375 298.875906 M 24.021844 0.00090625 L 24.021844 298.875906 M 48.045281 0.00090625 L 48.045281 298.875906 M 72.068719 0.00090625 L 72.068719 298.875906 M 96.08825 0.00090625 L 96.08825 298.875906 M 120.111687 0.00090625 L 120.111687 298.875906 M 144.135125 0.00090625 L 144.135125 298.875906 M 168.158562 0.00090625 L 168.158562 298.875906 M 192.178094 0.00090625 L 192.178094 298.875906 M 216.201531 0.00090625 L 216.201531 298.875906 M 240.224969 0.00090625 L 240.224969 298.875906 M 264.248406 0.00090625 L 264.248406 298.875906 M 288.267938 0.00090625 L 288.267938 298.875906 M 312.291375 0.00090625 L 312.291375 298.875906 M 336.314813 0.00090625 L 336.314813 298.875906 M 360.33825 0.00090625 L 360.33825 298.875906 M 384.357781 0.00090625 L 384.357781 298.875906 M 408.381219 0.00090625 L 408.381219 298.875906 M 432.404656 0.00090625 L 432.404656 298.875906 M 456.428094 0.00090625 L 456.428094 298.875906 M 480.447625 0.00090625 L 480.447625 298.875906 M 504.471063 0.00090625 L 504.471063 298.875906 M 528.4945 0.00090625 L 528.4945 298.875906 M 552.517938 0.00090625 L 552.517938 298.875906 M 576.537469 0.00090625 L 576.537469 298.875906 M 600.560906 0.00090625 L 600.560906 298.875906 M 624.584344 0.00090625 L 624.584344 298.875906 " transform="matrix(1, 0, 0, -1, 81.943, 288.872)"/>
</g>
<g clip-path="url(#clip-1)">
<path fill="none" stroke-width="0.3985" stroke-linecap="butt" stroke-linejoin="miter" stroke="rgb(75%, 75%, 75%)" stroke-opacity="1" stroke-miterlimit="10" d="M -0.00159375 0.00090625 L 642.599969 0.00090625 M -0.00159375 28.196219 L 642.599969 28.196219 M -0.00159375 56.391531 L 642.599969 56.391531 M -0.00159375 84.586844 L 642.599969 84.586844 M -0.00159375 112.782156 L 642.599969 112.782156 M -0.00159375 140.977469 L 642.599969 140.977469 M -0.00159375 169.176687 L 642.599969 169.176687 M -0.00159375 197.372 L 642.599969 197.372 M -0.00159375 225.567312 L 642.599969 225.567312 M -0.00159375 253.762625 L 642.599969 253.762625 M -0.00159375 281.957937 L 642.599969 281.957937 " transform="matrix(1, 0, 0, -1, 81.943, 288.872)"/>
</g>
<g clip-path="url(#clip-2)">
<path fill="none" stroke-width="0.19925" stroke-linecap="butt" stroke-linejoin="miter" stroke="rgb(50%, 50%, 50%)" stroke-opacity="1" stroke-miterlimit="10" d="M -0.00159375 0.00090625 L -0.00159375 4.250906 M 24.021844 0.00090625 L 24.021844 4.250906 M 48.045281 0.00090625 L 48.045281 4.250906 M 72.068719 0.00090625 L 72.068719 4.250906 M 96.08825 0.00090625 L 96.08825 4.250906 M 120.111687 0.00090625 L 120.111687 4.250906 M 144.135125 0.00090625 L 144.135125 4.250906 M 168.158562 0.00090625 L 168.158562 4.250906 M 192.178094 0.00090625 L 192.178094 4.250906 M 216.201531 0.00090625 L 216.201531 4.250906 M 240.224969 0.00090625 L 240.224969 4.250906 M 264.248406 0.00090625 L 264.248406 4.250906 M 288.267938 0.00090625 L 288.267938 4.250906 M 312.291375 0.00090625 L 312.291375 4.250906 M 336.314813 0.00090625 L 336.314813 4.250906 M 360.33825 0.00090625 L 360.33825 4.250906 M 384.357781 0.00090625 L 384.357781 4.250906 M 408.381219 0.00090625 L 408.381219 4.250906 M 432.404656 0.00090625 L 432.404656 4.250906 M 456.428094 0.00090625 L 456.428094 4.250906 M 480.447625 0.00090625 L 480.447625 4.250906 M 504.471063 0.00090625 L 504.471063 4.250906 M 528.4945 0.00090625 L 528.4945 4.250906 M 552.517938 0.00090625 L 552.517938 4.250906 M 576.537469 0.00090625 L 576.537469 4.250906 M 600.560906 0.00090625 L 600.560906 4.250906 M 624.584344 0.00090625 L 624.584344 4.250906 M -0.00159375 298.875906 L -0.00159375 294.625906 M 24.021844 298.875906 L 24.021844 294.625906 M 48.045281 298.875906 L 48.045281 294.625906 M 72.068719 298.875906 L 72.068719 294.625906 M 96.08825 298.875906 L 96.08825 294.625906 M 120.111687 298.875906 L 120.111687 294.625906 M 144.135125 298.875906 L 144.135125 294.625906 M 168.158562 298.875906 L 168.158562 294.625906 M 192.178094 298.875906 L 192.178094 294.625906 M 216.201531 298.875906 L 216.201531 294.625906 M 240.224969 298.875906 L 240.224969 294.625906 M 264.248406 298.875906 L 264.248406 294.625906 M 288.267938 298.875906 L 288.267938 294.625906 M 312.291375 298.875906 L 312.291375 294.625906 M 336.314813 298.875906 L 336.314813 294.625906 M 360.33825 298.875906 L 360.33825 294.625906 M 384.357781 298.875906 L 384.357781 294.625906 M 408.381219 298.875906 L 408.381219 294.625906 M 432.404656 298.875906 L 432.404656 294.625906 M 456.428094 298.875906 L 456.428094 294.625906 M 480.447625 298.875906 L 480.447625 294.625906 M 504.471063 298.875906 L 504.471063 294.625906 M 528.4945 298.875906 L 528.4945 294.625906 M 552.517938 298.875906 L 552.517938 294.625906 M 576.537469 298.875906 L 576.537469 294.625906 M 600.560906 298.875906 L 600.560906 294.625906 M 624.584344 298.875906 L 624.584344 294.625906 " transform="matrix(1, 0, 0, -1, 81.943, 288.872)"/>
</g>
<g clip-path="url(#clip-3)">
<path fill="none" stroke-width="0.19925" stroke-linecap="butt" stroke-linejoin="miter" stroke="rgb(50%, 50%, 50%)" stroke-opacity="1" stroke-miterlimit="10" d="M -0.00159375 0.00090625 L 4.252312 0.00090625 M -0.00159375 28.196219 L 4.252312 28.196219 M -0.00159375 56.391531 L 4.252312 56.391531 M -0.00159375 84.586844 L 4.252312 84.586844 M -0.00159375 112.782156 L 4.252312 112.782156 M -0.00159375 140.977469 L 4.252312 140.977469 M -0.00159375 169.176687 L 4.252312 169.176687 M -0.00159375 197.372 L 4.252312 197.372 M -0.00159375 225.567312 L 4.252312 225.567312 M -0.00159375 253.762625 L 4.252312 253.762625 M -0.00159375 281.957937 L 4.252312 281.957937 M 642.599969 0.00090625 L 638.349969 0.00090625 M 642.599969 28.196219 L 638.349969 28.196219 M 642.599969 56.391531 L 638.349969 56.391531 M 642.599969 84.586844 L 638.349969 84.586844 M 642.599969 112.782156 L 638.349969 112.782156 M 642.599969 140.977469 L 638.349969 140.977469 M 642.599969 169.176687 L 638.349969 169.176687 M 642.599969 197.372 L 638.349969 197.372 M 642.599969 225.567312 L 638.349969 225.567312 M 642.599969 253.762625 L 638.349969 253.762625 M 642.599969 281.957937 L 638.349969 281.957937 " transform="matrix(1, 0, 0, -1, 81.943, 288.872)"/>
</g>
<g clip-path="url(#clip-4)">
<path fill="none" stroke-width="0.3985" stroke-linecap="butt" stroke-linejoin="miter" stroke="rgb(0%, 0%, 0%)" stroke-opacity="1" stroke-miterlimit="10" d="M -0.00159375 0.00090625 L -0.00159375 298.875906 L 642.599969 298.875906 L 642.599969 0.00090625 Z M -0.00159375 0.00090625 " transform="matrix(1, 0, 0, -1, 81.943, 288.872)"/>
</g>
<g fill="rgb(0%, 0%, 0%)" fill-opacity="1">
<use xlink:href="#glyph-0-0" x="79.453" y="298.813"/>
</g>
<g fill="rgb(0%, 0%, 0%)" fill-opacity="1">
<use xlink:href="#glyph-0-1" x="103.475" y="298.813"/>
</g>
<g fill="rgb(0%, 0%, 0%)" fill-opacity="1">
<use xlink:href="#glyph-0-2" x="127.497" y="298.813"/>
</g>
<g fill="rgb(0%, 0%, 0%)" fill-opacity="1">
<use xlink:href="#glyph-0-3" x="151.519" y="298.813"/>
</g>
<g fill="rgb(0%, 0%, 0%)" fill-opacity="1">
<use xlink:href="#glyph-0-4" x="175.541" y="298.813"/>
</g>
<g fill="rgb(0%, 0%, 0%)" fill-opacity="1">
<use xlink:href="#glyph-0-5" x="197.073" y="298.813"/>
<use xlink:href="#glyph-0-0" x="202.0543" y="298.813"/>
</g>
<g fill="rgb(0%, 0%, 0%)" fill-opacity="1">
<use xlink:href="#glyph-0-5" x="221.095" y="298.813"/>
<use xlink:href="#glyph-0-1" x="226.0763" y="298.813"/>
</g>
<g fill="rgb(0%, 0%, 0%)" fill-opacity="1">
<use xlink:href="#glyph-0-5" x="245.117" y="298.813"/>
<use xlink:href="#glyph-0-2" x="250.0983" y="298.813"/>
</g>
<g fill="rgb(0%, 0%, 0%)" fill-opacity="1">
<use xlink:href="#glyph-0-5" x="269.139" y="298.813"/>
<use xlink:href="#glyph-0-3" x="274.1203" y="298.813"/>
</g>
<g fill="rgb(0%, 0%, 0%)" fill-opacity="1">
<use xlink:href="#glyph-0-5" x="293.161" y="298.813"/>
<use xlink:href="#glyph-0-4" x="298.1423" y="298.813"/>
</g>
<g fill="rgb(0%, 0%, 0%)" fill-opacity="1">
<use xlink:href="#glyph-0-1" x="317.184" y="298.813"/>
<use xlink:href="#glyph-0-0" x="322.1653" y="298.813"/>
</g>
<g fill="rgb(0%, 0%, 0%)" fill-opacity="1">
<use xlink:href="#glyph-0-1" x="341.206" y="298.813"/>
<use xlink:href="#glyph-0-1" x="346.1873" y="298.813"/>
</g>
<g fill="rgb(0%, 0%, 0%)" fill-opacity="1">
<use xlink:href="#glyph-0-1" x="365.228" y="298.813"/>
<use xlink:href="#glyph-0-2" x="370.2093" y="298.813"/>
</g>
<g fill="rgb(0%, 0%, 0%)" fill-opacity="1">
<use xlink:href="#glyph-0-1" x="389.25" y="298.813"/>
<use xlink:href="#glyph-0-3" x="394.2313" y="298.813"/>
</g>
<g fill="rgb(0%, 0%, 0%)" fill-opacity="1">
<use xlink:href="#glyph-0-1" x="413.272" y="298.813"/>
<use xlink:href="#glyph-0-4" x="418.2533" y="298.813"/>
</g>
<g fill="rgb(0%, 0%, 0%)" fill-opacity="1">
<use xlink:href="#glyph-0-6" x="437.294" y="298.813"/>
<use xlink:href="#glyph-0-0" x="442.2753" y="298.813"/>
</g>
<g fill="rgb(0%, 0%, 0%)" fill-opacity="1">
<use xlink:href="#glyph-0-6" x="461.316" y="298.813"/>
<use xlink:href="#glyph-0-1" x="466.2973" y="298.813"/>
</g>
<g fill="rgb(0%, 0%, 0%)" fill-opacity="1">
<use xlink:href="#glyph-0-6" x="485.339" y="298.813"/>
<use xlink:href="#glyph-0-2" x="490.3203" y="298.813"/>
</g>
<g fill="rgb(0%, 0%, 0%)" fill-opacity="1">
<use xlink:href="#glyph-0-6" x="509.361" y="298.813"/>
<use xlink:href="#glyph-0-3" x="514.3423" y="298.813"/>
</g>
<g fill="rgb(0%, 0%, 0%)" fill-opacity="1">
<use xlink:href="#glyph-0-6" x="533.383" y="298.813"/>
<use xlink:href="#glyph-0-4" x="538.3643" y="298.813"/>
</g>
<g fill="rgb(0%, 0%, 0%)" fill-opacity="1">
<use xlink:href="#glyph-0-2" x="557.405" y="298.813"/>
<use xlink:href="#glyph-0-0" x="562.3863" y="298.813"/>
</g>
<g fill="rgb(0%, 0%, 0%)" fill-opacity="1">
<use xlink:href="#glyph-0-2" x="581.427" y="298.813"/>
<use xlink:href="#glyph-0-1" x="586.4083" y="298.813"/>
</g>
<g fill="rgb(0%, 0%, 0%)" fill-opacity="1">
<use xlink:href="#glyph-0-2" x="605.449" y="298.813"/>
<use xlink:href="#glyph-0-2" x="610.4303" y="298.813"/>
</g>
<g fill="rgb(0%, 0%, 0%)" fill-opacity="1">
<use xlink:href="#glyph-0-2" x="629.472" y="298.813"/>
<use xlink:href="#glyph-0-3" x="634.4533" y="298.813"/>
</g>
<g fill="rgb(0%, 0%, 0%)" fill-opacity="1">
<use xlink:href="#glyph-0-2" x="653.494" y="298.813"/>
<use xlink:href="#glyph-0-4" x="658.4753" y="298.813"/>
</g>
<g clip-path="url(#clip-5)">
<g fill="rgb(0%, 0%, 0%)" fill-opacity="1">
<use xlink:href="#glyph-0-7" x="677.516" y="298.813"/>
<use xlink:href="#glyph-0-0" x="682.4973" y="298.813"/>
</g>
</g>
<g fill="rgb(0%, 0%, 0%)" fill-opacity="1">
<use xlink:href="#glyph-0-0" x="73.442" y="292.083"/>
</g>
<g fill="rgb(0%, 0%, 0%)" fill-opacity="1">
<use xlink:href="#glyph-0-0" x="65.693" y="263.887"/>
</g>
<g fill="rgb(0%, 0%, 0%)" fill-opacity="1">
<use xlink:href="#glyph-1-0" x="70.6743" y="263.887"/>
</g>
<g fill="rgb(0%, 0%, 0%)" fill-opacity="1">
<use xlink:href="#glyph-0-7" x="73.44191" y="263.887"/>
</g>
<g fill="rgb(0%, 0%, 0%)" fill-opacity="1">
<use xlink:href="#glyph-0-5" x="73.442" y="235.692"/>
</g>
<g fill="rgb(0%, 0%, 0%)" fill-opacity="1">
<use xlink:href="#glyph-0-5" x="65.693" y="207.496"/>
</g>
<g fill="rgb(0%, 0%, 0%)" fill-opacity="1">
<use xlink:href="#glyph-1-0" x="70.6743" y="207.496"/>
</g>
<g fill="rgb(0%, 0%, 0%)" fill-opacity="1">
<use xlink:href="#glyph-0-7" x="73.44191" y="207.496"/>
</g>
<g fill="rgb(0%, 0%, 0%)" fill-opacity="1">
<use xlink:href="#glyph-0-1" x="73.442" y="179.301"/>
</g>
<g fill="rgb(0%, 0%, 0%)" fill-opacity="1">
<use xlink:href="#glyph-0-1" x="65.693" y="151.105"/>
</g>
<g fill="rgb(0%, 0%, 0%)" fill-opacity="1">
<use xlink:href="#glyph-1-0" x="70.6743" y="151.105"/>
</g>
<g fill="rgb(0%, 0%, 0%)" fill-opacity="1">
<use xlink:href="#glyph-0-7" x="73.44191" y="151.105"/>
</g>
<g fill="rgb(0%, 0%, 0%)" fill-opacity="1">
<use xlink:href="#glyph-0-6" x="73.442" y="122.91"/>
</g>
<g fill="rgb(0%, 0%, 0%)" fill-opacity="1">
<use xlink:href="#glyph-0-6" x="65.693" y="94.714"/>
</g>
<g fill="rgb(0%, 0%, 0%)" fill-opacity="1">
<use xlink:href="#glyph-1-0" x="70.6743" y="94.714"/>
</g>
<g fill="rgb(0%, 0%, 0%)" fill-opacity="1">
<use xlink:href="#glyph-0-7" x="73.44191" y="94.714"/>
</g>
<g fill="rgb(0%, 0%, 0%)" fill-opacity="1">
<use xlink:href="#glyph-0-2" x="73.442" y="66.519"/>
</g>
<g fill="rgb(0%, 0%, 0%)" fill-opacity="1">
<use xlink:href="#glyph-0-2" x="65.693" y="38.323"/>
</g>
<g fill="rgb(0%, 0%, 0%)" fill-opacity="1">
<use xlink:href="#glyph-1-0" x="70.6743" y="38.323"/>
</g>
<g fill="rgb(0%, 0%, 0%)" fill-opacity="1">
<use xlink:href="#glyph-0-7" x="73.44191" y="38.323"/>
</g>
<g fill="rgb(0%, 0%, 0%)" fill-opacity="1">
<use xlink:href="#glyph-0-7" x="73.442" y="10.128"/>
</g>
<g clip-path="url(#clip-6)">
<path fill-rule="nonzero" fill="rgb(0%, 0%, 0%)" fill-opacity="0.01" d="M 87.949219 288.871094 L 99.960938 288.871094 L 99.960938 232.480469 L 87.949219 232.480469 Z M 99.960938 288.871094 L 111.972656 288.871094 L 111.972656 204.285156 L 99.960938 204.285156 Z M 111.972656 288.871094 L 123.980469 288.871094 L 123.980469 185.488281 L 111.972656 185.488281 Z M 123.980469 288.871094 L 135.992188 288.871094 L 135.992188 171.390625 L 123.980469 171.390625 Z M 135.992188 288.871094 L 148.003906 288.871094 L 148.003906 160.109375 L 135.992188 160.109375 Z M 148.003906 288.871094 L 160.015625 288.871094 L 160.015625 150.710938 L 148.003906 150.710938 Z M 160.015625 288.871094 L 172.027344 288.871094 L 172.027344 142.65625 L 160.015625 142.65625 Z M 172.027344 288.871094 L 184.039062 288.871094 L 184.039062 135.605469 L 172.027344 135.605469 Z M 184.039062 288.871094 L 196.050781 288.871094 L 196.050781 129.339844 L 184.039062 129.339844 Z M 196.050781 288.871094 L 208.0625 288.871094 L 208.0625 123.703125 L 196.050781 123.703125 Z M 208.0625 288.871094 L 220.070312 288.871094 L 220.070312 118.574219 L 208.0625 118.574219 Z M 220.070312 288.871094 L 232.082031 288.871094 L 232.082031 113.875 L 220.070312 113.875 Z M 232.082031 288.871094 L 244.09375 288.871094 L 244.09375 109.539062 L 232.082031 109.539062 Z M 244.09375 288.871094 L 256.105469 288.871094 L 256.105469 105.511719 L 244.09375 105.511719 Z M 256.105469 288.871094 L 268.117188 288.871094 L 268.117188 101.75 L 256.105469 101.75 Z M 268.117188 288.871094 L 280.128906 288.871094 L 280.128906 98.226562 L 268.117188 98.226562 Z M 280.128906 288.871094 L 292.140625 288.871094 L 292.140625 94.910156 L 280.128906 94.910156 Z M 292.140625 288.871094 L 304.152344 288.871094 L 304.152344 91.777344 L 292.140625 91.777344 Z M 304.152344 288.871094 L 316.160156 288.871094 L 316.160156 88.808594 L 304.152344 88.808594 Z M 316.160156 288.871094 L 328.171875 288.871094 L 328.171875 85.988281 L 316.160156 85.988281 Z M 328.171875 288.871094 L 340.183594 288.871094 L 340.183594 83.304688 L 328.171875 83.304688 Z M 340.183594 288.871094 L 352.195312 288.871094 L 352.195312 80.742188 L 340.183594 80.742188 Z M 352.195312 288.871094 L 364.207031 288.871094 L 364.207031 78.289062 L 352.195312 78.289062 Z M 364.207031 288.871094 L 376.21875 288.871094 L 376.21875 75.9375 L 364.207031 75.9375 Z M 376.21875 288.871094 L 388.230469 288.871094 L 388.230469 73.683594 L 376.21875 73.683594 Z M 388.230469 288.871094 L 400.242188 288.871094 L 400.242188 71.511719 L 388.230469 71.511719 Z M 400.242188 288.871094 L 412.253906 288.871094 L 412.253906 69.425781 L 400.242188 69.425781 Z M 412.253906 288.871094 L 424.261719 288.871094 L 424.261719 67.410156 L 412.253906 67.410156 Z M 424.261719 288.871094 L 436.273438 288.871094 L 436.273438 65.464844 L 424.261719 65.464844 Z M 436.273438 288.871094 L 448.285156 288.871094 L 448.285156 63.585938 L 436.273438 63.585938 Z M 448.285156 288.871094 L 460.296875 288.871094 L 460.296875 61.769531 L 448.285156 61.769531 Z M 460.296875 288.871094 L 472.308594 288.871094 L 472.308594 60.007812 L 460.296875 60.007812 Z M 472.308594 288.871094 L 484.320312 288.871094 L 484.320312 58.296875 L 472.308594 58.296875 Z M 484.320312 288.871094 L 496.332031 288.871094 L 496.332031 56.636719 L 484.320312 56.636719 Z M 496.332031 288.871094 L 508.34375 288.871094 L 508.34375 55.027344 L 496.332031 55.027344 Z M 508.34375 288.871094 L 520.351562 288.871094 L 520.351562 53.460938 L 508.34375 53.460938 Z M 520.351562 288.871094 L 532.363281 288.871094 L 532.363281 51.933594 L 520.351562 51.933594 Z M 532.363281 288.871094 L 544.375 288.871094 L 544.375 50.449219 L 532.363281 50.449219 Z M 544.375 288.871094 L 556.386719 288.871094 L 556.386719 49.003906 L 544.375 49.003906 Z M 556.386719 288.871094 L 568.398438 288.871094 L 568.398438 47.597656 L 556.386719 47.597656 Z M 568.398438 288.871094 L 580.410156 288.871094 L 580.410156 46.222656 L 568.398438 46.222656 Z M 580.410156 288.871094 L 592.421875 288.871094 L 592.421875 44.878906 L 580.410156 44.878906 Z M 592.421875 288.871094 L 604.433594 288.871094 L 604.433594 43.566406 L 592.421875 43.566406 Z M 604.433594 288.871094 L 616.441406 288.871094 L 616.441406 42.285156 L 604.433594 42.285156 Z M 616.441406 288.871094 L 628.453125 288.871094 L 628.453125 41.03125 L 616.441406 41.03125 Z M 628.453125 288.871094 L 640.464844 288.871094 L 640.464844 39.808594 L 628.453125 39.808594 Z M 640.464844 288.871094 L 652.476562 288.871094 L 652.476562 38.605469 L 640.464844 38.605469 Z M 652.476562 288.871094 L 664.488281 288.871094 L 664.488281 37.429688 L 652.476562 37.429688 Z M 664.488281 288.871094 L 676.5 288.871094 L 676.5 36.277344 L 664.488281 36.277344 Z M 676.5 288.871094 L 688.511719 288.871094 L 688.511719 35.152344 L 676.5 35.152344 Z M 676.5 288.871094 "/>
</g>
<g clip-path="url(#clip-7)">
<path fill="none" stroke-width="0.3985" stroke-linecap="butt" stroke-linejoin="miter" stroke="rgb(0%, 0%, 0%)" stroke-opacity="1" stroke-miterlimit="10" d="M 6.006219 0.00090625 L 18.017937 0.00090625 L 18.017937 56.391531 L 6.006219 56.391531 Z M 18.017937 0.00090625 L 30.029656 0.00090625 L 30.029656 84.586844 L 18.017937 84.586844 Z M 30.029656 0.00090625 L 42.037469 0.00090625 L 42.037469 103.383719 L 30.029656 103.383719 Z M 42.037469 0.00090625 L 54.049187 0.00090625 L 54.049187 117.481375 L 42.037469 117.481375 Z M 54.049187 0.00090625 L 66.060906 0.00090625 L 66.060906 128.762625 L 54.049187 128.762625 Z M 66.060906 0.00090625 L 78.072625 0.00090625 L 78.072625 138.161062 L 66.060906 138.161062 Z M 78.072625 0.00090625 L 90.084344 0.00090625 L 90.084344 146.21575 L 78.072625 146.21575 Z M 90.084344 0.00090625 L 102.096062 0.00090625 L 102.096062 153.266531 L 90.084344 153.266531 Z M 102.096062 0.00090625 L 114.107781 0.00090625 L 114.107781 159.532156 L 102.096062 159.532156 Z M 114.107781 0.00090625 L 126.1195 0.00090625 L 126.1195 165.168875 L 114.107781 165.168875 Z M 126.1195 0.00090625 L 138.127312 0.00090625 L 138.127312 170.297781 L 126.1195 170.297781 Z M 138.127312 0.00090625 L 150.139031 0.00090625 L 150.139031 174.997 L 138.127312 174.997 Z M 150.139031 0.00090625 L 162.15075 0.00090625 L 162.15075 179.332937 L 150.139031 179.332937 Z M 162.15075 0.00090625 L 174.162469 0.00090625 L 174.162469 183.360281 L 162.15075 183.360281 Z M 174.162469 0.00090625 L 186.174187 0.00090625 L 186.174187 187.122 L 174.162469 187.122 Z M 186.174187 0.00090625 L 198.185906 0.00090625 L 198.185906 190.645437 L 186.174187 190.645437 Z M 198.185906 0.00090625 L 210.197625 0.00090625 L 210.197625 193.961844 L 198.185906 193.961844 Z M 210.197625 0.00090625 L 222.209344 0.00090625 L 222.209344 197.094656 L 210.197625 197.094656 Z M 222.209344 0.00090625 L 234.217156 0.00090625 L 234.217156 200.063406 L 222.209344 200.063406 Z M 234.217156 0.00090625 L 246.228875 0.00090625 L 246.228875 202.883719 L 234.217156 202.883719 Z M 246.228875 0.00090625 L 258.240594 0.00090625 L 258.240594 205.567312 L 246.228875 205.567312 Z M 258.240594 0.00090625 L 270.252313 0.00090625 L 270.252313 208.129812 L 258.240594 208.129812 Z M 270.252313 0.00090625 L 282.264031 0.00090625 L 282.264031 210.582937 L 270.252313 210.582937 Z M 282.264031 0.00090625 L 294.27575 0.00090625 L 294.27575 212.9345 L 282.264031 212.9345 Z M 294.27575 0.00090625 L 306.287469 0.00090625 L 306.287469 215.188406 L 294.27575 215.188406 Z M 306.287469 0.00090625 L 318.299188 0.00090625 L 318.299188 217.360281 L 306.287469 217.360281 Z M 318.299188 0.00090625 L 330.310906 0.00090625 L 330.310906 219.446219 L 318.299188 219.446219 Z M 330.310906 0.00090625 L 342.318719 0.00090625 L 342.318719 221.461844 L 330.310906 221.461844 Z M 342.318719 0.00090625 L 354.330438 0.00090625 L 354.330438 223.407156 L 342.318719 223.407156 Z M 354.330438 0.00090625 L 366.342156 0.00090625 L 366.342156 225.286062 L 354.330438 225.286062 Z M 366.342156 0.00090625 L 378.353875 0.00090625 L 378.353875 227.102469 L 366.342156 227.102469 Z M 378.353875 0.00090625 L 390.365594 0.00090625 L 390.365594 228.864187 L 378.353875 228.864187 Z M 390.365594 0.00090625 L 402.377313 0.00090625 L 402.377313 230.575125 L 390.365594 230.575125 Z M 402.377313 0.00090625 L 414.389031 0.00090625 L 414.389031 232.235281 L 402.377313 232.235281 Z M 414.389031 0.00090625 L 426.40075 0.00090625 L 426.40075 233.844656 L 414.389031 233.844656 Z M 426.40075 0.00090625 L 438.408563 0.00090625 L 438.408563 235.411062 L 426.40075 235.411062 Z M 438.408563 0.00090625 L 450.420281 0.00090625 L 450.420281 236.938406 L 438.408563 236.938406 Z M 450.420281 0.00090625 L 462.432 0.00090625 L 462.432 238.422781 L 450.420281 238.422781 Z M 462.432 0.00090625 L 474.443719 0.00090625 L 474.443719 239.868094 L 462.432 239.868094 Z M 474.443719 0.00090625 L 486.455438 0.00090625 L 486.455438 241.274344 L 474.443719 241.274344 Z M 486.455438 0.00090625 L 498.467156 0.00090625 L 498.467156 242.649344 L 486.455438 242.649344 Z M 498.467156 0.00090625 L 510.478875 0.00090625 L 510.478875 243.993094 L 498.467156 243.993094 Z M 510.478875 0.00090625 L 522.490594 0.00090625 L 522.490594 245.305594 L 510.478875 245.305594 Z M 522.490594 0.00090625 L 534.498406 0.00090625 L 534.498406 246.586844 L 522.490594 246.586844 Z M 534.498406 0.00090625 L 546.510125 0.00090625 L 546.510125 247.84075 L 534.498406 247.84075 Z M 546.510125 0.00090625 L 558.521844 0.00090625 L 558.521844 249.063406 L 546.510125 249.063406 Z M 558.521844 0.00090625 L 570.533563 0.00090625 L 570.533563 250.266531 L 558.521844 250.266531 Z M 570.533563 0.00090625 L 582.545281 0.00090625 L 582.545281 251.442312 L 570.533563 251.442312 Z M 582.545281 0.00090625 L 594.557 0.00090625 L 594.557 252.594656 L 582.545281 252.594656 Z M 594.557 0.00090625 L 606.568719 0.00090625 L 606.568719 253.719656 L 594.557 253.719656 Z M 594.557 0.00090625 " transform="matrix(1, 0, 0, -1, 81.943, 288.872)"/>
</g>
<g clip-path="url(#clip-8)">
<path fill="none" stroke-width="0.3985" stroke-linecap="butt" stroke-linejoin="miter" stroke="rgb(0%, 0%, 0%)" stroke-opacity="1" stroke-miterlimit="10" d="M 12.010125 0.00090625 C 12.010125 0.00090625 20.689812 30.485281 24.021844 39.082937 C 27.353875 47.676687 32.701531 56.52825 36.033562 61.950125 C 39.365594 67.375906 44.71325 74.176687 48.045281 78.176687 C 51.377312 82.172781 56.724969 87.586844 60.057 90.758719 C 63.389031 93.930594 68.732781 98.407156 72.068719 101.039969 C 75.40075 103.668875 80.7445 107.477469 84.080437 109.727469 C 87.412469 111.977469 92.756219 115.297781 96.08825 117.262625 C 99.424187 119.231375 104.767937 122.157156 108.099969 123.90325 C 111.435906 125.649344 116.779656 128.27825 120.111687 129.844656 C 123.443719 131.414969 128.791375 133.793875 132.123406 135.219656 C 135.455437 136.645437 140.803094 138.821219 144.135125 140.125906 C 147.467156 141.4345 152.814812 143.4345 156.146844 144.641531 C 159.478875 145.848562 164.822625 147.700125 168.158562 148.817312 C 171.490594 149.938406 176.834344 151.664969 180.170281 152.711844 C 183.502312 153.754812 188.846062 155.368094 192.178094 156.348562 C 195.514031 157.325125 200.857781 158.84075 204.189812 159.762625 C 207.52575 160.6845 212.8695 162.118094 216.201531 162.989187 C 219.533562 163.860281 224.881219 165.211844 228.21325 166.036062 C 231.545281 166.860281 236.892937 168.145437 240.224969 168.930594 C 243.557 169.711844 248.904656 170.938406 252.236687 171.6845 C 255.568719 172.430594 260.912469 173.594656 264.248406 174.305594 C 267.580438 175.020437 272.924188 176.133719 276.260125 176.813406 C 279.592156 177.497 284.935906 178.563406 288.267938 179.21575 C 291.603875 179.868094 296.947625 180.891531 300.279656 181.516531 C 303.615594 182.145437 308.959344 183.125906 312.291375 183.727469 C 315.623406 184.332937 320.971063 185.274344 324.303094 185.856375 C 327.635125 186.4345 332.982781 187.348562 336.314813 187.907156 C 339.646844 188.46575 344.9945 189.348562 348.326531 189.887625 C 351.658563 190.426687 357.002313 191.27825 360.33825 191.797781 C 363.670281 192.317312 369.014031 193.137625 372.349969 193.645437 C 375.682 194.149344 381.02575 194.946219 384.357781 195.4345 C 387.693719 195.922781 393.037469 196.696219 396.3695 197.168875 C 399.705438 197.641531 405.049188 198.391531 408.381219 198.852469 C 411.71325 199.313406 417.060906 200.039969 420.392938 200.485281 C 423.724969 200.9345 429.072625 201.641531 432.404656 202.079031 C 435.736688 202.512625 441.084344 203.200125 444.416375 203.622 C 447.748406 204.043875 453.092156 204.711844 456.428094 205.125906 C 459.760125 205.536062 465.103875 206.188406 468.439813 206.59075 C 471.771844 206.993094 477.115594 207.629812 480.447625 208.020437 C 483.783563 208.414969 489.127313 209.032156 492.459344 209.414969 C 495.795281 209.793875 501.139031 210.399344 504.471063 210.770437 C 507.803094 211.141531 513.15075 211.735281 516.482781 212.098562 C 519.814813 212.461844 525.162469 213.039969 528.4945 213.395437 C 531.826531 213.750906 537.174188 214.313406 540.506219 214.664969 C 543.83825 215.012625 549.182 215.563406 552.517938 215.90325 C 555.849969 216.243094 561.193719 216.782156 564.529656 217.114187 C 567.861688 217.450125 573.205438 217.977469 576.537469 218.301687 C 579.873406 218.629812 585.217156 219.145437 588.549188 219.46575 C 591.885125 219.782156 600.560906 220.606375 600.560906 220.606375 " transform="matrix(1, 0, 0, -1, 81.943, 288.872)"/>
</g>
<g fill="rgb(0%, 0%, 0%)" fill-opacity="1">
<use xlink:href="#glyph-2-0" x="360.032" y="315.703"/>
<use xlink:href="#glyph-2-1" x="367.227787" y="315.703"/>
<use xlink:href="#glyph-2-2" x="373.703477" y="315.703"/>
</g>
<g fill="rgb(0%, 0%, 0%)" fill-opacity="1">
<use xlink:href="#glyph-2-3" x="388.808671" y="315.703"/>
<use xlink:href="#glyph-2-1" x="394.564264" y="315.703"/>
<use xlink:href="#glyph-2-0" x="401.039954" y="315.703"/>
<use xlink:href="#glyph-2-4" x="408.235741" y="315.703"/>
<use xlink:href="#glyph-2-5" x="415.431528" y="315.703"/>
<use xlink:href="#glyph-2-6" x="419.029421" y="315.703"/>
<use xlink:href="#glyph-2-5" x="424.066213" y="315.703"/>
<use xlink:href="#glyph-2-1" x="427.664106" y="315.703"/>
<use xlink:href="#glyph-2-0" x="434.139796" y="315.703"/>
<use xlink:href="#glyph-2-7" x="441.335583" y="315.703"/>
</g>
<g fill="rgb(0%, 0%, 0%)" fill-opacity="1">
<use xlink:href="#glyph-3-0" x="55.278" y="171.671"/>
<use xlink:href="#glyph-3-1" x="55.278" y="164.475213"/>
<use xlink:href="#glyph-3-2" x="55.278" y="157.999523"/>
</g>
<g fill="rgb(0%, 0%, 0%)" fill-opacity="1">
<use xlink:href="#glyph-3-3" x="55.278" y="142.894329"/>
</g>
<g fill="rgb(0%, 0%, 0%)" fill-opacity="1">
<use xlink:href="#glyph-3-4" x="55.278" y="137.488423"/>
<use xlink:href="#glyph-3-5" x="55.278" y="130.292636"/>
<use xlink:href="#glyph-3-3" x="55.278" y="124.537043"/>
</g>
<g fill="rgb(0%, 0%, 0%)" fill-opacity="1">
<use xlink:href="#glyph-3-6" x="55.278" y="119.144088"/>
<use xlink:href="#glyph-3-7" x="55.278" y="112.30835"/>
</g>
<path fill-rule="nonzero" fill="rgb(100%, 100%, 100%)" fill-opacity="1" stroke-width="0.3985" stroke-linecap="butt" stroke-linejoin="miter" stroke="rgb(0%, 0%, 0%)" stroke-opacity="1" stroke-miterlimit="10" d="M 19.474969 258.879812 L 110.783562 258.879812 L 110.783562 289.711844 L 19.474969 289.711844 Z M 19.474969 258.879812 " transform="matrix(1, 0, 0, -1, 81.943, 288.872)"/>
<path fill="none" stroke-width="0.3985" stroke-linecap="butt" stroke-linejoin="miter" stroke="rgb(0%, 0%, 0%)" stroke-opacity="1" stroke-miterlimit="10" d="M -1.492625 0.00053125 L 1.495656 0.00053125 Z M 7.011281 0.00053125 L 9.999562 0.00053125 Z M 15.515187 0.00053125 L 18.503469 0.00053125 Z M 15.515187 0.00053125 " transform="matrix(1, 0, 0, -1, 106.102, 8.106)"/>
<g fill="rgb(0%, 0%, 0%)" fill-opacity="1">
<use xlink:href="#glyph-1-1" x="126.796" y="11.567"/>
</g>
<g fill="rgb(0%, 0%, 0%)" fill-opacity="1">
<use xlink:href="#glyph-4-0" x="135.077" y="13.061"/>
</g>
<g fill="rgb(0%, 0%, 0%)" fill-opacity="1">
<use xlink:href="#glyph-0-8" x="143.268" y="11.567"/>
</g>
<g fill="rgb(0%, 0%, 0%)" fill-opacity="1">
<use xlink:href="#glyph-5-0" x="153.784" y="4.095"/>
</g>
<g fill="rgb(0%, 0%, 0%)" fill-opacity="1">
<use xlink:href="#glyph-4-0" x="164.3" y="6.558"/>
</g>
<g fill="rgb(0%, 0%, 0%)" fill-opacity="1">
<use xlink:href="#glyph-4-1" x="164.3" y="14.556"/>
</g>
<g fill="rgb(0%, 0%, 0%)" fill-opacity="1">
<use xlink:href="#glyph-6-0" x="168.70256" y="14.556"/>
<use xlink:href="#glyph-6-1" x="174.818583" y="14.556"/>
</g>
<g fill="rgb(0%, 0%, 0%)" fill-opacity="1">
<use xlink:href="#glyph-6-1" x="182.361" y="7.644"/>
</g>
<path fill="none" stroke-width="0.398" stroke-linecap="butt" stroke-linejoin="miter" stroke="rgb(0%, 0%, 0%)" stroke-opacity="1" stroke-miterlimit="10" d="M -0.00046875 0.00178125 L 4.405781 0.00178125 " transform="matrix(1, 0, 0, -1, 182.145, 9.076)"/>
<g fill="rgb(0%, 0%, 0%)" fill-opacity="1">
<use xlink:href="#glyph-4-1" x="182.145" y="15.003"/>
</g>
<path fill="none" stroke-width="0.3985" stroke-linecap="butt" stroke-linejoin="miter" stroke="rgb(0%, 0%, 0%)" stroke-opacity="1" stroke-miterlimit="10" d="M -0.0004375 -0.00125 C -0.0004375 -0.00125 6.144094 -0.00125 8.503469 -0.00125 C 10.862844 -0.00125 17.007375 -0.00125 17.007375 -0.00125 " transform="matrix(1, 0, 0, -1, 106.102, 21.53)"/>
<g fill="rgb(0%, 0%, 0%)" fill-opacity="1">
<use xlink:href="#glyph-0-9" x="146.255" y="24.518"/>
<use xlink:href="#glyph-0-10" x="149.02261" y="24.518"/>
<use xlink:href="#glyph-0-11" x="154.557831" y="24.518"/>
</g>
<g fill="rgb(0%, 0%, 0%)" fill-opacity="1">
<use xlink:href="#glyph-1-2" x="158.432286" y="24.518"/>
</g>
<g fill="rgb(0%, 0%, 0%)" fill-opacity="1">
<use xlink:href="#glyph-0-12" x="164.411839" y="24.518"/>
</g>
</svg>
